<svg xmlns="http://www.w3.org/2000/svg" xmlns:xlink="http://www.w3.org/1999/xlink" viewBox="0 0 132.33 124"><defs><style>.cls-1{fill:none;}.cls-2{isolation:isolate;}.cls-3{fill:#fff;}.cls-4{fill:url(#Degradado_sin_nombre_32);}.cls-5{clip-path:url(#clip-path);}.cls-6{opacity:0.25;mix-blend-mode:multiply;}.cls-7{fill:#53cffc;}.cls-8{fill:#017bd2;}</style><linearGradient id="Degradado_sin_nombre_32" x1="-535.59" y1="5661.71" x2="-420.88" y2="5661.71" gradientTransform="translate(544.39 -5603.89)" gradientUnits="userSpaceOnUse"><stop offset="0" stop-color="#60dfff"/><stop offset="1" stop-color="#0baaff"/></linearGradient><clipPath id="clip-path"><path class="cls-1" d="M8.81-.52H117.3a6.22,6.22,0,0,1,6.22,6.22V109.95a6.22,6.22,0,0,1-6.22,6.22H8.81a0,0,0,0,1,0,0V-.52A0,0,0,0,1,8.81-.52Z" transform="translate(123.98 -8.34) rotate(90)"/></clipPath></defs><g class="cls-2"><g id="INTERFACE"><rect class="cls-3" width="132.33" height="124" rx="5.72"/><path class="cls-4" d="M8.81-.52H117.3a6.22,6.22,0,0,1,6.22,6.22V109.95a6.22,6.22,0,0,1-6.22,6.22H8.81a0,0,0,0,1,0,0V-.52A0,0,0,0,1,8.81-.52Z" transform="translate(123.98 -8.34) rotate(90)"/><g class="cls-5"><g class="cls-6"><polygon class="cls-7" points="36.29 10.35 7.75 26.62 7.75 42.02 26.07 32.14 26.07 50.97 36.29 57.59 46.51 50.97 46.51 32.14 64.83 42.02 64.83 26.62 36.29 10.35"/><polygon class="cls-7" points="100.38 10.35 71.84 26.62 71.84 42.02 90.16 32.14 90.16 50.97 100.38 57.59 110.6 50.97 110.6 32.14 128.92 42.02 128.92 26.62 100.38 10.35"/></g><g class="cls-6"><polygon class="cls-7" points="4.24 48.43 -24.3 64.7 -24.3 80.11 -5.98 70.22 -5.98 89.05 4.24 95.67 14.47 89.05 14.47 70.22 32.78 80.11 32.78 64.7 4.24 48.43"/><polygon class="cls-7" points="68.33 48.43 39.8 64.7 39.8 80.11 58.11 70.22 58.11 89.05 68.33 95.67 78.56 89.05 78.56 70.22 96.87 80.11 96.87 64.7 68.33 48.43"/><polygon class="cls-7" points="132.42 48.43 103.89 64.7 103.89 80.11 122.2 70.22 122.2 89.05 132.42 95.67 142.65 89.05 142.65 70.22 160.96 80.11 160.96 64.7 132.42 48.43"/></g><g class="cls-6"><polygon class="cls-7" points="36.49 87.44 7.95 103.72 7.95 119.12 26.27 109.23 26.27 128.06 36.49 134.68 46.71 128.06 46.71 109.23 65.03 119.12 65.03 103.72 36.49 87.44"/><polygon class="cls-7" points="100.97 87.44 72.44 103.72 72.44 119.12 90.75 109.23 90.75 128.06 100.97 134.68 111.2 128.06 111.2 109.23 129.51 119.12 129.51 103.72 100.97 87.44"/></g></g><path class="cls-8" d="M98.66,56.92H77.27L80.13,44a7,7,0,0,0-10.3-7.58L27.18,60.85a7,7,0,0,0,0,12.13L69.83,97.4a7,7,0,0,0,10.3-7.58L77.27,76.91H98.66a10,10,0,0,0,10-10h0A10,10,0,0,0,98.66,56.92Z"/><path class="cls-3" d="M98.66,50.79H77.27l2.86-12.91a7,7,0,0,0-10.3-7.58L27.18,54.72a7,7,0,0,0,0,12.14L69.83,91.27a7,7,0,0,0,10.3-7.58l-2.86-12.9H98.66a10,10,0,0,0,10-10h0A10,10,0,0,0,98.66,50.79Z"/></g></g></svg>