<svg xmlns="http://www.w3.org/2000/svg" xmlns:xlink="http://www.w3.org/1999/xlink" viewBox="0 0 162.67 111.68"><defs><style>.cls-1{fill:#fff;}.cls-2{fill:url(#Degradado_sin_nombre_32);}.cls-3{fill:#004cff;opacity:0.4;}</style><linearGradient id="Degradado_sin_nombre_32" x1="70.48" x2="70.48" y2="102" gradientUnits="userSpaceOnUse"><stop offset="0" stop-color="#60dfff"/><stop offset="1" stop-color="#0baaff"/></linearGradient></defs><g id="INTERFACE"><path class="cls-1" d="M162.67,0l-9,54.76a68.2,68.2,0,0,1-67.45,56.92H0V0Z"/><path class="cls-2" d="M141,0l-7.84,52.05a59.54,59.54,0,0,1-58.76,50H0V0Z"/><path class="cls-3" d="M76.09,30.13H56.77l1.76-7.94a4.3,4.3,0,0,0-6.34-4.66L26,32.55A4.3,4.3,0,0,0,26,40L52.19,55a4.3,4.3,0,0,0,6.34-4.66l-1.76-7.94H76.09a17.18,17.18,0,0,1,0,34.35H53.77a6.16,6.16,0,0,0,0,12.31H76.09a29.49,29.49,0,0,0,0-59Z"/><path class="cls-1" d="M76.09,25H56.77L58.53,17a4.3,4.3,0,0,0-6.34-4.66L26,27.4a4.3,4.3,0,0,0,0,7.47l26.24,15a4.3,4.3,0,0,0,6.34-4.66l-1.76-7.94H76.09a17.18,17.18,0,0,1,0,34.35H53.77a6.16,6.16,0,0,0,0,12.31H76.09a29.49,29.49,0,0,0,0-59Z"/></g></svg>