<?xml version="1.0" encoding="utf-8"?>
<!-- Generator: Adobe Illustrator 25.2.1, SVG Export Plug-In . SVG Version: 6.00 Build 0)  -->
<svg version="1.1" id="Capa_1" xmlns="http://www.w3.org/2000/svg" xmlns:xlink="http://www.w3.org/1999/xlink" x="0px" y="0px"
	 viewBox="0 0 398 128" style="enable-background:new 0 0 398 128;" xml:space="preserve">
<style type="text/css">
	.st0{fill:#FFFFFF;}
	.st1{fill:url(#XMLID_2_);}
	.st2{clip-path:url(#SVGID_2_);}
	.st3{opacity:0.25;clip-path:url(#SVGID_4_);}
	.st4{fill:#F6D968;}
	.st5{opacity:0.25;clip-path:url(#SVGID_6_);}
	.st6{opacity:0.25;clip-path:url(#SVGID_8_);}
	.st7{enable-background:new    ;}
	.st8{fill:#B98601;}
</style>
<g id="FONDOS">
</g>
<g id="PERSONAJES">
</g>
<g id="INTERFACE">
	<g>
		<g>
			<g>
				<path class="st0" d="M392.96,128H5.04C2.26,128,0,125.74,0,122.96V5.04C0,2.26,2.26,0,5.04,0h387.93c2.78,0,5.04,2.26,5.04,5.04
					v117.93C398,125.74,395.74,128,392.96,128z"/>
				<g>
					<g>
						
							<linearGradient id="XMLID_2_" gradientUnits="userSpaceOnUse" x1="-222.1795" y1="-7539.7354" x2="-107.3195" y2="-7539.7354" gradientTransform="matrix(0 1 1 0 7738.7354 222.6495)">
							<stop  offset="0.0642" style="stop-color:#FFEF88"/>
							<stop  offset="0.0877" style="stop-color:#FFEA78"/>
							<stop  offset="0.1428" style="stop-color:#FFE159"/>
							<stop  offset="0.2053" style="stop-color:#FFD93D"/>
							<stop  offset="0.2759" style="stop-color:#FFD327"/>
							<stop  offset="0.3583" style="stop-color:#FFCE16"/>
							<stop  offset="0.4602" style="stop-color:#FFCB0B"/>
							<stop  offset="0.6031" style="stop-color:#FFC904"/>
							<stop  offset="1" style="stop-color:#FFC802"/>
						</linearGradient>
						<path id="XMLID_28_" class="st1" d="M10,106.06V0.47h378v105.59c0,5.12-4.15,9.27-9.27,9.27H19.27
							C14.15,115.33,10,111.18,10,106.06z"/>
					</g>
					<g>
						<defs>
							<path id="SVGID_1_" d="M10,106.06V0.47h378v105.59c0,5.12-4.15,9.27-9.27,9.27H19.27C14.15,115.33,10,111.18,10,106.06z"/>
						</defs>
						<clipPath id="SVGID_2_">
							<use xlink:href="#SVGID_1_"  style="overflow:visible;"/>
						</clipPath>
						<g class="st2">
							<g>
								<defs>
									<rect id="SVGID_3_" x="10" y="0.47" width="378" height="114.87"/>
								</defs>
								<clipPath id="SVGID_4_">
									<use xlink:href="#SVGID_3_"  style="overflow:visible;"/>
								</clipPath>
								<g class="st3">
									<polygon class="st4" points="52.07,10.36 23.5,26.66 23.5,42.08 41.84,32.18 41.84,51.04 52.07,57.67 62.31,51.04 
										62.31,32.18 80.65,42.08 80.65,26.66 									"/>
									<polygon class="st4" points="-13.67,10.36 -42.25,26.66 -42.25,42.08 -23.91,32.18 -23.91,51.04 -13.67,57.67 -3.44,51.04 
										-3.44,32.18 14.9,42.08 14.9,26.66 									"/>
									<polygon class="st4" points="116.25,10.36 87.67,26.66 87.67,42.08 106.01,32.18 106.01,51.04 116.25,57.67 126.49,51.04 
										126.49,32.18 144.83,42.08 144.83,26.66 									"/>
									<polygon class="st4" points="180.42,10.36 151.85,26.66 151.85,42.08 170.19,32.18 170.19,51.04 180.42,57.67 
										190.66,51.04 190.66,32.18 209,42.08 209,26.66 									"/>
									<polygon class="st4" points="244.6,10.36 216.02,26.66 216.02,42.08 234.36,32.18 234.36,51.04 244.6,57.67 254.84,51.04 
										254.84,32.18 273.18,42.08 273.18,26.66 									"/>
									<polygon class="st4" points="308.78,10.36 280.2,26.66 280.2,42.08 298.54,32.18 298.54,51.04 308.78,57.67 319.01,51.04 
										319.01,32.18 337.35,42.08 337.35,26.66 									"/>
									<polygon class="st4" points="372.95,10.36 344.38,26.66 344.38,42.08 362.72,32.18 362.72,51.04 372.95,57.67 
										383.19,51.04 383.19,32.18 401.53,42.08 401.53,26.66 									"/>
								</g>
							</g>
							<g>
								<defs>
									<rect id="SVGID_5_" x="10" y="0.47" width="378" height="114.87"/>
								</defs>
								<clipPath id="SVGID_6_">
									<use xlink:href="#SVGID_5_"  style="overflow:visible;"/>
								</clipPath>
								<g class="st5">
									<polygon class="st4" points="19.98,48.49 -8.59,64.79 -8.59,80.21 9.75,70.31 9.75,89.17 19.98,95.8 30.22,89.17 
										30.22,70.31 48.56,80.21 48.56,64.79 									"/>
									<polygon class="st4" points="84.16,48.49 55.58,64.79 55.58,80.21 73.92,70.31 73.92,89.17 84.16,95.8 94.4,89.17 
										94.4,70.31 112.74,80.21 112.74,64.79 									"/>
									<polygon class="st4" points="148.34,48.49 119.76,64.79 119.76,80.21 138.1,70.31 138.1,89.17 148.34,95.8 158.57,89.17 
										158.57,70.31 176.91,80.21 176.91,64.79 									"/>
									<polygon class="st4" points="212.51,48.49 183.94,64.79 183.94,80.21 202.28,70.31 202.28,89.17 212.51,95.8 222.75,89.17 
										222.75,70.31 241.09,80.21 241.09,64.79 									"/>
									<polygon class="st4" points="276.69,48.49 248.11,64.79 248.11,80.21 266.45,70.31 266.45,89.17 276.69,95.8 286.93,89.17 
										286.93,70.31 305.27,80.21 305.27,64.79 									"/>
									<polygon class="st4" points="340.87,48.49 312.29,64.79 312.29,80.21 330.63,70.31 330.63,89.17 340.87,95.8 351.1,89.17 
										351.1,70.31 369.44,80.21 369.44,64.79 									"/>
									<polygon class="st4" points="405.04,48.49 376.46,64.79 376.46,80.21 394.81,70.31 394.81,89.17 405.04,95.8 415.28,89.17 
										415.28,70.31 433.62,80.21 433.62,64.79 									"/>
								</g>
							</g>
							<g>
								<defs>
									<rect id="SVGID_7_" x="10" y="0.47" width="378" height="114.87"/>
								</defs>
								<clipPath id="SVGID_8_">
									<use xlink:href="#SVGID_7_"  style="overflow:visible;"/>
								</clipPath>
								<g class="st6">
									<polygon class="st4" points="51.08,87.56 22.5,103.86 22.5,119.28 40.84,109.38 40.84,128.23 51.08,134.86 61.31,128.23 
										61.31,109.38 79.65,119.28 79.65,103.86 									"/>
									<polygon class="st4" points="-13.5,87.56 -42.08,103.86 -42.08,119.28 -23.74,109.38 -23.74,128.23 -13.5,134.86 
										-3.26,128.23 -3.26,109.38 15.08,119.28 15.08,103.86 									"/>
									<polygon class="st4" points="115.65,87.56 87.07,103.86 87.07,119.28 105.41,109.38 105.41,128.23 115.65,134.86 
										125.89,128.23 125.89,109.38 144.23,119.28 144.23,103.86 									"/>
									<polygon class="st4" points="180.23,87.56 151.65,103.86 151.65,119.28 169.99,109.38 169.99,128.23 180.23,134.86 
										190.46,128.23 190.46,109.38 208.8,119.28 208.8,103.86 									"/>
									<polygon class="st4" points="244.8,87.56 216.22,103.86 216.22,119.28 234.56,109.38 234.56,128.23 244.8,134.86 
										255.04,128.23 255.04,109.38 273.38,119.28 273.38,103.86 									"/>
									<polygon class="st4" points="309.38,87.56 280.8,103.86 280.8,119.28 299.14,109.38 299.14,128.23 309.38,134.86 
										319.61,128.23 319.61,109.38 337.95,119.28 337.95,103.86 									"/>
									<polygon class="st4" points="373.95,87.56 345.37,103.86 345.37,119.28 363.71,109.38 363.71,128.23 373.95,134.86 
										384.19,128.23 384.19,109.38 402.53,119.28 402.53,103.86 									"/>
								</g>
							</g>
						</g>
					</g>
				</g>
			</g>
		</g>
		<g>
			<g>
				<g class="st7">
					<path class="st8" d="M27.57,39.54h19.38c2.2,0,4.39,0.22,6.58,0.66c2.18,0.44,4.13,1.22,5.85,2.33c1.72,1.11,3.1,2.6,4.16,4.47
						c1.06,1.87,1.59,4.21,1.59,7.02c0,2.73-0.68,5.13-2.03,7.21c-1.35,2.08-3.29,3.68-5.83,4.81l11.42,18.06H51.31l-8.62-15.92
						h-0.44v15.92H27.57V39.54z M42.12,58.35h2.96c0.5,0,1.06-0.04,1.67-0.13c0.61-0.08,1.18-0.26,1.7-0.54
						c0.52-0.27,0.97-0.65,1.32-1.13c0.36-0.48,0.54-1.12,0.54-1.92c0-0.8-0.15-1.43-0.44-1.89c-0.29-0.46-0.67-0.81-1.13-1.04
						c-0.46-0.23-0.97-0.38-1.51-0.44c-0.55-0.06-1.05-0.09-1.51-0.09h-3.59V58.35z"/>
					<path class="st8" d="M106.23,67.85c0,0.55-0.01,1.1-0.03,1.67c-0.02,0.57-0.05,1.04-0.1,1.42H83.61
						c0.04,0.59,0.24,1.11,0.6,1.57c0.36,0.46,0.8,0.86,1.33,1.2c0.53,0.34,1.12,0.59,1.78,0.75c0.66,0.17,1.32,0.25,2,0.25
						c1.36,0,2.49-0.24,3.4-0.72c0.91-0.48,1.6-1.02,2.07-1.61l10.42,5.22c-1.48,2.39-3.63,4.28-6.45,5.66
						c-2.82,1.38-6.09,2.08-9.82,2.08c-2.41,0-4.77-0.38-7.05-1.13c-2.29-0.75-4.31-1.88-6.07-3.37c-1.76-1.49-3.17-3.34-4.23-5.57
						c-1.06-2.22-1.59-4.8-1.59-7.74c0-2.73,0.49-5.19,1.46-7.39c0.97-2.2,2.3-4.07,3.97-5.6c1.67-1.53,3.64-2.72,5.91-3.56
						c2.27-0.84,4.69-1.26,7.28-1.26c2.63,0,5.02,0.45,7.18,1.35c2.16,0.9,4.01,2.16,5.56,3.78c1.55,1.62,2.74,3.53,3.59,5.76
						C105.81,62.84,106.23,65.25,106.23,67.85z M93.59,63.13c0-1.17-0.43-2.14-1.3-2.89c-0.87-0.76-2.04-1.13-3.53-1.13
						c-1.61,0-2.86,0.44-3.75,1.32s-1.4,1.78-1.52,2.71H93.59z"/>
					<path class="st8" d="M111.19,41.42c0-1.01,0.2-1.96,0.6-2.86c0.4-0.9,0.95-1.69,1.65-2.36c0.7-0.67,1.51-1.21,2.45-1.6
						c0.93-0.4,1.93-0.6,2.99-0.6c1.02,0,1.97,0.2,2.86,0.6c0.89,0.4,1.68,0.93,2.38,1.6c0.7,0.67,1.25,1.46,1.65,2.36
						c0.4,0.9,0.6,1.86,0.6,2.86c0,1.05-0.2,2.02-0.6,2.93c-0.4,0.9-0.95,1.68-1.65,2.33c-0.7,0.65-1.49,1.16-2.38,1.54
						s-1.84,0.57-2.86,0.57c-1.06,0-2.06-0.19-2.99-0.57c-0.93-0.38-1.75-0.89-2.45-1.54c-0.7-0.65-1.25-1.43-1.65-2.33
						C111.39,43.45,111.19,42.47,111.19,41.42z M111.44,50.99h14.68v33.1h-14.68V50.99z"/>
					<path class="st8" d="M132.92,50.99h14.3v3.65h0.13c0.84-1.22,2.1-2.28,3.77-3.18c1.67-0.9,3.58-1.35,5.73-1.35
						c2.32,0,4.25,0.42,5.8,1.26c1.54,0.84,2.77,1.92,3.67,3.24c0.91,1.32,1.54,2.8,1.9,4.44s0.54,3.27,0.54,4.91v20.14h-14.68
						V66.47c0-1.68-0.27-2.85-0.79-3.52c-0.53-0.67-1.32-1.01-2.38-1.01c-0.97,0-1.77,0.39-2.38,1.16c-0.61,0.78-0.92,1.9-0.92,3.37
						v17.62h-14.68V50.99z"/>
					<path class="st8" d="M189.79,84.97c-4.49,0-7.82-0.95-9.98-2.86c-2.16-1.91-3.24-4.88-3.24-8.9V61.37h-4.7V50.99h4.64v-7.42
						h14.23v7.42h7.24v10.38h-7.24v8.81c0,1.59,0.35,2.67,1.05,3.24c0.7,0.57,1.66,0.85,2.89,0.85c0.47,0,0.95-0.04,1.46-0.13
						c0.51-0.08,0.91-0.17,1.21-0.25v9.94c-0.76,0.33-1.83,0.61-3.21,0.82C192.76,84.86,191.31,84.97,189.79,84.97z"/>
					<path class="st8" d="M236.87,67.85c0,0.55-0.01,1.1-0.03,1.67s-0.05,1.04-0.1,1.42h-22.49c0.04,0.59,0.24,1.11,0.6,1.57
						c0.36,0.46,0.8,0.86,1.33,1.2c0.53,0.34,1.12,0.59,1.78,0.75c0.66,0.17,1.32,0.25,2,0.25c1.36,0,2.49-0.24,3.4-0.72
						c0.91-0.48,1.6-1.02,2.06-1.61l10.42,5.22c-1.48,2.39-3.63,4.28-6.45,5.66s-6.09,2.08-9.82,2.08c-2.41,0-4.77-0.38-7.05-1.13
						c-2.29-0.75-4.31-1.88-6.07-3.37s-3.17-3.34-4.23-5.57c-1.06-2.22-1.59-4.8-1.59-7.74c0-2.73,0.49-5.19,1.46-7.39
						c0.97-2.2,2.3-4.07,3.97-5.6c1.67-1.53,3.64-2.72,5.91-3.56c2.27-0.84,4.69-1.26,7.28-1.26c2.63,0,5.02,0.45,7.18,1.35
						c2.16,0.9,4.01,2.16,5.56,3.78c1.55,1.62,2.74,3.53,3.59,5.76C236.45,62.84,236.87,65.25,236.87,67.85z M224.23,63.13
						c0-1.17-0.43-2.14-1.3-2.89c-0.87-0.76-2.04-1.13-3.53-1.13c-1.61,0-2.86,0.44-3.75,1.32s-1.4,1.78-1.53,2.71H224.23z"/>
					<path class="st8" d="M242.02,50.99h14.3v3.65h0.13c0.84-1.22,2.1-2.28,3.77-3.18c1.67-0.9,3.58-1.35,5.73-1.35
						c2.32,0,4.25,0.42,5.8,1.26c1.54,0.84,2.77,1.92,3.67,3.24c0.91,1.32,1.54,2.8,1.9,4.44s0.54,3.27,0.54,4.91v20.14h-14.68
						V66.47c0-1.68-0.27-2.85-0.79-3.52c-0.53-0.67-1.32-1.01-2.38-1.01c-0.97,0-1.77,0.39-2.38,1.16c-0.61,0.78-0.92,1.9-0.92,3.37
						v17.62h-14.68V50.99z"/>
					<path class="st8" d="M298.89,84.97c-4.49,0-7.82-0.95-9.98-2.86c-2.16-1.91-3.24-4.88-3.24-8.9V61.37h-4.7V50.99h4.64v-7.42
						h14.23v7.42h7.24v10.38h-7.24v8.81c0,1.59,0.35,2.67,1.05,3.24c0.7,0.57,1.66,0.85,2.89,0.85c0.47,0,0.95-0.04,1.46-0.13
						c0.51-0.08,0.91-0.17,1.21-0.25v9.94c-0.76,0.33-1.83,0.61-3.21,0.82C301.86,84.86,300.41,84.97,298.89,84.97z"/>
					<path class="st8" d="M328.82,63.07c0-1.01-0.35-1.75-1.05-2.23c-0.7-0.48-1.62-0.72-2.76-0.72c-1.36,0-2.64,0.28-3.84,0.85
						c-1.21,0.57-2.28,1.23-3.21,1.98l-7.31-7.17c2.03-1.93,4.45-3.42,7.24-4.47c2.79-1.05,5.68-1.57,8.64-1.57
						c3.18,0,5.8,0.44,7.88,1.32c2.08,0.88,3.72,2.1,4.92,3.65c1.21,1.55,2.05,3.36,2.54,5.41c0.49,2.06,0.73,4.24,0.73,6.54v17.43
						h-13.28v-2.64h-0.13c-0.85,1.26-2.06,2.16-3.62,2.71s-3.09,0.82-4.57,0.82c-1.31,0-2.66-0.19-4.04-0.57
						c-1.38-0.38-2.63-0.99-3.75-1.83c-1.12-0.84-2.04-1.93-2.76-3.27c-0.72-1.34-1.08-3-1.08-4.97c0-2.31,0.6-4.18,1.81-5.63
						c1.21-1.45,2.74-2.58,4.61-3.4c1.86-0.82,3.95-1.37,6.26-1.67c2.31-0.29,4.56-0.44,6.77-0.44V63.07z M328.94,70.37
						c-2.16,0-3.9,0.23-5.21,0.69c-1.31,0.46-1.97,1.32-1.97,2.58c0,0.46,0.11,0.85,0.32,1.16c0.21,0.32,0.49,0.58,0.83,0.79
						c0.34,0.21,0.71,0.37,1.11,0.47c0.4,0.11,0.77,0.16,1.11,0.16c1.4,0,2.52-0.44,3.37-1.32c0.85-0.88,1.27-2.01,1.27-3.4v-1.13
						H328.94z"/>
					<path class="st8" d="M348.64,50.99h14.11v3.78h0.13c0.72-1.34,1.79-2.45,3.21-3.33c1.42-0.88,3.08-1.32,4.99-1.32
						c1.14,0,2.07,0.11,2.8,0.31l-1.14,12.33c-0.47-0.13-0.99-0.22-1.56-0.28c-0.57-0.06-1.09-0.09-1.56-0.09
						c-1.91,0-3.43,0.55-4.58,1.64c-1.14,1.09-1.71,2.43-1.71,4.03v16.05h-14.68V50.99z"/>
				</g>
			</g>
			<g>
				<g class="st7">
					<path class="st0" d="M30.62,34.54h19.19c2.18,0,4.35,0.22,6.51,0.66c2.16,0.44,4.09,1.22,5.79,2.33
						c1.7,1.11,3.07,2.6,4.12,4.47c1.05,1.87,1.57,4.21,1.57,7.02c0,2.73-0.67,5.13-2.01,7.21c-1.34,2.08-3.26,3.68-5.77,4.81
						l11.31,18.06h-17.2l-8.53-15.92h-0.44v15.92H30.62V34.54z M45.03,53.35h2.94c0.5,0,1.05-0.04,1.65-0.13
						c0.6-0.08,1.17-0.26,1.69-0.54c0.52-0.27,0.96-0.65,1.31-1.13c0.35-0.48,0.53-1.12,0.53-1.92c0-0.8-0.15-1.43-0.44-1.89
						c-0.29-0.46-0.67-0.81-1.12-1.04s-0.96-0.38-1.5-0.44c-0.54-0.06-1.04-0.09-1.5-0.09h-3.56V53.35z"/>
					<path class="st0" d="M108.52,62.85c0,0.54-0.01,1.1-0.03,1.67c-0.02,0.57-0.05,1.04-0.09,1.42H86.12
						c0.04,0.59,0.24,1.11,0.6,1.57c0.36,0.46,0.8,0.86,1.32,1.2c0.52,0.34,1.11,0.59,1.76,0.75c0.65,0.17,1.31,0.25,1.98,0.25
						c1.34,0,2.46-0.24,3.37-0.72c0.9-0.48,1.58-1.02,2.04-1.6l10.32,5.22c-1.47,2.39-3.6,4.28-6.39,5.66
						c-2.79,1.38-6.03,2.08-9.72,2.08c-2.39,0-4.72-0.38-6.98-1.13s-4.27-1.88-6.01-3.37c-1.74-1.49-3.14-3.35-4.18-5.57
						c-1.05-2.22-1.57-4.8-1.57-7.74c0-2.73,0.48-5.19,1.45-7.39c0.96-2.2,2.27-4.07,3.93-5.6c1.66-1.53,3.61-2.71,5.85-3.55
						c2.24-0.84,4.65-1.26,7.2-1.26c2.6,0,4.97,0.45,7.11,1.35c2.14,0.9,3.97,2.16,5.51,3.78c1.53,1.62,2.72,3.53,3.56,5.76
						C108.1,57.84,108.52,60.25,108.52,62.85z M96,58.13c0-1.17-0.43-2.14-1.29-2.89c-0.86-0.75-2.02-1.13-3.49-1.13
						c-1.59,0-2.83,0.44-3.71,1.32c-0.88,0.88-1.38,1.78-1.51,2.71H96z"/>
					<path class="st0" d="M113.43,36.42c0-1.01,0.2-1.96,0.6-2.86c0.4-0.9,0.94-1.69,1.64-2.36c0.69-0.67,1.5-1.21,2.42-1.6
						c0.92-0.4,1.91-0.6,2.96-0.6c1.01,0,1.95,0.2,2.83,0.6c0.88,0.4,1.67,0.93,2.36,1.6c0.69,0.67,1.24,1.46,1.64,2.36
						c0.4,0.9,0.6,1.86,0.6,2.86c0,1.05-0.2,2.02-0.6,2.93c-0.4,0.9-0.94,1.68-1.64,2.33s-1.48,1.16-2.36,1.54
						c-0.88,0.38-1.82,0.57-2.83,0.57c-1.05,0-2.04-0.19-2.96-0.57c-0.92-0.38-1.73-0.89-2.42-1.54c-0.69-0.65-1.24-1.43-1.64-2.33
						C113.62,38.45,113.43,37.47,113.43,36.42z M113.68,45.99h14.54v33.1h-14.54V45.99z"/>
					<path class="st0" d="M134.95,45.99h14.16v3.65h0.13c0.84-1.22,2.08-2.28,3.73-3.18c1.65-0.9,3.55-1.35,5.68-1.35
						c2.3,0,4.21,0.42,5.74,1.26c1.53,0.84,2.74,1.92,3.64,3.24c0.9,1.32,1.53,2.8,1.88,4.44c0.36,1.64,0.53,3.27,0.53,4.91v20.14
						H155.9V61.47c0-1.68-0.26-2.85-0.79-3.52c-0.53-0.67-1.31-1.01-2.36-1.01c-0.97,0-1.75,0.39-2.36,1.16
						c-0.61,0.78-0.91,1.9-0.91,3.37v17.62h-14.54V45.99z"/>
					<path class="st0" d="M191.26,79.97c-4.45,0-7.74-0.95-9.88-2.86c-2.14-1.91-3.21-4.88-3.21-8.9V56.37h-4.66V45.99h4.59v-7.43
						h14.1v7.43h7.17v10.38h-7.17v8.81c0,1.59,0.35,2.67,1.04,3.24c0.69,0.57,1.65,0.85,2.86,0.85c0.46,0,0.94-0.04,1.45-0.13
						c0.5-0.08,0.9-0.17,1.2-0.25v9.94c-0.76,0.34-1.82,0.61-3.18,0.82C194.21,79.86,192.77,79.97,191.26,79.97z"/>
					<path class="st0" d="M237.89,62.85c0,0.54-0.01,1.1-0.03,1.67c-0.02,0.57-0.05,1.04-0.09,1.42h-22.28
						c0.04,0.59,0.24,1.11,0.6,1.57c0.36,0.46,0.8,0.86,1.32,1.2c0.52,0.34,1.11,0.59,1.76,0.75c0.65,0.17,1.31,0.25,1.98,0.25
						c1.34,0,2.46-0.24,3.37-0.72c0.9-0.48,1.58-1.02,2.04-1.6l10.32,5.22c-1.47,2.39-3.6,4.28-6.39,5.66
						c-2.79,1.38-6.03,2.08-9.72,2.08c-2.39,0-4.72-0.38-6.99-1.13c-2.26-0.75-4.27-1.88-6.01-3.37c-1.74-1.49-3.14-3.35-4.18-5.57
						c-1.05-2.22-1.57-4.8-1.57-7.74c0-2.73,0.48-5.19,1.45-7.39c0.96-2.2,2.27-4.07,3.93-5.6c1.66-1.53,3.61-2.71,5.85-3.55
						c2.24-0.84,4.65-1.26,7.2-1.26c2.6,0,4.97,0.45,7.11,1.35c2.14,0.9,3.97,2.16,5.51,3.78c1.53,1.62,2.72,3.53,3.55,5.76
						C237.47,57.84,237.89,60.25,237.89,62.85z M225.37,58.13c0-1.17-0.43-2.14-1.29-2.89s-2.02-1.13-3.49-1.13
						c-1.59,0-2.83,0.44-3.71,1.32c-0.88,0.88-1.38,1.78-1.51,2.71H225.37z"/>
					<path class="st0" d="M242.99,45.99h14.16v3.65h0.13c0.84-1.22,2.08-2.28,3.73-3.18c1.65-0.9,3.54-1.35,5.68-1.35
						c2.3,0,4.21,0.42,5.74,1.26c1.53,0.84,2.74,1.92,3.64,3.24c0.9,1.32,1.53,2.8,1.88,4.44c0.36,1.64,0.53,3.27,0.53,4.91v20.14
						h-14.54V61.47c0-1.68-0.26-2.85-0.79-3.52c-0.53-0.67-1.31-1.01-2.36-1.01c-0.96,0-1.75,0.39-2.36,1.16
						c-0.61,0.78-0.91,1.9-0.91,3.37v17.62h-14.54V45.99z"/>
					<path class="st0" d="M299.31,79.97c-4.45,0-7.74-0.95-9.88-2.86c-2.14-1.91-3.21-4.88-3.21-8.9V56.37h-4.66V45.99h4.59v-7.43
						h14.1v7.43h7.17v10.38h-7.17v8.81c0,1.59,0.35,2.67,1.04,3.24s1.65,0.85,2.86,0.85c0.46,0,0.94-0.04,1.45-0.13
						c0.5-0.08,0.9-0.17,1.2-0.25v9.94c-0.75,0.34-1.82,0.61-3.18,0.82C302.25,79.86,300.82,79.97,299.31,79.97z"/>
					<path class="st0" d="M328.94,58.07c0-1.01-0.35-1.75-1.04-2.23c-0.69-0.48-1.6-0.72-2.74-0.72c-1.34,0-2.61,0.28-3.81,0.85
						s-2.26,1.23-3.18,1.98l-7.24-7.17c2.01-1.93,4.4-3.42,7.17-4.47c2.77-1.05,5.62-1.57,8.56-1.57c3.15,0,5.75,0.44,7.8,1.32
						c2.05,0.88,3.68,2.1,4.88,3.65c1.2,1.55,2.03,3.36,2.52,5.41c0.48,2.06,0.72,4.24,0.72,6.54v17.43h-13.15v-2.64h-0.13
						c-0.84,1.26-2.04,2.16-3.59,2.71c-1.55,0.54-3.06,0.82-4.53,0.82c-1.3,0-2.63-0.19-4-0.57c-1.36-0.38-2.6-0.99-3.71-1.82
						s-2.02-1.93-2.74-3.27c-0.71-1.34-1.07-3-1.07-4.97c0-2.31,0.6-4.18,1.79-5.63c1.2-1.45,2.71-2.58,4.56-3.4
						c1.85-0.82,3.91-1.37,6.2-1.67c2.29-0.29,4.52-0.44,6.7-0.44V58.07z M329.07,65.37c-2.14,0-3.86,0.23-5.16,0.69
						c-1.3,0.46-1.95,1.32-1.95,2.58c0,0.46,0.1,0.85,0.31,1.16s0.48,0.58,0.82,0.79c0.33,0.21,0.7,0.37,1.1,0.47
						c0.4,0.11,0.76,0.16,1.1,0.16c1.38,0,2.5-0.44,3.33-1.32c0.84-0.88,1.26-2.01,1.26-3.4v-1.13H329.07z"/>
					<path class="st0" d="M348.58,45.99h13.97v3.78h0.13c0.71-1.34,1.77-2.45,3.18-3.33c1.4-0.88,3.05-1.32,4.94-1.32
						c1.13,0,2.05,0.1,2.77,0.31l-1.13,12.33c-0.46-0.13-0.98-0.22-1.54-0.28c-0.57-0.06-1.08-0.09-1.54-0.09
						c-1.89,0-3.4,0.54-4.53,1.64c-1.13,1.09-1.7,2.43-1.7,4.03v16.05h-14.54V45.99z"/>
				</g>
			</g>
		</g>
	</g>
</g>
<g id="_x5F_EJEMPLO">
</g>
</svg>
