<svg xmlns="http://www.w3.org/2000/svg" xmlns:xlink="http://www.w3.org/1999/xlink" viewBox="0 0 132.33 124"><defs><style>.cls-1{fill:none;}.cls-2{isolation:isolate;}.cls-3{fill:#fff;}.cls-4{fill:url(#Degradado_sin_nombre_32);}.cls-5{clip-path:url(#clip-path);}.cls-6{opacity:0.25;mix-blend-mode:multiply;}.cls-7{fill:#53cffc;}.cls-8{fill:#017bd2;}</style><linearGradient id="Degradado_sin_nombre_32" x1="-774.05" y1="11740.86" x2="-659.34" y2="11740.86" gradientTransform="matrix(1, 0, 0, -1, 782.86, 11798.68)" gradientUnits="userSpaceOnUse"><stop offset="0" stop-color="#60dfff"/><stop offset="1" stop-color="#0baaff"/></linearGradient><clipPath id="clip-path"><path class="cls-1" d="M8.81-.52H117.3a6.22,6.22,0,0,1,6.22,6.22V109.95a6.22,6.22,0,0,1-6.22,6.22H8.81a0,0,0,0,1,0,0V-.52A0,0,0,0,1,8.81-.52Z" transform="translate(123.98 -8.34) rotate(90)"/></clipPath></defs><g class="cls-2"><g id="INTERFACE"><rect class="cls-3" width="132.33" height="124" rx="5.72" transform="translate(132.33 124) rotate(-180)"/><path class="cls-4" d="M8.81-.52H117.3a6.22,6.22,0,0,1,6.22,6.22V109.95a6.22,6.22,0,0,1-6.22,6.22H8.81a0,0,0,0,1,0,0V-.52A0,0,0,0,1,8.81-.52Z" transform="translate(123.98 -8.34) rotate(90)"/><g class="cls-5"><g class="cls-6"><polygon class="cls-7" points="96.04 10.35 124.58 26.62 124.58 42.02 106.26 32.14 106.26 50.97 96.04 57.59 85.81 50.97 85.81 32.14 67.5 42.02 67.5 26.62 96.04 10.35"/><polygon class="cls-7" points="31.95 10.35 60.49 26.62 60.49 42.02 42.17 32.14 42.17 50.97 31.95 57.59 21.73 50.97 21.73 32.14 3.41 42.02 3.41 26.62 31.95 10.35"/></g><g class="cls-6"><polygon class="cls-7" points="128.08 48.43 156.62 64.7 156.62 80.11 138.31 70.22 138.31 89.05 128.08 95.67 117.86 89.05 117.86 70.22 99.54 80.11 99.54 64.7 128.08 48.43"/><polygon class="cls-7" points="63.99 48.43 92.53 64.7 92.53 80.11 74.22 70.22 74.22 89.05 63.99 95.67 53.77 89.05 53.77 70.22 35.45 80.11 35.45 64.7 63.99 48.43"/><polygon class="cls-7" points="-0.1 48.43 28.44 64.7 28.44 80.11 10.13 70.22 10.13 89.05 -0.1 95.67 -10.32 89.05 -10.32 70.22 -28.64 80.11 -28.64 64.7 -0.1 48.43"/></g><g class="cls-6"><polygon class="cls-7" points="95.84 87.44 124.38 103.72 124.38 119.12 106.06 109.23 106.06 128.06 95.84 134.68 85.62 128.06 85.62 109.23 67.3 119.12 67.3 103.72 95.84 87.44"/><polygon class="cls-7" points="31.35 87.44 59.89 103.72 59.89 119.12 41.57 109.23 41.57 128.06 31.35 134.68 21.13 128.06 21.13 109.23 2.81 119.12 2.81 103.72 31.35 87.44"/></g></g><path class="cls-8" d="M33.66,56.92h21.4L52.2,44a7,7,0,0,1,10.3-7.58l42.65,24.42a7,7,0,0,1,0,12.13L62.5,97.4a7,7,0,0,1-10.3-7.58l2.86-12.91H33.66a10,10,0,0,1-10-10h0A10,10,0,0,1,33.66,56.92Z"/><path class="cls-3" d="M33.66,50.79h21.4L52.2,37.88A7,7,0,0,1,62.5,30.3l42.65,24.42a7,7,0,0,1,0,12.14L62.5,91.27a7,7,0,0,1-10.3-7.58l2.86-12.9H33.66a10,10,0,0,1-10-10h0A10,10,0,0,1,33.66,50.79Z"/></g></g></svg>