<svg xmlns="http://www.w3.org/2000/svg" xmlns:xlink="http://www.w3.org/1999/xlink" viewBox="0 0 346.52 112.7"><defs><style>.cls-1{fill:#fff;}.cls-2{fill:url(#Degradado_sin_nombre_32);}.cls-3,.cls-5{opacity:0.4;}.cls-4,.cls-5{fill:#004cff;}</style><linearGradient id="Degradado_sin_nombre_32" x1="15836.84" x2="15836.84" y2="102" gradientTransform="matrix(-1, 0, 0, 1, 16021.05, 0)" gradientUnits="userSpaceOnUse"><stop offset="0" stop-color="#60dfff"/><stop offset="1" stop-color="#0baaff"/></linearGradient></defs><g id="INTERFACE"><path class="cls-1" d="M0,0,8.79,55.26c5.26,33.12,33.12,57.44,65.8,57.44H346.52V0Z"/><path class="cls-2" d="M21.89,0l7.85,52.05A59.54,59.54,0,0,0,88.5,102h258V0Z"/><g class="cls-3"><path class="cls-4" d="M133.38,24.54H118.51a12.31,12.31,0,0,0-12.3,12.31H93.26a9.4,9.4,0,0,0-9.41,9.4V67.12a9.4,9.4,0,0,0,9.41,9.4h12.95a12.31,12.31,0,0,0,12.3,12.31h14.87a2.27,2.27,0,0,0,2.27-2.27V26.81A2.27,2.27,0,0,0,133.38,24.54Z"/><path class="cls-4" d="M144.34,42.65A2.59,2.59,0,1,0,141.48,47c2.86,1.88,4.63,5.62,4.63,9.77,0,4.32-2,8.24-5,10a2.59,2.59,0,0,0,1.31,4.84,2.53,2.53,0,0,0,1.29-.35c4.69-2.7,7.6-8.26,7.6-14.49C151.3,50.88,148.63,45.47,144.34,42.65Z"/><path class="cls-4" d="M153.05,34.81a2.6,2.6,0,0,0-2.86,4.34c5.17,3.4,8.39,10.11,8.39,17.5,0,7.7-3.57,14.74-9.09,17.93a2.6,2.6,0,0,0,1.3,4.85,2.53,2.53,0,0,0,1.29-.35c7.1-4.1,11.69-12.9,11.69-22.43C163.77,47.53,159.66,39.16,153.05,34.81Z"/></g><path class="cls-1" d="M133.38,17.65H118.51A12.3,12.3,0,0,0,106.21,30H93.26a9.41,9.41,0,0,0-9.41,9.41V60.22a9.41,9.41,0,0,0,9.41,9.41h12.95a12.3,12.3,0,0,0,12.3,12.3h14.87a2.27,2.27,0,0,0,2.27-2.27V19.92A2.27,2.27,0,0,0,133.38,17.65Z"/><path class="cls-1" d="M144.34,35.75a2.6,2.6,0,1,0-2.86,4.34c2.86,1.88,4.63,5.62,4.63,9.76,0,4.32-2,8.24-5,10a2.6,2.6,0,0,0,1.31,4.85,2.63,2.63,0,0,0,1.29-.35c4.69-2.71,7.6-8.26,7.6-14.5C151.3,44,148.63,38.58,144.34,35.75Z"/><path class="cls-1" d="M153.05,27.91a2.6,2.6,0,0,0-2.86,4.34c5.17,3.4,8.39,10.11,8.39,17.5,0,7.71-3.57,14.75-9.09,17.94a2.59,2.59,0,0,0,1.3,4.84,2.53,2.53,0,0,0,1.29-.35c7.1-4.1,11.69-12.9,11.69-22.43C163.77,40.63,159.66,32.26,153.05,27.91Z"/><path class="cls-5" d="M322.06,50.32,291,22.76a13.32,13.32,0,0,0-17.69,0l-31,27.56a5.46,5.46,0,0,0,3.63,9.55h3.47V86.23a3.53,3.53,0,0,0,3.53,3.53h17.74a3.53,3.53,0,0,0,3.53-3.53V70.15a3.55,3.55,0,0,1,3.54-3.54h8.91a3.54,3.54,0,0,1,3.54,3.54V86.23a3.53,3.53,0,0,0,3.54,3.53h17.73A3.54,3.54,0,0,0,315,86.23V59.87h3.47A5.46,5.46,0,0,0,322.06,50.32Z"/><path class="cls-1" d="M322.06,42.44,291,14.88a13.32,13.32,0,0,0-17.69,0l-31,27.56A5.46,5.46,0,0,0,245.9,52h3.47V78.35a3.53,3.53,0,0,0,3.53,3.53h17.74a3.53,3.53,0,0,0,3.53-3.53V62.27a3.54,3.54,0,0,1,3.54-3.54h8.91a3.53,3.53,0,0,1,3.54,3.54V78.35a3.53,3.53,0,0,0,3.54,3.53h17.73A3.54,3.54,0,0,0,315,78.35V52h3.47A5.46,5.46,0,0,0,322.06,42.44Z"/></g></svg>