<svg xmlns="http://www.w3.org/2000/svg" viewBox="0 0 140.82 67.18"><defs><style>.cls-1{fill:#1f3a67;}</style></defs><g id="INTERFACE"><rect class="cls-1" y="32.92" width="140.82" height="8.99"/><path class="cls-1" d="M55.42,46.29c9.3,7.15,20.73,7.12,30.11-.1a20.92,20.92,0,0,0,6.71-8.64H48.56A21.36,21.36,0,0,0,55.42,46.29Z"/><path class="cls-1" d="M112.31,37.55c-9.54,8.62-20.16,15.37-33.08,18.13-10.23,2.18-20,.43-29.4-3.83a81.36,81.36,0,0,1-21.31-14.3H13.59a12.33,12.33,0,0,0,1.14,1.37c9.22,9.55,19.46,17.69,31.77,23C60,67.75,73.76,69,87.84,64.35c15.37-5,27.86-14.42,38.79-26.07a8.14,8.14,0,0,0,.61-.73Z"/><path class="cls-1" d="M29.09,29.12A83.88,83.88,0,0,1,49.22,15.65a2.66,2.66,0,0,1,.49-.05,35.69,35.69,0,0,0-2.83,13.52h47A36.35,36.35,0,0,0,91,15.42c1.27.6,2.33,1,3.34,1.59a86.06,86.06,0,0,1,17.37,12.11h15.08c-.38-.46-.8-.9-1.22-1.34A103,103,0,0,0,102,9.1C92.21,3.6,81.79.11,73.53,0A68.9,68.9,0,0,0,46.34,5.33c-12.22,5.35-22.42,13.43-31.6,22.94-.27.29-.51.57-.74.85Z"/></g></svg>