<?xml version="1.0" encoding="utf-8"?>
<!-- Generator: Adobe Illustrator 25.2.3, SVG Export Plug-In . SVG Version: 6.00 Build 0)  -->
<svg version="1.1" xmlns="http://www.w3.org/2000/svg" xmlns:xlink="http://www.w3.org/1999/xlink" x="0px" y="0px"
	 viewBox="0 0 134.63 135.58" style="enable-background:new 0 0 134.63 135.58;" xml:space="preserve">
<style type="text/css">
	.st0{clip-path:url(#XMLID_3_);}
	.st1{opacity:0.25;clip-path:url(#SVGID_2_);}
	.st2{fill:#F6D968;}
	.st3{fill:#B98601;}
	.st4{fill:#FFFFFF;}
	.st5{clip-path:url(#XMLID_5_);}
	.st6{opacity:0.25;clip-path:url(#SVGID_4_);}
	.st7{clip-path:url(#XMLID_7_);}
	.st8{opacity:0.25;clip-path:url(#SVGID_6_);}
	.st9{opacity:0.25;clip-path:url(#XMLID_10_);}
	.st10{opacity:0.25;clip-path:url(#XMLID_12_);}
	.st11{opacity:0.25;clip-path:url(#XMLID_14_);}
	.st12{fill:url(#SVGID_7_);}
	.st13{fill:url(#SVGID_8_);}
	.st14{fill:url(#SVGID_9_);}
	.st15{fill:url(#SVGID_10_);}
	.st16{opacity:0.7;fill:#60DFFF;}
	.st17{fill:url(#SVGID_11_);}
	.st18{fill:#D7F7FF;}
	.st19{fill:url(#SVGID_12_);}
	.st20{fill:url(#SVGID_13_);}
	.st21{opacity:0.25;clip-path:url(#SVGID_15_);}
	.st22{fill:#53CFFC;}
	.st23{fill:#017BD2;}
	.st24{fill:url(#SVGID_16_);}
	.st25{opacity:0.25;}
	.st26{clip-path:url(#SVGID_18_);}
	.st27{fill:url(#SVGID_19_);}
	.st28{opacity:0.25;clip-path:url(#SVGID_21_);}
	.st29{fill:url(#SVGID_22_);}
	.st30{clip-path:url(#SVGID_24_);}
	.st31{fill:url(#SVGID_25_);}
	.st32{opacity:0.25;clip-path:url(#SVGID_27_);}
	.st33{fill:url(#SVGID_28_);}
	.st34{clip-path:url(#SVGID_30_);}
	.st35{fill:url(#SVGID_31_);}
	.st36{opacity:0.25;clip-path:url(#SVGID_33_);}
	.st37{fill:url(#SVGID_34_);}
	.st38{clip-path:url(#SVGID_36_);}
	.st39{fill:#60DFFF;}
	.st40{fill:url(#SVGID_37_);}
	.st41{opacity:0.25;clip-path:url(#SVGID_39_);}
	.st42{fill:url(#SVGID_40_);}
	.st43{opacity:0.25;clip-path:url(#SVGID_42_);}
	.st44{fill:url(#SVGID_43_);}
	.st45{fill:#1E3865;}
</style>
<g id="FONDOS">
</g>
<g id="PERSONAJES">
</g>
<g id="INTERFACE">
	<g>
		<path class="st4" d="M128.81,135.58H5.82c-3.22,0-5.82-2.61-5.82-5.82V5.82C0,2.61,2.61,0,5.82,0h122.99
			c3.22,0,5.82,2.61,5.82,5.82v123.93C134.63,132.97,132.03,135.58,128.81,135.58z"/>
		<g>
			<g>
				<g>
					
						<linearGradient id="SVGID_2_" gradientUnits="userSpaceOnUse" x1="1072.2816" y1="7866.3042" x2="1189.1268" y2="7866.3042" gradientTransform="matrix(0 1 -1 0 7933.6211 -1062.9596)">
						<stop  offset="0" style="stop-color:#60DFFF"/>
						<stop  offset="1" style="stop-color:#0BAAFF"/>
					</linearGradient>
					<path style="fill:url(#SVGID_2_);" d="M7.89,119.95V14.32c0-2.76,2.24-5,5-5h108.86c2.76,0,5,2.24,5,5v105.62
						c0,3.44-2.79,6.22-6.22,6.22H14.11C10.67,126.17,7.89,123.38,7.89,119.95z"/>
					<g>
						<defs>
							<path id="SVGID_26_" d="M7.89,119.95V16.28c0-3.84,3.12-6.96,6.96-6.96h104.94c3.84,0,6.96,3.12,6.96,6.96v103.66
								c0,3.44-2.79,6.22-6.22,6.22H14.11C10.67,126.17,7.89,123.38,7.89,119.95z"/>
						</defs>
						<clipPath id="SVGID_4_">
							<use xlink:href="#SVGID_26_"  style="overflow:visible;"/>
						</clipPath>
						<g class="st6">
							<polygon class="st22" points="36.89,19.39 7.82,35.97 7.82,51.65 26.47,41.58 26.47,60.77 36.89,67.51 47.3,60.77 
								47.3,41.58 65.96,51.65 65.96,35.97 							"/>
							<polygon class="st22" points="102.17,19.39 73.1,35.97 73.1,51.65 91.76,41.58 91.76,60.77 102.17,67.51 112.58,60.77 
								112.58,41.58 131.24,51.65 131.24,35.97 							"/>
						</g>
						<g class="st6">
							<polygon class="st22" points="4.25,58.18 -24.82,74.76 -24.82,90.44 -6.17,80.38 -6.17,99.56 4.25,106.3 14.66,99.56 
								14.66,80.38 33.31,90.44 33.31,74.76 							"/>
							<polygon class="st22" points="69.53,58.18 40.46,74.76 40.46,90.44 59.11,80.38 59.11,99.56 69.53,106.3 79.94,99.56 
								79.94,80.38 98.6,90.44 98.6,74.76 							"/>
							<polygon class="st22" points="134.81,58.18 105.74,74.76 105.74,90.44 124.4,80.38 124.4,99.56 134.81,106.3 145.22,99.56 
								145.22,80.38 163.88,90.44 163.88,74.76 							"/>
						</g>
						<g class="st6">
							<polygon class="st22" points="37.09,97.91 8.02,114.49 8.02,130.18 26.68,120.11 26.68,139.29 37.09,146.04 47.5,139.29 
								47.5,120.11 66.16,130.18 66.16,114.49 							"/>
							<polygon class="st22" points="102.78,97.91 73.71,114.49 73.71,130.18 92.36,120.11 92.36,139.29 102.78,146.04 
								113.19,139.29 113.19,120.11 131.85,130.18 131.85,114.49 							"/>
						</g>
					</g>
				</g>
			</g>
			<g>
				<g>
					<path class="st23" d="M39.64,74.64c0-4.84,0.85-9.23,2.56-13.16c1.71-3.93,4.04-7.29,7.01-10.08
						c2.96-2.79,6.45-4.94,10.47-6.45c4.02-1.51,8.3-2.26,12.86-2.26c4.67,0,9.09,0.76,13.25,2.26c4.16,1.51,7.63,3.55,10.43,6.11
						L83.74,66.1c-1.14-1.48-2.56-2.61-4.27-3.38c-1.71-0.77-3.62-1.15-5.73-1.15c-1.71,0-3.3,0.3-4.79,0.9
						c-1.48,0.6-2.78,1.47-3.89,2.61c-1.11,1.14-1.98,2.52-2.61,4.14c-0.63,1.62-0.94,3.43-0.94,5.43c0,1.99,0.33,3.77,0.98,5.34
						c0.65,1.57,1.54,2.92,2.65,4.06c1.11,1.14,2.41,2.01,3.89,2.61c1.48,0.6,3.05,0.9,4.7,0.9c2.34,0,4.34-0.48,6.02-1.45
						c1.68-0.97,3-2.11,3.97-3.42l12.48,14.95c-2.73,2.73-6.1,4.91-10.08,6.54c-3.99,1.62-8.52,2.44-13.59,2.44
						c-4.56,0-8.84-0.77-12.86-2.31s-7.51-3.72-10.47-6.54c-2.96-2.82-5.3-6.18-7.01-10.08C40.5,83.77,39.64,79.43,39.64,74.64z"/>
				</g>
				<g>
					<g>
						<path class="st4" d="M39.64,66.47c0-4.84,0.85-9.23,2.56-13.16c1.71-3.93,4.04-7.29,7.01-10.08
							c2.96-2.79,6.45-4.94,10.47-6.45c4.02-1.51,8.3-2.26,12.86-2.26c4.67,0,9.09,0.76,13.25,2.26c4.16,1.51,7.63,3.55,10.43,6.11
							L83.74,57.93c-1.14-1.48-2.56-2.61-4.27-3.38c-1.71-0.77-3.62-1.15-5.73-1.15c-1.71,0-3.3,0.3-4.79,0.9
							c-1.48,0.6-2.78,1.47-3.89,2.61c-1.11,1.14-1.98,2.52-2.61,4.14c-0.63,1.62-0.94,3.43-0.94,5.43c0,2,0.33,3.78,0.98,5.34
							c0.65,1.57,1.54,2.92,2.65,4.06c1.11,1.14,2.41,2.01,3.89,2.61c1.48,0.6,3.05,0.9,4.7,0.9c2.34,0,4.34-0.48,6.02-1.45
							c1.68-0.97,3-2.11,3.97-3.42l12.48,14.95c-2.73,2.73-6.1,4.91-10.08,6.54c-3.99,1.62-8.52,2.44-13.59,2.44
							c-4.56,0-8.84-0.77-12.86-2.31s-7.51-3.72-10.47-6.54c-2.96-2.82-5.3-6.18-7.01-10.08C40.5,75.6,39.64,71.26,39.64,66.47z"/>
					</g>
				</g>
			</g>
		</g>
	</g>
</g>
</svg>
