<?xml version="1.0" encoding="utf-8"?>
<!-- Generator: Adobe Illustrator 25.2.3, SVG Export Plug-In . SVG Version: 6.00 Build 0)  -->
<svg version="1.1" xmlns="http://www.w3.org/2000/svg" xmlns:xlink="http://www.w3.org/1999/xlink" x="0px" y="0px"
	 viewBox="0 0 134.63 135.58" style="enable-background:new 0 0 134.63 135.58;" xml:space="preserve">
<style type="text/css">
	.st0{clip-path:url(#XMLID_3_);}
	.st1{opacity:0.25;clip-path:url(#SVGID_2_);}
	.st2{fill:#F6D968;}
	.st3{fill:#B98601;}
	.st4{fill:#FFFFFF;}
	.st5{clip-path:url(#XMLID_5_);}
	.st6{opacity:0.25;clip-path:url(#SVGID_4_);}
	.st7{clip-path:url(#XMLID_7_);}
	.st8{opacity:0.25;clip-path:url(#SVGID_6_);}
	.st9{opacity:0.25;clip-path:url(#XMLID_10_);}
	.st10{opacity:0.25;clip-path:url(#XMLID_12_);}
	.st11{opacity:0.25;clip-path:url(#XMLID_14_);}
	.st12{fill:url(#SVGID_7_);}
	.st13{fill:url(#SVGID_8_);}
	.st14{fill:url(#SVGID_9_);}
	.st15{fill:url(#SVGID_10_);}
	.st16{opacity:0.7;fill:#60DFFF;}
	.st17{fill:url(#SVGID_11_);}
	.st18{fill:#D7F7FF;}
	.st19{fill:url(#SVGID_12_);}
	.st20{fill:url(#SVGID_13_);}
	.st21{opacity:0.25;clip-path:url(#SVGID_15_);}
	.st22{fill:#53CFFC;}
	.st23{fill:#017BD2;}
	.st24{fill:url(#SVGID_16_);}
	.st25{opacity:0.25;}
	.st26{clip-path:url(#SVGID_18_);}
	.st27{fill:url(#SVGID_19_);}
	.st28{opacity:0.25;clip-path:url(#SVGID_21_);}
	.st29{fill:url(#SVGID_22_);}
	.st30{clip-path:url(#SVGID_24_);}
	.st31{fill:url(#SVGID_25_);}
	.st32{opacity:0.25;clip-path:url(#SVGID_27_);}
	.st33{fill:url(#SVGID_28_);}
	.st34{clip-path:url(#SVGID_30_);}
	.st35{fill:url(#SVGID_31_);}
	.st36{opacity:0.25;clip-path:url(#SVGID_33_);}
	.st37{fill:url(#SVGID_34_);}
	.st38{clip-path:url(#SVGID_36_);}
	.st39{fill:#60DFFF;}
	.st40{fill:url(#SVGID_37_);}
	.st41{opacity:0.25;clip-path:url(#SVGID_39_);}
	.st42{fill:url(#SVGID_40_);}
	.st43{opacity:0.25;clip-path:url(#SVGID_42_);}
	.st44{fill:url(#SVGID_43_);}
	.st45{fill:#1E3865;}
</style>
<g id="FONDOS">
</g>
<g id="PERSONAJES">
</g>
<g id="INTERFACE">
	<g>
		<path class="st4" d="M128.81,135.58H5.82c-3.22,0-5.82-2.61-5.82-5.82V5.82C0,2.61,2.61,0,5.82,0h122.99
			c3.22,0,5.82,2.61,5.82,5.82v123.93C134.63,132.97,132.03,135.58,128.81,135.58z"/>
		<g>
			<g>
				<g>
					<linearGradient id="SVGID_2_" gradientUnits="userSpaceOnUse" x1="67.317" y1="8.7289" x2="67.317" y2="127.4894">
						<stop  offset="0.0642" style="stop-color:#FFEF88"/>
						<stop  offset="0.0877" style="stop-color:#FFEA78"/>
						<stop  offset="0.1428" style="stop-color:#FFE159"/>
						<stop  offset="0.2053" style="stop-color:#FFD93D"/>
						<stop  offset="0.2759" style="stop-color:#FFD327"/>
						<stop  offset="0.3583" style="stop-color:#FFCE16"/>
						<stop  offset="0.4602" style="stop-color:#FFCB0B"/>
						<stop  offset="0.6031" style="stop-color:#FFC904"/>
						<stop  offset="1" style="stop-color:#FFC802"/>
					</linearGradient>
					<path style="fill:url(#SVGID_2_);" d="M7.89,119.95V14.32c0-2.76,2.24-5,5-5h108.86c2.76,0,5,2.24,5,5v105.62
						c0,3.44-2.79,6.22-6.22,6.22H14.11C10.67,126.17,7.89,123.38,7.89,119.95z"/>
					<g class="st25">
						<defs>
							<path id="SVGID_23_" class="st25" d="M7.89,119.95V16.28c0-3.84,3.12-6.96,6.96-6.96h104.94c3.84,0,6.96,3.12,6.96,6.96
								v103.66c0,3.44-2.79,6.22-6.22,6.22H14.11C10.67,126.17,7.89,123.38,7.89,119.95z"/>
						</defs>
						<clipPath id="SVGID_4_">
							<use xlink:href="#SVGID_23_"  style="overflow:visible;"/>
						</clipPath>
						<g style="clip-path:url(#SVGID_4_);">
							<polygon class="st2" points="36.89,19.39 7.82,35.97 7.82,51.65 26.47,41.58 26.47,60.77 36.89,67.51 47.3,60.77 47.3,41.58 
								65.96,51.65 65.96,35.97 							"/>
							<polygon class="st2" points="102.17,19.39 73.1,35.97 73.1,51.65 91.76,41.58 91.76,60.77 102.17,67.51 112.58,60.77 
								112.58,41.58 131.24,51.65 131.24,35.97 							"/>
						</g>
						<g style="clip-path:url(#SVGID_4_);">
							<polygon class="st2" points="4.25,58.18 -24.82,74.76 -24.82,90.44 -6.17,80.38 -6.17,99.56 4.25,106.3 14.66,99.56 
								14.66,80.38 33.31,90.44 33.31,74.76 							"/>
							<polygon class="st2" points="69.53,58.18 40.46,74.76 40.46,90.44 59.11,80.38 59.11,99.56 69.53,106.3 79.94,99.56 
								79.94,80.38 98.6,90.44 98.6,74.76 							"/>
							<polygon class="st2" points="134.81,58.18 105.74,74.76 105.74,90.44 124.4,80.38 124.4,99.56 134.81,106.3 145.22,99.56 
								145.22,80.38 163.88,90.44 163.88,74.76 							"/>
						</g>
						<g style="clip-path:url(#SVGID_4_);">
							<polygon class="st2" points="37.09,97.91 8.02,114.49 8.02,130.18 26.68,120.11 26.68,139.29 37.09,146.04 47.5,139.29 
								47.5,120.11 66.16,130.18 66.16,114.49 							"/>
							<polygon class="st2" points="102.78,97.91 73.71,114.49 73.71,130.18 92.36,120.11 92.36,139.29 102.78,146.04 
								113.19,139.29 113.19,120.11 131.85,130.18 131.85,114.49 							"/>
						</g>
					</g>
				</g>
			</g>
			<g>
				<g>
					<g>
						<path class="st3" d="M42.38,104.89v-60.5h22.56c4.79,0,9.36,0.47,13.72,1.41c4.36,0.94,8.2,2.56,11.54,4.87
							c3.33,2.31,6,5.37,7.99,9.19c1.99,3.82,2.99,8.63,2.99,14.44c0,5.3-0.96,9.88-2.86,13.76c-1.91,3.88-4.46,7.05-7.65,9.53
							c-3.19,2.48-6.87,4.32-11.02,5.51c-4.16,1.2-8.49,1.79-12.99,1.79H42.38z M61.95,61.66v25.72h3.76
							c4.79,0,8.46-1.04,11.02-3.11s3.85-5.46,3.85-10.18c0-3.92-1.28-6.97-3.85-9.16c-2.56-2.19-5.98-3.28-10.25-3.28H61.95z"/>
					</g>
				</g>
				<g>
					<g>
						<path class="st4" d="M42.38,96.72v-60.5h22.56c4.79,0,9.36,0.47,13.72,1.41c4.36,0.94,8.2,2.56,11.54,4.87
							c3.33,2.31,6,5.37,7.99,9.19c1.99,3.82,2.99,8.63,2.99,14.44c0,5.3-0.96,9.88-2.86,13.76c-1.91,3.88-4.46,7.05-7.65,9.53
							c-3.19,2.48-6.87,4.32-11.02,5.51c-4.16,1.2-8.49,1.79-12.99,1.79H42.38z M61.95,53.48v25.72h3.76
							c4.79,0,8.46-1.04,11.02-3.11s3.85-5.46,3.85-10.18c0-3.92-1.28-6.97-3.85-9.16c-2.56-2.19-5.98-3.28-10.25-3.28H61.95z"/>
					</g>
				</g>
			</g>
		</g>
	</g>
</g>
</svg>
