<svg xmlns="http://www.w3.org/2000/svg" xmlns:xlink="http://www.w3.org/1999/xlink" viewBox="0 0 1033.79 819.46"><defs><style>.cls-1{fill:#60dfff;opacity:0.7;}.cls-2{fill:#d7f7ff;}.cls-3{fill:#1f3a67;}.cls-4{fill:url(#Degradado_sin_nombre_156);}</style><linearGradient id="Degradado_sin_nombre_156" x1="9057.03" y1="-7747.73" x2="9676.03" y2="-7747.73" gradientTransform="translate(8209 9702.02) rotate(-90)" gradientUnits="userSpaceOnUse"><stop offset="0" stop-color="#557bbd"/><stop offset="1" stop-color="#1d3763"/></linearGradient></defs><g id="INTERFACE"><path class="cls-1" d="M1.09,802.81V17.67A16.59,16.59,0,0,1,17.68,1.08H906.9a16.6,16.6,0,0,1,16.6,16.59V169.5l110.29,86.68H923.5V802.81a16.6,16.6,0,0,1-16.6,16.6H17.68A16.6,16.6,0,0,1,1.09,802.81Z"/><path class="cls-2" d="M17.68,819.41A16,16,0,0,1,5,814.54,16.61,16.61,0,0,1,.36,805a25,25,0,0,1-.17-3.52V774.1l0-54.76L.1,609.8,0,390.74,0,171.67l0-109.53V17.64l.1-1.81c.09-.6.17-1.2.29-1.8A17.38,17.38,0,0,1,3.38,7.44,17.61,17.61,0,0,1,15.5.22,30.86,30.86,0,0,1,19,.07H56.69L494.83,0,713.89.1,823.43.16l54.76,0,27.39,0a26.52,26.52,0,0,1,3.52.16,17.27,17.27,0,0,1,3.49.85,16.89,16.89,0,0,1,6,3.77,16,16,0,0,1,4.88,12.69A17.28,17.28,0,0,0,917.67,6,16.38,16.38,0,0,0,912,2.8a15.39,15.39,0,0,0-3.16-.71,27.31,27.31,0,0,0-3.3-.12H878.19L823.43,2l-109.54.05-219.06.1L56.69,2.08H19a26.93,26.93,0,0,0-3.29.13A15.63,15.63,0,0,0,5,8.62a15.45,15.45,0,0,0-2.58,5.83c-.1.53-.16,1.06-.25,1.59l-.09,1.6v44.5l0,109.53,0,219.07L2.07,609.8,2,719.34,2,774.1l0,27.39a27.26,27.26,0,0,0,.13,3.3A14.9,14.9,0,0,0,2.82,808,16.31,16.31,0,0,0,6,813.57,17.33,17.33,0,0,0,17.68,819.41Z"/><rect class="cls-3" x="29.77" y="35.18" width="863" height="619" rx="7.54"/><rect class="cls-4" x="29.77" y="25.99" width="863" height="619" rx="7.54"/></g></svg>