<svg xmlns="http://www.w3.org/2000/svg" xmlns:xlink="http://www.w3.org/1999/xlink" viewBox="0 0 899.69 182"><defs><style>.cls-1{fill:url(#Degradado_sin_nombre_464);}.cls-2{fill:#fff;}</style><linearGradient id="Degradado_sin_nombre_464" x1="6977.17" y1="-8052.62" x2="7151.17" y2="-8052.62" gradientTransform="translate(8502.47 7155.17) rotate(-90)" gradientUnits="userSpaceOnUse"><stop offset="0" stop-color="#71acf9"/><stop offset="0.02" stop-color="#6faaf9"/><stop offset="0.24" stop-color="#5698f6"/><stop offset="0.46" stop-color="#458af4"/><stop offset="0.71" stop-color="#3a83f2"/><stop offset="1" stop-color="#3780f2"/></linearGradient></defs><g id="INTERFACE"><rect class="cls-1" x="4" y="4" width="891.69" height="174" rx="11.71"/><path class="cls-2" d="M884,8a7.71,7.71,0,0,1,7.7,7.71V166.29A7.71,7.71,0,0,1,884,174H15.71A7.71,7.71,0,0,1,8,166.29V15.71A7.71,7.71,0,0,1,15.71,8H884m0-8H15.71A15.73,15.73,0,0,0,0,15.71V166.29A15.73,15.73,0,0,0,15.71,182H884a15.72,15.72,0,0,0,15.7-15.71V15.71A15.72,15.72,0,0,0,884,0Z"/></g></svg>