<?xml version="1.0" encoding="utf-8"?>
<!-- Generator: Adobe Illustrator 25.2.3, SVG Export Plug-In . SVG Version: 6.00 Build 0)  -->
<svg version="1.1" xmlns="http://www.w3.org/2000/svg" xmlns:xlink="http://www.w3.org/1999/xlink" x="0px" y="0px"
	 viewBox="0 0 665.87 107.6" style="enable-background:new 0 0 665.87 107.6;" xml:space="preserve">
<style type="text/css">
	.st0{clip-path:url(#XMLID_3_);}
	.st1{opacity:0.25;clip-path:url(#SVGID_2_);}
	.st2{fill:#F6D968;}
	.st3{fill:#B98601;}
	.st4{fill:#FFFFFF;}
	.st5{clip-path:url(#XMLID_5_);}
	.st6{opacity:0.25;clip-path:url(#SVGID_4_);}
	.st7{clip-path:url(#XMLID_7_);}
	.st8{opacity:0.25;clip-path:url(#SVGID_6_);}
	.st9{opacity:0.25;clip-path:url(#XMLID_10_);}
	.st10{opacity:0.25;clip-path:url(#XMLID_12_);}
	.st11{opacity:0.25;clip-path:url(#XMLID_14_);}
	.st12{fill:url(#SVGID_7_);}
	.st13{fill:url(#SVGID_8_);}
	.st14{fill:url(#SVGID_9_);}
	.st15{fill:url(#SVGID_10_);}
	.st16{opacity:0.7;fill:#60DFFF;}
	.st17{fill:url(#SVGID_11_);}
	.st18{fill:#D7F7FF;}
	.st19{fill:url(#SVGID_12_);}
	.st20{fill:url(#SVGID_13_);}
	.st21{opacity:0.25;clip-path:url(#SVGID_15_);}
	.st22{fill:#53CFFC;}
	.st23{fill:#017BD2;}
	.st24{fill:url(#SVGID_16_);}
	.st25{opacity:0.25;}
	.st26{clip-path:url(#SVGID_18_);}
	.st27{fill:url(#SVGID_19_);}
	.st28{opacity:0.25;clip-path:url(#SVGID_21_);}
	.st29{fill:url(#SVGID_22_);}
	.st30{clip-path:url(#SVGID_24_);}
	.st31{fill:url(#SVGID_25_);}
	.st32{opacity:0.25;clip-path:url(#SVGID_27_);}
	.st33{fill:url(#SVGID_28_);}
	.st34{clip-path:url(#SVGID_30_);}
	.st35{fill:url(#SVGID_31_);}
	.st36{opacity:0.25;clip-path:url(#SVGID_33_);}
	.st37{fill:url(#SVGID_34_);}
	.st38{clip-path:url(#SVGID_36_);}
	.st39{fill:#60DFFF;}
	.st40{fill:url(#SVGID_37_);}
	.st41{opacity:0.25;clip-path:url(#SVGID_39_);}
	.st42{fill:url(#SVGID_40_);}
	.st43{opacity:0.25;clip-path:url(#SVGID_42_);}
	.st44{fill:url(#SVGID_43_);}
	.st45{fill:#1E3865;}
</style>
<g id="FONDOS">
</g>
<g id="PERSONAJES">
</g>
<g id="INTERFACE">
	<g>
		<path class="st4" d="M469.01,0.39h-8.41H0l14.89,75.97c3.53,18.01,22.2,31.23,44.11,31.23h401.6h8.41h137.87
			c21.9,0,40.58-13.22,44.11-31.23l14.89-75.97H469.01z"/>
		<path class="st45" d="M436.2,0h-7.58H13.69L27.1,67.5c3.18,16,20,27.75,39.73,27.75h361.79h7.58h162.85
			c19.73,0,36.55-11.75,39.73-27.75L652.19,0H436.2z"/>
		<g>
			<path class="st4" d="M46.44,28.75h25.65v10.43H58.24v3.21h13.01v9.74H58.24v3.48h14.75v10.43H46.44V28.75z"/>
			<path class="st4" d="M90.41,67.09c-1.51,0-2.99-0.13-4.45-0.39c-1.46-0.26-2.86-0.65-4.21-1.15c-1.35-0.51-2.62-1.1-3.82-1.78
				c-1.19-0.68-2.26-1.44-3.21-2.28l7.64-8.3c0.88,0.95,2.04,1.79,3.5,2.53c1.46,0.74,2.96,1.11,4.5,1.11c0.7,0,1.34-0.12,1.92-0.37
				c0.58-0.25,0.87-0.7,0.87-1.37c0-0.35-0.1-0.65-0.29-0.9c-0.19-0.25-0.54-0.5-1.03-0.76c-0.49-0.26-1.17-0.55-2.03-0.87
				c-0.86-0.32-1.94-0.69-3.24-1.11c-1.26-0.42-2.47-0.92-3.63-1.5s-2.19-1.29-3.08-2.14c-0.9-0.84-1.61-1.85-2.13-3.03
				c-0.53-1.18-0.79-2.59-0.79-4.25c0-2.32,0.47-4.29,1.42-5.91c0.95-1.62,2.17-2.95,3.66-3.98c1.49-1.04,3.17-1.79,5.03-2.24
				c1.86-0.46,3.7-0.69,5.53-0.69c2.46,0,4.96,0.47,7.5,1.42c2.54,0.95,4.78,2.32,6.71,4.11L99,41.18c-0.84-1.05-1.88-1.85-3.11-2.4
				c-1.23-0.54-2.34-0.82-3.32-0.82c-0.91,0-1.65,0.13-2.21,0.4c-0.56,0.26-0.84,0.69-0.84,1.29c0,0.56,0.29,0.98,0.87,1.26
				c0.58,0.28,1.52,0.63,2.82,1.05c1.33,0.42,2.74,0.91,4.21,1.47s2.83,1.29,4.08,2.18c1.25,0.9,2.27,1.99,3.08,3.29
				s1.21,2.91,1.21,4.84c0,2.25-0.45,4.2-1.34,5.87c-0.9,1.67-2.07,3.05-3.53,4.16c-1.46,1.11-3.1,1.93-4.92,2.48
				C94.17,66.82,92.31,67.09,90.41,67.09z"/>
			<path class="st4" d="M109,47.4c0-2.98,0.53-5.69,1.58-8.11c1.05-2.42,2.49-4.49,4.32-6.21c1.82-1.72,3.98-3.04,6.45-3.98
				c2.48-0.93,5.12-1.4,7.93-1.4c2.88,0,5.6,0.47,8.16,1.4c2.56,0.93,4.7,2.19,6.42,3.77l-7.69,9.27c-0.7-0.91-1.58-1.61-2.63-2.08
				c-1.05-0.47-2.23-0.71-3.53-0.71c-1.05,0-2.04,0.18-2.95,0.55c-0.91,0.37-1.71,0.9-2.4,1.61c-0.68,0.7-1.22,1.55-1.61,2.55
				c-0.39,1-0.58,2.12-0.58,3.34c0,1.23,0.2,2.33,0.61,3.29c0.4,0.97,0.95,1.8,1.63,2.5s1.48,1.24,2.4,1.61
				c0.91,0.37,1.88,0.55,2.9,0.55c1.44,0,2.68-0.3,3.71-0.89c1.04-0.6,1.85-1.3,2.45-2.11l7.69,9.21c-1.69,1.69-3.76,3.03-6.21,4.03
				c-2.46,1-5.25,1.5-8.37,1.5c-2.81,0-5.45-0.47-7.93-1.42c-2.48-0.95-4.63-2.29-6.45-4.03c-1.83-1.74-3.27-3.81-4.32-6.21
				C109.53,53.02,109,50.35,109,47.4z"/>
			<path class="st4" d="M145.02,47.19c0-2.98,0.53-5.68,1.58-8.08c1.05-2.4,2.5-4.45,4.34-6.13c1.84-1.69,4.03-2.98,6.56-3.9
				c2.53-0.91,5.27-1.37,8.22-1.37c2.95,0,5.69,0.46,8.21,1.37c2.53,0.91,4.72,2.21,6.58,3.9c1.86,1.68,3.32,3.73,4.37,6.13
				c1.05,2.41,1.58,5.1,1.58,8.08c0,2.98-0.53,5.71-1.58,8.16c-1.05,2.46-2.51,4.56-4.37,6.29c-1.86,1.74-4.05,3.08-6.58,4.03
				c-2.53,0.95-5.27,1.42-8.21,1.42c-2.95,0-5.69-0.47-8.22-1.42c-2.53-0.95-4.71-2.29-6.56-4.03c-1.84-1.74-3.29-3.83-4.34-6.29
				C145.55,52.89,145.02,50.17,145.02,47.19z M158.34,47.19c0,1.23,0.18,2.35,0.55,3.37c0.37,1.02,0.88,1.9,1.53,2.63
				c0.65,0.74,1.43,1.31,2.34,1.71c0.91,0.4,1.9,0.61,2.95,0.61s2.03-0.2,2.92-0.61c0.9-0.4,1.68-0.97,2.34-1.71
				c0.67-0.74,1.19-1.62,1.55-2.63c0.37-1.02,0.55-2.14,0.55-3.37c0-1.19-0.18-2.29-0.55-3.29c-0.37-1-0.89-1.84-1.55-2.53
				s-1.45-1.22-2.34-1.61c-0.9-0.39-1.87-0.58-2.92-0.58s-2.04,0.19-2.95,0.58c-0.91,0.39-1.69,0.92-2.34,1.61
				c-0.65,0.68-1.16,1.53-1.53,2.53C158.53,44.89,158.34,45.99,158.34,47.19z"/>
			<path class="st4" d="M210.69,66.99c-2.95,0-5.68-0.46-8.19-1.37c-2.51-0.91-4.69-2.22-6.53-3.92c-1.84-1.7-3.29-3.76-4.34-6.19
				c-1.05-2.42-1.58-5.12-1.58-8.11c0-2.98,0.53-5.69,1.58-8.11c1.05-2.42,2.49-4.49,4.32-6.21c1.83-1.72,3.97-3.04,6.42-3.98
				c2.46-0.93,5.09-1.4,7.9-1.4c2.91,0,5.68,0.47,8.29,1.42c2.61,0.95,4.75,2.25,6.4,3.9l-7.32,8.79c-0.77-0.91-1.69-1.64-2.74-2.19
				c-1.05-0.54-2.35-0.82-3.9-0.82c-1.02,0-2.01,0.2-2.98,0.61c-0.97,0.4-1.82,0.98-2.55,1.74s-1.33,1.66-1.79,2.71
				c-0.46,1.05-0.68,2.23-0.68,3.53c0,2.6,0.68,4.71,2.03,6.35c1.35,1.63,3.52,2.45,6.5,2.45c0.53,0,1.07-0.04,1.63-0.13
				c0.56-0.09,1-0.22,1.32-0.39v-2.84h-6v-9.85h17.11v20.38c-0.88,0.53-1.89,1.01-3.03,1.45c-1.14,0.44-2.35,0.82-3.63,1.13
				c-1.28,0.32-2.62,0.57-4.03,0.76C213.5,66.89,212.09,66.99,210.69,66.99z"/>
			<path class="st4" d="M231.86,28.75h25.65v10.43h-13.85v3.21h13.01v9.74h-13.01v3.48h14.75v10.43h-26.54V28.75z"/>
			<path class="st4" d="M276.78,28.75h12.64v26.49h12.38v10.79h-25.01V28.75z"/>
			<path class="st4" d="M316.06,28.75h13.32l14.53,37.28h-13.64l-1.95-5.48h-11.85l-1.84,5.48h-13.27L316.06,28.75z M322.54,41.76
				l-3.05,9.22h6.06L322.54,41.76z"/>
			<path class="st4" d="M381.52,51.87H371.3v14.17h-12.53V28.75h12.48v12.64h10.22V28.75h12.59v37.28h-12.53V51.87z"/>
			<path class="st4" d="M401,28.75h12.64v37.28H401V28.75z"/>
			<path class="st4" d="M432.81,67.09c-1.51,0-2.99-0.13-4.45-0.39c-1.46-0.26-2.86-0.65-4.21-1.15c-1.35-0.51-2.62-1.1-3.82-1.78
				c-1.19-0.68-2.26-1.44-3.21-2.28l7.64-8.3c0.88,0.95,2.04,1.79,3.5,2.53c1.46,0.74,2.96,1.11,4.5,1.11c0.7,0,1.34-0.12,1.92-0.37
				c0.58-0.25,0.87-0.7,0.87-1.37c0-0.35-0.1-0.65-0.29-0.9c-0.19-0.25-0.54-0.5-1.03-0.76c-0.49-0.26-1.17-0.55-2.03-0.87
				c-0.86-0.32-1.94-0.69-3.24-1.11c-1.26-0.42-2.48-0.92-3.63-1.5s-2.19-1.29-3.08-2.14c-0.9-0.84-1.61-1.85-2.13-3.03
				c-0.53-1.18-0.79-2.59-0.79-4.25c0-2.32,0.47-4.29,1.42-5.91c0.95-1.62,2.17-2.95,3.66-3.98c1.49-1.04,3.17-1.79,5.03-2.24
				c1.86-0.46,3.7-0.69,5.53-0.69c2.46,0,4.96,0.47,7.5,1.42c2.54,0.95,4.78,2.32,6.71,4.11l-7.79,7.95
				c-0.84-1.05-1.88-1.85-3.11-2.4c-1.23-0.54-2.33-0.82-3.32-0.82c-0.91,0-1.65,0.13-2.21,0.4c-0.56,0.26-0.84,0.69-0.84,1.29
				c0,0.56,0.29,0.98,0.87,1.26c0.58,0.28,1.52,0.63,2.82,1.05c1.33,0.42,2.74,0.91,4.21,1.47c1.47,0.56,2.83,1.29,4.08,2.18
				c1.25,0.9,2.27,1.99,3.08,3.29c0.81,1.3,1.21,2.91,1.21,4.84c0,2.25-0.45,4.2-1.34,5.87c-0.9,1.67-2.07,3.05-3.53,4.16
				c-1.46,1.11-3.1,1.93-4.92,2.48C436.56,66.82,434.7,67.09,432.81,67.09z"/>
			<path class="st4" d="M471.04,66.04H458.5v-26.7h-9.16V28.75h30.86v10.58h-9.16V66.04z"/>
			<path class="st4" d="M480.78,47.19c0-2.98,0.53-5.68,1.58-8.08c1.05-2.4,2.5-4.45,4.34-6.13c1.84-1.69,4.03-2.98,6.56-3.9
				c2.53-0.91,5.27-1.37,8.21-1.37c2.95,0,5.69,0.46,8.22,1.37c2.53,0.91,4.72,2.21,6.58,3.9c1.86,1.68,3.32,3.73,4.37,6.13
				c1.05,2.41,1.58,5.1,1.58,8.08c0,2.98-0.53,5.71-1.58,8.16c-1.05,2.46-2.51,4.56-4.37,6.29c-1.86,1.74-4.05,3.08-6.58,4.03
				c-2.53,0.95-5.27,1.42-8.22,1.42c-2.95,0-5.69-0.47-8.21-1.42c-2.53-0.95-4.71-2.29-6.56-4.03c-1.84-1.74-3.29-3.83-4.34-6.29
				C481.31,52.89,480.78,50.17,480.78,47.19z M494.1,47.19c0,1.23,0.18,2.35,0.55,3.37c0.37,1.02,0.88,1.9,1.53,2.63
				c0.65,0.74,1.43,1.31,2.34,1.71c0.91,0.4,1.9,0.61,2.95,0.61c1.05,0,2.03-0.2,2.92-0.61c0.9-0.4,1.68-0.97,2.34-1.71
				c0.67-0.74,1.19-1.62,1.55-2.63c0.37-1.02,0.55-2.14,0.55-3.37c0-1.19-0.18-2.29-0.55-3.29c-0.37-1-0.89-1.84-1.55-2.53
				c-0.67-0.68-1.45-1.22-2.34-1.61c-0.9-0.39-1.87-0.58-2.92-0.58c-1.05,0-2.04,0.19-2.95,0.58c-0.91,0.39-1.69,0.92-2.34,1.61
				c-0.65,0.68-1.16,1.53-1.53,2.53C494.29,44.89,494.1,45.99,494.1,47.19z"/>
			<path class="st4" d="M527.49,28.75h16.06c1.82,0,3.64,0.18,5.45,0.55c1.81,0.37,3.42,1.02,4.84,1.95
				c1.42,0.93,2.57,2.18,3.45,3.74c0.88,1.56,1.32,3.52,1.32,5.87c0,2.28-0.56,4.29-1.68,6.03c-1.12,1.74-2.73,3.08-4.83,4.03
				l9.46,15.11h-14.4l-7.14-13.32h-0.37v13.32h-12.16V28.75z M539.55,44.5H542c0.42,0,0.88-0.03,1.38-0.11
				c0.51-0.07,0.98-0.22,1.41-0.45c0.44-0.23,0.8-0.54,1.1-0.95c0.3-0.4,0.44-0.94,0.44-1.61c0-0.67-0.12-1.19-0.37-1.58
				c-0.24-0.39-0.56-0.68-0.94-0.87c-0.38-0.19-0.8-0.32-1.25-0.37c-0.45-0.05-0.87-0.08-1.25-0.08h-2.98V44.5z"/>
			<path class="st4" d="M565.09,28.75h12.64v37.28h-12.64V28.75z"/>
			<path class="st4" d="M595.05,28.75h13.32l14.53,37.28h-13.64l-1.95-5.48h-11.85l-1.84,5.48h-13.27L595.05,28.75z M601.53,41.76
				l-3.05,9.22h6.06L601.53,41.76z"/>
		</g>
	</g>
</g>
</svg>
