<?xml version="1.0" encoding="utf-8"?>
<!-- Generator: Adobe Illustrator 25.2.3, SVG Export Plug-In . SVG Version: 6.00 Build 0)  -->
<svg version="1.1" xmlns="http://www.w3.org/2000/svg" xmlns:xlink="http://www.w3.org/1999/xlink" x="0px" y="0px"
	 viewBox="0 0 882.89 138.23" style="enable-background:new 0 0 882.89 138.23;" xml:space="preserve">
<style type="text/css">
	.st0{clip-path:url(#XMLID_3_);}
	.st1{opacity:0.25;clip-path:url(#SVGID_2_);}
	.st2{fill:#F6D968;}
	.st3{fill:#B98601;}
	.st4{fill:#FFFFFF;}
	.st5{clip-path:url(#XMLID_5_);}
	.st6{opacity:0.25;clip-path:url(#SVGID_4_);}
	.st7{clip-path:url(#XMLID_7_);}
	.st8{opacity:0.25;clip-path:url(#SVGID_6_);}
	.st9{opacity:0.25;clip-path:url(#XMLID_10_);}
	.st10{opacity:0.25;clip-path:url(#XMLID_12_);}
	.st11{opacity:0.25;clip-path:url(#XMLID_14_);}
	.st12{fill:url(#SVGID_7_);}
	.st13{fill:url(#SVGID_8_);}
	.st14{fill:url(#SVGID_9_);}
	.st15{fill:url(#SVGID_10_);}
	.st16{opacity:0.7;fill:#60DFFF;}
	.st17{fill:url(#SVGID_11_);}
	.st18{fill:#D7F7FF;}
	.st19{fill:url(#SVGID_12_);}
	.st20{fill:url(#SVGID_13_);}
	.st21{opacity:0.25;clip-path:url(#SVGID_15_);}
	.st22{fill:#53CFFC;}
	.st23{fill:#017BD2;}
	.st24{fill:url(#SVGID_16_);}
	.st25{opacity:0.25;}
	.st26{clip-path:url(#SVGID_18_);}
	.st27{fill:url(#SVGID_19_);}
	.st28{opacity:0.25;clip-path:url(#SVGID_21_);}
	.st29{fill:url(#SVGID_22_);}
	.st30{clip-path:url(#SVGID_24_);}
	.st31{fill:url(#SVGID_25_);}
	.st32{opacity:0.25;clip-path:url(#SVGID_27_);}
	.st33{fill:url(#SVGID_28_);}
	.st34{clip-path:url(#SVGID_30_);}
	.st35{fill:url(#SVGID_31_);}
	.st36{opacity:0.25;clip-path:url(#SVGID_33_);}
	.st37{fill:url(#SVGID_34_);}
	.st38{clip-path:url(#SVGID_36_);}
	.st39{fill:#60DFFF;}
	.st40{fill:url(#SVGID_37_);}
	.st41{opacity:0.25;clip-path:url(#SVGID_39_);}
	.st42{fill:url(#SVGID_40_);}
	.st43{opacity:0.25;clip-path:url(#SVGID_42_);}
	.st44{fill:url(#SVGID_43_);}
	.st45{fill:#1E3865;}
</style>
<g id="FONDOS">
</g>
<g id="PERSONAJES">
</g>
<g id="INTERFACE">
	<g>
		<path class="st4" d="M621.86,0.5h-11.15H0l19.74,97.61c4.68,23.14,29.44,40.13,58.48,40.13h532.49h11.15h182.81
			c29.04,0,53.8-16.99,58.48-40.13L882.89,0.5H621.86z"/>
		<g>
			<linearGradient id="SVGID_2_" gradientUnits="userSpaceOnUse" x1="441.4468" y1="0" x2="441.4468" y2="122.3704">
				<stop  offset="0" style="stop-color:#557BBD"/>
				<stop  offset="1" style="stop-color:#1D3763"/>
			</linearGradient>
			<path style="fill:url(#SVGID_2_);" d="M578.36,0h-10.05H18.15l17.78,86.72c4.22,20.56,26.52,35.65,52.68,35.65h479.7h10.05
				h215.92c26.16,0,48.47-15.09,52.68-35.65L864.75,0H578.36z"/>
		</g>
		<g>
			<path class="st4" d="M73.37,36.95h32.95v13.4H88.52v4.13h16.71v12.52H88.52v4.46h18.94v13.4h-34.1V36.95z"/>
			<path class="st4" d="M129.86,86.21c-1.94,0-3.85-0.17-5.72-0.5c-1.87-0.34-3.68-0.83-5.41-1.48c-1.74-0.65-3.37-1.41-4.91-2.29
				c-1.53-0.88-2.91-1.85-4.13-2.93l9.81-10.66c1.13,1.22,2.63,2.3,4.5,3.25c1.87,0.95,3.8,1.42,5.78,1.42
				c0.9,0,1.73-0.16,2.47-0.47c0.74-0.32,1.12-0.9,1.12-1.76c0-0.45-0.12-0.83-0.37-1.15c-0.25-0.32-0.69-0.64-1.32-0.98
				c-0.63-0.34-1.5-0.71-2.6-1.12c-1.11-0.41-2.49-0.88-4.16-1.42c-1.62-0.54-3.18-1.19-4.67-1.93c-1.49-0.75-2.81-1.66-3.96-2.75
				c-1.15-1.08-2.06-2.38-2.74-3.9c-0.68-1.51-1.01-3.33-1.01-5.46c0-2.98,0.61-5.51,1.83-7.59c1.22-2.08,2.79-3.78,4.7-5.12
				s4.07-2.29,6.46-2.88s4.76-0.88,7.1-0.88c3.16,0,6.37,0.61,9.64,1.83c3.27,1.22,6.14,2.98,8.63,5.28l-10.01,10.22
				c-1.08-1.35-2.41-2.38-3.99-3.08c-1.58-0.7-3-1.05-4.26-1.05c-1.17,0-2.12,0.17-2.84,0.51c-0.72,0.34-1.08,0.89-1.08,1.66
				c0,0.72,0.37,1.26,1.12,1.62c0.74,0.36,1.95,0.81,3.62,1.35c1.71,0.54,3.52,1.17,5.41,1.89c1.89,0.72,3.64,1.66,5.24,2.81
				c1.6,1.15,2.92,2.56,3.96,4.23c1.04,1.67,1.56,3.74,1.56,6.22c0,2.89-0.58,5.4-1.73,7.54c-1.15,2.14-2.66,3.92-4.53,5.34
				c-1.87,1.42-3.98,2.48-6.33,3.18C134.69,85.86,132.3,86.21,129.86,86.21z"/>
			<path class="st4" d="M153.74,60.9c0-3.83,0.68-7.31,2.03-10.42c1.35-3.11,3.2-5.77,5.55-7.98c2.34-2.21,5.11-3.91,8.29-5.11
				c3.18-1.19,6.57-1.79,10.18-1.79c3.7,0,7.19,0.6,10.49,1.79c3.29,1.2,6.04,2.81,8.25,4.84l-9.88,11.91
				c-0.9-1.17-2.03-2.06-3.38-2.67c-1.35-0.61-2.87-0.91-4.53-0.91c-1.35,0-2.62,0.24-3.79,0.71s-2.2,1.16-3.08,2.06
				c-0.88,0.9-1.57,2-2.06,3.28c-0.5,1.29-0.74,2.72-0.74,4.3c0,1.58,0.26,2.99,0.78,4.23c0.52,1.24,1.22,2.31,2.1,3.21
				c0.88,0.9,1.91,1.59,3.08,2.06c1.17,0.47,2.41,0.71,3.72,0.71c1.85,0,3.44-0.38,4.77-1.15c1.33-0.77,2.38-1.67,3.15-2.71
				l9.88,11.84c-2.17,2.16-4.83,3.89-7.98,5.18c-3.16,1.29-6.74,1.93-10.76,1.93c-3.61,0-7-0.61-10.18-1.83
				c-3.18-1.22-5.94-2.94-8.29-5.18c-2.35-2.23-4.2-4.89-5.55-7.98C154.42,68.13,153.74,64.69,153.74,60.9z"/>
			<path class="st4" d="M200.02,60.63c0-3.83,0.68-7.29,2.03-10.39c1.35-3.09,3.21-5.72,5.58-7.88c2.37-2.17,5.18-3.83,8.42-5.01
				c3.25-1.17,6.77-1.76,10.55-1.76c3.79,0,7.31,0.59,10.55,1.76c3.25,1.17,6.07,2.84,8.46,5.01c2.39,2.17,4.26,4.79,5.62,7.88
				c1.35,3.09,2.03,6.55,2.03,10.39c0,3.83-0.68,7.33-2.03,10.49c-1.35,3.16-3.23,5.85-5.62,8.08c-2.39,2.23-5.21,3.96-8.46,5.18
				c-3.25,1.22-6.77,1.83-10.55,1.83c-3.79,0-7.31-0.61-10.55-1.83c-3.25-1.22-6.06-2.94-8.42-5.18c-2.37-2.23-4.23-4.93-5.58-8.08
				C200.7,67.96,200.02,64.47,200.02,60.63z M217.14,60.63c0,1.58,0.24,3.02,0.71,4.33c0.47,1.31,1.13,2.44,1.96,3.38
				c0.83,0.95,1.84,1.68,3.01,2.2c1.17,0.52,2.44,0.78,3.79,0.78c1.35,0,2.6-0.26,3.75-0.78c1.15-0.52,2.15-1.25,3.01-2.2
				c0.86-0.95,1.52-2.07,2-3.38c0.47-1.31,0.71-2.75,0.71-4.33c0-1.53-0.24-2.94-0.71-4.23c-0.47-1.29-1.14-2.37-2-3.25
				c-0.86-0.88-1.86-1.57-3.01-2.06c-1.15-0.5-2.4-0.74-3.75-0.74c-1.35,0-2.62,0.25-3.79,0.74c-1.17,0.5-2.18,1.18-3.01,2.06
				c-0.83,0.88-1.49,1.96-1.96,3.25C217.37,57.69,217.14,59.1,217.14,60.63z"/>
			<path class="st4" d="M284.39,86.07c-3.79,0-7.3-0.59-10.52-1.76c-3.23-1.17-6.02-2.85-8.39-5.04c-2.37-2.19-4.23-4.84-5.58-7.95
				c-1.35-3.11-2.03-6.58-2.03-10.42c0-3.83,0.68-7.31,2.03-10.42c1.35-3.11,3.2-5.77,5.55-7.98c2.34-2.21,5.1-3.91,8.25-5.11
				c3.16-1.19,6.54-1.79,10.15-1.79c3.74,0,7.29,0.61,10.66,1.83c3.36,1.22,6.1,2.89,8.22,5.01l-9.4,11.3
				c-0.99-1.17-2.17-2.11-3.52-2.81c-1.35-0.7-3.02-1.05-5.01-1.05c-1.31,0-2.58,0.26-3.82,0.78c-1.24,0.52-2.33,1.26-3.28,2.23
				c-0.95,0.97-1.71,2.13-2.3,3.48c-0.59,1.35-0.88,2.86-0.88,4.53c0,3.34,0.87,6.06,2.6,8.15c1.74,2.1,4.52,3.15,8.36,3.15
				c0.68,0,1.38-0.06,2.1-0.17c0.72-0.11,1.29-0.28,1.69-0.51v-3.65h-7.71V55.22h21.99V81.4c-1.13,0.68-2.42,1.3-3.89,1.86
				c-1.47,0.56-3.02,1.05-4.67,1.45s-3.37,0.73-5.18,0.98C287.99,85.95,286.19,86.07,284.39,86.07z"/>
			<path class="st4" d="M311.58,36.95h32.95v13.4h-17.79v4.13h16.71v12.52h-16.71v4.46h18.94v13.4h-34.1V36.95z"/>
			<path class="st4" d="M369.29,36.95h16.24v34.03h15.9v13.87h-32.14V36.95z"/>
			<path class="st4" d="M419.76,36.95h17.12l18.67,47.9h-17.52l-2.5-7.04H420.3l-2.37,7.04h-17.05L419.76,36.95z M428.08,53.66
				l-3.92,11.84h7.78L428.08,53.66z"/>
			<path class="st4" d="M503.86,66.65h-13.12v18.2h-16.1v-47.9h16.04v16.24h13.12V36.95h16.17v47.9h-16.1V66.65z"/>
			<path class="st4" d="M528.89,36.95h16.24v47.9h-16.24V36.95z"/>
			<path class="st4" d="M569.75,86.21c-1.94,0-3.85-0.17-5.72-0.5c-1.87-0.34-3.68-0.83-5.41-1.48c-1.74-0.65-3.37-1.41-4.91-2.29
				c-1.53-0.88-2.91-1.85-4.13-2.93l9.81-10.66c1.13,1.22,2.63,2.3,4.5,3.25c1.87,0.95,3.8,1.42,5.78,1.42
				c0.9,0,1.73-0.16,2.47-0.47c0.74-0.32,1.12-0.9,1.12-1.76c0-0.45-0.12-0.83-0.37-1.15c-0.25-0.32-0.69-0.64-1.32-0.98
				c-0.63-0.34-1.5-0.71-2.6-1.12c-1.11-0.41-2.49-0.88-4.16-1.42c-1.62-0.54-3.18-1.19-4.67-1.93c-1.49-0.75-2.81-1.66-3.96-2.75
				c-1.15-1.08-2.06-2.38-2.74-3.9c-0.68-1.51-1.01-3.33-1.01-5.46c0-2.98,0.61-5.51,1.83-7.59c1.22-2.08,2.79-3.78,4.7-5.12
				s4.07-2.29,6.46-2.88s4.76-0.88,7.1-0.88c3.16,0,6.37,0.61,9.64,1.83c3.27,1.22,6.14,2.98,8.63,5.28l-10.01,10.22
				c-1.08-1.35-2.41-2.38-3.99-3.08c-1.58-0.7-3-1.05-4.26-1.05c-1.17,0-2.12,0.17-2.84,0.51c-0.72,0.34-1.08,0.89-1.08,1.66
				c0,0.72,0.37,1.26,1.12,1.62c0.74,0.36,1.95,0.81,3.62,1.35c1.71,0.54,3.52,1.17,5.41,1.89c1.89,0.72,3.64,1.66,5.24,2.81
				c1.6,1.15,2.92,2.56,3.96,4.23c1.04,1.67,1.56,3.74,1.56,6.22c0,2.89-0.58,5.4-1.73,7.54c-1.15,2.14-2.66,3.92-4.53,5.34
				c-1.87,1.42-3.98,2.48-6.33,3.18C574.58,85.86,572.19,86.21,569.75,86.21z"/>
			<path class="st4" d="M618.87,84.85h-16.1v-34.3H591v-13.6h39.65v13.6h-11.77V84.85z"/>
			<path class="st4" d="M631.39,60.63c0-3.83,0.68-7.29,2.03-10.39c1.35-3.09,3.21-5.72,5.58-7.88c2.37-2.17,5.18-3.83,8.42-5.01
				c3.25-1.17,6.77-1.76,10.55-1.76c3.79,0,7.31,0.59,10.55,1.76c3.25,1.17,6.07,2.84,8.46,5.01c2.39,2.17,4.26,4.79,5.62,7.88
				c1.35,3.09,2.03,6.55,2.03,10.39c0,3.83-0.68,7.33-2.03,10.49c-1.35,3.16-3.23,5.85-5.62,8.08c-2.39,2.23-5.21,3.96-8.46,5.18
				c-3.25,1.22-6.77,1.83-10.55,1.83c-3.79,0-7.31-0.61-10.55-1.83c-3.25-1.22-6.06-2.94-8.42-5.18c-2.37-2.23-4.23-4.93-5.58-8.08
				C632.06,67.96,631.39,64.47,631.39,60.63z M648.5,60.63c0,1.58,0.24,3.02,0.71,4.33c0.47,1.31,1.13,2.44,1.96,3.38
				c0.83,0.95,1.84,1.68,3.01,2.2c1.17,0.52,2.44,0.78,3.79,0.78c1.35,0,2.6-0.26,3.75-0.78c1.15-0.52,2.15-1.25,3.01-2.2
				c0.86-0.95,1.52-2.07,2-3.38c0.47-1.31,0.71-2.75,0.71-4.33c0-1.53-0.24-2.94-0.71-4.23c-0.47-1.29-1.14-2.37-2-3.25
				c-0.86-0.88-1.86-1.57-3.01-2.06c-1.15-0.5-2.4-0.74-3.75-0.74c-1.35,0-2.62,0.25-3.79,0.74c-1.17,0.5-2.18,1.18-3.01,2.06
				c-0.83,0.88-1.49,1.96-1.96,3.25C648.74,57.69,648.5,59.1,648.5,60.63z"/>
			<path class="st4" d="M691.4,36.95h20.64c2.34,0,4.68,0.24,7,0.71c2.32,0.47,4.4,1.31,6.22,2.5c1.83,1.2,3.3,2.8,4.43,4.8
				c1.13,2.01,1.69,4.52,1.69,7.54c0,2.93-0.72,5.51-2.16,7.75s-3.51,3.96-6.21,5.18l12.15,19.42h-18.5l-9.18-17.12h-0.47v17.12
				H691.4V36.95z M706.89,57.18h3.16c0.54,0,1.13-0.04,1.78-0.14c0.65-0.09,1.25-0.28,1.81-0.57c0.56-0.29,1.03-0.7,1.41-1.22
				c0.38-0.52,0.57-1.21,0.57-2.06c0-0.86-0.16-1.53-0.47-2.03c-0.31-0.5-0.72-0.87-1.21-1.12c-0.49-0.25-1.03-0.41-1.61-0.47
				c-0.58-0.07-1.12-0.1-1.61-0.1h-3.83V57.18z"/>
			<path class="st4" d="M739.7,36.95h16.24v47.9H739.7V36.95z"/>
			<path class="st4" d="M778.2,36.95h17.12l18.67,47.9h-17.52l-2.5-7.04h-15.22l-2.37,7.04h-17.05L778.2,36.95z M786.52,53.66
				L782.6,65.5h7.78L786.52,53.66z"/>
		</g>
	</g>
</g>
</svg>
