<svg xmlns="http://www.w3.org/2000/svg" viewBox="0 0 420.81 121"><defs><style>.cls-1{fill:#017bd2;}.cls-2,.cls-5{fill:#fff;}.cls-3{font-size:33px;fill:#60dfff;}.cls-3,.cls-5{font-family:AvenirNext-Heavy, Avenir Next;font-weight:800;}.cls-4{letter-spacing:-0.03em;}.cls-5{font-size:69.03px;}.cls-6{letter-spacing:-0.01em;}.cls-7{letter-spacing:-0.03em;}.cls-8{letter-spacing:-0.02em;}</style></defs><g id="INTERFACE"><path class="cls-1" d="M420.81,111.09H366.19V87.22l9.4-7.52-12.11-1.39.74-7.36a27.94,27.94,0,0,1,3.46-11.23,26.79,26.79,0,0,1,7-7.94,27.74,27.74,0,0,1,9.14-4.57,35.91,35.91,0,0,1,18.7-.25,27.31,27.31,0,0,1,8.73,3.89A22.38,22.38,0,0,1,418,58.26a22.11,22.11,0,0,1,2.7,11,23.89,23.89,0,0,1-1.2,7.79,22.77,22.77,0,0,1-2.6,5.28h3.94ZM394.89,73.47Z"/><rect class="cls-2" x="96.14" width="225.48" height="52.03"/><text class="cls-3" transform="translate(114 38.91)">MÓDU<tspan class="cls-4" x="113.07" y="0">L</tspan><tspan x="130.2" y="0">O 1</tspan></text><path class="cls-1" d="M342.63,52l-2-5.1H312.27l-2,5.07L303,70.38V46.87H270.44v6.38a20.51,20.51,0,0,0-2.35-1.79,26,26,0,0,0-9.14-3.7,43.64,43.64,0,0,0-8.74-.89H221.16v8.88c-.43-.44-.88-.87-1.33-1.28a34,34,0,0,0-11.28-6.71,41.22,41.22,0,0,0-27,0,35.33,35.33,0,0,0-6.4,3.08v-4H118.72v.37a35.59,35.59,0,0,0-10.84-1.75,38.41,38.41,0,0,0-9.16,1.13,27.86,27.86,0,0,0-9.25,4.14c-.54.38-1,.79-1.55,1.21v-5.1H0v64.87H87.92v-2.39c1,.44,2,.86,3,1.24a38.93,38.93,0,0,0,6.91,1.89,40.72,40.72,0,0,0,7.25.64,33.59,33.59,0,0,0,9.6-1.4,28.11,28.11,0,0,0,9-4.54,24.6,24.6,0,0,0,6.83-8c.09-.16.16-.32.24-.48v13.08h32.43V94a32.3,32.3,0,0,0,7.05,9.8,33.32,33.32,0,0,0,11.27,7,40.09,40.09,0,0,0,27.16,0,34,34,0,0,0,11.28-6.92c.42-.4.84-.81,1.24-1.23v9.14H321.6l1.84-5.45.58-1.73h4.14l.66,1.86,1.89,5.32h35.23l-4.25-10.9Z"/><text class="cls-5" transform="translate(3.44 103.74)">HI<tspan class="cls-6" x="81.04" y="0">S</tspan><tspan class="cls-7" x="122.8" y="0">T</tspan><tspan x="162.14" y="0">ORI</tspan><tspan class="cls-8" x="296.12" y="0">A</tspan><tspan x="348.44" y="0" xml:space="preserve"> 2</tspan></text></g></svg>