<svg xmlns="http://www.w3.org/2000/svg" xmlns:xlink="http://www.w3.org/1999/xlink" viewBox="0 0 1920 1080"><defs><style>.cls-1{fill:none;}.cls-2{isolation:isolate;}.cls-3{clip-path:url(#clip-path);}.cls-4{fill:#a0907d;}.cls-5{fill:#8c6d3b;}.cls-5,.cls-7{opacity:0.56;}.cls-6{fill:#7e5e2b;opacity:0.55;}.cls-7{fill:#977d55;}.cls-8{fill:#93764c;}.cls-9{fill:#86663e;}.cls-10{fill:#8d6b48;}.cls-11{fill:#8c6c46;}.cls-12{fill:#937251;}.cls-13{fill:#997f56;}.cls-14{fill:#7d5737;}.cls-15{fill:#6c522e;opacity:0.33;}.cls-16{fill:#21201a;}.cls-17{fill:#726946;}.cls-18{fill:#817753;}.cls-19{fill:#685e3c;}.cls-20{fill:#5c5234;}.cls-21{fill:#2a1901;}.cls-22{fill:#412804;}.cls-23{fill:#1e1a14;}.cls-111,.cls-24{fill:#231d17;}.cls-24,.cls-39{opacity:0.58;}.cls-25{fill:#403932;}.cls-26{fill:#694818;}.cls-27{fill:#241501;}.cls-28{fill:#825b2c;}.cls-29{fill:#724f20;}.cls-30{fill:#a05b17;}.cls-31{fill:#8e4a11;}.cls-32{fill:#82400f;}.cls-33{fill:#3d3441;}.cls-34{fill:#322c36;}.cls-35{fill:#241d28;}.cls-36{fill:#74645e;}.cls-37{fill:#655652;}.cls-38{fill:#1e1517;}.cls-39,.cls-42{fill:#4d443f;}.cls-40{fill:#160c0f;}.cls-41{fill:#6c5e5e;}.cls-43{fill:#48443b;}.cls-44{fill:#1e1b14;}.cls-45{fill:#574d48;}.cls-46{fill:#49423d;}.cls-47{fill:#90806c;}.cls-48{fill:#867965;}.cls-49{fill:#343f40;}.cls-50{fill:#a06a0b;}.cls-51{fill:url(#linear-gradient);}.cls-52{fill:url(#linear-gradient-2);}.cls-53{fill:#a05104;}.cls-54{fill:#13110c;}.cls-55{fill:#83726c;opacity:0.38;}.cls-56{fill:#897b74;}.cls-57{fill:#5b4f3f;}.cls-58{fill:url(#radial-gradient);}.cls-59{fill:url(#radial-gradient-2);}.cls-60{fill:url(#radial-gradient-3);}.cls-61{fill:#413629;}.cls-62{fill:url(#linear-gradient-3);}.cls-63{fill:#65594f;}.cls-64{fill:#4b3f31;}.cls-65{fill:url(#radial-gradient-4);}.cls-66{fill:#931b03;}.cls-67{fill:#010000;}.cls-68{fill:#362f3a;}.cls-69{fill:#141116;}.cls-70{fill:#3a4444;}.cls-71{fill:#625751;opacity:0.5;}.cls-72{fill:#594d48;}.cls-73{fill:#483e4b;}.cls-74{fill:#362d3a;}.cls-75{fill:#975213;}.cls-76{fill:#904b13;}.cls-77,.cls-82{fill:#8e4d12;}.cls-77{opacity:0.31;}.cls-78{fill:#627417;}.cls-79{fill:#52690c;}.cls-80{fill:#6a821e;}.cls-81{fill:#3f5103;}.cls-83{fill:url(#linear-gradient-4);}.cls-84{fill:url(#linear-gradient-5);}.cls-85{fill:#864311;}.cls-86{fill:#4b2505;}.cls-87{fill:#825418;opacity:0.16;}.cls-88{fill:#0b1919;}.cls-89{fill:#0e1214;}.cls-90{fill:#0d3143;}.cls-91{fill:#124656;opacity:0.23;}.cls-92{fill:#072131;}.cls-93{fill:#fff;}.cls-94{fill:#227386;}.cls-95{fill:#0e566f;opacity:0.46;}.cls-96{fill:#41858c;}.cls-97{fill:#806e6b;}.cls-98{fill:#2a1608;}.cls-99{fill:#a06c35;}.cls-100{fill:#896927;}.cls-101{fill:#887963;}.cls-102{fill:#654117;}.cls-103{fill:#22485b;}.cls-104{fill:#96746b;}.cls-105{fill:#2d6f70;}.cls-106{fill:#226874;}.cls-107{fill:#7d3265;opacity:0.89;}.cls-108{fill:#a05408;}.cls-109{fill:#934804;}.cls-110{fill:#694a14;}.cls-112{fill:#90673a;}.cls-113{fill:#795024;}.cls-114{fill:#6c4520;}.cls-115{fill:#976008;}.cls-116{opacity:0.4;mix-blend-mode:multiply;fill:url(#Degradado_sin_nombre_1076);}</style><clipPath id="clip-path"><rect class="cls-1" width="1920" height="1080"/></clipPath><linearGradient id="linear-gradient" x1="1184" y1="299.28" x2="1247.2" y2="299.28" gradientUnits="userSpaceOnUse"><stop offset="0" stop-color="#a0870c"/><stop offset="1" stop-color="#a06a0b"/></linearGradient><linearGradient id="linear-gradient-2" x1="1248.68" y1="335.16" x2="1338.82" y2="317.64" xlink:href="#linear-gradient"/><radialGradient id="radial-gradient" cx="1269.58" cy="353.75" r="6.73" gradientUnits="userSpaceOnUse"><stop offset="0" stop-color="#90806c"/><stop offset="1" stop-color="#74645e"/></radialGradient><radialGradient id="radial-gradient-2" cx="1293.36" cy="353.75" r="6.73" xlink:href="#radial-gradient"/><radialGradient id="radial-gradient-3" cx="1317.14" cy="353.75" r="6.74" xlink:href="#radial-gradient"/><linearGradient id="linear-gradient-3" x1="1187.18" y1="305.11" x2="1216.14" y2="305.11" xlink:href="#radial-gradient"/><radialGradient id="radial-gradient-4" cx="1243.6" cy="520.66" r="21.7" gradientTransform="translate(22.99 -37.06) rotate(-3.33)" xlink:href="#radial-gradient"/><linearGradient id="linear-gradient-4" x1="999.17" y1="454.26" x2="1185.48" y2="454.26" gradientUnits="userSpaceOnUse"><stop offset="0" stop-color="#a06a0b"/><stop offset="1" stop-color="#a0870c"/></linearGradient><linearGradient id="linear-gradient-5" x1="984.18" y1="519.12" x2="1126.21" y2="519.12" xlink:href="#linear-gradient"/><radialGradient id="Degradado_sin_nombre_1076" cx="1393.42" cy="1169.03" r="1204.34" gradientTransform="translate(-255.28 -621.69) scale(0.91 0.67)" gradientUnits="userSpaceOnUse"><stop offset="0.36" stop-color="#fff"/><stop offset="0.45" stop-color="#fbfcfc"/><stop offset="0.53" stop-color="#f0f2f5"/><stop offset="0.61" stop-color="#dde1e7"/><stop offset="0.68" stop-color="#c2c9d5"/><stop offset="0.76" stop-color="#9faabd"/><stop offset="0.83" stop-color="#74849f"/><stop offset="0.91" stop-color="#43597d"/><stop offset="0.96" stop-color="#1d3763"/></radialGradient></defs><g class="cls-2"><g id="FONDOS"><g class="cls-3"><rect class="cls-4" x="-24" width="2848.09" height="1080"/><rect class="cls-5" x="-24" y="585.45" width="2848.09" height="494.55"/><rect class="cls-6" x="-24" y="832.96" width="2848.09" height="6.66"/><rect class="cls-6" x="-24" y="903.16" width="2848.09" height="6.66"/><rect class="cls-6" x="-24" y="984.16" width="2848.09" height="6.66"/><rect class="cls-6" x="-24" y="630.46" width="2848.09" height="6.66"/><rect class="cls-6" x="-24" y="600.76" width="2848.09" height="6.66"/><rect class="cls-6" x="-24" y="670.96" width="2848.09" height="6.66"/><rect class="cls-6" x="-24" y="714.16" width="2848.09" height="6.66"/><rect class="cls-6" x="-24" y="768.16" width="2848.09" height="6.66"/><path class="cls-7" d="M2630.46,48.94c0,10.66-13.83,19.3-30.89,19.3H1653.44c-17.06,0-30.89-8.64-30.89-19.3h0c0-10.66,13.83-19.3,30.89-19.3h946.13c17.06,0,30.89,8.64,30.89,19.3Z"/><path class="cls-8" d="M1727,101.36c-9.68,2-16.32-1.2-23.49-7.25-2-1.72-7.68-11-10.23-19.57-9.19,4-24.7,7.75-23.21,18.4,1.16,8.24,6.91,16.23,7.93,25.15,1.88,16.55-2.28,38.07-21.91,40.85,1.92,24,18.26,44.79,19.79,70.49.85,14.53-2.62,28.76-5.52,42.89-2.14,10.39-8.92,26.71.56,33.85,12.6,9.5,51.46,5.34,85.83.15C1756.72,306.32,1725,101.77,1727,101.36Zm-37.22-12.28a3.86,3.86,0,1,1,3.82-4.1A4,4,0,0,1,1689.75,89.08Z"/><path class="cls-9" d="M1723.26,106.59c-9.88.39-15.88-3.94-21.92-11.11-1.72-2-5.72-12.12-6.77-21-9.74,2.37-25.66,3.46-26,14.21-.26,8.31,4.07,17.17,3.56,26.13-.94,16.62-8.69,37.14-28.49,36.56-2.17,23.95,10.42,47.23,7.58,72.81-1.61,14.47-7.45,27.91-12.69,41.34-3.86,9.88-13.3,24.83-5.18,33.46,10.82,11.5,49.83,14,84.57,14.66C1717.93,313.63,1721.27,106.67,1723.26,106.59Zm-34.6-18.39a3.86,3.86,0,1,1,4.45-3.4A4,4,0,0,1,1688.66,88.2Z"/><path class="cls-10" d="M1724.36,103.82c-9.81,1.33-16.19-2.41-22.89-9-1.91-1.87-6.85-11.52-8.75-20.28-9.46,3.29-25.21,5.9-24.51,16.63.54,8.3,5.69,16.7,6,25.67.65,16.64-5.1,37.8-24.87,39.11.13,24.05,14.88,46,14.5,71.75-.53,36.17-20.11,71-25.13,107-2.21,15.88-8.68,43.84,3.19,55.59s68.76,14.79,104.89,10.52C1746.83,400.79,1721.51,104.2,1724.36,103.82Zm-36.2-15a3.86,3.86,0,1,1,4.1-3.8A3.94,3.94,0,0,1,1688.16,88.81Z"/><path class="cls-11" d="M1719.3,111.66c-9.83-1.18-15.06-6.4-19.89-14.44-1.38-2.29-3.73-12.87-3.37-21.82-10,.79-25.88-.64-27.91,9.92-1.56,8.17,1.31,17.6-.61,26.36-3.56,16.27-14.44,35.3-33.91,31.6-5.92,23.31,2.83,48.29-4,73.1-3.88,14-11.76,26.38-19.07,38.81-5.37,9.15-17,22.42-10.39,32.23,8.87,13.06,47,21.66,81.19,27.83C1681.32,315.25,1717.32,111.42,1719.3,111.66ZM1688,88a3.86,3.86,0,1,1,4.93-2.65A3.95,3.95,0,0,1,1688,88Z"/><path class="cls-12" d="M1720.82,109.09c-9.9-.23-15.61-4.94-21.19-12.47-1.59-2.15-4.94-12.45-5.43-21.4-9.86,1.74-25.82,1.84-26.83,12.54-.78,8.28,3,17.4,1.91,26.3-2,16.54-11,36.52-30.74,34.69-3.67,23.77,7.42,47.8,3,73.14-6.24,35.64-31.07,66.92-41.71,101.64-4.7,15.34-15.5,41.91-5.64,55.39s65.56,25.48,101.91,27C1696.08,405.89,1717.94,109,1720.82,109.09Zm-33.38-20.53a3.86,3.86,0,1,1,4.66-3.11A4,4,0,0,1,1687.44,88.56Z"/><path class="cls-13" d="M1723.79,107.07c-9.89.51-15.93-3.76-22-10.86-1.75-2-5.85-12-7-20.94-9.71,2.47-25.62,3.75-25.83,14.5-.16,8.32,4.26,17.12,3.86,26.08-.76,16.64-8.27,37.24-28.09,36.88-1.89,24,11,47.12,8.4,72.73-1.45,14.48-7.13,28-12.23,41.48-3.75,9.92-13,25-4.8,33.51,11,11.38,50,13.4,84.73,13.71C1720.77,314.16,1721.8,107.17,1723.79,107.07Zm-34.81-18a3.86,3.86,0,1,1,4.41-3.44A4,4,0,0,1,1689,89.07Z"/><path class="cls-14" d="M1692,85.84c.26-.83,0-1.15,0-1.15-2.07.08-3.8-1.5-5.13-4.69-3.74-8.9-2.6-26.37,1-29.76.69-.65,1.3-1,1.58-.85.91.4,3,3.46,2.38,23,0,1.65-.06,2.19,0,2.49l2.68-.29c0-.26,0-1,0-2.12.49-16.66-.66-24.06-4-25.55-1-.43-2.54-.54-4.55,1.36-4.62,4.39-5.55,23.37-1.6,32.77,1.92,4.59,4.52,6,6.66,6.29A2.21,2.21,0,0,0,1692,85.84Z"/><path class="cls-12" d="M1692.21,52a3.92,3.92,0,1,1-3.91-3.92A3.91,3.91,0,0,1,1692.21,52Z"/><path class="cls-12" d="M1880.12,203c-11.28-28.72-15.92-52.75-6.06-84.68-17.52-4.8-34.2-16.87-49.6-27.35a222.71,222.71,0,0,0-34.87,67.69,309.74,309.74,0,0,0-13.77,83.56c-.72,26.23-3.15,53.31-4,79.13-.78,25.31,2.2,50.39-.18,75.54,20.12,2.08,37.8,13.46,58,13.54-1.79,0,2.95-106.56,4.89-120.25,4.51-31.67,14.11-70.15,47.06-83.42C1881.11,205.45,1880.61,204.19,1880.12,203Z"/><path class="cls-10" d="M1896.2,166.55c-16.6-26-25.78-48.71-22.25-81.93-18.11-1.34-36.81-10-53.94-17.29a222.81,222.81,0,0,0-21.18,73.14,309.73,309.73,0,0,0,2.58,84.64c4.33,25.89,7.16,52.92,11.35,78.42,4.11,25,11.86,49,14.37,74.16,20.14-1.84,39.68,5.93,59.5,2.12-1.77.34-17.62-105.13-18.35-118.93-1.68-31.95.34-71.56,30.12-90.93C1897.65,168.81,1896.92,167.68,1896.2,166.55Z"/><path class="cls-13" d="M1885.93,174c-13.47-27.77-20-51.37-12.61-84-17.83-3.43-35.4-14.17-51.57-23.43a223.19,223.19,0,0,0-29.52,70.2,309.91,309.91,0,0,0-7.24,84.37c1.31,26.21,1,53.4,2.19,79.2,1.19,25.3,6.1,50.08,5.68,75.33,20.22.51,38.73,10.49,58.86,9-1.8.13-5.33-106.46-4.45-120.26,2-31.93,8.63-71,40.45-86.82C1887.11,176.4,1886.51,175.19,1885.93,174Z"/><path class="cls-14" d="M1823.21,82.89c-1.92,0-4.48-1-6.3-5.25-3.83-9-2.36-29.29,2.45-33.85,2-1.91,3.59-1.79,4.55-1.37,3.31,1.49,4.47,8.89,4,25.55,0,1.1-.07,1.87-.05,2.12l-2.68.29a23.38,23.38,0,0,1,0-2.49c.57-19.54-1.47-22.59-2.38-23-.29-.13-.9.2-1.59.85-3.75,3.56-5.45,22.29-1.82,30.84,1,2.46,2.39,3.69,3.94,3.61l.11,2.7Z"/><path class="cls-12" d="M1825.28,47.43a3.92,3.92,0,1,1-3.91-3.92A3.92,3.92,0,0,1,1825.28,47.43Z"/><path class="cls-12" d="M1901.5,385.18c35.76,6.64,92.74,7.34,105.35-3.6s8-39.27,6.83-55.27c-2.64-36.22-19.89-72.23-18-108.37,1.31-25.7,17.48-46.65,19.19-70.64-19.65-2.61-24-24.09-22.25-40.66.94-8.92,6.63-17,7.72-25.22,1.39-10.65-14.14-14.3-23.37-18.19-2.47,8.61-8,17.91-10.06,19.65-7.12,6.11-13.73,9.42-23.43,7.44C1946.24,90.9,1901.5,385.18,1901.5,385.18Zm75.19-311.51a4.06,4.06,0,1,1,3.85,4.06A4,4,0,0,1,1976.69,73.67Z"/><path class="cls-10" d="M1910,166.55c16.6-26,25.78-48.7,22.25-81.92,18.12-1.35,36.81-10,53.94-17.3a223.14,223.14,0,0,1,21.19,73.14,309.73,309.73,0,0,1-2.58,84.64c-4.34,25.89-7.17,52.92-11.36,78.42-4.1,25-11.85,49-14.36,74.16-20.14-1.84-39.69,5.93-59.51,2.12,1.77.34,17.63-105.13,18.35-118.93,1.68-31.95-.33-71.56-30.11-90.93C1908.56,168.81,1909.29,167.68,1910,166.55Z"/><path class="cls-13" d="M1920.28,174c13.48-27.77,20-51.37,12.62-84,17.83-3.43,35.4-14.17,51.57-23.42A223,223,0,0,1,2014,136.8a309.52,309.52,0,0,1,7.24,84.37c-1.31,26.21-1,53.4-2.19,79.2-1.18,25.3-6.1,50.08-5.68,75.33-20.21.51-38.72,10.49-58.85,9,1.79.13,5.32-106.46,4.44-120.26-2-31.93-8.62-71-40.45-86.82C1919.1,176.4,1919.7,175.19,1920.28,174Z"/><path class="cls-7" d="M765.46,48.94c0,10.66-13.83,19.3-30.89,19.3H-211.56c-17.06,0-30.89-8.64-30.89-19.3h0c0-10.66,13.83-19.3,30.89-19.3H734.57c17.06,0,30.89,8.64,30.89,19.3Z"/><path class="cls-12" d="M15.12,203C3.84,174.23-.8,150.2,9.06,118.27c-17.52-4.8-34.2-16.87-49.6-27.35a222.71,222.71,0,0,0-34.87,67.69,309.74,309.74,0,0,0-13.77,83.56c-.72,26.23-3.15,53.31-3.95,79.13-.78,25.31,2.2,50.39-.18,75.54,20.12,2.08,37.8,13.46,58,13.54-1.79,0,2.95-106.56,4.89-120.25,4.51-31.67,14.11-70.15,47.06-83.42C16.11,205.45,15.61,204.19,15.12,203Z"/><path class="cls-10" d="M31.2,166.55C14.6,140.53,5.42,117.84,9,84.62-9.16,83.28-27.86,74.65-45,67.33a222.81,222.81,0,0,0-21.18,73.14,309.73,309.73,0,0,0,2.58,84.64C-59.26,251-56.43,278-52.24,303.53c4.11,25,11.86,49,14.37,74.16,20.14-1.84,39.68,5.93,59.5,2.12C19.86,380.15,4,274.68,3.28,260.88,1.6,228.93,3.62,189.32,33.4,170,32.65,168.81,31.92,167.68,31.2,166.55Z"/><path class="cls-13" d="M20.93,174C7.46,146.22,1,122.62,8.32,90-9.51,86.6-27.08,75.86-43.25,66.6a223.19,223.19,0,0,0-29.52,70.2A309.91,309.91,0,0,0-80,221.17c1.31,26.21,1,53.4,2.19,79.2,1.19,25.3,6.1,50.08,5.68,75.33,20.22.51,38.73,10.49,58.86,9-1.8.13-5.33-106.46-4.45-120.26,2-31.93,8.63-71,40.45-86.82C22.11,176.4,21.51,175.19,20.93,174Z"/><path class="cls-8" d="M195.69,306.32c34.36,5.19,73.22,9.35,85.82-.15,9.48-7.14,2.7-23.46.57-33.85-2.9-14.13-6.38-28.36-5.52-42.89,1.52-25.7,17.86-46.52,19.78-70.49-19.63-2.78-23.79-24.3-21.91-40.85,1-8.92,6.78-16.91,7.93-25.15,1.49-10.65-14-14.42-23.21-18.4-2.55,8.59-8.19,17.85-10.23,19.57-7.16,6-13.81,9.3-23.48,7.25C227.38,101.77,195.69,306.32,195.69,306.32ZM258.83,85a4.06,4.06,0,1,1,3.82,4.1A4,4,0,0,1,258.83,85Z"/><path class="cls-9" d="M234.47,313.63c34.75-.69,73.75-3.16,84.57-14.66,8.13-8.63-1.31-23.58-5.17-33.46-5.25-13.43-11.08-26.87-12.69-41.34-2.85-25.58,9.74-48.86,7.58-72.81-19.81.58-27.56-19.94-28.5-36.56-.51-9,3.82-17.82,3.56-26.13-.33-10.75-16.25-11.84-26-14.21-1.06,8.9-5,19-6.78,21-6,7.17-12,11.5-21.92,11.11C231.13,106.67,234.47,313.63,234.47,313.63ZM259.29,84.8a4.06,4.06,0,1,1,4.45,3.4A4,4,0,0,1,259.29,84.8Z"/><path class="cls-10" d="M205.58,400.79c36.12,4.27,93,1.23,104.88-10.52s5.4-39.71,3.19-55.59c-5-36-24.6-70.78-25.13-107C288.14,202,302.89,180,303,156c-19.77-1.31-25.52-22.47-24.87-39.11.35-9,5.5-17.37,6-25.67.7-10.73-15-13.34-24.51-16.63-1.9,8.76-6.84,18.41-8.74,20.28-6.7,6.56-13.09,10.3-22.89,9C230.89,104.2,205.58,400.79,205.58,400.79ZM260.14,85a4.06,4.06,0,1,1,4.11,3.8A4,4,0,0,1,260.14,85Z"/><path class="cls-11" d="M271.08,315.25c34.2-6.17,72.33-14.77,81.19-27.83,6.66-9.81-5-23.08-10.39-32.23-7.31-12.43-15.19-24.78-19.07-38.81-6.85-24.81,1.9-49.79-4-73.1-19.47,3.7-30.35-15.33-33.91-31.6-1.92-8.76.95-18.19-.61-26.36-2-10.56-17.92-9.13-27.91-9.92.36,8.95-2,19.53-3.36,21.82-4.84,8-10.07,13.26-19.9,14.44C235.08,111.42,271.08,315.25,271.08,315.25ZM259.43,85.38A4.06,4.06,0,1,1,264.36,88,4,4,0,0,1,259.43,85.38Z"/><path class="cls-12" d="M256.32,405.89c36.35-1.49,92.05-13.49,101.91-27s-.94-40.05-5.64-55.39c-10.63-34.72-35.46-66-41.71-101.64-4.44-25.34,6.65-49.37,3-73.14-19.74,1.83-28.76-18.15-30.75-34.69-1.06-8.9,2.69-18,1.92-26.3-1-10.7-17-10.8-26.84-12.54-.49,9-3.84,19.25-5.43,21.4-5.58,7.53-11.29,12.24-21.19,12.47C234.46,109,256.32,405.89,256.32,405.89Zm4-320.44A4.06,4.06,0,1,1,265,88.56,4,4,0,0,1,260.31,85.45Z"/><path class="cls-13" d="M231.63,314.16c34.75-.31,73.78-2.33,84.73-13.71,8.22-8.54-1.05-23.59-4.8-33.51-5.09-13.49-10.78-27-12.23-41.48-2.55-25.61,10.3-48.75,8.4-72.73-19.81.36-27.33-20.24-28.08-36.88-.41-9,4-17.76,3.85-26.08-.21-10.75-16.12-12-25.83-14.5-1.15,8.89-5.26,18.92-7,20.94-6.13,7.1-12.17,11.37-22,10.86C230.61,107.17,231.63,314.16,231.63,314.16ZM259,85.63a4.06,4.06,0,1,1,4.41,3.44A4,4,0,0,1,259,85.63Z"/><path class="cls-14" d="M260.4,85.84c-.26-.83,0-1.15,0-1.15,2.07.08,3.8-1.5,5.14-4.69,3.73-8.9,2.59-26.37-1-29.76-.69-.65-1.29-1-1.58-.85-.91.4-3,3.46-2.38,23,.05,1.65.06,2.19,0,2.49l-2.69-.29c0-.26,0-1,0-2.12-.49-16.66.66-24.06,4-25.55,1-.43,2.53-.54,4.54,1.36,4.62,4.39,5.55,23.37,1.61,32.77-1.93,4.59-4.53,6-6.67,6.29A2.28,2.28,0,0,1,260.4,85.84Z"/><path class="cls-12" d="M260.19,52a3.92,3.92,0,1,0,3.92-3.92A3.91,3.91,0,0,0,260.19,52Z"/><path class="cls-12" d="M36.5,385.18c35.76,6.64,92.74,7.34,105.35-3.6s8-39.27,6.83-55.27c-2.64-36.22-19.89-72.23-18.05-108.37,1.31-25.7,17.48-46.65,19.19-70.64-19.65-2.61-24-24.09-22.25-40.66.94-8.92,6.63-17,7.72-25.22,1.39-10.65-14.14-14.3-23.37-18.19-2.47,8.61-8,17.91-10.06,19.65C94.74,89,88.13,92.3,78.43,90.32,81.24,90.9,36.5,385.18,36.5,385.18ZM111.69,73.67a4.06,4.06,0,1,1,3.85,4.06A4,4,0,0,1,111.69,73.67Z"/><path class="cls-13" d="M61.09,203C72.37,174.23,77,150.2,67.16,118.28c17.51-4.81,34.19-16.88,49.6-27.36a223.21,223.21,0,0,1,34.87,67.7,310,310,0,0,1,13.76,83.55c.72,26.23,3.15,53.31,4,79.13.78,25.31-2.19,50.39.18,75.54-20.11,2.08-37.8,13.46-58,13.54,1.8,0-3-106.56-4.89-120.25-4.5-31.67-14.11-70.15-47.06-83.42C60.1,205.45,60.6,204.19,61.09,203Z"/><path class="cls-10" d="M45,166.55c16.6-26,25.78-48.7,22.25-81.92,18.12-1.35,36.81-10,53.94-17.3a223.14,223.14,0,0,1,21.19,73.14,309.73,309.73,0,0,1-2.58,84.64c-4.34,25.89-7.17,52.92-11.36,78.42-4.1,25-11.85,49-14.36,74.16-20.14-1.84-39.69,5.93-59.51,2.12,1.77.34,17.63-105.13,18.35-118.93,1.68-31.95-.33-71.56-30.11-90.93C43.56,168.81,44.29,167.68,45,166.55Z"/><path class="cls-13" d="M55.28,174c13.48-27.77,20-51.37,12.62-84,17.83-3.43,35.4-14.17,51.57-23.42A223,223,0,0,1,149,136.8a309.52,309.52,0,0,1,7.24,84.37c-1.31,26.21-1,53.4-2.19,79.2-1.18,25.3-6.1,50.08-5.68,75.33-20.21.51-38.72,10.49-58.85,9,1.79.13,5.32-106.46,4.44-120.26-2-31.93-8.62-71-40.45-86.82C54.1,176.4,54.7,175.19,55.28,174Z"/><path class="cls-8" d="M93.1,311.93c34.74-.9,73.73-3.59,84.48-15.15,8.08-8.68-1.45-23.57-5.36-33.43C166.9,250,161,236.55,159.29,222.09c-3-25.56,9.46-48.92,7.16-72.86-19.81.69-27.67-19.77-28.71-36.4-.56-9,3.71-17.83,3.41-26.14-.39-10.75-16.32-11.75-26.07-14.06-1,8.9-4.94,19-6.65,21.06-6,7.2-12,11.57-21.86,11.23C88.56,105,93.1,311.93,93.1,311.93ZM116.6,83a4.06,4.06,0,1,1,4.46,3.37A3.95,3.95,0,0,1,116.6,83Z"/><path class="cls-14" d="M121.85,43.79c-2-1.91-3.58-1.79-4.54-1.36-3.32,1.48-4.47,8.88-4,25.54,0,1.11.06,1.87,0,2.12l.85.09,1.57-.89.27-.19c0-.33,0-.7,0-1.21-.58-19.54,1.47-22.59,2.38-23,.28-.13.89.2,1.58.85,3.75,3.57,5.45,22.29,1.83,30.85-1,2.46-2.4,3.68-3.95,3.6l-.11,2.7H118c1.92,0,4.48-1,6.3-5.26C128.13,68.6,126.66,48.36,121.85,43.79Z"/><path class="cls-12" d="M115.93,47.43a3.92,3.92,0,1,0,3.92-3.92A3.92,3.92,0,0,0,115.93,47.43Z"/><path class="cls-12" d="M445.1,206.17c-11.28-28.73-15.92-52.76-6.06-84.68-17.52-4.81-34.2-16.88-49.6-27.36a223.21,223.21,0,0,0-34.87,67.7,309.26,309.26,0,0,0-13.76,83.55c-.73,26.23-3.16,53.31-4,79.13-.78,25.31,2.2,50.4-.17,75.54,20.11,2.08,37.79,13.46,58,13.54-1.8,0,2.94-106.55,4.89-120.24,4.5-31.68,14.1-70.16,47.05-83.43C446.09,208.66,445.59,207.4,445.1,206.17Z"/><path class="cls-10" d="M461.19,169.77c-16.61-26-25.79-48.71-22.26-81.93-18.11-1.35-36.8-10-53.94-17.3a223.12,223.12,0,0,0-21.18,73.14,309.72,309.72,0,0,0,2.58,84.64c4.34,25.89,7.17,52.92,11.35,78.42,4.11,25,11.86,49,14.37,74.16,20.14-1.84,39.68,5.93,59.5,2.12-1.77.34-17.62-105.13-18.35-118.93-1.68-31.95.34-71.56,30.12-90.93C462.64,172,461.9,170.89,461.19,169.77Z"/><path class="cls-13" d="M450.91,177.2c-13.47-27.76-20-51.37-12.61-83.95-17.83-3.44-35.4-14.18-51.57-23.43A223,223,0,0,0,357.21,140,309.94,309.94,0,0,0,350,224.38c1.31,26.21,1,53.4,2.2,79.2,1.18,25.3,6.09,50.08,5.68,75.33,20.21.51,38.72,10.49,58.85,9-1.79.13-5.33-106.46-4.45-120.26,2-31.93,8.63-71,40.45-86.82C452.09,179.61,451.5,178.4,450.91,177.2Z"/><path class="cls-14" d="M388.19,86.11c-1.91,0-4.47-1-6.3-5.26-3.82-9-2.36-29.28,2.46-33.85,2-1.9,3.58-1.79,4.54-1.36,3.32,1.48,4.47,8.88,4,25.54,0,1.11-.06,1.87,0,2.12l-2.69.3a23.59,23.59,0,0,1,0-2.5c.58-19.54-1.47-22.59-2.38-23-.29-.13-.89.2-1.58.86-3.75,3.56-5.46,22.28-1.83,30.84,1,2.46,2.39,3.68,3.94,3.6l.12,2.7Z"/><path class="cls-12" d="M390.27,50.64a3.92,3.92,0,1,1-3.92-3.92A3.92,3.92,0,0,1,390.27,50.64Z"/><path class="cls-8" d="M625.67,309.53c34.36,5.19,73.22,9.36,85.83-.15,9.47-7.14,2.69-23.46.56-33.85-2.9-14.12-6.38-28.36-5.52-42.89,1.52-25.69,17.86-46.52,19.78-70.49-19.62-2.78-23.79-24.3-21.9-40.85,1-8.91,6.77-16.91,7.92-25.15,1.5-10.65-14-14.42-23.21-18.4C686.59,86.34,681,95.6,678.9,97.32c-7.16,6.05-13.81,9.31-23.48,7.25C657.37,105,625.67,309.53,625.67,309.53ZM688.82,88.2a4.06,4.06,0,1,1,3.81,4.09A4,4,0,0,1,688.82,88.2Z"/><path class="cls-9" d="M664.45,316.84c34.75-.69,73.75-3.15,84.57-14.66,8.13-8.63-1.31-23.58-5.17-33.46-5.25-13.43-11.08-26.86-12.69-41.34-2.85-25.58,9.74-48.86,7.58-72.81-19.81.58-27.55-19.93-28.5-36.56-.5-9,3.82-17.81,3.57-26.13-.33-10.75-16.26-11.84-26-14.21-1.06,8.9-5.05,19-6.77,21-6,7.17-12,11.5-21.93,11.11C661.11,109.88,664.45,316.84,664.45,316.84ZM689.27,88a4.06,4.06,0,1,1,4.45,3.39A4,4,0,0,1,689.27,88Z"/><path class="cls-10" d="M635.56,404c36.12,4.28,93,1.23,104.88-10.52s5.41-39.71,3.19-55.59c-5-36-24.59-70.77-25.13-106.95-.38-25.73,14.37-47.7,14.51-71.75-19.78-1.31-25.53-22.47-24.87-39.11.35-9,5.5-17.37,6-25.67.69-10.73-15-13.34-24.51-16.62-1.91,8.75-6.84,18.4-8.75,20.27-6.7,6.56-13.08,10.3-22.89,9C660.88,107.41,635.56,404,635.56,404ZM690.13,88.22a4.06,4.06,0,1,1,4.1,3.81A4,4,0,0,1,690.13,88.22Z"/><path class="cls-11" d="M701.06,318.46c34.2-6.17,72.33-14.77,81.19-27.83,6.67-9.81-5-23.08-10.39-32.23-7.3-12.43-15.19-24.78-19.06-38.81-6.85-24.8,1.9-49.79-4-73.1-19.47,3.71-30.36-15.32-33.92-31.59-1.92-8.77,1-18.2-.61-26.37-2-10.55-17.92-9.13-27.9-9.92.36,9-2,19.54-3.37,21.83-4.83,8-10.07,13.25-19.9,14.43C665.06,114.63,701.06,318.46,701.06,318.46ZM689.41,88.59a4.06,4.06,0,1,1,4.94,2.65A4,4,0,0,1,689.41,88.59Z"/><path class="cls-12" d="M686.31,409.1c36.34-1.49,92-13.49,101.9-27s-.94-40.06-5.63-55.4c-10.64-34.72-35.47-66-41.72-101.64-4.44-25.34,6.65-49.37,3-73.13-19.74,1.82-28.76-18.16-30.74-34.7-1.07-8.9,2.68-18,1.91-26.3-1-10.7-17-10.8-26.83-12.54-.5,8.95-3.85,19.26-5.44,21.4-5.58,7.54-11.29,12.24-21.18,12.47C664.44,112.23,686.31,409.1,686.31,409.1Zm4-320.44a4.06,4.06,0,1,1,4.65,3.11A4,4,0,0,1,690.29,88.66Z"/><path class="cls-13" d="M661.61,317.37c34.76-.3,73.78-2.32,84.73-13.7,8.23-8.55-1.05-23.6-4.8-33.52-5.09-13.49-10.77-27-12.22-41.48-2.56-25.61,10.29-48.75,8.39-72.73-19.81.36-27.33-20.24-28.08-36.87-.41-9,4-17.77,3.85-26.09-.21-10.75-16.12-12-25.83-14.5-1.15,8.89-5.26,18.92-7,20.94-6.12,7.1-12.17,11.37-22,10.87C660.59,110.39,661.61,317.37,661.61,317.37ZM689,88.84a4.06,4.06,0,1,1,4.42,3.45A4,4,0,0,1,689,88.84Z"/><path class="cls-14" d="M690.38,89.05c-.25-.83,0-1.14,0-1.14,2.07.07,3.8-1.51,5.14-4.7,3.74-8.89,2.6-26.36-1-29.76-.69-.65-1.29-1-1.58-.85-.91.41-3,3.46-2.38,23,.05,1.66.06,2.19,0,2.49l-2.68-.29c0-.25,0-1,0-2.12-.49-16.66.66-24.06,4-25.55,1-.43,2.53-.54,4.54,1.37,4.62,4.38,5.55,23.36,1.61,32.76-1.93,4.59-4.53,6-6.66,6.29A2.23,2.23,0,0,1,690.38,89.05Z"/><path class="cls-12" d="M690.17,55.25a3.92,3.92,0,1,0,3.92-3.92A3.92,3.92,0,0,0,690.17,55.25Z"/><path class="cls-12" d="M466.48,388.39c35.77,6.64,92.74,7.34,105.35-3.6s8-39.27,6.84-55.27c-2.65-36.22-19.9-72.23-18-108.37,1.31-25.69,17.47-46.65,19.18-70.63-19.64-2.61-24-24.1-22.25-40.67.94-8.92,6.63-17,7.72-25.21,1.4-10.66-14.14-14.31-23.37-18.2-2.47,8.61-8,17.92-10.06,19.65-7.12,6.11-13.73,9.42-23.43,7.45C511.23,94.11,466.48,388.39,466.48,388.39ZM541.67,76.88A4.06,4.06,0,1,1,545.52,81,4,4,0,0,1,541.67,76.88Z"/><path class="cls-13" d="M491.08,206.17c11.27-28.73,15.92-52.76,6.06-84.68,17.51-4.81,34.2-16.88,49.6-27.36a223.21,223.21,0,0,1,34.87,67.7,309.65,309.65,0,0,1,13.76,83.55c.73,26.23,3.16,53.31,4,79.13.79,25.31-2.19,50.4.18,75.54-20.11,2.08-37.79,13.46-58,13.54,1.8,0-2.94-106.55-4.89-120.24-4.5-31.68-14.1-70.16-47.06-83.43C490.09,208.66,490.59,207.4,491.08,206.17Z"/><path class="cls-10" d="M475,169.77c16.6-26,25.79-48.71,22.25-81.93,18.12-1.34,36.81-10,53.94-17.3a223.12,223.12,0,0,1,21.19,73.15,309.66,309.66,0,0,1-2.58,84.63c-4.34,25.89-7.17,52.92-11.36,78.42-4.1,25-11.85,49-14.36,74.16-20.14-1.84-39.68,5.93-59.51,2.12,1.77.34,17.63-105.13,18.35-118.93,1.69-31.95-.33-71.56-30.11-90.93C473.54,172,474.27,170.89,475,169.77Z"/><path class="cls-13" d="M485.26,177.2c13.48-27.76,20-51.36,12.62-83.95,17.83-3.44,35.4-14.18,51.57-23.43A223,223,0,0,1,579,140a309.84,309.84,0,0,1,7.25,84.36c-1.31,26.21-1,53.4-2.2,79.2-1.18,25.3-6.09,50.08-5.68,75.33-20.21.51-38.72,10.49-58.85,9,1.79.13,5.32-106.46,4.45-120.26-2-31.93-8.63-71-40.45-86.82C484.09,179.61,484.68,178.41,485.26,177.2Z"/><path class="cls-8" d="M523.08,315.14c34.74-.9,73.74-3.58,84.49-15.14,8.07-8.69-1.45-23.58-5.37-33.44-5.32-13.39-11.24-26.8-12.93-41.26-3-25.56,9.46-48.92,7.16-72.86-19.81.69-27.67-19.77-28.71-36.4-.55-9,3.72-17.83,3.41-26.14-.39-10.75-16.32-11.75-26.07-14.06-1,8.91-4.94,19-6.65,21.06-6,7.2-12,11.57-21.86,11.23C518.54,108.2,523.08,315.14,523.08,315.14Zm23.5-229a4.06,4.06,0,1,1,4.47,3.37A4,4,0,0,1,546.58,86.18Z"/><path class="cls-14" d="M551.83,47c-2-1.9-3.58-1.79-4.54-1.36-3.32,1.48-4.47,8.88-4,25.54,0,1.11.06,1.87,0,2.12l.85.1,1.57-.9.27-.19c0-.32,0-.7,0-1.21-.58-19.54,1.47-22.59,2.38-23,.29-.13.89.2,1.58.86,3.75,3.56,5.45,22.28,1.83,30.84-1,2.46-2.39,3.68-3.94,3.6l-.12,2.7H548c1.91,0,4.47-1,6.3-5.26C558.11,71.82,556.65,51.57,551.83,47Z"/><path class="cls-12" d="M545.91,50.64a3.92,3.92,0,1,0,3.92-3.91A3.92,3.92,0,0,0,545.91,50.64Z"/><path class="cls-15" d="M890.55,679.8l2.5,0c45.82-.58,107.51,14.85,151.2,0,27.21-9.25-1-43.4-15.19-50.64-23.77-12.16-70.66-14-97.21-10.93-22.91,2.63-56.58,11.22-73.45,27.82C824,679.9,864.25,680.11,890.55,679.8Z"/><path class="cls-15" d="M1200.85,837.67c-40.4-1.19-81.26-11.35-121.68-8.75-31.61,2-101.13,32.89-115.49,62.47-24.53,50.5,112.82,27.28,140,27.28,44.8,0,230.39-2.85,275.13-.59,76.57,3.87,84.24-12.91,116.68-66,24.11-39.48-128.46-11.69-152.25-11.69C1295.83,840.37,1248.25,839.06,1200.85,837.67Z"/><path class="cls-15" d="M1727.57,1017.39a11.26,11.26,0,0,0,0,1.29c2.48,27.52,72.85,10.2,88.84,9.39,34-1.73,67.84,8.22,101.83,5.09,15.11-1.39,92.59-24.2,56.6-46.63-24-14.95-83.22,3.58-110,6.3C1845.58,994.79,1728.42,988.88,1727.57,1017.39Z"/><path class="cls-16" d="M793.94,506.78c.1-11,3.42-35.14-7.09-39.72-11.88-5.17-8.89,13.34-8.9,22-.08,46.85,2.06,94.56-9,140.13a224.59,224.59,0,0,1-11.79,35.21c-2.19,5.05-6.41,10.45-3.65,16,2.63,5.27,10.24,3.93,13.53.93,15.71-14.35,18.76-55.85,21.15-77.45,3.2-28.93,5.75-59.07,5.7-88.84C793.9,512.21,793.92,509.47,793.94,506.78Z"/><path class="cls-16" d="M933.05,506.78c-.09-11-3.41-35.14,7.1-39.72,11.87-5.17,8.88,13.34,8.89,22,.08,46.85-2.06,94.56,9,140.13a223.59,223.59,0,0,0,11.8,35.21c2.18,5.05,6.4,10.45,3.64,16-2.63,5.27-10.24,3.93-13.53.93C944.22,667,941.17,625.5,938.79,603.9c-3.2-28.93-5.75-59.07-5.7-88.84C933.09,512.21,933.07,509.47,933.05,506.78Z"/><path class="cls-16" d="M830.56,465.67c.1-11,3.42-35.14-7.09-39.72-11.88-5.17-8.89,13.33-8.9,22-.08,46.85,2.06,94.56-9,140.13a225,225,0,0,1-11.8,35.21c-2.19,5-6.41,10.44-3.64,16,2.62,5.28,10.23,3.94,13.52.93,15.71-14.34,18.76-55.84,21.15-77.44,3.2-28.93,5.75-59.07,5.7-88.85C830.52,471.09,830.54,468.35,830.56,465.67Z"/><path class="cls-16" d="M895.24,465.67c-.09-11-3.41-35.14,7.1-39.72,11.87-5.17,8.88,13.33,8.89,22,.08,46.85-2.06,94.56,9,140.13A223.93,223.93,0,0,0,932,623.31c2.18,5,6.4,10.44,3.64,16-2.63,5.28-10.24,3.94-13.53.93-15.71-14.34-18.76-55.84-21.15-77.44-3.2-28.93-5.74-59.07-5.7-88.85C895.28,471.09,895.26,468.35,895.24,465.67Z"/><path class="cls-16" d="M817.23,428.74c.91,1.13,2.32,1.67,4.58,1.2,5.19-1.1,5-6.46,5.19-10.71.24-5.68-1.52-11.09-2.08-16.69-.6-6-1.59-11.94-2.32-17.9-1.14-9.38-2.16-18.79-5.06-27.73-1.26-3.88-2.89-11.81-8.71-9.07-3.56,1.68-3.6,6.38-3.43,9.62.41,7.77,3.49,15,4.91,22.52.88,4.68,1.32,9.44,2.05,14.2a154.8,154.8,0,0,1,2.08,19.92C814.54,418.14,814.59,425.48,817.23,428.74Z"/><path class="cls-16" d="M912.24,428.74c-.91,1.13-2.32,1.67-4.58,1.2-5.2-1.1-5-6.46-5.19-10.71-.25-5.68,1.52-11.09,2.07-16.69.6-6,1.59-11.94,2.32-17.9,1.15-9.38,2.16-18.79,5.06-27.73,1.26-3.88,2.9-11.81,8.71-9.07,3.56,1.68,3.6,6.38,3.43,9.62-.41,7.77-3.48,15-4.91,22.52-.88,4.68-1.31,9.44-2,14.2A154.8,154.8,0,0,0,915,414.1C914.92,418.14,914.87,425.48,912.24,428.74Z"/><path class="cls-17" d="M830.9,370.4c8.73.18,17.4-.14,25,.33,23.17,1.42,54.12,3,73.78-12.06,21.3-16.38,69-93.83,26.55-110.35-25-9.74-56.34-9.8-83.13-12.38-35.15-3.37-66.45-.07-100,10.55-25.65,8.12-15.54,25.55-12,44.5,4.64,24.69,8.78,43.12,25.41,63.83C797.06,367.9,814.11,370.06,830.9,370.4Z"/><path class="cls-18" d="M774.54,289.64c4.71,9.32,14.66,17.43,22.2,21.14,30.77,15.16,105.53,23.41,118-20.67,11-39.14-40.18-37-63.68-36.42-19.93.51-64.45-3.24-76.54,16.31C770.54,276.44,771.34,283.32,774.54,289.64Z"/><path class="cls-19" d="M956.27,248.32c-11.42-4.45-24.15-6.87-37.16-8.44,8.58,4.86,16.11,11.48,20,20.86,6.83,16.45,0,34.26-10.44,47.58-40.27,51.22-120.38,44.56-163.71,1,3.88,16.2,9.35,30.23,21.6,45.48,10.5,13.08,27.55,15.24,44.34,15.58,8.73.18,17.4-.14,25,.33,23.17,1.42,54.12,3,73.78-12.06C951,342.29,998.7,264.84,956.27,248.32Z"/><path class="cls-20" d="M956.27,248.32A108.27,108.27,0,0,0,945,244.67a62.51,62.51,0,0,1,12,21c10.82,33.31-16.29,68.81-44.8,83.7-42.76,22.33-114.94,14-143.91-28.18a102.67,102.67,0,0,0,18.28,33.6c10.5,13.08,27.55,15.24,44.34,15.58,8.73.18,17.4-.14,25,.33,23.17,1.42,54.12,3,73.78-12.06C951,342.29,998.7,264.84,956.27,248.32Z"/><path class="cls-17" d="M978.72,460.83c0,23.73-51,43-114,43s-114-19.24-114-43,51-43,114-43S978.72,437.09,978.72,460.83Z"/><path class="cls-19" d="M940.77,428.81c5.35,10.64.86,24.12-11.92,29.7a106.43,106.43,0,0,1-39.67,8.34c-27.68.62-56.44-1.09-83.56-6.72-11.16-2.32-25.59-5.34-33.68-14.15a21.77,21.77,0,0,1-4.63-7.48c-10.51,6.51-16.57,14.15-16.57,22.33,0,23.73,51,43,114,43s114-19.24,114-43C978.72,448.11,964.06,436.68,940.77,428.81Z"/><path class="cls-20" d="M969.08,443.53c.17,5.42-1.6,11.19-6,17.27C950,478.91,923.85,486.21,902.61,487h-.11c-7.12,1.39-14.24,2.32-21,3-32.44,3.09-68.64-1.37-98.85-13.64-11.24-4.56-23.72-10.29-31.19-20.24a16.91,16.91,0,0,0-.7,4.72c0,23.73,51,43,114,43s114-19.24,114-43C978.72,454.67,975.27,448.82,969.08,443.53Z"/><path class="cls-18" d="M845.14,439.5a151.44,151.44,0,0,1,30.28-1.29c9.86.5,39.79,11.76,48.08,3.56,7-7.1-14.16-11.41-17.83-12.19-32.3-6.77-74.3-9.18-105.48,3.7-7.31,3-17.47,7.66-9.36,16.08,9.9,10.28,26.24-1.75,36-5.3A96.38,96.38,0,0,1,845.14,439.5Z"/><path class="cls-21" d="M985.45,978.18c19.09-6.55,24.61-39.59-1.7-44.2C945.89,927.34,955,988.6,985.45,978.18Z"/><path class="cls-21" d="M1481.72,978.18c19.09-6.55,24.61-39.59-1.7-44.2C1442.16,927.34,1451.31,988.6,1481.72,978.18Z"/><path class="cls-22" d="M1110.31,894.61c14.18-16,31.25-18.42,51.53-18.42h48c27.64,0,55.27,1,82.91,1.74,26.16.66,51.49-2.06,77.62-.78,7.6.37,19.4.85,26.64,5.06,2.8-16.5-20.46-17.38-32.76-18-26.12-1.27-51.45,1.44-77.61.78-27.64-.69-55.27-1.74-82.91-1.74h-48c-20.28,0-37.35,2.48-51.53,18.42-6.92,7.78-26.25,22.28-16,32.3.26.24.29,1,.57,1.27a29.35,29.35,0,0,0,3.57,2C1095,909.23,1105.53,900,1110.31,894.61Z"/><path class="cls-23" d="M1354.77,884c27.19,1.24,43.23,21.06,59,40.81-16,7.51-40.37.72-57.86,2.4a544.09,544.09,0,0,1-75.09,2.08c-22.31-1-44.77-.18-67-1.7-17.25-1.18-37,.91-53.69-4.72s-31.74-17.43-44.56-29.26c-5.41-5-2.55-11.65,12.42-12.07C1152.29,880.88,1326,882.71,1354.77,884Z"/><path class="cls-24" d="M1152.73,909.86c9.18-9.18,24.09-11.58,36.53-10.69,25.19,1.81,50.41,3.92,75.68,4.15,42.07.38,83.14,2.56,118.06,24.76,11.11.69,22.19.81,30.82-3.24-15.82-19.75-31.86-39.57-59-40.81-28.74-1.32-202.48-3.15-226.77-2.46-15,.42-17.83,7.08-12.42,12.07,9.49,8.76,20.27,17.52,32,23.75A24.54,24.54,0,0,1,1152.73,909.86Z"/><path class="cls-24" d="M1128.17,904.45c17.74-12.94,43.33-8.57,63.68-9.14,32.9-.92,79.7-.21,112.55,2.66,37.89,3.3,73.19,1.95,99.59,29.72a36.09,36.09,0,0,0,9.83-2.85c-15.82-19.75-31.86-39.57-59-40.81-28.74-1.32-202.48-3.15-226.77-2.46-15,.42-17.83,7.08-12.42,12.07C1119.56,897.31,1123.77,901,1128.17,904.45Z"/><path class="cls-25" d="M1117.49,895.38a17.38,17.38,0,0,1,6.78-2.59c25.57-3.94,51.1-1.3,76.83-.53,25.05.75,49.91,1,75,.45,23.52-.52,57.66-.71,81.07,1.81,22.39,2.4,29.69,12.78,47.06,26.55a17.52,17.52,0,0,1,4.6,5.58,32.18,32.18,0,0,0,5-1.81c-15.82-19.75-31.86-39.57-59-40.81-28.74-1.32-202.48-3.15-226.77-2.46-15,.42-17.83,7.08-12.42,12.07Z"/><path class="cls-22" d="M1585.64,852.55c-2.34,6-7.23,11-15.2,13.3-16,4.62-24.43,23.3-35.21,35.4-15.59,17.5-35.43,25.8-58.73,26.87-23.1,1.06-517.66,3.87-536.55-8.43l-20,17v12.47H1537.4l55.6-84.31V852.37Z"/><path class="cls-26" d="M1001.18,853.15,920,937.46H1537.4l55.6-84.31Zm394.64,34.05c-10.43,27.77-28.82,29.7-55.2,31.32-67.88,4.15-136.55,1.48-204.56,1.4-13.77,0-34.57,5.31-46.33-4.5-.29-.24-.55-.49-.81-.73-10.3-10,8.36-24.43,15.28-32.21,14.18-15.94,31.25-18.43,51.53-18.43h48c27.64,0,55.27,1.06,82.91,1.75,26.16.66,51.49-2.06,77.61-.78C1377.5,865.66,1403.56,866.63,1395.82,887.2Z"/><polygon class="cls-27" points="1537.4 949.14 1537.4 936.67 1593 852.37 1593 864.84 1537.4 949.14"/><polygon class="cls-28" points="933.12 932.03 974.46 880.11 919.98 936.67 1537.4 936.67 1593 852.37 1537.4 931.19 933.12 932.03"/><path class="cls-29" d="M1560.82,852.37c-10,3.65-20.15,6.56-28.64,9.75A771.9,771.9,0,0,1,1429.71,893c-13.86,3.1-27.8,5.76-41.78,8.11-10.88,13.93-26.64,15.4-47.31,16.66-34.42,2.1-69,2.45-103.68,2.28-7.38.67-14.77,1.28-22.16,1.76-56.29,3.66-116.13,4.39-171.37-8.93-20.29-4.9-53.86-13.53-69-32.73L920,936.67H1537.4l55.6-84.3Z"/><path class="cls-22" d="M1448.41,624.77c11.88-33.72,25.14-59.93,42.24-85,4.22-6.19,7.45-10.12-1.05-12.26-5.11-1.29-13,.3-16.15,4.42-47.82,62.45-71.61,156.33-71.56,235.11,0,32.36,22.06,181.08,84.52,152.34-49.5-33.56-56.74-96.76-59.52-154.18C1425,725.06,1434.13,665.27,1448.41,624.77Z"/><path class="cls-22" d="M1513.28,567c11.87-33.71,25.13-59.93,42.24-85,4.22-6.17,7.45-10.11-1.06-12.25-5.11-1.29-13,.3-16.14,4.42-47.83,62.45-71.61,156.33-71.56,235.12,0,32.36,22.06,181.07,84.52,152.33-49.51-33.56-56.75-96.76-59.52-154.18C1489.82,667.3,1499,607.51,1513.28,567Z"/><path class="cls-22" d="M1007,624.77c-11.88-33.72-25.13-59.93-42.24-85-4.22-6.19-7.45-10.12,1.06-12.26,5.11-1.29,13,.3,16.14,4.42,47.83,62.45,71.61,156.33,71.56,235.11,0,32.36-22.06,181.08-84.52,152.34,49.51-33.56,56.74-96.76,59.52-154.18C1030.41,725.06,1021.23,665.27,1007,624.77Z"/><path class="cls-22" d="M1069.06,567c-11.88-33.71-25.14-59.93-42.24-85-4.22-6.17-7.45-10.11,1.06-12.25,5.11-1.29,13,.3,16.14,4.42,47.83,62.45,71.61,156.33,71.56,235.12,0,32.36-22.06,181.07-84.52,152.33,49.51-33.56,56.74-96.76,59.52-154.18C1092.52,667.3,1083.34,607.51,1069.06,567Z"/><polygon class="cls-22" points="1537.4 534.3 919.98 534.3 919.98 521.83 1002.02 452.07 1593 437.53 1593 450 1537.4 534.3"/><polygon class="cls-27" points="1537.4 534.3 1537.4 521.83 1593 437.53 1593 450 1537.4 534.3"/><polygon class="cls-26" points="1537.4 521.83 919.98 521.83 1001.18 437.53 1593 437.53 1537.4 521.83"/><path class="cls-29" d="M1532.18,447.28a771.94,771.94,0,0,1-102.47,30.85c-34.62,7.72-69.73,12.83-105,17-36.53,4.31-73.25,9.44-110,11.83-56.29,3.65-116.13,4.38-171.37-8.94-20.29-4.9-53.86-13.53-69-32.73L920,521.83H1537.4l55.6-84.3h-32.18C1550.87,441.18,1540.67,444.1,1532.18,447.28Z"/><polygon class="cls-28" points="933.12 517.19 974.46 465.27 919.98 521.83 1537.4 521.83 1593 437.53 1537.4 516.35 933.12 517.19"/><path class="cls-30" d="M1121.32,436c-13,20.93-36.39,23.86-54.74,38.46-13.86,11,.33,7.7,1.75,17.61,1,6.93-12.86,11.13-17.47,14.28-7.77,5.31-8.63,7.6-6.54,15.78,1.68,6.59,1.34,13.18,2.57,19.5,8.11,41.76,19.24,83.37,15.62,126.3-2.66,31.46-22.87,93.4-47.82,37.78-25.78,12.94-29.07-13.34-39.53-30.23-11.16-18-23.42-19.9-44.37-25.44-.74-27.62,13.62-55.29,19-82.33,2-10-1.09-16-3.13-25.39C945,534.82,947.48,526,950,519c2.86-8,9-11.58,13.49-18.49s5-10.95,11.93-15.76c6.09-4.23,13.47-8,18.12-13.6,5.07-6.13,2.92-13.25,6.66-18.72,4-5.83,11.61-6.6,17.85-8.26,7.32-2,10.07-4.86,15.89-8.32,12.65-7.52,26-.21,39.62-.88S1109.3,428.91,1121.32,436Z"/><path class="cls-31" d="M1053.36,688.78a239.22,239.22,0,0,0-15.85-64.85c-13.24-33.73-42.09-61.26-49.89-96.9-13.39,2.66-27.54,4.84-40.3.84-1.12,4.84-1.64,9.88-.66,14.42,2,9.43,5.12,15.34,3.13,25.39-5.38,27-19.74,54.71-19,82.33,21,5.54,33.21,7.41,44.37,25.44,10.46,16.89,13.75,43.17,39.53,30.23,16.75,37.34,31.36,21.7,40-2.13C1054.23,698.63,1053.83,693.71,1053.36,688.78Z"/><path class="cls-32" d="M1066.58,474.43c18.35-14.6,41.79-17.53,54.74-38.46-12-7.06-34.23-1.72-47.77-1.05a66.91,66.91,0,0,1-13.68-1.18,16.29,16.29,0,0,1,4.82,10.32c.51,8.82-13.07,13.88-19.51,15.6-14.22,3.78-23,11.11-34.71,19.33-10.47,7.35-27.25,8.86-35.4,19-7.23,9-6.83,14.24-3.68,24.58,1.51,5,2.92,10,4,15.07a5.71,5.71,0,0,1,1.77,3.06c2.91,12.31,4.25,25.25,8.78,37.13,2.39,6.29,5.19,11.11,10.16,14.59a4.67,4.67,0,0,1,.5.14c27.34,10.4,30.44,33,32.19,59.54,1.38,21.07,2.76,39.64,14.31,57.93,1.64,2.61,3.3,5.2,4.94,7.78,7.93-12.78,13.24-34.82,14.52-49.9,3.62-42.93-7.51-84.54-15.62-126.3-1.23-6.32-.89-12.91-2.57-19.5-2.09-8.18-1.23-10.47,6.54-15.78,4.61-3.15,18.47-7.35,17.47-14.28C1066.91,482.13,1052.72,485.46,1066.58,474.43Z"/><rect class="cls-33" x="1138.55" y="358.49" width="5.71" height="36.33"/><path class="cls-34" d="M1138.55,358.49v5.85c5,1.21,2.6,25.81.78,28.05a.77.77,0,0,1-.78.25v2.18h5.71V358.49Z"/><path class="cls-35" d="M1138.55,358.49v4.32a4.41,4.41,0,0,1,3.53,2.05c.55.95.55,7.06.55,13.23,0,4.61,0,12.31-.55,13.44a4.08,4.08,0,0,1-3.53,2.25v1h5.71V358.49Z"/><rect class="cls-36" x="1326.44" y="264.63" width="6.87" height="6.96"/><path class="cls-37" d="M1326.44,264.63v1.89c1.36-.19,3.26-.4,4.28.61a.87.87,0,0,1-.42,1.47,10,10,0,0,1-3.86.33v2.66h6.88v-7Z"/><path class="cls-33" d="M1317.18,266.88c-.53.78-2.86.32-3.7.42a54.09,54.09,0,0,1-.25-5.84c-.06-1.19-.46-4.57.37-5.38.45-.45,1.93-.36,2.56-.25,1.09.18,1.08.56,1.13,1.68C1317.38,259.42,1317.59,266.27,1317.18,266.88Z"/><path class="cls-35" d="M1317.29,257.51c0-1.12,0-1.5-1.13-1.68a6.92,6.92,0,0,0-.8-.08,12.49,12.49,0,0,1,.79,5.19c-.08,1.43-.29,3.61-1.9,4.11a1.26,1.26,0,0,1-1,0,11.74,11.74,0,0,0,.18,2.29c.84-.1,3.17.36,3.7-.42C1317.59,266.27,1317.38,259.42,1317.29,257.51Z"/><path class="cls-33" d="M1319.16,266.36c1,.87,1.44,3.86.46,4.67-.8.67-3.64.49-4.67.54a13.81,13.81,0,0,1-3.22-.2c-1-.19-1-.06-1.15-1s.1-3.41,1.13-4a6.75,6.75,0,0,1,2.58-.21c1.37,0,3.27-.45,4.57,0A1,1,0,0,1,1319.16,266.36Z"/><path class="cls-35" d="M1319.16,266.36a1,1,0,0,0-.3-.18,2.38,2.38,0,0,0-.26-.05c-1.08,2.42-5.56,3-7.95,2.36a7,7,0,0,0-.07,1.84c.11,1,.18.85,1.15,1a13.81,13.81,0,0,0,3.22.2c1-.05,3.87.13,4.67-.54C1320.6,270.22,1320.19,267.23,1319.16,266.36Z"/><path class="cls-38" d="M1162.77,266.92a7.87,7.87,0,0,1-2.47-.05,2.5,2.5,0,0,1-.57-.13c-.21-.17.15-.49.22-.67a3.06,3.06,0,0,0,.13-.9c0-.59-.06-1.18-.09-1.77s-.16-1.12.1-1.51,1.06-.33,1.54-.33c1,0,1.95-.07,2.92,0,.52,0,1.31-.16,1.24.65a12.2,12.2,0,0,0,0,2.18,4.53,4.53,0,0,0,.24,1.37c.11.26.63.66.24.86a3.62,3.62,0,0,1-1.39.22C1164.15,266.86,1163.46,266.86,1162.77,266.92Z"/><path class="cls-39" d="M1164.58,264a9.73,9.73,0,0,1-4.27-1.3,12.27,12.27,0,0,0,3.44.48,12.23,12.23,0,0,1-3-.79,6.73,6.73,0,0,0,2.45.09,12.84,12.84,0,0,1-2.3-.38,5.51,5.51,0,0,1-.66-.29s-.07,0-.1.08c-.26.39-.12,1.06-.1,1.51s.11,1.18.09,1.77a3.27,3.27,0,0,1,0,.53l.18.05a9.58,9.58,0,0,0,3.58.06c-.55-.13-1.09,0-1.65-.21-.35-.12-1.33-.43-1.48-.8a7.15,7.15,0,0,1,1.41.27,4.12,4.12,0,0,0,1.78,0,7.17,7.17,0,0,1-2.18-.53c-.26-.13-1.38-.66-1.27-1a7.74,7.74,0,0,0,1.61.4A18.37,18.37,0,0,0,1164.58,264Z"/><path class="cls-40" d="M1166.2,266.07a2.17,2.17,0,0,1-.21-.32,4.53,4.53,0,0,1-.24-1.37,12.2,12.2,0,0,1,0-2.18c0-.55-.3-.63-.69-.64a6.14,6.14,0,0,1-.95.19,4.4,4.4,0,0,1-1.49,0,3.5,3.5,0,0,0,1.23.24,9.44,9.44,0,0,0,1.3.07,7.64,7.64,0,0,1-2.33.41,5.2,5.2,0,0,0,2.45,0,6,6,0,0,1-2.27.33,10.27,10.27,0,0,0,2.36.19,4.09,4.09,0,0,1-2.17.39,5.59,5.59,0,0,0,2,.22,3,3,0,0,1-1.29.73,4.67,4.67,0,0,1-1.58.06,4.65,4.65,0,0,0,1.42.26c.31,0,1.1-.07,1.31.18a3.32,3.32,0,0,1-1.31.51,4.52,4.52,0,0,1-1.29.16,9.45,9.45,0,0,1,1.07.09,4.31,4.31,0,0,0,2-.19,2.07,2.07,0,0,1-1,.5,3.92,3.92,0,0,0-1.18.26,11.33,11.33,0,0,0,2.79-.12Z"/><path class="cls-41" d="M1167.72,270.44c-2-.11-4.08,0-6.12-.09a11.33,11.33,0,0,0-2.47,0c-.35.06-1.45.5-1.71.08s1.23-1.21.87-2.08c-.21-.5-.86-.57-1.09-1-.68-1.3,2-1.14,2.68-1.1,1.39.07,2.84.08,4.27.08,1.15,0,2.78-.42,3.87-.15,1.87.46-.68,1.66-.37,2.39.19.48,1,.59,1.21,1.12C1169.22,270.58,1168.4,270.47,1167.72,270.44Z"/><path class="cls-42" d="M1163,268.84c-2.67.14-3.69.2-3.7-1-.9-.17-1.67-.59-1.68-1.41-.45.16-.7.44-.44,1s.88.51,1.09,1c.36.87-1.12,1.68-.87,2.08s1.36,0,1.71-.08a11.33,11.33,0,0,1,2.47,0c2,.06,4.08,0,6.12.09.68,0,1.5.14,1.14-.75-.21-.53-1-.64-1.21-1.12-.31-.73,2.24-1.93.37-2.39a1.15,1.15,0,0,0-.26,0c.34,0-.39,1.17-.57,1.28a7.56,7.56,0,0,1-2.61.62,16.17,16.17,0,0,0-3,.13c.45,0,3.63,0,3.76.31C1165.66,269.23,1163.3,268.82,1163,268.84Z"/><path class="cls-43" d="M1145.67,261.15a16.24,16.24,0,0,1,0,2.44c-.07,1.26-.2,2.57-.26,3.83-.08,1.64.65,3.17-.2,4.67-2.16,3.76-2.38-4-2.48-5-.2-1.9-1-4.07-.63-6,.24-1.42,2-2.57,3.16-1.16A2.43,2.43,0,0,1,1145.67,261.15Z"/><path class="cls-44" d="M1145.67,261.15a2.43,2.43,0,0,0-.44-1.26,1.56,1.56,0,0,0-1.25-.63,13.77,13.77,0,0,1,.47,6.37,3.77,3.77,0,0,1-1.65,2.84c.19,2.42.69,6.57,2.38,3.62.85-1.5.12-3,.2-4.67.06-1.26.19-2.57.26-3.83A16.24,16.24,0,0,0,1145.67,261.15Z"/><path class="cls-45" d="M1339,285.88h10.58a7.55,7.55,0,0,1,7.55,7.55v25.71a7.55,7.55,0,0,1-7.55,7.55H1339a7.55,7.55,0,0,1-7.55-7.55V293.42A7.54,7.54,0,0,1,1339,285.88Z"/><path class="cls-46" d="M1353.81,321.4c-7,1.46-7.76-9.31-7.83-13.49-.08-4.66-1.34-17.8,3-22h-10a7.54,7.54,0,0,0-7.54,7.54v25.72a7.53,7.53,0,0,0,7.54,7.54h10.58a7.51,7.51,0,0,0,7.48-7A7,7,0,0,1,1353.81,321.4Z"/><path class="cls-45" d="M1342.2,462.37a7.3,7.3,0,0,1-7.47,7.14H1094.22a7.3,7.3,0,0,1-7.47-7.14h0a7.31,7.31,0,0,1,7.47-7.14h240.51a7.31,7.31,0,0,1,7.47,7.14Z"/><path class="cls-47" d="M1108.61,269.56c-29.11,0-26,67.61-13.12,83,8.75,10.45,33.33,9,46.49,8.83,25.29-.35,30.16.32,34.68-17.34,1.63-6.35.95-12,6.93-16,5.55-3.65,47.45-7.65,58.77,3.67,10.31,10.31,12.71,60.25,2.57,61.26-8.32.82-140.46.35-148,3.05-14.12,5.11-22.62,13.28-26.37,26.53-3.94,14-1,30.28,16.14,37.75l258.11-.11c11.15-9.68,9.91-43,7.23-56-3.35-16.22-6.41-31-8.11-48-1.65-16.44,5.16-83.68-9.66-86.71Z"/><path class="cls-48" d="M1352.09,404.22c-3.35-16.22-6.41-31-8.11-48-1.65-16.44,5.16-83.68-9.66-86.71H1108.61c-29.11,0-26,67.61-13.12,83,8.75,10.45,33.33,9,46.49,8.83,25.29-.35,30.16.32,34.68-17.34,1.63-6.35.95-12,6.93-16,5.55-3.65,47.45-7.65,58.77,3.67,10.31,10.31,12.71,60.25,2.57,61.26-8.32.82-140.46.35-148,3.05-14.12,5.11-22.62,13.28-26.37,26.53-3.94,14-1,30.28,16.14,37.75l258.11-.11C1356,450.54,1354.77,417.21,1352.09,404.22Zm-39.38,25.86c-11.35,1.68-22.25-.36-33.6-.49-14.2-.17-28.4.25-42.59.81-30,1.19-59.75,3.07-89.68,5.12-13.1.9-26.49,2-39.57.36-6.49-.79-14.88-1.85-19.91-6.53-15-14,15.28-25.15,25-26.71,20.82-3.33,41.85,1.05,62.69,1.75,20.41.68,41.87,4.67,62.12.53,9.91-2,23.63-6.75,26.26-18.08,2.09-9-.51-18.57-.38-27.68a6.26,6.26,0,0,1,.56-2.53c-.69-6.25-.59-12.79-2.14-18.82-2.22-8.6-7.75-12.88-15.4-16.9-14.58-7.67-31.31-14.1-48-12.07-5.64,1.11-11.47,1.23-17.44,1.59-5.24.32-14.32.53-17.25,6.06-2,3.69-2.94,8.1-5.26,11.59-8.5,12.78-28.64,18.68-43.14,13.6-28.67-10.05-19.91-54,4.83-63.66.49-.37,30.2.34,57.16,2.72,39.09-8.12,79.88-1.67,119.33-.28,12.38.43,29,2.07,31,17.1,1,7.17,0,14.7.12,21.95,0,3,0,6.08,0,9.11,2.23,8.09,2.62,16.45,3.36,24.83.89,10,3.55,19.59,4.93,29.5C1338.36,401.5,1335.73,426.68,1312.71,430.08Z"/><path class="cls-36" d="M1352.09,404.22c-3.35-16.22-6.41-31-8.11-48-1.65-16.44,5.16-83.68-9.66-86.71H1108.61c-29.11,0-26,67.61-13.12,83,8.75,10.45,33.33,9,46.49,8.83,25.29-.35,30.16.32,34.68-17.34,1.63-6.35.95-12,6.93-16,5.55-3.65,47.45-7.65,58.77,3.67,10.31,10.31,12.71,60.25,2.57,61.26-8.32.82-140.46.35-148,3.05-14.12,5.11-22.62,13.28-26.37,26.53-3.94,14-1,30.28,16.14,37.75l258.11-.11C1356,450.54,1354.77,417.21,1352.09,404.22Zm-20.67,47.4c-4.46,1-234.94,6.89-246.59-.7-17.13-8.2-12.72-32.61-.15-43.52,15.55-13.5,39.3-9.31,58-8.51,27.43,1.17,54.65-.24,82-.25,6.89,0,15.31.53,22.47-1.48,8.25-9.57,8.92-24.18,9-37.57.06-17.09-1.81-37.29-21.11-42.74a6,6,0,0,1-3.4-2.32c-12.61-.52-32.69,0-37.51.92-4.46.88-17.8,0-21,3.6-5.69,6.37-3.12,20.49-10,26.33-12.15,10.25-39.47,11.75-53.28,4.26-15.18-8.25-21.72-25.87-18.91-42.51,3.44-20.36,17.68-32.49,38.52-32.07,29,.59,58.13,3.05,87.2,3.81,24.37.62,91-3.95,106.92.77,6.13.94,10.86,3.73,13.62,11.16,4.7,12.69,2.15,26.32.87,39.4-1.42,14.58,1.61,28.83,3.43,43.28.62,4.91,4.07,27.23,3.83,46.45C1346.69,433.88,1344.75,448.71,1331.42,451.62Z"/><path class="cls-49" d="M1143,269.37c-.21,1.95-.36,3.7-.38,4.1-.14,5,.5,60.36.74,67.87.2,6.38-.22,13.5.45,19.82l1.22,0c1.69-12.38.24-74.25.24-83.06,0-3,.17-5.8.24-8.71Z"/><path class="cls-49" d="M1157.43,341.57c.2,6.21-.1,13,.23,19.41.74-.05,1.43-.11,2.11-.18,1.27-19.46.07-76.07-.09-91.24h-3.13C1156.65,288.67,1157.19,334.27,1157.43,341.57Z"/><path class="cls-50" d="M1307.77,374.28a80.39,80.39,0,0,0,17-1.78c18.06-4.27,8.36-33.41,7.57-46.17-.63-10.17.61-20.08,1.08-30.19.31-6.67.3-17-8-18.77-12.52-2.63-25.83-1.51-38.53-1.13-14,.42-28.06-.15-42.09-.15-14.57,0-29.13-.87-43.77-.87-8.18,0-17.57-1.64-25.41,1.42-9.26,3.61-9.47,17.14-8.88,25.52.64,9.23,4.13,19.62,14.81,20.53,9.43.81,18.4-3.28,27.72-3.7,10.19-.46,22.83-.62,32.06,4.48s11.85,16.26,12.35,26.29c.43,8.51-1.64,22,8.84,23.9,9.66,1.77,20.76.59,30.82.59C1298,374.25,1302.9,374.37,1307.77,374.28Z"/><path class="cls-51" d="M1237.25,306c1.88-8.78,3.92-17.92,7.88-26,.64-1.32,1.34-2.6,2.07-3.87l-2.41,0c-5.92,0-11.84-.15-17.76-.32a83.52,83.52,0,0,0-8.45,5.42,103.72,103.72,0,0,0-23.7,24.47c-2.9,4.19-8.19,10.88-10.88,17.13,8.54,0,16.76-3.42,25.26-3.8,7.82-.35,17.08-.52,25.15,1.73C1235.06,315.78,1236.2,310.86,1237.25,306Z"/><path class="cls-52" d="M1276.9,374.62c6-3.79,10.86-8.88,15.47-14.84,7.86-10.14,15.84-20.56,21.48-32.15a351.49,351.49,0,0,0,15.53-36.74c.84-2.36,1.82-4.85,2.8-7.41a9,9,0,0,0-6.77-6.11c-1.93-.4-3.87-.7-5.83-.94-1.82,2.39-3.58,4.78-5.12,7.22a327.2,327.2,0,0,1-19.91,28.4,129.72,129.72,0,0,1-23.82,22.76c-5.63,4.24-11,8.94-17.29,11.73.1,1.08.18,2.15.23,3.22.43,8.51-1.64,22,8.84,23.9A77.75,77.75,0,0,0,1276.9,374.62Z"/><path class="cls-53" d="M1332.34,326.33c-.63-10.17.61-20.08,1.08-30.19.31-6.67.3-17-8-18.77-12.52-2.63-25.83-1.51-38.53-1.13-14,.42-28.06-.15-42.09-.15-14.57,0-29.13-.87-43.77-.87-8.18,0-17.57-1.64-25.41,1.42-9.26,3.61-9.47,17.14-8.88,25.52.64,9.23,4.13,19.62,14.81,20.53,9.43.81,18.4-3.28,27.72-3.7,10.19-.46,22.83-.62,32.06,4.48s11.85,16.26,12.35,26.29c.43,8.51-1.64,22,8.84,23.9,9.66,1.77,20.76.59,30.82.59,4.67,0,9.57.12,14.44,0a80.39,80.39,0,0,0,17-1.78C1342.83,368.23,1333.13,339.09,1332.34,326.33Zm-8,38.89c-9.67,4-22.24,3.63-32.52,4.15-8.56.43-17,1.15-24.82-3.05s-7.53-14.47-8.44-22c-1.35-11.2-3-21.46-14.51-26.71-11.13-5.08-27.12-6-39-3.11-9,2.2-19.57,5.85-28.12.35-11.46-7.38-10.46-24.57-1.77-32.37,3.68-3.29,11.3-5,14.8-4.58,10.06,1.29,19.63,2.67,29.85,3.21,14.56.77,29.3,1.9,43.89,1.53,13.91-.35,27.9-3,41.8-2.8,7.19.11,15.28.89,20.35,6.55,5.65,6.31.06,16.05-.12,23.07-.35,13.84,4.94,26.87,5.11,40.6C1330.9,356,1330.75,362.58,1324.37,365.22Z"/><path class="cls-54" d="M1145.51,297.88c-.13-2.79-.25-5.58-.25-8.38a47.13,47.13,0,0,1,.12-6.73c.26-1.84.53-3.26-1.53-3.56s-2.69.12-2.95,2.15a69.38,69.38,0,0,0-.12,8.54c0,3,.1,6,.38,9,.18,1.72.29,6.19,3.26,4.86C1146.74,302.7,1145.6,299.76,1145.51,297.88Z"/><path class="cls-55" d="M1141.67,287.49c0,1.22-.11,4.44.75,5.24a18,18,0,0,0,.79-6.39,24.26,24.26,0,0,0-.08-4.09c-.3-1.31-1.17-1.38-1.56-.12S1141.66,286,1141.67,287.49Z"/><path class="cls-56" d="M1167,267a39.93,39.93,0,0,0-4.77,0c-.83,0-1.59-.3-2.39-.3-.49,0-1.75-.07-1.06.6.29.3,1.08.28,1.46.31,1.31.08,2.62-.1,3.93,0C1164.92,267.65,1166.7,267.92,1167,267Z"/><path class="cls-36" d="M1349.57,303.19c0,3.17-1.06,13.13,2.19,14.23,3.74,1.26,3-11.84,2.92-14.55-.11-3.05-.58-10.46-2.33-12.67C1349.15,286.16,1349.57,300.84,1349.57,303.19Z"/><path class="cls-48" d="M1335.12,264.62a1.5,1.5,0,0,1-1.5,1.51h-7.54a1.51,1.51,0,0,1-1.51-1.51h0a1.51,1.51,0,0,1,1.51-1.5h7.54a1.5,1.5,0,0,1,1.5,1.5Z"/><path class="cls-36" d="M1333.62,263.12h-7.54a1.51,1.51,0,1,0,0,3h7.54a1.51,1.51,0,0,0,0-3Zm.51,2c-1.89,1-7.35.19-7.57.23-1.19.23-1.69-1.59-.5-1.82h0a40.29,40.29,0,0,1,7.8-.13A1,1,0,0,1,1334.13,265.14Z"/><path class="cls-57" d="M1278.07,353.75a8.49,8.49,0,1,1-8.48-8.5A8.48,8.48,0,0,1,1278.07,353.75Z"/><path class="cls-58" d="M1276.32,353.75a6.74,6.74,0,1,1-6.73-6.74A6.73,6.73,0,0,1,1276.32,353.75Z"/><path class="cls-47" d="M1266.23,353.87c.57-.77.59-1.68,1.35-2.39a11.36,11.36,0,0,1,3-1.5c2.26-1.12.52-2.07-1.26-1.9a6.51,6.51,0,0,0-4.64,2.63C1264,351.88,1264.68,356,1266.23,353.87Z"/><path class="cls-57" d="M1301.85,353.75a8.49,8.49,0,1,1-8.49-8.5A8.49,8.49,0,0,1,1301.85,353.75Z"/><path class="cls-59" d="M1300.1,353.75a6.74,6.74,0,1,1-6.74-6.74A6.73,6.73,0,0,1,1300.1,353.75Z"/><path class="cls-47" d="M1290,353.87c.56-.77.58-1.68,1.34-2.39a11.3,11.3,0,0,1,3-1.5c2.26-1.12.53-2.07-1.25-1.9a6.51,6.51,0,0,0-4.64,2.63C1287.8,351.88,1288.46,356,1290,353.87Z"/><path class="cls-57" d="M1325.63,353.75a8.49,8.49,0,1,1-8.49-8.5A8.49,8.49,0,0,1,1325.63,353.75Z"/><path class="cls-60" d="M1323.87,353.75a6.74,6.74,0,1,1-6.73-6.74A6.73,6.73,0,0,1,1323.87,353.75Z"/><path class="cls-47" d="M1313.79,353.87c.57-.77.59-1.68,1.35-2.39a11.3,11.3,0,0,1,3-1.5c2.26-1.12.53-2.07-1.25-1.9a6.49,6.49,0,0,0-4.64,2.63C1311.58,351.88,1312.23,356,1313.79,353.87Z"/><path class="cls-57" d="M1221,305c0,2.55-1.71,4.61-3.81,4.61h-32.1c-2.1,0-3.8-2.06-3.8-4.61h0c0-2.55,1.7-4.61,3.8-4.61h32.1c2.1,0,3.81,2.06,3.81,4.61Z"/><path class="cls-61" d="M1219.05,305.11a3.41,3.41,0,0,1-3.43,3.38h-28.91a3.4,3.4,0,0,1-3.43-3.38h0a3.4,3.4,0,0,1,3.43-3.38h28.91a3.41,3.41,0,0,1,3.43,3.38Z"/><path class="cls-62" d="M1216.14,305.11c0,1.87-1.24,3.38-2.77,3.38H1190a3.12,3.12,0,0,1-2.78-3.38h0a3.12,3.12,0,0,1,2.78-3.38h23.41c1.53,0,2.77,1.51,2.77,3.38Z"/><path class="cls-47" d="M1188.25,307.76c6.09-7.22,18.8-6.58,27.84-3.29a3,3,0,0,0-2.72-2.74H1190a3.12,3.12,0,0,0-2.78,3.38A3.69,3.69,0,0,0,1188.25,307.76Z"/><path class="cls-63" d="M1202.82,305.18a9.14,9.14,0,0,1-.63,2.73,8.52,8.52,0,0,1-.61-1.25,6.8,6.8,0,0,1-.29-1.62,4,4,0,0,1,.8-3.07,4.35,4.35,0,0,1,.74,3A1.62,1.62,0,0,1,1202.82,305.18Z"/><path class="cls-64" d="M1202.19,307.91a8.52,8.52,0,0,1-.61-1.25,6.8,6.8,0,0,1-.29-1.62,4,4,0,0,1,.8-3.07Z"/><path class="cls-57" d="M1318.5,410.59a23.83,23.83,0,1,1-23.83-23.82A23.82,23.82,0,0,1,1318.5,410.59Z"/><path class="cls-65" d="M1316.34,409.33a21.7,21.7,0,1,1-22.92-20.41A21.7,21.7,0,0,1,1316.34,409.33Z"/><path class="cls-47" d="M1283.92,411.61c1.68-2.6,1.58-5.52,3.89-7.94,2.63-2.74,6.18-3.56,9.41-5.4,7.07-4,1.31-6.76-4.38-5.85-5.31.83-11.9,4.39-14.43,9.32C1276.42,405.61,1279.31,418.78,1283.92,411.61Z"/><path class="cls-66" d="M1274.66,410.08h0a.26.26,0,0,1-.23-.3c.24-1.62.52-2,.85-2s.7.43,1,.93a3.3,3.3,0,0,0,.27.46c.14.17.21.19.21.19s.11-.3.17-.48a1.71,1.71,0,0,1,.68-1.06.58.58,0,0,1,.49,0c.34.13.5.57.66,1a2.44,2.44,0,0,0,.27.58l.08-.09a1.76,1.76,0,0,0,.3-.51,1.59,1.59,0,0,1,.83-.95c.83-.29,1.15.58,1.34,1.11,0,.13.12.33.16.4a.27.27,0,0,1-.07.53h0c-.32,0-.44-.36-.59-.75-.25-.7-.4-.88-.65-.79s-.38.37-.52.68a2.61,2.61,0,0,1-.39.64.63.63,0,0,1-.59.26c-.35-.07-.5-.48-.66-.93-.09-.23-.24-.63-.36-.68s-.36.47-.46.78-.28.77-.61.83a.77.77,0,0,1-.69-.38,3.57,3.57,0,0,1-.34-.55,2.51,2.51,0,0,0-.43-.66,6.55,6.55,0,0,0-.38,1.61A.27.27,0,0,1,1274.66,410.08Z"/><path class="cls-66" d="M1283.07,402.36l-.14-.26a.27.27,0,0,1,0-.37l0,0,0-.55a13.16,13.16,0,0,1,.19-1.88,22.25,22.25,0,0,0-2.77,1.58l-.29.2-.12-.33a4.83,4.83,0,0,1,0-1.87c0-.24,0-.47,0-.68l-.68.3a6.36,6.36,0,0,0-1.93,1.11.27.27,0,0,1-.38-.38,6.71,6.71,0,0,1,2.1-1.22c.37-.16.73-.31,1-.47l.36-.21,0,.42a8,8,0,0,1,0,1.18,6.33,6.33,0,0,0,0,1.29,29.2,29.2,0,0,1,3-1.66l.59-.29-.22.62a9.22,9.22,0,0,0-.32,2.32c0,.3,0,.59,0,.86v.18l-.17.08Z"/><path class="cls-66" d="M1286.9,396.51a.27.27,0,0,1-.19-.08.28.28,0,0,1,0-.38l1.33-1.33-2.23,1.15,2-2.3-2.72,1.3,1.82-1.94-2.58,1.27,2-2-2,.9a.28.28,0,0,1-.36-.13.29.29,0,0,1,.14-.36l4.64-2-1.7,1.71,2.33-1.15-1.86,2,2.43-1.17-1.86,2.17,2.86-1.46-3.75,3.74A.27.27,0,0,1,1286.9,396.51Z"/><path class="cls-66" d="M1301.74,429.53a.27.27,0,0,1-.26-.2l-2.54-9.32,6.63,6-2.49-7.8,5.68,4.51-2.64-6.23,5.55,3.09-2.75-4.77,4.6.48-2.53-3.11,3.63-.43-2.17-2,2.34-1.1-1.57-1.77,1.66-1.66-.92-1.32a.27.27,0,0,1,.45-.31l1.17,1.69-1.63,1.62,1.72,1.93-2.27,1.07,2.44,2.24-3.82.45,2.73,3.36-4.84-.51,3.18,5.54-5.87-3.27,2.85,6.72-6-4.71,2.56,8-6.75-6.09,2.07,7.58a.28.28,0,0,1-.19.32Z"/><path class="cls-66" d="M1297.8,395.59h-.37c-1.14,0-2.28-.09-2.61-.65a.74.74,0,0,1,0-.76,1.13,1.13,0,0,1,.65-.54,1.53,1.53,0,0,1-.87-.59.65.65,0,0,1,0-.68,1.79,1.79,0,0,1,1-.64,2,2,0,0,1-1.15-.66.66.66,0,0,1-.08-.71c.33-.58,1.7-.63,3.14-.61h.23a.27.27,0,1,1,0,.53h-.24c-2.14,0-2.58.19-2.66.33s0,.13,0,.16c.28.43,1.84.68,2.86.72l0,.54c-.91,0-2.42.12-2.73.62-.06.08,0,.11,0,.14.23.42,2,.71,2.67.71V394l-.44,0c-.65,0-1.76-.07-2,.4-.08.16,0,.21,0,.24.21.35,1.63.38,2.16.38h.38a.28.28,0,0,1,.25.29A.27.27,0,0,1,1297.8,395.59Z"/><path class="cls-66" d="M1280.18,416.69a2.35,2.35,0,0,1-2,2.34c1.25-1.89,1.23-3.66-.31-5C1279.34,414.34,1280.39,415.08,1280.18,416.69Z"/><rect class="cls-67" x="1148.62" y="368.39" width="2.51" height="1.47"/><path class="cls-67" d="M1155.26,369c0,1.69-1,3.06-2.27,3.06s-2.26-1.37-2.26-3.06,1-3.07,2.26-3.07S1155.26,367.25,1155.26,369Z"/><path class="cls-68" d="M1144.12,370.69a9.41,9.41,0,0,0,4.8-.1c.71-.35.75-1.06.71-1.9-.05-1.08-.31-1.41-1.41-1.4s-2,.14-3,.11-1.6,0-2,.92A2,2,0,0,0,1144.12,370.69Z"/><path class="cls-69" d="M1145.32,369.43a1.66,1.66,0,0,1-1.11-1.66,1.4,1.4,0,0,1,.09-.31,1.22,1.22,0,0,0-1,.86,2,2,0,0,0,.81,2.37,9.41,9.41,0,0,0,4.8-.1,1.34,1.34,0,0,0,.71-1.25A5.69,5.69,0,0,1,1145.32,369.43Z"/><rect class="cls-67" x="1148.01" y="386.71" width="1.23" height="0.73"/><path class="cls-67" d="M1151.27,387c0,.83-.5,1.51-1.11,1.51s-1.12-.68-1.12-1.51.5-1.51,1.12-1.51S1151.27,386.15,1151.27,387Z"/><path class="cls-68" d="M1144.2,388.49a6.81,6.81,0,0,0,3.5-.07c.51-.25.54-.77.51-1.38,0-.79-.22-1-1-1s-1.43.1-2.15.08-1.17,0-1.42.67A1.41,1.41,0,0,0,1144.2,388.49Z"/><path class="cls-69" d="M1145.08,387.57a1.21,1.21,0,0,1-.81-1.21,1.87,1.87,0,0,1,.07-.22.88.88,0,0,0-.72.63,1.41,1.41,0,0,0,.58,1.72,6.81,6.81,0,0,0,3.5-.07,1,1,0,0,0,.51-.91A4.09,4.09,0,0,1,1145.08,387.57Z"/><path class="cls-36" d="M1164.87,405.34c17.79-.44,35.62-.32,53.39-1.31,6.21-.35,15.76.7,21.61-1.67,4.33-1.76,7.32-5.2,6-9.62a3.53,3.53,0,0,1-1,.26c-8.32.82-140.46.35-148,3.05a52.76,52.76,0,0,0-11.77,5.85,36.33,36.33,0,0,0,6,1.91c6.86,1.53,13.86,1.67,20.86,1.89C1129.67,406.26,1147.23,405.77,1164.87,405.34Z"/><path class="cls-70" d="M1161,402c-1-2.67-2.31-5.31-3.19-8.06-9.54.11-18.78.24-27.07.41q-1.5,5.81-3.08,11.57c11.46,0,22.91-.24,34.39-.53C1161.69,404.26,1161.36,403.13,1161,402Z"/><path class="cls-71" d="M1159.3,397.93c-.61-.06-1.22-.13-1.81-.21-5.66-.75-12-1.31-17.31-3.53l-4.1.07c4.9,4.14,11.49,6.5,17.57,7.95,2.62.63,5.27,1.11,7.9,1.71-.19-.63-.36-1.28-.59-1.91C1160.47,400.65,1159.88,399.3,1159.3,397.93Z"/><path class="cls-71" d="M1146.35,403.36c-5.86-1.65-11.34-4.17-14.94-9h-.13c-.42,1.57-1.61,9.32-1.88,11.57,8.86,0,17.71-.16,26.57-.37C1152.74,404.93,1149.52,404.25,1146.35,403.36Z"/><path class="cls-71" d="M1139.84,405.81c5.38-.06,10.75-.13,16.13-.26-3.23-.62-6.45-1.3-9.62-2.19-5.59-1.57-10.81-4-14.4-8.39C1132.9,399.77,1136,403.25,1139.84,405.81Z"/><path class="cls-72" d="M1245.88,392.74a3.53,3.53,0,0,1-1,.26c-.28,0-.7.05-1.23.07a8.1,8.1,0,0,1-2,3.61c-3.94,4.21-10.16,5-15.66,5.07-7.81.06-15.57-1.06-23.38-.66-10.39.54-20.78.52-31.18.61-20.43.19-40.65,2-61.09,1-4.6-.24-11,.24-14.71-2.92a3.57,3.57,0,0,1-1.52-2.63,49.9,49.9,0,0,0-9,4.75,36.33,36.33,0,0,0,6,1.91c6.86,1.53,13.86,1.67,20.86,1.89,17.64.56,35.2.07,52.84-.36,17.79-.44,35.62-.32,53.39-1.31,6.21-.35,15.76.7,21.61-1.67C1244.2,400.6,1247.19,397.16,1245.88,392.74Z"/><path class="cls-36" d="M1147.77,394.08c.24-.07.18-2.27-.08-2.82-.14-.3-1.36-.14-3.39,0a3.15,3.15,0,0,1-1.28,1.69,4.27,4.27,0,0,1-2.71.16,3,3,0,0,1-1.72-1.92s-3-.19-3.11.32c-.1.33-.53,2.61-.17,2.8Z"/><path class="cls-73" d="M1144,393.53a19.42,19.42,0,0,1-8.38-.56,1,1,0,0,1-.38-.24c-.1.7-.14,1.44.06,1.54l12.46-.19c.13,0,.17-.65.15-1.31A15,15,0,0,1,1144,393.53Z"/><path class="cls-74" d="M1147.64,394.19c-.08,0-3.34.06-4,0-.2,0-.41,0-.61,0,.07-.22.32-.36.44-.58a7.32,7.32,0,0,0,.35-.81,1.37,1.37,0,0,1,.89-1,5.1,5.1,0,0,1,3,.21.92.92,0,0,1,.59.71C1148.3,392.83,1148.07,394,1147.64,394.19Z"/><path class="cls-73" d="M1145,392.41c-.79.32-1.36,1.81-1.36,1.81-.2,0-.41,0-.61,0,.07-.22.32-.36.44-.58a7.32,7.32,0,0,0,.35-.81,1.37,1.37,0,0,1,.89-1,5.1,5.1,0,0,1,3,.21.92.92,0,0,1,.59.71C1148.3,392.83,1146.37,391.87,1145,392.41Z"/><path class="cls-74" d="M1135.24,394.22c.08,0,3.34,0,4,0l.61,0c-.08-.22-.33-.36-.44-.58a5.82,5.82,0,0,1-.35-.81,1.38,1.38,0,0,0-.9-1,5.1,5.1,0,0,0-3,.22.93.93,0,0,0-.59.71C1134.58,392.86,1134.8,394,1135.24,394.22Z"/><path class="cls-73" d="M1137.84,392.43c.8.32,1.37,1.81,1.37,1.81l.61,0c-.08-.22-.33-.36-.44-.58a5.82,5.82,0,0,1-.35-.81,1.38,1.38,0,0,0-.9-1,5.1,5.1,0,0,0-3,.22.93.93,0,0,0-.59.71C1134.58,392.86,1136.5,391.89,1137.84,392.43Z"/><path class="cls-50" d="M1107.7,414.62a18.33,18.33,0,0,0-3,8.3c-.46,4.62-1.37,9.6-.43,14.22,1,5,4.78,8.61,5.2,13.93,1.67,20.88-33,15.24-45.3,15.79-14,.64-28.56-2.06-39,9.07-2.43,2.58-4.29,5.72-6.32,8.49C1009,497.84,979,490.23,977.88,513c-.85,16.85,16.36,30.83,21.25,46,2,6.34,1.17,14.15,4.13,20,4.57,8.95,16,12.11,21.21,21,7.29,12.29,7.44,28.62,7.55,42.44.15,19.75-.07,16.31,9.92,36,12.59,24.76,10.54,54.54,26,77.91,22.36-14.44,36.13-61,45.51-85.95,7.7-20.49-4.78-68.57,21.9-72,12.1-23.51-7-58.07,8-78.82,14.39-20,65.38-12.92,88.32-14.44,4.91-.32,11,.61,14.74-3.67,4.17-4.78-2.73-8.34-6.38-10.8-7.09-4.76-17.63-3.49-24-8.5-2.4-1.89-3.12-5.47-5.42-7.57-3-2.74-7-3.89-9.95-6.86-2.65-2.7-4.23-5.68-7.25-8-3.38-2.6-7.28-4.6-10.71-7.27s-7.17-6.08-9.2-10.17c-2.23-4.51-1.08-7.31-.23-11.88,1.66-8.91-4.06-12.7-7.14-20.13a12.59,12.59,0,0,1,.17-9.66c.42-1,5.17-8,6.4-7.29-3.9-2.21-9.28-2.11-13.5-1-4.8,1.28-9.27,1.52-14.33,2-3.73.37-7.58-.59-11.32-.61-2.42,0-10.07-1-11.72.89-1.18,1.33-.5,5.39-1.7,7.36-2.41,3.94-6.55,6.25-9.75,9.46A21,21,0,0,0,1107.7,414.62Z"/><path class="cls-75" d="M1139.87,525.9c-53.17,5.07-106.75.79-160.17-2.07,4.42,12.26,15.63,23.35,19.43,35.18,2,6.34,1.17,14.15,4.13,20,4.57,8.95,16,12.11,21.21,21,7.29,12.29,7.44,28.62,7.55,42.44.15,19.75-.07,16.31,9.92,36,12.59,24.76,10.54,54.54,26,77.91,22.36-14.44,36.13-61,45.51-85.95,7.7-20.49-4.78-68.57,21.9-72C1146.26,577.06,1131.8,546.84,1139.87,525.9Z"/><path class="cls-76" d="M1139.87,525.9c-53.17,5.07-106.75.79-160.17-2.07.34,1,.74,1.91,1.17,2.86a2.7,2.7,0,0,1,.36.09c16.54,5.84,34.11,4.86,50.86,9.32,17,4.53,32.8,11.94,49.38,17.62,10.81,3.7,23.31,6.07,29.6,16.61,4,6.7,1.82,15.65-.23,22.56-1.7,5.78-5.17,13.36-4.77,19.44.38,5.67,2.61,12.94,0,18.33-3.88,8.05-5.24,12.52-3.88,22,1.12,7.79.71,16,1,23.83a116.08,116.08,0,0,1-2.83,29.23c5.16-13,9.44-25.8,13-35.43,7.7-20.49-4.78-68.57,21.9-72C1146.26,577.06,1131.8,546.84,1139.87,525.9Z"/><path class="cls-77" d="M1240,490.55c-7.09-4.76-17.63-3.49-24-8.5-2.4-1.89-3.12-5.47-5.42-7.57-3-2.74-7-3.89-9.95-6.86-2.65-2.7-4.23-5.68-7.25-8-3.38-2.6-7.28-4.6-10.71-7.27s-7.17-6.08-9.2-10.17c-2.23-4.51-1.08-7.31-.23-11.88,1.66-8.91-4.06-12.7-7.14-20.13a12.59,12.59,0,0,1,.17-9.66c.42-1,5.17-8,6.4-7.29a14.37,14.37,0,0,0-6.12-1.69c-8.76,15-20.56,33.78-8.88,50.33,5.69,8.06,15,11,21.39,18.38,4.78,5.45,7.72,12.51,11.8,18.48,2.43,3.55-.26,7.57-3.63,8.94-10.37,4.17-20.62,4.75-31.69,5-12.54.28-19.19,3.95-29.62,9.7-18.09,10-39.22,7.15-59.09,7.37-29.71.34-59.14,1-88.61.54-.08.43-.16.86-.21,1.33,57.83,3.07,116,8.25,173.54.88,20.17-11.12,60.42-6.13,80.08-7.44,4.91-.32,11,.61,14.74-3.67C1250.54,496.57,1243.64,493,1240,490.55Z"/><path class="cls-78" d="M1535.14,434.44c1.12-1.81-92.91-6.74-103.79-4.48-51.62,10.71-92.67,59.35-125.29,97.43,36.1,20.25,22.46,121.38,32.25,159.12,27.18-41.38,40.69-92.6,64.62-136C1433,496,1503.12,486.2,1535.14,434.44Z"/><path class="cls-79" d="M1460.22,478.86c-40,19.59-89.28,38.21-133.65,24.92-7.18,8-14,16-20.51,23.61,36.1,20.25,22.46,121.38,32.25,159.12,27.18-41.38,40.69-92.6,64.62-136C1433,496,1503,486.21,1535.05,434.57,1511,450.87,1486.32,466.09,1460.22,478.86Z"/><path class="cls-80" d="M1313.13,519.15l-7.07,8.24c36.1,20.25,22.46,121.38,32.25,159.12,27.18-41.38,40.69-92.6,64.62-136a111.84,111.84,0,0,1,21.55-27.39C1387.42,525.28,1349.9,522.81,1313.13,519.15Z"/><path class="cls-81" d="M1389.22,537.65c-19.71,1.34-39.93,2.48-59.6,0-4.69-.59-9.56-1.24-14.39-2.19,24.49,31.25,14.24,117,23.08,151,27.18-41.38,40.69-92.6,64.62-136a105.09,105.09,0,0,1,10-14.85C1405,536.42,1397.13,537.11,1389.22,537.65Z"/><path class="cls-77" d="M1116.1,474.33c15.73,2.11,30.74,4.69,47.17,4.94-11.15-11.55-28-15.8-38.67-27.33-3.15-3.39-3.23-6.53-5.3-10-2.91-4.89-3.72-4.81-8.93-7.84a41.68,41.68,0,0,1-6.36-4.4,27.26,27.26,0,0,0,.28,7.45c1,5,4.78,8.61,5.2,13.93,1.67,20.88-33,15.24-45.3,15.79-14,.64-28.56-2.06-39,9.07-2.43,2.58-4.29,5.72-6.32,8.49a16.15,16.15,0,0,1-4,3.74,92,92,0,0,1,11.34-1.3c9.45-.44,40.38,4,45.89-4.24-1.09-1-1.92-3.46-2.52-4.09C1085,478.13,1100.45,472.24,1116.1,474.33Z"/><path class="cls-82" d="M1058.2,472.11c21.85-2.6,44.56-5.63,66.29-2.75a57.74,57.74,0,0,1-15.3-13.75c-3.51,15.46-33.7,10.74-45,11.25-14,.64-28.56-2.06-39,9.07a37.32,37.32,0,0,0-3.18,4C1031.47,471.43,1045.66,471.74,1058.2,472.11Z"/><path class="cls-83" d="M1124.66,430.07c-19.39,15.72,43.23,34.21,43,46.62-.32,14.61-70-.31-63.5,14.28-7.24.14-25.12-4.92-22.91,9.34-11.56,3.68-27.74-.84-39.53-2.61-13.35-2-29.45-3-42.51.35,10.29,10.1,28.09,5.94,41.48,6.6,14.12.7,27.9-.83,42.39-.83,7,0,13.85.93,19.55-2.5.56-.34,0-3.05,1.62-4.09,1.47-.93,3.58-.61,5.11-1.23,3.35-1.37,7.08-2,10.19-3.18,13.39-5.15,24.46-5.62,39-7a119.72,119.72,0,0,0,27-5.9c-.76-10-19.74-17.13-26.89-22.92.47-.55,1.14-1.68,1.69-2.36-4.37-4.71-12-4.12-17.24-8.24-8.86-7-5.32-8.59-1.46-15.29,1.85-3.23,4.26-4.35,3.36-8.68-1.19-5.72-4.74-3.61-7.65-7-5.4-6.36.11-5.68,5.17-11.63.27-.32-16.78-.7-20.11,1.89C1112,413.69,1117.91,422.34,1124.66,430.07Z"/><path class="cls-84" d="M1094.05,526.71c9.28.46,25,2.21,32.16-3.2-25-1-49.12-4.63-73.69-7-12.57-1.19-24.3-3-37.31-3.6-7.1-.36-20.91-4.44-27.17,0-14.17,10,14.88,7.81,19.34,7.83,13.5.08,25.29,3.83,38.67,1.94C1061.91,520.46,1078.12,525.91,1094.05,526.71Z"/><path class="cls-76" d="M1079.78,726.76c-1.29-9.44-.79-19.8-1.28-29.86-1-19.21-1.09-42.52-9.11-59.74-8,11.9-4.5,34.69-13.05,48.4-9-18.34-14.53-39.45-17.49-59.72-3.11-21.29,3.06-46.57-3-67.2-9.74,7.84-13.86,21.67-18.13,34a27.68,27.68,0,0,1,6.76,7.34c7.29,12.29,7.44,28.62,7.55,42.44.15,19.75-.07,16.31,9.92,36,12.59,24.76,10.54,54.54,26,77.91,5.89-3.8,11.17-9.84,16-17.12A41.72,41.72,0,0,1,1079.78,726.76Z"/><path class="cls-85" d="M1052.19,709.72a10.6,10.6,0,0,0-6.14-2.84c-14-1.39-11.86,3-22.13-10-5.19-6.59-12.94-10.76-15.54-18.36-5.43-15.83,8.85-42.76-2-56.25-1.48,9.08-6,42.68-16.24,43.28-.77-2.3-1.8-8.76-3.65-10-4.65-3.27-5.5-.13-10.28-1.88-9.67-3.56-11-7.48-10-20.25,1.21-15.64,10.58-34,7.19-49.78,1.59,7.39-21.57,40.64-27.49,46.26-3.84,3.64-9.06,4.64-14.22,5.14a88.61,88.61,0,0,0-1,15.06c21,5.54,33.21,7.41,44.37,25.44,10.46,16.89,13.75,43.17,39.53,30.23C1029.94,739.67,1043.41,729.75,1052.19,709.72Z"/><path class="cls-50" d="M980.71,487.16c.49.72,2.09.83,4,.2a82.07,82.07,0,0,0,20.59-10.26c5.07-3.63,12.43-7.24,15.49-12.9a18.58,18.58,0,0,1,11.72-9.12c6-1.54,11.92.12,17.23-4.07,5.5-4.34,8.59-12.3.69-14.83-3-1-8.6.43-11.64,1.3-4,1.12-7.13,4.11-10.13,6.75-4.45,3.92-10.45,2-15.49,4.72-5.83,3.16-4.91,8.44-6.55,13.91-2.28,7.61-8.68,12.95-15.3,16.81-2.8,1.63-6.87,2.52-9.28,4.71C980.63,485.64,980.33,486.59,980.71,487.16Z"/><polygon class="cls-86" points="1822.5 1173.67 1609.44 1173.67 1632.06 1077.59 1799.89 1077.59 1822.5 1173.67"/><path class="cls-87" d="M1708.94,1154.46c-35.13-4.68-73.46-41.69-60.34-76.87h-16.54l-22.62,96.08H1822.5l-8.3-35.29C1783.39,1156.14,1742.89,1159,1708.94,1154.46Z"/><path class="cls-88" d="M1707.81,738.89v374.24c0,2.78,3.66,5,8.16,5s8.16-2.25,8.16-5V738.89Z"/><path class="cls-89" d="M1707.81,738.89v35.26c13.42,17,11.33,43,10.74,63.86-.72,25.52-1.32,272.27-1.07,280.06,3.78-.44,6.65-2.48,6.65-4.94V738.89Z"/><path class="cls-90" d="M1826.47,385.82c6.8-14.66,22.1-26.78,26.45-42.5,5.48-19.75-12-28.49-27.27-35.4-15.11-6.81-24-6.18-44.39-18.08-10.45-6.11-16.49-13.34-18.35-23.62-2.36-13,1.42-21.68-14.64-28.52-8.68-3.7-32.3-3.7-32.3-3.7s-23.62,0-32.3,3.7c-16.06,6.84-12.28,15.49-14.64,28.52-1.86,10.28-7.9,17.51-18.35,23.62-20.39,11.9-29.29,11.27-44.38,18.08-15.32,6.91-32.76,15.65-27.28,35.4,4.35,15.72,19.65,27.84,26.46,42.5,15.79,34.06,18.27,72.53,23.6,109.28,5.66,39-15.58,73.15-21,110.26-3,20.32-20,101.88-4.24,126.87,15.26,24.19,71.81,27.61,112.17,27.39,40.36.22,96.91-3.2,112.17-27.39,15.76-25-1.25-106.55-4.24-126.87-5.46-37.11-26.7-71.29-21-110.26C1808.19,458.35,1810.67,419.88,1826.47,385.82Z"/><path class="cls-91" d="M1791.9,607.93a73.73,73.73,0,0,0-1.92-21.47c-5.84-22.28-12.7-43.83-13.51-67.09-.76-21.76-8.37-32.4-28-43-17.63-9.58-38.73-13.64-58.34-8.33-36.58,9.91-47.26,41.05-44.13,75.22,1.66,18.28-7.36,36.12-4.24,54.49,5,29.08-7.62,76,11.45,100.79,20.64,26.78,64.84,27,93.06,16.09,30.18-11.67,39.52-51.17,42.87-79.75C1790.2,626.12,1791.56,617,1791.9,607.93Z"/><path class="cls-91" d="M1777.46,600.48c-.32-19.47-8.26-38-6.61-57.33,1.48-17.25-3.51-31.79-18.86-42.35-23.74-16.35-80.9-10.12-91.61,19.19-5.47,15-6,32-6.69,47.84s-.7,39.09,4.31,53.9c4.93,14.6,20.35,33.79,36.62,36.32,18.16,2.84,49.57-4.74,64.61-15.62C1773.57,632.06,1777.73,617,1777.46,600.48Z"/><path class="cls-91" d="M1635.54,406.26a19,19,0,0,0,3.69,4.69c3.51,2.85,9.52,3.47,13.64,5.77a9.36,9.36,0,0,1-1.36,1.06c4-2.53,10.91.17,15.15.8,6.21.92,12.56.44,18.88.18,14.29-.61,28.59-1.55,42.89-.84,6.72.33,13.34,1.72,20.06,1.63,16.31-.22,34.25,1.16,46-12.39,6-6.93,12.2-12.09,10.7-22.28-.93-6.32,3.77-11.65,2.9-18-.82-6-3.31-15.07-8.48-18.77-3-2.18-8.16-.31-11.47.63-9.9,2.81-17.28,9.47-25.13,15.59s-20.84,9.15-30.59,7.72c-12.77-1.87-25.34-7.16-38.25-6.11-8.06.65-17.46,2.89-25.37.52-6.22-1.85-10.5-6.77-15-11.07-5.21-5-18.17-9.52-24.88-5.11-9.62,6.34-5.19,21.4-1.74,30.23,2.09,5.36.94,11.21,3.54,16.42C1631.81,399.23,1633.59,403.06,1635.54,406.26Z"/><path class="cls-91" d="M1636.23,410.88a30.73,30.73,0,0,0,2,2.49c3.36,3.64,9.28,3.07,13.78,4.54a11.07,11.07,0,0,1-1.34.62c3.94-1.47,10.77.09,15,.46a165.61,165.61,0,0,0,18.65.1c14.1-.36,28.22-.9,42.35-.48,6.63.18,13.16,1,19.8.94,13.52-.11,33.46,2.46,43-10.21,3-4,4.46-9.79,6.23-14.48,1.62-4.32,3.79-9.41.55-13.42-3.58-4.43-13.24-3.36-18-1.81-6.12,2-11.69,5.19-17.51,7.86-7.74,3.55-20.58,5.31-30.2,4.48-12.6-1.08-25-4.15-37.77-3.54-8,.38-17.23,1.68-25,.31-6.14-1.09-10.36-3.94-14.83-6.43-7.88-4.4-24.93-9.64-24.94,5.14a37.38,37.38,0,0,0,2.26,13.31A54.42,54.42,0,0,0,1636.23,410.88Z"/><path class="cls-92" d="M1625.49,468.29c7.76-8.73,17-15.51,29.7-21,18.53-8.06,39.34-13.34,59.67-12.72s41.86,4.53,59.69,15.17c11.17,6.67,21.33,14.68,31.34,22.91,3.42-26.27,7.07-52.78,16.61-77.38-.94.61-1.85,1.25-2.82,1.83-15.3,9.26-32.35,21.85-50.53,24.49-19,2.75-36.31-4-55-2.72-10.75.73-20.62,6.2-31.54,5.63a96.53,96.53,0,0,1-23.69-3.87c-14.39-4.52-28.54-8.92-38.09-21.24-7.88-10.14-11.59-23.27-17.43-34.62-8.22-16-16.48-35.64-9.27-50.79-10.81,6.27-19.19,14.83-15.16,29.36,4.35,15.72,19.65,27.84,26.46,42.5C1617.46,411.67,1621.77,440,1625.49,468.29Z"/><path class="cls-91" d="M1664.44,426.07a52.63,52.63,0,0,0,13.48-.44c8.09-1.45,28.24-11.72,14.6-20-8.71-5.3-18.91.51-28.15-1.21-9.91-1.84-15.13-10.28-23.95-14.33-22.05-10.1-12.17,19.78-2.36,27.84a.48.48,0,0,1-.21-.47C1644.56,422.26,1654.78,425.26,1664.44,426.07Z"/><path class="cls-91" d="M1761.7,426.07a52.67,52.67,0,0,1-13.48-.44c-8.09-1.45-28.23-11.72-14.6-20,8.71-5.3,18.91.51,28.15-1.21,9.91-1.84,15.13-10.28,24-14.33,22-10.1,12.17,19.78,2.35,27.84a.48.48,0,0,0,.21-.47C1781.58,422.26,1771.36,425.26,1761.7,426.07Z"/><path class="cls-92" d="M1622,668.05c4.16-28.81,14.12-56.4,17.22-85.4,3.25-30.5,4.66-60.3,1.88-90.95-2.88-31.82-6.13-64.22-14.19-95.23-5-19.32-15.17-41.45-6.78-61.29,9.29-22,32.6-27.87,49-42.75,15.64-14.19,15.21-34.5,13.73-54.36-15.09,6.79-11.54,15.35-13.85,28.15-1.86,10.28-7.9,17.51-18.35,23.62-20.39,11.9-29.29,11.27-44.38,18.08-15.32,6.91-32.76,15.65-27.28,35.4,4.35,15.72,19.65,27.84,26.46,42.5,15.79,34.06,18.27,72.53,23.6,109.28,5.66,39-15.58,73.15-21,110.26-3,20.32-20,101.88-4.24,126.87,3.39,5.36,8.86,9.69,15.69,13.2C1616.74,719.5,1618.44,692.71,1622,668.05Z"/><path class="cls-92" d="M1826.47,385.82c6.8-14.66,22.1-26.78,26.45-42.5,5.48-19.75-12-28.49-27.27-35.4-15.11-6.81-24-6.18-44.39-18.08-10.45-6.11-16.49-13.34-18.35-23.62-2-11.07.38-19-8.7-25.3.64,15.58-5.51,32.06,1.89,46.46,6,11.73,17.85,17.69,29,23.67,10,5.39,22.57,11.86,26.17,23.65a32.68,32.68,0,0,1,1.32,10.63c.91,12.27-3.41,26.5-7.24,37.3-14.35,40.44-20.14,80.32-19,123.23.67,25.4,2.76,49.93,8.18,74.81,4.93,22.68,9.67,45.15,12.44,68.22,3.86,32.07,6.23,64.17,6,96.32,6.62-3.48,11.93-7.73,15.24-13,15.76-25-1.25-106.55-4.24-126.87-5.46-37.11-26.7-71.29-21-110.26C1808.19,458.35,1810.67,419.88,1826.47,385.82Z"/><path class="cls-93" d="M1716.07,343.16c-55.33-.62-100,9.82-126,20.11.28.39.56.77.85,1.13,25.83-10.19,70.18-20.51,125.14-19.88s86.42,10,123.24,22.17c.29-.39.59-.78.89-1.16C1803.05,353.21,1771.46,343.77,1716.07,343.16Z"/><path class="cls-93" d="M1726.51,421.75c-56.12,0-88.46,3.86-107.09,8.43.09.44.19.89.27,1.33,18.48-4.54,50.68-8.39,106.82-8.39,26.69,0,54,1.74,86.33,5.54.09-.45.18-.9.28-1.34C1780.66,423.49,1753.28,421.75,1726.51,421.75Z"/><path class="cls-93" d="M1722.94,542c-33.66,0-66.38-.69-95.93-7.77-.1.44-.19.89-.29,1.34,29.69,7.11,62.48,7.8,96.22,7.8,15,0,52.27,0,82.81-5.42l-.3-1.33C1775.07,542,1737.93,542,1722.94,542Z"/><path class="cls-93" d="M1718.77,681.53c37.65,0,85.29-7.64,114-16.87,0-.47-.1-1-.16-1.43-28.63,9.15-76.86,16.92-113.87,16.92-48.78,0-92-6.82-119.61-15.61l-.15,1.35C1626.81,674.71,1670.07,681.53,1718.77,681.53Z"/><path class="cls-93" d="M1664,278.32c-.26.36-.5.74-.78,1.11,12.47,6.5,31.41,11.65,49.86,11.65,1.72,0,3.45-.05,5.16-.14,8.73-.48,33.93-2.73,49.57-12.9-.25-.37-.53-.72-.77-1.11-15.3,9.95-40.25,12.16-48.87,12.63C1698.43,290.63,1677.36,285.27,1664,278.32Z"/><path class="cls-93" d="M1715.29,759.62l-2.55-469.23h-1.37l2.55,469.23Z"/><path class="cls-93" d="M1656.81,603.58c4.11-46.31,7.66-86.3,6-111.59-2.17-33.16-6.8-60.92-10.17-81.2-2.08-12.43-3.71-22.25-4-28.88q-.34-6.66-.77-13.54c-1.51-25.52-3.2-54,2.55-78.37-.55.32-1.07.6-1.6.9-5.46,24.27-3.82,52.36-2.32,77.56.27,4.58.54,9.09.76,13.52.34,6.71,2,16.56,4.06,29,3.37,20.24,8,48,10.16,81.06,1.64,25.18-1.9,65.13-6,111.37-4.24,47.85-9,101.57-9,150.86l1.38.26C1647.85,705.27,1652.56,651.47,1656.81,603.58Z"/><path class="cls-93" d="M1630.79,565.56c4.5-17.84,9.53-52.69,9.53-72.61,0-58-15.49-96.67-27.94-127.73-8.67-21.62-15.26-38.12-13.6-53.74l-1.42.72c-1.33,15.89,5.47,32.9,13.74,53.53C1623.51,396.67,1639,435.18,1639,493c0,19.83-5,54.51-9.49,72.28-.22.88-21,84.62-18.55,174.76.45.37.93.72,1.41,1.07C1609.64,650.69,1630.57,566.45,1630.79,565.56Z"/><path class="cls-93" d="M1785.11,754.38c0-49.31-4.7-103.06-8.95-150.93-4.1-46.24-7.65-86.19-6-111.37,2.16-33.09,6.78-60.82,10.15-81.06,2.08-12.48,3.72-22.33,4.06-29q.35-6.64.77-13.52c1.5-25.28,3.15-53.45-2.37-77.77l-1.51-.85-.1-.07c5.82,24.4,4.12,53,2.61,78.6-.28,4.58-.55,9.1-.77,13.54-.34,6.63-2,16.45-4,28.88-3.38,20.28-8,48-10.17,81.2-1.66,25.29,1.89,65.28,6,111.59,4.26,47.92,9,101.74,9,151.06Z"/><path class="cls-93" d="M1820.69,740.28c2.52-90.25-18.32-174.17-18.54-175-4.48-17.77-9.5-52.45-9.5-72.28,0-57.77,15.45-96.28,27.86-127.22,8.3-20.72,15.11-37.78,13.72-53.72l-1.42-.71c1.73,15.68-4.88,32.22-13.58,53.92-12.45,31.06-28,69.7-28,127.73,0,19.92,5,54.77,9.53,72.61.23.89,21.19,85.29,18.47,175.75C1819.75,741,1820.24,740.64,1820.69,740.28Z"/><path class="cls-94" d="M1604.31,598.82c4.92-20.9,15.5-41.48,18.37-62.58,3-21.7,3.54-43-.19-64.54-2.72-15.69-9.13-51.11-9.13-51.11,5.47-31,15.63-51.68.79-82.15-6.68-13.71-10.73-30.44-10.73-30.44,14-6.34,25.47-14,43.62-16.92,2.56,17.39,4.69,39.05,11.46,55.26,12.34,29.53,27.94,44.59,56.72,46.45,6.31,42,.43,310,.43,310-8.32,2.57-53.9,27.06-53.52,34.67-1-19-68.59-67.42-68.7-76.85C1593.3,650.08,1599.43,619.56,1604.31,598.82Z"/><path class="cls-95" d="M1650.11,312.53c-1.15-7.41-2.08-14.75-3.07-21.45-18.15,3-29.57,10.58-43.62,16.92a184.24,184.24,0,0,0,8.94,26.54C1622.56,324.35,1635.86,317.21,1650.11,312.53Z"/><path class="cls-96" d="M1715.22,392.79A74.72,74.72,0,0,1,1703,391c8.11,66.66,6.38,287.16,3.18,316.08a81,81,0,0,1,9.52-4.23S1721.53,434.79,1715.22,392.79Z"/><path class="cls-95" d="M1630.71,637.84c.57-30.43,12.38-56.78,20.51-85.58,10-35.48,7.43-69-4.15-103.74-8.1-24.32-18-48-25.43-72.54-1,14-5.31,27.77-8.28,44.61,0,0,6.41,35.42,9.13,51.11,3.73,21.58,3.14,42.84.19,64.54-2.87,21.1-13.45,41.68-18.37,62.58-4.88,20.74-11,51.26-10.88,61.82.06,5.94,27,27.37,47.07,47.17C1635,684.75,1630.26,661.32,1630.71,637.84Z"/><path class="cls-7" d="M1069.14,197.18c-16.58,6.79-33.79,6.52-52.38,4.71-13.55-1.32-45.14-3.6-54.15-15.25-11.36-14.7,8.41-69.93,9.66-89.27.34-5.16,1.21-64.46-.19-64.78,34.22,7.84,75.9,1,107.91,13.49-7,24.58-9.69,49.17-11.06,74.67-1.64,30.61-15.15,48.91,11.45,70.64A72.25,72.25,0,0,1,1069.14,197.18Z"/><path class="cls-97" d="M975.9,18.1c-25.77,2.76-8,19.19,1.76,34,9.81-5.42,7.68-3.08,7.16-13C984.71,37.08,976.88,18,975.9,18.1Z"/><path class="cls-97" d="M1088.79,33.64c-17.07-19.5-20.3,4.5-26.79,21,10.08,4.92,6.94,4.52,14.78-1.63C1078.32,51.77,1089.44,34.39,1088.79,33.64Z"/><path class="cls-98" d="M1034.51,46.77c-.26-.08-.56-.35-.94-.91-.93-1.4-1-1.72-2.91-2.17a6.19,6.19,0,0,0-4.05.22c-1.35.49-2.3,1.23-3.54.3s-1.56-2.17-3.2-2.37a2.61,2.61,0,0,0-2.87,1.7c-1.06,2.06-.61,2-3,.9-2.17-1-3.6-.2-5.18,1.56-1.87,2.09-3.29,6.48,1,6.46-4.57,0-11.41,8.84-4.53,8.47-7.13.76-2.4,7.7,1.85,9,.39-.52,1.28-1.21,1.57-1.6,1.74,5.53,6,6.08,10.38,3,.58,7.3,7.19,3.58,11.85,3.31,6.37-.37,13.3-.47,11-9.23.45-.1.91.08,1.4-.06,1.89-3.53,2-8.91-2.1-10.76.27.13.13-3.38.07-3.64a9.3,9.3,0,0,0-1.69-3.86c-.6-.77-1.66-1.85-2.77-1.62S1035.26,47,1034.51,46.77Z"/><path class="cls-99" d="M1025.93,51.26a1.8,1.8,0,0,0-.2-.19c-2.07-1.77-4.1-1.23-6.26-.11-2.56,1.33-2.45,2.53-2.31,5.23.09,1.66-.22,3.47.29,5.08.58,1.82,2.42,2,2,4.08-.5,2.82-2.38,3.65-4.94,4.1a8,8,0,0,0-3.12,1,6.28,6.28,0,0,0-1.31,1.21c-.58.73-.21,1.33.21,2l.06.1c.2.35.35.93.73,1.13s1.47-.12,2-.15a7.69,7.69,0,0,1,2.77.47c2.41.72,5,0,7.47.46,1.37.27,4.88,2.26,6,2.06s2-1.63,2.92-2.37c.39-.33.78-.39.74-1a2.6,2.6,0,0,0-.71-1.31,11.73,11.73,0,0,0-2.43-1.87c-1.55-1.07-3.52-1.22-5.12-2.18-1.15-.69-1.36-1.63-1.51-2.89-.27-2.28.72-2.33,1.75-4C1026.79,59.48,1028.62,53.88,1025.93,51.26Z"/><path class="cls-99" d="M1010.4,169.52c.34,7.58.17,15.15.68,22.76a7.89,7.89,0,0,1,5.47-.16c2.72-15.8,11-31.57,16.84-46.26-9.52-4.67-17.58-3.79-27.3-5.34C1008,140.82,1010.28,166.91,1010.4,169.52Z"/><path class="cls-100" d="M985.12,142c13.12,3.4,25.84,8.29,39.41,9.78,6.63.73,12.46.58,18.67-1.78,1.23-.47,17-7.69,16.08-8.41-8.11-6.66-7.47-18-12.42-26.92S1034.59,98.57,1024.27,97c-1.47-8,3.09-13.85,7.14-20-5-5.64-14.12-4.83-21.74-4.06,1.49-.15,4.24,15.85,4.22,17.29-.06,6.17-3.4,5.13-7.78,7.44-4.71,2.48-8.91,7.39-11.71,11.81C988.39,119,985.69,130.84,985.12,142Z"/><path class="cls-99" d="M996,82.32c4.83,5.31,8.51,9.25,10.67,15.91a13.93,13.93,0,0,0,2-.57,2.56,2.56,0,0,0,0-.39c-.31-3.29-2.39-6-4.25-8.54a26.32,26.32,0,0,1-2.58-4.12,8.18,8.18,0,0,1-.85-2.12c-.09-.74.55-1.17,1-1.67.6-.67,1.14-1.38,1.81-2a31.38,31.38,0,0,1,6.36-4.77c.86-.47,1.75-.82,2.64-1.23a7.62,7.62,0,0,1,2.75-.87c0-.85.1-1.74.06-2.63-.49,0-.92,0-1.4,0a16.53,16.53,0,0,0-5.64,1.14,25.54,25.54,0,0,0-3.59,1.89,19.71,19.71,0,0,0-1.82,1.33A35.35,35.35,0,0,0,998.72,78C998.22,78.52,995.2,81.41,996,82.32Z"/><path class="cls-99" d="M1037.75,88.35c-3.12-4.57-5-10.15-9.11-13.88-2-1.81-4.55-2-3.21-4.74C1032.57,71,1035,77,1038,82.62c3.34,6.32,7.35,12.33,9.72,19.12.6,1.72,3.58,11.71,1,11.74C1047.55,105.07,1042.48,95.3,1037.75,88.35Z"/><path class="cls-98" d="M1019.31,52.85a4.31,4.31,0,0,0,.86.66c.82.33,1.74,0,2.44.68.87.86.48,1.79,1.72,2.2s2.48-.68,3.59.42c.49.48.35,1.71.88,1.95s1.62-.6,2-1c3.48-3.54-2.3-8.61-5.67-9.14-2.18-.35-4.09.75-6.09,1.3-1.53.43-4.27.86-3.39,3.15.68,1.76,1.93-.61,3-.57A1.47,1.47,0,0,1,1019.31,52.85Z"/><path class="cls-32" d="M1004.63,198.43c3,.37,6.73-2.49,8.6-4.81,4.29,1.39,6,4.66,11.07,4.35-1.45-3.05-6.06-5.06-7.57-8.74-2,.68-4-1-5.56-.62C1008,189.42,1004.34,195.24,1004.63,198.43Z"/><path class="cls-7" d="M1220.67,142.65c-10.9,6.94-23.16,8.95-36.59,10-9.8.79-32.52,3.22-40.41-3.91-10-9-3-50.73-4.55-64.63-.43-3.7-7.39-45.92-8.43-46,25.31,1.19,54-9,78.36-4.23-1.84,18.36-.59,36.16,1.7,54.45,2.75,21.94-4.5,36.67,17.16,48.69A52,52,0,0,1,1220.67,142.65Z"/><path class="cls-101" d="M1131.55,27.4c-17.94,5.25-3.21,14.65,5.6,23.89,6.27-5.1,5.06-3.17,3.41-10.17C1140.24,39.75,1132.24,27.2,1131.55,27.4Z"/><path class="cls-101" d="M1213.71,24c-14.61-11.67-13.84,5.79-16.34,18.31,7.78,2.2,5.5,2.32,10.29-3.05C1208.59,38.21,1214.27,24.44,1213.71,24Z"/><path class="cls-102" d="M1176.85,40.26a1.46,1.46,0,0,1-.79-.52,2.56,2.56,0,0,0-2.34-1.17,4.47,4.47,0,0,0-2.85.67c-.9.52-1.48,1.17-2.48.67s-1.39-1.35-2.57-1.28A1.9,1.9,0,0,0,1164,40.2c-.48,1.6-.17,1.51-2,1-1.67-.43-2.58.32-3.47,1.77-1.06,1.72-1.52,5,1.51,4.47-3.24.6-7,7.73-2.14,6.59-5,1.45-.72,5.77,2.47,6.16.21-.42.75-1,.91-1.34,1.94,3.71,5.06,3.55,7.76.81,1.34,5.1,5.56,1.62,8.84.83,4.47-1.07,9.38-2,6.61-8,.31-.12.65-.05,1-.21.89-2.75.26-6.59-2.87-7.38.21.05-.34-2.42-.41-2.59a6.71,6.71,0,0,0-1.69-2.53c-.53-.47-1.42-1.1-2.18-.79S1177.4,40.31,1176.85,40.26Z"/><path class="cls-99" d="M1171.33,44.54l-.18-.11c-1.69-1-3.06-.34-4.45.73-1.65,1.27-1.42,2.11-1,4a14.52,14.52,0,0,0,.85,3.57c.65,1.22,2,1.11,2,2.63,0,2.07-1.22,2.9-3,3.55a5.72,5.72,0,0,0-2.09,1.12,4.37,4.37,0,0,0-.78,1c-.31.58,0,1,.42,1.42l0,.06c.19.22.36.61.67.71s1-.28,1.41-.37a5.54,5.54,0,0,1,2,0c1.8.21,3.55-.66,5.36-.63,1,0,3.75,1,4.54.69s1.23-1.41,1.77-2c.23-.29.51-.38.4-.79a1.89,1.89,0,0,0-.67-.84,8.76,8.76,0,0,0-2-1c-1.23-.56-2.65-.42-3.91-.89-.91-.34-1.17-1-1.44-1.86-.48-1.58.21-1.75.73-3C1173,50.28,1173.57,46.07,1171.33,44.54Z"/><path class="cls-99" d="M1175.42,130.52c1.21,5.33,2.06,10.73,3.39,16.07a5.7,5.7,0,0,1,3.87-.81c-.09-11.57,3.76-23.83,6-35-7.35-2.1-13-.44-20.07-.3C1170,110.45,1175,128.67,1175.42,130.52Z"/><path class="cls-103" d="M1169,110.66c2.35,9.89,3.8,19.9,6.57,29.6,2.43.12,9.74,1.33,11.64-.36.89-.79.84-8.48,1.27-10.58a221.43,221.43,0,0,0,3.84-22.73c.7-7.13,1.38-14.35-3-20.31-8-10.8-17.64-7.92-10.74-24.16-4.28-3.37-10.63-1.62-15.93-.11,2.06-.4,5.59,12.47,5.37,14.57-.53,5-4,8.43-3.71,14.11s2.47,11.23,3.9,16.69C1168.42,108.47,1168.69,109.56,1169,110.66Z"/><path class="cls-99" d="M1154.05,70.43c4.12,3.15,7.24,5.48,9.62,9.93a10.75,10.75,0,0,0,1.38-.66,2.86,2.86,0,0,1-.07-.28c-.65-2.29-2.46-3.92-4.12-5.52a19.29,19.29,0,0,1-2.36-2.59,6,6,0,0,1-.87-1.4c-.16-.51.24-.9.5-1.31s.63-1.13,1-1.67a22.88,22.88,0,0,1,3.91-4.2c.55-.45,1.13-.8,1.72-1.21a5.34,5.34,0,0,1,1.84-1c-.14-.6-.15-1.25-.3-1.87a10,10,0,0,0-1,.21,12,12,0,0,0-3.86,1.53,17.65,17.65,0,0,0-2.31,1.8A15.74,15.74,0,0,0,1158,63.4a25.88,25.88,0,0,0-2.62,3.6C1155.13,67.45,1153.36,69.89,1154.05,70.43Z"/><path class="cls-99" d="M1184.46,69.38c-2.79-2.85-4.81-6.58-8.24-8.7-1.67-1-3.5-.86-2.88-3,5.22,0,7.72,3.92,10.57,7.55,3.19,4,6.8,7.81,9.35,12.33.65,1.14,4,7.86,2.23,8.21C1193.56,80,1188.71,73.7,1184.46,69.38Z"/><path class="cls-102" d="M1166.83,46.53a3.78,3.78,0,0,0,.7.35c.61.13,1.22-.23,1.81.18s.57,1.2,1.5,1.33,1.68-.8,2.61-.16c.41.28.47,1.18.88,1.28s1.07-.64,1.3-1c2-3-2.73-5.82-5.19-5.77-1.6,0-2.81,1.06-4.16,1.71-1,.5-2.92,1.16-2,2.67.7,1.16,1.28-.68,2-.79A1.11,1.11,0,0,1,1166.83,46.53Z"/><path class="cls-32" d="M1175,151.79c2.18-.12,4.46-2.63,5.49-4.52,3.23.44,4.86,2.54,8.42,1.67-1.42-2-5-2.82-6.49-5.24-1.32.74-3-.2-4,.27C1176.24,145,1174.41,149.56,1175,151.79Z"/><path class="cls-7" d="M1416.7,227.67c-16.89,6-34.07,4.87-52.55,2.16-13.47-2-44.91-5.78-53.34-17.86-10.64-15.23,11.78-69.43,14-88.7.59-5.14,4.33-64.32,3-64.71,33.8,9.5,75.77,4.72,107.14,18.71-8.21,24.21-12.07,48.64-14.67,74.05-3.13,30.49-17.51,48.12,8,71.11A73.32,73.32,0,0,1,1416.7,227.67Z"/><path class="cls-104" d="M1332.25,44.27c-25.87,1.51-8.9,18.79.11,34,10.07-4.94,7.83-2.7,7.78-12.68C1340.14,63.66,1333.24,44.22,1332.25,44.27Z"/><path class="cls-104" d="M1444.25,65.28c-16.1-20.31-20.49,3.5-27.77,19.63,9.83,5.4,6.71,4.85,14.85-.91C1432.92,82.87,1444.87,66.05,1444.25,65.28Z"/><path class="cls-102" d="M1389.41,75.75c-.26-.09-.55-.36-.9-1-.86-1.45-1-1.77-2.8-2.3a6.15,6.15,0,0,0-4.06,0c-1.37.42-2.36,1.11-3.55.12s-1.45-2.24-3.08-2.52a2.6,2.6,0,0,0-3,1.56c-1.16,2-.71,2-3,.75-2.12-1.09-3.59-.37-5.25,1.31-2,2-3.6,6.32.65,6.5-4.55-.2-11.82,8.28-4.93,8.24-7.16.42-2.77,7.57,1.41,9.09.42-.5,1.33-1.14,1.65-1.52,1.46,5.61,5.72,6.36,10.22,3.49.22,7.32,7,3.93,11.68,3.89,6.37-.06,13.3.17,11.4-8.69.46-.08.91.13,1.4,0,2.06-3.43,2.4-8.81-1.58-10.85.27.14.3-3.37.25-3.64a9.42,9.42,0,0,0-1.49-3.93c-.57-.8-1.57-1.93-2.7-1.75S1390.14,76,1389.41,75.75Z"/><path class="cls-99" d="M1380.62,79.82l-.2-.2c-2-1.86-4-1.42-6.25-.41-2.61,1.2-2.56,2.4-2.55,5.11,0,1.66-.39,3.46,0,5.09.49,1.85,2.32,2.11,1.85,4.17-.63,2.79-2.55,3.53-5.13,3.86a8.09,8.09,0,0,0-3.17.86,6.29,6.29,0,0,0-1.37,1.15c-.6.69-.27,1.31.12,2a.31.31,0,0,0,0,.1c.19.36.3.94.68,1.17s1.46-.05,2-.06a7.54,7.54,0,0,1,2.74.61c2.38.84,5,.22,7.44.82,1.36.34,4.77,2.49,5.92,2.35s2.1-1.53,3-2.23c.41-.31.81-.34.8-.94A2.68,2.68,0,0,0,1386,102a12.08,12.08,0,0,0-2.34-2c-1.49-1.14-3.45-1.39-5-2.42-1.12-.74-1.27-1.69-1.36-3-.16-2.29.83-2.29,1.94-3.87C1381.08,88.08,1383.17,82.57,1380.62,79.82Z"/><path class="cls-99" d="M1361.56,196.9c1.14,11.45,1.12,21.64-2.61,23a7.9,7.9,0,0,1,5.46.11c3.33,1.27,16.92-65,18.65-72-14.57,5.21-27-8.59-26.15,14.84C1357.06,167,1360.17,182.89,1361.56,196.9Z"/><path class="cls-105" d="M1362.68,155.48a11.25,11.25,0,0,0,2.53.94c11,2.32,23.46,1.94,33-3.64-4.08-2.46-5.27-7.68-7.86-11.63-3.48-5.33-11.27-11.56-12.36-18-.47-2.79,6.49-17.81,6.82-17.4-4.74-5.88-13.87-5.5-21.49-5.11,2.91.1,3.67,18.58,2.72,21.34-3.85,11.1-21.69,16.65-28.8,26.8-.34.32-.36.3,0,0,6.17-1.82,8.37,4.78,13.59,5.85,2.81.59,5.16-1.31,7.7-.89A17,17,0,0,1,1362.68,155.48Z"/><path class="cls-99" d="M1349.23,109.39c4.57,5.55,8.06,9.66,9.89,16.41a13.83,13.83,0,0,0,2.07-.46c0-.14,0-.27,0-.4-.15-3.29-2.1-6.07-3.84-8.74A26.31,26.31,0,0,1,1355,112a8.43,8.43,0,0,1-.74-2.15c0-.74.61-1.14,1.08-1.62.63-.64,1.21-1.32,1.91-1.93a30.46,30.46,0,0,1,6.58-4.45c.88-.44,1.78-.74,2.7-1.11a7.61,7.61,0,0,1,2.79-.74c0-.85.18-1.72.18-2.61a13.08,13.08,0,0,0-1.4,0,16.13,16.13,0,0,0-5.68.86,24.67,24.67,0,0,0-3.68,1.71c-.66.37-1.27.81-1.89,1.24a36.65,36.65,0,0,0-4.67,4C1351.61,105.7,1348.46,108.45,1349.23,109.39Z"/><path class="cls-99" d="M1390.62,117.44c-2.89-4.71-4.44-10.38-8.42-14.3-1.93-1.91-4.45-2.27-3-4.89,7.06,1.57,9.21,7.7,11.93,13.49,3,6.47,6.74,12.67,8.78,19.56.52,1.75,3,11.87.46,11.78C1399.6,134.61,1395,124.61,1390.62,117.44Z"/><path class="cls-102" d="M1373.93,81.09a4.34,4.34,0,0,0,.83.7c.79.37,1.73.08,2.39.8.83.91.41,1.8,1.62,2.28s2.51-.56,3.56.59c.47.51.27,1.73.79,2s1.65-.53,2.08-.93c3.64-3.36-1.88-8.71-5.22-9.4-2.17-.46-4.13.55-6.15,1-1.55.35-4.31.65-3.54,3,.59,1.8,2-.51,3-.42A1.48,1.48,0,0,1,1373.93,81.09Z"/><path class="cls-32" d="M1352.2,225.79c3,.52,6.84-2.16,8.82-4.39,4.22,1.6,5.78,4.95,10.86,4.89-1.31-3.12-5.81-5.36-7.14-9.1-2,.58-4-1.21-5.53-.9C1356,217,1352.07,222.59,1352.2,225.79Z"/><path class="cls-106" d="M908.23,718c-11.89.49-55.79,23.44-27.74,30.68,10.56,2.73,34.41-1,41.35,5.81-17.24,7.91-43.8,4.11-62.67,6.75,6.31,13.71,32,13.65,2.91,22.35-9.19,2.75-38.7,10.32-40.16-4-15.12-.74-30.9-4.44-45.67-3.57,7.35-14.94,18.65-12.67.44-27.79-11-9.1-23.69-12.35-35.74-19.66,18.42-14.76,60.88,2.5,83.51,0C852.48,725.44,879.93,718.63,908.23,718Z"/><path class="cls-50" d="M636.85,947.11c53-34.63,118.1-14.05,175.58-10.52a1104.23,1104.23,0,0,1,142,18.16c-30.71,5.29-65.41,1-95.25,9.83-32.69,9.68-34.86,34.92-75.29,27.1-23.38-4.53-43-20.46-64.82-29.78C692.37,950.53,666.67,946.71,636.85,947.11Z"/><path class="cls-94" d="M446.11,996.8c11.42,6.25,24.29,10.18,30.43,7.23-15.71,7.56-33.05,6.84-50.23,9.21-15.32,2.11-40.88-2.68-53.61,6.23,1.5,2,1.68,6.09,2.72,7.75-20.1,10.3-45.28-5.24-67.16,4.38,0-10.29,6.12-14.84-4.84-21.35-8.32-4.94-18.66-1.56-27.22-4.07,2.57.75,25.61-10.35,31-11.17,10.43-1.59,22.61.36,32.46-3.2-4.63-4.55-11.35-5.4-17.69-4.94,14.89-7.67,38.78-4.59,55.26-1.28,18.63,3.74,29.14-1.91,47.23-9C425.7,982.82,435.26,990.86,446.11,996.8Z"/><path class="cls-107" d="M300.15,732.69c12.48,6.31,28.55,8.17,42.24,8.26-11.81,7-27.1,9.46-42.55,9.22-14.58-.24-25-7.7-39.94-7.68-15.66,0-28.69-3.25-44.55-3.07-17,.18-30.29,3.15-46.94-1.92,7.76-5.7,23.62-3.85,29.78-12.27,3.37-4.65,1.57-12.82.68-17.87-1.15-6.55,34.12,18,34.82,18.3,13.3,5.6,21.95-3.32,33.89-5.58,15.64-3,17.67,4.43,30.93,11.74C299,732.12,299.59,732.41,300.15,732.69Z"/><path class="cls-106" d="M276.72,664.85c11.11-1.83,22.31-4.75,30.91-12.36,7.48,4,16.61,11.24,24.74,13.67,18.5,5.54,37.25-8.29,55.47-7.83,23.7.59,45.75,10.29,68.75,14.84,15.11,3,39.21,3.82,49.64,16.93-8.9-3-14.55,3.35-20.56,7.9-6.93,5.24-19.51,8.2-28.29,5,3.05-13.17-21.11-4.09-26.83-2.65-8.14,2.06-16.86,1.37-24.72,4.54-5.12,2.06-8.92,5.8-14.43,7-15.61,3.49-38.52-2.05-52.72-8.54-9.69-4.44-19-11.12-29.5-13.56-10.81-2.5-21.89,1-32.79-.45-12.18-1.62-22.22-10.35-34.64-12.08-7.44-1-28,1.65-32.64-4.3,12.62-7.36,37.55-3.76,52.64-6C266.54,666.28,271.62,665.68,276.72,664.85Z"/><path class="cls-15" d="M550.39,1019l2.5,0c45.81-.57,107.5,14.86,151.19,0,27.21-9.26-1-43.4-15.19-50.64-23.77-12.16-70.66-14-97.21-10.93-22.9,2.62-56.58,11.22-73.45,27.82C483.82,1019.14,524.08,1019.36,550.39,1019Z"/><path class="cls-108" d="M436.68,620.38c1.22,18.83,2.37,39.51-.12,54.68-.72,4.46-1.53,8.72-2.33,12.91-4.17,22-8.11,42.71.92,80L446,765.39c-8.47-35-4.91-53.69-.81-75.35.82-4.28,1.64-8.63,2.38-13.18,1.78-10.84,1.86-23.87,1.35-37.07A218,218,0,0,1,436.68,620.38Z"/><path class="cls-109" d="M446.6,636.44a138.89,138.89,0,0,1-.7,27.4c-1.46,12.18-3.53,23.89-8.41,35.23-2.41,5.59-5,11.09-7.39,16.65a143.67,143.67,0,0,0-.14,19c5.52,1.7,9.48,5.79,12.26,11.18-3.22-23.22-.33-38.61,2.94-55.86.82-4.28,1.64-8.63,2.38-13.18,1.78-10.84,1.86-23.87,1.35-37.07C448.11,638.68,447.36,637.56,446.6,636.44Z"/><path class="cls-110" d="M435.87,769.39c2.05.19,4.21-.66,6.16-1.17,1-.26,3.85-.65,4.43-1.66,1-1.78-1.44-8.78-3.9-5.81-1.08,1.29-.44,1.33-2,.51a2.1,2.1,0,0,0-1.55-.42c-.75.24-.38.54-.89,1-1.11,1-1.94-.31-3.17,0s-1.36,1.72-1.26,2.87l.12-1.13C433.78,765.6,433.35,769.15,435.87,769.39Z"/><path class="cls-111" d="M457.17,845c.09-11,3.41-35.15-7.1-39.72-11.87-5.17-8.88,13.33-8.9,22-.07,46.86,2.07,94.57-9,140.13a224.62,224.62,0,0,1-11.8,35.21c-2.18,5.05-6.4,10.45-3.64,16,2.63,5.28,10.23,3.94,13.53.93,15.71-14.35,18.76-55.84,21.14-77.44,3.21-28.93,5.75-59.08,5.7-88.85C457.13,850.45,457.15,847.71,457.17,845Z"/><path class="cls-111" d="M596.27,845c-.09-11-3.41-35.15,7.1-39.72,11.88-5.17,8.89,13.33,8.9,22,.08,46.86-2.06,94.57,9,140.13a223.62,223.62,0,0,0,11.81,35.21c2.18,5.05,6.4,10.45,3.63,16-2.62,5.28-10.23,3.94-13.52.93-15.71-14.35-18.76-55.84-21.15-77.44-3.2-28.93-5.75-59.08-5.7-88.85C596.32,850.45,596.3,847.71,596.27,845Z"/><path class="cls-111" d="M493.79,803.92c.09-11,3.41-35.15-7.1-39.73-11.87-5.16-8.88,13.34-8.89,22-.08,46.86,2.06,94.56-9,140.13A223.59,223.59,0,0,1,457,961.55c-2.18,5.05-6.4,10.45-3.64,16,2.63,5.27,10.24,3.94,13.53.93,15.71-14.35,18.76-55.85,21.15-77.44,3.19-28.93,5.74-59.08,5.69-88.85C493.75,809.34,493.77,806.6,493.79,803.92Z"/><path class="cls-111" d="M558.46,803.92c-.09-11-3.41-35.15,7.1-39.73,11.88-5.16,8.88,13.34,8.9,22,.08,46.86-2.06,94.56,9,140.13a223.62,223.62,0,0,0,11.81,35.21c2.17,5.05,6.4,10.45,3.63,16-2.62,5.27-10.23,3.94-13.53.93-15.71-14.35-18.76-55.85-21.14-77.44-3.2-28.93-5.75-59.08-5.7-88.85C558.51,809.34,558.49,806.6,558.46,803.92Z"/><path class="cls-111" d="M480.45,767c.91,1.13,2.32,1.67,4.58,1.2,5.2-1.1,5-6.46,5.19-10.71.25-5.68-1.52-11.1-2.07-16.69-.6-6-1.59-11.95-2.32-17.9-1.15-9.38-2.16-18.79-5.06-27.73-1.26-3.88-2.9-11.81-8.71-9.07-3.57,1.68-3.6,6.38-3.43,9.62.41,7.77,3.48,15,4.91,22.52.88,4.68,1.31,9.43,2,14.2a154.81,154.81,0,0,1,2.07,19.91C477.76,756.38,477.82,763.72,480.45,767Z"/><path class="cls-111" d="M575.46,767c-.91,1.13-2.32,1.67-4.58,1.2-5.2-1.1-5-6.46-5.19-10.71-.25-5.68,1.52-11.1,2.08-16.69.59-6,1.59-11.95,2.32-17.9,1.14-9.38,2.15-18.79,5-27.73,1.26-3.88,2.9-11.81,8.72-9.07,3.56,1.68,3.6,6.38,3.42,9.62-.41,7.77-3.48,15-4.9,22.52-.88,4.68-1.32,9.43-2.06,14.2a156.61,156.61,0,0,0-2.07,19.91C578.15,756.38,578.1,763.72,575.46,767Z"/><path class="cls-28" d="M494.12,708.65c8.74.18,17.41-.14,25,.33,23.17,1.42,54.12,3,73.78-12.07,21.29-16.38,69-93.83,26.54-110.35-25-9.73-56.33-9.8-83.13-12.37-35.14-3.37-66.45-.07-100,10.55-25.66,8.12-15.54,25.55-12,44.5,4.64,24.69,8.77,43.12,25.41,63.83C460.29,706.14,477.33,708.31,494.12,708.65Z"/><path class="cls-112" d="M437.76,627.89c4.72,9.32,14.66,17.42,22.21,21.14,30.77,15.16,105.53,23.41,118-20.67,11.06-39.14-40.17-37-63.68-36.42-19.93.51-64.45-3.24-76.53,16.31C433.76,614.69,434.56,621.57,437.76,627.89Z"/><path class="cls-113" d="M619.49,586.56c-11.41-4.44-24.15-6.86-37.16-8.43,8.59,4.86,16.12,11.47,20,20.86,6.82,16.45,0,34.26-10.44,47.57-40.27,51.22-120.39,44.57-163.72,1,3.89,16.2,9.35,30.22,21.61,45.48,10.5,13.07,27.54,15.24,44.33,15.58,8.74.18,17.41-.14,25,.33,23.17,1.42,54.12,3,73.78-12.07C614.24,680.53,661.92,603.08,619.49,586.56Z"/><path class="cls-114" d="M619.49,586.56a110.48,110.48,0,0,0-11.26-3.64,62.8,62.8,0,0,1,12,21c10.81,33.32-16.29,68.82-44.8,83.71-42.76,22.33-114.95,14-143.92-28.18a102.71,102.71,0,0,0,18.29,33.6c10.5,13.07,27.54,15.24,44.33,15.58,8.74.18,17.41-.14,25,.33,23.17,1.42,54.12,3,73.78-12.07C614.24,680.53,661.92,603.08,619.49,586.56Z"/><path class="cls-28" d="M642,799.07c0,23.74-51,43-114,43s-114-19.24-114-43,51-43,114-43S642,775.33,642,799.07Z"/><path class="cls-113" d="M604,767.06c5.35,10.63.86,24.12-11.91,29.7a106.44,106.44,0,0,1-39.68,8.34c-27.68.61-56.43-1.1-83.56-6.72-11.16-2.32-25.58-5.35-33.68-14.15a22,22,0,0,1-4.63-7.48C420,783.25,414,790.9,414,799.07c0,23.74,51,43,114,43s114-19.24,114-43C642,786.35,627.28,774.93,604,767.06Z"/><path class="cls-114" d="M632.31,781.78c.17,5.41-1.61,11.19-6,17.26-13.09,18.12-39.25,25.41-60.48,26.23h-.11c-7.12,1.38-14.24,2.32-21,3-32.44,3.09-68.64-1.37-98.86-13.63-11.23-4.56-23.72-10.29-31.19-20.24a16.83,16.83,0,0,0-.69,4.71c0,23.74,51,43,114,43s114-19.24,114-43C642,792.91,638.49,787.07,632.31,781.78Z"/><path class="cls-112" d="M508.36,777.75a151.52,151.52,0,0,1,30.28-1.3c9.86.51,39.79,11.76,48.09,3.56,7-7.09-14.17-11.41-17.84-12.18-32.3-6.78-74.3-9.18-105.47,3.7-7.32,3-17.48,7.65-9.37,16.07,9.91,10.28,26.25-1.74,36-5.3A95.33,95.33,0,0,1,508.36,777.75Z"/><path class="cls-108" d="M491,628c5.25-14.43,10.21-28.06,10.23-42.55,0-7.53-2.92-13.69-7.45-18.91a101.94,101.94,0,0,1-13.43,2.58c5.81,4.57,9.75,9.85,9.75,16.32,0,12.54-4.44,24.69-9.55,38.76-2.78,7.64-5.65,15.54-8,24.17-5.88,21.27-6.71,44.31-2.33,64.89.72,3.4,1.49,6.66,2.23,9.84,3.58,15.22,6.4,27.23,2.32,43.56-.83,3.32-1.73,6.69-2.64,10.09-4.87,18.26-9.91,37.13-7.07,56.84,2.25,15.63,10.56,30.38,18.58,44.65,2.49,4.41,4.93,8.76,7.11,13l9.9-5.08c-2.24-4.37-4.76-8.84-7.31-13.38C485.76,859.37,478,845.54,476,832c-2.52-17.46,2.22-35.21,6.81-52.39.92-3.46,1.83-6.89,2.68-10.26,4.73-19,1.32-33.45-2.28-48.8-.73-3.11-1.49-6.29-2.19-9.61-4-18.87-3.24-40,2.17-59.62C485.49,643.11,488.29,635.41,491,628Z"/><path class="cls-50" d="M538.17,828.23c1.23,9.51.21,19.67-.36,29-1.79,29.24-7,58.51-3.38,87.84,23.21-2.78,34.1-23.1,43.78-41.81C583.5,893,590.15,891.65,597.12,884c8-8.77,7.28-19,19.49-25,8.85-4.36,27.43,1.81,33.84-4.88,3.55-3.71,2.26-13.36,3.24-18.28,1.23-6.17,3.66-11.94,4.94-18a48.55,48.55,0,0,0-6.15-35.29c-9.19-14.68-22.47-15.87-38.35-18.22-11.48-1.7-21.18-1.35-32.15-5.92-9.87-4.12-19.23-8.94-30.21-6-5.3,1.4-11.52,5.39-16.41,4.94-7.37-.68-11.2-6.93-18.84-6.8-7.19.13-15.76,4.05-21.44,8.24,6.72,9.82,17.08,16,23.67,27.06s14.2,22.37,17.87,34.92A50.29,50.29,0,0,1,538.17,828.23Z"/><path class="cls-115" d="M559.52,804.23c2.26-17.31-.31-35.23-2.27-52.79a25.58,25.58,0,0,0-5.48.84c-5.3,1.4-11.52,5.39-16.41,4.94-7.37-.68-11.2-6.93-18.84-6.8-.5,0-1,.08-1.55.12C533.78,765.16,546.15,784.87,559.52,804.23Z"/><path class="cls-115" d="M598.84,790.28c14.49-3.81,27.56-10.67,34.75-22.33-5.89-1.86-12.42-2.68-19.46-3.72-3.32-.49-6.48-.82-9.57-1.14C604.8,772.32,602,781.22,598.84,790.28Z"/><path class="cls-115" d="M581.78,821.61c-.39-4.34-.35-9.06-.48-11.83C577,837.85,567.59,866,551.09,889.05c-1.21-9.48-1.32-19.21-2.64-28.69-2.23-15.91-3.91-29.07-12.71-42.37.29.88.62,1.75.88,2.65a50.29,50.29,0,0,1,1.55,7.59c1.23,9.51.21,19.67-.36,29-1.79,29.24-7,58.51-3.38,87.84,23.21-2.78,34.1-23.1,43.78-41.81C583.5,893,590.15,891.65,597.12,884c8-8.77,7.28-19,19.49-25,8.85-4.36,27.43,1.81,33.84-4.88,3.55-3.71,2.26-13.36,3.24-18.28,1.23-6.17,3.66-11.94,4.94-18a48.77,48.77,0,0,0-3.7-30.78c-10.36,13.69-24,19.46-38.34,27.49-6.12,3.41-12,7-18,10.69-5.64,3.43-11.29,10.54-14.77,4.9C582.66,828.2,582.09,825,581.78,821.61Z"/></g><rect class="cls-116" width="1920" height="1080"/></g></g></svg>