<svg xmlns="http://www.w3.org/2000/svg" viewBox="0 0 754.5 1287.63"><defs><style>.cls-1{fill:#29235c;}.cls-2{fill:#575756;}.cls-3{fill:#a7a7a7;}.cls-4{fill:#3142aa;}.cls-5{fill:#977763;}.cls-6{fill:#cea36b;}.cls-7{fill:#f1f1f1;}.cls-8{fill:#b8b8b7;}.cls-9{fill:#1d1d1b;}.cls-10{fill:#392f25;}</style></defs><g id="PERSONAJES"><path class="cls-1" d="M752.51,755.54c1,14.24,1.89,28.59.28,42.78-1.32,11.72-4.36,23.21-5.59,34.95-3,28.92,5.19,58.12,2.23,87-1.32,13-4.85,25.59-6.34,38.5v0c-3.18,7.86-13.12,10.94-21.69,12.6-5.34,1-10.72,2-16.09,2.88-1.91-21.34-1-42.87-.06-64.29q3.63-83.67,7.26-167.37a252.83,252.83,0,0,1,39.87,11C752.43,754.29,752.48,754.92,752.51,755.54Z"/><path class="cls-2" d="M748.64,705.62l.39,0c1.22,16,2.29,32.07,3.35,48.09a252.83,252.83,0,0,0-39.87-11c.12-2.82.25-5.65.37-8.48.62-14.11,1.22-28.25,1.67-42.41A172.06,172.06,0,0,1,748.64,705.62Z"/><path class="cls-1" d="M715.47,503.91C736,569.06,743.82,637.28,749,705.58l-.39,0a172.06,172.06,0,0,0-34.09-13.86c1.67-51.32,1.36-102.72-8-153.06-6.35-34-16.74-67.1-27.92-99.88C697.31,454.87,707.89,479.85,715.47,503.91Z"/><path class="cls-3" d="M541.49,441.9c-18.61-7.3-37.77-14.77-56.06-22a232.14,232.14,0,0,1,45.29-5.39q-1.85-4.83-3.87-9.58a247.48,247.48,0,0,0-14.66-28.92,372.74,372.74,0,0,0,107.45,40.67c16.15,3.4,32.9,5.85,47.31,13.91,1.41.79,2.78,1.63,4.12,2.5-13.14,6.62-28.87,21.07-41.76,36.35l-.48-.4c-22.15-7.72-51.44-13.07-75-22.36Z"/><path class="cls-1" d="M594.57,1132.69c14.51-43,34.39-86.38,28-130.3-1-6.74-2.59-13.39-4.21-20Q639.7,982,661,980c2.49,19.8,13.09,50.83,10.21,70.58-3.33,22.84-21.36,40.2-34.13,59.43-2.22,3.36-4.35,6.91-5.08,10.88-.89,4.73.31,9.59.6,14.41a39.69,39.69,0,0,1-17.84,34.93,35.59,35.59,0,0,1-3.12,1.8,175.09,175.09,0,0,1-28.73,4.12C585.38,1161.69,589.66,1147.21,594.57,1132.69Z"/><path class="cls-1" d="M580.74,1199.26c0-4.13.29-8.26.72-12.4a217.55,217.55,0,0,0,39.93-4.88,114.23,114.23,0,0,1,3.59,12q3,11.61,6,23.26c1.65,6.44,3.31,12.89,4.53,19.41,3.08,16.34,3.47,33.23,8.49,49.08v1H611.47c-.62-1.26-1.24-2.51-1.87-3.75-8.69-17-19.24-33.34-24.61-51.68A108.72,108.72,0,0,1,580.74,1199.26Z"/><path class="cls-1" d="M614.88,1170.41a37.63,37.63,0,0,1,6.51,11.57,217.55,217.55,0,0,1-39.93,4.88c.35-3.58.85-7.14,1.46-10.71a175.09,175.09,0,0,0,28.73-4.12,35.59,35.59,0,0,0,3.12-1.8Z"/><path class="cls-4" d="M527.59,623.42c5.65-58.84,10.54-122.46,13.9-181.52l12.31,4.82c23.59,9.29,52.88,14.64,75,22.36l.48.4c-8.74,10.37-16.15,21.14-20.55,30.09C597.86,521.75,591.9,546,586,570c-3.93,16-7.88,32.17-10.78,48.42h0A256.88,256.88,0,0,1,527.59,623.42Z"/><path class="cls-5" d="M510.82,743.51c14.22-5.19,31-1.74,45.65,2q12.3,3.19,24.62,6.34c.14.77.27,1.53.4,2.3.27,1.49.52,3,.77,4.51,2.68,16.22,4.46,33.39,4.27,49.68l.07.55A130,130,0,0,0,560,815.09,159.32,159.32,0,0,0,510.82,743.51Z"/><path class="cls-4" d="M473.46,859.83l9.47-5.66c5.37-3.23,10.14-6.28,14.55-9.14,19.48-12.67,31.91-22,59.34-28.85,1.08-.39,2.13-.74,3.17-1.09a130,130,0,0,1,26.61-6.16l-.07-.55c.19-16.29-1.59-33.46-4.27-49.68h0c38-21.1,85.61-24.55,130.21-16.05q-3.64,83.69-7.26,167.37c-.93,21.42-1.85,43,.06,64.29Q683.28,978,661,980q-21.28,1.93-42.69,2.37a603.23,603.23,0,0,1-66.68-2.27c-3.5-.3-7-.66-10.48-1a69.4,69.4,0,0,1-14.53-2.66c-4.8-1.61-9.3-4.21-14.29-5-7-1.16-14.06,1.27-21,2.69-11.75,2.38-23.88,1.86-35.85,1.19q-42.93-2.35-85.69-6.86a1.62,1.62,0,0,1,0-.2c-5.85-22.46-8-35.42-8.27-52.82A615.65,615.65,0,0,0,436.66,881C449.11,874.25,461.31,867.07,473.46,859.83Z"/><path class="cls-3" d="M712.51,742.65c-44.6-8.5-92.17-5-130.21,16.05h0c-.25-1.52-.5-3-.77-4.51-.13-.77-.26-1.53-.4-2.3-.23-1.27-.45-2.54-.68-3.8-2.36-13.3-4.72-26.66-6.51-40.06C616,683.84,668,678.35,714.55,691.76c-.45,14.16-1,28.3-1.67,42.41C712.76,737,712.63,739.83,712.51,742.65Z"/><path class="cls-4" d="M573.9,708a337.53,337.53,0,0,1-3-34.11c-.2-5.64-.22-11.28,0-16.92a276.86,276.86,0,0,1,4.39-38.63h0C578.13,602.12,582.08,586,586,570c5.89-24,11.85-48.2,22.75-70.38,4.4-8.95,11.81-19.72,20.55-30.09,12.89-15.28,28.62-29.73,41.76-36.35a72.14,72.14,0,0,1,7.53,5.69c11.18,32.78,21.57,65.86,27.92,99.88,9.39,50.34,9.7,101.74,8,153.06C668,678.35,616,683.84,573.9,708Z"/><path class="cls-4" d="M539.12,1184c12.63,2.53,27.53,3.41,42.34,2.91-.43,4.14-.69,8.27-.72,12.4a108.72,108.72,0,0,0,4.25,32.11c5.37,18.34,15.92,34.66,24.61,51.68.63,1.24,1.25,2.49,1.87,3.75H568.64C538.41,1267.1,528.67,1219.88,539.12,1184Z"/><path class="cls-4" d="M525.46,1183.63c4.32-1.64,9.14-.58,13.66.32-10.45,35.93-.71,83.15,29.52,102.85H539.2c-22.69-24.32-32.38-60.14-22.74-97.91.82-.4,1.62-.84,2.41-1.32C521,1186.21,523.07,1184.54,525.46,1183.63Z"/><path class="cls-4" d="M392.17,1102.38c1.82-14.25,2.83-28.49,1.14-42.7-2.43-20.38-10.31-39.65-15.94-59.4-4.62-16.2-5.4-17.74-7.61-31.88q42.75,4.49,85.69,6.86c12,.67,24.1,1.19,35.85-1.19,7-1.42,14-3.85,21-2.69,5,.83,9.49,3.43,14.29,5a69.4,69.4,0,0,0,14.53,2.66c3.48.36,7,.72,10.48,1,14.86,67.4,1.82,133.46-30.08,194.66a0,0,0,0,0,0,0c-.88.58-1.77,1.2-2.67,1.77-6.53,4-14.38,5.09-22,6.08l-37.15,4.82c-21.31,2.78-43.47,5.47-63.91-1.19-3.28-1.07-6.56-2.39-10-2.83v-.1C382.33,1156.44,388.7,1129.39,392.17,1102.38Z"/><path class="cls-2" d="M497.48,845A110.07,110.07,0,0,0,488,810a212.57,212.57,0,0,0-2.46-84.46,217.44,217.44,0,0,1,25.29,17.93A159.32,159.32,0,0,1,560,815.09c-1,.35-2.09.7-3.17,1.09C529.39,823.07,517,832.36,497.48,845Z"/><path class="cls-4" d="M401.76,1198.93c18.74,4.49,38.71,2,58-.47l37.15-4.82c6.68-.87,13.57-1.81,19.57-4.75-9.64,37.77,0,73.59,22.74,97.91H401.59Z"/><path class="cls-4" d="M443.85,604.61c24.6,13.76,53.27,19.06,81.46,18.85.77,0,1.52,0,2.28,0a256.88,256.88,0,0,0,47.63-5A276.86,276.86,0,0,0,570.83,657c-.2,5.64-.18,11.28,0,16.92h-.17c-79,18.67-130.16-12.77-130.16-12.77h-.42A451.35,451.35,0,0,1,443.85,604.61Z"/><path class="cls-4" d="M525.46,1172.62a19.24,19.24,0,0,0-3.9,2.14c31.9-61.2,44.94-127.26,30.08-194.66a603.23,603.23,0,0,0,66.68,2.27c1.62,6.63,3.23,13.28,4.21,20,6.43,43.92-13.45,87.28-28,130.3-4.91,14.52-9.19,29-11.65,43.46a170.58,170.58,0,0,1-43.8-3.21C534.6,1172,529.78,1171,525.46,1172.62Z"/><path class="cls-1" d="M497.48,845c-4.41,2.86-9.18,5.91-14.55,9.14l-9.47,5.66A224.93,224.93,0,0,0,488,810,110.07,110.07,0,0,1,497.48,845Z"/><path class="cls-5" d="M494.85,211.26c-1.66,7.25-10.46,20.67-16.45,25l-.46-.08a112.72,112.72,0,0,0,1.88-28.76c-.84-11.58-1.67-23.2-2.73-34.78q2.71-3,5-6.11a0,0,0,0,0,0,0c8.77-7.53,13.67-2.13,15.83,1.36s2.48,7.78,2.69,11.9C501.29,192.27,497.79,198.39,494.85,211.26Z"/><path class="cls-2" d="M440.86,43.43c4.5-2.29,10-4.55,14.29-1.94,2.17,1.3,3.55,3.6,4.82,5.81,11.58,20,27.78,43.43,32.64,66.05,4.28,20,.88,37.5-10.51,53.11a0,0,0,0,1,0,0q-2.28,3.09-5,6.11c-2.06-23.16-4.9-46.22-10-68.87-2-8.77-4.33-17.54-8.47-25.47a73.87,73.87,0,0,0-18.69-22.41c.87-4.55.58-8,.28-12.37Z"/><path class="cls-5" d="M428,47.24a109.51,109.51,0,0,1,12,8.61,73.87,73.87,0,0,1,18.69,22.41c4.14,7.93,6.5,16.7,8.47,25.47,5.11,22.65,7.95,45.71,10,68.87,1.06,11.58,1.89,23.2,2.73,34.78a112.72,112.72,0,0,1-1.88,28.76A127.51,127.51,0,0,1,467.2,268.6a164.09,164.09,0,0,1-14.73,24,278.86,278.86,0,0,1-20.57,24.67c-4.12,4.49-8.35,8.91-12.87,13-.55-8-.1-15.63,2.24-22.9,13-40.27,27.59-73.71,27.45-117.39-.17-52.75-15.06-104.75-38.54-152A126.26,126.26,0,0,1,428,47.24Z"/><path class="cls-5" d="M431.9,317.29a278.86,278.86,0,0,0,20.57-24.67l.17.12c-1,20.37-2,39.9-1.17,59.2.08,1.94.16,3.86.25,5.8.23,5.33.45,10.67.67,16l.22.08c-1.9,5.62-5.54,10.48-9.24,15.13-4.42,5.57-9.91,11.73-15.89,18.23,4.39-25.58-6.77-52.54-8.45-76.89C423.55,326.2,427.78,321.78,431.9,317.29Z"/><path class="cls-4" d="M440.1,661.15h.42s51.2,31.44,130.16,12.77h.17a337.53,337.53,0,0,0,3,34.11c1.79,13.4,4.15,26.76,6.51,40.06.23,1.26.45,2.53.68,3.8q-12.3-3.17-24.62-6.34c-14.66-3.78-31.43-7.23-45.65-2a217.44,217.44,0,0,0-25.29-17.93c-.74-.47-1.39-.88-2-1.27-10-6.53-22.19,8.55-31.08,16.54a68.8,68.8,0,0,1-5.44,4.57C442.46,716.33,440,688.93,440.1,661.15Z"/><path class="cls-2" d="M399.67,10.22c7.36-1.94,16.4-2,23.29,1.26a29.18,29.18,0,0,1,15,16.58c1.49,4.41,1.86,9.11,2.12,13.76,0,.57.07,1.12.1,1.66.3,4.37.59,7.82-.28,12.37a109.51,109.51,0,0,0-12-8.61,126.26,126.26,0,0,0-17.77-9.3c-.76-1.52-1.51-3-2.28-4.54a60.2,60.2,0,0,0-4.12-16.1A34.56,34.56,0,0,0,399.67,10.22Z"/><path class="cls-3" d="M488,810c-19.08-41.81-58.8-62.65-60.32-63.45,3.65,1.17,7.33,2.61,11,2.31a16.56,16.56,0,0,0,8.32-3.48,68.8,68.8,0,0,0,5.44-4.57c8.89-8,21.07-23.07,31.08-16.54.59.39,1.24.8,2,1.27A212.57,212.57,0,0,1,488,810Z"/><path class="cls-3" d="M408.19,37.12l.16-.44c-.15-1.12-.3-2.21-.45-3.28.77,1.51,1.52,3,2.28,4.54C409.51,37.65,408.86,37.39,408.19,37.12Z"/><path class="cls-6" d="M312.45,44.87a116.78,116.78,0,0,1,26-11.27,106.11,106.11,0,0,1,29.78-4.15c2.57,0,5.12.09,7.68.25a106,106,0,0,1,32.27,7.42c.67.27,1.32.53,2,.82,23.48,47.3,38.37,99.3,38.54,152.05.14,43.68-14.46,77.12-27.45,117.39-2.34,7.27-2.79,14.93-2.24,22.9A90.3,90.3,0,0,1,404.76,341s-9.75,10.33-36.52,10.33S331.72,341,331.72,341c-10.35-6.14-19-14.81-27.17-23.7a285.26,285.26,0,0,1-20.42-24.52,164.61,164.61,0,0,1-14.86-24.17,126.78,126.78,0,0,1-10.73-32.38,112.93,112.93,0,0,1-1.89-28.84c.74-10.27,1.49-20.57,2.38-30.84,2.11-24.49,5-48.88,10.36-72.81,2-8.77,4.32-17.54,8.47-25.47,6.83-13.09,18.22-23.23,30.64-31C309.82,46.42,311.15,45.62,312.45,44.87Z"/><path class="cls-3" d="M376.29.92c4.5-.2,9.12-.12,13.34,1.49a23.23,23.23,0,0,1,10,7.81,34.56,34.56,0,0,1,4.11,7.08,60.2,60.2,0,0,1,4.12,16.1c.15,1.07.3,2.16.45,3.28l-.16.44a106,106,0,0,0-32.27-7.42l0-.56c-4.27-8.09-8.37-15.2-15.65-20.64C363.92,3.38,370.08,1.2,376.29.92Z"/><path class="cls-4" d="M365.44,1199.42c6.31-1.91,12.39-5.41,19-5.11,4,.18,7.69,1.74,11.43,3q2.94,1,5.93,1.66l-.17,87.87H362.31l.17-86.62C363.47,1200,364.45,1199.72,365.44,1199.42Z"/><path class="cls-3" d="M368.89,1000.28c-3.62-12.68-5.49-20.1-7.28-32.75,2.71.3,5.42.58,8.15.87,2.21,14.14,3,15.68,7.61,31.88,5.63,19.75,13.51,39,15.94,59.4,1.69,14.21.68,28.45-1.14,42.7l-.65-.14q-3.79-.85-7.59-1.86c1.66-13.57,2.5-27.16.89-40.7C382.39,1039.3,374.51,1020,368.89,1000.28Z"/><path class="cls-3" d="M377.37,1183.33c-3.63-27.56,3.17-55.26,6.56-82.95q3.79,1,7.59,1.86l.65.14c-3.47,27-9.84,54.06-6.31,80.95v.1c-.49,0-1-.1-1.46-.12a22,22,0,0,0-6.79.87Z"/><path class="cls-4" d="M254.91,1186c-13.89-.27-26.66-6.58-39.78-11.45-31.94-61.22-45.78-154.31-22.5-221.06,6.43-.6,12.86-1.22,19.27-1.94a613.82,613.82,0,0,0,92-17.51c.7,7.55,1.5,9.76,2.26,17.53a11.62,11.62,0,0,0,10,10.39q22.69,3.12,45.46,5.61c1.79,12.65,3.66,20.07,7.28,32.75,5.62,19.75,13.5,39,15.93,59.4,1.61,13.54.77,27.13-.89,40.7-3.39,27.69-10.19,55.39-6.56,82.95l.24.85c-4.09,1.09-8.07,3-12.17,4.22-23.93,7.28-48.94-8.4-73.93-7.35C279.2,1181.57,267.23,1186.19,254.91,1186Z"/><path class="cls-3" d="M357.34,625.16c1-34.64,2.08-70.54,3.05-105.42,1.05.35,2.1.68,3.18,1a59.71,59.71,0,0,0,3-14.63c.2-2.54.23-5.12,1.12-7.51a40.55,40.55,0,0,1,2.17-4.32c-1,34.88-3.09,96.22-4.06,130.86-.56,20.19-1.09,40.66,3.49,60.32,4.84,20.64,19.05,56.71,21.31,77.78l0,.45c-2.84-.1-5.77-.4-8.67-.45-2.26-21.07-16.27-57.14-21.1-77.78C356.25,665.82,356.79,645.35,357.34,625.16Z"/><path class="cls-4" d="M407.27,442.87c-12,7.85-24.67,17.82-33.38,29.64,3.75-7.23,9.26-15,15.63-22.93,11.44-14.24,25.73-29.07,38-42.41,6-6.5,11.47-12.66,15.89-18.23,3.7-4.65,7.34-9.51,9.24-15.13a.69.69,0,0,1,.05-.13c1.72-5.21,1.75-11.23-.94-15.94-.09-1.94-.17-3.86-.25-5.8-.81-19.3.2-38.83,1.17-59.2-.44,23.33,24.13,35.15,38.39,52.8a250.64,250.64,0,0,1,21.16,30.51A247.48,247.48,0,0,1,526.85,405c-4.9-.68-16,.71-27.08,2.48C466,412.87,436,424.19,407.27,442.87Z"/><path class="cls-3" d="M338.28,32.94l-2.5-3.64c-2.06-3-4.16-6-7-8.15A18.35,18.35,0,0,0,321.62,18C327.13,10,337.36,5.62,346.93,5.22a19.24,19.24,0,0,1,7.28.84c2.34.8,4.8,1.47,6.09,2.44,7.28,5.44,11.38,12.55,15.65,20.64l0,.56c-2.56-.16-5.11-.25-7.68-.25a106.11,106.11,0,0,0-29.78,4.15Z"/><path class="cls-4" d="M370.68,487a81.67,81.67,0,0,1,2.28-9.82c6.59-7.53,15.46-14,23.58-20.15,15.56-11.82,37.25-21.63,55.76-27.9a292.83,292.83,0,0,1,33.13-9.19c18.29,7.19,37.45,14.66,56.06,22-3.36,59.06-8.25,122.68-13.9,181.52-.76,0-1.51,0-2.28,0-28.19.21-56.86-5.09-81.46-18.85a451.35,451.35,0,0,0-3.75,56.54c-.11,27.78,2.36,55.18,6.93,84.27a16.56,16.56,0,0,1-8.32,3.48c-3.71.3-7.39-1.14-11-2.31l-.05,0c-3.55-1.17-7.05-2.06-10.48-.85-6.64,2.36-8.52,11.13-14.26,15.24-3.56,2.55-7.82,2.9-12.27,2.75l0-.45c-2.26-21.07-16.47-57.14-21.31-77.78-4.58-19.66-4.05-40.13-3.49-60.32,1-34.64,3.09-96,4.06-130.86a10.66,10.66,0,0,0,1.31-3.9,6.49,6.49,0,0,0-.54-3.4Z"/><path class="cls-3" d="M373,477.18a49.41,49.41,0,0,0-5.18,7,3,3,0,0,0-.67-.24,63.64,63.64,0,0,1,6.78-11.41c8.71-11.82,21.33-21.79,33.38-29.64,28.68-18.68,58.71-30,92.5-35.42,11.06-1.77,22.18-3.16,27.08-2.48q2,4.75,3.87,9.58a232.14,232.14,0,0,0-45.29,5.39,292.83,292.83,0,0,0-33.13,9.19c-18.51,6.27-40.2,16.08-55.76,27.9C388.42,463.2,379.55,469.65,373,477.18Z"/><path class="cls-3" d="M361.61,967.53q-22.77-2.52-45.46-5.61a11.62,11.62,0,0,1-10-10.39c-.76-7.77-1.56-10-2.26-17.53q29.22-7.87,57.54-18.62c.25,17.4,2.42,30.36,8.27,52.82a1.62,1.62,0,0,0,0,.2C367,968.11,364.32,967.83,361.61,967.53Z"/><path class="cls-3" d="M360.39,519.74A137.81,137.81,0,0,1,345,513.48q6.71-6.33,13-13.07a9.69,9.69,0,0,0,2.62-4c.62-2.35-.53-4.81-.35-7.22.34-4.26,3.27-5.92,6-5.5.15.23.32.45.49.7l-.36-.69a.22.22,0,0,1,.11,0h0l.35.6a46.9,46.9,0,0,0-2.52,7.13,30.06,30.06,0,0,0-1.51,9.74,43,43,0,0,1,1.51-9.74,33.39,33.39,0,0,1,2.93-6.52v0c.15-.27.3-.54.46-.8a5.54,5.54,0,0,1,2.88,2.84,6.49,6.49,0,0,1,.54,3.4,10.66,10.66,0,0,1-1.31,3.9,40.55,40.55,0,0,0-2.17,4.32c-.89,2.39-.92,5-1.12,7.51a59.71,59.71,0,0,1-3,14.63C362.49,520.42,361.44,520.09,360.39,519.74Z"/><path class="cls-7" d="M347.3,451.24s16.95,9.77,42.22-1.66c-6.37,7.93-11.88,15.7-15.63,22.93a63.64,63.64,0,0,0-6.78,11.41,2.64,2.64,0,0,0-.55-.15h0c-1.66-2.79-2.48-5.14-4.36-7.4-4.06-7.58-10-15.88-16.85-24.4Z"/><path class="cls-3" d="M290.39,38.84c.54-6.78,6-13.55,11.87-16.88a31.9,31.9,0,0,1,13.22-4.36,22.19,22.19,0,0,1,6.14.39,18.35,18.35,0,0,1,7.12,3.16c2.88,2.16,5,5.19,7,8.15l2.5,3.64.18.66a116.78,116.78,0,0,0-26,11.27c-4.05-7.35-12.72-8.67-20.72-6.45Z"/><path class="cls-3" d="M291.73,38.42c8-2.22,16.67-.9,20.72,6.45-1.3.75-2.63,1.55-3.95,2.37-12.42,7.79-23.81,17.93-30.64,31-4.15,7.93-6.5,16.7-8.47,25.47-5.41,23.93-8.25,48.32-10.36,72.81-3.18-4.26-6.29-8.49-9.09-12.82-6.14-9.58-10.68-19.6-10.79-31.45-.07-7.13,1.72-14.15,3.74-21,6.23-21,15-41.59,29-58.28C277,47,283,41.32,290.39,38.84Z"/><path class="cls-4" d="M212.53,543.52c-3.14-38.59-13.75-63.56-15.88-100.9l-.15-.42c18.49-6.53,37.32-11.87,55.63-19.07A298.18,298.18,0,0,1,284,432c18.5,6.26,40.2,16.08,55.77,27.9,15.1,11.48,20.74,15.26,26.56,23.8-2.74-.42-5.67,1.24-6,5.5-.18,2.41,1,4.87.35,7.22a9.69,9.69,0,0,1-2.62,4q-6.28,6.75-13,13.07a137.81,137.81,0,0,0,15.37,6.26c-1,34.88-2.08,70.78-3.05,105.42-.55,20.19-1.09,40.66,3.5,60.32,4.83,20.64,18.84,56.71,21.1,77.78a29.47,29.47,0,0,0-5.25.28c-8.25,1.26-26,1.21-33.27,5.36-21.13,12.15-50.38,6.56-75.14,7a31.92,31.92,0,0,0-4.43-7,140.34,140.34,0,0,0,14.53-3.15c2.86-.72,5.87-1.57,7.86-3.76s2.56-5.29,3-8.21c.33-2.12.65-4.25,1-6.37a611.1,611.1,0,0,0,6.86-86.73,435.76,435.76,0,0,0-3.32-56.54c-17.84,10-37.84,15.52-58.24,17.71l16.67-52.77,10.54,3.36L283.13,544l-14.46-19.65-3.18,10,5.47,7.42-11.55,16.13-18.91-6L240.37,532l8.75-2.91,3.18-10-23.15,7.68.22,35,10.56,3.35L221.86,622.4v.44c-.57,0-1.13,0-1.7,0l0-1s-8.06-44.69-7.23-45.31a20.06,20.06,0,0,0,6.51-8.78A20.36,20.36,0,0,0,212.2,544Z"/><path class="cls-8" d="M268.67,524.32,283.13,544l-20.39,28.47-10.54-3.36-16.67,52.77c-4.54.48-9.09.82-13.66,1v-.44l18.07-57.22-10.56-3.35-.22-35,23.15-7.68-3.18,10L240.37,532l.13,19.83,18.91,6L271,541.75l-5.47-7.42Z"/><path class="cls-6" d="M283.63,376.57c-1.84-5.5-1.74-12,1.47-16.78.07-1.38.14-2.85.21-4.49.77-18.39-.12-40.05-1-59.68,0-1-.09-1.91-.14-2.85a285.26,285.26,0,0,0,20.42,24.52c8.19,8.89,16.82,17.56,27.17,23.7,0,0,9.74,10.33,36.52,10.33S404.76,341,404.76,341A90.3,90.3,0,0,0,419,330.28c1.68,24.35,12.84,51.31,8.45,76.89-12.23,13.34-26.52,28.17-38,42.41-25.27,11.43-42.22,1.66-42.22,1.66l-2,.73c-16.94-21.15-39.36-43.68-52.42-60.12C289.19,387.17,285.52,382.26,283.63,376.57Z"/><path class="cls-5" d="M241.24,747.76c6.89,7.6,16.27,13.35,22.61,21.14a31.92,31.92,0,0,1,4.43,7c-1,0-2.07,0-3.09.08-11.92.49-30.73,2.64-51.5,5.94q3.44-6.72,6.36-13.71c4.82-11.61,8.43-24.3,8.95-36.78C233.12,736.81,236.69,742.75,241.24,747.76Z"/><path class="cls-4" d="M230.29,1286.8c22.71-24.32,30.06-55.37,24.62-89.85,12.32.26,24.29-4.36,36.6-4.88,24-1,47.94,13.35,71,8.11l-.17,86.62Z"/><path class="cls-4" d="M254.91,1197c5.44,34.48-1.91,65.53-24.62,89.85h-28c30.36-19.62,39.11-58.38,32.28-93.88A67.13,67.13,0,0,0,254.91,1197Z"/><path class="cls-6" d="M239,167.82c2.16-3.49,6.85-5.73,10.41-3.77l.52-.33c2.8,4.33,5.91,8.56,9.09,12.82-.89,10.27-1.64,20.57-2.38,30.84a112.93,112.93,0,0,0,1.89,28.84c-6-4.29-14.79-17.71-16.45-25-2.94-12.87-6.44-19-5.79-31.54C236.52,175.6,236.84,171.3,239,167.82Z"/><path class="cls-4" d="M127.31,1158.71a38.11,38.11,0,0,0,13.47,11.7c4.76,1.86,13.13,3.68,18.08,4.65,15.5,3,31.57,3.07,46.78,7.32,9.84,2.74,19.3,7.26,29,10.54,6.83,35.5-1.92,74.26-32.28,93.88h-107v-1c5-15.85,5.41-32.74,8.49-49.08,1.22-6.52,2.89-13,4.55-19.41q3-11.65,6-23.26C116.43,1185.66,121.69,1165.29,127.31,1158.71Z"/><path class="cls-3" d="M108,418.87c3.52-.72,7-1.41,10.51-2.15a366.69,366.69,0,0,0,107.84-41.47l0,0a248.78,248.78,0,0,0-16.91,32.62q-2,4.74-3.85,9.55a233.75,233.75,0,0,1,46.56,5.69c-18.31,7.2-37.14,12.54-55.63,19.07-4.08,1.44-8.15,2.93-12.18,4.52-14,5.52-23.3,9.54-37.71,13.9l-1.27.74C126.17,427.89,108,418.87,108,418.87Z"/><path class="cls-4" d="M189.6,679.42c2.23-5.2,5.49-10.24,5.56-15.9.05-4.73-2.19-9.15-4.12-13.49a119.5,119.5,0,0,1-8.55-28.13A245.88,245.88,0,0,0,207.41,623l4.89,0c2.63,0,5.24,0,7.87-.1.57,0,1.13,0,1.7,0,4.57-.17,9.12-.51,13.66-1,20.4-2.19,40.4-7.73,58.24-17.71a435.76,435.76,0,0,1,3.32,56.54C296,661.28,250.64,685.08,189.6,679.42Z"/><path class="cls-3" d="M209.42,407.89c4.91-.71,16,.7,27.1,2.47,33.79,5.43,63.81,16.74,92.48,35.42C345,456.16,355,466,361.57,475.67c.41.59.81,1.17,1.19,1.76a73,73,0,0,1,3.68,6.32h-.13c-5.82-8.54-11.46-12.32-26.56-23.8C324.18,448.12,302.48,438.3,284,432a298.18,298.18,0,0,0-31.85-8.91,233.75,233.75,0,0,0-46.56-5.69Q207.4,412.63,209.42,407.89Z"/><path class="cls-4" d="M80.15,970c12.73,4,27.28-1.34,40.53-5.24,23.35-6.88,47.67-9,71.95-11.35-23.28,66.75-9.44,159.84,22.5,221.06-3.13-1.15-6.29-2.24-9.49-3.13-15.21-4.27-31.28-4.28-46.78-7.33s-30.8-8.89-38.66-22.59h0a36.91,36.91,0,0,1-.37-7.79c.3-4.82,1.49-9.67.61-14.41-.74-4-2.87-7.51-5.09-10.88-12.77-19.23-36-31.86-39.35-54.72C73.1,1033.92,77.65,989.82,80.15,970Z"/><path class="cls-4" d="M209.42,407.89a255.37,255.37,0,0,1,35.83-59.43c14.26-17.66,38.83-29.48,38.4-52.81l.62,0c.92,19.63,1.81,41.29,1,59.68-.07,1.64-.14,3.11-.21,4.49-3.21,4.82-3.31,11.28-1.47,16.78,1.89,5.69,5.56,10.6,9.29,15.28,13.06,16.44,35.48,39,52.42,60.12,6.85,8.52,12.79,16.82,16.85,24.4a6.49,6.49,0,0,0-.62-.7C355,466,345,456.16,329,445.78c-28.67-18.68-58.69-30-92.48-35.42C225.44,408.59,214.33,407.18,209.42,407.89Z"/><path class="cls-4" d="M189.6,679.42c61,5.66,106.38-18.14,107.49-18.74a611.1,611.1,0,0,1-6.86,86.73c-.32,2.12-.64,4.25-1,6.37-.46,2.92-1,6-3,8.21s-5,3-7.86,3.76a140.34,140.34,0,0,1-14.53,3.15c-6.34-7.79-15.72-13.54-22.61-21.14-4.55-5-8.12-11-12.24-16.3a45.31,45.31,0,0,0-8.72-9c-4.45-3.33-9.69-5.46-14.91-7.41q-8.76-3.27-17.69-6C185.82,700.13,186,687.79,189.6,679.42Z"/><path class="cls-4" d="M210.26,564.31a10.54,10.54,0,1,1-6.09-13.61A10.55,10.55,0,0,1,210.26,564.31Z"/><path class="cls-8" d="M196.65,570.38a10.53,10.53,0,1,0-6.09-13.59A10.55,10.55,0,0,0,196.65,570.38Zm3.21,10.5a20.29,20.29,0,0,1-19.56-17.29,20.08,20.08,0,0,1,1.1-10.29,20.34,20.34,0,1,1,38,14.51,20.06,20.06,0,0,1-6.51,8.78A20.29,20.29,0,0,1,199.86,580.88Z"/><path class="cls-8" d="M199.86,580.88a20.29,20.29,0,0,0,13-4.29c-.83.62,7.23,45.31,7.23,45.31l0,1c-2.63.1-5.24.11-7.87.1l-4.89,0s-6-42.06-7.55-42.06Z"/><path class="cls-4" d="M12.65,583.72a160.78,160.78,0,0,1,11.23-79.3l-1.24-.51c9-28.66,22.31-58.63,48.52-73.28,11.3-6.32,24-9.19,36.8-11.76,0,0,18.21,9,37.38,42.49C158,483.42,171,516.06,179.56,563.72c1,5.43,1.89,11,2.75,16.87l-.12,1.07A121.52,121.52,0,0,0,191,650c1.93,4.34,4.17,8.76,4.12,13.49-.07,5.66-3.33,10.7-5.56,15.9C67.76,646.2,4,688.51,2.59,689.47q.78-5.78,2.06-11.5C8.48,661,15.89,644.76,17,627.41,17.92,612.78,14.29,598.28,12.65,583.72Z"/><path class="cls-4" d="M180.3,563.59a20.29,20.29,0,0,0,19.56,17.29h0c1.51,0,7.55,42.06,7.55,42.06a245.88,245.88,0,0,1-24.92-1.05,120.26,120.26,0,0,1-.3-40.24l.12-1.07c-.86-5.82-1.76-11.44-2.75-16.87Z"/><path class="cls-4" d="M146.61,460.62c14.41-4.36,23.7-8.38,37.71-13.9,4-1.59,8.1-3.08,12.18-4.52l.15.42c2.13,37.34,12.74,62.31,15.88,100.9l-.33.45a20.31,20.31,0,0,0-30.8,9.33,20.08,20.08,0,0,0-1.1,10.29l-.74.13C171,516.06,158,483.42,145.34,461.36Z"/><path class="cls-4" d="M120.18,1141.46h0c7.86,13.7,23.14,19.56,38.66,22.59s31.57,3.06,46.78,7.33c3.2.89,6.36,2,9.49,3.13,13.12,4.87,25.89,11.18,39.78,11.45,12.32.23,24.29-4.39,36.6-4.91,25-1,50,14.63,73.93,7.35,4.1-1.24,8.08-3.13,12.17-4.22a22,22,0,0,1,6.79-.87c.49,0,1,.07,1.46.12,3.41.44,6.69,1.76,10,2.83,20.44,6.66,42.6,4,63.91,1.19l37.15-4.82c7.6-1,15.45-2.06,22-6.08.9-.57,1.79-1.19,2.67-1.77a0,0,0,0,1,0,0,19.24,19.24,0,0,1,3.9-2.14c4.32-1.64,9.14-.59,13.66.32a170.58,170.58,0,0,0,43.8,3.21c-.61,3.57-1.11,7.13-1.46,10.71-14.81.5-29.71-.38-42.34-2.91-4.52-.9-9.34-2-13.66-.32-2.39.91-4.42,2.58-6.59,3.94-.79.48-1.59.92-2.41,1.32-6,2.94-12.89,3.88-19.57,4.75l-37.15,4.82c-19.27,2.49-39.24,5-58,.47q-3-.71-5.93-1.66c-3.74-1.22-7.48-2.78-11.43-3-6.57-.3-12.65,3.2-19,5.11-1,.3-2,.55-3,.76-23,5.24-47-9.13-71-8.11-12.31.52-24.28,5.14-36.6,4.88a67.13,67.13,0,0,1-20.32-4c-9.65-3.28-19.11-7.8-29-10.54-15.21-4.25-31.28-4.27-46.78-7.32-5-1-13.32-2.79-18.08-4.65a38.11,38.11,0,0,1-13.47-11.7A40,40,0,0,1,120.18,1141.46Z"/><path class="cls-3" d="M61.07,733.38c-27,1.79-59.67,11.5-59.67,11.5h0c-.08-1.92-.13-3.83-.18-5.74-.45-16.57-.87-33.31,1.39-49.67,1.42-1,65.17-43.27,187-10.05-3.56,8.37-3.78,20.71-1.92,29.63a319.85,319.85,0,0,0-104-13.89,9.76,9.76,0,0,0-3.83.66c-2.51,1.19-3.53,4.39-3.08,7.13s1.89,4.89,3.36,7.08q-10.93-.16-21.89.32c-1.67.09-3.55.27-4.62,1.56s-.95,2.89-.68,4.42a21.7,21.7,0,0,0,14.86,16.8c-.5,0-1,0-1.52,0l-5.06-.81C61.18,732.7,61.12,733.05,61.07,733.38Z"/><path class="cls-6" d="M67.83,733.13A21.7,21.7,0,0,1,53,716.33c-.27-1.53-.3-3.23.68-4.42s3-1.47,4.62-1.56q10.95-.5,21.89-.32c-1.47-2.19-2.93-4.46-3.36-7.08s.57-5.94,3.08-7.13a9.76,9.76,0,0,1,3.83-.66,319.85,319.85,0,0,1,104,13.89q8.94,2.73,17.69,6c5.22,2,10.46,4.08,14.91,7.41a45.31,45.31,0,0,1,8.72,9c-.52,12.48-4.13,25.17-8.95,36.78q-2.91,7-6.36,13.71c-30.9,4.89-66.14,12.29-89.49,20.42a61.71,61.71,0,0,0-19.42-13.09c-4.53-1.94-9.3-3.33-13.72-5.52s-8.57-5.37-10.7-9.82-1.77-10.33,1.83-13.73l.45-1a57,57,0,0,1-11.58-6.78c-5.94-4.58-11-11.7-10-19,1.77-.1,3.51-.18,5.24-.23C66.81,733.13,67.33,733.13,67.83,733.13Z"/><path class="cls-4" d="M1.4,744.88s32.62-9.71,59.67-11.5c-1,7.33,4.05,14.45,10,19a57,57,0,0,0,11.58,6.78l-.45,1c-3.6,3.4-4,9.27-1.83,13.73s6.28,7.61,10.7,9.82,9.19,3.58,13.72,5.52a61.71,61.71,0,0,1,19.42,13.09c23.35-8.13,58.59-15.53,89.49-20.42,20.77-3.3,39.58-5.45,51.5-5.94,1,0,2.06-.07,3.09-.08,24.76-.47,54,5.12,75.14-7,7.23-4.15,25-4.1,33.27-5.36a29.47,29.47,0,0,1,5.25-.28c2.9,0,5.83.35,8.67.45,4.45.15,8.71-.2,12.27-2.75,5.74-4.11,7.62-12.88,14.26-15.24,3.43-1.21,6.93-.32,10.48.85l.05,0c1.52.8,41.24,21.64,60.32,63.45a224.93,224.93,0,0,1-14.53,49.79c-12.15,7.24-24.35,14.42-36.8,21.17a615.65,615.65,0,0,1-75.2,34.38Q333.16,926.09,303.92,934a613.82,613.82,0,0,1-92,17.51c-6.41.72-12.84,1.34-19.27,1.94-24.28,2.3-48.6,4.47-71.95,11.35-13.25,3.9-27.8,9.22-40.53,5.24a27.6,27.6,0,0,1-4.44-1.81C65.37,962.89,59.86,951.54,55.06,941c-18.86-41.54-38-84.44-39.73-130-.42-11.38.2-23.11-3.92-33.72-2.06-5.27-5.22-10.08-7.16-15.42s-2.58-11.14-2.87-16.9Z"/><path class="cls-9" d="M368.24,352.15c-25.83,0-36-9.4-37.05-10.5-9.82-5.85-18-13.74-27.25-23.79a283.91,283.91,0,0,1-20.48-24.59A164.57,164.57,0,0,1,268.52,269a127.79,127.79,0,0,1-10.8-32.61,114.28,114.28,0,0,1-1.9-29.05c.71-9.88,1.47-20.4,2.38-30.86,1.74-20.29,4.5-46.93,10.37-72.91,1.92-8.53,4.29-17.54,8.55-25.68,6.14-11.78,16.55-22.32,30.94-31.33,1.54-1,2.81-1.72,4-2.4a118,118,0,0,1,26.2-11.34,107,107,0,0,1,29.82-4.18c2.69,0,5.25.08,7.92.25a107.4,107.4,0,0,1,32.53,7.47l2,.83a127,127,0,0,1,17.89,9.37,110.06,110.06,0,0,1,12.05,8.66,74.76,74.76,0,0,1,18.91,22.67c4.27,8.2,6.63,17.19,8.54,25.68,4.45,19.72,7.54,41,10,69C479,184,479.81,195.66,480.63,207l0,.37a112.86,112.86,0,0,1-1.88,29A128.54,128.54,0,0,1,468,269a164.8,164.8,0,0,1-14.8,24.14,278,278,0,0,1-20.63,24.74c-3.41,3.71-8,8.56-12.93,13a91.3,91.3,0,0,1-14.31,10.75C404.19,342.75,394.05,352.15,368.24,352.15ZM368,30.29a104.07,104.07,0,0,0-29.35,4.12,116.42,116.42,0,0,0-25.82,11.18c-1.15.67-2.4,1.42-3.93,2.37-14.12,8.85-24.34,19.18-30.34,30.69-4.17,8-6.5,16.85-8.4,25.27-5.84,25.88-8.59,52.44-10.34,72.69-.9,10.44-1.67,21-2.37,30.83a112.3,112.3,0,0,0,1.88,28.62A126,126,0,0,0,270,268.23a162.15,162.15,0,0,0,14.79,24h0a282.08,282.08,0,0,0,20.36,24.45c9.18,10,17.28,17.79,27,23.54a.65.65,0,0,1,.18.15c.1.1,9.89,10.06,35.92,10.06s35.81-10,35.91-10.06a.65.65,0,0,1,.18-.15,89.46,89.46,0,0,0,14.14-10.61c4.91-4.44,9.43-9.24,12.82-12.93a275.9,275.9,0,0,0,20.5-24.6,162.46,162.46,0,0,0,14.66-23.9A126.78,126.78,0,0,0,477.12,236,110.88,110.88,0,0,0,479,207.44l0-.37c-.82-11.28-1.66-22.94-2.7-34.39-2.48-27.91-5.56-49.11-10-68.76-1.89-8.39-4.22-17.25-8.4-25.28a73,73,0,0,0-18.49-22.15A110.49,110.49,0,0,0,427.51,48a126.29,126.29,0,0,0-17.66-9.24c-.66-.28-1.31-.55-2-.81a105.61,105.61,0,0,0-32-7.36C373.23,30.37,370.64,30.28,368,30.29Z"/><path class="cls-9" d="M259,177.37a.83.83,0,0,1-.67-.33c-2.88-3.86-6.21-8.35-9.12-12.87-7.46-11.62-10.83-21.46-10.93-31.89-.07-7.57,1.91-14.93,3.78-21.22,7.36-24.81,16.9-44,29.17-58.58,6.48-7.7,12.48-12.29,18.87-14.43l1.36-.43c7.52-2.09,17.16-1.39,21.69,6.84a.83.83,0,1,1-1.46.81c-4.07-7.37-12.88-8-19.76-6-.43.13-.86.26-1.3.41-6.08,2-11.84,6.46-18.12,13.92C260.42,68,251,87,243.7,111.53c-2.28,7.67-3.78,14.13-3.72,20.73.1,10.1,3.39,19.66,10.66,31,2.89,4.48,6.19,8.94,9.06,12.77a.83.83,0,0,1-.67,1.34Z"/><path class="cls-9" d="M290.39,39.68h-.06a.84.84,0,0,1-.77-.9c.6-7.59,6.79-14.42,12.29-17.55a32.47,32.47,0,0,1,13.57-4.46,22.83,22.83,0,0,1,6.37.4,19.18,19.18,0,0,1,7.45,3.31c3,2.25,5.15,5.35,7.23,8.35l2.5,3.63a.84.84,0,0,1-.22,1.16.82.82,0,0,1-1.16-.21l-2.5-3.63c-2-2.89-4.08-5.87-6.85-8a17.53,17.53,0,0,0-6.79-3,21.06,21.06,0,0,0-5.91-.37,30.89,30.89,0,0,0-12.87,4.24c-5.29,3-10.92,9.56-11.44,16.23A.84.84,0,0,1,290.39,39.68Z"/><path class="cls-9" d="M376,30a.84.84,0,0,1-.74-.44c-4.22-8-8.29-15-15.41-20.36a18,18,0,0,0-4.43-1.85l-1.43-.47a18.07,18.07,0,0,0-7-.79c-10.21.42-19.65,5.18-24.66,12.41l-.1.12a.84.84,0,0,1-1.44-.58.82.82,0,0,1,.2-.54c5.3-7.63,15.23-12.64,25.92-13.09a20,20,0,0,1,7.59.88l1.41.47a18.56,18.56,0,0,1,4.92,2.1c7.39,5.53,11.57,12.74,15.88,20.92a.83.83,0,0,1-.35,1.13A.89.89,0,0,1,376,30Z"/><path class="cls-9" d="M408.35,37.52a.84.84,0,0,1-.83-.72c-.15-1.12-.3-2.21-.45-3.28A58.7,58.7,0,0,0,403,17.63a33.08,33.08,0,0,0-4-6.9,22.41,22.41,0,0,0-9.67-7.54c-4.16-1.59-8.71-1.63-13-1.44C369.5,2.07,364.06,4.63,361,9a.84.84,0,0,1-1.17.2.82.82,0,0,1-.2-1.16C363,3.24,368.9.42,376.25.08c4.47-.2,9.23-.15,13.67,1.55a24,24,0,0,1,10.41,8.09A35.05,35.05,0,0,1,404.55,17a60.69,60.69,0,0,1,4.18,16.32c.15,1.07.3,2.16.45,3.28a.84.84,0,0,1-.72.94Z"/><path class="cls-9" d="M439.92,56.68h-.16a.84.84,0,0,1-.66-1A41.73,41.73,0,0,0,439.4,44l-.13-2.14c-.27-4.69-.64-9.25-2.09-13.54a28.55,28.55,0,0,0-14.57-16.1C416.49,9.34,408,8.89,399.88,11a.84.84,0,0,1-.43-1.62c8.49-2.23,17.41-1.74,23.87,1.31a29.81,29.81,0,0,1,15.45,17.07c1.52,4.49,1.89,9.18,2.17,14l.13,2.12A42.7,42.7,0,0,1,440.74,56,.83.83,0,0,1,439.92,56.68Z"/><path class="cls-9" d="M477.06,173.49a.79.79,0,0,1-.59-.25.81.81,0,0,1-.09-1.07.38.38,0,0,1,.09-.13c1.73-1.92,3.39-3.95,4.94-6a.83.83,0,1,1,1.34,1c-1.57,2.12-3.25,4.18-5,6.13a.58.58,0,0,1-.1.12A.81.81,0,0,1,477.06,173.49Z"/><path class="cls-9" d="M482.09,167.3a.82.82,0,0,1-.49-.16.84.84,0,0,1-.18-1.17c11.24-15.41,14.64-32.56,10.37-52.44-3.92-18.24-15.45-37.35-25.63-54.21-2.43-4-4.74-7.85-6.91-11.61-1.1-1.9-2.46-4.26-4.53-5.5-3.88-2.35-9-.32-13.48,2a.84.84,0,1,1-.76-1.49c4.9-2.49,10.53-4.67,15.1-1.91,2.44,1.46,3.92,4,5.12,6.11,2.17,3.74,4.46,7.54,6.89,11.57,10.25,17,21.86,36.21,25.83,54.73,4.38,20.37.89,38-10.65,53.77A.83.83,0,0,1,482.09,167.3Z"/><path class="cls-9" d="M258.54,237.06a.84.84,0,0,1-.48-.16c-6.13-4.38-15.07-17.94-16.78-25.45-.86-3.74-1.75-6.85-2.6-9.85-2.06-7.21-3.68-12.91-3.22-21.93.25-4.63.63-8.76,2.84-12.3,2.32-3.74,7.5-6.26,11.53-4.05a.83.83,0,1,1-.81,1.46c-3.19-1.75-7.38.39-9.3,3.48s-2.35,7.1-2.58,11.5c-.46,8.74,1.13,14.32,3.15,21.38.82,2.88,1.75,6.15,2.62,9.94,1.62,7.08,10.35,20.34,16.12,24.46a.82.82,0,0,1,.19,1.16A.84.84,0,0,1,258.54,237.06Z"/><path class="cls-9" d="M478.4,237.06a.84.84,0,0,1-.68-.36.82.82,0,0,1,.19-1.16c5.76-4.12,14.5-17.38,16.12-24.46.87-3.78,1.8-7.05,2.62-9.92,2-7.07,3.6-12.65,3.14-21.4-.19-3.6-.43-8.07-2.57-11.5-1.72-2.77-3.72-4.34-6-4.69-2.52-.38-5.39.77-8.53,3.45l-.06.07a.87.87,0,0,1-.59.24.85.85,0,0,1-.85-.84.88.88,0,0,1,.22-.57l.1-.09c3.57-3.07,6.91-4.38,10-3.91,2.75.42,5.15,2.26,7.13,5.46,2.37,3.79,2.62,8.5,2.82,12.29.48,9-1.14,14.73-3.2,21.94-.86,3-1.74,6.1-2.6,9.84C494,219,485,232.52,478.88,236.9A.84.84,0,0,1,478.4,237.06Z"/><path class="cls-9" d="M365.2,491.72l-1.62-.43a46.37,46.37,0,0,1,2.57-7.26l.2-.44A63.45,63.45,0,0,1,373.22,472c7.48-10.16,18.78-20.2,33.59-29.84,28.31-18.44,58.67-30.06,92.83-35.54,14.12-2.27,23.06-3.08,27.33-2.48l-.11.77v.89h-.14c-4-.56-13.07.27-26.83,2.48-33.91,5.44-64.07,17-92.18,35.29C393.08,453.1,381.93,463,374.57,473a62.24,62.24,0,0,0-6.69,11.27l-.2.45A44.75,44.75,0,0,0,365.2,491.72Z"/><path class="cls-9" d="M363.72,501.28l-1.68,0a31.17,31.17,0,0,1,1.55-10l1.6.49A42.34,42.34,0,0,0,363.72,501.28Z"/><path class="cls-9" d="M365.18,491.76l-1.59-.51a35,35,0,0,1,3-6.69l1.45.83A33.47,33.47,0,0,0,365.18,491.76Z"/><path class="cls-9" d="M368.06,485.35l-1.47-.8c.16-.3.32-.57.49-.84a49.59,49.59,0,0,1,5.25-7.09c6-6.86,13.79-12.75,21.32-18.45l2.38-1.81c13.67-10.38,34.09-20.59,56-28a298.34,298.34,0,0,1,33.22-9.21,235.38,235.38,0,0,1,44.26-5.39c-1.1-2.85-2.25-5.68-3.43-8.42a246,246,0,0,0-14.61-28.83,248.58,248.58,0,0,0-21.09-30.41c-4.34-5.38-9.74-10.3-15-15.05-11.76-10.7-23.92-21.76-23.61-38.3l1.68,0c-.3,15.78,11,26.1,23.06,37,5.27,4.8,10.72,9.76,15.14,15.24a251.52,251.52,0,0,1,21.23,30.61,247,247,0,0,1,14.71,29c1.34,3.12,2.64,6.35,3.88,9.6l.42,1.12-1.19,0a230.62,230.62,0,0,0-45.13,5.37,292.84,292.84,0,0,0-33,9.16c-21.75,7.37-42,17.5-55.53,27.77l-2.38,1.81c-7.46,5.65-15.18,11.49-21.08,18.23a48.67,48.67,0,0,0-5.08,6.86C368.34,484.85,368.2,485.1,368.06,485.35Z"/><path class="cls-9" d="M451.55,373.76l0-.64q-.31-7.67-.65-15.34l-.25-5.81c-.77-18.58.12-37.18,1.06-56.88l.11-2.39,1.67.08-.11,2.39c-.94,19.66-1.83,38.23-1.06,56.73l.25,5.81q.34,7.67.65,15.34l0,.64Z"/><path class="cls-9" d="M374.64,472.89l-1.49-.77c3.45-6.65,8.59-14.19,15.72-23.07,8.87-11.05,19.34-22.32,29.46-33.22,2.91-3.14,5.78-6.22,8.54-9.23,7.15-7.77,12-13.37,15.84-18.18s7.26-9.39,9.1-14.88l0-.1c1.82-5.48,1.49-11.18-.86-15.28a11.31,11.31,0,0,0-.77-1.22l1.36-1a14.32,14.32,0,0,1,.87,1.37c2.62,4.56,3,10.62,1,16.6l0,.11c-1.94,5.77-5.7,10.78-9.39,15.41-3.83,4.84-8.74,10.47-15.92,18.27-2.76,3-5.63,6.1-8.54,9.24-10.1,10.88-20.55,22.13-29.38,33.13C383.11,458.89,378,466.34,374.64,472.89Z"/><path class="cls-9" d="M366.65,485.46a2.6,2.6,0,0,1-.25-.36l-.16-.23-.4-.68,1.44-.84.36.6.15.23c.06.09.12.18.2.28l.16.22V485h-.85Z"/><path class="cls-9" d="M365.83,484.2c-.6-1-1.09-1.95-1.56-2.86a23.18,23.18,0,0,0-2.72-4.43,7,7,0,0,0-.57-.65c-.28-.32-.57-.58-.87-.87l1.15-1.21c.34.31.66.62.94.93a7.77,7.77,0,0,1,.65.75,24.26,24.26,0,0,1,2.91,4.71c.46.89.93,1.8,1.5,2.77Z"/><path class="cls-9" d="M285.35,373.78l-1.67-.07c.22-5.12.37-8.57.56-12.71,0-.35,0-.77,0-1.19.07-1.44.13-2.91.2-4.54.76-18.29-.09-39.48-1-59.61l-.06-1.36c0-.5-.05-1-.07-1.48l1.67-.09c0,.49,0,1,.07,1.49l.06,1.35c.95,20.18,1.81,41.41,1,59.77-.07,1.64-.13,3.11-.2,4.49,0,.45,0,.84,0,1.21C285.72,365.21,285.57,368.66,285.35,373.78Z"/><path class="cls-9" d="M283.47,374c-1.68-5.09-2-8.73.89-13.37.22-.37.5-.79.83-1.26l1.36,1c-.3.42-.55.8-.76,1.15-2.62,4.15-2.32,7.16-.73,12Z"/><path class="cls-9" d="M374.7,428.21a38.68,38.68,0,0,1-19.64-22l1.58-.55a37,37,0,0,0,18.79,21.06Z"/><path class="cls-9" d="M364.09,521.8l-.77-.24c-1.08-.34-2.14-.67-3.2-1a136.92,136.92,0,0,1-15.46-6.3l-1.1-.52.89-.84c4.61-4.35,9-8.74,13-13a9,9,0,0,0,2.44-3.6,9.27,9.27,0,0,0-.11-3.73,13.63,13.63,0,0,1-.27-3.33,6.9,6.9,0,0,1,2.43-5.12,5.86,5.86,0,0,1,4.48-1.16l.19,0,.15,0a3.68,3.68,0,0,1,.63.17,4.11,4.11,0,0,1,.78.28,6.42,6.42,0,0,1,3.29,3.26,7.22,7.22,0,0,1,.61,3.81,11.22,11.22,0,0,1-1.39,4.21L370,496a23,23,0,0,0-1.45,3,21.15,21.15,0,0,0-1,6l-.09,1.26A60,60,0,0,1,364.36,521Zm-17.61-8.55a136.91,136.91,0,0,0,14.17,5.69c.79.27,1.58.52,2.38.78a58.19,58.19,0,0,0,2.73-13.65l.09-1.24a17.52,17.52,0,0,1,2.63-9.67l.67-1.25a9.67,9.67,0,0,0,1.21-3.58,5.71,5.71,0,0,0-.45-3,4.84,4.84,0,0,0-2.46-2.44,2.64,2.64,0,0,0-.51-.18l-.11,0a2.3,2.3,0,0,0-.35-.1l-.3,0a4.13,4.13,0,0,0-3.24.8,5.37,5.37,0,0,0-1.8,3.94,12.44,12.44,0,0,0,.25,2.93,10.49,10.49,0,0,1,.07,4.43,10.38,10.38,0,0,1-2.83,4.32C354.88,505,350.79,509.15,346.48,513.25Zm19.71-28.7h0Zm0,0,.05,0Z"/><path class="cls-9" d="M376.54,1183.44c-2.75-20.9.5-42.18,3.65-62.75,1-6.69,2.08-13.61,2.91-20.41,2-16.35,2.27-28.84.89-40.5-1.71-14.32-6.21-28.36-10.56-41.94-1.81-5.66-3.69-11.52-5.35-17.33-3.71-13-5.55-20.49-7.3-32.86l0-.21c0-.35-.08-.71-.14-1.07l1.66-.26c.06.38.1.76.15,1.13l0,.19c1.73,12.25,3.56,19.65,7.25,32.62,1.65,5.78,3.52,11.63,5.33,17.28,4.38,13.65,8.91,27.77,10.63,42.25,1.4,11.8,1.13,24.41-.88,40.91-.84,6.82-1.9,13.75-2.93,20.45-3.12,20.46-6.36,41.62-3.64,62.28Z"/><path class="cls-9" d="M381.11,763.35c-1.39-13-7.41-32.13-12.72-49-3.35-10.68-6.52-20.76-8.37-28.65-4.63-19.86-4.06-40.53-3.52-60.53.47-16.73,1-33.75,1.47-50.8.54-18.27,1.08-36.59,1.58-54.63l1.67,0c-.5,18-1,36.36-1.57,54.63-.51,17.05-1,34.07-1.47,50.8-.55,19.88-1.11,40.45,3.47,60.1,1.84,7.82,5,17.88,8.34,28.53,5.33,17,11.38,36.21,12.79,49.35Z"/><path class="cls-9" d="M385,1183.44c-2.74-20.9.5-42.18,3.65-62.77.92-6,1.87-12.27,2.66-18.4,1.49-11.67,3-27,1.14-42.49-1.71-14.32-6.21-28.36-10.56-41.94-1.82-5.66-3.7-11.52-5.35-17.33-.71-2.49-1.33-4.64-1.88-6.54-3-10.32-3.88-13.43-5.76-25.44h0l0-.13,1.63-.41,0,.21c1.88,12,2.69,14.8,5.73,25.3.55,1.9,1.17,4,1.88,6.55,1.65,5.79,3.52,11.63,5.33,17.28,4.38,13.65,8.9,27.77,10.63,42.25,1.86,15.63.37,31.14-1.14,42.9-.79,6.15-1.74,12.4-2.67,18.45-3.12,20.46-6.35,41.63-3.64,62.29Z"/><path class="cls-9" d="M389.8,763.35c-1.39-12.91-7.44-32-12.77-48.78-3.43-10.77-6.66-21-8.52-28.9-4.63-19.86-4.07-40.53-3.52-60.53.48-17.11,1.25-41.17,2-64.44.78-24,1.57-48.77,2.07-66.42l1.67,0c-.49,17.66-1.29,42.46-2.06,66.44-.75,23.26-1.53,47.32-2,64.43-.54,19.88-1.1,40.45,3.48,60.1,1.85,7.88,5.07,18,8.48,28.78,5.62,17.71,11.44,36,12.84,49.1Z"/><path class="cls-9" d="M371.51,487.12l-1.66-.24a87.63,87.63,0,0,1,2.3-9.95l.14-.43.19-.57,1.58.56-.17.52-.14.43A81.6,81.6,0,0,0,371.51,487.12Z"/><path class="cls-9" d="M446.2,745.55c-4.84-30.86-7.05-57.68-6.93-84.41A450.76,450.76,0,0,1,443,604.5l.16-1.22,1.08.6c22.35,12.5,50.35,18.94,81,18.74.77,0,1.52,0,2.27,0a259,259,0,0,0,47.49-5l.31,1.64a258.57,258.57,0,0,1-47.77,5.07c-.75,0-1.52,0-2.29,0-30.49.26-58.36-6.11-80.78-18.35a446.13,446.13,0,0,0-3.59,55.21c-.11,26.64,2.09,53.37,6.92,84.14Z"/><path class="cls-9" d="M521.41,680.63c-50,0-80.93-18.53-81.33-18.77l.88-1.43c.51.32,51.85,31.05,129.53,12.67l.38,1.63A214.69,214.69,0,0,1,521.41,680.63Z"/><path class="cls-9" d="M365.31,456c-11.21,0-18-3.79-18.43-4l.83-1.45c.17.09,16.92,9.41,41.47-1.69l.69,1.52A59.36,59.36,0,0,1,365.31,456Z"/><path class="cls-9" d="M628.55,469.87c-9.68-3.38-20.58-6.26-32.12-9.31-14.58-3.85-29.65-7.83-42.94-13.07q-6.11-2.37-12.3-4.81l-22.36-8.76c-11.35-4.43-22.69-8.87-33.71-13.2l.61-1.56c11,4.34,22.36,8.77,33.71,13.21l22.36,8.75,12.3,4.82c13.2,5.19,28.23,9.17,42.76,13,11.57,3.06,22.5,5.95,32.24,9.35Z"/><path class="cls-9" d="M528.42,623.5l-1.67-.16c5.73-59.58,10.54-122.34,13.91-181.49l.05-.81,1.67.1,0,.81C539,501.12,534.15,563.9,528.42,623.5Z"/><path class="cls-9" d="M522.3,1175.15l-1.48-.77c33.94-65.13,44-130.44,30-194.1l0-.1a.9.9,0,0,1,0-.18h.84l.82-.17v.09h0C566.58,1044,556.43,1109.66,522.3,1175.15Z"/><path class="cls-9" d="M279.06,767l-.4-1.63c2.77-.68,5.63-1.51,7.45-3.5s2.34-4.8,2.8-7.78l1.32-18.31,1.67.12-1.32,18.38c-.51,3.31-1.13,6.41-3.23,8.72S282.08,766.27,279.06,767Z"/><path class="cls-9" d="M146.85,461.43l-.48-1.61c11.74-3.55,20-6.84,30.36-11l7.28-2.89c3.64-1.44,7.63-2.92,12.21-4.53,7.23-2.55,14.63-5,21.79-7.29,11.15-3.63,22.68-7.39,33.82-11.76l.61,1.55c-11.19,4.4-22.74,8.16-33.92,11.8C211.38,438,204,440.44,196.78,443c-4.56,1.6-8.54,3.08-12.16,4.5l-7.27,2.89C166.91,454.55,158.66,457.85,146.85,461.43Z"/><path class="cls-9" d="M214.39,1174.9c-16.13-30.92-27.51-69.54-32-108.75-4.87-42.12-1.58-81.19,9.5-113l1.58.55c-11,31.55-14.26,70.35-9.41,112.23,4.51,39,15.83,77.42,31.86,108.16Z"/><path class="cls-9" d="M22,505.2l-.77-1.48.75-.4c8.28-26.17,21.32-58.06,48.8-73.42,11.27-6.31,24-9.21,37.05-11.85,1.27-.27,2.55-.52,3.83-.78l6.67-1.36a368.34,368.34,0,0,0,107.59-41.38l.84,1.45a369.86,369.86,0,0,1-108.08,41.56c-2.22.47-4.45.92-6.69,1.37l-3.83.78c-13,2.62-25.5,5.48-36.56,11.67-27.08,15.13-39.95,46.85-48.13,72.8l-.11.33Z"/><path class="cls-9" d="M140.27,1171.32l-.13-.3a39.17,39.17,0,0,1-13.51-11.82,40.9,40.9,0,0,1-7.28-17.62,37.63,37.63,0,0,1-.37-8c.09-1.47.26-2.95.43-4.39.4-3.41.78-6.62.18-9.81-.73-3.94-2.94-7.52-5-10.57-4.57-6.89-10.59-13-16.41-18.94-10.28-10.45-20.9-21.26-23.07-36.13-3.34-22.89,3.39-77.67,4.17-83.85l1.66.21c-3.5,27.71-6.68,66.18-4.17,83.39,2.09,14.33,12,24.47,22.6,35.21,5.88,6,12,12.16,16.62,19.18,2.1,3.19,4.42,6.95,5.21,11.19.64,3.44.23,6.94-.16,10.32-.17,1.41-.34,2.87-.43,4.3a35.63,35.63,0,0,0,.36,7.6,39,39,0,0,0,7,16.89,37.43,37.43,0,0,0,13.18,11.45l.26.13.37.84Z"/><path class="cls-9" d="M644.83,1287.63H94.42l0-2.11c3.16-10,4.5-20.54,5.79-30.79.76-6,1.54-12.16,2.67-18.18,1.19-6.32,2.82-12.66,4.39-18.79l.18-.68,6-23.26c2.24-8.66,7.47-28.93,13.22-35.65l.65.52.59.6h0c-5.45,6.38-10.8,27.12-12.82,34.93s-4,15.5-6,23.27l-.18.68c-1.57,6.1-3.19,12.41-4.36,18.68-1.13,6-1.91,12.13-2.66,18.08-1.3,10.28-2.64,20.9-5.81,31v.06H643.15v-.06c-3.17-10.06-4.51-20.69-5.81-31-.76-6-1.53-12.11-2.66-18.08-1.22-6.5-2.9-13-4.52-19.36q-3-11.65-6-23.27a118.41,118.41,0,0,0-3.56-12,36.93,36.93,0,0,0-6.36-11.31l1.27-1.09a38.49,38.49,0,0,1,6.66,11.81,119.06,119.06,0,0,1,3.61,12.14q3,11.63,6,23.26c1.63,6.35,3.32,12.91,4.55,19.47,1.13,6,1.91,12.2,2.67,18.18,1.29,10.24,2.63,20.83,5.79,30.79l0,.26Z"/><path class="cls-9" d="M425.09,1191.26a94.88,94.88,0,0,1-29.51-4.2l-2.11-.71a39.06,39.06,0,0,0-7.72-2.09c-.47,0-.92-.09-1.38-.11a20.88,20.88,0,0,0-6.54.84c-2.2.59-4.42,1.43-6.57,2.24-1.82.69-3.69,1.4-5.58,2-14,4.26-28.55.74-42.63-2.67-10.33-2.5-21-5.07-31.5-4.64a112.55,112.55,0,0,0-16.67,2.42c-6.5,1.29-13.23,2.61-20,2.49-11.33-.22-22-4.45-32.4-8.54-2.51-1-5.1-2-7.66-3-3.68-1.36-6.68-2.35-9.43-3.11-8.82-2.48-18.13-3.54-27.13-4.56-6.44-.73-13.11-1.49-19.58-2.76-20-3.9-32.46-11.21-39.23-23l1.45-.83c6.51,11.33,18.61,18.38,38.1,22.19,6.41,1.26,13,2,19.45,2.74,9.07,1,18.44,2.09,27.39,4.61,2.8.77,5.84,1.77,9.56,3.15,2.58,1,5.18,2,7.69,3,10.22,4,20.8,8.21,31.82,8.42,6.57.12,13.21-1.18,19.63-2.45a112.16,112.16,0,0,1,16.92-2.45c10.72-.46,21.52,2.16,32,4.69,14.5,3.5,28.19,6.82,41.76,2.69,1.83-.55,3.68-1.25,5.47-1.93a69,69,0,0,1,6.72-2.29,22.32,22.32,0,0,1,7.05-.9c.48,0,1,.06,1.46.11a41.13,41.13,0,0,1,8.12,2.17c.69.24,1.38.48,2.07.7,20.68,6.75,43.45,3.78,63.54,1.16l37.15-4.82c7.11-.93,15.17-2,21.65-6,.57-.36,1.14-.74,1.7-1.13.2-.12.39-.25.58-.38v-.39h.59a18.57,18.57,0,0,1,3.87-2.09c4.39-1.67,9.1-.73,13.66.19l.45.09a169.73,169.73,0,0,0,43.59,3.2,177.73,177.73,0,0,0,28.5-4.08c1-.52,2-1.1,2.94-1.71,11.25-7.27,18.27-21,17.46-34.18-.08-1.46-.26-2.95-.43-4.39-.39-3.35-.8-6.82-.16-10.23.79-4.24,3.11-8,5.22-11.18,3.35-5.06,7.12-10,10.76-14.88,10.23-13.55,20.8-27.56,23.23-44.22,1.88-12.91-2.15-31.12-5.72-47.19-1.87-8.44-3.64-16.42-4.49-23.16l1.66-.21c.84,6.66,2.6,14.6,4.47,23,3.59,16.21,7.66,34.58,5.74,47.8-2.49,17.08-13.2,31.26-23.55,45-3.63,4.81-7.38,9.78-10.71,14.79-2,3-4.23,6.63-5,10.57-.59,3.16-.22,6.35.18,9.73.17,1.46.35,3,.43,4.48a40.23,40.23,0,0,1-18.22,35.68,34.65,34.65,0,0,1-3.18,1.85l-.2.07A177.88,177.88,0,0,1,583,1177a171.28,171.28,0,0,1-44-3.23l-.45-.09c-4.32-.87-8.79-1.77-12.74-.27a17.12,17.12,0,0,0-3.38,1.82h0l-.38.25-.93.62c-.58.39-1.17.79-1.76,1.16-6.79,4.18-15,5.25-22.31,6.2l-37.16,4.82C448.81,1189.72,437,1191.26,425.09,1191.26Z"/><path class="cls-9" d="M425,1202.25a100.46,100.46,0,0,1-23.47-2.51c-2-.46-4-1-6-1.67l-2.16-.73a33.13,33.13,0,0,0-9.06-2.19c-4.45-.21-8.63,1.39-13.06,3.07-1.83.7-3.72,1.42-5.62,2-.94.28-1.93.54-3,.78-13,3-26.53-.3-39.6-3.46-10.33-2.5-21-5.08-31.51-4.64a112.16,112.16,0,0,0-16.64,2.42c-6.51,1.28-13.25,2.6-20,2.47-6.18-.12-12.71-1.41-20.56-4.08-4-1.34-7.92-2.9-11.75-4.42a176,176,0,0,0-17.17-6.11c-8.81-2.46-18.1-3.51-27.08-4.53-6.46-.73-13.14-1.49-19.63-2.77-3.75-.73-13-2.65-18.22-4.69l.61-1.56c5.08,2,14.23,3.89,17.93,4.61,6.42,1.26,13.07,2,19.5,2.75,9,1,18.4,2.08,27.34,4.58a177.15,177.15,0,0,1,17.33,6.16c3.82,1.51,7.77,3.07,11.67,4.4,7.69,2.61,14.06,3.87,20.07,4,6.6.15,13.23-1.18,19.66-2.44a111.77,111.77,0,0,1,16.89-2.45c10.72-.45,21.53,2.16,32,4.68,13.47,3.26,26.19,6.33,38.83,3.46,1-.23,2-.48,2.91-.76,1.84-.55,3.7-1.26,5.51-1.95,4.39-1.67,8.92-3.41,13.73-3.19a34.59,34.59,0,0,1,9.52,2.29l2.13.72c1.94.63,3.91,1.18,5.86,1.63,18.93,4.54,39.52,1.87,57.68-.48l37.15-4.82c6.25-.81,13.33-1.74,19.31-4.67.84-.42,1.6-.84,2.34-1.29s1.23-.8,1.85-1.22a23.9,23.9,0,0,1,4.88-2.78c4.4-1.67,9.11-.72,13.67.19l.45.09c12.1,2.42,26.68,3.42,42.15,2.9a215.47,215.47,0,0,0,39.78-4.87l.37,1.63a216.25,216.25,0,0,1-40.09,4.91c-15.61.53-30.31-.48-42.54-2.93l-.45-.09c-4.32-.87-8.79-1.77-12.74-.27a22.15,22.15,0,0,0-4.54,2.61c-.64.42-1.27.85-1.91,1.26s-1.6.92-2.49,1.36c-6.22,3.06-13.45,4-19.82,4.83l-37.16,4.82C448.84,1200.72,437,1202.25,425,1202.25Z"/><path class="cls-9" d="M172.7,1112.73l-2.35-1.83c-9.54-7.38-19.08-15.17-28.35-23.15-10.28-8.84-21.92-19.33-30-32.09-12-18.87-16.08-42.05-19.67-62.5l1.65-.29c3.56,20.3,7.6,43.3,19.43,61.89,8,12.57,19.53,23,29.72,31.72,8.46,7.28,17.14,14.4,25.83,21.2-4.25-10-10.45-19.24-16.46-28.19-4.05-6-8.24-12.27-11.82-18.72a131.61,131.61,0,0,1-16.14-53.87l1.67-.12A130,130,0,0,0,142.1,1060c3.55,6.38,7.72,12.59,11.75,18.6,6.63,9.87,13.49,20.08,17.79,31.38Z"/><path class="cls-9" d="M545.38,1159.49l-.54-1.59A179.7,179.7,0,0,0,594.07,1132a183,183,0,0,0,58.68-73l1.53.67a184.82,184.82,0,0,1-59.22,73.63A181.46,181.46,0,0,1,545.38,1159.49Z"/><path class="cls-9" d="M478.32,1111.37c-28.59,0-58-1.8-86.33-8.18-.19,0-.42-.08-.66-.13-2.52-.57-5.08-1.2-7.61-1.87-49.27-12.88-88.54-39.37-110.57-74.57l1.42-.89c21.8,34.84,60.72,61.07,109.58,73.84,2.5.67,5.05,1.29,7.55,1.86l.59.12c47.41,10.67,97.88,8.47,142.41,6.53l.07,1.68C516.73,1110.54,497.71,1111.37,478.32,1111.37Z"/><path class="cls-9" d="M202.76,1287.5l-.91-1.41c21.42-13.83,41.05-45.53,31.92-93l1.64-.32c3.58,18.61,2.82,37-2.21,53.3C227.69,1263.87,217.16,1278.2,202.76,1287.5Z"/><path class="cls-9" d="M230.9,1287.37l-1.22-1.14c21.84-23.38,30.05-53.38,24.4-89.14l1.66-.27C261.46,1233.13,253.11,1263.59,230.9,1287.37Z"/><path class="cls-9" d="M568.34,1287.6l-.2-.13c-14.24-9.28-25-25.56-30.32-45.8-4.92-18.81-4.74-39.93.49-58l1.61.46c-12.68,43.63,4.88,86.08,29.18,101.92l-.36.76.45-.7.15.1Z"/><path class="cls-9" d="M538.59,1287.37c-23.67-25.36-32.24-62.25-22.94-98.69l1.62.41c-9.16,35.89-.73,72.2,22.54,97.14Z"/><path class="cls-9" d="M185.92,1225.44a4.4,4.4,0,0,1-3.06-1.22c-2.1-1.93-2.85-5.64-2.85-8.47a142.13,142.13,0,0,1,1.79-22l1.65.27a140,140,0,0,0-1.76,21.74c0,2.55.71,5.78,2.3,7.24a2.77,2.77,0,0,0,2.21.76c1.7-.14,3-1.77,4-3.17a52,52,0,0,0,7.46-16.34l1.61.42a53.33,53.33,0,0,1-7.7,16.87c-1.18,1.71-2.85,3.69-5.24,3.89Z"/><path class="cls-9" d="M281.34,1221.09a2.28,2.28,0,0,1-1.94-.95,3.64,3.64,0,0,1-.16-3l.23-.78q1.92-6.57,3.86-13.14l1.61.47q-1.95,6.57-3.86,13.13l-.23.78c-.16.59-.32,1.25-.07,1.62s1.48.16,2.37-.4a24.31,24.31,0,0,0,9.92-13.4l1.61.46a26,26,0,0,1-10.62,14.34A5.32,5.32,0,0,1,281.34,1221.09Z"/><path class="cls-9" d="M479.53,1235.57l-.86-.17a29.55,29.55,0,0,1-22.89-24.5l1.66-.21a27.87,27.87,0,0,0,20.7,22.88,94.37,94.37,0,0,0-1.15-33.21l1.64-.35a96.13,96.13,0,0,1,1,34.69Z"/><path class="cls-9" d="M591.53,1212.7l-1.56-2.33a45.16,45.16,0,0,0-9.74-10.45,43.28,43.28,0,0,0-4.31-3l.87-1.43a44.89,44.89,0,0,1,4.47,3.09,46.76,46.76,0,0,1,8.38,8.43,26.28,26.28,0,0,0-4.22-11.39l1.39-.94a28,28,0,0,1,4.69,15.19Z"/><rect class="cls-9" x="319.09" y="1242.65" width="86.61" height="1.67" transform="translate(-881.94 1602.98) rotate(-89.87)"/><rect class="cls-9" x="357.74" y="1242.03" width="87.87" height="1.67" transform="translate(-842.12 1641.64) rotate(-89.87)"/><path class="cls-9" d="M295.83,1168.3a40.63,40.63,0,0,1-9.28-26.28,23.23,23.23,0,0,0-7.9,21.08l-1.65.26a24.88,24.88,0,0,1,10-23.78l1.43-1-.11,1.74a39,39,0,0,0,8.83,26.91Z"/><path class="cls-9" d="M456.36,1173l-.51-1.59c4.06-1.32,7.11-4.74,10.06-8.05l1.54-1.71c4.94-5.38,9.75-7.76,14.28-7.09l.79.11-1.68,17.48-1.67-.16,1.53-15.86c-3.74-.19-7.78,2-12,6.65-.51.55-1,1.12-1.53,1.69C464.06,1167.93,460.86,1171.52,456.36,1173Z"/><path class="cls-9" d="M212.53,544.36a.84.84,0,0,1-.83-.77c-1.51-18.56-4.79-34.11-8-49.15-3.51-16.65-6.82-32.38-7.92-51.78a.83.83,0,0,1,.78-.88.87.87,0,0,1,.89.79c1.09,19.26,4.39,34.93,7.89,51.52,3.18,15.09,6.47,30.69,8,49.36a.85.85,0,0,1-.77.91Z"/><path class="cls-9" d="M684.91,877.66c-12.79-19.77-26-40.2-45.51-54.07-16.3-11.62-33-16-52.71-13.83a128.13,128.13,0,0,0-26.44,6.12l-.52.18c-.86.29-1.74.59-2.62.91l-.57-1.58c.9-.32,1.78-.62,2.65-.91l.53-.18a129.43,129.43,0,0,1,26.79-6.2c20.09-2.24,37.2,2.25,53.86,14.13,19.75,14,33.67,35.55,46,54.52Z"/><path class="cls-9" d="M605.62,983.34c-18.08,0-36.21-.8-54.06-2.41-3.06-.26-6.3-.58-10.49-1a70,70,0,0,1-14.7-2.7c-1.77-.59-3.52-1.32-5.2-2a41.6,41.6,0,0,0-9-3c-5.32-.87-10.83.42-16.16,1.67-1.5.35-3.05.71-4.57,1-11.54,2.34-23.16,1.93-36.07,1.21-28.39-1.57-57.24-3.87-85.73-6.87-2.73-.28-5.44-.57-8.15-.87-15.48-1.71-30.78-3.59-45.48-5.61a12.42,12.42,0,0,1-10.7-11.14c-.37-3.82-.76-6.32-1.13-8.73s-.77-5-1.13-8.8l1.67-.15c.35,3.78.72,6.17,1.12,8.7s.76,5,1.14,8.82a10.74,10.74,0,0,0,9.26,9.64c14.69,2,30,3.9,45.43,5.61,2.71.3,5.42.58,8.15.87,28.46,3,57.28,5.3,85.65,6.85,12.79.72,24.29,1.13,35.63-1.17,1.5-.3,3-.66,4.53-1,5.48-1.29,11.16-2.62,16.81-1.69a42.66,42.66,0,0,1,9.34,3.09c1.66.69,3.38,1.41,5.09,2a66.78,66.78,0,0,0,14.35,2.62c4.18.45,7.4.76,10.46,1a603,603,0,0,0,66.59,2.28c14-.28,28.37-1.08,42.64-2.38,14.84-1.35,29.73-3.27,44.23-5.68,5.6-.92,11-1.89,16.07-2.87,7.53-1.46,17.92-4.3,21.07-12.1l1.55.63c-3.45,8.55-14.38,11.58-22.3,13.11-5.08,1-10.5,2-16.11,2.88-14.55,2.42-29.48,4.34-44.36,5.7-14.31,1.3-28.69,2.1-42.76,2.38Q612,983.34,605.62,983.34Z"/><path class="cls-9" d="M743.64,961.57l-1.65-.23c.08-.88.17-1.73.27-2.61.71-6.24,1.92-12.49,3.09-18.53,1.26-6.52,2.56-13.27,3.25-20,1.47-14.36.15-29.07-1.12-43.3s-2.62-29.19-1.11-43.75c.63-6.07,1.77-12.16,2.86-18,1-5.53,2.09-11.25,2.73-16.91,1.62-14.25.65-28.68-.29-42.63,0-.62-.08-1.25-.13-1.87-1.06-16.16-2.12-32-3.35-48.08-5-65.26-12.47-134.83-33.52-201.49-6.69-21.25-16.91-47.81-36.61-64.71a72.67,72.67,0,0,0-7.45-5.63c-1.38-.89-2.75-1.72-4.07-2.46-12.13-6.79-26.18-9.61-39.77-12.33-2.44-.49-4.88-1-7.3-1.49a372.31,372.31,0,0,1-107.7-40.76l-1.4-.8.83-1.46,1.4.81A370.49,370.49,0,0,0,619.81,415.9c2.42.51,4.85,1,7.29,1.49,13.71,2.75,27.9,5.59,40.26,12.51,1.35.76,2.75,1.6,4.17,2.52a74.91,74.91,0,0,1,7.62,5.76c20,17.18,30.35,44,37.12,65.47,21.1,66.83,28.61,136.52,33.59,201.87,1.23,16.09,2.29,31.93,3.35,48.09,0,.62.1,1.26.14,1.89.93,14,1.91,28.52.28,42.91-.65,5.72-1.72,11.47-2.75,17-1.09,5.86-2.22,11.91-2.84,17.91-1.5,14.4-.17,29.16,1.1,43.43s2.61,29.1,1.12,43.62c-.69,6.78-2,13.56-3.27,20.12-1.08,5.59-2.19,11.35-2.91,17.08l.28.07Z"/><path class="cls-9" d="M573.81,709.05l-.86-1.44.52-.3c41.41-23.81,94.24-29.92,141.31-16.36A173.78,173.78,0,0,1,749,704.88l-.79,1.47a172.5,172.5,0,0,0-33.93-13.79c-46.65-13.44-99-7.39-140,16.19Z"/><path class="cls-9" d="M582.7,759.44l-.81-1.47c35.53-19.71,82-25.44,130.78-16.14a253.41,253.41,0,0,1,40,11l.74.27.53.2-.56,1.57-.56-.2-.71-.26a250.66,250.66,0,0,0-39.75-11C663.94,734.25,617.89,739.91,582.7,759.44Z"/><path class="cls-9" d="M522.42,957.67c-14-32.27-9.83-70.48-6.48-101.18l1.67.18C514.1,888.76,510.13,925.14,524,957Z"/><path class="cls-9" d="M559.2,815.36a158.54,158.54,0,0,0-48.92-71.21A209.53,209.53,0,0,0,486.18,727l-1.1-.69c-.74-.47-1.4-.89-2-1.28-7.78-5.07-17.52,4.39-25.35,12-1.65,1.61-3.22,3.13-4.71,4.47l-.49.44a60.1,60.1,0,0,1-5,4.18,17,17,0,0,1-8.74,3.64c-3.41.28-6.74-.82-10-1.89l-1.4-.46.51-1.59,1.41.46c3.07,1,6.26,2.07,9.32,1.81a15.44,15.44,0,0,0,7.89-3.32,61.64,61.64,0,0,0,4.88-4.08l.49-.44c1.47-1.31,3-2.82,4.67-4.42,8.25-8,18.53-18,27.43-12.19l2,1.27,1.09.69a208.44,208.44,0,0,1,24.28,17.29,160.22,160.22,0,0,1,49.43,72Z"/><path class="cls-9" d="M108.44,809.87l-.79-1.47a113.74,113.74,0,0,1,16.27-6.82c20.66-7.2,54.17-14.84,89.64-20.45,20.73-3.3,39.54-5.46,51.59-6,1,0,2-.06,3-.08,6.36-.12,13.06.16,19.53.42,19.52.8,39.71,1.63,55.29-7.34,5.29-3,15.95-3.88,24.51-4.56,3.44-.28,6.68-.54,9.05-.9a31.06,31.06,0,0,1,5.4-.29c1.64,0,3.3.14,4.91.24,1.27.09,2.53.17,3.77.21,4,.14,8.24-.08,11.75-2.59,2.38-1.7,4.12-4.33,5.8-6.88,2.29-3.47,4.65-7,8.67-8.47,3.78-1.33,7.52-.31,11,.85l-.53,1.59c-3.22-1.07-6.65-2-9.93-.86-3.49,1.23-5.6,4.43-7.83,7.81-1.77,2.67-3.6,5.44-6.22,7.32-3.93,2.81-8.67,3.05-12.79,2.9-1.26,0-2.54-.12-3.82-.21-1.59-.1-3.23-.21-4.83-.24a29.63,29.63,0,0,0-5.11.28c-2.43.37-5.71.63-9.18.9-8.39.67-18.84,1.5-23.81,4.35-16,9.21-36.43,8.37-56.19,7.56-6.74-.27-13.12-.54-19.34-.42-1.09,0-2.09,0-3.07.09-12,.49-30.74,2.65-51.41,5.93-35.37,5.59-68.77,13.21-89.35,20.38A113.27,113.27,0,0,0,108.44,809.87Z"/><path class="cls-9" d="M587.37,808.39l-1.67,0a288.76,288.76,0,0,0-4.26-49.53c-.25-1.52-.5-3-.77-4.51l-.4-2.29c-.11-.58-.21-1.17-.32-1.75s-.24-1.37-.37-2c-2.31-13-4.7-26.51-6.51-40.11a340.61,340.61,0,0,1-3.06-34.2c-.2-5.78-.21-11.5,0-17a276.71,276.71,0,0,1,4.39-38.75l.14-.69c2.92-16.18,6.86-32.24,10.67-47.78C591,546.05,597,521.54,608,499.2c4.35-8.86,11.69-19.61,20.66-30.26,14.12-16.74,29.83-30.41,42-36.56l.76,1.49c-12,6.06-27.52,19.57-41.5,36.15-8.88,10.55-16.14,21.18-20.44,29.92-10.89,22.17-16.89,46.59-22.68,70.21-3.86,15.73-7.86,32-10.77,48.36l-.14.69A275.42,275.42,0,0,0,571.67,657c-.19,5.43-.19,11.11,0,16.86a334.07,334.07,0,0,0,3,34c1.81,13.57,4.19,27,6.5,40,.13.67.25,1.36.37,2s.21,1.16.32,1.74l.4,2.3c.27,1.49.52,3,.77,4.53A289,289,0,0,1,587.37,808.39Z"/><path class="cls-9" d="M368.92,968.41c-6-23.21-8.06-36.09-8.3-53,0-.18,0-.36,0-.53s0-.37,0-.55h1.68v.51c0,.19,0,.37,0,.56.25,16.76,2.25,29.55,8.24,52.61Z"/><path class="cls-9" d="M119,576.28c-7.79-8.79-20.89-10.49-32.67-11a333.35,333.35,0,0,0-42,.83c-10.43.87-21.39,2.34-30.81,7.23l-.77-1.49c9.68-5,20.83-6.53,31.44-7.41a334.92,334.92,0,0,1,42.19-.83c12.13.52,25.63,2.3,33.84,11.56Z"/><path class="cls-9" d="M22.53,609.12l-.78-1.48a157,157,0,0,1,82.14-17.86l-.09,1.67A155.3,155.3,0,0,0,22.53,609.12Z"/><path class="cls-9" d="M3.05,690.16l-.43-.65L2,688.89l.14-.12c2.66-1.78,66.43-43.22,187.71-10.15l-.44,1.61C68.83,647.36,5.68,688.4,3.05,690.16Z"/><path class="cls-9" d="M1.64,745.68l-.48-1.6c.33-.1,33-9.76,59.85-11.53,2.06-.12,3.73-.19,5.27-.24.51,0,1,0,1.55,0,1.12,0,2.27,0,3.28,0l0,1.68c-1,0-2.12,0-3.22,0H66.33c-1.53,0-3.19.12-5.21.24C34.48,736,2,745.59,1.64,745.68Z"/><path class="cls-9" d="M90,972.3a33.69,33.69,0,0,1-10.13-1.46A27.34,27.34,0,0,1,75.33,969c-10.23-5.27-15.79-16.1-21-27.67C36.45,902,16.21,857.42,14.49,811c-.08-2.05-.12-4.12-.16-6.18-.19-9.2-.38-18.71-3.7-27.27a78.75,78.75,0,0,0-3.39-7.2,75.09,75.09,0,0,1-3.78-8.23C1.35,756.26.81,750.14.55,744.92c-.09-1.93-.14-3.85-.19-5.76-.44-16.29-.9-33.14,1.4-49.81.52-3.86,1.22-7.76,2.07-11.57,1.4-6.19,3.3-12.38,5.14-18.36,3.2-10.38,6.5-21.12,7.19-32.07.64-10.08-.94-20.31-2.47-30.21-.67-4.36-1.37-8.87-1.87-13.32A161.24,161.24,0,0,1,23.11,504.1c.21-.56.45-1.14.71-1.72l1.53.68c-.25.55-.48,1.11-.69,1.66a159.57,159.57,0,0,0-11.18,78.91c.5,4.42,1.19,8.91,1.86,13.26,1.55,10,3.14,20.3,2.49,30.57-.71,11.14-4,22-7.26,32.45-1.83,6-3.72,12.11-5.11,18.24-.84,3.76-1.53,7.61-2,11.43C1.14,706.11,1.59,722.89,2,739.12c0,1.9.1,3.8.18,5.72.25,5.09.78,11,2.81,16.66a73.15,73.15,0,0,0,3.71,8c1.21,2.37,2.46,4.82,3.45,7.35,3.43,8.84,3.62,18.5,3.81,27.84.05,2.06.09,4.12.16,6.16C17.87,857,38,901.43,55.82,940.61c5.12,11.29,10.53,21.84,20.28,26.88a26.13,26.13,0,0,0,4.3,1.75c11.14,3.48,23.68-.3,35.8-4l4.25-1.27c22.85-6.74,47-9,70.32-11.21l1.79-.17c7.17-.67,13.19-1.26,19.24-1.94a616.48,616.48,0,0,0,91.9-17.48c19.26-5.2,38.59-11.46,57.46-18.61a614.76,614.76,0,0,0,75.1-34.33c11.8-6.39,23.23-13.08,36.77-21.15q3.45-2.05,6.89-4.12l2.58-1.54c5.72-3.43,10.76-6.68,14.52-9.12l5.22-3.42c16.4-10.75,29.34-19.25,54.38-25.54L557,817c-24.77,6.23-37,14.24-53.87,25.32-1.69,1.11-3.43,2.26-5.23,3.42-3.77,2.45-8.83,5.71-14.57,9.16l-2.58,1.54q-3.43,2.07-6.89,4.12c-13.56,8.08-25,14.78-36.84,21.18a615.89,615.89,0,0,1-75.3,34.43c-18.91,7.17-38.3,13.44-57.62,18.65A615.65,615.65,0,0,1,212,952.34c-6.07.69-12.1,1.27-19.28,1.95l-1.78.16c-23.26,2.2-47.31,4.47-70,11.15-1.4.41-2.81.84-4.23,1.27C107.83,969.55,98.74,972.3,90,972.3Z"/><path class="cls-9" d="M582.22,753.06l-6.06-1.57q-9.95-2.57-19.9-5.13c-15.46-4-31.63-7-45.16-2.07l-.57-1.57c14-5.09,30.43-2,46.15,2q9.95,2.58,19.9,5.13l6.06,1.56Z"/><path class="cls-9" d="M64.05,899.86c-3.25-31.77,11.1-66.09,37.47-89.54l1.11,1.25C79.54,832.1,65.8,861.07,65.28,889.2A66.56,66.56,0,0,1,80.93,858c7.69-8.49,17.23-14.67,28-21.29,5-3.1,10.78-6.61,17.22-7.88l.32,1.65c-6.14,1.2-11.73,4.63-16.66,7.65-10.66,6.56-20.1,12.66-27.64,21a64.7,64.7,0,0,0-16.45,40.71Z"/><path class="cls-9" d="M496.64,845.12a109.61,109.61,0,0,0-9.41-34.74c-18.38-40.26-55.74-60.83-59.94-63l.33-.65v-1l.41.1c4.29,2.27,42.11,23.09,60.72,63.86A111.17,111.17,0,0,1,498.31,845Z"/><path class="cls-9" d="M268.22,777.92a17.05,17.05,0,0,0-.69-1.63,31.33,31.33,0,0,0-4.33-6.86c-3.36-4.13-7.71-7.78-11.9-11.3a107.88,107.88,0,0,1-10.68-9.81A103.48,103.48,0,0,1,232.73,738c-1.42-2-2.88-4.11-4.39-6.07a43.91,43.91,0,0,0-8.56-8.83c-4.42-3.31-9.69-5.42-14.7-7.3-5.9-2.2-11.83-4.21-17.64-6A317.94,317.94,0,0,0,83.74,696a8.94,8.94,0,0,0-3.5.59c-2.22,1-3,3.93-2.61,6.24s1.69,4.46,3.23,6.75l.26.4-1.41.89-.26-.38c-1.56-2.34-3-4.68-3.48-7.39-.48-2.92.59-6.62,3.55-8a10.2,10.2,0,0,1,4.15-.75,319.63,319.63,0,0,1,104.26,13.93c5.84,1.79,11.81,3.81,17.73,6,5.13,1.92,10.53,4.09,15.12,7.53a45.53,45.53,0,0,1,8.89,9.15c1.53,2,3,4.09,4.43,6.12a100.46,100.46,0,0,0,7.76,10.12,106,106,0,0,0,10.51,9.66c4.26,3.57,8.66,7.27,12.13,11.52a32.78,32.78,0,0,1,4.55,7.21c.23.49.47,1,.73,1.74Z"/><path class="cls-9" d="M201.69,749.93Q187.13,741,172.56,732c-6.44-4-13.11-8.07-20.23-10.9-7.48-3-15.39-4.51-22.83-5.74a340.74,340.74,0,0,0-49.35-4.51c-7.34-.12-14.69,0-21.84.32-1.57.08-3.17.24-4,1.25-.65.78-.81,2-.51,3.74a20.82,20.82,0,0,0,14.28,16.15c.24.09.42.14.6.19l-.38,1.63a6,6,0,0,1-.76-.24,22.47,22.47,0,0,1-15.39-17.44c-.39-2.25-.11-3.92.87-5.1,1.28-1.53,3.36-1.76,5.22-1.85,7.18-.33,14.57-.44,22-.32a341.11,341.11,0,0,1,49.59,4.53c7.54,1.24,15.56,2.81,23.17,5.84,7.27,2.87,14,7,20.5,11l29.12,17.91Z"/><path class="cls-9" d="M147.63,788.83a127.66,127.66,0,0,0-35.37-18.91c-3.67-1.27-7.5-2.41-11.21-3.51A158.93,158.93,0,0,1,82.3,760a57.48,57.48,0,0,1-11.75-6.89c-7.35-5.67-11.2-13.07-10.31-19.8,0-.33.11-.67.18-1l.15-.8.81.06,5.06.8q32.09,5.1,64.2,10.23c3.86.6,8.25,1.29,12.16,3.13a45.5,45.5,0,0,1,8.29,5.49l11,8.53,11.24,8.74-1,1.32L161,761l-10.94-8.51a45,45,0,0,0-8-5.33c-3.7-1.74-8-2.4-11.71-3L66.17,734l-4.24-.67,0,.21c-1,7.2,4.37,14.15,9.67,18.24A56.32,56.32,0,0,0,83,758.43a156,156,0,0,0,18.55,6.37c3.72,1.11,7.57,2.26,11.28,3.54a129.47,129.47,0,0,1,35.83,19.15Z"/><path class="cls-9" d="M124.2,803.52a5.12,5.12,0,0,0-.54-.51,60.5,60.5,0,0,0-19.2-13c-1.83-.78-3.73-1.48-5.57-2.17a83.67,83.67,0,0,1-8.2-3.37c-5.41-2.7-9.14-6.14-11.08-10.21-2.21-4.6-1.75-10.07,1-13.6l-.05-.19-.07-.84,4.31-.79-2,1.94c-3.51,3.32-3.48,8.93-1.64,12.75s5.25,6.91,10.31,9.44a82.27,82.27,0,0,0,8,3.3c1.86.69,3.78,1.41,5.64,2.2a62,62,0,0,1,19.68,13.27,6.75,6.75,0,0,1,.64.61Z"/><path class="cls-9" d="M186.86,709.22c-1.77-8.52-1.85-21.14,2-30.12.54-1.28,1.16-2.57,1.75-3.81,1.81-3.77,3.69-7.68,3.74-11.78s-1.73-8-3.45-11.79l-.6-1.35a122.45,122.45,0,0,1-8.92-68.84l.1-.92c-.9-6.15-1.79-11.62-2.72-16.74-7.35-41-18.83-75.39-34.13-102.09-9.82-17.15-19.36-27.7-25.64-33.54-6.8-6.31-11.33-8.6-11.38-8.63l.74-1.49c.76.37,18.66,9.51,37.73,42.82,15.39,26.88,26.94,61.41,34.33,102.63.94,5.16,1.84,10.69,2.75,16.9v.11l-.13,1.17a120.8,120.8,0,0,0,8.79,67.94l.6,1.34c1.79,4,3.64,8.07,3.59,12.5s-2,8.55-3.9,12.49c-.59,1.22-1.19,2.49-1.73,3.73-3.66,8.6-3.54,21.13-1.87,29.13l0,.17h-.88Z"/><path class="cls-9" d="M420,873.82l-1.64-.34A136.18,136.18,0,0,0,399.72,772.3l1.4-.91A137.82,137.82,0,0,1,420,873.82Z"/><path class="cls-9" d="M362,477.82c-.18-.35-.36-.69-.55-1-3.71-6.91-9.19-14.85-16.78-24.29-8.87-11.08-19.1-22.37-29-33.29-8.85-9.77-17.21-19-23.43-26.84-3.71-4.64-7.49-9.67-9.43-15.53-2.12-6.32-1.53-12.87,1.57-17.52a4.64,4.64,0,0,1,.31-.47l1.34,1a2.88,2.88,0,0,0-.23.34c-2.84,4.28-3.36,10.28-1.4,16.12,1.86,5.6,5.54,10.49,9.15,15,6.19,7.8,14.53,17,23.36,26.75C326.85,429,337.1,440.34,346,451.45,353.65,461,359.19,469,362.93,476c.2.34.39.7.57,1.06Z"/><path class="cls-9" d="M264,769.72l-.3-1.65a126,126,0,0,0,12.56-2.65l1.91-.48c2.91-.73,5.67-1.55,7.45-3.52s2.35-4.78,2.81-7.76c.33-2.13.65-4.25,1-6.38a607.24,607.24,0,0,0,6.85-86.6,435.94,435.94,0,0,0-3.15-55.21c-16.67,9.11-36,14.9-57.48,17.21-4.6.49-9.22.83-13.72,1l-.56,0-1.17,0c-2.28.09-4.8.13-7.88.1h-2.44l-2.44,0a247.22,247.22,0,0,1-25-1.06l.12-1.67h.07a246,246,0,0,0,24.83,1h2.44l2.45,0c3.05,0,5.54,0,7.82-.1.4,0,.77,0,1.14,0l.58,0c4.45-.16,9-.49,13.59-1,21.72-2.34,41.21-8.26,57.93-17.61l1.08-.6.15,1.22a435.28,435.28,0,0,1,3.32,56.65,607.72,607.72,0,0,1-6.87,86.85q-.46,3.19-1,6.38c-.5,3.25-1.13,6.35-3.22,8.64s-5.11,3.22-8.28,4l-1.91.48A128.7,128.7,0,0,1,264,769.72Z"/><path class="cls-9" d="M208.58,681.14c-6.14,0-12.5-.28-19.05-.88l.15-1.67c61.54,5.7,106.56-18.4,107-18.65l.18-.1h.22v.85l.39.72C297.08,661.63,260.66,681.13,208.58,681.14Z"/><path class="cls-9" d="M220.13,622.74a.84.84,0,0,1-.82-.69c0-.11-2-11.31-3.93-22.43-3.91-23-3.56-23.27-3-23.7a.85.85,0,0,1,1.18.17.9.9,0,0,1,.1.82c-.17,2.38,4.24,28,7.28,44.84a.84.84,0,0,1-.68,1Zm-6.73-45.48h0Zm0,0Zm0,0Z"/><path class="cls-9" d="M206.58,623.07c-2.17-15.14-6.06-39.82-7.25-41.58a.65.65,0,0,0,.53.24v-1.67c1,0,1.66,0,5.17,21.73,1.68,10.4,3.2,20.94,3.21,21Z"/><path class="cls-9" d="M221.86,623.24a.78.78,0,0,1-.26,0,.83.83,0,0,1-.54-1.05l17.82-56.43-9.76-3.09a.85.85,0,0,1-.59-.79l-.21-35a.85.85,0,0,1,.57-.8L252,518.34a.84.84,0,0,1,.85.2.86.86,0,0,1,.21.85l-3.18,10a.81.81,0,0,1-.54.54l-8.17,2.72.12,18.62,17.76,5.64,10.84-15.15-5.11-6.92a.84.84,0,0,1-.13-.75l3.18-10a.84.84,0,0,1,.66-.57.82.82,0,0,1,.81.33l14.46,19.65a.83.83,0,0,1,0,1l-20.39,28.47a.83.83,0,0,1-.93.31l-9.75-3.11-16.4,52a.85.85,0,0,1-.81.61.83.83,0,0,1-.84-.82v0a1,1,0,0,1,0-.25l16.67-52.77a.87.87,0,0,1,.42-.5.81.81,0,0,1,.63-.05l10,3.18L282.1,544,269,526.14l-2.55,8,5.21,7.07a.83.83,0,0,1,0,1l-11.55,16.14a.84.84,0,0,1-.93.31l-18.91-6a.85.85,0,0,1-.59-.79l-.13-19.83a.83.83,0,0,1,.57-.8l8.35-2.78,2.55-8-21,7,.21,33.8,10,3.16a.83.83,0,0,1,.54,1l-18.08,57.22A.83.83,0,0,1,221.86,623.24Z"/><path class="cls-9" d="M366.24,485.1l-.54-1c-1.09-2.09-2.32-4.2-3.64-6.25l-1.18-1.74c-7.18-10.48-17.76-20.18-32.33-29.66a233,233,0,0,0-92.17-35.29c-14-2.24-22.8-3.05-26.84-2.47l-.24-1.66c4.22-.61,13.16.21,27.35,2.48,34.16,5.48,64.52,17.1,92.81,35.54,14.76,9.6,25.49,19.45,32.8,30.12q.62.89,1.2,1.77c1.36,2.1,2.61,4.25,3.73,6.4l.42.83-.73.25Z"/><path class="cls-9" d="M366.1,484.9l-.22-.31-.27-.4c-5.12-7.5-10-11.22-21.9-20.2l-4.47-3.39c-13.56-10.29-33.8-20.42-55.53-27.77A297.73,297.73,0,0,0,252,424a232.56,232.56,0,0,0-46.39-5.67l-1.19,0,.42-1.11c1.31-3.44,2.57-6.58,3.86-9.59a252.33,252.33,0,0,1,17-32.73,255,255,0,0,1,19-26.9c4.43-5.48,9.88-10.44,15.15-15.24,12-10.92,23.36-21.25,23.06-37l1.68,0c.3,16.53-11.86,27.59-23.62,38.29-5.22,4.76-10.62,9.67-15,15.05A251.69,251.69,0,0,0,227,375.7a249.1,249.1,0,0,0-16.85,32.52c-1.14,2.66-2.26,5.42-3.41,8.41a234,234,0,0,1,45.53,5.69,298.66,298.66,0,0,1,31.94,8.92c21.89,7.41,42.3,17.63,56,28,1.58,1.21,3.07,2.33,4.46,3.38,12,9.1,17,12.87,22.28,20.62l.25.36c.08.11.16.22.24.35Z"/><path class="cls-9" d="M200.43,581.72h-.59a20.92,20.92,0,0,1-7-1.37A21.19,21.19,0,0,1,208,540.75a20.82,20.82,0,0,1,4.72,2.54,21.17,21.17,0,0,1-12.25,38.43Zm0-40.7a19.52,19.52,0,0,0-18.22,12.57,19.21,19.21,0,0,0-1.06,9.87,19.51,19.51,0,0,0,12.32,15.31,19.53,19.53,0,0,0,25.18-11.26,19.46,19.46,0,0,0-6.92-22.85h0a19.17,19.17,0,0,0-4.35-2.34A19.48,19.48,0,0,0,200.41,541Z"/><path class="cls-9" d="M200.4,571.91a11.49,11.49,0,0,1-4.05-.74A11.37,11.37,0,1,1,211,564.61h0A11.39,11.39,0,0,1,200.4,571.91Zm0-21.06a9.73,9.73,0,0,0-9.08,6.24A9.7,9.7,0,0,0,197,569.6,9.72,9.72,0,0,0,209.48,564h0a9.69,9.69,0,0,0-9.06-13.16Z"/><path class="cls-9" d="M355.3,154.16a20.13,20.13,0,0,1,3.5,6,34.09,34.09,0,0,1,1.86,6.71,38.39,38.39,0,0,1,.47,6.93c0,1.16-.14,2.31-.23,3.46s-.35,2.28-.6,3.4c-.12-1.15-.15-2.29-.22-3.43s-.14-2.26-.25-3.39-.18-2.25-.36-3.36-.29-2.22-.46-3.33q-.56-3.31-1.44-6.57A44.65,44.65,0,0,0,355.3,154.16Z"/><path class="cls-9" d="M384.33,180.63c-.27,2.72-.43,5.41-.54,8.09s-.16,5.38-.13,8.06c0,1.34,0,2.69.08,4l.06,2c0,.68.07,1.35.09,2,.12,2.69.33,5.38.44,8.12a50.94,50.94,0,0,1-1.74-8,63.75,63.75,0,0,1-.6-8.17,62.16,62.16,0,0,1,.5-8.18A37.72,37.72,0,0,1,384.33,180.63Z"/><circle class="cls-10" cx="317.28" cy="168.09" r="8.49"/><path class="cls-9" d="M317.28,177h-.38a8.92,8.92,0,1,1,9.29-8.53h0A8.93,8.93,0,0,1,317.28,177Zm0-17a8.05,8.05,0,1,0,8.05,8.4h0a8.07,8.07,0,0,0-7.71-8.39Z"/><path class="cls-9" d="M333.82,185.23a15.54,15.54,0,0,1-3.38,2.88,20.81,20.81,0,0,1-4,2,21.38,21.38,0,0,1-4.31,1.06,15,15,0,0,1-4.44,0l4.16-1.25c1.36-.43,2.7-.86,4-1.36s2.63-1,3.94-1.55Z"/><path class="cls-9" d="M334,174.74a33.38,33.38,0,0,0-2.81-5.68,16.64,16.64,0,0,0-3.79-4.35,11.56,11.56,0,0,0-2.27-1.32,11.07,11.07,0,0,0-2.46-.67,15.44,15.44,0,0,0-5.37.36,22.78,22.78,0,0,0-2.78.79c-.91.27-2,.72-2.92,1l-5.94,2.16c-2,.72-3.94,1.45-5.86,2.28-1,.4-1.9.84-2.83,1.33a9.29,9.29,0,0,0-1.31.82,2.51,2.51,0,0,0-1,1.14A2.63,2.63,0,0,1,295,171a10.66,10.66,0,0,1,1-1.39,18.59,18.59,0,0,1,2.42-2.36,39.87,39.87,0,0,1,5.47-3.75,65.29,65.29,0,0,1,5.82-3l1.49-.66c.49-.21,1-.43,1.55-.64a24.84,24.84,0,0,1,3.37-1,16.92,16.92,0,0,1,7.37-.12,12.62,12.62,0,0,1,6.53,3.79,15.41,15.41,0,0,1,3.34,6.23A17.55,17.55,0,0,1,334,174.74Z"/><circle class="cls-10" cx="419.19" cy="168.09" r="8.49"/><path class="cls-9" d="M419.18,177a8.94,8.94,0,0,1-8.91-8.54h0a8.92,8.92,0,1,1,9.3,8.53Zm-8-8.58a8.05,8.05,0,1,0,7.7-8.39,8.08,8.08,0,0,0-7.7,8.39Z"/><path class="cls-9" d="M402.65,185.23l4,1.73c1.31.55,2.62,1.09,3.95,1.55s2.66.93,4,1.36l4.16,1.25a15,15,0,0,1-4.43,0,21.47,21.47,0,0,1-4.32-1.06,20.81,20.81,0,0,1-4-2A15.26,15.26,0,0,1,402.65,185.23Z"/><path class="cls-9" d="M402.51,174.74a17.75,17.75,0,0,1,.56-6.66,15.53,15.53,0,0,1,3.34-6.23,13.17,13.17,0,0,1,2.95-2.38,13,13,0,0,1,3.58-1.41,16.92,16.92,0,0,1,7.37.12,24.84,24.84,0,0,1,3.37,1c.56.21,1.07.43,1.56.64l1.49.66c2,.91,3.92,1.89,5.82,3a39.18,39.18,0,0,1,5.46,3.75,18.59,18.59,0,0,1,2.42,2.36,9.79,9.79,0,0,1,1,1.39,2.57,2.57,0,0,1,.44,1.64,2.54,2.54,0,0,0-1-1.14,10,10,0,0,0-1.32-.82c-.92-.49-1.86-.93-2.83-1.33-1.91-.83-3.89-1.56-5.85-2.28l-5.94-2.16c-1-.33-2-.78-2.93-1a21.81,21.81,0,0,0-2.78-.79,15.44,15.44,0,0,0-5.37-.36,11.07,11.07,0,0,0-2.46.67,11.86,11.86,0,0,0-2.27,1.32,16.43,16.43,0,0,0-3.78,4.35A34.16,34.16,0,0,0,402.51,174.74Z"/><path class="cls-9" d="M400.63,151.05l-1.31-11.68s16.76-11.2,30.71-12.16,26,7.25,26,7.25S437,131,400.63,151.05Z"/><path class="cls-9" d="M341.92,151.05l1.31-11.68s-16.76-11.2-30.7-12.16-26,7.25-26,7.25S305.53,131,341.92,151.05Z"/><path class="cls-9" d="M400.94,241.79a5.83,5.83,0,0,1,3.2.92,26.45,26.45,0,0,1,2.77,1.63,27.89,27.89,0,0,1,2.56,1.95,16.36,16.36,0,0,1,2.3,2.33,16.21,16.21,0,0,1-3-1.25,24.89,24.89,0,0,1-2.77-1.64,29.68,29.68,0,0,1-2.56-1.94A18.45,18.45,0,0,0,400.94,241.79Z"/><path class="cls-9" d="M337.31,241.5a29.55,29.55,0,0,1-2.77,1.89c-.93.58-1.86,1.13-2.8,1.67s-1.86,1.07-2.85,1.58a7.22,7.22,0,0,1-3.28,1c.94-.68,1.71-1.38,2.55-2.1a16.26,16.26,0,0,1,2.75-1.95,17.34,17.34,0,0,1,3.07-1.4A13.26,13.26,0,0,1,337.31,241.5Z"/><path class="cls-9" d="M342.86,230a9.75,9.75,0,0,0,1.7,3.39,7,7,0,0,0,2.9,2.23,8.21,8.21,0,0,0,3.57.61,14.69,14.69,0,0,0,3.64-.62l.39-.12.32.36a14.24,14.24,0,0,0,5.36,3.73,17.53,17.53,0,0,0,6.49,1.32,14.58,14.58,0,0,0,6.43-1.19,14.75,14.75,0,0,0,5.28-3.85l.3-.35.4.08a21.31,21.31,0,0,0,4.09.36,16,16,0,0,0,4.08-.54,8.94,8.94,0,0,0,3.59-1.89,8.17,8.17,0,0,0,2.2-3.52,7.69,7.69,0,0,1-1.85,3.86,9,9,0,0,1-3.67,2.4,15.44,15.44,0,0,1-4.3.87,21.66,21.66,0,0,1-4.4-.16l.69-.27a14.25,14.25,0,0,1-2.63,2.58,15.49,15.49,0,0,1-3.12,1.9,16,16,0,0,1-7.14,1.39,18.7,18.7,0,0,1-7.06-1.54,16.18,16.18,0,0,1-3.15-1.83,12.67,12.67,0,0,1-2.66-2.57l.7.25a14.75,14.75,0,0,1-4,.46,9.27,9.27,0,0,1-3.93-1,7.77,7.77,0,0,1-2.91-2.72A8.86,8.86,0,0,1,342.86,230Z"/><path class="cls-3" d="M370.18,247v16.86s30.75-.7,51.14,12.34c0,0,2.77-14.62-9.56-21.15C397.28,247.4,370.18,247,370.18,247Z"/><path d="M421.91,277.57l-1-.67c-19.95-12.75-50.37-12.21-50.67-12.2l-.86,0V246.15l.85,0c1.11,0,27.47.48,42,8.15,12.73,6.73,10,21.88,10,22ZM371,263c5.05,0,31.23.64,49.65,11.78.35-3.57.42-13.86-9.3-19-12.7-6.71-35.65-7.78-40.35-7.93Z"/><path class="cls-3" d="M366.29,247v16.86s-30.75-.7-51.14,12.34c0,0-2.77-14.62,9.56-21.15C339.18,247.4,366.29,247,366.29,247Z"/><path d="M314.56,277.57l-.23-1.22c0-.15-2.74-15.3,10-22,14.48-7.67,40.84-8.14,41.95-8.15l.85,0v18.57l-.85,0c-.3,0-30.74-.55-50.67,12.2Zm50.89-29.71c-4.69.15-27.65,1.22-40.35,7.93-9.72,5.15-9.64,15.44-9.29,19,18.42-11.14,44.6-11.77,49.64-11.78Z"/><path class="cls-9" d="M413.88,286.15Q408.19,284,402.46,282c-3.82-1.32-7.68-2.56-11.56-3.66-1.95-.56-3.9-1.07-5.86-1.49a31,31,0,0,0-5.91-.8,4.5,4.5,0,0,0-2.55.53l-.24.22-.29.27c-.19.18-.38.37-.58.53a14.83,14.83,0,0,1-1.24,1,13.47,13.47,0,0,1-2.78,1.55,9.11,9.11,0,0,1-3.25.73l0-1.51h.92l0,1.53a11.42,11.42,0,0,1-6.21-2.23c-.45-.3-.88-.63-1.3-1-.21-.17-.4-.36-.61-.54l-.3-.27-.18-.14a5.31,5.31,0,0,0-2.54-.39,33.59,33.59,0,0,0-6,.86c-2,.44-4,.93-5.95,1.48-3.95,1.12-7.9,2.29-11.81,3.59l-5.88,1.93-5.86,2c1.87-.89,3.77-1.7,5.67-2.51s3.81-1.59,5.75-2.32c3.86-1.46,7.74-2.92,11.71-4.11,2-.59,4-1.18,6-1.63a34.86,34.86,0,0,1,6.27-.94,8.72,8.72,0,0,1,1.68.07,4.47,4.47,0,0,1,1.8.59,3.09,3.09,0,0,1,.42.34l.28.24c.18.17.35.34.55.5.37.31.76.61,1.16.89a12.94,12.94,0,0,0,2.55,1.4,8.23,8.23,0,0,0,2.67.64l0,1.54-.92,0,0-1.51a8.13,8.13,0,0,0,2.66-.56,13.7,13.7,0,0,0,2.56-1.3,12.28,12.28,0,0,0,1.19-.85c.2-.14.38-.3.57-.46l.27-.24.34-.28a3.62,3.62,0,0,1,1.67-.64,9.88,9.88,0,0,1,1.62-.08,32.44,32.44,0,0,1,6.1.94c2,.47,3.95,1,5.89,1.63,3.88,1.21,7.7,2.6,11.49,4S410.17,284.51,413.88,286.15Z"/><path class="cls-9" d="M355.3,296.41a7.56,7.56,0,0,1,1.77.9c.57.33,1.13.65,1.71.95a24.76,24.76,0,0,0,3.51,1.54,20.75,20.75,0,0,0,7.43,1.12,25.25,25.25,0,0,0,7.44-1.42,54,54,0,0,0,7.17-3.09,26,26,0,0,1-6.69,4.31,23.1,23.1,0,0,1-3.83,1.32,22.84,22.84,0,0,1-4,.56,18,18,0,0,1-8-1.6,18.53,18.53,0,0,1-3.47-2.05c-.53-.41-1-.82-1.54-1.27l-.73-.67A3.4,3.4,0,0,0,355.3,296.41Z"/></g></svg>