<svg xmlns="http://www.w3.org/2000/svg" viewBox="0 0 804.81 1287.63"><defs><style>.cls-1{fill:#575756;}.cls-2{fill:#29235c;}.cls-3{fill:#cea36b;}.cls-4{fill:#a7a7a7;}.cls-5{fill:#3142aa;}.cls-6{fill:#977763;}.cls-7{fill:#405d64;}.cls-8{fill:#f1f1f1;}.cls-9{fill:#b8b8b7;}.cls-10{fill:#193540;}.cls-11{fill:#1d1d1b;}.cls-12{fill:#392f25;}</style></defs><g id="PERSONAJES"><path class="cls-1" d="M803.55,780.65c-13.07,11.85-29,19.14-44.8,23.66q1.2-27.91,2.42-55.83C775,744,788.77,737.28,800.49,727q1,14.29,1.92,28.57C803,763.89,803.53,772.28,803.55,780.65Z"/><path class="cls-2" d="M753.36,930.69c.1-3.08.2-6.14.33-9.22.14-3.82.3-7.63.47-11.45q2.28-52.85,4.59-105.71c15.83-4.52,31.73-11.81,44.8-23.66a149,149,0,0,1-.85,17.67c-1.32,11.72-4.37,23.21-5.59,34.95-3,28.92,5.19,58.12,2.22,87-1.4,13.83-5.34,27.28-6.61,41.11-2.31,25.12,4.2,50.08,7.84,75.05a329.92,329.92,0,0,1,.92,87.78c-2.73,22-7.44,45.16-8.26,67.4l-.53,0c-6.76,5.83-15.13,9.83-24.24,12.49a527.59,527.59,0,0,1-3.19-63.58c.33-33.65,3.88-67.45-.34-100.83-2.44-19.28-7.44-38.16-9.85-57.44C752.92,965.17,752.86,947.93,753.36,930.69Z"/><path class="cls-1" d="M795.77,1256.6q-8.74,3.42-17.52,5.91a528.86,528.86,0,0,1-9.8-58.39c9.11-2.66,17.48-6.66,24.24-12.49l.53,0c-.68,17.81,1.11,35,8.36,50.58A10.68,10.68,0,0,1,795.77,1256.6Z"/><path class="cls-3" d="M784.29,1286.61c.05.07.11.12.16.19h-.11A.87.87,0,0,1,784.29,1286.61Z"/><path class="cls-2" d="M733.24,443.23c15.82,16,25.21,38.73,32.14,60.68,22.71,72,29.84,147.65,35.11,223.06C788.77,737.28,775,744,761.17,748.48c.2-4.77.42-9.54.62-14.31,2.83-65.29,5.61-131.23-6.36-195.47-5.64-30.26-14.49-59.77-24.23-89Q732.21,446.46,733.24,443.23Z"/><path class="cls-4" d="M727.13,437.64a78.9,78.9,0,0,1,6.11,5.59q-1,3.22-2,6.47C729.86,445.68,728.49,441.66,727.13,437.64Z"/><path class="cls-5" d="M688.54,713.87c3.66-71.72,12.72-151.34,31.88-226.2,3.28-12.82,6.86-25.51,10.78-38,9.74,29.23,18.59,58.74,24.23,89,12,64.24,9.19,130.18,6.36,195.47-.2,4.77-.42,9.54-.62,14.31-35.13,11.3-70.67,7.75-74.29,10C687.21,744,687.75,729.13,688.54,713.87Z"/><path class="cls-4" d="M536.5,419.69a231.69,231.69,0,0,1,44.12-5.14q-1.83-4.83-3.87-9.58a245.94,245.94,0,0,0-14.66-28.92,373,373,0,0,0,107.45,40.67c16.15,3.4,32.91,5.85,47.32,13.91a70.15,70.15,0,0,1,10.27,7c1.36,4,2.73,8,4.07,12.06-3.92,12.46-7.5,25.15-10.78,38-8-14.26-27.78-16.17-44.22-18.59-25.07-3.72-48.9-13.07-72.5-22.36L592,442.1l-55.32-21.76Z"/><path class="cls-3" d="M689,1261.86c28.72,9,57.37,9,85.66,1.62a34.81,34.81,0,0,0,9.64,23.13.87.87,0,0,0,.05.19l-90.45-.61v-.41A142.18,142.18,0,0,1,689,1261.86Z"/><path class="cls-2" d="M641.62,1134.73c13-37.53,34.7-73.41,40.66-112.86,4.18-27.7.43-55.48-4-83.31a290.55,290.55,0,0,0,11.24-55.43A142.7,142.7,0,0,0,696,906.61c4.1,11.26,10.11,21.84,13,33.47,4.15,16.75,1.52,34.44,3.68,51.57,2.49,19.8,11.38,39.18,8.5,58.93-3.33,22.84-21.35,40.2-34.12,59.43-2.23,3.36-4.35,6.91-5.09,10.88-.89,4.73.32,9.59.6,14.41a39.64,39.64,0,0,1-17.86,34.93,31,31,0,0,1-3.11,1.8,173.68,173.68,0,0,1-29.49,4.15C633.36,1162,636.94,1148.25,641.62,1134.73Z"/><path class="cls-2" d="M632.08,1200.42a133.19,133.19,0,0,1-.56-13.56A218.59,218.59,0,0,0,671.3,1182a119.12,119.12,0,0,1,3.58,12c.72,2.77,1.42,5.55,2.14,8.33q1.9,7.46,3.85,14.93c1.66,6.44,3.32,12.89,4.54,19.41,1.57,8.32,2.44,16.77,3.58,25.16a142.18,142.18,0,0,0,4.9,23.92v.41l-46.27-.31C644.65,1257.58,634.59,1229.11,632.08,1200.42Z"/><path class="cls-2" d="M686.48,813.47c.17,19.6.65,37.74,1.29,54a115.31,115.31,0,0,0,1.75,15.7,290.55,290.55,0,0,1-11.24,55.43c-2.55-16-5.31-32-6.93-48-6-59.19,3.85-118.34,17.19-176.65-.79,15.26-1.33,30.16-1.66,44.58C686.43,777.75,686.33,796.18,686.48,813.47Z"/><path class="cls-4" d="M758.75,804.31c-36.29,10.38-72.12,6.21-72.17,9.16h-.1c-.15-17.29-.05-35.72.4-55,3.62-2.22,39.16,1.33,74.29-10Q760,776.4,758.75,804.31Z"/><path class="cls-5" d="M686.58,813.47c0-3,35.88,1.22,72.17-9.16q-2.29,52.85-4.59,105.71c-.17,3.82-.33,7.63-.47,11.45-.13,3.08-.23,6.14-.33,9.22-.5,17.24-.44,34.48,1.71,51.58,2.41,19.28,7.41,38.16,9.85,57.44,4.22,33.38.67,67.18.34,100.83a527.59,527.59,0,0,0,3.19,63.58c-38.89,11.33-91.43-1.76-91.43-1.76-.72-2.78-1.42-5.56-2.14-8.33a119.12,119.12,0,0,0-3.58-12,37.68,37.68,0,0,0-6.53-11.57l-.12-.18a39.64,39.64,0,0,0,17.86-34.93c-.28-4.82-1.49-9.68-.6-14.41.74-4,2.86-7.52,5.09-10.88,12.77-19.23,30.79-36.59,34.12-59.43,2.88-19.75-6-39.13-8.5-58.93-2.16-17.13.47-34.82-3.68-51.57-2.86-11.63-8.87-22.21-13-33.47a142.7,142.7,0,0,1-6.45-23.48,115.31,115.31,0,0,1-1.75-15.7c-.64-16.22-1.12-34.36-1.29-54Z"/><path class="cls-4" d="M677,1202.36s52.54,13.09,91.43,1.76a528.86,528.86,0,0,0,9.8,58.39c-1.19.34-2.4.66-3.6,1-28.29,7.4-56.94,7.37-85.66-1.62-1.14-8.39-2-16.84-3.58-25.16-1.22-6.52-2.88-13-4.54-19.41Q678.94,1209.8,677,1202.36Z"/><path class="cls-2" d="M664.77,1170.41A37.68,37.68,0,0,1,671.3,1182a218.59,218.59,0,0,1-39.78,4.88c0-.65,0-1.3,0-2,.07-2.92.25-5.82.52-8.72a173.68,173.68,0,0,0,29.49-4.15,31,31,0,0,0,3.11-1.8Z"/><path class="cls-5" d="M632.08,1200.42c2.51,28.69,12.57,57.16,15.54,85.46l-29.24-.2C588,1266.06,578.56,1220,589,1184c12.69,2.53,27.63,3.41,42.5,2.91A133.19,133.19,0,0,0,632.08,1200.42Z"/><path class="cls-5" d="M575.36,1183.63c4.32-1.64,9.14-.58,13.66.32-10.46,36-1,82.11,29.36,101.73l-27.77-.19c-12.22-14-19.26-32.72-21.12-51.41-1.64-16.66.37-33.36,4.25-49.69A15.8,15.8,0,0,1,575.36,1183.63Z"/><path class="cls-5" d="M577,1172.13q1.65-5.64,3.51-11.23c17.68-53.12,46.48-101.7,70.3-152.37,10.61-22.57,20.31-46,27.48-70,4.43,27.83,8.18,55.61,4,83.31-6,39.45-27.62,75.33-40.66,112.86-4.68,13.52-8.26,27.26-9.57,41.45a171.1,171.1,0,0,1-43-3.24C585.05,1172.15,580.87,1171.23,577,1172.13Z"/><path class="cls-5" d="M493.76,604.61c24.6,13.76,53.27,19.06,81.45,18.85.76,0,1.53,0,2.28-.05,27.41-.46,54.53-5.81,81.19-12.29,1.4,17.06,2.17,33.66,2.09,50-97.86,40.45-168.86.83-170.33,0A434,434,0,0,1,493.76,604.61Z"/><path class="cls-5" d="M573.74,1184.39q1.46-6.18,3.25-12.26c3.88-.9,8.06,0,12,.81a171.1,171.1,0,0,0,43,3.24c-.27,2.9-.45,5.8-.52,8.72,0,.66,0,1.31,0,2-14.87.5-29.81-.38-42.5-2.91-4.52-.9-9.34-2-13.66-.32A15.8,15.8,0,0,0,573.74,1184.39Z"/><path class="cls-5" d="M451.66,1198.93c18.75,4.49,38.71,2,58-.47l37.15-4.82c6.68-.87,13.58-1.81,19.57-4.75-9.64,37.77-.94,72.27,21.76,96.59l-136.46-.91v-85.64Z"/><path class="cls-5" d="M588.12,1285.48c-22.7-24.32-31.4-58.82-21.76-96.59.82-.4,1.62-.84,2.41-1.32,1.67-1,3.25-2.26,5-3.18-3.88,16.33-5.89,33-4.25,49.69,1.86,18.69,8.9,37.4,21.12,51.41Z"/><path class="cls-5" d="M490.44,661.16c1.47.82,72.47,40.44,170.33,0-.13,32.67-3.68,64.42-12.28,97.09a12.6,12.6,0,0,1-9.13,9,260.82,260.82,0,0,1-59.78,8c-24,.32-46.66-3.08-70.43-9.06-2.86-.7-5.87-1.57-7.86-3.75s-2.56-5.29-3-8.21A617,617,0,0,1,490.44,661.16Z"/><path class="cls-5" d="M575.36,1172.62a19.24,19.24,0,0,0-3.9,2.14c31.92-61.24,43-137.37,28-204.8-5-22.53-12.58-44.49-16.16-67.29-3-18.84-3.1-38-3.23-57.1-.15-20.22-.41-50.08-.54-70.3h0a260.82,260.82,0,0,0,59.78-8,12.6,12.6,0,0,0,9.13-9c8.6-32.67,12.15-64.42,12.28-97.09.08-16.37-.69-33-2.09-50C632,617.6,604.9,623,577.49,623.41c5.69-59.12,10.38-120.21,13.74-179.51l.72-1.8,11.75,4.62c23.6,9.29,47.43,18.64,72.5,22.36,16.44,2.42,36.24,4.33,44.22,18.59-19.16,74.86-28.22,154.48-31.88,226.2-13.34,58.31-23.17,117.46-17.19,176.65,1.62,16,4.38,32,6.93,48-7.17,24-16.87,47.4-27.48,70-23.82,50.67-52.62,99.25-70.3,152.37q-1.86,5.58-3.51,11.23A11.74,11.74,0,0,0,575.36,1172.62Z"/><path class="cls-1" d="M490.76,43.43c4.5-2.29,10-4.55,14.29-1.94,2.18,1.3,3.55,3.6,4.82,5.81,11.58,20,27.79,43.43,32.64,66.05,4.28,20,.89,37.5-10.51,53.11a0,0,0,0,1,0,0q-2.28,3.09-5,6.11c-2-23.16-4.9-46.22-10-68.87-2-8.77-4.34-17.54-8.49-25.47a73.69,73.69,0,0,0-18.68-22.41c.87-4.55.59-8,.29-12.37Z"/><path class="cls-6" d="M544.75,211.26c-1.65,7.25-10.46,20.67-16.45,25l-.45-.08a113.16,113.16,0,0,0,1.87-28.76c-.85-11.58-1.69-23.2-2.73-34.78q2.71-3,5-6.11a0,0,0,0,0,0,0c8.77-7.53,13.67-2.13,15.83,1.36s2.48,7.78,2.7,11.9C551.2,192.27,547.7,198.39,544.75,211.26Z"/><path class="cls-6" d="M476.15,408.52c5-25.69-6.26-52.85-8.17-77.4a190,190,0,0,0,13.83-13.83,278.75,278.75,0,0,0,20.56-24.67l.17.12c-1,20.37-2,39.9-1.17,59.2.08,1.94.17,3.86.25,5.8.24,5.33.45,10.67.67,16l.22.08c-1.89,5.62-5.54,10.48-9.24,15.13C488.53,394.9,482.59,401.53,476.15,408.52Z"/><path class="cls-3" d="M418.14,29.45c2.58,0,5.12.09,7.68.25a106,106,0,0,1,32.27,7.42l.72.3c23.65,47.43,38.66,99.63,38.81,152.57.14,43.68-14.46,77.12-27.45,117.39-2.42,7.52-2.83,15.48-2.19,23.74A87.28,87.28,0,0,1,454.66,341s-9.76,10.33-36.52,10.33S381.62,341,381.62,341c-10.34-6.14-19-14.81-27.16-23.7A283.43,283.43,0,0,1,334,292.77a167.27,167.27,0,0,1-14.87-24.17,127.16,127.16,0,0,1-10.72-32.38,112.93,112.93,0,0,1-1.89-28.84c.73-10.27,1.49-20.57,2.37-30.84,2.09-24.49,5-48.88,10.36-72.81,2-8.77,4.32-17.54,8.47-25.47,6.83-13.09,18.23-23.23,30.65-31,1.32-.82,2.64-1.62,3.95-2.37a116.51,116.51,0,0,1,26-11.27A106.11,106.11,0,0,1,418.14,29.45Z"/><path class="cls-1" d="M449.57,10.22c7.36-1.94,16.4-2,23.3,1.26a29.13,29.13,0,0,1,15,16.58c1.49,4.41,1.86,9.11,2.13,13.76,0,.57.06,1.12.1,1.66.3,4.37.58,7.82-.29,12.37a109.39,109.39,0,0,0-12-8.61,124.1,124.1,0,0,0-19.05-9.82c-.2-.42-.4-.84-.62-1.25-.92-6.8-1.77-12.52-4.5-18.87A33.29,33.29,0,0,0,449.57,10.22Z"/><path class="cls-6" d="M458.81,37.42a124.1,124.1,0,0,1,19.05,9.82,109.39,109.39,0,0,1,12,8.61A73.69,73.69,0,0,1,508.5,78.26C512.65,86.19,515,95,517,103.73c5.1,22.65,8,45.71,10,68.87,1,11.58,1.88,23.2,2.73,34.78a113.16,113.16,0,0,1-1.87,28.76A127.53,127.53,0,0,1,517.1,268.6a161.54,161.54,0,0,1-14.73,24,278.75,278.75,0,0,1-20.56,24.67A190,190,0,0,1,468,331.12c-.64-8.26-.23-16.22,2.19-23.74,13-40.27,27.59-73.71,27.45-117.39C497.47,137.05,482.46,84.85,458.81,37.42Z"/><path class="cls-4" d="M458.26,36.68c0-.16-.05-.35-.07-.51.22.41.42.83.62,1.25l-.72-.3Z"/><path class="cls-4" d="M426.19.92c4.5-.2,9.12-.12,13.34,1.49a23.12,23.12,0,0,1,10,7.81,33.29,33.29,0,0,1,4.12,7.08c2.73,6.35,3.58,12.07,4.5,18.87,0,.16.05.35.07.51l-.17.44a106,106,0,0,0-32.27-7.42l0-.56c-4.26-8.09-8.36-15.2-15.64-20.64C413.82,3.38,420,1.2,426.19.92Z"/><path class="cls-5" d="M451.66,1284.57l-39.28-.27v-84.12c1-.21,2-.46,3-.76,6.31-1.91,12.39-5.41,19-5.11,3.95.18,7.68,1.74,11.43,3q2.94,1,5.92,1.66v85.64Z"/><path class="cls-7" d="M427.41,813.53c-13.17,61.61-17.35,126.27-.13,186.75,5.62,19.75,13.5,39,15.93,59.4,1.69,14.21.69,28.45-1.14,42.7l-.65-.14c-2.53-.57-5.05-1.19-7.58-1.86,1.65-13.57,2.49-27.16.89-40.7-2.43-20.38-10.31-39.65-15.94-59.4-17.22-60.5-13-125.19.15-186.81C421.72,813.47,424.55,813.48,427.41,813.53Z"/><path class="cls-7" d="M407.24,625.16c1-34.64,2.08-70.54,3.05-105.42,1,.35,2.11.68,3.18,1a59.71,59.71,0,0,0,3-14.63c.2-2.54.23-5.12,1.12-7.51a38.84,38.84,0,0,1,2.18-4.32c-1,34.88-3.1,96.22-4.07,130.86-.55,20.19-1.11,40.66,3.5,60.32,4.82,20.64,15.21,39.94,17.47,61,2.14,20-3.18,39.93-7.63,59.53-.57,2.49-1.12,5-1.66,7.51-2.86,0-5.69-.06-8.47-.06.54-2.48,1.07-5,1.64-7.45,4.45-19.6,9.78-39.53,7.63-59.53-2.25-21.07-12.65-40.37-17.47-61C406.14,665.82,406.69,645.35,407.24,625.16Z"/><path class="cls-7" d="M442.07,1102.38c-3.46,27-9.84,54.06-6.31,80.95v.1c-.48,0-1-.1-1.45-.12a22.06,22.06,0,0,0-6.8.87l-.23-.85c-3.63-27.56,3.16-55.26,6.56-82.95,2.53.67,5.05,1.29,7.58,1.86Z"/><path class="cls-5" d="M457.17,442.87c-12.05,7.85-24.67,17.82-33.37,29.64,3.75-7.23,9.25-15,15.63-22.93,11-13.76,24.77-28.07,36.72-41.06,6.44-7,12.38-13.62,17.12-19.58,3.7-4.65,7.35-9.51,9.24-15.13l.05-.13c1.72-5.21,1.76-11.23-.94-15.94-.08-1.94-.17-3.86-.25-5.8-.8-19.3.2-38.83,1.17-59.2-.45,23.33,24.14,35.15,38.4,52.8a252.82,252.82,0,0,1,21.15,30.51A245.94,245.94,0,0,1,576.75,405c-4.88-.68-16,.71-27.08,2.48C515.88,412.87,485.86,424.19,457.17,442.87Z"/><path class="cls-4" d="M420.57,487a5.61,5.61,0,0,0-2.88-2.84,48.57,48.57,0,0,1,5.17-7,85.69,85.69,0,0,0-2.28,9.82Z"/><path class="cls-5" d="M420.58,487a85.69,85.69,0,0,1,2.28-9.82c6.59-7.53,15.46-14,23.58-20.15,15.57-11.82,37.26-21.63,55.77-27.9a296.86,296.86,0,0,1,34.29-9.44l.13.65L592,442.1l-.72,1.8c-3.36,59.3-8.05,120.39-13.74,179.51-.75,0-1.52.05-2.28.05-28.18.21-56.85-5.09-81.45-18.85a434,434,0,0,0-3.32,56.55,617,617,0,0,0,7.82,93.08c.47,2.92,1,6,3,8.21s5,3,7.86,3.75c23.77,6,46.43,9.38,70.43,9.06h0c.13,20.22.39,50.08.54,70.3.13,19.09.28,38.26,3.23,57.1,3.58,22.8,11.18,44.76,16.16,67.29,14.92,67.43,3.87,143.56-28,204.8,0,0,0,0,0,0-.89.58-1.78,1.2-2.68,1.77-6.53,4-14.38,5.09-22,6.08l-37.15,4.82c-21.31,2.78-43.47,5.47-63.9-1.19-3.28-1.07-6.56-2.39-10-2.83v-.1c-3.53-26.89,2.85-53.94,6.31-80.95,1.83-14.25,2.83-28.49,1.14-42.7-2.43-20.38-10.31-39.65-15.93-59.4-17.22-60.48-13-125.14.13-186.75.54-2.51,1.09-5,1.66-7.51,4.45-19.6,9.77-39.53,7.63-59.53-2.26-21.07-12.65-40.37-17.47-61-4.61-19.66-4.05-40.13-3.5-60.32,1-34.64,3.1-96,4.07-130.86a10.46,10.46,0,0,0,1.3-3.9,6.49,6.49,0,0,0-.53-3.4Z"/><path class="cls-4" d="M417,483.92a63.59,63.59,0,0,1,6.77-11.41c8.7-11.82,21.32-21.79,33.37-29.64,28.69-18.68,58.71-30,92.5-35.42,11.07-1.77,22.2-3.16,27.08-2.48q2,4.75,3.87,9.58a231.69,231.69,0,0,0-44.12,5.14,296.86,296.86,0,0,0-34.29,9.44C483.7,435.4,462,445.21,446.44,457c-8.12,6.17-17,12.62-23.58,20.15a48.57,48.57,0,0,0-5.17,7A3.51,3.51,0,0,0,417,483.92Z"/><path class="cls-4" d="M410.29,519.74a136.88,136.88,0,0,1-15.36-6.26c4.46-4.22,8.82-8.57,13-13.07a9.81,9.81,0,0,0,2.63-4c.62-2.35-.54-4.81-.35-7.22.33-4.35,3.38-6,6.17-5.49.15.21.3.42.44.64a49.32,49.32,0,0,0-2.53,7.11,30.33,30.33,0,0,0-1.51,9.74,44.73,44.73,0,0,1,1.51-9.74,34,34,0,0,1,2.93-6.52v0c.15-.27.3-.54.47-.8a5.61,5.61,0,0,1,2.88,2.84,6.49,6.49,0,0,1,.53,3.4,10.46,10.46,0,0,1-1.3,3.9,38.84,38.84,0,0,0-2.18,4.32c-.89,2.39-.92,5-1.12,7.51a59.71,59.71,0,0,1-3,14.63C412.4,520.42,411.34,520.09,410.29,519.74Z"/><path class="cls-8" d="M393.42,449.58s20.74,11.43,46,0c-6.38,7.93-11.88,15.7-15.63,22.93A63.59,63.59,0,0,0,417,483.92a4,4,0,0,0-.41-.12c-1-1.95-2.2-3.93-3.49-5.9h0C408.63,469.19,401.55,459.5,393.42,449.58Z"/><path class="cls-4" d="M418.14,29.45a106.11,106.11,0,0,0-29.78,4.15l-.18-.66-2.49-3.64c-2.06-3-4.17-6-7.05-8.15A18.31,18.31,0,0,0,371.53,18C377,10,387.26,5.62,396.83,5.22a19.22,19.22,0,0,1,7.28.84c2.35.8,4.81,1.47,6.1,2.44,7.28,5.44,11.38,12.55,15.64,20.64l0,.56C423.26,29.54,420.72,29.45,418.14,29.45Z"/><path class="cls-4" d="M340.3,38.84c.53-6.78,6-13.55,11.86-16.88a31.9,31.9,0,0,1,13.22-4.36,22.26,22.26,0,0,1,6.15.39,18.31,18.31,0,0,1,7.11,3.16c2.88,2.16,5,5.19,7.05,8.15l2.49,3.64.18.66a116.51,116.51,0,0,0-26,11.27c-4.05-7.35-12.72-8.67-20.72-6.45Z"/><path class="cls-4" d="M341.64,38.42c8-2.22,16.67-.9,20.72,6.45-1.31.75-2.63,1.55-3.95,2.37C346,55,334.59,65.17,327.76,78.26c-4.15,7.93-6.49,16.7-8.47,25.47-5.4,23.93-8.27,48.32-10.36,72.81-3.19-4.27-6.29-8.51-9.09-12.84-6.15-9.57-10.67-19.6-10.79-31.43-.07-7.13,1.72-14.15,3.75-21,6.22-21,15-41.59,29-58.28,5.09-6,11.12-11.7,18.5-14.18Z"/><path class="cls-5" d="M258.34,775.27h0c24,.32,46.66-3.08,70.43-9.06,2.86-.7,5.87-1.57,7.86-3.75s2.56-5.29,3-8.21a614.65,614.65,0,0,0,7.84-93.08,436,436,0,0,0-3.32-56.55,146.78,146.78,0,0,1-46.81,16.1l-26.63-60.55,10.14-4.44-3.43-34.84-23.83-5.23-2.09.17c-1.89-24.84-3.57-49.09-5-73.94L296.3,422.3a295.43,295.43,0,0,1,38.07,10.19c18.5,6.28,40.2,16.1,55.77,27.92,14.83,11.28,20.52,15.13,26.24,23.34-2.79-.5-5.84,1.14-6.17,5.49-.19,2.41,1,4.87.35,7.22a9.81,9.81,0,0,1-2.63,4c-4.18,4.5-8.54,8.85-13,13.07a136.88,136.88,0,0,0,15.36,6.26c-1,34.88-2.08,70.78-3.05,105.42-.55,20.19-1.1,40.66,3.5,60.32,4.82,20.64,15.22,39.94,17.47,61,2.15,20-3.18,39.93-7.63,59.53-.57,2.48-1.1,5-1.64,7.45-13.17,61.62-17.37,126.31-.15,186.81,5.63,19.75,13.51,39,15.94,59.4,1.6,13.54.76,27.13-.89,40.7-3.4,27.69-10.19,55.39-6.56,82.95l.23.85c-4.08,1.09-8.07,3-12.17,4.22-23.93,7.28-48.93-8.4-73.92-7.35-12.32.52-24.29,5.14-36.61,4.91-13.89-.27-26.66-6.58-39.78-11.45C233.1,1113.29,223.49,1037.39,238.4,970c5-22.53,12.59-44.49,16.15-67.29,3-18.84,3.12-38,3.25-57.1C258,825.35,258.19,795.49,258.34,775.27Z"/><path class="cls-3" d="M335,361.11c.08-1.94.17-3.87.25-5.81.75-18.24-.1-39.7-1-59.2l-.15-3.33a283.43,283.43,0,0,0,20.42,24.52c8.18,8.89,16.82,17.56,27.16,23.7,0,0,9.74,10.33,36.52,10.33S454.66,341,454.66,341A87.28,87.28,0,0,0,468,331.12c1.91,24.55,13.12,51.71,8.17,77.4-11.95,13-25.68,27.3-36.72,41.06-25.27,11.43-46,0-46,0-16.62-20.3-37.64-41.58-50.11-57.26-3.7-4.65-7.35-9.5-9.24-15.14l.22-.09C334.51,371.77,334.72,366.43,335,361.11Z"/><path class="cls-5" d="M412.38,1284.3l-131.2-.88v-.19c22.7-24.32,29.06-51.8,23.63-86.28,12.32.26,24.29-4.36,36.61-4.88,24-1,47.93,13.35,71,8.11v84.12Z"/><path class="cls-3" d="M288.92,167.82c2.15-3.49,6.84-5.73,10.41-3.77l.51-.35c2.8,4.33,5.9,8.57,9.09,12.84-.88,10.27-1.64,20.57-2.37,30.84a112.93,112.93,0,0,0,1.89,28.84c-6-4.29-14.8-17.71-16.46-25-2.94-12.87-6.44-19-5.79-31.54C286.42,175.6,286.74,171.3,288.92,167.82Z"/><path class="cls-9" d="M292.43,621.5q-4.17.6-8.37,1l-25.14-57.19-3.58,1.58-6.56,2.86-11.11-12.5-12.15-13.66,12.35-21.06,4.2,9.61-4.67,8,13.17,14.81,3.9-1.71L268.75,547l-1.94-19.73-9-2-4.2-9.61,23.83,5.23,3.43,34.84-10.14,4.44,26.63,60.55c-1.46.27-3,.5-4.42.72Z"/><path class="cls-5" d="M281.18,1283.42l-27.75-.19c1.26-.8,2.48-1.65,3.65-2.51a69,69,0,0,0,22.63-28.12c7.83-17.65,8.84-38.61,4.79-59.68a67.38,67.38,0,0,0,20.31,4c5.43,34.48-.93,62-23.63,86.28Z"/><path class="cls-5" d="M284.06,622.5a198.21,198.21,0,0,1-21.37,1c-.75,0-1.51,0-2.26-.05-1.91-19.87-3.38-36-5.09-56.52l3.58-1.58Z"/><path class="cls-5" d="M177.15,661.15c97.86,40.45,168.85.83,170.33,0a614.65,614.65,0,0,1-7.84,93.08c-.45,2.92-1,6-3,8.21s-5,3-7.86,3.75c-23.77,6-46.43,9.38-70.43,9.06a261,261,0,0,1-59.79-8,12.58,12.58,0,0,1-9.12-9C180.83,725.57,177.28,693.82,177.15,661.15Z"/><path class="cls-5" d="M179.24,611.12c21.51,5.24,43.31,9.72,65.34,11.52,5.27.43,10.56.7,15.85.77.75,0,1.51.05,2.26.05a198.21,198.21,0,0,0,21.37-1q4.2-.4,8.37-1l.5-.07,4.47-.59,0-.13a146.78,146.78,0,0,0,46.81-16.1,436,436,0,0,1,3.32,56.55c-1.48.82-72.47,40.44-170.33,0C177.06,644.78,177.83,628.18,179.24,611.12Z"/><path class="cls-4" d="M259.81,408.36c4.9-.71,16,.68,27.1,2.47,33.79,5.43,63.81,16.72,92.48,35.4,16.92,11,27.13,21.46,33.74,31.67,1.29,2,2.45,4,3.49,5.9l-.24-.05c-5.72-8.21-11.41-12.06-26.24-23.34-15.57-11.82-37.27-21.64-55.77-27.92A295.43,295.43,0,0,0,296.3,422.3,229.51,229.51,0,0,0,256,417.91C257.18,414.7,258.45,411.52,259.81,408.36Z"/><path class="cls-3" d="M225.32,1283.05l-129.25-.87c.14-5.69.06-11.4-.25-17.09-.21-4.17-.57-8.34-1-12.49l-.47-.61c10.23-7.65,20.27-19.37,28.54-25.81,10.88-8.49,24-13.58,36.94-18.25,3.21-1.13,6.46-2.29,9.72-3.28-.62,6.2,6,12.25,11.17,15.72,1.77,1.19,3.49,2.29,5.18,3.33,18.83,11.55,32.67,14.08,56.24,17.81,9.41,1.49,28.17,9.67,37.59,11.09a69,69,0,0,1-22.63,28.12c-5.54-1.44-7.41-1.89-13.35-2-7.28-.16-12.61-.3-18.41,4.07Z"/><path class="cls-5" d="M286.91,410.83c-11.08-1.79-22.2-3.18-27.1-2.47a250.24,250.24,0,0,1,17.07-32.91,254.45,254.45,0,0,1,18.76-26.53c14.26-17.65,38.83-29.49,38.4-52.82h.15c.92,19.5,1.77,41,1,59.2-.08,1.94-.17,3.87-.25,5.81-2.7,4.72-2.66,10.73-.94,15.93l.05.14c1.89,5.64,5.54,10.49,9.24,15.14,12.47,15.68,33.49,37,50.11,57.26,8.13,9.92,15.21,19.61,19.73,28.32h0c-6.61-10.21-16.82-20.64-33.74-31.67C350.72,427.55,320.7,416.26,286.91,410.83Z"/><path class="cls-5" d="M251.51,515.82l2.09-.17,4.2,9.61,9,2L268.75,547l-14.28,6.24C253.43,540.51,252.45,528.09,251.51,515.82Z"/><path class="cls-10" d="M253.43,1283.23l-28.11-.18v-.27c5.8-4.37,11.13-4.23,18.41-4.07,5.94.12,7.81.57,13.35,2C255.91,1281.58,254.69,1282.43,253.43,1283.23Z"/><path class="cls-5" d="M235.19,559.45l2.48-2.2,11.11,12.5,6.56-2.86c1.71,20.55,3.18,36.65,5.09,56.52-.6-1-22.81-37.81-22.93-39.65v0s0,0,0,0a20.05,20.05,0,0,0,3-10.54A20.33,20.33,0,0,0,235.19,559.45Z"/><path class="cls-9" d="M237.5,583.76c.12,1.84,22.33,38.66,22.93,39.65-5.29-.07-10.58-.34-15.85-.77,0,0-16.3-30.85-17.69-30.3A20.38,20.38,0,0,0,237.5,583.76Z"/><path class="cls-5" d="M151,758.5c-.07-2.51-.12-5-.2-7.58-2.26-80.6-10.8-175.2-33.36-263.25,8-14.26,27.78-16.17,44.22-18.59,25.09-3.72,48.92-13.07,72.52-22.36l12.3-4.84c1.42,24.85,3.1,49.1,5,73.94.94,12.27,1.92,24.69,3,37.39l-3.9,1.71L237.4,540.11l4.67-8-4.2-9.61-12.35,21.06,12.15,13.66-2.48,2.2a20.35,20.35,0,1,0-15.06,34,19.92,19.92,0,0,0,6.76-1.16c1.39-.55,17.69,30.3,17.69,30.3-22-1.8-43.83-6.28-65.34-11.52-1.41,17.06-2.18,33.66-2.09,50,.13,32.67,3.68,64.42,12.28,97.09a12.58,12.58,0,0,0,9.12,9,261,261,0,0,0,59.79,8h0c-.15,20.22-.39,50.08-.54,70.3-.13,19.09-.28,38.26-3.25,57.1C251,925.47,243.37,947.43,238.4,970c-14.91,67.43-5.3,143.33,26.63,204.55-3.13-1.15-6.29-2.24-9.49-3.13-15.21-4.27-31.28-4.28-46.78-7.33s-30.79-8.89-38.66-22.59h0a36.91,36.91,0,0,1-.36-7.79c.28-4.82,1.49-9.67.6-14.41-.74-4-2.86-7.51-5.09-10.88-12.77-19.23-30.79-36.58-34.13-59.43-2.87-19.75-8.3-37.5-5.8-57.3,2.16-17.13-.47-34.82,3.66-51.57a85.72,85.72,0,0,1,3.33-10.29c3-7.79,6.8-15.32,9.66-23.18a130,130,0,0,0,8.18-39.18c.64-16.24,1.13-34.36,1.29-54C151.57,796.19,151.47,777.78,151,758.5Z"/><path class="cls-9" d="M220.13,583.69a10.54,10.54,0,1,0-10.53-10.54A10.54,10.54,0,0,0,220.13,583.69Zm0,9.81a20.36,20.36,0,1,1,20.35-20.35,20.05,20.05,0,0,1-3,10.54s0,0,0,0v0a20.38,20.38,0,0,1-10.61,8.58A19.92,19.92,0,0,1,220.13,593.5Z"/><path class="cls-5" d="M220.13,583.69a10.54,10.54,0,1,1,10.54-10.54A10.54,10.54,0,0,1,220.13,583.69Z"/><path class="cls-1" d="M187.07,1201.44a36.48,36.48,0,0,1,17.68,3.8,4.6,4.6,0,0,1,2.34,2.93,4.66,4.66,0,0,1-2.88,5.61,81.8,81.8,0,0,0-18.33,9.9v0c-1.69-1-3.41-2.14-5.18-3.33-5.18-3.47-11.79-9.52-11.17-15.72A67.21,67.21,0,0,1,187.07,1201.44Z"/><path class="cls-5" d="M190.69,1170.41c4.75,1.86,13.12,3.68,18.07,4.65,15.5,3,31.57,3.07,46.78,7.32,9.83,2.74,19.28,7.26,29,10.54,4.05,21.07,3,42-4.79,59.68-9.42-1.42-28.18-9.6-37.59-11.09-23.57-3.73-37.41-6.26-56.24-17.81v0a81.8,81.8,0,0,1,18.33-9.9,4.66,4.66,0,0,0,2.88-5.61h0A107.06,107.06,0,0,0,190.94,1171Z"/><path class="cls-5" d="M12.26,764.88c30.36,48.34,99.38,48,127.16,47.8q-1.72,10.37-3.33,20.79c-4.62,30.12-8.43,60.77-4.57,91,.24,1.78.49,3.55.77,5.33A85.72,85.72,0,0,0,129,940.08c-4.13,16.75-1.5,34.44-3.66,51.57-2.5,19.8,2.93,37.55,5.8,57.3,3.34,22.85,21.36,40.2,34.13,59.43,2.23,3.37,4.35,6.92,5.09,10.88.89,4.74-.32,9.59-.6,14.41a36.91,36.91,0,0,0,.36,7.79c0,.2.07.4.11.58l-.69.12c-9.21.57-20.07,1.17-29,3.41-13.79,3.47-26.26,10.75-38.53,17.93-14,8.18-25.09,17.37-39.06,25.56-.34-1.93-.69-3.82-1.06-5.73C56,1153.09,42.08,1130,36.38,1101.94c-8.77-43.21-15.75-85.91-24.17-129.19C7.64,949.25.22,925.94.88,902c1.1-41,25.7-81.34,15-120.92C14.45,775.73,12.36,770.44,12.26,764.88Z"/><path class="cls-4" d="M140.48,1145.57c9-2.24,19.81-2.84,29-3.41l.69-.12a39.64,39.64,0,0,0,20.5,28.37l.25.57a107.06,107.06,0,0,1,16.18,37.19h0a4.6,4.6,0,0,0-2.34-2.93,36.48,36.48,0,0,0-17.68-3.8,67.21,67.21,0,0,0-17.54,3.21c-3.26,1-6.51,2.15-9.72,3.28-13,4.67-26.06,9.76-36.94,18.25-8.27,6.44-18.31,18.16-28.54,25.81a39.33,39.33,0,0,1-12.26,6.64,48.74,48.74,0,0,1-7-13.37c-6.51-17.89-8.87-37.36-12.2-56.2,14-8.19,25.08-17.38,39.06-25.56C114.22,1156.32,126.69,1149,140.48,1145.57Z"/><path class="cls-5" d="M170.1,1141.46c7.87,13.7,23.15,19.56,38.66,22.59s31.57,3.06,46.78,7.33c3.2.89,6.36,2,9.49,3.13,13.12,4.87,25.89,11.18,39.78,11.45,12.32.23,24.29-4.39,36.61-4.91,25-1,50,14.63,73.92,7.35,4.1-1.24,8.09-3.13,12.17-4.22a22.06,22.06,0,0,1,6.8-.87c.48,0,1,.07,1.45.12,3.42.44,6.7,1.76,10,2.83,20.43,6.66,42.59,4,63.9,1.19l37.15-4.82c7.6-1,15.45-2.06,22-6.08.9-.57,1.79-1.19,2.68-1.77,0,0,0,0,0,0a19.24,19.24,0,0,1,3.9-2.14,11.74,11.74,0,0,1,1.63-.49q-1.79,6.07-3.25,12.26c-1.72.92-3.3,2.14-5,3.18-.79.48-1.59.92-2.41,1.32-6,2.94-12.89,3.88-19.57,4.75l-37.15,4.82c-19.27,2.49-39.23,5-58,.47q-3-.71-5.92-1.66c-3.75-1.22-7.48-2.78-11.43-3-6.58-.3-12.66,3.2-19,5.11-1,.3-2,.55-3,.76-23,5.24-47-9.13-71-8.11-12.32.52-24.29,5.14-36.61,4.88a67.38,67.38,0,0,1-20.31-4c-9.68-3.28-19.13-7.8-29-10.54-15.21-4.25-31.28-4.27-46.78-7.32-4.95-1-13.32-2.79-18.07-4.65a39.64,39.64,0,0,1-20.5-28.37c0-.18-.07-.38-.11-.58Z"/><path class="cls-1" d="M139.42,812.68q4.53-27.34,10-54.51a5.14,5.14,0,0,1,1.66.33c.43,19.28.53,37.69.38,55h-.08C151.32,812.58,146.85,812.61,139.42,812.68Z"/><path class="cls-5" d="M150.84,750.92c.08,2.55.13,5.07.2,7.58a5.14,5.14,0,0,0-1.66-.33C149.85,755.76,150.34,753.33,150.84,750.92Z"/><path class="cls-5" d="M117.48,487.67c22.56,88.05,31.1,182.65,33.36,263.25-.5,2.41-1,4.84-1.46,7.25-13.19-1.29-89.67,7.28-128.34-51.08,1.48-15.25,7.18-29.69,12.39-44.09A733.68,733.68,0,0,0,71.49,504.46l1.05-.55c6.93-22,16.32-44.66,32.14-60.68Q111.73,465.09,117.48,487.67Z"/><path class="cls-2" d="M131.52,924.46c-3.86-30.22-.05-60.87,4.57-91q1.6-10.43,3.33-20.79c7.43-.07,11.9-.1,11.92.79h.08c-.16,19.6-.65,37.72-1.29,54A130,130,0,0,1,142,906.61c-2.86,7.86-6.66,15.39-9.66,23.18C132,928,131.76,926.24,131.52,924.46Z"/><path class="cls-4" d="M117.48,487.67q-5.74-22.55-12.8-44.44a72.63,72.63,0,0,1,16.38-12.6c14.41-8.06,31.17-10.51,47.32-13.91a372.54,372.54,0,0,0,108.5-41.27,250.24,250.24,0,0,0-17.07,32.91c-1.36,3.16-2.63,6.34-3.85,9.55a229.51,229.51,0,0,1,40.34,4.39l-49.78,19.58-12.3,4.84c-23.6,9.29-47.43,18.64-72.52,22.36C145.26,471.5,125.48,473.41,117.48,487.67Z"/><path class="cls-4" d="M21,707.09c38.67,58.36,115.15,49.79,128.34,51.08q-5.41,27.17-10,54.51c-27.78.2-96.8.54-127.16-47.8-.14-8.17,4-15.7,6.09-23.6C21.25,730.19,19.94,718.49,21,707.09Z"/><path class="cls-1" d="M94.72,1265.14c-5.21.47-9.37-2.36-12.65-6.51A39.33,39.33,0,0,0,94.33,1252l.47.61c.45,4.15.81,8.32,1,12.49Z"/><path class="cls-11" d="M418.14,352.15c-25.82,0-36-9.4-37-10.5-9.83-5.85-18-13.75-27.26-23.79a286.06,286.06,0,0,1-20.48-24.59h0A167.25,167.25,0,0,1,318.43,269a127.81,127.81,0,0,1-10.81-32.61,114.74,114.74,0,0,1-1.9-29.05c.71-9.88,1.48-20.4,2.38-30.86,1.72-20.2,4.46-46.75,10.38-72.91C320.39,95,322.76,86,327,77.87,333.16,66.1,343.57,55.55,358,46.54c1.55-1,2.82-1.73,4-2.4A117.74,117.74,0,0,1,388.13,32.8,107.05,107.05,0,0,1,418,28.62c2.69,0,5.25.08,7.92.25a107.27,107.27,0,0,1,32.52,7.47l.74.31a125.92,125.92,0,0,1,19.16,9.89,110.21,110.21,0,0,1,12.06,8.66,74.72,74.72,0,0,1,18.88,22.67c4.29,8.19,6.65,17.18,8.56,25.68,4.45,19.72,7.54,41,10,69,.95,10.6,1.74,21.39,2.51,31.82l.22,3a112.88,112.88,0,0,1-1.89,29A128.54,128.54,0,0,1,517.85,269a163.81,163.81,0,0,1-14.8,24.14,276.31,276.31,0,0,1-20.63,24.74,180.21,180.21,0,0,1-13.89,13.88,86.65,86.65,0,0,1-13.35,9.91C454.09,342.74,444,352.15,418.14,352.15Zm-83.43-59.87a282.71,282.71,0,0,0,20.36,24.45c9.18,10,17.28,17.79,27,23.54l.18.15c.09.1,9.88,10.06,35.91,10.06s35.82-10,35.91-10.07a1.24,1.24,0,0,1,.18-.14,85.6,85.6,0,0,0,13.19-9.78,180.68,180.68,0,0,0,13.77-13.76,276.2,276.2,0,0,0,20.51-24.6,161.06,161.06,0,0,0,14.65-23.9A126.41,126.41,0,0,0,527,236a111.33,111.33,0,0,0,1.86-28.54l-.22-3c-.77-10.43-1.56-21.22-2.51-31.8-2.48-27.91-5.56-49.12-10-68.76-1.89-8.39-4.21-17.25-8.41-25.27a73,73,0,0,0-18.47-22.16A110.64,110.64,0,0,0,477.41,48a123.54,123.54,0,0,0-18.92-9.75l-.73-.31a105.57,105.57,0,0,0-32-7.35c-2.63-.17-5.18-.26-7.81-.25a104,104,0,0,0-29.35,4.12,116,116,0,0,0-25.82,11.18c-1.15.66-2.4,1.42-3.93,2.37-14.13,8.85-24.34,19.18-30.35,30.69-4.17,8-6.5,16.85-8.39,25.26-5.89,26.07-8.62,52.55-10.34,72.7-.91,10.45-1.67,21-2.38,30.83a112.78,112.78,0,0,0,1.88,28.62,126,126,0,0,0,10.65,32.17,166.66,166.66,0,0,0,14.79,24Z"/><path class="cls-11" d="M308.93,177.37a.84.84,0,0,1-.67-.33c-3-4.06-6.24-8.43-9.12-12.89-7.45-11.58-10.82-21.42-10.93-31.87-.07-7.57,1.92-14.93,3.79-21.22,7.35-24.81,16.89-44,29.16-58.58,6.49-7.7,12.48-12.29,18.87-14.43l1.37-.43c7.52-2.09,17.15-1.39,21.69,6.84a.84.84,0,0,1-1.47.81c-4.06-7.37-12.87-8-19.76-6-.43.13-.86.26-1.3.41-6.08,2-11.84,6.46-18.12,13.92C310.33,68,300.89,87,293.6,111.53c-2.27,7.67-3.78,14.13-3.71,20.73.1,10.12,3.38,19.68,10.66,31,2.85,4.41,6,8.75,9.05,12.78a.85.85,0,0,1-.17,1.18A.83.83,0,0,1,308.93,177.37Z"/><path class="cls-11" d="M340.3,39.68h-.07a.85.85,0,0,1-.77-.9c.6-7.59,6.79-14.42,12.29-17.55a32.51,32.51,0,0,1,13.58-4.46,22.88,22.88,0,0,1,6.37.4,19.21,19.21,0,0,1,7.44,3.31c3,2.25,5.15,5.35,7.23,8.35l2.5,3.63a.84.84,0,0,1-1.38.95L385,29.78c-2-2.89-4.08-5.87-6.86-8a17.46,17.46,0,0,0-6.79-3,21,21,0,0,0-5.9-.37,30.89,30.89,0,0,0-12.87,4.24c-5.29,3-10.92,9.56-11.45,16.23A.83.83,0,0,1,340.3,39.68Z"/><path class="cls-11" d="M425.86,30a.84.84,0,0,1-.75-.44c-4.21-8-8.28-15-15.4-20.36a18.11,18.11,0,0,0-4.44-1.85l-1.43-.47a18.07,18.07,0,0,0-7-.79c-10.2.42-19.65,5.18-24.66,12.41l-.1.12a.81.81,0,0,1-.6.25.84.84,0,0,1-.84-.83.88.88,0,0,1,.2-.54c5.3-7.63,15.23-12.64,25.93-13.09a20.1,20.1,0,0,1,7.59.88l1.4.47a18.42,18.42,0,0,1,4.92,2.1c7.4,5.53,11.57,12.74,15.88,20.92a.84.84,0,0,1-.34,1.13A.92.92,0,0,1,425.86,30Z"/><path class="cls-11" d="M458.26,37.52a.84.84,0,0,1-.84-.75,1,1,0,0,0,0-.24l0-.28c-1-7.31-1.84-12.56-4.44-18.62a32.47,32.47,0,0,0-4-6.9,22.44,22.44,0,0,0-9.68-7.54c-4.16-1.59-8.71-1.63-13-1.44C419.41,2.07,414,4.63,410.89,9a.84.84,0,0,1-1.37-1C412.9,3.24,418.8.42,426.15.08c4.47-.2,9.23-.15,13.68,1.55a24.07,24.07,0,0,1,10.41,8.09A34.18,34.18,0,0,1,454.46,17c2.68,6.24,3.58,11.84,4.56,19.08l0,.25c0,.1,0,.2,0,.3a.85.85,0,0,1-.75.92Z"/><path class="cls-11" d="M489.82,56.68h-.15a.84.84,0,0,1-.67-1A41.35,41.35,0,0,0,489.3,44l-.13-2.14c-.27-4.69-.63-9.25-2.08-13.54a28.53,28.53,0,0,0-14.58-16.1C466.4,9.34,457.9,8.89,449.78,11a.84.84,0,1,1-.42-1.62c8.48-2.23,17.41-1.74,23.87,1.31a29.82,29.82,0,0,1,15.44,17.07c1.52,4.49,1.89,9.18,2.17,14l.13,2.12A42.7,42.7,0,0,1,490.64,56,.82.82,0,0,1,489.82,56.68Z"/><path class="cls-11" d="M527,173.49a.81.81,0,0,1-.59-.25.84.84,0,0,1-.09-1.07l.09-.13c1.73-1.92,3.39-3.95,4.94-6a.83.83,0,1,1,1.34,1c-1.56,2.12-3.24,4.18-5,6.13a.63.63,0,0,1-.11.12A.81.81,0,0,1,527,173.49Z"/><path class="cls-11" d="M532,167.3a.8.8,0,0,1-.49-.16.84.84,0,0,1-.19-1.17c11.25-15.41,14.64-32.56,10.37-52.44-3.91-18.24-15.45-37.35-25.62-54.21-2.44-4-4.74-7.85-6.92-11.61-1.1-1.9-2.46-4.26-4.53-5.5-3.87-2.35-9-.32-13.48,2a.84.84,0,1,1-.76-1.49c4.9-2.49,10.53-4.67,15.11-1.91,2.43,1.46,3.92,4,5.11,6.11,2.17,3.74,4.47,7.55,6.9,11.58,10.25,17,21.86,36.21,25.83,54.72,4.37,20.37.89,38-10.66,53.77A.81.81,0,0,1,532,167.3Z"/><path class="cls-11" d="M308.45,237.06a.89.89,0,0,1-.49-.16c-6.12-4.37-15.06-17.92-16.78-25.45-.86-3.74-1.74-6.85-2.6-9.85-2.06-7.21-3.68-12.91-3.21-21.93.24-4.63.62-8.76,2.84-12.3,2.31-3.74,7.5-6.26,11.52-4.05a.83.83,0,1,1-.81,1.46c-3.18-1.75-7.38.39-9.29,3.48s-2.36,7.1-2.59,11.5c-.45,8.74,1.14,14.32,3.15,21.38.82,2.88,1.75,6.15,2.62,9.94,1.62,7.09,10.36,20.35,16.12,24.46a.83.83,0,0,1,.2,1.16A.85.85,0,0,1,308.45,237.06Z"/><path class="cls-11" d="M528.3,237.06a.84.84,0,0,1-.49-1.52c5.77-4.12,14.51-17.38,16.13-24.46.86-3.78,1.79-7.05,2.61-9.92,2-7.07,3.61-12.65,3.14-21.4-.19-3.6-.43-8.07-2.57-11.5-1.71-2.77-3.72-4.34-6-4.69-2.51-.39-5.38.77-8.53,3.45l-.07.08a.84.84,0,0,1-1.2-1.18.76.76,0,0,1,.09-.09c3.57-3.07,6.93-4.38,10-3.91,2.74.42,5.14,2.26,7.12,5.46,2.37,3.79,2.62,8.5,2.82,12.29.48,9-1.14,14.73-3.2,21.94-.85,3-1.74,6.1-2.59,9.84-1.72,7.51-10.66,21.07-16.78,25.45A.89.89,0,0,1,528.3,237.06Z"/><path class="cls-11" d="M415.1,491.72l-1.62-.43a50.12,50.12,0,0,1,2.57-7.24l.82.24-.77-.33a4,4,0,0,1,.21-.45,63.63,63.63,0,0,1,6.81-11.5c7.49-10.16,18.79-20.2,33.59-29.84,28.31-18.44,58.68-30.06,92.83-35.54,13.93-2.24,23.13-3.07,27.33-2.48l-.23,1.65c-4-.57-13.07.27-26.83,2.48-33.92,5.44-64.07,17-92.18,35.29C443,453.1,431.83,463,424.47,473a62.27,62.27,0,0,0-6.67,11.27l-.13.26-.05.12-.78-.3.72.41A49,49,0,0,0,415.1,491.72Z"/><path class="cls-11" d="M413.62,501.28l-1.67,0a30.93,30.93,0,0,1,1.54-10l1.61.48A43.19,43.19,0,0,0,413.62,501.28Z"/><path class="cls-11" d="M418,485.35l-1.47-.8c.17-.3.32-.57.49-.84a51.16,51.16,0,0,1,5.25-7.09c6-6.86,13.79-12.75,21.32-18.45l2.38-1.81c13.68-10.38,34.09-20.59,56-28a297.29,297.29,0,0,1,34.39-9.46,233.77,233.77,0,0,1,43.08-5.14c-1.11-2.87-2.26-5.7-3.43-8.42a244.48,244.48,0,0,0-14.61-28.83,250.48,250.48,0,0,0-21.09-30.41c-4.34-5.38-9.74-10.3-15-15.05-11.76-10.7-23.93-21.76-23.6-38.3l1.67,0c-.31,15.77,11,26.09,23.06,37,5.27,4.8,10.72,9.75,15.15,15.24a254.5,254.5,0,0,1,21.22,30.61,247,247,0,0,1,14.71,29c1.33,3.1,2.64,6.33,3.88,9.6l.43,1.12-1.2,0a231,231,0,0,0-44,5.12,296.43,296.43,0,0,0-34.19,9.41c-21.76,7.37-42,17.5-55.53,27.77l-2.39,1.81c-7.46,5.65-15.17,11.49-21.07,18.23a49.56,49.56,0,0,0-5.09,6.86C418.24,484.85,418.1,485.1,418,485.35Z"/><path class="cls-11" d="M501.46,373.76l0-.6c-.21-5.12-.42-10.26-.64-15.38l-.26-5.81c-.77-18.58.12-37.18,1.06-56.88l.12-2.39,1.67.08-.12,2.39c-.94,19.66-1.82,38.23-1.05,56.73l.25,5.81c.22,5.12.43,10.26.64,15.38l0,.6Z"/><path class="cls-11" d="M424.54,472.89l-1.49-.77c3.45-6.65,8.59-14.19,15.73-23.07,8.84-11,19.27-22.25,29.36-33.11,2.51-2.71,5-5.37,7.39-8,5.61-6.09,12-13.17,17.08-19.54,3.75-4.71,7.26-9.39,9.11-14.88l0-.1c1.81-5.48,1.49-11.18-.86-15.28a13.22,13.22,0,0,0-.78-1.22l1.36-1a12.59,12.59,0,0,1,.87,1.37c2.62,4.56,3,10.62,1,16.6l0,.11c-1.94,5.77-5.7,10.78-9.39,15.41-5.09,6.41-11.53,13.52-17.16,19.63-2.4,2.61-4.88,5.28-7.39,8-10.07,10.84-20.48,22.06-29.29,33C433,458.89,427.93,466.34,424.54,472.89Z"/><path class="cls-11" d="M415.09,491.76l-1.6-.51a35.19,35.19,0,0,1,2.78-6.3l-.4-.77c-1.06-2-2.21-3.95-3.44-5.83-7.23-11.16-18.18-21.44-33.49-31.42-28.07-18.29-58.22-29.82-92.17-35.27-13.75-2.22-22.79-3.06-26.84-2.48l-.24-1.65c4.23-.61,13.43.23,27.35,2.48,34.18,5.48,64.54,17.1,92.81,35.52,15.51,10.11,26.63,20.55,34,31.91,1.25,1.91,2.43,3.92,3.52,6l.7,1.34v.43l-.12.21A33.42,33.42,0,0,0,415.09,491.76Z"/><path class="cls-11" d="M416.52,485.42c-.11-.17-.22-.32-.34-.48l-.08-.11a5.72,5.72,0,0,0-.39-.57c-5.06-7.27-9.92-10.95-21.67-19.85l-4.41-3.34c-13.54-10.28-33.78-20.41-55.53-27.79a293.44,293.44,0,0,0-38-10.16A226.72,226.72,0,0,0,256,418.75l-1.2,0,.43-1.11c1.31-3.44,2.57-6.58,3.86-9.59a251.8,251.8,0,0,1,17.13-33A255.42,255.42,0,0,1,295,348.4c4.43-5.48,9.87-10.44,15.14-15.23,12-10.94,23.37-21.27,23.07-37.05l1.67,0c.31,16.53-11.85,27.61-23.61,38.31-5.22,4.76-10.62,9.67-15,15.05a253.66,253.66,0,0,0-18.7,26.44,250.84,250.84,0,0,0-17,32.8c-1.14,2.66-2.26,5.42-3.41,8.41a230.76,230.76,0,0,1,39.29,4.38,297.15,297.15,0,0,1,38.18,10.22c21.91,7.43,42.32,17.65,56,28l4.41,3.34c11.55,8.74,16.82,12.74,22,20.2a7.77,7.77,0,0,1,.46.67l.39.55Z"/><path class="cls-11" d="M335.12,377.13l-1.67-.07,0-.61c.21-5.12.42-10.26.64-15.38l.25-5.81c.76-18.46-.12-40.19-1-59.12l-.15-3.33,1.67-.08.15,3.34c.9,18.95,1.79,40.73,1,59.26l-.25,5.81q-.33,7.69-.64,15.38Z"/><path class="cls-11" d="M412.41,478.28c-4-7.73-10.44-16.95-19.64-28.17-8.33-10.18-17.67-20.5-26.71-30.47-8.84-9.76-17.18-19-23.41-26.8-3.68-4.63-7.44-9.64-9.37-15.4l0-.13c-2-6-1.62-12,1-16.62a15.58,15.58,0,0,1,.87-1.36l1.36,1a12.53,12.53,0,0,0-.78,1.22c-2.38,4.16-2.69,9.72-.87,15.25l.06.14c1.84,5.49,5.35,10.17,9.09,14.88,6.19,7.78,14.52,17,23.34,26.72,9.05,10,18.41,20.31,26.77,30.53,9.27,11.31,15.75,20.62,19.82,28.46Z"/><path class="cls-11" d="M424.61,428.21a38.67,38.67,0,0,1-19.65-22l1.58-.55a37,37,0,0,0,18.79,21.06Z"/><path class="cls-11" d="M414,521.8l-.78-.24c-1.08-.34-2.14-.67-3.2-1a137.68,137.68,0,0,1-15.46-6.3l-1.1-.52.89-.84c4.61-4.35,9-8.74,13-13a6.59,6.59,0,0,0,2.32-7.33,13.63,13.63,0,0,1-.27-3.33,6.82,6.82,0,0,1,2.49-5.16,5.9,5.9,0,0,1,4.67-1.09h0l-.17.82.18-.81.26.05.46.13a4.51,4.51,0,0,1,.76.28,6.46,6.46,0,0,1,3.29,3.26,7.22,7.22,0,0,1,.6,3.81,11.18,11.18,0,0,1-1.39,4.21c-.22.43-.46.86-.69,1.28a23,23,0,0,0-1.45,3,21.5,21.5,0,0,0-1,6c0,.42-.05.84-.09,1.26A60,60,0,0,1,414.26,521Zm-17.61-8.55a135.14,135.14,0,0,0,14.17,5.69c.79.27,1.58.52,2.38.78a58.71,58.71,0,0,0,2.73-13.65c0-.42.06-.83.08-1.24a22.76,22.76,0,0,1,1.09-6.5,23.21,23.21,0,0,1,1.54-3.17c.23-.42.46-.83.67-1.25a9.51,9.51,0,0,0,1.22-3.58,5.71,5.71,0,0,0-.46-3,4.8,4.8,0,0,0-2.46-2.44,2.43,2.43,0,0,0-.51-.18l-.1,0a2.8,2.8,0,0,0-.31-.09l-.2,0a4.18,4.18,0,0,0-3.35.76,5.35,5.35,0,0,0-1.84,4,13,13,0,0,0,.25,2.93,10.65,10.65,0,0,1,.08,4.43,10.4,10.4,0,0,1-2.84,4.32C404.78,505,400.7,509.15,396.39,513.25Z"/><path class="cls-11" d="M426.45,1183.44c-2.76-20.9.5-42.18,3.64-62.75,1-6.69,2.08-13.61,2.92-20.41,2-16.35,2.27-28.84.88-40.5-1.7-14.32-6.2-28.36-10.56-41.94-1.81-5.66-3.69-11.52-5.34-17.33-15.33-53.84-15.28-115.08.13-187.22l.11-.47c.5-2.33,1-4.66,1.54-7,.42-1.88.86-3.76,1.29-5.64,4.06-17.54,8.24-35.67,6.32-53.61-1.32-12.37-5.57-24.38-9.67-36a240,240,0,0,1-7.78-24.91c-4.64-19.79-4.07-40.5-3.52-60.53.47-16.73,1-33.75,1.47-50.8.53-18.27,1.07-36.59,1.57-54.63l1.68,0c-.51,18-1,36.36-1.58,54.63-.5,17.05-1,34.07-1.47,50.8-.54,19.92-1.11,40.51,3.48,60.1A235.68,235.68,0,0,0,419.29,710c4.13,11.7,8.41,23.8,9.76,36.37,1.95,18.22-2.27,36.49-6.36,54.16-.43,1.89-.87,3.77-1.29,5.64-.53,2.32-1,4.66-1.54,7l-.1.47c-15.36,71.86-15.41,132.84-.16,186.41,1.64,5.78,3.52,11.63,5.33,17.28,4.37,13.65,8.9,27.77,10.63,42.25,1.4,11.8,1.12,24.41-.89,40.91-.84,6.82-1.9,13.75-2.92,20.45-3.13,20.46-6.37,41.62-3.64,62.28Z"/><path class="cls-11" d="M434.93,1183.44c-2.74-20.9.51-42.18,3.65-62.77.92-6,1.88-12.27,2.66-18.4,1.5-11.67,3-27,1.14-42.49-1.71-14.32-6.21-28.36-10.56-41.94-1.82-5.66-3.69-11.52-5.35-17.33-15.33-53.84-15.29-115.06.12-187.15.54-2.51,1.09-5,1.66-7.53.43-1.88.87-3.76,1.3-5.65,4.05-17.53,8.24-35.66,6.32-53.6-1.33-12.37-5.57-24.38-9.67-36a237.62,237.62,0,0,1-7.79-24.91c-4.63-19.79-4.07-40.5-3.52-60.53.48-17.11,1.26-41.17,2-64.44.77-24,1.57-48.77,2.06-66.42l1.67,0c-.49,17.66-1.29,42.46-2.06,66.44-.75,23.26-1.53,47.32-2,64.43-.55,19.92-1.11,40.51,3.47,60.1A238.12,238.12,0,0,0,427.78,710c4.13,11.7,8.4,23.8,9.75,36.37,2,18.22-2.27,36.49-6.35,54.16-.43,1.88-.87,3.76-1.3,5.64-.56,2.5-1.12,5-1.65,7.51-15.35,71.81-15.4,132.77-.15,186.34,1.65,5.79,3.52,11.63,5.33,17.28,4.38,13.65,8.91,27.77,10.63,42.25,1.86,15.63.37,31.14-1.14,42.9-.79,6.15-1.74,12.4-2.66,18.45-3.13,20.46-6.36,41.63-3.65,62.29Z"/><path class="cls-11" d="M421.41,487.12l-1.66-.24a85.69,85.69,0,0,1,2.31-9.95l.14-.43c.06-.2.13-.4.19-.57l1.58.56c-.06.16-.12.33-.18.52l-.14.43A83.62,83.62,0,0,0,421.41,487.12Z"/><path class="cls-11" d="M572.13,839.6A478.08,478.08,0,0,0,427.4,814.37c-2.57,0-5.33-.07-8.46-.07a432.76,432.76,0,0,0-104,12.74c-24.51,6.21-38.55,12.47-38.69,12.53l-.69-1.53c.56-.25,57-25.18,143.39-25.41,3.14,0,5.91,0,8.49.07A479.57,479.57,0,0,1,572.67,838Z"/><path class="cls-11" d="M576.48,776.11c-21.35,0-42.91-2.91-67.53-9.1-3-.74-6.14-1.66-8.28-4s-2.82-6-3.24-8.65a616.22,616.22,0,0,1-7.83-93.2,437.14,437.14,0,0,1,3.32-56.67l.16-1.22,1.08.6c22.35,12.5,50.38,18.94,81.05,18.74.74,0,1.5,0,2.24,0,28.89-.48,57.17-6.47,81-12.26l.95-.23.08,1c1.49,18.07,2.18,34.46,2.1,50.1-.14,34.55-4.17,66.37-12.31,97.3a13.44,13.44,0,0,1-9.73,9.6,261.39,261.39,0,0,1-60,8C578.55,776.11,577.51,776.11,576.48,776.11ZM494.43,605.94a436,436,0,0,0-3.15,55.22,612.93,612.93,0,0,0,7.81,93c.49,3.1,1.05,5.83,2.82,7.78s4.67,2.82,7.44,3.5c25.68,6.46,48,9.33,70.22,9a260.14,260.14,0,0,0,59.59-8,11.73,11.73,0,0,0,8.52-8.41c8.1-30.78,12.11-62.47,12.25-96.88h0c.08-15.31-.58-31.34-2-49-23.75,5.75-51.78,11.61-80.42,12.08-.74,0-1.52,0-2.29,0C544.77,624.55,516.85,618.19,494.43,605.94Z"/><path class="cls-11" d="M572.76,680.11C523.61,680.11,492,663,490,661.9l-.21-.16.63-.61.39-.7c2.95,1.65,73.34,39.74,169.6-.06l.64,1.55C628.09,675.56,598.09,680.11,572.76,680.11Z"/><path class="cls-11" d="M416.36,455.46A53.1,53.1,0,0,1,393,450.31l.81-1.47c.21.12,20.7,11.09,45.26,0l.69,1.52A56.35,56.35,0,0,1,416.36,455.46Z"/><path class="cls-11" d="M734.18,1269.65a151.41,151.41,0,0,1-45.44-7c-.34-.1-.69-.2-1-.32l.53-1.59,1,.31c27.62,8.64,56.28,9.18,85.22,1.61l.15,0c1.15-.3,2.29-.6,3.43-.92,5.75-1.63,11.62-3.61,17.44-5.89a9.87,9.87,0,0,0,5.55-5.52,9.64,9.64,0,0,0-.19-7.72c-6.55-14.06-9.23-30.26-8.43-51,.55-15.07,2.9-30.68,5.18-45.78,1.08-7.16,2.19-14.56,3.08-21.69a328.71,328.71,0,0,0-.92-87.56c-.89-6.13-2-12.36-3-18.38-3.23-18.59-6.57-37.81-4.82-56.87a213.66,213.66,0,0,1,3.37-21.15c1.26-6.52,2.56-13.26,3.24-20,1.47-14.36.15-29.07-1.12-43.3s-2.61-29.19-1.1-43.75c.63-6.07,1.76-12.16,2.85-18,1-5.53,2.1-11.25,2.74-16.91a148.54,148.54,0,0,0,.84-17.58c0-8-.5-15.75-1.13-25l-.2-3q-.86-12.76-1.73-25.55c-5.07-72.62-12-149.64-35.07-222.87-6.05-19.17-15.15-43.34-31.94-60.34a78.13,78.13,0,0,0-6-5.53,70,70,0,0,0-10.15-6.93c-12.14-6.79-26.19-9.61-39.78-12.33-2.44-.49-4.88-1-7.3-1.49a372.5,372.5,0,0,1-107.69-40.76l-1.41-.8.83-1.46,1.41.81a370.89,370.89,0,0,0,107.2,40.57c2.42.51,4.86,1,7.29,1.49,13.72,2.75,27.9,5.59,40.26,12.51a70.72,70.72,0,0,1,10.4,7.1,77.67,77.67,0,0,1,6.18,5.65c17,17.25,26.23,41.66,32.33,61,23.17,73.41,30.07,150.55,35.15,223.26q.88,12.78,1.73,25.56l.2,3c.63,9.32,1.12,17.1,1.14,25.15a149.55,149.55,0,0,1-.86,17.78c-.65,5.71-1.72,11.46-2.75,17-1.09,5.86-2.22,11.91-2.84,17.91-1.49,14.4-.17,29.16,1.11,43.43s2.6,29.1,1.12,43.62c-.69,6.77-2,13.55-3.27,20.11a211.36,211.36,0,0,0-3.34,21c-1.74,18.84,1.58,37.94,4.8,56.42,1,6,2.13,12.28,3,18.43a329.92,329.92,0,0,1,.93,88c-.89,7.15-2,14.57-3.09,21.74-2.26,15.05-4.61,30.61-5.16,45.59-.79,20.43,1.84,36.38,8.28,50.19a11.31,11.31,0,0,1,.22,9.05,11.55,11.55,0,0,1-6.49,6.46c-5.87,2.3-11.79,4.29-17.6,5.94-1.14.32-2.3.63-3.46.93l-.15,0A160.37,160.37,0,0,1,734.18,1269.65Z"/><path class="cls-11" d="M720.24,489.1c-.17-.35-.35-.68-.54-1-7.26-13-24.81-15.49-40.29-17.71l-3.33-.49c-25.27-3.74-49.38-13.23-72.69-22.41l-11.75-4.61L564,432l-27.66-10.88.61-1.56,27.66,10.88,27.65,10.88L604,445.94c23.23,9.14,47.24,18.59,72.33,22.31l3.32.48c15.86,2.28,33.85,4.86,41.5,18.53.2.33.39.7.59,1.09Z"/><path class="cls-11" d="M578.32,623.48l-1.67-.06c5.75-59.78,10.37-120.17,13.74-179.56l1.68.09C588.69,503.37,584.07,563.78,578.32,623.48Z"/><path class="cls-11" d="M572.21,1175.15l-1.49-.77c32.16-61.7,42.62-138.05,28-204.24-2-8.87-4.38-17.81-6.71-26.45-3.59-13.3-7.29-27-9.47-40.89-3-19-3.11-38.44-3.24-57.23-.06-7.55-.13-16.44-.2-25.68-.12-15.49-.25-31.94-.34-44.61h1.68c.08,12.66.21,29.11.33,44.61.08,9.23.15,18.13.2,25.68.14,18.73.27,38.1,3.22,57,2.17,13.76,5.86,27.46,9.44,40.71,2.33,8.66,4.75,17.62,6.72,26.52C615.05,1036.34,604.54,1113.11,572.21,1175.15Z"/><path class="cls-11" d="M687.32,759.17a.55.55,0,0,0,.1-.31h-1.68a1.28,1.28,0,0,1,.77-1.15c1.2-.75,4.58-.88,12.11-1.12,14.31-.44,38.26-1.18,62.3-8.91,15.45-5,28.58-12.15,39-21.34l1-.93,1.12,1.24-1.05.94c-10.62,9.35-23.94,16.64-39.62,21.69-24.26,7.8-48.36,8.54-62.75,9-5.59.17-10.42.32-11.36.9Z"/><path class="cls-11" d="M687.29,813.79a.47.47,0,0,0,.13-.31l-1.68,0c0-1.78,2.75-1.94,13.14-2.25,13.66-.4,36.52-1.08,59.64-7.69,18-5.14,32.94-13,44.47-23.48l.24-.22h.32v.84l.55.62c-11.71,10.62-26.9,18.64-45.13,23.85-23.32,6.67-46.31,7.35-60.05,7.76C693.32,813,688,813.2,687.29,813.79Z"/><path class="cls-11" d="M719,938.31l-.43-1.62c11.82-3.12,23.38-6,34.72-6.83,10.87-.83,20.26.3,28.67,3.46l-.59,1.57c-8.18-3.08-17.33-4.17-28-3.36C742.22,932.35,730.75,935.21,719,938.31Z"/><path class="cls-11" d="M716,926.79l-.48-1.6a109.12,109.12,0,0,1,38.18-4.56l2.15.15-.11,1.67-2.15-.15A107.76,107.76,0,0,0,716,926.79Z"/><path class="cls-11" d="M693.09,1286a144.66,144.66,0,0,1-4.93-24.06c-.32-2.32-.61-4.65-.91-7-.75-6-1.53-12.13-2.66-18.12-1.22-6.5-2.9-13-4.53-19.36l-.89-3.45q-1.49-5.74-3-11.48c-.36-1.39-.71-2.78-1.07-4.17s-.71-2.78-1.07-4.16l-.14-.54a111.9,111.9,0,0,0-3.42-11.43,36.7,36.7,0,0,0-6.37-11.31l1.26-1.1a38.37,38.37,0,0,1,6.68,11.82,117.62,117.62,0,0,1,3.47,11.6l.14.53c.36,1.4.72,2.79,1.07,4.18s.71,2.77,1.07,4.16q1.47,5.74,3,11.48l.89,3.45c1.63,6.35,3.32,12.91,4.55,19.47,1.14,6,1.93,12.23,2.68,18.22.3,2.33.59,4.66.91,7a142,142,0,0,0,4.87,23.77Z"/><path class="cls-11" d="M731.43,1209.54a256.88,256.88,0,0,1-54.61-6.37l.4-1.62c.53.13,52.77,12.9,91,1.76,9.67-2.82,17.72-7,23.92-12.31l1.1,1.27c-6.39,5.5-14.65,9.76-24.55,12.65C757,1208.34,743.9,1209.54,731.43,1209.54Z"/><path class="cls-11" d="M261.44,776.11c-1,0-2.08,0-3.11,0a261.39,261.39,0,0,1-60-8,13.43,13.43,0,0,1-9.73-9.6c-8.14-30.92-12.17-62.75-12.31-97.3-.08-15.63.61-32,2.1-50.1l.08-1,.95.23c17.76,4.32,41.23,9.54,65.21,11.49,5.38.45,10.7.7,15.79.77.77,0,1.51,0,2.25,0a199.46,199.46,0,0,0,21.29-1c2.78-.27,5.58-.6,8.33-1l.24,1.66c-2.77.4-5.6.74-8.41,1a197.22,197.22,0,0,1-21.46,1c-.76,0-1.52,0-2.29,0-5.1-.06-10.46-.32-15.88-.77-23.67-1.93-46.81-7-64.52-11.3-1.43,17.64-2.08,33.67-2,49,.15,34.41,4.15,66.1,12.26,96.88a11.74,11.74,0,0,0,8.51,8.41,260.22,260.22,0,0,0,59.6,8c22.22.29,44.54-2.57,70.21-9,2.78-.68,5.63-1.51,7.45-3.5s2.35-4.8,2.81-7.78a612.15,612.15,0,0,0,7.82-93,436,436,0,0,0-3.15-55.22,148.07,148.07,0,0,1-46,15.59c-1.26.24-2.67.47-4.44.73l-.24-1.66c1.74-.26,3.14-.48,4.39-.71a146,146,0,0,0,46.55-16l1.09-.6.15,1.22a435.38,435.38,0,0,1,3.32,56.67,613,613,0,0,1-7.84,93.2c-.5,3.24-1.12,6.34-3.22,8.65s-5.27,3.25-8.29,4C304.35,773.2,282.79,776.11,261.44,776.11Z"/><path class="cls-11" d="M265.16,680.11c-25.34,0-55.33-4.55-88.33-18.19l.64-1.55c96.27,39.8,166.65,1.71,169.59.07l.4.69.64.59-.22.18C345.92,663,314.3,680.11,265.16,680.11Z"/><path class="cls-11" d="M117.66,489.1l-1.5-.75c.2-.39.39-.76.6-1.11,7.66-13.65,25.64-16.23,41.5-18.51l3.32-.48c25.1-3.72,49.11-13.17,72.33-22.31l5.21-2.05,7.09-2.79L296,421.52a1.83,1.83,0,0,0,.31-.12l.66,1.54a3.89,3.89,0,0,1-.44.16l-49.69,19.56-7.09,2.79-5.21,2c-23.32,9.18-47.42,18.67-72.71,22.41l-3.32.49c-15.48,2.22-33,4.74-40.29,17.69C118,488.42,117.84,488.75,117.66,489.1Z"/><path class="cls-11" d="M264.29,1174.9c-31.69-60.76-41.67-137.44-26.7-205.13,2-8.93,4.39-17.9,6.73-26.59,3.57-13.22,7.26-26.9,9.41-40.64,3-18.89,3.1-38.26,3.23-57l.54-70.29h1.67l-.53,70.29c-.13,18.79-.27,38.21-3.26,57.23-2.16,13.83-5.86,27.55-9.44,40.82-2.34,8.66-4.76,17.62-6.72,26.52-14.88,67.31-5,143.57,26.55,204Z"/><path class="cls-11" d="M150.72,759.28a3.94,3.94,0,0,0-1.41-.28c-1.67-.16-4.45-.16-8-.17-23.81,0-87.07-.07-121-51.28l1.39-.92c33.43,50.46,96,50.51,119.6,50.53,3.57,0,6.38,0,8.12.18a5.49,5.49,0,0,1,2,.42,1.16,1.16,0,0,1,.75,1.1H150.5A.5.5,0,0,0,150.72,759.28Z"/><path class="cls-11" d="M150.69,813.89c-.75-.47-5.86-.42-11.26-.37-26.58.19-97.17.7-127.88-48.19l1.42-.89c30.21,48.1,100.12,47.6,126.45,47.4,10.5-.09,12.72-.05,12.76,1.61l-1.68,0A.54.54,0,0,0,150.69,813.89Z"/><path class="cls-11" d="M121.53,926.58c-20.91-20.67-54.19-11.1-74.07-5.37-5.87,1.68-10.49,3-13.56,3.25l-.13-1.67c2.9-.22,7.45-1.53,13.22-3.19,20.24-5.82,54.11-15.57,75.72,5.79Z"/><path class="cls-11" d="M93.6,1266c-4.48,0-8.58-2.31-12.19-6.88a49.26,49.26,0,0,1-7.11-13.61c-5.26-14.46-7.85-30.1-10.36-45.22q-.91-5.58-1.88-11.12c-.33-1.92-.68-3.81-1.05-5.71-3-15.57-8.19-29.37-13.23-42.71-4.86-12.88-9.46-25-12.23-38.67-4.91-24.2-9.33-48.66-13.61-72.3-3.37-18.61-6.85-37.85-10.55-56.9-1.19-6.1-2.6-12.3-3.95-18.3C3.56,937.49-.45,919.79,0,902c.45-16.6,4.77-33.28,9-49.4,6.38-24.61,12.42-47.86,6.1-71.28-.35-1.28-.73-2.56-1.12-3.83-1.22-4.05-2.48-8.24-2.56-12.57-.09-5.62,1.8-11,3.64-16.14.89-2.51,1.81-5.11,2.48-7.69,1.82-7,2-14.33,2.1-21.46.08-4.14.17-8.42.57-12.6,1.34-13.88,6.21-27.22,10.92-40.12l1.51-4.17a733.31,733.31,0,0,0,38-158.37l0-.43,1.14-.6C78,484,87.14,459.8,104.08,442.65a74.12,74.12,0,0,1,16.57-12.75c12.37-6.92,26.55-9.76,40.27-12.51,2.43-.49,4.87-1,7.29-1.49a370.53,370.53,0,0,0,108.25-41.17l.36-.21.82,1.46-.34.2a372.13,372.13,0,0,1-108.75,41.36c-2.42.51-4.86,1-7.3,1.49-13.59,2.72-27.64,5.54-39.78,12.33a72.36,72.36,0,0,0-16.2,12.46c-16.78,17-25.88,41.17-31.93,60.34l-.1.33-1,.51a734.7,734.7,0,0,1-38,158.29l-1.52,4.17c-4.67,12.8-9.5,26-10.82,39.71-.4,4.12-.49,8.37-.57,12.47-.14,7.23-.29,14.71-2.15,21.85-.69,2.65-1.62,5.28-2.53,7.83-1.86,5.26-3.62,10.23-3.54,15.55C13.17,769,14.4,773,15.58,777c.39,1.3.78,2.59,1.13,3.88,6.44,23.86.07,48.4-6.09,72.14-4.16,16-8.46,32.61-8.91,49-.48,17.6,3.51,35.19,7.36,52.21,1.36,6,2.77,12.22,4,18.35,3.71,19.06,7.19,38.31,10.56,56.92,4.27,23.64,8.7,48.08,13.61,72.27,2.74,13.5,7.31,25.6,12.15,38.41,5.06,13.41,10.3,27.27,13.3,43,.37,1.92.73,3.81,1.06,5.74.65,3.69,1.27,7.41,1.88,11.13,2.5,15,5.07,30.62,10.28,44.93a47.64,47.64,0,0,0,6.85,13.14c3.56,4.5,7.57,6.58,11.92,6.2l.15,1.66C94.39,1266,94,1266,93.6,1266Z"/><path class="cls-11" d="M82.3,1259.43l-.46-1.61c3.6-1,7.52-3.15,12-6.5,5.53-4.14,11-9.44,16.22-14.56a162.35,162.35,0,0,1,12.31-11.24c11-8.56,24.37-13.77,37.17-18.37l.19-.07c3.12-1.11,6.35-2.25,9.57-3.23a67.6,67.6,0,0,1,17.76-3.25,37.62,37.62,0,0,1,18.08,3.9,5.43,5.43,0,0,1,2.77,3.45,5.5,5.5,0,0,1-3.4,6.61,80.16,80.16,0,0,0-18.13,9.81l-1-1.37a81.74,81.74,0,0,1,18.52-10,3.85,3.85,0,0,0,2.36-4.61,3.76,3.76,0,0,0-1.92-2.4,35.71,35.71,0,0,0-17.26-3.7,65.49,65.49,0,0,0-17.32,3.17c-3.19,1-6.4,2.1-9.5,3.2l-.19.07c-13.19,4.75-25.92,9.71-36.71,18.12A160.23,160.23,0,0,0,111.22,1238a174,174,0,0,1-16.38,14.69C90.2,1256.13,86.1,1258.35,82.3,1259.43Z"/><path class="cls-11" d="M206.47,1209.1l-.08-.36-.09-.41a107,107,0,0,0-16.05-36.88l-.08-.13-.13-.3a40.64,40.64,0,0,1-20.68-28.84l-.1-.59a37.75,37.75,0,0,1-.38-8c.09-1.5.27-3,.44-4.48.39-3.37.77-6.56.18-9.72-.74-3.94-2.95-7.52-5-10.57-3.32-5-7.08-10-10.71-14.8-10.35-13.71-21-27.89-23.54-45-.75-5.11-1.68-10.16-2.57-15-2.63-14.25-5.1-27.72-3.24-42.5a186.62,186.62,0,0,0,1-21.38c.1-10,.21-20.38,2.65-30.28a87.2,87.2,0,0,1,3.36-10.4c1.38-3.57,3-7.15,4.46-10.6,1.8-4.09,3.65-8.31,5.19-12.56a129.35,129.35,0,0,0,8.14-38.93c.7-17.93,1.13-36.07,1.29-53.93.16-18.13,0-36.61-.39-54.94l-.06-2.48c0-1.69-.08-3.38-.14-5.09-2.78-99.08-14-187.59-33.33-263.07-3.85-15.11-8.16-30-12.79-44.39l1.59-.51c4.65,14.38,9,29.34,12.82,44.48,19.37,75.6,30.6,164.24,33.38,263.44.06,1.71.1,3.41.14,5.1l.07,2.48c.41,18.35.54,36.85.38,55-.15,17.87-.59,36-1.29,54a130.72,130.72,0,0,1-8.23,39.43c-1.57,4.3-3.43,8.55-5.23,12.66-1.51,3.44-3.07,7-4.44,10.54a82,82,0,0,0-3.29,10.19c-2.4,9.72-2.51,20-2.61,29.9a188.2,188.2,0,0,1-1,21.57c-1.83,14.53.62,27.86,3.22,42,.9,4.89,1.83,9.94,2.58,15.09,2.43,16.66,13,30.67,23.23,44.22,3.64,4.83,7.41,9.82,10.77,14.87,2.11,3.19,4.42,6.94,5.21,11.19.64,3.41.23,6.88-.16,10.23-.17,1.44-.34,2.93-.43,4.38a35.69,35.69,0,0,0,.36,7.61l.1.56a38.9,38.9,0,0,0,20.06,27.78l.26.13.34.77A108.57,108.57,0,0,1,207.94,1208l.08.38c0,.14.07.27.09.41Z"/><path class="cls-11" d="M786.13,1287.63h-1.79l-372-2.49L95.22,1283l0-.85c.13-5.65.05-11.38-.25-17-.21-4-.55-8.13-1-12.44l1.66-.18c.48,4.34.82,8.56,1,12.54.29,5.4.38,10.88.27,16.3l354.74,2.38,196,1.31,134.92.91a35.72,35.72,0,0,1-8.73-22.45c0-.67,0-1.33,0-2l1.67,0c0,.62,0,1.25,0,1.88a34,34,0,0,0,9.41,22.59l.07.08.16.18Z"/><path class="cls-11" d="M279.59,1253.43c-4.84-.73-12.13-3.22-19.17-5.63-6.81-2.33-13.85-4.74-18.43-5.47-24.2-3.83-37.71-6.37-56.54-17.92-1.71-1-3.46-2.17-5.22-3.34-3.71-2.49-12.27-9.08-11.53-16.5l1.67.17c-.67,6.7,8.09,13.12,10.79,14.93,1.74,1.17,3.48,2.28,5.16,3.32,18.56,11.38,31.94,13.89,55.93,17.69,4.73.75,11.84,3.18,18.71,5.53s14.19,4.86,18.88,5.57Z"/><path class="cls-11" d="M225.82,1283.45l-1-1.34c6-4.53,11.7-4.4,18.88-4.23,6,.11,7.89.55,13.6,2l-.42,1.62c-5.68-1.48-7.41-1.87-13.16-2C236.53,1279.38,231.38,1279.27,225.82,1283.45Z"/><path class="cls-11" d="M475,1191.26a94.88,94.88,0,0,1-29.51-4.2l-2.1-.71a39.43,39.43,0,0,0-7.72-2.09c-.48,0-.93-.09-1.38-.11a20.92,20.92,0,0,0-6.54.84c-2.2.59-4.43,1.43-6.58,2.24-1.81.69-3.69,1.4-5.57,2-14,4.26-28.56.74-42.64-2.67-10.33-2.5-21-5.07-31.5-4.64a112.42,112.42,0,0,0-16.66,2.42c-6.51,1.29-13.23,2.62-20,2.49-11.32-.22-22-4.45-32.4-8.54-2.51-1-5.1-2-7.66-3-3.67-1.36-6.67-2.35-9.42-3.11-8.83-2.48-18.13-3.54-27.13-4.56-6.45-.73-13.11-1.49-19.59-2.76-20-3.9-32.46-11.21-39.22-23l1.45-.83c6.5,11.33,18.61,18.38,38.09,22.19,6.41,1.26,13,2,19.46,2.74,9.06,1,18.43,2.09,27.39,4.61,2.79.77,5.83,1.77,9.55,3.15,2.58,1,5.18,2,7.69,3,10.23,4,20.8,8.21,31.82,8.42,6.6.14,13.22-1.18,19.63-2.45a112.16,112.16,0,0,1,16.92-2.45c10.74-.46,21.52,2.16,32,4.69,14.49,3.5,28.19,6.82,41.75,2.69,1.83-.55,3.68-1.25,5.47-1.93a68.32,68.32,0,0,1,6.73-2.29,22.29,22.29,0,0,1,7-.9c.49,0,1,.06,1.47.11a41,41,0,0,1,8.11,2.17c.69.24,1.39.48,2.08.7,20.67,6.75,43.44,3.78,63.53,1.16l37.16-4.82c7.11-.93,15.16-2,21.64-6,.57-.36,1.14-.74,1.71-1.13l.57-.38v-.39h.59a18.83,18.83,0,0,1,3.87-2.09,10.52,10.52,0,0,1,1.74-.52c3.86-.9,7.89-.1,11.79.68l.58.12a170,170,0,0,0,42.83,3.23,172.18,172.18,0,0,0,29.24-4.11,29.12,29.12,0,0,0,2.94-1.71c11.27-7.25,18.29-21,17.49-34.18-.09-1.46-.26-2.95-.43-4.39a33.72,33.72,0,0,1-.16-10.23c.78-4.24,3.1-8,5.21-11.18,3.35-5.06,7.12-10,10.77-14.88,10.22-13.55,20.8-27.56,23.22-44.22,1.84-12.59-1.25-25.36-4.24-37.71a192.15,192.15,0,0,1-4.26-21,190,190,0,0,1-1-21.54c-.1-9.93-.2-20.2-2.61-29.93-1.76-7.15-4.79-14-7.71-20.71-1.81-4.12-3.67-8.38-5.24-12.68a144.42,144.42,0,0,1-6.48-23.62,117.14,117.14,0,0,1-1.77-15.81c-.7-17.92-1.14-36.09-1.29-54-.16-18.3,0-36.82.4-55,.35-15,.91-30,1.66-44.61,4.31-84.32,15-160.48,31.91-226.36,3.35-13.11,7-25.9,10.79-38,.67-2.15,1.36-4.32,2-6.46l1.6.51c-.69,2.14-1.37,4.3-2,6.45-3.8,12.1-7.42,24.86-10.77,37.94-16.84,65.77-27.55,141.82-31.86,226-.75,14.55-1.3,29.54-1.65,44.56-.43,18.2-.56,36.7-.4,55,.15,17.88.58,36,1.28,53.93A114.1,114.1,0,0,0,690.35,883a142.26,142.26,0,0,0,6.4,23.34c1.55,4.25,3.41,8.48,5.2,12.58,3,6.73,6,13.69,7.8,21,2.46,9.91,2.56,20.29,2.67,30.31a186.09,186.09,0,0,0,1,21.35,191.77,191.77,0,0,0,4.23,20.81c3,12.5,6.15,25.43,4.27,38.35-2.49,17.08-13.19,31.26-23.55,45-3.63,4.81-7.38,9.78-10.71,14.79-2,3-4.23,6.63-5,10.57-.59,3.16-.22,6.35.18,9.73.17,1.46.35,3,.44,4.48.84,13.78-6.49,28.12-18.24,35.68a32.72,32.72,0,0,1-3.19,1.85l-.19.07a174.88,174.88,0,0,1-29.64,4.17,171.32,171.32,0,0,1-43.23-3.26l-.59-.12c-3.72-.74-7.57-1.51-11.09-.69a10.26,10.26,0,0,0-1.52.45,17.12,17.12,0,0,0-3.38,1.82h0l-.37.25-.94.62c-.58.39-1.16.79-1.76,1.16-6.78,4.18-15,5.25-22.31,6.2l-37.15,4.82C498.71,1189.72,486.88,1191.26,475,1191.26Z"/><path class="cls-11" d="M474.94,1202.25a100.46,100.46,0,0,1-23.47-2.51c-2-.46-4-1-6-1.67l-2.16-.73a33.15,33.15,0,0,0-9.05-2.19c-4.46-.21-8.64,1.39-13.06,3.07-1.83.7-3.73,1.42-5.62,2-.95.28-1.94.54-3,.78-13,3-26.53-.3-39.59-3.46-10.34-2.5-21-5.08-31.52-4.64a112,112,0,0,0-16.63,2.42c-6.52,1.28-13.26,2.6-20,2.47-6.2-.12-12.55-1.37-20.57-4.08-4-1.34-8-2.92-11.82-4.44a179,179,0,0,0-17.09-6.09c-8.81-2.46-18.1-3.51-27.09-4.53-6.46-.73-13.14-1.49-19.63-2.77-3.74-.73-13-2.65-18.22-4.69l.61-1.56c5.08,2,14.23,3.89,17.93,4.61,6.43,1.26,13.07,2,19.5,2.75,9.05,1,18.41,2.08,27.35,4.58a180.12,180.12,0,0,1,17.25,6.14c3.84,1.52,7.82,3.09,11.74,4.42,7.86,2.64,14.05,3.87,20.07,4,6.59.15,13.24-1.18,19.66-2.44a111.77,111.77,0,0,1,16.89-2.45c10.72-.45,21.53,2.16,32,4.68,13.47,3.26,26.19,6.33,38.84,3.46,1.05-.23,2-.48,2.9-.76,1.84-.55,3.71-1.26,5.51-1.95,4.39-1.67,8.93-3.41,13.73-3.19a34.51,34.51,0,0,1,9.52,2.29l2.14.72c1.93.63,3.9,1.18,5.85,1.63,18.94,4.54,39.52,1.87,57.68-.48l37.16-4.82c6.24-.81,13.32-1.74,19.3-4.67.85-.42,1.61-.84,2.34-1.29s1.25-.81,1.87-1.23a34.75,34.75,0,0,1,3.15-2,17.42,17.42,0,0,1,1.71-.8c4.4-1.67,9.12-.73,13.67.19l.45.09c12.15,2.42,26.79,3.42,42.31,2.9a216.15,216.15,0,0,0,39.62-4.87l.37,1.63a217.79,217.79,0,0,1-39.94,4.91c-15.65.53-30.41-.48-42.68-2.93l-.46-.09c-4.32-.87-8.79-1.77-12.74-.27-.5.2-1,.44-1.53.71a33.74,33.74,0,0,0-3,1.89c-.64.43-1.28.86-1.93,1.27s-1.59.92-2.48,1.36c-6.23,3.06-13.45,4-19.83,4.83l-37.15,4.82C498.74,1200.72,486.85,1202.25,474.94,1202.25Z"/><path class="cls-11" d="M222.6,1112.73l-2.35-1.83c-9.54-7.38-19.07-15.17-28.35-23.15-10.28-8.84-21.92-19.33-30-32.09-12-18.87-16.07-42.05-19.66-62.5l1.65-.29c3.56,20.3,7.59,43.3,19.43,61.89,8,12.57,19.53,23,29.71,31.72,8.46,7.28,17.14,14.4,25.84,21.2-4.26-10-10.46-19.24-16.47-28.19-4.05-6-8.24-12.27-11.82-18.72a131.76,131.76,0,0,1-16.14-53.87l1.67-.12A130.17,130.17,0,0,0,192,1060c3.55,6.38,7.72,12.59,11.75,18.6,6.63,9.87,13.49,20.08,17.8,31.38Z"/><path class="cls-11" d="M595.28,1159.49l-.54-1.59a178.9,178.9,0,0,0,46.4-23.85,182.69,182.69,0,0,0,61.51-75l1.53.67a184.26,184.26,0,0,1-62.07,75.68A180.83,180.83,0,0,1,595.28,1159.49Z"/><path class="cls-11" d="M528.22,1111.37c-28.59,0-58-1.8-86.33-8.18-.18,0-.42-.08-.66-.13-2.52-.57-5.08-1.2-7.61-1.87-49.26-12.88-88.53-39.36-110.57-74.57l1.42-.89c21.82,34.85,60.73,61.07,109.58,73.84,2.51.67,5.05,1.29,7.55,1.86l.6.12c47.4,10.67,97.87,8.47,142.4,6.53l.07,1.68C566.63,1110.54,547.61,1111.37,528.22,1111.37Z"/><path class="cls-11" d="M253.88,1283.94l-.9-1.41c1.11-.71,2.29-1.52,3.61-2.48a68.2,68.2,0,0,0,22.35-27.78c7.36-16.58,9-37,4.73-59.19l1.65-.32c4.32,22.49,2.65,43.3-4.85,60.18a69.84,69.84,0,0,1-22.89,28.46C256.23,1282.38,255,1283.21,253.88,1283.94Z"/><path class="cls-11" d="M281.79,1283.8l-1.22-1.14c21.83-23.38,29.05-49.78,23.42-85.58l1.65-.26C311.28,1232.69,303.7,1260.33,281.79,1283.8Z"/><path class="cls-11" d="M617.92,1286.38c-14.35-9.27-25.13-25.32-30.34-45.2a110.83,110.83,0,0,1,.64-57.46l1.6.46a109.37,109.37,0,0,0-.63,56.57c5.12,19.48,15.64,35.18,29.64,44.22Z"/><path class="cls-11" d="M587.51,1286.05c-23.36-25-31.37-60.52-22-97.37l1.62.41c-9.26,36.29-1.4,71.21,21.56,95.81Z"/><path class="cls-11" d="M235.82,1225.44a4.42,4.42,0,0,1-3.06-1.22c-2.09-1.93-2.84-5.64-2.84-8.47a142.11,142.11,0,0,1,1.78-22l1.66.27a140,140,0,0,0-1.77,21.74c0,2.55.71,5.78,2.3,7.24a2.8,2.8,0,0,0,2.22.76c1.69-.14,3-1.77,4-3.17a51.54,51.54,0,0,0,7.46-16.34l1.62.42a53.33,53.33,0,0,1-7.7,16.87c-1.19,1.71-2.85,3.69-5.24,3.89Z"/><path class="cls-11" d="M331.24,1221.09a2.26,2.26,0,0,1-1.93-.95,3.57,3.57,0,0,1-.16-3q2-7,4.08-13.92l1.61.47q-2.05,7-4.08,13.91c-.17.59-.33,1.25-.08,1.62s1.48.16,2.37-.4a24.31,24.31,0,0,0,9.92-13.4l1.61.46A26,26,0,0,1,334,1220.18,5.29,5.29,0,0,1,331.24,1221.09Z"/><path class="cls-11" d="M529.43,1235.57l-.86-.17a29.55,29.55,0,0,1-22.89-24.5l1.66-.21a27.87,27.87,0,0,0,20.7,22.88,94.6,94.6,0,0,0-1.14-33.21l1.63-.35a95.91,95.91,0,0,1,1,34.69Z"/><path class="cls-11" d="M641.43,1212.71l-1.56-2.34a45.1,45.1,0,0,0-14-13.42l.86-1.43a46.12,46.12,0,0,1,5.93,4.26,46.93,46.93,0,0,1,6.92,7.26,26.25,26.25,0,0,0-4.22-11.39l1.39-.94a28,28,0,0,1,4.7,15.19Z"/><rect class="cls-11" x="411.54" y="1200.19" width="1.67" height="84.04"/><rect class="cls-11" x="450.83" y="1198.93" width="1.67" height="85.29"/><path class="cls-11" d="M345.73,1168.3a40.7,40.7,0,0,1-9.28-26.28,23.26,23.26,0,0,0-7.9,21.08l-1.65.26a24.89,24.89,0,0,1,10-23.78l1.42-1-.1,1.74a38.9,38.9,0,0,0,8.83,26.91Z"/><path class="cls-11" d="M506.26,1173l-.51-1.59c4-1.31,7.07-4.7,10-8,.54-.6,1.07-1.19,1.61-1.77,4.93-5.38,9.73-7.76,14.28-7.09l.78.11-1.68,17.48-1.67-.16,1.53-15.86c-3.75-.2-7.77,2-12,6.65l-1.59,1.76C513.92,1168,510.73,1171.53,506.26,1173Z"/><path class="cls-11" d="M63.31,1189.78l-.85-1.45c7-4.07,13.33-8.48,19.48-12.74s12.57-8.71,19.59-12.81c12.18-7.14,24.78-14.51,38.74-18,8.7-2.18,19-2.81,28.13-3.37l1-.07.1,1.67-1.05.07c-9,.55-19.28,1.19-27.82,3.32-13.73,3.45-26.22,10.77-38.31,17.84-7,4.08-13.32,8.48-19.48,12.75S70.32,1185.67,63.31,1189.78Z"/><path class="cls-11" d="M220.13,594.33a21.19,21.19,0,1,1,21.19-21.18,21,21,0,0,1-3.09,11l-1.43-.88a19.26,19.26,0,0,0,2.84-10.1,19.52,19.52,0,1,0-19.51,19.51,19.1,19.1,0,0,0,6.48-1.11,19.6,19.6,0,0,0,10.18-8.23l1.42.87a21.22,21.22,0,0,1-11,8.94A20.83,20.83,0,0,1,220.13,594.33Z"/><path class="cls-11" d="M220.13,584.53a11.38,11.38,0,1,1,11.38-11.38A11.39,11.39,0,0,1,220.13,584.53Zm0-21.08a9.7,9.7,0,1,0,9.7,9.7A9.7,9.7,0,0,0,220.13,563.45Z"/><path class="cls-11" d="M254.47,554.05a.83.83,0,0,1-.83-.77c-1.12-13.65-2.09-25.88-3-37.39-2-26.88-3.67-51.07-5-74,0-.08,0-.19,0-.3s0-.17,0-.24a.84.84,0,0,1,1.67-.16c0,.11,0,.22,0,.33s0,.17,0,.24c1.32,22.91,3,47.1,5,74,.88,11.5,1.85,23.73,3,37.38a.84.84,0,0,1-.76.91Z"/><path class="cls-11" d="M260.43,623.42l-.84,0c-1.74-18.11-3.27-34.68-5.08-56.45a.83.83,0,1,1,1.66-.13c1.81,21.75,3.35,38.32,5.09,56.5Z"/><path class="cls-11" d="M260.43,624.24a.85.85,0,0,1-.72-.4c-.22-.37-22.91-37.85-23-40a.89.89,0,0,1,0-.32.84.84,0,0,1,1.65.2v.09c.73,2.46,19.79,34.26,22.79,39.19a.83.83,0,0,1-.28,1.15A.82.82,0,0,1,260.43,624.24Z"/><path class="cls-11" d="M243.84,623c-5.8-11-15.61-28.82-17.21-29.93a.67.67,0,0,0,.57,0l-.62-1.55c.9-.37,1.55-.62,10.41,15.3,4.2,7.57,8.29,15.3,8.33,15.37Z"/><path class="cls-11" d="M284.06,623.35a.83.83,0,0,1-.8-.59l-24.77-56.35-9.37,4.1a.83.83,0,0,1-1-.21l-23.27-26.15a.86.86,0,0,1-.1-1l12.36-21a.83.83,0,0,1,1.48.09l4.21,9.61a.83.83,0,0,1-.05.75L238.43,540l12.36,13.9,17.06-7.46L266,527.92l-8.41-1.84a.83.83,0,0,1-.58-.48L252.83,516a.86.86,0,0,1,.12-.87.84.84,0,0,1,.83-.28l23.83,5.22a.84.84,0,0,1,.66.73l3.43,34.85a.86.86,0,0,1-.5.85l-9.37,4.1,26.35,60a.82.82,0,0,1-.67,1.12l-5,.66a.84.84,0,1,1-.22-1.66l3.88-.51L270,560.49a.83.83,0,0,1,0-.64.84.84,0,0,1,.45-.46L280,555.2l-3.31-33.64L255,516.82l3.37,7.72,8.59,1.88a.84.84,0,0,1,.65.73l1.94,19.74a.84.84,0,0,1-.5.85l-18.17,8a.83.83,0,0,1-1-.22l-13.18-14.81a.83.83,0,0,1-.09-1l4.45-7.6-3.37-7.71-11.21,19.12L249,568.74l9.59-4.19a.83.83,0,0,1,1.1.43l25.14,57.18a1,1,0,0,1,.07.34A.85.85,0,0,1,284.06,623.35Z"/><path class="cls-11" d="M405.2,154.16a20.16,20.16,0,0,1,3.51,6,34.06,34.06,0,0,1,1.85,6.71,38.39,38.39,0,0,1,.47,6.93c0,1.16-.14,2.31-.23,3.46s-.35,2.28-.6,3.4c-.12-1.15-.15-2.29-.22-3.43s-.13-2.26-.25-3.39-.18-2.25-.35-3.36-.3-2.22-.47-3.33a64.7,64.7,0,0,0-1.44-6.57A43.46,43.46,0,0,0,405.2,154.16Z"/><path class="cls-11" d="M434.23,180.63c-.27,2.72-.42,5.41-.54,8.09s-.16,5.38-.13,8.06c0,1.34,0,2.69.08,4l.06,2c0,.68.07,1.35.1,2,.11,2.69.33,5.38.43,8.12a50.91,50.91,0,0,1-1.73-8,60.49,60.49,0,0,1-.11-16.35A37.72,37.72,0,0,1,434.23,180.63Z"/><circle class="cls-12" cx="367.18" cy="168.09" r="8.49"/><path class="cls-11" d="M367.19,177h-.39a8.92,8.92,0,1,1,9.29-8.53h0A8.93,8.93,0,0,1,367.19,177Zm0-17a8.05,8.05,0,1,0,8.05,8.4h0a8.06,8.06,0,0,0-7.7-8.39Z"/><path class="cls-11" d="M383.72,185.23a15.72,15.72,0,0,1-3.37,2.88,20.16,20.16,0,0,1-8.3,3,15,15,0,0,1-4.43,0l4.15-1.25c1.36-.43,2.7-.86,4-1.36s2.63-1,3.95-1.55Z"/><path class="cls-11" d="M383.86,174.74a34.16,34.16,0,0,0-2.82-5.68,16.61,16.61,0,0,0-3.78-4.35,12.17,12.17,0,0,0-2.27-1.32,11,11,0,0,0-2.47-.67,15.45,15.45,0,0,0-5.37.36,22.14,22.14,0,0,0-2.77.79c-.92.27-1.95.72-2.93,1l-5.94,2.16c-2,.72-3.94,1.45-5.86,2.28-1,.4-1.9.84-2.83,1.33a9.29,9.29,0,0,0-1.31.82,2.48,2.48,0,0,0-1,1.14,2.56,2.56,0,0,1,.43-1.64,10.66,10.66,0,0,1,1-1.39,19.94,19.94,0,0,1,2.42-2.36,39.87,39.87,0,0,1,5.47-3.75c1.89-1.11,3.85-2.09,5.82-3l1.49-.66c.49-.21,1-.43,1.56-.64a24.28,24.28,0,0,1,3.36-1,16.92,16.92,0,0,1,7.37-.12,12.91,12.91,0,0,1,3.59,1.41,13.17,13.17,0,0,1,2.95,2.38,15.39,15.39,0,0,1,3.33,6.23A17.76,17.76,0,0,1,383.86,174.74Z"/><path class="cls-11" d="M393.48,149,391,137.55s-19.46-5.28-33-1.76-22.33,15.15-22.33,15.15S352.61,141.64,393.48,149Z"/><circle class="cls-12" cx="469.09" cy="168.09" r="8.49"/><path class="cls-11" d="M469.08,177a8.93,8.93,0,0,1-8.9-8.54h0a8.92,8.92,0,0,1,8.53-9.29,8.92,8.92,0,0,1,9.29,8.53,8.92,8.92,0,0,1-8.53,9.29Zm-8-8.58a8.09,8.09,0,0,0,8.39,7.7,8.05,8.05,0,1,0-8.39-7.7Z"/><path class="cls-11" d="M452.55,185.23l4,1.73c1.32.55,2.62,1.09,4,1.55s2.66.93,4,1.36l4.15,1.25a15,15,0,0,1-4.43,0,21.47,21.47,0,0,1-4.32-1.06,21.1,21.1,0,0,1-4-2A15.72,15.72,0,0,1,452.55,185.23Z"/><path class="cls-11" d="M452.41,174.74a17.76,17.76,0,0,1,.57-6.66,15.39,15.39,0,0,1,3.33-6.23,13.17,13.17,0,0,1,2.95-2.38,12.91,12.91,0,0,1,3.59-1.41,16.92,16.92,0,0,1,7.37.12,24.7,24.7,0,0,1,3.36,1c.56.21,1.07.43,1.56.64l1.49.66c2,.91,3.93,1.89,5.82,3a39.87,39.87,0,0,1,5.47,3.75,19.94,19.94,0,0,1,2.42,2.36,10.66,10.66,0,0,1,1,1.39,2.56,2.56,0,0,1,.43,1.64,2.48,2.48,0,0,0-1-1.14,9.9,9.9,0,0,0-1.31-.82c-.93-.49-1.87-.93-2.83-1.33-1.92-.83-3.89-1.56-5.86-2.28l-5.94-2.16c-1-.33-2-.78-2.93-1a22.14,22.14,0,0,0-2.77-.79,15.47,15.47,0,0,0-5.37-.36,11,11,0,0,0-2.47.67,12.17,12.17,0,0,0-2.27,1.32,16.61,16.61,0,0,0-3.78,4.35A34.16,34.16,0,0,0,452.41,174.74Z"/><path class="cls-11" d="M442.79,149l2.47-11.49s19.46-5.28,33-1.76,22.33,15.15,22.33,15.15S483.66,141.64,442.79,149Z"/><path class="cls-11" d="M450.84,242a4,4,0,0,1,1.89.77,16.33,16.33,0,0,1,1.54,1.28c1,.87,1.87,1.8,2.76,2.75s1.72,1.95,2.5,3a23.55,23.55,0,0,1,2.14,3.32,24.07,24.07,0,0,1-3.11-2.44c-1-.87-1.88-1.8-2.76-2.75s-1.72-2-2.49-3A13.9,13.9,0,0,0,450.84,242Z"/><path class="cls-11" d="M387.21,241.5c-.9,1-1.84,1.85-2.77,2.73l-2.76,2.61-2.78,2.6a8.11,8.11,0,0,1-3.39,2.09,23.91,23.91,0,0,0,2.42-3,21.07,21.07,0,0,1,5.71-5.37A15,15,0,0,1,387.21,241.5Z"/><path class="cls-11" d="M392.77,230a9.73,9.73,0,0,0,1.69,3.39,7,7,0,0,0,2.9,2.23,8.21,8.21,0,0,0,3.57.61,14.77,14.77,0,0,0,3.65-.62l.38-.12.32.36a14.24,14.24,0,0,0,5.36,3.73,17.53,17.53,0,0,0,6.49,1.32,14.65,14.65,0,0,0,6.44-1.19,14.92,14.92,0,0,0,5.28-3.85l.29-.35.4.08a21.31,21.31,0,0,0,4.09.36,16,16,0,0,0,4.08-.54,9,9,0,0,0,3.6-1.89A8.15,8.15,0,0,0,443.5,230a7.67,7.67,0,0,1-1.84,3.86,9.09,9.09,0,0,1-3.67,2.4,15.58,15.58,0,0,1-4.31.87,21.66,21.66,0,0,1-4.4-.16l.69-.27a14.2,14.2,0,0,1-2.62,2.58,15.58,15.58,0,0,1-10.27,3.29A18.75,18.75,0,0,1,410,241a16.48,16.48,0,0,1-3.15-1.83,12.67,12.67,0,0,1-2.66-2.57l.71.25a14.87,14.87,0,0,1-4,.46,9.22,9.22,0,0,1-3.92-1,7.8,7.8,0,0,1-2.92-2.72A8.84,8.84,0,0,1,392.77,230Z"/><path class="cls-4" d="M420.08,247v16.86s30.75-.7,51.14,12.34c0,0,2.77-14.62-9.56-21.15C447.19,247.4,420.08,247,420.08,247Z"/><path d="M471.81,277.57l-1-.67c-19.94-12.75-50.37-12.21-50.67-12.2l-.86,0V246.15l.85,0c1.12,0,27.48.48,42,8.15,12.73,6.73,10,21.88,10,22ZM420.92,263c5,0,31.22.64,49.64,11.78.35-3.57.43-13.86-9.29-19-12.71-6.71-35.66-7.78-40.35-7.93Z"/><path class="cls-4" d="M416.19,247v16.86s-30.75-.7-51.14,12.34c0,0-2.77-14.62,9.56-21.15C389.08,247.4,416.19,247,416.19,247Z"/><path d="M364.46,277.57l-.23-1.22c0-.15-2.74-15.3,10-22,14.48-7.67,40.84-8.14,42-8.15l.85,0v18.57l-.86,0c-.3,0-30.74-.55-50.67,12.2Zm50.89-29.71c-4.69.15-27.64,1.22-40.35,7.93-9.72,5.15-9.64,15.44-9.29,19,18.42-11.14,44.6-11.77,49.64-11.78Z"/><path class="cls-11" d="M375.51,276.2c3.7-.65,7.43-1.11,11.16-1.56s7.49-.7,11.26-.86c1.88-.07,3.78-.11,5.67,0a27.88,27.88,0,0,1,5.75.7,8.21,8.21,0,0,1,1.47.54,3.74,3.74,0,0,1,.73.47,6.61,6.61,0,0,1,.56.48,15.21,15.21,0,0,0,2.13,1.63,12.56,12.56,0,0,0,2.35,1.17,7.69,7.69,0,0,0,2.42.5l0,1.67h-.92l0-1.67a7.69,7.69,0,0,0,2.42-.5,12.1,12.1,0,0,0,2.36-1.18,14.88,14.88,0,0,0,2.12-1.62c.19-.16.29-.27.56-.48a3.52,3.52,0,0,1,.74-.47,7.28,7.28,0,0,1,1.47-.54,27.79,27.79,0,0,1,5.74-.7c1.9-.08,3.79,0,5.68,0,3.76.16,7.51.47,11.25.86s7.46.91,11.16,1.56c-3.74-.28-7.48-.58-11.23-.75s-7.48-.39-11.21-.39q-2.81,0-5.58.15a26.23,26.23,0,0,0-5.39.76,6,6,0,0,0-1.15.45,1.74,1.74,0,0,0-.45.28,5.16,5.16,0,0,0-.51.44,15.88,15.88,0,0,1-2.33,1.8,13.3,13.3,0,0,1-2.66,1.35,9,9,0,0,1-3.06.62l0-1.67h.92l0,1.67a9,9,0,0,1-3.07-.62,13.57,13.57,0,0,1-2.66-1.35,17.84,17.84,0,0,1-2.33-1.8,5.23,5.23,0,0,0-.5-.44,1.64,1.64,0,0,0-.45-.28,5.49,5.49,0,0,0-1.16-.45,26.23,26.23,0,0,0-5.39-.76c-1.85-.1-3.71-.15-5.57-.15-3.74,0-7.48.17-11.22.39S379.26,275.92,375.51,276.2Z"/><path class="cls-11" d="M405.2,291.88a8.24,8.24,0,0,1,1.71.68c.55.26,1.1.51,1.66.73a25.8,25.8,0,0,0,3.37,1.16,24,24,0,0,0,6.95.81,29.79,29.79,0,0,0,7-1.06,62.79,62.79,0,0,0,6.85-2.32,24.94,24.94,0,0,1-6.45,3.57,22.09,22.09,0,0,1-7.33,1.48,19.45,19.45,0,0,1-7.41-1.24,18.61,18.61,0,0,1-3.34-1.67c-.52-.34-1-.69-1.52-1.06l-.72-.57A3.2,3.2,0,0,0,405.2,291.88Z"/></g></svg>