<svg xmlns="http://www.w3.org/2000/svg" viewBox="0 0 767.57 1649.98"><defs><style>.cls-1{fill:#fff;}.cls-2{fill:#b1b1b1;}.cls-3{fill:#302924;}.cls-4{fill:#e2e2e2;}.cls-5{fill:#a99182;}.cls-6{fill:#c6ab9d;}.cls-7{fill:#f3d1bb;}.cls-8{fill:#a6856f;}.cls-9{fill:#392f25;}.cls-10{fill:#e8c9a9;}.cls-11{fill:#1d1d1b;}.cls-12{fill:#85524b;}</style></defs><g id="PERSONAJES"><path class="cls-1" d="M514.83,1554.43c.27-2,.53-3.56.69-4.57,15.93-94.61,15.57-101.68,23.34-130.39,6-21.8,12.91-43.41,15.89-65.76,3.29-24.42,2.4-46.2-1.64-81.7a1096.45,1096.45,0,0,0-22.88-129.82l9-12.1c4.17,5.13,13.33,13.93,26.25,23.89,20.16-26,40.24-39.48,54.77-47,15.15-7.83,27.93-12.37,64.93-28.71A239.05,239.05,0,0,0,707.75,1067c4.43-2.53,49.76-32.29,52.24-75.34,1.2-20.41-8.38-24.75-10-62a218.06,218.06,0,0,1,.56-28.24,95.85,95.85,0,0,0,6.18-8.6,57.3,57.3,0,0,0,8.6-21.83c3.48-23.36-11.3-45-18.24-67.57a9.23,9.23,0,0,0-2.33-4.6,8.9,8.9,0,0,0-4.68-1.64c-10.19-1.64-20.47-3.29-30.69-4.87v-.06c-27.37-51.4-48.89-92.47-62.48-120.7l2.09-1.06c1-13,3.09-50-8.21-86.09,4.06-11.78,6.65-22.83,8.66-30.94,16.43-67.93-9.8-95.8-15.29-221.21-1.81-40.54-1.59-75.07-1.59-75.07.25-46.61,2.59-49.39,1.48-70.94-1.2-22.58-3.43-66.1-28-108.93-13-22.72-34.75-61-77.1-72.31C510.37.1,490.27,1,472,5.55V5.47a166.77,166.77,0,0,0-36.39,2.64,173.83,173.83,0,0,0-65.79,27.12,160.65,160.65,0,0,0-32.19,29c-20.05,23.75-28,47.14-32.1,59.81a211,211,0,0,0-4.24,109.84c-1.11,4.09-1.86,6.63-2.7,11.22-.44,2.48-.81,5.13-1,7.83l-1.31-.17a29.55,29.55,0,0,0-9.35-6.57,435.4,435.4,0,0,0,3.78,100.9c-3.09,1.9-6.48,4.18-10.1,6.88l-.06,1c-4.34-.28-8.71-.53-13.11-.83-2.48-.14-5.18-.25-7.33,1.05s-3.11,3.57-4.81,5.32c-2.26,2.28-5.32,3.29-8.58,4.09-3.67,1-7.6,1.59-10.69,3.74-5.29,3.59-6.77,9.66-8.27,15.53C224,399,218.43,420,212,445.81c-2.2,3.09-4.73,5.88-9.64,13a203.38,203.38,0,0,0-10.94,18.12c-4.73,8.77-26.78,36.9-95,114.5-3,.44-6.07.89-9,1.39-3.06,5-6.13,10-9.13,15.17q-10,16.92-19.27,33.44a55.79,55.79,0,0,0-22.28,12.14c-8,7.33-11.58,15.34-22.55,52.6-6.71,22.75-10,34.25-10.86,41.57-1.92,17.6-3.73,33.66,4,47.61,16.34,29.43,62.15,28.54,66.85,28.4,22.56-.69,40.18-10.08,51.48-18.18A106.2,106.2,0,0,0,138,795.22c-5.79,37.06-6.82,72.87-8.07,103.5a643.76,643.76,0,0,1-9.11,90.12c-.92,4.93-1.5,8.08-2,10.5,0,0-.76,3.79-1.59,7.55-2.28,10.19-13.45,36.7-14.45,39.09-9.5,23,2.59,50.15,14,75.54,6.51,14.53,11.16,25.09,19.43,33.33l-.05,0a924.18,924.18,0,0,0-9.27,152.86c.69,30.46,2.7,53.26,3.92,67.27,4.87,53.81,16.37,166,27.82,275H503.05C508.41,1605.39,512.9,1568.34,514.83,1554.43Zm-136-1125.6c-9.42-.56-24.14-2.29-33.57-2.84l-1.07-.25,5.75-25.34a19.51,19.51,0,0,0,2.14,1.2c9.3,4.66,18.08,5.68,28,5.32Z"/><path class="cls-2" d="M747.14,803.43c6.92,22.56,21.71,44.23,18.23,67.59a57.24,57.24,0,0,1-8.62,21.81l-2.14-.15c-3.39-22-12.6-42.53-21.72-62.8-2.34-5.23-4.73-10.46-8.21-15-6.78-9-17.43-14.54-28.49-16.53-3-.55-6.22-.9-8.66-2.74a15.52,15.52,0,0,1-3.89-4.88l4-1.85c7.28,1.15,14.5,2.29,21.77,3.49,10.21,1.59,20.47,3.24,30.68,4.88a8.91,8.91,0,0,1,4.68,1.64A9.46,9.46,0,0,1,747.14,803.43Z"/><path class="cls-2" d="M750,929.68c1.59,37.2,11.15,41.54,10,62-2.49,43-47.81,72.8-52.25,75.34a243.61,243.61,0,0,1-22.56,11.31c-37,16.33-49.8,20.87-64.94,28.69-14.54,7.52-34.61,21-54.78,47-12.9-10-22.06-18.78-26.24-23.91-3.39-4.18-5.28-7.07-5.28-7.07-.35-.55-.65-1.09-1-1.59l3.94-.05a222.9,222.9,0,0,0,30.32-8.62c20.67-7.57,40.09-18.18,59.77-28.14a717.71,717.71,0,0,1,73.85-32.86c5.53-2,11.16-4.09,15.94-7.57a44.78,44.78,0,0,0,10-10.76,83.83,83.83,0,0,0,14.64-40.14c.75-7.82.35-15.69,0-23.51q-1.27-26.44-2.54-52.79l-1.1-1c4.39-4.63,8.82-9.42,12.8-14.5A218.74,218.74,0,0,0,750,929.68Z"/><path class="cls-2" d="M625.47,631.82a65.66,65.66,0,0,1,11.06,17c2.64,6.28,6.12,13.9,10.41,22.76,13.59,28.24,35.11,69.32,62.5,120.72v.05c-7.27-1.2-14.49-2.34-21.77-3.49l-4,1.85a445.18,445.18,0,0,1-25.65-49c-5.53-12.4-10.56-25.1-17.73-36.65-6.62-10.56-14.94-19.92-22.31-30-13-17.68-22.86-37.41-32.72-57L582.1,618c10.1-5.57,23.25-2.74,32.66,4A63.89,63.89,0,0,1,625.47,631.82Z"/><path class="cls-3" d="M535.73,368c-1.3,2.69-2.49,5.13-3.59,7.47-4.73,9.86-9.86,19.22-15.19,28.14a398.31,398.31,0,0,1-27.88,40.59c-18.13,23.4-37.85,44.22-57.43,64.49-2.24,2.34-4.48,4.63-6.72,7-11.35,11.7-21.16,21.12-28,27.54,2.84-7.67,7.32-19.12,13.5-32.77,12.95-28.48,24.7-47.16,35.16-63.35,7.22-11.15,13.79-21.16,19.72-32.37,1.2-2.29,2.34-4.58,3.44-6.87A207,207,0,0,0,483,368.12c5.18-20.52,6.87-39.49,8.37-56.23,2.29-25.55,8.31-95.57-27.64-166.43-20.22-39.85-42.19-56.88-49.95-73.76a26.66,26.66,0,0,1-1.25-3.09,27.85,27.85,0,0,1-.85-16.33C412.92,33.5,439.46,13.73,472,5.56,490.26,1,510.38.08,529,5c42.33,11.3,64.09,49.6,77.09,72.31,24.55,42.83,26.79,86.35,28,108.91,1.09,21.57-1.25,24.36-1.5,71,0,0-.2,34.51,1.6,75.05,5.48,125.4,31.72,153.29,15.29,221.22-2,8.12-4.59,19.17-8.67,30.93A147,147,0,0,0,635,568.87a262,262,0,0,0-44-67,255.07,255.07,0,0,0-26.89-25.65l-5.78,1.59c-1.84-6.77-3.69-13.49-5.53-20.27l-5.53-20.17c-3.63.55-7.27,1.1-10.95,1.6a143.93,143.93,0,0,1-3.89-22.21A149.07,149.07,0,0,1,535.73,368Z"/><path class="cls-2" d="M640.81,584.41c11.31,36.05,9.26,73.11,8.22,86.1l-2.09,1c-4.29-8.86-7.77-16.48-10.41-22.76a65.66,65.66,0,0,0-11.06-17c-16.18-52-37.75-103.74-74.7-143.68l-3.19-.2c5.68-2.14,10-3.88,12.2-4.78-.49-1.79-.94-3.59-1.44-5.38l5.78-1.59A255.07,255.07,0,0,1,591,501.84a262,262,0,0,1,44,67A147,147,0,0,1,640.81,584.41Z"/><path class="cls-2" d="M536.33,438.94c3.68-.5,7.32-1.05,10.95-1.6l5.53,20.17c1.84,6.78,3.69,13.5,5.53,20.27.5,1.79.95,3.59,1.44,5.38-2.19.9-6.52,2.64-12.2,4.78l-4.23,1.55-.75-2.05c-3-15.53-1.84-32.17-8.56-46.51l-.2-1.64A21.6,21.6,0,0,0,536.33,438.94Z"/><path class="cls-2" d="M557.69,966.68a14.7,14.7,0,0,0,1,1.3c-38.5,43.18-63.5,70.22-69.38,74.65a16.23,16.23,0,0,0-5.42,6.82c-1.3,3.19-.85,6.83.1,10.16a42.62,42.62,0,0,0,7.12,14l-3.29.65c-14.84,16.58-29.68,33.06-44.52,49.6h-.05c-1.55.4-4.93,1.19-9.81,2.39v0c17.38-52.29,23.4-72.81,25.35-81.08a80.52,80.52,0,0,1,5.42-17.13c2.1-4.53,4.84-8.76,6.63-13.45,2.54-6.52,3-13.64,3.48-20.61q3.07-46.7,6.23-93.43a32.23,32.23,0,0,1-19.17,6.57,736.64,736.64,0,0,0,.24-97.06,732.81,732.81,0,0,0-23.4-142.38c27.34,36.35,45.22,78.73,62.85,120.62,5.58,13.34,11.3,27.19,10.76,41.63l23.95.6A93.46,93.46,0,0,0,528,872.71c1.59,30.28,17.78,50.6,23.56,57.27-.6,4-.85,10,2.59,14.29a7.47,7.47,0,0,0,1.59,1.55C553.06,957.07,555.25,963.2,557.69,966.68Z"/><path class="cls-4" d="M553.11,1272c4,35.51,4.93,57.27,1.64,81.67-3,22.36-9.91,44-15.88,65.79-7.77,28.69-7.42,35.76-23.36,130.38-.15,1-.4,2.54-.7,4.58l-2.64-.2c1-64.54,12.6-129,6.83-193.28-1-11.8-2.69-23.5-3.49-35.31-.15-2.19-.25-4.38-.35-6.57-.55-15.14.7-30.33-.45-45.47-.94-12.9-3.63-25.65-5.67-38.45a413,413,0,0,1-5.38-71l-1-.9a209.73,209.73,0,0,1,26.5-25.55A1095.94,1095.94,0,0,1,553.11,1272Z"/><path class="cls-5" d="M536.33,438.94a21.6,21.6,0,0,1-2.49.35c-3.64.54-7.27,1-11,1.44l-.3-2.29a17.83,17.83,0,0,1-.79-6.48,164.75,164.75,0,0,0-2.69-27L517,403.63c5.33-8.92,10.46-18.28,15.19-28.14,1.1-2.34,2.29-4.78,3.59-7.47a149.07,149.07,0,0,0-3.29,48.71A143.93,143.93,0,0,0,536.33,438.94Z"/><path class="cls-6" d="M533.94,1123s1.89,2.89,5.28,7.07c-3.09,2.19-6.48,4.73-10.06,7.62a209.73,209.73,0,0,0-26.5,25.55c-3.29,3.69-6.52,7.67-9.76,12a221.35,221.35,0,0,0-14.09,21.32c-11.26,19-28.49,47.26-56,89.89-3.29-4-6.52-8.07-9.61-12.25l.74-.55c4.39-10.66,8.87-21.36,15.39-30.83,4.68-6.87,10.36-12.94,15.44-19.52,8.47-11.15,15-23.65,23.36-34.91,8-10.91,17.63-20.57,26.19-31,11.21-13.64,21-28.88,35.16-39.44l1.1-.65c.85,1.45,1.54,2.74,2.39,4.19C533.29,1121.92,533.59,1122.46,533.94,1123Z"/><path class="cls-7" d="M530.6,1117.23l-1.1.65c-14.14,10.56-23.95,25.8-35.16,39.44-8.56,10.46-18.17,20.12-26.19,31-8.32,11.26-14.89,23.76-23.36,34.91-5.08,6.58-10.76,12.65-15.44,19.52-6.52,9.47-11,20.17-15.39,30.83l-.74.55a264.38,264.38,0,0,1-21.57-34.56c6.93-25.35,11.81-44.13,15.49-59.27a88.76,88.76,0,0,1,6.68-19.27c4.68-9.61,11.95-17.68,19.07-25.65,3.49-3.83,6.92-7.72,10.36-11.55h.05c14.84-16.54,29.68-33,44.52-49.6l3.29-.65c9.41,12.65,24.4,22.06,34,35.16A76.38,76.38,0,0,1,530.6,1117.23Z"/><path class="cls-7" d="M522.58,438.44l.3,2.29Q513,442,502.66,443.07c-4.53.45-9,.9-13.44,1.25l-.15-.1A398.31,398.31,0,0,0,517,403.63l2.15,1.29a164.75,164.75,0,0,1,2.69,27A17.83,17.83,0,0,0,522.58,438.44Z"/><path class="cls-5" d="M410.48,78.42A30.45,30.45,0,0,1,412,72.55l1.8-.85c7.76,16.88,29.73,33.91,49.95,73.76,36,70.86,29.93,140.88,27.64,166.43-1.5,16.74-3.19,35.71-8.37,56.23-2.54,1.84-5.58,4-9.16,6.42,0,0-1.4.9-2.74,1.8-40.74,26.14-75.35,29.43-75.35,29.43-5.53.5-10.61,1-15.44,1.14-10.06.4-18.93-.59-28.29-5.32a18,18,0,0,1-2.14-1.2,54.28,54.28,0,0,1-13-10.21l.2-.7a26.56,26.56,0,0,0,7.42.7,25.73,25.73,0,0,0,5.08-.8l.7,2.25a76.51,76.51,0,0,0,13.94,4.13,24.11,24.11,0,0,0,10.91,2.44,53.41,53.41,0,0,0,9.16-1.1c35.46-5.08,66.74-25.74,66.74-25.74a199.1,199.1,0,0,0,19.72-14.94,267,267,0,0,0,11-62.95c1.05-19.68,3.09-66.29-18.82-114.45-1-2.19-27.89-61.15-43.23-74.75-1.39-1.25-8.46-7.22-9.61-15.39a38.36,38.36,0,0,1,.1-9.56A5.81,5.81,0,0,1,410.48,78.42Z"/><path class="cls-7" d="M347,269.36c.45,2.14.85,4.29,1.25,6.43a24,24,0,0,0,1.14,4.23c.35.8.75,1.54,1.15,2.29.94,1.69,1.89,3.34,2.79,5,.54,1,1.24,3.14,2.34,3.74.89.49,2.59.2,3.58.29,1.7.2,3.39.4,5,.65,7.07,1,14.05,2.39,21.17,2.89a75.87,75.87,0,0,0-3.44-8,23.48,23.48,0,0,0-2.59-4.38,25.32,25.32,0,0,0-4.53-4.43,44.52,44.52,0,0,0-13.05-7.42A28.42,28.42,0,0,0,347,269.36ZM463,179c21.91,48.16,19.87,94.77,18.82,114.45a267,267,0,0,1-11,62.95,199.1,199.1,0,0,1-19.72,14.94S419.79,392,384.33,397.1a53.41,53.41,0,0,1-9.16,1.1,24.11,24.11,0,0,1-10.91-2.44,76.51,76.51,0,0,1-13.94-4.13l-.7-2.25a26.44,26.44,0,0,0,9.21-4.38c-21.06-17.63-31.32-30.38-36.7-39.19-1-1.65-3.39-6.23-8.12-7.62-1.49-.45-3.78,1.69-5.38.05a271.2,271.2,0,0,1-7.42-28.94s-6.07-31.07-3.63-56.42c.25-2.69.6-5.33,1-7.82.85-4.58,1.6-7.12,2.69-11.21,1.4-4.93,3.44-12.15,7.18-28.18,4.68-20.27,7.17-33.67,8.16-39,2-11.05,3.24-18.33,4-23.65,1.24-8.32,2-13.5,2.24-14.89a66.66,66.66,0,0,1,4.33-14.7l.75.3c3.53.6,7-.69,10.36-2,19.32-7.57,38.69-15.19,57.32-24.35a75.05,75.05,0,0,0,14.79-8.92,5.81,5.81,0,0,0-.2.9,38.36,38.36,0,0,0-.1,9.56c1.15,8.17,8.22,14.14,9.61,15.39C435.13,117.87,462,176.83,463,179Z"/><path class="cls-5" d="M473.88,374.54c3.58-2.39,6.62-4.58,9.16-6.42a207,207,0,0,1-14.29,39.74,157.72,157.72,0,0,1-89.85,29.88l-2.49-.65c.75-2.93,1.4-6,1.95-9.16a132.33,132.33,0,0,0,2-21c4.83-.15,9.91-.64,15.44-1.14,0,0,34.61-3.29,75.35-29.43C472.48,375.44,473.88,374.54,473.88,374.54Z"/><path class="cls-3" d="M381.15,39.28l-11.31-4A173.69,173.69,0,0,1,435.63,8.1,168.16,168.16,0,0,1,472,5.46v.1c-32.57,8.17-59.11,27.94-60.31,46.72a27.85,27.85,0,0,0,.85,16.33,127.19,127.19,0,0,1-23.36,11.26C373.53,85.54,365.66,84.6,353,90.82a96.44,96.44,0,0,0-22.46,15.44,147.35,147.35,0,0,1,20.17-36.65C356.39,62.09,365.91,49.74,381.15,39.28Z"/><path class="cls-7" d="M468.75,407.86c-1.1,2.29-2.24,4.58-3.44,6.87-5.93,11.21-12.5,21.22-19.72,32.37l-.15-.1q-18.53.6-36,.5c-29,11.11-44.67,23.36-53.14,34.61a141.29,141.29,0,0,0,20.07-45l2.49.65a157.72,157.72,0,0,0,89.85-29.88Z"/><path class="cls-5" d="M413.82,71.7l-1.8.85a30.45,30.45,0,0,0-1.54,5.87,75.05,75.05,0,0,1-14.79,8.92c-18.63,9.16-38,16.78-57.32,24.35-3.34,1.3-6.83,2.59-10.36,2l-.75-.3c.95-2.29,2-4.68,3.24-7.12A96.44,96.44,0,0,1,353,90.82c12.7-6.22,20.57-5.28,36.25-10.95a127.19,127.19,0,0,0,23.36-11.26A26.66,26.66,0,0,0,413.82,71.7Z"/><path class="cls-8" d="M382,286.84a75.87,75.87,0,0,1,3.44,8c-7.12-.5-14.1-1.89-21.17-2.89-1.64-.25-3.33-.45-5-.65-1-.09-2.69.2-3.58-.29-1.1-.6-1.8-2.69-2.34-3.74-.9-1.64-1.85-3.29-2.79-5-.4-.75-.8-1.49-1.15-2.29a24,24,0,0,1-1.14-4.23c-.4-2.14-.8-4.29-1.25-6.43a28.42,28.42,0,0,1,14.84,1.25A44.52,44.52,0,0,1,374.92,278a25.32,25.32,0,0,1,4.53,4.43A23.48,23.48,0,0,1,382,286.84Z"/><path class="cls-9" d="M369.84,35.24l11.31,4c-15.24,10.46-24.76,22.81-30.48,30.33a147.35,147.35,0,0,0-20.17,36.65c-1.2,2.44-2.29,4.83-3.24,7.12a66.66,66.66,0,0,0-4.33,14.7c-.2,1.39-1,6.57-2.24,14.89-.8,5.32-2,12.6-4,23.65-1,5.38-3.48,18.78-8.16,39-3.74,16-5.78,23.25-7.18,28.18A211.1,211.1,0,0,1,305.55,124c4.13-12.65,12.05-36,32.12-59.81A160.67,160.67,0,0,1,369.84,35.24Z"/><path class="cls-7" d="M358.83,385a26.44,26.44,0,0,1-9.21,4.38,25.73,25.73,0,0,1-5.08.8,26.56,26.56,0,0,1-7.42-.7,28.57,28.57,0,0,1-10.56-5.13c-4.13-6.82-8.81-11.75-14.49-21.36a13.1,13.1,0,0,0-4.88-5.18c-3-1.74-6.08-1.49-7.57-1.59-6.32-.4-12.7-.85-19.07-1.25l.05-1c3.63-2.69,7-5,10.11-6.88s5.72-3.38,8-4.58a49.57,49.57,0,0,1,9.91-4.23c1.6,1.64,3.89-.5,5.38-.05,4.73,1.39,7.12,6,8.12,7.62C327.51,354.62,337.77,367.37,358.83,385Z"/><path class="cls-10" d="M349.92,400.39c-1.89,8.47-3.83,16.88-5.78,25.35-.64,2.79-1.24,5.63-1.89,8.42-1.79-7.47-4-16.54-6.77-26.85-1.75-6.42-2.14-7.72-2.54-9a69.1,69.1,0,0,0-6.38-14,28.57,28.57,0,0,0,10.56,5.13l-.2.7A54.28,54.28,0,0,0,349.92,400.39Z"/><path class="cls-7" d="M342.25,434.16c.9,3.63,1.64,6.92,2.29,9.81a25.31,25.31,0,0,1-5.28.89,21.53,21.53,0,0,1-5.72-.35c-8.17-1.64-15.09-8-19.28-17a45.85,45.85,0,0,1-3.09-8.86l-.54-.85a17.65,17.65,0,0,0,5.28-5.23,41.5,41.5,0,0,0-2.84-6.22c-3.34-5.93-6.53-8.47-12.4-14.3-10.86-10.75-10.91-12.9-18.63-18.62a52.38,52.38,0,0,0-8.12-5.23c-4.43-2.24-13.49-5.68-27.14-3.54l-.05-.1c3.24-.79,6.33-1.79,8.57-4.08,1.69-1.74,2.79-4,4.83-5.33s4.83-1.19,7.32-1.05c4.38.3,8.76.55,13.1.85,6.37.4,12.75.85,19.07,1.25,1.49.1,4.53-.15,7.57,1.59a13.1,13.1,0,0,1,4.88,5.18c5.68,9.61,10.36,14.54,14.49,21.36a69.1,69.1,0,0,1,6.38,14c.4,1.24.79,2.54,2.54,9C338.22,417.62,340.46,426.69,342.25,434.16Z"/><path class="cls-5" d="M339.26,444.86v.1c-.6,2.14-1.44,4.93-2.64,8.17a117.07,117.07,0,0,1-5.43,11.9c-9.66,17.73-19.57,23.61-25.79,26.25a44,44,0,0,1-17.13,3.33c-2.39,2.25-5.58,5.23-9.37,8.92-.54.5-1.09,1-1.64,1.54,0,0-18.08,17.78-32.42,34.37-14.49,16.78-45.27,66.68-76.3,138.3a104.33,104.33,0,0,1-24.7-7.18l.5-1.19A684.76,684.76,0,0,1,212,548.2c14.39-20.57,30.48-40.84,52.24-53.24a193.24,193.24,0,0,0,17.13-13.19c10-8.37,15.89-13.3,20.82-20.12,3.93-5.53,10.16-16.34,11.4-33.82l.65-.3c4.19,9,11.11,15.34,19.28,17A21.53,21.53,0,0,0,339.26,444.86Z"/><path class="cls-7" d="M212,445.81C218.44,420,224,399,227.76,383.86l13.29,2A36.4,36.4,0,0,0,253.9,393c6.18,1.89,8,.6,12.9,1.89,8.07,2.19,8.17,7.17,19.52,15.74,6.83,5.18,13.9,10.46,21,8.62a11.67,11.67,0,0,0,3.29-1.45l.54.85a45.85,45.85,0,0,0,3.09,8.86l-.65.3c-1.24,17.48-7.47,28.29-11.4,33.82-4.93,6.82-10.81,11.75-20.82,20.12A193.24,193.24,0,0,1,264.26,495c-21.76,12.4-37.85,32.67-52.24,53.24a684.76,684.76,0,0,0-67.68,121.17l-.5,1.19c-.2-.1-.45-.2-.65-.29-14.44-6.28-31.37-17.63-40.83-37.85a75.92,75.92,0,0,1-6.28-40.54c.15-.15.25-.3.4-.45,68.18-77.59,90.24-105.73,95-114.49a201.71,201.71,0,0,1,11-18.13C207.29,451.69,209.83,448.9,212,445.81Z"/><path class="cls-7" d="M313.07,406.37a41.5,41.5,0,0,1,2.84,6.22,17.65,17.65,0,0,1-5.28,5.23,11.67,11.67,0,0,1-3.29,1.45c-7.12,1.84-14.19-3.44-21-8.62-11.35-8.57-11.45-13.55-19.52-15.74-4.93-1.29-6.72,0-12.9-1.89a36.4,36.4,0,0,1-12.85-7.17l-13.29-2c1.49-5.88,3-12,8.26-15.54,3.09-2.14,7-2.79,10.71-3.74l.05.1c13.65-2.14,22.71,1.3,27.14,3.54a52.38,52.38,0,0,1,8.12,5.23c7.72,5.72,7.77,7.87,18.63,18.62C306.54,397.9,309.73,400.44,313.07,406.37Z"/><path class="cls-7" d="M301.21,309.3a271.2,271.2,0,0,0,7.42,28.94,49.57,49.57,0,0,0-9.91,4.23c-2.29,1.2-5,2.74-8,4.58a434.8,434.8,0,0,1-3.79-100.9,29.63,29.63,0,0,1,9.36,6.58l1.3.15C295.14,278.23,301.21,309.3,301.21,309.3Z"/><path class="cls-4" d="M226.71,1450.61l-2.39.3c-7.57-43.48-27-83.82-43.63-124.71-16.48-40.59-30.52-83.81-26.64-127.39q18,54.32,38.45,110.46,12.17,33.46,24.7,65.84C219.74,1394,223,1420,226.71,1450.61Z"/><path class="cls-4" d="M168.54,677.74l9,1.19c-22.21,37.25-33.47,77.44-39.55,116.29a102.09,102.09,0,0,1-12.3,10.36l-1-1.45c-1-11.75,0-23.6.89-35.41.9-11.3,1.8-22.56,2.69-33.86.7-9.12,1.45-18.23,3-27.19a140,140,0,0,1,11.16-34.86l.74-2.54c.2.09.45.19.65.29A104.33,104.33,0,0,0,168.54,677.74Z"/><path class="cls-11" d="M72,825.47c-10.93,0-50.85-1.93-66-29.29-8-14.38-6.18-31-4.24-48.52.82-7.55,4.12-18.95,10.92-42,10.93-37.17,14.6-45.65,23-53.36A57.23,57.23,0,0,1,57.9,640c6.23-11.1,12.61-22.15,19-32.86,3-5.12,6.08-10.21,9.12-15.2l.4-.66.76-.13c3-.5,6-.95,9.09-1.4l1.94-.29.51,3.32-1.94.3c-2.78.41-5.56.82-8.29,1.27-2.9,4.76-5.84,9.61-8.69,14.5C73.3,619.75,66.82,631,60.5,642.25l-.34.6-.66.2a53.93,53.93,0,0,0-21.6,11.78C30,662,26.53,670.24,15.82,706.65c-6.74,22.82-10,34.11-10.8,41.29-2,17.83-3.66,33.16,3.83,46.61,15.7,28.28,60.27,27.68,65.31,27.52,22.19-.68,39.75-10.09,50.57-17.86A100.82,100.82,0,0,0,136.82,794l2.38,2.38a103.49,103.49,0,0,1-12.5,10.53c-11.21,8-29.39,17.78-52.43,18.5C73.81,825.45,73,825.47,72,825.47Z"/><path class="cls-11" d="M299.67,234.23a212.1,212.1,0,0,1-4.77-31.63A209.65,209.65,0,0,1,304,123.47c3.8-11.64,11.71-35.85,32.43-60.38a163,163,0,0,1,32.51-29.24,175.9,175.9,0,0,1,66.44-27.4,168.31,168.31,0,0,1,36.76-2.67L472,7.15a164.87,164.87,0,0,0-36,2.61,172.43,172.43,0,0,0-65.15,26.87A159.29,159.29,0,0,0,339,65.27c-20.29,24-28.07,47.81-31.8,59.24a209.54,209.54,0,0,0-4.2,109Z"/><path class="cls-11" d="M376.64,408.67c-10,0-17.7-1.73-25.34-5.58a19.4,19.4,0,0,1-2.29-1.28,55.22,55.22,0,0,1-13.31-10.47l2.44-2.32a52.18,52.18,0,0,0,12.6,9.9,18.51,18.51,0,0,0,2,1.14c8.07,4.08,16.29,5.62,27.51,5.17,4.27-.13,8.78-.54,13.55-1l1.81-.17c.33,0,34.71-3.57,74.59-29.17,1.33-.89,2.74-1.79,2.74-1.79,3.16-2.11,5.88-4.06,8.39-5.87v-.82l1.73-.05v1.68l1.63.05V369l-.69.5c-2.73,2-5.68,4.11-9.22,6.46,0,0-1.41.91-2.74,1.8-40.64,26.08-75.77,29.67-76.12,29.7l-1.81.17c-4.83.44-9.39.85-13.74,1C379.11,408.65,377.86,408.67,376.64,408.67Z"/><path class="cls-11" d="M307,338.74a270.9,270.9,0,0,1-7.47-29.11c-.06-.32-6.09-31.61-3.66-56.91.26-2.79.62-5.47,1.07-8,.75-4,1.43-6.59,2.3-9.8l.42-1.54c1.37-4.85,3.43-12.14,7.16-28.14,4.71-20.39,7.21-33.89,8.15-39,1.75-9.5,3.07-17.22,4-23.6l1.57-10.41c.35-2.3.58-3.81.67-4.47a68.6,68.6,0,0,1,4.44-15.1c.91-2.2,2-4.63,3.29-7.22l3,1.48c-1.24,2.53-2.31,4.89-3.19,7a64.76,64.76,0,0,0-4.23,14.31c-.09.64-.32,2.16-.67,4.48l-1.57,10.39c-1,6.42-2.28,14.18-4,23.72-.95,5.1-3.46,18.64-8.19,39.11-3.74,16.08-5.81,23.42-7.19,28.27l-.41,1.53c-.88,3.26-1.52,5.62-2.24,9.53-.43,2.38-.78,5-1,7.66-2.38,24.82,3.56,55.64,3.62,56a267.12,267.12,0,0,0,7.37,28.75Z"/><path class="cls-11" d="M326.43,112.27l2.49-6.6a149.4,149.4,0,0,1,20.4-37.07c5.31-7,15.19-19.95,30.87-30.71a104,104,0,0,1,17.47-9.72,110.5,110.5,0,0,1,23.71-7.28L422,24.2a107.07,107.07,0,0,0-23,7.06,99.78,99.78,0,0,0-16.9,9.41c-15.24,10.45-24.9,23.14-30.09,30a145.63,145.63,0,0,0-17.36,29.87,96.87,96.87,0,0,1,17.56-11.19c7.24-3.54,13.07-4.85,19.24-6.23a127.73,127.73,0,0,0,17.19-4.8,125.33,125.33,0,0,0,23-11.1L413.46,70a129.64,129.64,0,0,1-23.67,11.41,134.57,134.57,0,0,1-17.61,4.92c-6.23,1.39-11.61,2.59-18.48,6a95.06,95.06,0,0,0-22.07,15.17Z"/><path class="cls-11" d="M641.61,587.13l-3.19-1.06c.13-.4.27-.78.42-1.16s.26-.68.37-1c3.73-10.72,6.16-20.69,8.12-28.71l.51-2.09c9.26-38.27,4.89-63.47-1.72-101.61-5-28.92-11.25-64.91-13.61-119.13-1.78-40.12-1.6-74.79-1.6-75.14.13-23.23.77-35.71,1.25-44.82a218.42,218.42,0,0,0,.25-26c-1.23-23.12-3.49-65.81-27.77-108.17l-.17-.29C591.59,55.37,570,17.72,528.57,6.64,511.39,2.09,492,2.28,472.44,7.2c-32.53,8.15-57.92,27.58-59,45.18L410,52.17c1.23-19.31,27.13-39.6,61.58-48.24,20.09-5.05,40.08-5.24,57.82-.54,42.83,11.44,64.82,49.85,77.95,72.81l.17.29c24.68,43.05,27,86.26,28.2,109.47a222.78,222.78,0,0,1-.24,26.59c-.47,9.08-1.12,21.51-1.24,44.67,0,.34-.18,34.94,1.59,75,2.36,54,8.58,89.88,13.57,118.7,6.68,38.56,11.1,64,1.67,103L650.6,556c-2,8.08-4.43,18.14-8.2,29-.12.37-.27.76-.41,1.14S641.73,586.78,641.61,587.13Z"/><path class="cls-11" d="M185.22,1174.26a85.35,85.35,0,0,1-26.92-4,63.07,63.07,0,0,1-17.2-8.91c-12.46-9.18-17.65-20.78-25.51-38.33l-.38-.83c-11.68-26.13-23.75-53.14-14-76.88l.17-.41c3.61-8.64,12.23-29.7,14.18-38.41.85-3.72,1.59-7.47,1.59-7.48.5-2.44,1.09-5.57,2-10.49a628.22,628.22,0,0,0,9-87.1l.41-10.19c1.15-29.1,2.46-62.08,7.79-96.29,7.16-45.8,20.17-84,39.76-116.89,8.48-14.27,24.17-37.72,30.53-47.14,10.23-15.22,19.72-27.41,28.1-38.18,16.26-20.89,29.1-37.39,37.23-62.89a168.11,168.11,0,0,0,6-25.79l3.32.52a171.56,171.56,0,0,1-6.13,26.3c-8.32,26.07-21.32,42.78-37.78,63.93-8.35,10.72-17.81,22.87-28,38-6.34,9.4-22,32.79-30.43,47-19.36,32.48-32.23,70.32-39.32,115.69-5.31,34-6.61,66.89-7.76,95.9l-.4,10.19a633.35,633.35,0,0,1-9,87.57c-.9,5-1.5,8.1-2,10.55,0,0-.75,3.8-1.6,7.56-2,9-10.72,30.24-14.37,39l-.16.4c-9.24,22.39,2.54,48.74,13.93,74.21l.37.84c7.64,17.06,12.69,28.33,24.44,37a59.65,59.65,0,0,0,16.27,8.43c17.2,5.75,35.5,3.57,45.33,2.41,74.78-8.94,193.68-36.62,228.35-44.89l5.62-1.36c1.9-.46,3.31-.8,4.16-1l.84,3.26-4.21,1-5.62,1.36c-34.72,8.29-153.78,36-228.74,45A162.85,162.85,0,0,1,185.22,1174.26Z"/><rect class="cls-11" x="360.11" y="410.37" width="3.37" height="33.17" transform="translate(-85.61 763.14) rotate(-86.64)"/><path class="cls-11" d="M605.94,476.79a589.73,589.73,0,0,1-9.39-105.14c0-20.71,1.12-33.29,2.52-49.21,1.23-14.13,2.63-30.14,3.7-56.33l.25-5.85c2.41-56.52,3.61-84.89-2.69-111.68C591.17,109.34,571.55,72.42,542,38.85l2.52-2.23c29.89,34,49.76,71.41,59.05,111.19,6.4,27.24,5.19,55.76,2.78,112.59l-.25,5.85c-1.08,26.27-2.48,42.32-3.72,56.48-1.39,15.84-2.48,28.36-2.51,48.93a587.63,587.63,0,0,0,9.34,104.53Z"/><path class="cls-11" d="M431.76,510.39l-.23-3.36c15.15-1,30.23-2.45,44.37-3.83,6.53-.64,12.07-1.35,17.43-2.23.09,0,9.16-1.51,18.31-3.66a304.26,304.26,0,0,0,31.14-9.41l4.22-1.54c4.63-1.74,8.37-3.23,10.77-4.2-.11-.42-.22-.84-.34-1.26-.23-.89-.46-1.78-.71-2.67l-10.66-39c-3.16.47-6.31.94-9.51,1.37a21,21,0,0,1-2.61.37c-4.05.61-7.55,1.07-10.88,1.43-7.36.94-14,1.71-20.23,2.34l-1.11.11c-4.16.42-8.24.82-12.37,1.14l-.27-3.35c4.11-.32,8.17-.72,12.31-1.14l1.11-.1c6.2-.63,12.8-1.4,20.17-2.34,3.31-.36,6.77-.81,10.92-1.44a21.06,21.06,0,0,0,2.24-.3c3.95-.55,7.58-1.09,11.2-1.64l1.48-.22L560,477.34c.25.9.49,1.8.73,2.7s.47,1.78.72,2.67l.4,1.44-1.39.57c-2.2.9-6.55,2.65-12.24,4.8l-4.25,1.55a310.53,310.53,0,0,1-31.52,9.52c-9.26,2.17-18.45,3.69-18.54,3.7-5.43.89-11,1.61-17.64,2.26C462.06,507.93,447,509.37,431.76,510.39Z"/><path class="cls-11" d="M357.69,483.13l-2.69-2c10.19-13.54,28.31-25.37,53.88-35.17l.29-.11h.32c12,.05,24.07-.12,35.9-.5l.1,3.37c-11.76.38-23.77.54-35.7.5C385,458.73,367.45,470.15,357.69,483.13Z"/><path class="cls-11" d="M157.15,1168.82a184.36,184.36,0,0,0-6.56-35.68c-5-17.39-13.23-36.17-18.15-47.4-1.65-3.78-3-6.89-4.22-9.52-4.48-10-6-13.38-6-19.53-.13-13,6.13-22.15,11.66-30.25,1-1.4,1.89-2.76,2.75-4.09,7.17-11,8.24-18,10.83-34.87,1.35-8.84,3-19.84,6.17-35.42,6.85-34.26,12.73-50.75,17-62.79,4.49-12.6,7.19-20.2,7.74-38.38A148.72,148.72,0,0,0,176,818.46c-1.66-10-3.09-18.67-.1-35.54,2.43-13.83,7.49-42.63,24.66-63.57l1-1.25a185.16,185.16,0,0,0,17-23.85,183.5,183.5,0,0,0,9.23-17.62c11.61-25.26,17.8-40.45,21.9-50.5,5.4-13.23,7.42-18.18,13.55-26.21,12-15.8,27-35.47,48.89-53l.84-.67A96.85,96.85,0,0,0,334,524.44a94.82,94.82,0,0,0,12.1-25.84c.42-1.29.79-2.44,1.15-3.45a49.53,49.53,0,0,1,7.67-14l2.67,2.05a46.58,46.58,0,0,0-7.17,13c-.35,1-.71,2.11-1.12,3.36a97.54,97.54,0,0,1-12.52,26.71,99.7,99.7,0,0,1-21.62,22.56l-.83.66C292.76,566.82,277.92,586.3,266,602c-5.87,7.67-7.84,12.51-13.11,25.44-4.11,10.08-10.32,25.31-22,50.64a181.63,181.63,0,0,1-26.75,42.21l-1,1.23c-16.61,20.26-21.56,48.47-23.95,62-2.89,16.3-1.57,24.29.11,34.4A151.88,151.88,0,0,1,181.73,851c-.57,18.7-3.5,26.94-7.94,39.4-4.26,11.94-10.09,28.3-16.89,62.32-3.11,15.5-4.8,26.47-6.15,35.27-2.58,16.86-3.76,24.55-11.32,36.19-.88,1.35-1.83,2.74-2.8,4.16-5.25,7.69-11.2,16.39-11.08,28.32,0,5.45,1.25,8.15,5.74,18.18,1.19,2.64,2.58,5.77,4.23,9.55,5,11.3,13.25,30.22,18.3,47.82a188.38,188.38,0,0,1,6.69,36.33Z"/><path class="cls-11" d="M392.86,549.36l2.49-6.72c4-10.77,8.55-21.83,13.55-32.88,12.69-27.93,23.93-46,35.28-63.57l1.34-2.08C452.1,434,458.3,424.39,463.82,414q1.77-3.4,3.41-6.82a204.27,204.27,0,0,0,14.18-39.42c5.14-20.39,6.83-39.28,8.32-55.95,2.1-23.43,8.49-94.68-27.46-165.54-11.81-23.27-24.14-38.61-34-50.93-7.07-8.79-12.65-15.74-15.94-22.89A27.42,27.42,0,0,1,411,69.14a29.36,29.36,0,0,1-.89-17.24l3.28.76A26.1,26.1,0,0,0,414.15,68,25.39,25.39,0,0,0,415.33,71c3.13,6.79,8.6,13.59,15.52,22.2,10,12.45,22.45,27.94,34.42,51.51,36.39,71.73,29.93,143.7,27.81,167.35-1.5,16.81-3.2,35.85-8.41,56.49a207.08,207.08,0,0,1-14.41,40.06c-1.1,2.31-2.25,4.61-3.46,6.92-5.59,10.58-11.84,20.22-18.45,30.43L447,448c-11.27,17.45-22.44,35.41-35,63.13-3.91,8.63-7.54,17.28-10.84,25.78,7.85-7.51,15.29-14.89,22.59-22.42l6.72-7c19.87-20.58,39.2-41,57.31-64.37a394.13,394.13,0,0,0,27.77-40.42c5.73-9.59,10.68-18.75,15.12-28q1.17-2.49,2.5-5.23l1.08-2.24,3,1.46L536.16,371c-.88,1.83-1.71,3.55-2.49,5.21-4.49,9.36-9.49,18.61-15.27,28.29a398.14,398.14,0,0,1-28,40.76c-18.2,23.51-37.6,44-57.53,64.63l-6.72,7c-9,9.27-18.16,18.29-28.05,27.61Z"/><path class="cls-11" d="M537.25,368.64l-3-1.44c12.4-26.28,29-67.44,30.42-121.14A291,291,0,0,0,540.76,124l3.09-1.33A294.22,294.22,0,0,1,568,246.15C566.61,300.48,549.79,342.08,537.25,368.64Z"/><path class="cls-11" d="M289,347.31A436,436,0,0,1,285.24,246l.2-2.43,2.2,1a30.81,30.81,0,0,1,9.89,7L295,253.86a25.24,25.24,0,0,0-6.63-5.06,432.76,432.76,0,0,0,4,98Z"/><path class="cls-11" d="M169.57,679.6l-1.29-.2a106.59,106.59,0,0,1-25.1-7.29l-.74-.34c-13.43-5.83-31.62-17.3-41.61-38.64a77.43,77.43,0,0,1-6.42-41.44l.07-.59.41-.41a5.87,5.87,0,0,1,.4-.45c56.91-64.77,88.79-103.19,94.68-114.1l.17-.32A205.8,205.8,0,0,1,201,457.87c3.16-4.61,5.33-7.4,7.08-9.65.88-1.14,1.65-2.12,2.37-3.13,3.76-15.13,7.22-28.58,10.19-40.16,2.08-8.09,3.92-15.28,5.47-21.48s3.21-12.62,9-16.52c2.79-1.94,6.11-2.74,9.31-3.51.65-.15,1.29-.3,1.92-.47,3.35-.82,5.95-1.75,7.78-3.63l2.41,2.36c-2.66,2.71-6.23,3.76-9.37,4.54l-1.95.48c-3,.72-5.91,1.41-8.2,3-4.7,3.2-6.08,8.62-7.54,14.37-1.6,6.4-3.45,13.59-5.53,21.7-3,11.65-6.47,25.2-10.26,40.45l-.26.56c-.8,1.14-1.65,2.23-2.64,3.51-1.72,2.21-3.86,5-6.95,9.47a201.42,201.42,0,0,0-10.69,17.65l-.18.33c-6.1,11.29-37.23,48.85-95.19,114.8l0,.06a74,74,0,0,0,6.19,39.1c9.54,20.39,27,31.38,40,37l.73.34a103,103,0,0,0,22.93,6.8c29.74-68.42,60.22-119.2,76-137.52,14.23-16.45,32.34-34.29,32.52-34.47.56-.55,1.12-1.07,1.69-1.59,3.75-3.65,7-6.65,9.34-8.89l.49-.46h.67a42.2,42.2,0,0,0,16.47-3.2c9.7-4.11,17.87-12.45,25-25.5a116.66,116.66,0,0,0,5.33-11.7c1-2.62,1.82-5.25,2.59-8l3.24.91c-.79,2.85-1.67,5.57-2.68,8.29a117.63,117.63,0,0,1-5.52,12.12c-7.5,13.75-16.2,22.58-26.63,27a45.28,45.28,0,0,1-17.11,3.46c-2.33,2.18-5.34,5-8.86,8.45-.57.51-1.1,1-1.63,1.52-.19.19-18.21,17.94-32.34,34.28-15.75,18.24-46.26,69.16-76,137.86Z"/><path class="cls-11" d="M259.52,485.79a32.59,32.59,0,0,1-8.7-1.21l.89-3.24a27.74,27.74,0,0,0,16.4-.32,27.4,27.4,0,0,0,14.49-11.49l2.87,1.76a30.82,30.82,0,0,1-16.29,12.92A30.36,30.36,0,0,1,259.52,485.79Z"/><path class="cls-11" d="M343.26,391.9a29.09,29.09,0,0,1-6.51-.78,30.29,30.29,0,0,1-11.21-5.43l2-2.68a26.93,26.93,0,0,0,9.94,4.84,24.8,24.8,0,0,0,6.93.65A25.11,25.11,0,0,0,356,384.85c-16.58-14.06-28.47-26.9-35.35-38.17l-.26-.43c-1-1.74-3.15-5.35-6.89-6.45a4.58,4.58,0,0,0-1.07.28c-1.26.4-3.36,1.07-5-.67l2.41-2.34c.19.19.51.16,1.61-.2a5,5,0,0,1,3.05-.29c5,1.47,7.69,6,8.83,8l.24.4c6.92,11.33,19.14,24.38,36.34,38.77l1.65,1.38-1.73,1.27A28.33,28.33,0,0,1,350,391a27.41,27.41,0,0,1-5.4.84C344.18,391.89,343.72,391.9,343.26,391.9Z"/><path class="cls-11" d="M281.6,355.28l-2-2.71c3.57-2.64,7-5,10.23-6.95s5.85-3.46,8.12-4.64a51.06,51.06,0,0,1,10.27-4.37l.83,3.26A48.11,48.11,0,0,0,299.5,344c-2.17,1.14-4.84,2.66-7.92,4.53S285.1,352.69,281.6,355.28Z"/><path class="cls-11" d="M294.81,387.2c-1.45-2.65-2.85-5.3-4.2-7.9l3-1.55c1.34,2.58,2.73,5.21,4.17,7.84Z"/><path class="cls-11" d="M337.7,446.6a21.85,21.85,0,0,1-4.51-.44c-8.48-1.7-15.94-8.24-20.45-17.92a47.18,47.18,0,0,1-3.2-9.18l3.27-.78a44.28,44.28,0,0,0,3,8.53c4.07,8.71,10.66,14.56,18.09,16.05a19.6,19.6,0,0,0,5.29.32,23.68,23.68,0,0,0,3.38-.45c-.56-2.47-1.19-5.21-1.92-8.17-2.26-9.39-4.47-18.16-6.77-26.82-1.69-6.22-2.11-7.6-2.52-8.88a67.57,67.57,0,0,0-6.21-13.64c-1.79-3-3.72-5.6-5.77-8.4a148.71,148.71,0,0,1-8.73-13,11.32,11.32,0,0,0-4.27-4.58,11.78,11.78,0,0,0-5.93-1.34l-.91,0-9.19-.61-9.88-.64-6.73-.44c-2.12-.13-4.25-.26-6.38-.41-2.48-.15-4.68-.19-6.33.81a11.29,11.29,0,0,0-2.63,2.8,23.86,23.86,0,0,1-1.87,2.26l-2.41-2.34a21,21,0,0,0,1.59-1.94,13.77,13.77,0,0,1,3.55-3.64c2.71-1.64,5.95-1.45,8.32-1.31l6.37.42,6.74.43,9.89.65,9.18.6.78,0a15.09,15.09,0,0,1,7.52,1.78,14.74,14.74,0,0,1,5.52,5.83,145.23,145.23,0,0,0,8.51,12.65c2.1,2.86,4.07,5.57,5.94,8.65a70.9,70.9,0,0,1,6.53,14.33c.43,1.34.86,2.76,2.57,9.06,2.31,8.7,4.53,17.49,6.79,26.89.89,3.64,1.64,6.94,2.29,9.84l.35,1.55-1.53.44a26.62,26.62,0,0,1-5.63,1C338.78,446.58,338.23,446.6,337.7,446.6Z"/><path class="cls-11" d="M304.37,421.32c-6.77,0-13.25-4.92-19.06-9.33a70.4,70.4,0,0,1-10.13-9.3c-2.92-3.13-4.67-5-8.82-6.15a20.72,20.72,0,0,0-5.05-.65,27.29,27.29,0,0,1-7.9-1.26,37.89,37.89,0,0,1-13.45-7.5l2.19-2.56a34.53,34.53,0,0,0,12.25,6.84,23.47,23.47,0,0,0,7,1.12,24,24,0,0,1,5.8.75c5.09,1.39,7.32,3.79,10.41,7.12a69,69,0,0,0,9.7,8.91c6.47,4.91,13.16,10,19.58,8.33a10.37,10.37,0,0,0,2.81-1.24,15.25,15.25,0,0,0,4.29-4.06,40,40,0,0,0-2.42-5.15c-2.64-4.69-5.15-7.13-9.3-11.16-.87-.84-1.8-1.75-2.82-2.76-4.52-4.48-7.17-7.46-9.29-9.86A51,51,0,0,0,281,374.8l-.59-.43a46.33,46.33,0,0,0-7.27-4.64c-7.4-3.74-16.43-4.91-26.14-3.38l-.52-3.33c10.41-1.63,20.15-.36,28.16,3.7a49.55,49.55,0,0,1,7.76,4.93l.59.44a54,54,0,0,1,9.67,9.09c2.1,2.36,4.71,5.29,9.15,9.7,1,1,1.94,1.9,2.8,2.74,4.22,4.1,7,6.8,9.88,11.92a41.74,41.74,0,0,1,3,6.49l.29.81-.49.7a18.92,18.92,0,0,1-5.79,5.72,13.36,13.36,0,0,1-3.75,1.64A13.55,13.55,0,0,1,304.37,421.32Z"/><path class="cls-11" d="M283,452.94a33,33,0,0,1,2.05-16.27,32.49,32.49,0,0,1,10.18-13.54l2.09,2.63a29.15,29.15,0,0,0-9.14,12.15,29.49,29.49,0,0,0-1.84,14.61Z"/><path class="cls-11" d="M230.51,474.18a30.45,30.45,0,0,1-4.86-2.32c-10.72-6.55-14.18-19-15.29-25.78l3.32-.54c1,6.25,4.16,17.6,13.71,23.43a25.57,25.57,0,0,0,4.29,2Z"/><path class="cls-11" d="M343.89,434.54l-3.28-.76c.33-1.4.64-2.81.95-4.22s.62-2.81.94-4.2l.95-4.11c1.62-7.08,3.24-14.14,4.83-21.23l3.28.74c-1.58,7.09-3.21,14.15-4.83,21.24l-1,4.12q-.48,2.07-.93,4.17C344.53,431.71,344.22,433.13,343.89,434.54Z"/><path class="cls-11" d="M708,793.07c-31.78-59.63-50.48-95.75-62.53-120.78-4.29-8.89-7.81-16.57-10.44-22.84a63.67,63.67,0,0,0-10.77-16.51,62,62,0,0,0-10.43-9.52c-8.2-5.9-20.93-9.41-30.87-3.92l-1.63-3c9.87-5.45,23.4-3.82,34.47,4.14a66.07,66.07,0,0,1,11,10,67.24,67.24,0,0,1,11.35,17.43c2.61,6.22,6.1,13.85,10.37,22.69,12,25,30.72,61.07,62.47,120.66Z"/><path class="cls-11" d="M650.71,670.65l-3.36-.27c1.42-17.68,2.26-52.3-8.14-85.47a146.65,146.65,0,0,0-5.72-15.36A260,260,0,0,0,589.76,503a254.19,254.19,0,0,0-26.71-25.48l2.14-2.6a261.5,261.5,0,0,1,71.38,93.3,151.1,151.1,0,0,1,5.85,15.71C653,617.62,652.15,652.72,650.71,670.65Z"/><path class="cls-11" d="M738.22,917.92l-2.38-2.38.31-.33c.15-.16.29-.32.44-.47,4-4.21,8.62-9.18,12.66-14.33a88.93,88.93,0,0,0,6.07-8.48c4.58-7.27,7.32-14.19,8.38-21.17,2.36-15.81-3.83-30.65-10.39-46.36-2.78-6.67-5.66-13.56-7.78-20.47-.5-1.68-.94-3-1.85-3.82a7.59,7.59,0,0,0-3.81-1.24c-10.23-1.64-20.49-3.29-30.69-4.88-7.28-1.19-14.5-2.34-21.77-3.49l.53-3.32c7.27,1.15,14.5,2.29,21.77,3.49,10.2,1.59,20.46,3.23,30.67,4.88a10.26,10.26,0,0,1,5.53,2c1.71,1.51,2.36,3.74,2.84,5.37,2.07,6.73,4.91,13.55,7.67,20.14,6.44,15.45,13.11,31.41,10.61,48.16-1.13,7.45-4,14.8-8.86,22.46a92.62,92.62,0,0,1-6.28,8.78c-4.12,5.25-8.82,10.29-12.89,14.59l-.36.38Z"/><path class="cls-11" d="M566.79,1155l-2.66-2.06c16.22-20.9,34.84-36.88,55.34-47.48,9.18-4.74,17.3-8.19,30.75-13.91,8.73-3.71,19.59-8.33,34.28-14.82a237.85,237.85,0,0,0,22.4-11.22c.5-.28,48.86-29.91,51.41-74,.54-9.25-1.2-15.09-3.39-22.5-2.55-8.58-5.72-19.25-6.58-39.29a220.2,220.2,0,0,1,.56-28.45l3.35.29a216.89,216.89,0,0,0-.54,28c.84,19.63,3.94,30.08,6.43,38.49,2.29,7.71,4.1,13.81,3.53,23.64-2.65,45.83-52.59,76.43-53.09,76.71a240.56,240.56,0,0,1-22.71,11.39c-14.72,6.49-25.6,11.12-34.34,14.84-13.37,5.68-21.45,9.12-30.51,13.8C601,1118.85,582.7,1134.51,566.79,1155Z"/><path class="cls-11" d="M689.13,975.69c-6.47-.34-13.14-.86-19.81-1.55-11.8-1.19-24-2.42-35.19-5.23-12.22-3.07-17.47-6.57-22.1-9.66A41.19,41.19,0,0,0,595.19,952c-8.91-1.9-16.56-1.7-22.7-1.54-7.53.19-13.49.35-17.83-3.36a8.92,8.92,0,0,1-1.84-1.8c-2.91-3.68-3.9-8.92-2.92-15.57l3.33.5c-.84,5.68-.09,10.06,2.25,13a5.88,5.88,0,0,0,1.26,1.23c3.46,2.95,8.58,2.82,15.66,2.63,6.32-.16,14.19-.36,23.49,1.61a44.49,44.49,0,0,1,18,7.75c4.62,3.08,9.39,6.27,21.05,9.2,10.95,2.75,23,4,34.71,5.14,6.62.69,13.23,1.2,19.64,1.53Z"/><path class="cls-11" d="M550.17,930.91c-.84-1.25-1.66-3.91,2.22-7.67q14.15-13.62,28.27-27.27t28.46-27.46l2.33,2.42L583,898.39Q568.88,912,554.73,925.66c-1.13,1.09-2.27,2.63-1.76,3.39Z"/><path class="cls-11" d="M550.29,931.08c-8.3-9.6-22.47-29.93-24-58.28a95.47,95.47,0,0,1,6.94-40.7l-23.19-.58.06-1.7c.54-14.21-5.14-27.79-10.63-40.93-17.37-41.27-35.33-83.94-62.64-120.25l2.69-2c27.56,36.65,45.61,79.52,63.06,121,5.16,12.36,11,26.3,10.92,40.65l24.78.62-1,2.29a92.33,92.33,0,0,0-7.63,41.47c1.44,27.35,15.12,47,23.15,56.26Z"/><path class="cls-11" d="M631.57,1052.49c-17-12.93-28.45-26-34.09-39l-.2-.48a89.63,89.63,0,0,0-10.47-18.62l-.23-.31a71,71,0,0,0-12.82-14,52.85,52.85,0,0,0-10-6.54,20.42,20.42,0,0,1-6.33-4.45,17.78,17.78,0,0,1-1.12-1.45c-3.71-5.31-4.45-12.78-2.2-22.22a17.65,17.65,0,0,1,.47-2.07l3.24.93a14.13,14.13,0,0,0-.41,1.78q-3.06,12.9,1.66,19.65a12.77,12.77,0,0,0,.88,1.15,17.13,17.13,0,0,0,5.38,3.7,55.05,55.05,0,0,1,10.56,6.92,73.91,73.91,0,0,1,13.4,14.57l.24.32a93.85,93.85,0,0,1,10.85,19.29l.19.47c5.4,12.42,16.52,25.1,33,37.67Z"/><path class="cls-11" d="M564.43,1155.32c-13.55-10.47-22.59-19.35-26.52-24.17-3.4-4.21-5.3-7.1-5.38-7.22-.25-.39-.46-.76-.67-1.12l-.31-.53c-.44-.75-.83-1.44-1.23-2.14l-1.17-2.05a75.46,75.46,0,0,0-5.39-8.33c-4.78-6.51-11.06-12.23-17.14-17.76s-12.13-11-16.86-17.39a44.33,44.33,0,0,1-7.4-14.54c-1.27-4.49-1.28-8.18,0-11.25a17.54,17.54,0,0,1,6-7.55c3.84-2.89,19-18.17,69.11-74.41.58-.58,1-1.09,1.51-1.65l2.58,2.15c-.53.64-1.06,1.22-1.64,1.81-40.34,45.25-63.76,70.44-69.55,74.81a14.31,14.31,0,0,0-4.88,6.1c-1,2.36-.91,5.33.16,9.08a40.94,40.94,0,0,0,6.85,13.45c4.53,6.09,10.31,11.34,16.42,16.9s12.62,11.47,17.6,18.26a78.55,78.55,0,0,1,5.59,8.65c.41.69.8,1.38,1.19,2.07s.76,1.36,1.18,2.08l.33.56c.19.32.38.65.59,1,0,0,1.88,2.86,5.16,6.91,3.81,4.68,12.64,13.34,26,23.64Z"/><path class="cls-11" d="M393.28,1240l-3.25-.89c6.58-24.08,11.64-43.45,15.48-59.21a90.93,90.93,0,0,1,6.79-19.61c4.72-9.69,12-17.82,19-25.68l.31-.36q3.56-3.91,7-7.84L457,1106.13q14.81-16.49,29.61-33l2.51,2.25q-14.81,16.55-29.61,33l-18.29,20.31c-2.33,2.62-4.68,5.25-7,7.85l-.31.35c-6.88,7.69-14,15.65-18.5,24.91a86.32,86.32,0,0,0-6.55,18.92C404.93,1196.53,399.86,1215.93,393.28,1240Z"/><path class="cls-11" d="M422.76,1289.64l-2.85-1.78,1.49-2.34c22.79-35.34,41.09-64.73,56-89.86l.52-.88a218.16,218.16,0,0,1,13.68-20.59c3.39-4.49,6.61-8.43,9.85-12.06a211.84,211.84,0,0,1,26.69-25.74c3.35-2.7,6.77-5.28,10.14-7.68l2,2.75c-3.32,2.35-6.68,4.89-10,7.55a209.4,209.4,0,0,0-26.28,25.34c-3.19,3.58-6.35,7.46-9.69,11.87a214,214,0,0,0-13.47,20.29l-.52.87c-14.88,25.16-33.2,54.58-56,89.94Z"/><path class="cls-11" d="M500.22,1328.28c-7-3.18-14.94-4.45-22.61-5.67-8.31-1.33-16.91-2.71-24.64-6.5-8-3.91-14.68-10.26-20.65-16.54-3.6-3.79-7.22-7.85-10.78-12.08-3.66-4.43-6.82-8.47-9.68-12.33a267,267,0,0,1-21.7-34.79,257.23,257.23,0,0,1-16.49-39l3.2-1a254.51,254.51,0,0,0,16.27,38.54,263.66,263.66,0,0,0,21.43,34.34c2.82,3.82,5.94,7.8,9.56,12.18,3.5,4.16,7.08,8.18,10.63,11.91,5.75,6,12.13,12.15,19.68,15.84,7.29,3.57,15.64,4.9,23.7,6.19,7.89,1.27,16,2.57,23.47,5.94Z"/><path class="cls-11" d="M516.48,1554.69c.19-1.34.37-2.46.51-3.35l.18-1.2c5.11-30.34,8.58-51.89,11.11-67.62,5.48-34,7-43.2,12.21-62.59,1.16-4.25,2.36-8.49,3.56-12.72,4.89-17.29,10-35.17,12.37-53.29,3.51-26,2.13-48.93-1.64-82.09a1103.42,1103.42,0,0,0-24-134.52l-3.27.79a1100.22,1100.22,0,0,1,23.92,134.11c4.31,37.91,4.72,58.42,1.65,81.26-2.39,17.89-7.42,35.65-12.28,52.82-1.2,4.25-2.4,8.49-3.57,12.75-5.3,19.58-6.78,28.76-12.28,63-2.53,15.72-6,37.26-11.11,67.62l-.19,1.21c-.14.9-.32,2-.51,3.39-1.93,13.94-6.42,51-11.8,95.77h3.39C510.1,1605.45,514.56,1568.55,516.48,1554.69Z"/><path class="cls-11" d="M132.47,1374.86c-1.13-12.64-3.22-36.17-3.93-67.17a927,927,0,0,1,9.25-152.56l-3.33-.49a929.52,929.52,0,0,0-9.28,153.12c.71,31.11,2.81,54.72,3.94,67.4,4.82,53.43,16.33,165.7,27.79,274.82h3.38C148.83,1540.77,137.3,1428.33,132.47,1374.86Z"/><path class="cls-11" d="M357.17,483.59l-.85-1.38h-1.76l.53-.93-.14-.1a140.06,140.06,0,0,0,19.83-44.49c.72-2.83,1.36-5.87,1.92-9.05a131.32,131.32,0,0,0,2-20.75,8.56,8.56,0,0,0,.05-1h3.36a7.85,7.85,0,0,1-.07,1.28,130.82,130.82,0,0,1-2,21.08c-.57,3.26-1.23,6.38-2,9.28a143.25,143.25,0,0,1-20.31,45.54Z"/><path class="cls-11" d="M534.7,439.36a147.17,147.17,0,0,1-3.93-22.47,150.71,150.71,0,0,1,3.32-49.25l1.45.33,1.87-.05,0,.48a147.11,147.11,0,0,0-3.25,48.16,143.16,143.16,0,0,0,3.84,22l0,.42-1.78,0Z"/><path class="cls-11" d="M407.58,511.49q-6,0-12-.05l-12.14-.05-2.55,0,1-2.34q6-13.8,12-27.6l6.84-15.68,3.08,1.35-6.84,15.68q-5.51,12.62-11,25.26l9.58,0,12,.05Z"/><path class="cls-11" d="M251.47,1645.78c-8.05-68.91-16.38-140.16-23.09-195.38-4.35-35.6-7.28-58.89-9.51-75.52l-.1-.38c-8.87-23-17-44.53-24.69-65.81-13.27-36.37-26.2-73.52-38.43-110.41l-1.05-3.09-3.19,1.06,1,3.09c12.24,36.92,25.18,74.1,38.47,110.51,7.72,21.24,15.79,42.72,24.64,65.68,2.22,16.59,5.15,39.83,9.48,75.28,6.71,55.2,15,126.46,23.09,195.36.15,1.27.3,2.54.44,3.81H252C251.8,1648.58,251.64,1647.18,251.47,1645.78Z"/><circle class="cls-9" cx="349.13" cy="210.25" r="12.8"/><path class="cls-11" d="M349.13,223.82a13,13,0,0,1-3.08-.36,13.56,13.56,0,1,1,16.3-10.12h0A13.6,13.6,0,0,1,349.13,223.82Zm0-25.6A12,12,0,0,0,346.4,222a12,12,0,1,0,5.47-23.42A11.82,11.82,0,0,0,349.11,198.22Z"/><circle class="cls-9" cx="459.45" cy="234.8" r="12.8"/><path class="cls-11" d="M459.48,248.38a13.68,13.68,0,0,1-3.11-.36,13.48,13.48,0,1,1,3.11.36Zm-.05-25.61a12,12,0,1,0,11.74,14.77h0a12,12,0,0,0-9-14.45A11.82,11.82,0,0,0,459.43,222.77Z"/><path class="cls-11" d="M373.6,187.91a71.56,71.56,0,0,0-9.35-14.25,49.06,49.06,0,0,0-12.53-10.74,41.1,41.1,0,0,0-15.31-5.16,98.62,98.62,0,0,0-16.82-.59,28.58,28.58,0,0,1,17.32-3.9,34.89,34.89,0,0,1,8.88,2,38.65,38.65,0,0,1,8.17,4,44.07,44.07,0,0,1,12.61,12.62A48.63,48.63,0,0,1,373.6,187.91Z"/><path class="cls-11" d="M421.61,197.52A48.57,48.57,0,0,1,435,186.29a44,44,0,0,1,16.89-5.73,38.47,38.47,0,0,1,9.1,0,35,35,0,0,1,8.86,2.12,28.59,28.59,0,0,1,13.8,11.16A98.73,98.73,0,0,0,468.31,187a41.25,41.25,0,0,0-16-2.17,49.29,49.29,0,0,0-16,4.08A71.71,71.71,0,0,0,421.61,197.52Z"/><path class="cls-11" d="M421.51,231.13A45.17,45.17,0,0,1,435.38,220a43.54,43.54,0,0,1,17.46-4.91,47.43,47.43,0,0,1,9.22.29,45.94,45.94,0,0,1,9,2.24,43.81,43.81,0,0,1,15.67,9.8l1.16,1.15-.59,1.35h0A45.77,45.77,0,0,1,477,244.26a37.34,37.34,0,0,1-14.86,9,31.21,31.21,0,0,1-17.14.11,42.82,42.82,0,0,1-15.15-7.6,41.06,41.06,0,0,0,15.34,6.79,30,30,0,0,0,16.36-1.07A36.6,36.6,0,0,0,483,228.26h0l.58,2.5A52.9,52.9,0,0,0,469.35,222a43.63,43.63,0,0,0-33.1-.16A48.4,48.4,0,0,0,421.51,231.13Z"/><polygon class="cls-11" points="497.63 219.6 486.97 231.49 483.31 226.66 497.63 219.6"/><path class="cls-11" d="M368.76,221.53a37.67,37.67,0,0,0-4.38-16.34,33.59,33.59,0,0,0-11.12-12A30.75,30.75,0,0,0,338,188.52a39.86,39.86,0,0,0-15.75,2.87l1.34-2h0a39.49,39.49,0,0,0,1.07,14.81,37.82,37.82,0,0,0,6.11,13.69,27.65,27.65,0,0,0,12,9,35.88,35.88,0,0,0,15.15,2.23,37.4,37.4,0,0,1-15.43-1.44,29,29,0,0,1-13.13-8.6,40.18,40.18,0,0,1-7.43-14A55.05,55.05,0,0,1,319,189.21h0v-1.37l1.34-.64a35.56,35.56,0,0,1,17.95-3.42,32.17,32.17,0,0,1,17.06,6.4,34,34,0,0,1,10.93,14.13A35.79,35.79,0,0,1,368.76,221.53Z"/><polygon class="cls-11" points="314.29 175.27 323.36 188.26 319.22 190.32 314.29 175.27"/><path class="cls-11" d="M379.18,210.25a51.91,51.91,0,0,1-2.52,36.06,53.7,53.7,0,0,1-10.47,15.3,56.2,56.2,0,0,1-14.88,11l.52-1.54c1.57,3.73,3.09,7.48,4.6,11.23s3,7.53,4.31,11.36c-2-3.54-3.78-7.16-5.68-10.74s-3.64-7.22-5.4-10.86l-.47-1,1-.57A63.14,63.14,0,0,0,364,259.55a57,57,0,0,0,10-14.46,56.33,56.33,0,0,0,5.15-16.9A63.8,63.8,0,0,0,379.18,210.25Z"/><path class="cls-11" d="M383.14,294.54c-2.19-.56-3.69-1.14-5.3-1.61s-3.13-.92-5.26-1.7a6.17,6.17,0,0,1,6.18-1.21A6.29,6.29,0,0,1,383.14,294.54Z"/><path class="cls-1" d="M340.83,304.38c1,8.31,4.16,20.54,13.9,28.61,17.43,14.45,50.61,11.19,77.32-13-9.24,3-36.42,10.39-66.49-1.3a95.81,95.81,0,0,1-31.77-20.48"/><path class="cls-12" d="M333.79,298.21a56.19,56.19,0,0,0,6,3.11,42.15,42.15,0,0,0,6.26,2.46c2.11.72,4.48,1,6.59,1.47a19.44,19.44,0,0,1,5.8,2.27c1.72,1.08,3.19,2.72,4.87,4A14.79,14.79,0,0,0,369,314c4.07,1,8.34,1,12.29,1.84,7.87,1.86,15.93,4.5,24.58,5.49a76.51,76.51,0,0,0,13,.29A85.88,85.88,0,0,0,432.05,320a108.34,108.34,0,0,1-25.87,6,86.51,86.51,0,0,1-26.8-1.12l-3.29-.78-3.2-1.08c-2.16-.65-4.19-1.64-6.29-2.41-1.06-.38-2.09-.8-3.11-1.27s-2.09-.82-3.12-1.25a57.5,57.5,0,0,1-6.21-2.63,52,52,0,0,1-10.85-8A113.3,113.3,0,0,1,333.79,298.21Z"/><path class="cls-12" d="M340.83,304.38a39.47,39.47,0,0,0,1.7,7.12,35.79,35.79,0,0,0,2.82,6.68,42.86,42.86,0,0,0,9,10.66,40,40,0,0,0,24.74,9.49c9.21.37,18.5-1.74,27.26-5.16A157.31,157.31,0,0,0,432.05,320a140.43,140.43,0,0,1-11.35,9.37,73.26,73.26,0,0,1-6.19,4.06c-1.07.61-2.11,1.28-3.18,1.92s-2.2,1.15-3.28,1.8c-8.61,5-18.39,9.41-29.35,10.16a40.79,40.79,0,0,1-16.64-2,38,38,0,0,1-4-1.66c-1.28-.73-2.55-1.49-3.78-2.28-1.12-1-2.25-1.95-3.3-3a32.3,32.3,0,0,1-2.79-3.42,38,38,0,0,1-6.53-15.25A56.21,56.21,0,0,1,340.83,304.38Z"/></g></svg>