<svg xmlns="http://www.w3.org/2000/svg" viewBox="0 0 633.69 1296.61"><defs><style>.cls-1{fill:#adadad;}.cls-2{fill:#e56590;}.cls-3{fill:#d5ad95;}.cls-4{fill:#fff;}.cls-5{fill:#f3d1bb;}.cls-6{fill:#f094b0;}.cls-7{fill:#f39200;}.cls-8{fill:#432918;}.cls-9{fill:#b14191;}.cls-10{fill:#ec7b23;}.cls-11{fill:#26170e;}.cls-12{fill:#f2e6b5;}.cls-13{fill:#1d1d1b;}.cls-14{fill:#ce9087;}.cls-15{fill:none;}.cls-16{fill:#392f25;}</style></defs><g id="PERSONAJES"><path class="cls-1" d="M632.31,731.11c.57,9.34,1.15,18.86-.94,28-1.35,5.94-3.82,11.68-4.79,17.64a136.22,136.22,0,0,0-29.75-1.83c.24-3.79.46-7.6.66-11.39a31,31,0,0,0,3.66-2.58c5.77-4.76,9.63-12.87,6.89-19.83,4.86-1.93,8.33-6.57,11.43-10.92,2.1-3,4.18-7.11,1.9-9.92-1.27-1.56-3.44-2-5.44-2.25a70.47,70.47,0,0,0-9.85-.56A29.45,29.45,0,0,0,618.2,713c5.4-3.74,8.7-11.45,5.39-17.14q-11.24-.25-22.49-.47c1.13-26.6,1.62-53.37.39-79.86,7.65-2.72,15.39-5.2,23.18-7.33.12,1.91.24,3.81.35,5.72Q628.68,672.54,632.31,731.11Z"/><path class="cls-2" d="M598.44,854c-2.18-4.38-3-9.45-4.59-14.12-.27-.78-.56-1.56-.88-2.32q2-31.32,3.86-62.62a136.22,136.22,0,0,1,29.75,1.83,29.57,29.57,0,0,0-.42,4.22c-.2,9.21,4.38,17.81,5.74,26.9,2.84,19.19-8.74,37.15-13.87,55.85-7.57,27.5-1.42,58.53-14.7,83.78a49.57,49.57,0,0,0-6.8.87,340.71,340.71,0,0,0,.13-83.82C596.24,861.12,596.78,856.73,598.44,854Z"/><path class="cls-1" d="M627.17,1295.77H465.89a293.2,293.2,0,0,0,29.84-40.07c37.67-6,75.53-13,112-23.89Q616,1264.23,627.17,1295.77Z"/><path class="cls-3" d="M623.59,695.9c3.31,5.69,0,13.4-5.39,17.14a29.45,29.45,0,0,1-12.12,4.42c-2,0-4,.1-6,.29q.59-11.13,1.05-22.32Q612.35,695.66,623.59,695.9Z"/><path class="cls-2" d="M613.12,530.42c7.81,25.11,9.89,51.56,11.55,77.82-7.79,2.13-15.53,4.61-23.18,7.33-2.15-46.34-9.6-91.81-28.33-134,7.36,3.54,14.38,7.68,20.23,13.31C603.25,504.41,609.07,517.35,613.12,530.42Z"/><path class="cls-3" d="M621.37,720.27c2.28,2.81.2,7-1.9,9.92-3.1,4.35-6.57,9-11.43,10.92a.26.26,0,0,1,0-.08c-3.12.66-6.23,1.32-9.35,2,.29-4.92.56-9.87.83-14.8.19-3.3.36-6.6.52-9.92,2-.22,4-.46,6.07-.81a70.47,70.47,0,0,1,9.85.56C617.93,718.27,620.1,718.71,621.37,720.27Z"/><path class="cls-3" d="M608,741.11c2.74,7-1.12,15.07-6.89,19.83a31,31,0,0,1-3.66,2.58q.62-10.28,1.17-20.53c3.12-.64,6.23-1.3,9.35-2A.26.26,0,0,0,608,741.11Z"/><path class="cls-4" d="M601.49,615.57c1.23,26.49.74,53.26-.39,79.86-5.83-.12-11.63-.26-17.46-.37l0-1.16c10.11-.76,18.06-11.88,15.54-21.7q-26.93,1.57-53.69,5l-.12-.83c-3.51-11.65-7-23.37-9.94-35.21,9.36-.86,18-5.13,26.53-9.16C574.73,626,588,620.38,601.49,615.57Z"/><path class="cls-5" d="M583.64,695.06c5.83.11,11.63.25,17.46.37q-.47,11.18-1.05,22.32c0,.17,0,.35,0,.52-.16,3.32-.33,6.62-.52,9.92-.27,4.93-.54,9.88-.83,14.8q-.55,10.26-1.17,20.53c-5.1,3.15-10.92,5.06-16.49,7.33a130.38,130.38,0,0,0-16,7.75h0c-2.81,1.63-5.59,3.36-8.26,5.18l-2.44-1.88c-36.37.55-71.52,10.64-106.76,20.36a212.28,212.28,0,0,0,19.35-59.81c.59-3.59,1.15-7.33,3.12-10.4,2.25-3.48,6-5.62,9.57-7.77a146.16,146.16,0,0,0,38.2-33.63c2.79-3.5,5.55-7.26,9.48-9.46,3.32-1.86,7.18-2.46,10.94-3,2.42-.34,4.86-.66,7.28-1q26.75-3.48,53.69-5c2.52,9.82-5.43,20.94-15.54,21.7Z"/><path class="cls-5" d="M606.08,717.46c-2,.35-4.05.59-6.07.81,0-.17,0-.35,0-.52C602.05,717.56,604.06,717.48,606.08,717.46Z"/><path class="cls-4" d="M597.49,763.52c-.2,3.79-.42,7.6-.66,11.39a233.38,233.38,0,0,0-31.78,3.69,130.38,130.38,0,0,1,16-7.75C586.57,768.58,592.39,766.67,597.49,763.52Z"/><path class="cls-1" d="M596.66,864.54a340.71,340.71,0,0,1-.13,83.82A71.28,71.28,0,0,0,585,951.67q4.28-57,8-114.14c.32.76.61,1.54.88,2.32,1.61,4.67,2.41,9.74,4.59,14.12C596.78,856.73,596.24,861.12,596.66,864.54Z"/><path class="cls-6" d="M601.49,615.57C588,620.38,574.73,626,562,632c-8.5,4-17.17,8.3-26.53,9.16-4.05-16.34-7-32.86-7.21-49.66a158.88,158.88,0,0,1,42.9-110.27l.24-.49c.59.27,1.19.56,1.78.85C591.89,523.76,599.34,569.23,601.49,615.57Z"/><path class="cls-2" d="M594.19,1166.72q5.25,32.82,13.5,65.09c-36.43,10.84-74.29,17.9-112,23.89,14-22.82,24.5-47.58,29.83-74.06a244.83,244.83,0,0,0,4.25-57.13q9.81-10.73,18.8-22.17c10-3.38,19.81-7.14,29.34-11.38-.08.77-.17,1.53-.29,2.29-.56,3.64-1.57,7.28-1.13,10.94.47,4,2.66,7.65,4.52,11.29C589.13,1131.25,591.4,1149.23,594.19,1166.72Z"/><path class="cls-6" d="M596.83,774.91Q595,806.23,593,837.53a41,41,0,0,0-18.44-20.34c-3.4-1.81-7.14-3.18-10-5.79-1.79-1.62-3.18-3.72-5.27-5a14.87,14.87,0,0,0-4.74-1.66,86.63,86.63,0,0,0-19.93-2,129.84,129.84,0,0,1,22.17-19c2.67-1.82,5.45-3.55,8.26-5.18h0A233.38,233.38,0,0,1,596.83,774.91Z"/><path class="cls-4" d="M502.33,939.57a7.05,7.05,0,0,0-3.79-1.09,7.24,7.24,0,1,0,0,14.48,7.23,7.23,0,0,0,3.79-13.39Zm-45.4,14.09a43.82,43.82,0,0,0,6.81-10,119.53,119.53,0,0,0,9.65-25.41,127.61,127.61,0,0,0-17.08-100.84c-.9-1.35-1.87-2.71-2.9-4-3-3.76-6.64-7-11.24-8a10.08,10.08,0,0,0-5.19.5v0c3.28-1,6.69-1.88,10.16-2.61,12.09-2.57,24.94-3.25,36.4-.06,5.27,1.45,10.43,3.45,15.87,3.87,7.2.58,14.27-1.62,21.39-2.91a85.15,85.15,0,0,1,13.81-1.37,86.63,86.63,0,0,1,19.93,2,14.87,14.87,0,0,1,4.74,1.66c2.09,1.27,3.48,3.37,5.27,5,2.85,2.61,6.59,4,10,5.79A41,41,0,0,1,593,837.53q-3.68,57.09-8,114.14c-14.49,5.39-28.26,14.33-43.31,16.9a45.57,45.57,0,0,1-6.72.71c-9.49.31-18.61-2.35-27.79-5.06-.71-.2-1.41-.42-2.12-.64-4.54-1.34-9.07-2.64-13.7-3.56-12.7-2.52-28-.69-36.17,8.59a6.72,6.72,0,0,1-8.9,1.11c-7.13-4.91-11.91-10-17-18.4l2.91.29a36.19,36.19,0,0,0,2.81,4.14c4,4.73,11.6,4.88,17,1.83A21.83,21.83,0,0,0,456.93,953.66Zm109.68-6.17a7,7,0,0,0,.23-1.78,7.29,7.29,0,1,0-.23,1.78Z"/><path class="cls-1" d="M548.61,1102.34q-9.76,3.3-19.73,6.12C525,1060.79,512,1012.85,505.24,964.7l1.95-.48c9.18,2.71,18.3,5.37,27.79,5.06a45.57,45.57,0,0,0,6.72-.71l.42,2.27c5.54,13.35,5.5,28.31,9.37,42.23,7.39,26.72,29.2,50.67,26.46,77.89C568.42,1095.2,558.61,1099,548.61,1102.34Z"/><path class="cls-6" d="M113.09,467.22c.51-.15,1-.3,1.56-.42,3.08-.71,6.32-.83,9.36-1.71,3.32-1,6.3-2.81,9.27-4.55,20.49-12,42.85-20.37,65.1-28.65a5,5,0,0,0-.81,3,32.3,32.3,0,0,0,.07,3.81c.81,12.46,7.72,24.23,17.08,32.65,10,9,22.63,14.63,35.44,18.86l.58.19c4.56,1.49,9.14,2.82,13.77,4a219.75,219.75,0,0,0,99.41,2.29c2.56-.53,5.1-1.1,7.64-1.73,1.52-.37,3.06-.78,4.59-1.18,13.71-3.7,27.14-9,38.3-17.73a82.54,82.54,0,0,0,13-12.84c7.68-9.38,13.64-20.28,18.75-31.49.41-.88.81-1.76,1.2-2.65a6.54,6.54,0,0,0,.56-3.25c3.32,7.32,14.29,10.37,22.69,10.67,9.33.36,19.8-.49,26.79,5.71,3.06,2.72,5,6.52,8,9.33s7.13,4.62,11.08,6.25l19,7.89,23.92,9.94c4,1.66,8,3.33,11.94,5.16l-.24.49a158.88,158.88,0,0,0-42.9,110.27c.23,16.8,3.16,33.32,7.21,49.66h0c-8,.75-16.07-1.1-24-2.81a802.67,802.67,0,0,0-386.76,12.13c-7.2,2-14.63,4.2-22,3.15-.83-.12-1.66-.29-2.48-.48a101.64,101.64,0,0,0,0-16.46c-1.67-18-9.67-34.63-17.52-50.85Q76,572.26,69.41,558.63C60,539.26,50.56,519.75,38,502.22l-2.76-.38A54.54,54.54,0,0,1,55,491.49c9.76-2.71,20.32-2.56,29.52-6.76C94.7,480.08,102.44,470.42,113.09,467.22Z"/><path class="cls-7" d="M566.84,945.71a7,7,0,0,1-.23,1.78q-5.88,1.9-11.77,3.68a7.24,7.24,0,1,1,12-5.46Z"/><path class="cls-7" d="M566.61,947.49a7.23,7.23,0,0,1-11.77,3.68Q560.73,949.39,566.61,947.49Z"/><path class="cls-5" d="M554.33,781.9l2.44,1.88a129.84,129.84,0,0,0-22.17,19,85.15,85.15,0,0,0-13.81,1.37c-7.12,1.29-14.19,3.49-21.39,2.91-5.44-.42-10.6-2.42-15.87-3.87-11.46-3.19-24.31-2.51-36.4.06l0-.1.46-.91C482.81,792.54,518,782.45,554.33,781.9Z"/><path class="cls-4" d="M99.11,664.46c.42-3.76.81-7.52,1.06-11.28.82.19,1.65.36,2.48.48,7.4,1.05,14.83-1.11,22-3.15a802.67,802.67,0,0,1,386.76-12.13c7.91,1.71,15.93,3.56,24,2.81h0c2.93,11.84,6.43,23.56,9.94,35.21l.12.83c-2.42.32-4.86.64-7.28,1-3.76.52-7.62,1.12-10.94,3-3.93,2.2-6.69,6-9.48,9.46a146.16,146.16,0,0,1-38.2,33.63c-3.54,2.15-7.32,4.29-9.57,7.77-2,3.07-2.53,6.81-3.12,10.4a212.28,212.28,0,0,1-19.35,59.81c-14.41,4-28.82,7.86-43.35,11a437.91,437.91,0,0,1-49.87,7.86.39.39,0,0,1-.15,0c-13.11,1.15-26.28,1.69-39.72,1.69-17.29,0-35-.9-53.48-2.47l-.24,0a241.56,241.56,0,0,1-40-8.16c-12-3.59-23.64-8.33-35.53-12.24-1-.34-2-.66-3-1q-7.44-2.37-15-4.19c-6.62-6.67-13.49-12.95-22.08-16.34-6.55-2.59-13.73-3.3-20.38-5.62-13.43-25-27-51.27-27.69-79.65C96.8,683.58,98,674,99.11,664.46Z"/><path class="cls-8" d="M289.6,65c-8.85,3.37-17.29,8.24-25.5,13.1-.37.07-.73.16-1.08.24l-1.19-.42a99,99,0,0,1-2.84-33,.2.2,0,0,1,0-.07c.92-4.79,2-9.79,3.32-14.83C272,11.29,294,1.23,315.05.86s41.47,7.45,60.32,16.93c18.59,9.35,36.5,20.59,51,35.51,17.78,18.24,29.81,41.28,39.8,64.72,4.82,11.29,9.28,23,9.9,35.3.41,7.84-.78,15.73-.06,23.56,2.33,25.63,23.9,45,33.39,69,9.8,24.74,6.06,52.66.3,78.65-4.79,21.66-10.68,45.16-1.22,65.23,3.83,8.11,9.91,14.91,14.72,22.47a80.17,80.17,0,0,1,12.31,53.49l-19-7.89c-3.95-1.63-8-3.32-11.08-6.25s-5-6.61-8-9.33c-7-6.2-17.46-5.35-26.79-5.71-8.4-.3-19.37-3.35-22.69-10.67a6.34,6.34,0,0,0-.81-2.57,6.44,6.44,0,0,0-4.46-3.27,32.25,32.25,0,0,0-13.63.34c-2.62-2.25-5.25-4.77-7.94-7.59H421a44.09,44.09,0,0,0-.81-6.23h.07c-.5-2.1-2.17-3.75-3.76-5.24a4.71,4.71,0,0,0-2.34-1.45,5.15,5.15,0,0,0-2.85.54c1.8,1.47,2.56,3.81,2.95,6.13-10.41-11.77-16.76-24.27-18.74-36.91-1.49-9.47-2.85-19.46-1.9-29a113.93,113.93,0,0,1,3.22-17.05v0c.37-.44.74-.88,1.11-1.34a80.69,80.69,0,0,0,14.28-25.06,72.91,72.91,0,0,1-6-13.36c-10.24-31.26,3.93-66.34-5.16-98-1.9-6.62-4.91-13.08-9.79-17.94-5.6-5.58-13.19-8.6-19.79-13a57,57,0,0,1-25.1-45.6c-.17-8.82,1.71-17.86-.78-26.33A25.83,25.83,0,0,0,342,75.41C334.8,65,320.44,59.77,307.38,60.82A63.78,63.78,0,0,0,289.6,65Z"/><path class="cls-6" d="M528.88,1108.46q10-2.82,19.73-6.12-9,11.43-18.8,22.17C529.64,1119.16,529.32,1113.81,528.88,1108.46Z"/><path class="cls-6" d="M147.72,1123.31c94.5,22.16,196,17.15,293,3.06,29.31-4.25,59.3-9.72,88.14-17.91.44,5.35.76,10.7.93,16a244.83,244.83,0,0,1-4.25,57.13c-5.33,26.48-15.78,51.24-29.83,74.06q-7.22,1.17-14.4,2.26c-144,22.06-296.81,34.62-431.67-17.78,6-23.88,12-48,17.6-69.56,3-11.76,6.11-23.59,11.24-34.58,4.28-9.13,10.11-18.25,9.45-28.31a27.07,27.07,0,0,0-.31-2.71A466.17,466.17,0,0,0,147.72,1123.31Z"/><path class="cls-6" d="M507.19,964.22l-1.95.48c-.07-.38-.12-.75-.17-1.12C505.78,963.8,506.48,964,507.19,964.22Z"/><path class="cls-4" d="M147.72,1123.31A466.17,466.17,0,0,1,87.64,1105c-.49-3.17-1.35-6.3-1.49-9.5-.35-8.47,4.27-16.22,8.35-23.66,16.61-30.32,26-61.41,27.35-95.8q39.1,7.11,78.74,10.77c6.58,2.55,13.51,5.45,20.42,4.06a11.07,11.07,0,0,0,4.35-2.1A931.37,931.37,0,0,0,505.24,964.7c6.79,48.15,19.78,96.09,23.64,143.76-28.84,8.19-58.83,13.66-88.14,17.91C343.72,1140.46,242.22,1145.47,147.72,1123.31Z"/><path class="cls-6" d="M505.07,963.58c.05.37.1.74.17,1.12a931.37,931.37,0,0,1-279.88,24.09c5.16-3.89,9-12,6.06-16.78a1152.92,1152.92,0,0,0,136.24-28l.17-.94q30.53,5.18,61.47,8.26c5.09,8.4,9.87,13.49,17,18.4a6.72,6.72,0,0,0,8.9-1.11c8.15-9.28,23.47-11.11,36.17-8.59C496,960.94,500.53,962.24,505.07,963.58Z"/><path class="cls-7" d="M502.33,939.57A7.22,7.22,0,0,1,503.48,951Q502.82,945.29,502.33,939.57Z"/><path class="cls-7" d="M502.33,939.57q.48,5.71,1.15,11.43a7.16,7.16,0,0,1-4.94,2,7.24,7.24,0,1,1,0-14.48A7.05,7.05,0,0,1,502.33,939.57Z"/><path class="cls-4" d="M481.33,1258q7.19-1.1,14.4-2.26a293.2,293.2,0,0,1-29.84,40.07H35.59c4.49-17.34,9.26-36.38,14.07-55.59C184.52,1292.58,337.32,1280,481.33,1258Z"/><path class="cls-5" d="M232.18,894.22c-.05-.32-.1-.63-.17-.93-1.84-10.43-6.09-16.56-8.95-26.38-1.29-4.4-1-10.89-1.61-15.44-.55-4.14-.49-8.32-.71-12.48a107.52,107.52,0,0,0-2.27-18h0c31.85,1.37,63.94,2.71,96,2.84,37.89.21,75.72-1.27,113-6.33,8.67-1.17,17.29-2.52,25.89-4.11,1,1.28,2,2.64,2.9,4A127.61,127.61,0,0,1,473.39,918.2a119.53,119.53,0,0,1-9.65,25.41,43.82,43.82,0,0,1-6.81,10q-12.42-.87-24.72-2l-2.91-.29q-31-3.08-61.47-8.26a942.55,942.55,0,0,1-92.3-20.53c-16.83-4.62-31.51-9.56-48.8-10.77a20.79,20.79,0,0,0,5.69-14.36A22.14,22.14,0,0,0,232.18,894.22Z"/><path class="cls-1" d="M456.93,953.66a21.83,21.83,0,0,1-4.94,3.92c-5.37,3-13,2.9-17-1.83a36.19,36.19,0,0,1-2.81-4.14Q444.53,952.8,456.93,953.66Z"/><path class="cls-1" d="M442.17,805.42c4.6,1,8.24,4.19,11.24,8-8.6,1.59-17.22,2.94-25.89,4.11-.71-2.86,1.08-6,3.84-8.35a17.36,17.36,0,0,1,5.62-3.21A10.08,10.08,0,0,1,442.17,805.42Z"/><path class="cls-2" d="M447.94,425.82a6.54,6.54,0,0,1-.56,3.25c-.39.89-.79,1.77-1.2,2.65A74.68,74.68,0,0,1,429,420.32a32.25,32.25,0,0,1,13.63-.34,6.44,6.44,0,0,1,4.46,3.27A10.71,10.71,0,0,0,447.94,425.82Z"/><path class="cls-4" d="M437,805.88v0a17.36,17.36,0,0,0-5.62,3.21l-2.06-1.84a400.48,400.48,0,0,1-74.95,13.83,437.91,437.91,0,0,0,49.87-7.86c14.53-3.14,28.94-7,43.35-11l-.46.91,0,.1C443.66,804,440.25,804.88,437,805.88Z"/><path class="cls-9" d="M447.13,423.25a6.34,6.34,0,0,1,.81,2.57A10.71,10.71,0,0,1,447.13,423.25Z"/><path class="cls-3" d="M411.42,448.23c1-1.7,1.88-3.41,2.74-5.17,4.61-9.4,7.48-19.95,6.84-30.33h.1c2.69,2.82,5.32,5.34,7.94,7.59a74.68,74.68,0,0,0,17.14,11.4c-5.11,11.21-11.07,22.11-18.75,31.49-4.35-2.74-9.12-5.08-13.37-7.89a57.53,57.53,0,0,1-4.78-3.56c.73-1.16,1.44-2.33,2.12-3.53Z"/><path class="cls-6" d="M429.3,807.29l2.06,1.84c-2.76,2.37-4.55,5.49-3.84,8.35-37.32,5.06-75.15,6.54-113,6.33v-.55q19.88-.16,39.72-2.12a.39.39,0,0,0,.15,0A400.48,400.48,0,0,0,429.3,807.29Z"/><path class="cls-10" d="M414.26,406.5h0v0c-.39-2.32-1.15-4.66-2.95-6.13a5.15,5.15,0,0,1,2.85-.54,4.71,4.71,0,0,1,2.34,1.45c1.59,1.49,3.26,3.14,3.76,5.24h-.07a44.09,44.09,0,0,1,.81,6.23c.64,10.38-2.23,20.93-6.84,30.33-.86,1.76-1.78,3.47-2.74,5.17h0c-.68,1.2-1.39,2.37-2.12,3.53a59.26,59.26,0,0,1-5.06-4.7A87.93,87.93,0,0,0,409.88,436c3.77-9,5.8-18.88,4.53-28.55A7.81,7.81,0,0,0,414.26,406.5Z"/><path class="cls-5" d="M427.43,463.21a82.54,82.54,0,0,1-13,12.84c-11.16,8.73-24.59,14-38.3,17.73,5.55-6.93,11.1-12.79,16.66-19.71,5.79-7.2,11.6-14.48,16.47-22.31a57.53,57.53,0,0,0,4.78,3.56C418.31,458.13,423.08,460.47,427.43,463.21Z"/><path class="cls-3" d="M414.41,407.45c1.27,9.67-.76,19.56-4.53,28.55a87.93,87.93,0,0,1-5.66,11.06c-11.11-11.4-18.39-26.69-26.64-40.61-10.44-17.66-25.75-35.42-46.24-36.84l-.12-.63c1.39-.22,2.76-.51,4.13-.86,10-2.65,18.71-8.81,27.11-14.9,12.67-9.2,24.79-18.46,34.38-29.7a113.93,113.93,0,0,0-3.22,17.05c-.95,9.53.41,19.52,1.9,29,2,12.64,8.33,25.14,18.74,36.91v0h0A7.81,7.81,0,0,1,414.41,407.45Z"/><path class="cls-3" d="M406.25,283.74a72.91,72.91,0,0,0,6,13.36A80.69,80.69,0,0,1,398,322.16a109,109,0,0,1-10.49-24.76c-5.61-20.31-4-41.82-5.13-62.87s-5.88-43.4-21.05-58c-8.54-8.23-20.17-13.82-25.57-24.39-4.54-8.87-3.71-19.38-4.79-29.29C328.7,102.74,317.44,84,301.25,72A115.18,115.18,0,0,1,342,75.41a25.83,25.83,0,0,1,3.64,7.52c2.49,8.47.61,17.51.78,26.33a57,57,0,0,0,25.1,45.6c6.6,4.37,14.19,7.39,19.79,13,4.88,4.86,7.89,11.32,9.79,17.94C410.18,217.4,396,252.48,406.25,283.74Z"/><path class="cls-7" d="M404.22,447.06a59.26,59.26,0,0,0,5.06,4.7c-4.87,7.83-10.68,15.11-16.47,22.31-5.56,6.92-11.11,12.78-16.66,19.71-1.53.4-3.07.81-4.59,1.18-2.54.63-5.08,1.2-7.64,1.73A317.21,317.21,0,0,0,394.79,461c3-4.1,6-8.28,8.65-12.62C403.71,447.92,404,447.48,404.22,447.06Z"/><path class="cls-5" d="M242.54,453.1c-3.38-9.63-6.28-19.64-9.21-29.65a24,24,0,0,1-1.23-6.5c2.55-3.89,3.33-6.32,5.33-10.53,11.35-24,16.9-51.55,10.62-77.3l.34-.34a145.19,145.19,0,0,0,18.76,15.88c10.11,7.25,20.32,14.57,31.78,19.43,10.14,4.31,21.47,6.62,32.29,4.89l.12.63c20.49,1.42,35.8,19.18,46.24,36.84,8.25,13.92,15.53,29.21,26.64,40.61-.25.42-.51.86-.78,1.28-2.66,4.34-5.6,8.52-8.65,12.62a317.21,317.21,0,0,1-30.87,35.73,219.75,219.75,0,0,1-99.41-2.29C254.55,482.77,247.93,468.44,242.54,453.1Z"/><path class="cls-5" d="M263,78.36l.4.15.68-.39a294.46,294.46,0,0,1,32.55-5.63c1.54-.19,3.08-.34,4.6-.48,16.19,12,27.45,30.73,29.67,50.8,1.08,9.91.25,20.42,4.79,29.29,5.4,10.57,17,16.16,25.57,24.39,15.17,14.64,19.89,37,21.05,58s-.48,42.56,5.13,62.87A109,109,0,0,0,398,322.16c-.37.46-.74.9-1.11,1.34v0c-9.59,11.24-21.71,20.5-34.38,29.7-8.4,6.09-17.06,12.25-27.11,14.9-1.37.35-2.74.64-4.13.86-10.82,1.73-22.15-.58-32.29-4.89-11.46-4.86-21.67-12.18-31.78-19.43a145.19,145.19,0,0,1-18.76-15.88c-9.1-9.16-16.8-19.71-21.14-31.26-5.35-14.19-9.56-35.08-10.7-50.22-1.4-18.74-2.13-28.53-2.62-47.34-.43-15.67,2.3-31.23,5.35-46.59,5.27-26.55,13.09-55.32,35.24-70.86A268.15,268.15,0,0,1,259,44.92a99,99,0,0,0,2.84,33Z"/><path class="cls-3" d="M231.39,972v0c-7,1-14,2-20.92,2.81-3.23-3.52-6.4-7.09-8.34-11.43-2.56-5.67-2.76-12.09-2.61-18.3.18-7.74-.07-21.08,2.69-28.31l.2-.5a20.9,20.9,0,0,0,24.3-4.52h0c17.29,1.21,32,6.15,48.8,10.77a942.55,942.55,0,0,0,92.3,20.53l-.17.94a1152.92,1152.92,0,0,1-136.24,28Z"/><path class="cls-4" d="M314.48,822.83c13.44,0,26.61-.54,39.72-1.69q-19.81,2-39.72,2.12Z"/><path class="cls-6" d="M202.94,817.19c-1.42.51-3.35.85-4.73,1.36v0c-12.58-3.91-21.52-14.26-31-23.81q7.58,1.83,15,4.19c1,.32,2,.64,3,1,14.18,13.27,48.87,17.88,67.85,19.69,2.59.26,5.17.48,7.72.71l.24,0q9.35,1.14,18.73,1.79,17.34,1.25,34.75,1.11v.55c-32.06-.13-64.15-1.47-96-2.84h0c-.12-.59-.27-1.19-.43-1.76a9.82,9.82,0,0,0-1.71-1.31c-3.91-2.32-8.72-1.74-13.26-.74v0Z"/><path class="cls-4" d="M314.48,822.83v.43q-17.4.15-34.75-1.11-9.37-.66-18.73-1.79C279.48,821.93,297.19,822.83,314.48,822.83Z"/><path class="cls-11" d="M342,75.41A115.18,115.18,0,0,0,301.25,72a70,70,0,0,0-11.65-7,63.78,63.78,0,0,1,17.78-4.2C320.44,59.77,334.8,65,342,75.41Z"/><path class="cls-11" d="M301.25,72c-1.52.14-3.06.29-4.6.48a294.46,294.46,0,0,0-32.55,5.63c8.21-4.86,16.65-9.73,25.5-13.1A70,70,0,0,1,301.25,72Z"/><path class="cls-8" d="M233.08,412.68a9.36,9.36,0,0,0-7.23,6.9,18.32,18.32,0,0,0-.22,5.13,5.41,5.41,0,0,0,.12.55,22.39,22.39,0,0,1-2.86,3,35,35,0,0,1-5.59,4.33l-.09-.15a31.2,31.2,0,0,0-15.63-1.91,5,5,0,0,0-3.15,1.32l-.05.07c-22.25,8.28-44.61,16.67-65.1,28.65-3,1.74-6,3.59-9.27,4.55-3,.88-6.28,1-9.36,1.71-.52.12-1.05.27-1.56.42-7.57-23.53,3.41-49.08,15.29-71,12.16-22.38,26-46.29,22.64-71.52-1.35-10.2-5.45-19.78-7.87-29.77a91.24,91.24,0,0,1,2.1-49.87c5.81-17.51,16.91-33.15,20.72-51.2,5-23.57-3.06-48.23.53-72,4.23-28,23.72-50.89,42.4-72.14,6.55-7.45,13.29-15,22-19.74s20-6,28.31-.64l3.1.71A58.81,58.81,0,0,0,259,44.85a.2.2,0,0,0,0,.07,268.15,268.15,0,0,0-4.47,37.59c-22.15,15.54-30,44.31-35.24,70.86-3.05,15.36-5.78,30.92-5.35,46.59.49,18.81,1.22,28.6,2.62,47.34,1.14,15.14,5.35,36,10.7,50.22,4.34,11.55,12,22.1,21.14,31.26l-.34.34c6.28,25.75.73,53.32-10.62,77.3-2,4.21-2.78,6.64-5.33,10.53A8.19,8.19,0,0,1,233.08,412.68Z"/><path class="cls-6" d="M260.76,820.34c-2.55-.23-5.13-.45-7.72-.71-19-1.81-53.67-6.42-67.85-19.69,11.89,3.91,23.52,8.65,35.53,12.24A241.56,241.56,0,0,0,260.76,820.34Z"/><path class="cls-7" d="M225.75,425.26a5.41,5.41,0,0,1-.12-.55,18.32,18.32,0,0,1,.22-5.13,9.36,9.36,0,0,1,7.23-6.9,8.19,8.19,0,0,0-1,4.27,24,24,0,0,0,1.23,6.5c2.93,10,5.83,20,9.21,29.65,5.39,15.34,12,29.67,22,41.3-4.63-1.17-9.21-2.5-13.77-4A224,224,0,0,1,234,454.61,202.56,202.56,0,0,1,225.75,425.26Z"/><path class="cls-5" d="M234,454.61a224,224,0,0,0,16.76,35.8l-.58-.19c-12.81-4.23-25.41-9.86-35.44-18.86-9.36-8.42-16.27-20.19-17.08-32.65a38.77,38.77,0,0,0,19.66-6.15,35,35,0,0,0,5.59-4.33,22.39,22.39,0,0,0,2.86-3A202.56,202.56,0,0,0,234,454.61Z"/><path class="cls-7" d="M232.18,894.22a22.14,22.14,0,0,1,.24,3.18,20.79,20.79,0,0,1-5.69,14.36h0a20.9,20.9,0,0,1-24.3,4.52,20.4,20.4,0,0,1-4.53-3,20.9,20.9,0,0,1-5.1-25.26c.93-1.42,1.9-2.84,2.86-4.3A20.93,20.93,0,0,1,232,893.29C232.08,893.59,232.13,893.9,232.18,894.22Zm-7.89,3.18a12.8,12.8,0,1,0-12.8,12.82A12.8,12.8,0,0,0,224.29,897.4Z"/><path class="cls-4" d="M121.93,973.5c-3.49.12-7,.32-10.45.63q-5.48.48-10.93,1.27c-11.06,1.61-22.42,4.13-33.21,1.28-4.08-1.06-8.16-3.06-10.43-6.62a14.2,14.2,0,0,1-1.25-2.57,120.1,120.1,0,0,1,5.87-34l43.72-2.84c17.09-1.12,34.26-2.23,50.94-6.11,14.88-3.47,26.7-8.6,41.69-11.25a20.4,20.4,0,0,0,4.53,3l-.2.5c-2.76,7.23-2.51,20.57-2.69,28.31-.15,6.21,0,12.63,2.61,18.3,1.94,4.34,5.11,7.91,8.34,11.43,1.85,2,3.71,4,5.41,6.11a6.13,6.13,0,0,0,8.9.75c3.34-3,6.59-6.74,6.61-9.67h0c2.91,4.81-.9,12.89-6.06,16.78q-12.41-.78-24.77-2l-.31-.12A197.42,197.42,0,0,0,121.93,973.5Zm46.86-13.87a7.24,7.24,0,1,0-7.24,7.25A7.24,7.24,0,0,0,168.79,959.63Zm-72-.32a7.24,7.24,0,1,0-7.23,7.25A7.24,7.24,0,0,0,96.77,959.31Z"/><path class="cls-1" d="M231.39,972c0,2.93-3.27,6.64-6.61,9.67a6.13,6.13,0,0,1-8.9-.75c-1.7-2.11-3.56-4.11-5.41-6.11C217.43,974,224.41,973,231.39,972Z"/><path class="cls-7" d="M203.9,819.89a26.76,26.76,0,0,0-.83-2.73c4.54-1,9.35-1.58,13.26.74a9.82,9.82,0,0,1,1.71,1.31c.16.57.31,1.17.43,1.76a107.52,107.52,0,0,1,2.27,18c.22,4.16.16,8.34.71,12.48.59,4.55.32,11,1.61,15.44,2.86,9.82,7.11,16,8.95,26.38a20.93,20.93,0,0,0-36.37-9.55c6.32-9.5,12.75-20,11.21-35.27-.46-4.49-.46-9-.95-13.5C205.33,829.86,205.17,824.8,203.9,819.89Z"/><path class="cls-6" d="M225.36,988.79a11.07,11.07,0,0,1-4.35,2.1c-6.91,1.39-13.84-1.51-20.42-4.06Q213,988,225.36,988.79Z"/><path class="cls-12" d="M211.49,884.6a12.81,12.81,0,1,1-12.8,12.8A12.8,12.8,0,0,1,211.49,884.6Z"/><path class="cls-2" d="M198.38,431.89l.05-.07a5,5,0,0,1,3.15-1.32,31.2,31.2,0,0,1,15.63,1.91l.09.15a38.77,38.77,0,0,1-19.66,6.15,32.3,32.3,0,0,1-.07-3.81A5,5,0,0,1,198.38,431.89Z"/><path class="cls-5" d="M27.9,848.91l-13.71,1.66a20.1,20.1,0,0,1-4.17.18C1.17,849.91-1.76,837,3.35,829.67c3.51-5,9-7.92,14.87-10,2.67-.95,5.42-1.73,8.11-2.46l69.83-19.1a43.36,43.36,0,0,0-4.59-8.87q2.31-.21,4.62-.36a234.17,234.17,0,0,1,71,5.89c9.49,9.55,18.43,19.9,31,23.81a34.85,34.85,0,0,0,5.7,1.31c1.27,4.91,1.43,10,2,15.08.49,4.49.49,9,.95,13.5,1.54,15.31-4.89,25.77-11.21,35.27a19.75,19.75,0,0,0-2.86,4.3,20.9,20.9,0,0,0,5.1,25.26c-15,2.65-26.81,7.78-41.69,11.25-16.68,3.88-33.85,5-50.94,6.11L61.53,933.5l-1.47.11c-4.32.28-9.06.39-13.24-.6a14.91,14.91,0,0,1-8.6-5.11c-4.71-6-1.8-16.27,5.36-18.9l.07-.32c-1.08-.24-2.17-.46-3.25-.69-6.23-1.32-12.83-2.83-17.39-7.28s-6.89-12.94.51-18.66a16.34,16.34,0,0,1-5.81-.44A14.41,14.41,0,0,1,7.52,870.4c-.92-5.34,1.44-10.93,5.4-14.62A27.34,27.34,0,0,1,27.9,848.91Z"/><path class="cls-6" d="M203.07,817.16a26.76,26.76,0,0,1,.83,2.73,34.85,34.85,0,0,1-5.7-1.31v0c1.38-.51,3.31-.85,4.73-1.36A.61.61,0,0,1,203.07,817.16Z"/><path class="cls-6" d="M200.28,986.71l.31.12q-39.59-3.66-78.74-10.77c0-.85.07-1.71.08-2.56A197.42,197.42,0,0,1,200.28,986.71Z"/><path class="cls-7" d="M161.55,952.4a7.24,7.24,0,1,1-7.24,7.23A7.24,7.24,0,0,1,161.55,952.4Z"/><path class="cls-5" d="M124.73,772.81c6.65,2.32,13.83,3,20.38,5.62,8.59,3.39,15.46,9.67,22.08,16.34a234.17,234.17,0,0,0-71-5.89,346.11,346.11,0,0,1-4.09-44.06c9.34,10.6,17.91,22.15,30.83,27.33Q123.82,772.51,124.73,772.81Z"/><path class="cls-1" d="M124.73,772.81q-.92-.3-1.8-.66C110,767,101.44,755.42,92.1,744.82a347.47,347.47,0,0,1,7-80.36C98,674,96.8,683.58,97,693.16,97.73,721.54,111.3,747.77,124.73,772.81Z"/><path class="cls-6" d="M100.12,636.72a101.64,101.64,0,0,1,0,16.46c-5.8-1.37-11.12-4.45-16.47-7.18a159.43,159.43,0,0,0-81-16.93q.21-13.26.39-26.5c.34-22,.73-44.43,8-65.21,4.76-13.63,13-26.57,24.15-35.52l2.76.38c12.53,17.53,22,37,31.38,56.41Q76,572.27,82.6,585.87C90.45,602.09,98.45,618.77,100.12,636.72Z"/><path class="cls-4" d="M100.17,653.18c-.25,3.76-.64,7.52-1.06,11.28a347.47,347.47,0,0,0-7,80.36,117.93,117.93,0,0,0-8.62-9c-2.81-2.57-6.64-5.08-10.16-3.64a8.58,8.58,0,0,0-4.2,4.51c-5.1,10.56,0,23.26,7,32.7,5,6.72,11,12.85,15.48,19.81A234,234,0,0,0,12.8,810.35c-4.57-8.26-5.28-18.79-4.67-28.46.78-12.53,3.16-25.4-.48-37.42-1.18-3.88-3-7.57-4.13-11.47-2.2-7.38-2.1-15.2-2-22.91q.59-40.49,1.2-81A159.43,159.43,0,0,1,83.7,646C89.05,648.73,94.37,651.81,100.17,653.18Z"/><path class="cls-5" d="M96.19,788.88q-2.31.15-4.62.36c-4.5-7-10.51-13.09-15.48-19.81-7-9.44-12.07-22.14-7-32.7a8.58,8.58,0,0,1,4.2-4.51c3.52-1.44,7.35,1.07,10.16,3.64a117.93,117.93,0,0,1,8.62,9A346.11,346.11,0,0,0,96.19,788.88Z"/><path class="cls-6" d="M96.16,798.11l-69.83,19.1c-2.69.73-5.44,1.51-8.11,2.46L17.88,817a26.19,26.19,0,0,1-5.08-6.64,234,234,0,0,1,78.77-21.11A43.36,43.36,0,0,1,96.16,798.11Z"/><path class="cls-7" d="M89.54,952.06a7.25,7.25,0,1,1-7.25,7.25A7.24,7.24,0,0,1,89.54,952.06Z"/><path class="cls-6" d="M60.06,933.61l1.47-.11a120.1,120.1,0,0,0-5.87,34,36.68,36.68,0,0,1-1.26-4.23Q50.62,948.11,46.82,933C51,934,55.74,933.89,60.06,933.61Z"/><path class="cls-13" d="M259.84,45l-1.67-.32c1-5.36,2.11-10.23,3.33-14.89l1.64.43C261.93,34.85,260.85,39.69,259.84,45Z"/><path class="cls-13" d="M323.8,370.4a64.89,64.89,0,0,1-25.2-5.53c-11.56-4.91-21.93-12.33-32-19.52a146.69,146.69,0,0,1-18.87-16c-10.11-10.19-17.28-20.81-21.32-31.56-5.12-13.59-9.54-34.33-10.75-50.46-1.38-18.33-2.13-28.42-2.63-47.38-.43-16,2.42-31.89,5.37-46.77,5.53-27.86,13.62-55.75,35.24-71.15a276.33,276.33,0,0,1,4.46-37.3l1.67.32a271.38,271.38,0,0,0-4.46,37.46V83l-.35.24c-21.38,15-29.4,42.68-34.89,70.34-2.93,14.79-5.76,30.55-5.33,46.39.49,18.92,1.24,29,2.62,47.31,1.19,16,5.57,36.53,10.65,50,3.95,10.53,11,20.95,20.94,31A144.16,144.16,0,0,0,267.64,344c9.95,7.13,20.23,14.5,31.62,19.33,11.09,4.72,22.09,6.39,31.83,4.83,1.34-.21,2.7-.49,4.05-.84,10.17-2.68,19-9.1,26.83-14.77,12-8.7,24.49-18.14,34.22-29.56l1.29,1.09C387.62,335.63,375,345.14,363,353.9c-7.93,5.76-16.92,12.28-27.39,15-1.4.36-2.82.66-4.21.88A48.12,48.12,0,0,1,323.8,370.4Z"/><path class="cls-13" d="M397.48,324,396.19,323l1.11-1.32a79.93,79.93,0,0,0,14.13-24.81l1.6.56a81.34,81.34,0,0,1-14.42,25.32C398.23,323.16,397.86,323.6,397.48,324Z"/><path class="cls-13" d="M112.82,469.07c-.19-.54-.36-1.05-.53-1.59-7.72-24,3.43-49.68,15.35-71.64l1.63-3c11.83-21.72,24.06-44.18,20.91-68-.83-6.24-2.74-12.39-4.59-18.34-1.15-3.69-2.34-7.51-3.26-11.34a92.69,92.69,0,0,1,2.12-50.33,183.07,183.07,0,0,1,9.3-21.64c4.53-9.42,9.22-19.16,11.4-29.48,2.61-12.33,1.59-25.24.61-37.73-.89-11.28-1.81-22.93-.1-34.27,4.4-29.1,25.58-53.2,42.6-72.57,6.22-7.06,13.27-15.08,22.25-19.93,9.87-5.33,21.25-5.6,29-.69l2.33.54C271.14,11.79,291.92.42,315,0c23-.4,44.53,8.89,60.71,17,22.08,11.1,38.37,22.44,51.24,35.67,19.32,19.81,31.51,45.13,40,65,4.48,10.49,9.31,22.75,10,35.59.19,3.62,0,7.28-.11,10.83a97.71,97.71,0,0,0,0,12.69c1.4,15.37,9.66,28.22,18.4,41.84,5.5,8.55,11.18,17.4,14.93,26.88,10.11,25.49,5.85,54.31.35,79.14l-.66,2.95c-4.69,21.06-9.54,42.84-.62,61.73,2.41,5.11,5.8,9.81,9.09,14.35,1.88,2.59,3.82,5.28,5.57,8a80.83,80.83,0,0,1,12.44,54l-1.68-.21a79.18,79.18,0,0,0-12.19-52.93c-1.72-2.71-3.65-5.37-5.51-7.95-3.33-4.6-6.78-9.36-9.25-14.61-9.16-19.43-4.25-41.49.5-62.83l.66-2.94c5.44-24.58,9.67-53.09-.27-78.16-3.69-9.32-9.33-18.1-14.78-26.59-8.47-13.18-17.23-26.82-18.67-42.6a99.36,99.36,0,0,1,0-12.91c.14-3.51.29-7.13.11-10.67-.64-12.56-5.42-24.66-9.84-35-8.4-19.71-20.5-44.84-39.62-64.46C413,40.8,396.9,29.57,375,18.55c-16-8-37.25-17.27-59.92-16.84s-43.17,11.66-52,28.7l-.3.58-4-1c-7.29-4.67-18.06-4.4-27.46.67-8.71,4.71-15.65,12.6-21.78,19.56-16.87,19.2-37.87,43.09-42.19,71.7-1.68,11.15-.77,22.71.11,33.88,1,12.61,2,25.65-.65,38.22-2.22,10.52-7,20.35-11.53,29.86a184.79,184.79,0,0,0-9.22,21.44,91.06,91.06,0,0,0-2.08,49.4c.92,3.78,2.1,7.57,3.24,11.24,1.87,6,3.8,12.23,4.65,18.62,3.23,24.38-9.14,47.09-21.11,69.05l-1.62,3c-11.75,21.64-22.75,46.92-15.23,70.32.17.51.33,1,.52,1.53Z"/><path class="cls-13" d="M444,335.27c-11.31-10.79-24.13-23-32.5-37.75a74.89,74.89,0,0,1-6-13.52c-5.3-16.15-4.12-33.54-3-50.36,1.08-15.9,2.2-32.34-2.2-47.64-2.13-7.45-5.35-13.36-9.57-17.57-3.61-3.6-8.2-6.18-12.63-8.68-2.34-1.31-4.76-2.67-7-4.18a57.63,57.63,0,0,1-25.48-46.29c-.05-2.85.11-5.75.26-8.56.32-5.86.65-11.93-1-17.55a25.21,25.21,0,0,0-3.52-7.27c-6.67-9.61-20.25-15.33-33.85-14.24a62.91,62.91,0,0,0-17.55,4.15c-8.61,3.27-16.91,8-25.37,13l-.67.39-.35.21-2.37-.86-.12-.42c0-.16-4.58-16.19-2.88-33.34l0-.18a59.52,59.52,0,0,1,3.36-14.93l1.58.6a58.3,58.3,0,0,0-3.26,14.61l0,.19a99.75,99.75,0,0,0,2.72,32.17l.81.29.36-.2c8.49-5,16.87-9.83,25.6-13.15a64.86,64.86,0,0,1,18-4.26c14.17-1.14,28.37,4.88,35.37,15a26.9,26.9,0,0,1,3.75,7.76c1.74,5.91,1.4,12.12,1.07,18.12-.15,2.78-.31,5.65-.25,8.44A55.89,55.89,0,0,0,372,154.16c2.23,1.47,4.62,2.82,6.93,4.12,4.53,2.55,9.22,5.19,13,8.95,4.42,4.41,7.79,10.57,10,18.3,4.48,15.58,3.35,32.18,2.26,48.23-1.13,16.65-2.3,33.87,2.9,49.72a71.76,71.76,0,0,0,5.91,13.2c8.24,14.51,21,26.65,32.19,37.36Z"/><path class="cls-13" d="M262.24,79.41l-.35-1.66.46-.1.49-.12c.35-.08.72-.17,1.11-.24a298.41,298.41,0,0,1,32.6-5.65c1.38-.16,2.85-.31,4.63-.47a115.44,115.44,0,0,1,41,3.43c.28.06.62.15.94.24l-.45,1.63-.89-.23a114.34,114.34,0,0,0-40.49-3.39c-1.75.16-3.21.31-4.57.48A292.36,292.36,0,0,0,264.29,79c-.39.07-.74.15-1.08.23l-.47.11Z"/><path class="cls-13" d="M197.54,439.56v-1.7h.1a38.21,38.21,0,0,0,19.21-6,33.89,33.89,0,0,0,5.45-4.23c.37-.36.66-.63.91-.86a15.43,15.43,0,0,0,1.88-2c.08-.1.15-.18.22-.28l1.38,1c-.09.13-.19.24-.28.35a16.46,16.46,0,0,1-2,2.21l-.89.84a35.23,35.23,0,0,1-5.72,4.44,39.51,39.51,0,0,1-20.11,6.28Z"/><path class="cls-13" d="M232.81,417.42l-1.42-.93a45.72,45.72,0,0,0,3.85-7.32c.43-.95.88-2,1.43-3.11,12.45-26.33,16.2-53.58,10.56-76.74l1.64-.4c5.74,23.53,1.95,51.18-10.67,77.86-.54,1.14-1,2.14-1.41,3.08A48,48,0,0,1,232.81,417.42Z"/><path class="cls-13" d="M446.2,432.56H446l-.18-.08A74.86,74.86,0,0,1,428.49,421a110.25,110.25,0,0,1-8-7.64l1.22-1.17c2.78,2.9,5.36,5.36,7.89,7.53A73.14,73.14,0,0,0,446.54,431l-.35.75Z"/><polygon class="cls-13" points="414.28 407.35 414.26 405.66 414.28 405.66 414.28 407.35"/><path class="cls-13" d="M413.63,407c-10.56-11.93-16.94-24.5-18.95-37.34-1.49-9.47-2.87-19.53-1.9-29.21A113.6,113.6,0,0,1,396,323.26l.78.25h.87l0,.27a112.24,112.24,0,0,0-3.19,16.88c-.94,9.48.42,19.41,1.89,28.77,2,12.53,8.2,24.8,18.55,36.49Z"/><path class="cls-13" d="M319.17,502.12a220.39,220.39,0,0,1-54.87-6.9c-4.55-1.15-9.2-2.5-13.82-4l-.28-.09-.32-.11c-15.68-5.17-27-11.22-35.72-19-10.26-9.22-16.59-21.33-17.37-33.23a33.28,33.28,0,0,1-.06-3.89,5.77,5.77,0,0,1,1-3.51l.11-.13a5.65,5.65,0,0,1,3.63-1.57,32,32,0,0,1,16.07,2l-.63,1.58a30.07,30.07,0,0,0-15.2-1.86,4.33,4.33,0,0,0-2.63,1l-.06.09a4.44,4.44,0,0,0-.59,2.47,32.42,32.42,0,0,0,.06,3.71c.75,11.47,6.88,23.16,16.81,32.09,8.5,7.64,19.67,13.58,35.14,18.69l.27.08.33.11c4.56,1.49,9.17,2.83,13.68,4a220,220,0,0,0,99,2.28c2.5-.52,5.06-1.09,7.6-1.72,1.52-.37,3.06-.78,4.58-1.18,15.94-4.29,28.37-10,38-17.58a81.45,81.45,0,0,0,12.85-12.7c6.71-8.21,12.63-18.16,18.63-31.32.41-.87.81-1.75,1.2-2.63a6,6,0,0,0,.49-2.84,5.51,5.51,0,0,0-.71-2.22,5.63,5.63,0,0,0-3.88-2.86,31.45,31.45,0,0,0-13.28.34l-.11,0-.23.05-.27-1.67.29-.06a32.79,32.79,0,0,1,13.92-.34,7.28,7.28,0,0,1,5,3.7,7,7,0,0,1,.91,2.9,7.48,7.48,0,0,1-.63,3.67c-.39.88-.79,1.77-1.2,2.65-6.06,13.29-12.06,23.36-18.86,31.68a82.25,82.25,0,0,1-13.12,13c-9.81,7.68-22.44,13.53-38.61,17.88-1.53.41-3.07.82-4.6,1.19-2.56.63-5.14,1.22-7.67,1.74A220.7,220.7,0,0,1,319.17,502.12Z"/><path class="cls-13" d="M17.3,817.61a27.21,27.21,0,0,1-5.24-6.85c-4-7.21-5.55-16.67-4.78-28.93.17-2.63.4-5.32.63-7.93.87-9.75,1.76-19.84-1.07-29.19-.57-1.87-1.3-3.75-2-5.56s-1.52-3.89-2.12-5.9c-2.26-7.57-2.14-15.5-2-23.17q.59-40.49,1.21-81,.09-6.63.19-13.26t.19-13.24c.34-21.85.69-44.44,8-65.48,5.09-14.57,13.76-27.32,24.42-35.9a55.33,55.33,0,0,1,20-10.51,107.05,107.05,0,0,1,11.91-2.34c5.91-.92,12-1.88,17.47-4.37,4.45-2,8.51-5.08,12.44-8,5-3.78,10.21-7.69,16.29-9.52.53-.15,1.07-.31,1.61-.43,1.39-.32,2.8-.53,4.18-.72a38.83,38.83,0,0,0,5.14-1,37.62,37.62,0,0,0,8.37-4.06l.7-.41c20.9-12.22,44.45-21,65.24-28.72l1.08-.4.6,1.58-1.09.41c-20.72,7.71-44.2,16.45-65,28.59l-.68.4a39,39,0,0,1-8.77,4.23,37.63,37.63,0,0,1-5.37,1c-1.34.19-2.72.39-4,.7-.51.11-1,.26-1.5.41-5.79,1.74-10.64,5.38-15.76,9.24-4,3-8.14,6.12-12.75,8.22-5.67,2.59-11.89,3.56-17.92,4.51a104.14,104.14,0,0,0-11.72,2.3A53.68,53.68,0,0,0,35.8,502.49c-10.41,8.39-18.89,20.87-23.88,35.15C4.66,558.42,4.31,580.87,4,602.58q-.1,6.63-.2,13.25t-.19,13.25q-.61,40.51-1.2,81c-.12,7.54-.24,15.34,1.94,22.66.59,2,1.34,3.89,2.08,5.77s1.46,3.75,2.05,5.69c2.93,9.66,2,19.91,1.14,29.83-.23,2.59-.47,5.28-.63,7.89-.75,11.93.74,21.09,4.57,28a25.25,25.25,0,0,0,4.92,6.43Z"/><path class="cls-13" d="M450.11,971.76a7.52,7.52,0,0,1-4.29-1.34c-7.32-5-12.16-10.27-17.25-18.66l1.45-.88c5,8.17,9.66,13.25,16.76,18.15a5.92,5.92,0,0,0,7.79-1c8.94-10.18,25.5-11.14,37-8.86,4.62.92,9.15,2.21,13.77,3.58l.41.12,1.7.52c8.89,2.62,18.08,5.33,27.53,5a46.89,46.89,0,0,0,6.6-.7c9.55-1.63,18.77-6,27.7-10.12,5-2.36,10.24-4.8,15.47-6.74a71.51,71.51,0,0,1,11.65-3.36,50.93,50.93,0,0,1,6.43-.84c7.51-14.56,8.62-31.45,9.69-47.78.77-11.78,1.57-24,4.72-35.42,1.61-5.86,3.88-11.71,6.07-17.38C628.05,833.75,633,821,631.06,808a78.66,78.66,0,0,0-2.67-10.76c-1.58-5.25-3.2-10.67-3.08-16.29a30.7,30.7,0,0,1,.44-4.34,73.86,73.86,0,0,1,2.67-10.2c.76-2.45,1.56-5,2.13-7.49,2.06-9,1.48-18.56.91-27.75q-3.63-58.57-7.28-117.14l-.36-5.73c-1.69-26.84-3.85-53-11.51-77.62-4.92-15.9-11.12-27.07-19.5-35.13-5-4.84-11.41-9-20-13.16l-1.76-.84c-3.85-1.79-7.84-3.45-11.7-5.06l-.21-.09-12.1-5-11.83-4.91-9.5-3.95-9.5-3.94c-3.77-1.56-8.05-3.32-11.33-6.42a36.48,36.48,0,0,1-3.94-4.62,33.14,33.14,0,0,0-4.06-4.69c-5.74-5.08-14-5.24-22.08-5.39-1.41,0-2.81-.05-4.18-.1-8.61-.32-19.92-3.43-23.43-11.17a11.36,11.36,0,0,1-.87-2.77l1.66-.3a10,10,0,0,0,.75,2.37c3,6.59,13.18,9.86,22,10.17,1.37.06,2.76.08,4.16.11,8.34.16,17,.32,23.16,5.81a33.7,33.7,0,0,1,4.28,4.93,36.25,36.25,0,0,0,3.76,4.42c3.05,2.88,7.18,4.58,10.82,6.08l9.5,3.95,9.5,3.94,11.82,4.92,12.11,5,.22.1c3.87,1.61,7.88,3.28,11.75,5.08.59.27,1.19.57,1.79.86,8.77,4.21,15.27,8.49,20.45,13.46,8.6,8.27,14.94,19.66,19.95,35.85,7.71,24.81,9.88,51.06,11.58,78l.36,5.72q3.66,58.58,7.28,117.14c.57,9.32,1.17,19-.95,28.24-.59,2.57-1.39,5.14-2.17,7.62a72.39,72.39,0,0,0-2.61,10A27.36,27.36,0,0,0,627,781c-.12,5.35,1.46,10.64,3,15.77a79.5,79.5,0,0,1,2.73,11c2,13.43-3,26.42-7.88,39a180.14,180.14,0,0,0-6,17.22c-3.11,11.28-3.9,23.38-4.67,35.08-1.09,16.67-2.22,33.9-10.1,48.88l-.22.42-.48,0a48.17,48.17,0,0,0-6.69.85,69.18,69.18,0,0,0-11.38,3.28c-5.17,1.92-10.34,4.34-15.35,6.68-9,4.22-18.35,8.59-28.12,10.26a48.79,48.79,0,0,1-6.84.72c-9.72.32-19-2.44-28.05-5.1-.58-.16-1.15-.34-1.73-.52l-.4-.12c-4.57-1.35-9.06-2.64-13.61-3.54-11-2.19-26.91-1.33-35.37,8.32A7.64,7.64,0,0,1,450.11,971.76Z"/><path class="cls-13" d="M444.16,960.46a12.55,12.55,0,0,1-9.79-4.16,37.16,37.16,0,0,1-2.89-4.27l1.46-.85a36.59,36.59,0,0,0,2.73,4c3.8,4.51,11.07,4.37,15.9,1.63a21.15,21.15,0,0,0,4.75-3.78,43.6,43.6,0,0,0,6.67-9.85A118.84,118.84,0,0,0,472.57,918a126.92,126.92,0,0,0-17-100.16c-1-1.48-1.91-2.76-2.85-3.93-3.46-4.34-7-6.84-10.76-7.65a9.24,9.24,0,0,0-4.73.47,16.27,16.27,0,0,0-5.35,3.06c-2.8,2.41-4.14,5.21-3.57,7.5l-1.64.4c-.73-2.92.81-6.35,4.11-9.19a18,18,0,0,1,5.91-3.38,10.57,10.57,0,0,1,5.62-.51c4.18.89,8,3.58,11.73,8.24,1,1.21,1.93,2.53,2.94,4a128.63,128.63,0,0,1,17.2,101.52A120.62,120.62,0,0,1,464.49,944a45.27,45.27,0,0,1-6.95,10.24,22.72,22.72,0,0,1-5.13,4.08A17,17,0,0,1,444.16,960.46Z"/><path class="cls-13" d="M599.18,856.89a20.22,20.22,0,0,1-1.5-2.54,49.17,49.17,0,0,1-3.09-9c-.47-1.73-1-3.52-1.54-5.22-.31-.89-.59-1.61-.86-2.26a40.48,40.48,0,0,0-18.06-19.92c-.89-.48-1.81-.92-2.73-1.37A30.24,30.24,0,0,1,564,812c-.68-.62-1.31-1.31-1.92-2a15.52,15.52,0,0,0-3.22-2.93,14.22,14.22,0,0,0-4.48-1.55,85.84,85.84,0,0,0-33.41-.58c-1.75.32-3.53.7-5.26,1.07-5.31,1.13-10.81,2.3-16.35,1.86a56.48,56.48,0,0,1-12-2.72c-1.34-.41-2.68-.82-4-1.19-10.26-2.85-22.38-2.82-36,.08-3.37.71-6.76,1.58-10.09,2.59l-1.84.57-.53-1.61,1.89-.58c3.36-1,6.81-1.91,10.22-2.62,13.9-3,26.29-3,36.81-.06,1.36.38,2.71.79,4.07,1.2a55.66,55.66,0,0,0,11.63,2.65c5.3.43,10.67-.72,15.87-1.83,1.74-.37,3.53-.75,5.31-1.07a87.08,87.08,0,0,1,34.07.58,16,16,0,0,1,5,1.76,16.83,16.83,0,0,1,3.58,3.24c.61.66,1.18,1.29,1.81,1.85a28.29,28.29,0,0,0,7,4.28c.94.45,1.88.91,2.79,1.4a41.51,41.51,0,0,1,18.82,20.76c.29.67.57,1.42.9,2.36.6,1.75,1.1,3.57,1.58,5.33a47.35,47.35,0,0,0,3,8.69,18.92,18.92,0,0,0,1.37,2.34Z"/><path class="cls-13" d="M530,928.07,528.62,927C538.14,915,548,902.47,555.2,888.61c8.13-15.55,11.69-30.56,10.6-44.61-.27-3.4-.88-7.75-3.19-11.29-3.3-5.08-9-7.33-15.05-9.71-4.13-1.63-8.4-3.31-11.93-6l1-1.34c3.34,2.54,7.5,4.18,11.52,5.76,6,2.38,12.25,4.84,15.85,10.36,2.52,3.86,3.17,8.49,3.45,12.08,1.13,14.38-2.5,29.7-10.77,45.54C549.42,903.4,539.52,915.94,530,928.07Z"/><path class="cls-13" d="M544.58,676.64c-3.25-10.79-6.93-23-10-35.24-4.73-19.09-7-34.93-7.24-49.86a159.14,159.14,0,0,1,43.14-110.86l1.23,1.16a157.47,157.47,0,0,0-42.68,109.68c.21,14.79,2.5,30.51,7.19,49.47,3,12.18,6.69,24.39,9.93,35.16Z"/><path class="cls-13" d="M447.87,803.55l-1.52-.76.46-.91a210.73,210.73,0,0,0,19.28-59.57l.06-.4c.59-3.55,1.19-7.22,3.17-10.31,2.22-3.43,5.74-5.56,9.15-7.62l.7-.42a144.63,144.63,0,0,0,38-33.43l.75-1c2.59-3.26,5.26-6.64,9-8.73s7.83-2.6,11.24-3.08l6.48-.88.81-.1c17.51-2.28,35.6-4,53.75-5l.7,0,.17.68a19,19,0,0,1-16.3,22.76l-.13-1.69A16.35,16.35,0,0,0,595.47,686a16.58,16.58,0,0,0,3.07-12.89c-17.88,1.07-35.68,2.74-52.92,5l-.8.1-6.48.88c-3.26.45-7.33,1-10.64,2.88s-6,5.17-8.48,8.31l-.75.94A146.39,146.39,0,0,1,480,725l-.7.42c-3.24,2-6.59,4-8.59,7.08-1.8,2.8-2.37,6.3-2.93,9.67l-.06.41a212.83,212.83,0,0,1-19.43,60Z"/><path class="cls-13" d="M518.69,751.51l-1.33-1c5.54-7,11.81-15,20-20.17,11.35-7.26,25.31-8.78,37.62-10.12l12.91-1.42,11.44-1.25.27,0,.38,0c1.89-.21,3.93-.44,6-.81,5.06-.84,8.8-2.2,11.79-4.28,4.85-3.36,8.06-10.34,5.36-15.6q-11-.25-22-.46l-8.85-.19-8.61-.19L569,695.6c-8.94-.19-19.08-.41-27.8,3.42-7.16,3.14-12.94,8.82-18.53,14.3-4.46,4.38-9.08,8.91-14.45,12.26l-.89-1.44c5.21-3.25,9.75-7.71,14.15-12,5.7-5.59,11.59-11.37,19-14.65,9.06-4,19.4-3.75,28.52-3.56l14.58.31,8.61.18,8.85.19q11.25.23,22.49.48h.47l.24.41c2.87,4.91,1.53,13.29-5.64,18.25-3.2,2.22-7.16,3.67-12.46,4.56-2.09.37-4.17.61-6.11.82l-.33,0-.32,0L588,720.44l-12.91,1.42c-12.13,1.32-25.87,2.81-36.89,9.86C530.32,736.77,524.41,744.26,518.69,751.51Z"/><path class="cls-13" d="M535.22,803.38l-.65-.55-.6-.59a131.4,131.4,0,0,1,22.32-19.16c2.56-1.74,5.36-3.5,8.32-5.21l.84,1.47c-2.92,1.69-5.68,3.42-8.2,5.14A128.91,128.91,0,0,0,535.22,803.38Z"/><path class="cls-13" d="M565.47,779.34l-.84-1.47a130,130,0,0,1,16-7.81c1.29-.52,2.59-1,3.89-1.53a76.63,76.63,0,0,0,12.48-5.73,30.16,30.16,0,0,0,3.56-2.51c5-4.1,9.14-11.49,6.86-18.28-2.88.61-5.76,1.22-8.64,1.81l-11.09,2.34c-11.44,2.41-23.28,4.91-33.43,11.1-7.43,4.55-13.63,10.91-19.63,17.07l-1.21-1.18c6.07-6.23,12.34-12.68,20-17.33,10.4-6.34,22.38-8.87,34-11.32l11.1-2.34q4.54-.93,9.09-1.91l.88-.18.37.73c3,7.74-1.57,16.2-7.14,20.8a31.14,31.14,0,0,1-3.76,2.64,77.74,77.74,0,0,1-12.75,5.87c-1.29.5-2.58,1-3.86,1.52A128.84,128.84,0,0,0,565.47,779.34Z"/><path class="cls-13" d="M606.56,742.48l-.39-1.65a10.29,10.29,0,0,0,1.55-.5c4.5-1.79,7.8-6.05,11.06-10.63,2-2.75,3.86-6.52,1.93-8.9-1.06-1.3-3-1.7-4.89-1.94a69.19,69.19,0,0,0-9.73-.55c-2.16,0-4.11.11-6,.28s-3.66.41-5.56.74l-.29-1.67c2-.34,3.86-.59,5.69-.76s3.9-.27,6.1-.29a71.21,71.21,0,0,1,10,.57c2.26.28,4.55.79,6,2.55,2.06,2.54,1.42,6.32-1.86,10.95-3.42,4.8-6.89,9.27-11.81,11.22A12,12,0,0,1,606.56,742.48Z"/><path class="cls-13" d="M11.09,851.65c-.38,0-.76,0-1.15,0-3.7-.36-6.71-2.65-8.47-6.47a16.73,16.73,0,0,1,1.19-15.94c3.11-4.45,8-7.73,15.28-10.32,2.77-1,5.56-1.77,8.17-2.48L95,797.54a43,43,0,0,0-4.17-7.84,123.08,123.08,0,0,0-8.92-11.62c-2.2-2.63-4.47-5.36-6.53-8.15-4.23-5.72-13.39-20.45-7-33.57,1.23-2.53,2.79-4.19,4.65-4.92,3.15-1.29,6.87,0,11,3.8a114.82,114.82,0,0,1,8.68,9c1.31,1.48,2.6,3,3.89,4.48,8.08,9.38,15.7,18.24,26.63,22.63.57.23,1.15.44,1.74.64a88.36,88.36,0,0,0,9.35,2.5,76,76,0,0,1,11.08,3.14c9.05,3.56,16.29,10.4,22.37,16.53,1.12,1.12,2.22,2.25,3.33,3.38,8.08,8.27,16.43,16.82,27.33,20.21a32.81,32.81,0,0,0,5.58,1.28l.22,0,.21,0-.16,1.69-.32,0-.17,0a35.68,35.68,0,0,1-5.86-1.34c-11.31-3.52-19.82-12.22-28-20.64q-1.65-1.69-3.32-3.38c-6-6-13.05-12.7-21.79-16.15A75.56,75.56,0,0,0,134,776.16a87.94,87.94,0,0,1-9.51-2.55c-.62-.2-1.22-.43-1.83-.67-11.31-4.54-19.43-14-27.28-23.09q-1.94-2.25-3.88-4.47a113.2,113.2,0,0,0-8.56-8.89c-3.64-3.34-6.76-4.51-9.26-3.48-1.46.58-2.72,2-3.76,4.09-5.93,12.29,2.85,26.35,6.9,31.82,2,2.75,4.28,5.46,6.46,8.08a123.37,123.37,0,0,1,9,11.78,43.78,43.78,0,0,1,4.67,9l.33.86L26.55,818c-2.58.69-5.33,1.47-8,2.43-7,2.47-11.56,5.55-14.46,9.7a15,15,0,0,0-1,14.26c1.5,3.25,4,5.2,7.1,5.49a18.53,18.53,0,0,0,3.77-.16l.23,0,6.74-.82,7-.84,6.52-.79,5.76-.7.2,1.68-5.75.7-6.53.79-6.95.84-6.76.82-.23,0A26.26,26.26,0,0,1,11.09,851.65Z"/><path class="cls-13" d="M321.18,824.68l-6.71,0c-30.77-.13-60.44-1.31-96-2.85l.07-1.69c35.57,1.54,65.22,2.72,96,2.85,43.52.24,79.4-1.78,112.92-6.33,9.05-1.22,17.5-2.56,25.86-4.11l.3,1.67c-8.38,1.55-16.86,2.9-25.93,4.12C395.77,822.64,361.78,824.68,321.18,824.68Z"/><path class="cls-13" d="M21.78,883a16.33,16.33,0,0,1-4.29-.56A15.19,15.19,0,0,1,6.68,870.54c-.92-5.38,1.25-11.27,5.66-15.38a28.16,28.16,0,0,1,15.46-7.09l.2,1.68a26.43,26.43,0,0,0-14.51,6.66,15.75,15.75,0,0,0-5.14,13.84,13.67,13.67,0,0,0,9.58,10.54,15.15,15.15,0,0,0,5.51.41A45.29,45.29,0,0,0,32.9,879a48,48,0,0,1,10.37-2.36l.12,1.69a45.84,45.84,0,0,0-10,2.29,47.13,47.13,0,0,1-9.81,2.28C23,883,22.37,883,21.78,883Z"/><path class="cls-13" d="M52.25,911.36l-4.34-.92-4.43-.93-1.66-.35-1.6-.35c-5.76-1.22-12.93-2.74-17.8-7.5a14.39,14.39,0,0,1-4.5-10.89,12.2,12.2,0,0,1,5.08-9l1,1.34a10.53,10.53,0,0,0-4.43,7.8,12.87,12.87,0,0,0,4,9.58c4.52,4.42,11.43,5.88,17,7.06l1.59.34,1.66.35,4.43.94,4.34.91Z"/><path class="cls-13" d="M457,954.5c-8.49-.59-16.82-1.28-24.82-2l-2.92-.29c-20.44-2-41.14-4.81-61.52-8.27-30.47-5.17-61.55-12.08-92.38-20.54-2.9-.8-5.74-1.6-8.54-2.4-13.31-3.78-25.87-7.35-40.1-8.34l.12-1.69c14.4,1,27.05,4.6,40.45,8.4,2.79.8,5.62,1.6,8.51,2.4,30.78,8.45,61.81,15.35,92.22,20.5,20.35,3.45,41,6.23,61.41,8.26,1,.1,1.94.2,2.9.28,8,.78,16.31,1.47,24.71,2Z"/><path class="cls-13" d="M54.84,934.65a36.51,36.51,0,0,1-8.22-.81,15.83,15.83,0,0,1-9.07-5.42,13.58,13.58,0,0,1,5.74-20.21l.58,1.59a11.89,11.89,0,0,0-5,17.58A14,14,0,0,0,47,932.19c4.22,1,9.16.83,13,.57l1.47-.1,43.73-2.84c16.87-1.11,34.21-2.24,50.8-6.1,6.35-1.48,12.22-3.29,17.9-5a191.22,191.22,0,0,1,23.83-6.21l.29,1.67a188.4,188.4,0,0,0-23.62,6.16c-5.71,1.76-11.61,3.58-18,5.07-16.72,3.89-34.14,5-51,6.13l-45.28,3C58.51,934.56,56.71,934.65,54.84,934.65Z"/><path class="cls-13" d="M124.6,774.39,124,773.2c-12.06-22.48-27.06-50.46-27.79-80-.21-8.66.78-17.42,1.74-25.89l.33-2.93c.38-3.33.8-7.27,1.07-11.24a100.25,100.25,0,0,0,0-16.32c-1.68-18-9.7-34.56-17.44-50.56Q75.23,572.64,68.64,559l-.1-.21c-9.22-19-18.76-38.67-31.2-56.07l1.38-1C51.25,519.25,60.81,539,70.07,558.05l.1.21q6.57,13.63,13.19,27.24c7.45,15.39,15.89,32.82,17.61,51.14a102.58,102.58,0,0,1,0,16.6c-.27,4-.69,8-1.07,11.31l-.33,2.93c-1,8.41-1.94,17.11-1.73,25.66.71,29.15,15.61,56.94,27.58,79.27l.63,1.2Z"/><path class="cls-13" d="M57.84,742.13l-2.77-1.21L7.87,720.44l.68-1.56L48.21,736.1A109,109,0,0,1,8.72,684.57l1.59-.57a107.13,107.13,0,0,0,48.28,56.61Z"/><path class="cls-13" d="M320.32,535.18c-28,0-51.92-3.63-72.67-11C217.34,513.34,193.29,494,180,469.8l1.48-.82c13.15,23.88,36.86,42.9,66.78,53.58,24.06,8.57,52.39,12,86.62,10.62l.07,1.69Q327.43,535.19,320.32,535.18Z"/><path class="cls-13" d="M362.62,552.62l-.45-1.63c9.65-2.67,19.73-5,29.46-7.18,31.06-7.07,63.17-14.39,87.27-35,14.08-12,24.58-28.11,33.31-42.24l1.44.89c-8.8,14.24-19.38,30.45-33.65,42.64-24.42,20.86-56.74,28.22-88,35.34C382.29,547.67,372.24,550,362.62,552.62Z"/><path class="cls-13" d="M408.31,601.51A399.43,399.43,0,0,1,227.39,558.2c-14.15-7.24-28.21-15.89-35.18-30.05l1.52-.75c6.75,13.72,20.54,22.19,34.43,29.29a397.17,397.17,0,0,0,229.7,40l.21,1.68A388.29,388.29,0,0,1,408.31,601.51Z"/><path class="cls-13" d="M217.27,992.1c-5.48,0-10.85-2.09-16.08-4.13l-.91-.35-.18-.07-.09,0a197.63,197.63,0,0,0-78-13.16c-3.59.12-7,.32-10.4.62-3.61.32-7.28.74-10.89,1.26L96,977c-9.55,1.5-19.42,3-28.86.55-5.08-1.33-8.86-3.74-10.92-7a15.08,15.08,0,0,1-1.34-2.73,37.42,37.42,0,0,1-1.28-4.33q-2.05-8.22-4.12-16.44-1.74-6.9-3.46-13.8l-.26-1a.85.85,0,0,1,1.65-.4l.25,1q1.72,6.9,3.46,13.8,2.07,8.22,4.13,16.44a35,35,0,0,0,1.22,4.14,13,13,0,0,0,1.18,2.42c2.31,3.63,6.67,5.4,9.92,6.25,9.1,2.4,18.79.89,28.17-.58l4.7-.72c3.65-.53,7.35-1,11-1.28,3.44-.3,6.87-.5,10.49-.63a199.32,199.32,0,0,1,78.69,13.27l.16.06,1.06.41c6.23,2.43,12.69,5,19,3.67a10.42,10.42,0,0,0,4-1.94c4.85-3.67,8.46-11.28,5.87-15.64a.84.84,0,0,1,.67-1.36.84.84,0,0,1,.72.41s0,0,0,0c3.14,5.17-.73,13.71-6.27,17.9a12.09,12.09,0,0,1-4.69,2.25A20,20,0,0,1,217.27,992.1Z"/><path class="cls-13" d="M220.72,984.1l-.56,0a7.06,7.06,0,0,1-4.94-2.62c-1.58-2-3.35-3.88-5.06-5.73l-.31-.33c-3.49-3.81-6.54-7.31-8.5-11.66-2.61-5.81-2.83-12.41-2.68-18.67,0-1.11.05-2.34.07-3.65.11-7.86.26-18.62,2.68-24.95a.86.86,0,0,1,1.09-.49.85.85,0,0,1,.49,1.1c-2.31,6-2.46,16.64-2.57,24.37,0,1.31,0,2.54-.07,3.66-.14,6.06.06,12.44,2.54,17.93,1.85,4.12,4.81,7.52,8.2,11.21l.31.33c1.72,1.87,3.51,3.8,5.13,5.83a5.3,5.3,0,0,0,3.75,2,5.17,5.17,0,0,0,3.92-1.34c4.13-3.75,6.32-6.88,6.33-9a.86.86,0,0,1,.85-.86h0a.82.82,0,0,1,.84.83c0,2.73-2.33,6.19-6.88,10.33A6.85,6.85,0,0,1,220.72,984.1Z"/><path class="cls-13" d="M210.53,975.67h-.06v-.93l-.09-.76c6.47-.8,13.3-1.72,20.9-2.81h.12a1151.07,1151.07,0,0,0,136.05-28l.44,1.63a1154.26,1154.26,0,0,1-136.34,28h-.12c-7.52,1.08-14.36,2-20.84,2.8Z"/><path class="cls-13" d="M326.68,469.63a24.49,24.49,0,0,1-20.2-11l1.43-.92a22.29,22.29,0,0,0,37.79-.5l1.45.88A24.48,24.48,0,0,1,327,469.63Z"/><path class="cls-13" d="M242.67,453.94l-.25-1.67c3.64-.56,7.05-1.18,10.35-1.77,5.3-.95,10.31-1.85,16.07-2.52,6.38-.73,13.06-1,18.8,2l-.79,1.49c-5.33-2.81-11.71-2.55-17.81-1.85-5.71.67-10.7,1.56-16,2.51C249.76,452.76,246.34,453.38,242.67,453.94Z"/><path class="cls-13" d="M224,456.1c-2.9,0-5.72-.16-8.76-.41l.14-1.69a82.42,82.42,0,0,0,18.45-.23l.21,1.68A78.11,78.11,0,0,1,224,456.1Z"/><path class="cls-13" d="M425.44,449.46c-2.77,0-4.94-.11-7-.19s-4.25-.16-7-.2l0-1.69c2.77,0,4.94.11,7,.19s4.24.16,7,.2Z"/><path class="cls-13" d="M361.82,451l-.81-1.49c4.73-2.55,10.46-2.47,15.06-2.41,9.75.12,17.65.22,27.38.36l0,1.69c-9.74-.13-17.63-.24-27.38-.35C371.64,448.78,366.15,448.7,361.82,451Z"/><path class="cls-13" d="M364.51,497.29l-1.21-1.18,0,0a314.32,314.32,0,0,0,30.79-35.64c3.54-4.76,6.28-8.75,8.61-12.55.2-.31.38-.62.56-.93l.21-.35a85.48,85.48,0,0,0,5.61-10.95c4.07-9.69,5.62-19.42,4.47-28.11a8.08,8.08,0,0,0-.14-.88l0-.14c-.46-2.68-1.29-4.45-2.63-5.55l-1-.84,1.2-.57a5.93,5.93,0,0,1,3.33-.62,5.46,5.46,0,0,1,2.8,1.68c1.43,1.34,3.39,3.17,4,5.57a2.29,2.29,0,0,1,.12.44l-1.68.28-.07-.25c-.42-1.8-1.84-3.24-3.51-4.81a4.09,4.09,0,0,0-1.9-1.24,3.35,3.35,0,0,0-1.16.07,11.79,11.79,0,0,1,2.24,5.63v.09c.06.32.11.62.15.94,1.17,9-.42,19-4.6,29A88.71,88.71,0,0,1,405,447.49l-.21.35c-.19.32-.38.64-.59,1-2.34,3.83-5.11,7.86-8.68,12.66A316,316,0,0,1,364.51,497.29Z"/><path class="cls-13" d="M376.81,494.31l-1.32-1.06c2.78-3.48,5.61-6.74,8.35-9.89s5.54-6.38,8.31-9.82c6.45-8,11.76-14.75,16.41-22.22.64-1,1.38-2.23,2.1-3.51l.26-.43c.91-1.6,1.72-3.14,2.48-4.69,5-10.2,7.34-20.54,6.76-29.9a43.43,43.43,0,0,0-.8-6.12l1.66-.34a45.37,45.37,0,0,1,.83,6.36c.59,9.64-1.8,20.28-6.93,30.74-.84,1.72-1.75,3.43-2.77,5.21l-.26.43c-.65,1.15-1.32,2.22-1.89,3.14-4.71,7.55-10,14.32-16.53,22.39-2.79,3.47-5.62,6.72-8.35,9.87S379.57,490.85,376.81,494.31Z"/><path class="cls-13" d="M263.94,495.05l-.05-.12,0,0c-8.7-10.17-15.73-23.38-22.11-41.57-3.22-9.15-6-18.79-8.77-28.12l-.46-1.57a25.48,25.48,0,0,1-1.27-6.73,9.11,9.11,0,0,1,1.09-4.7,1.93,1.93,0,0,1,.14-.25l1.52.75-.06.11a1.09,1.09,0,0,0-.08.15,7.51,7.51,0,0,0-.92,3.92,23.61,23.61,0,0,0,1.21,6.27l.46,1.58c2.72,9.3,5.53,18.92,8.73,28,6.32,18,13.25,31,21.81,41l.2.24v.31h-.8Z"/><path class="cls-13" d="M250.39,491.52l-.1-.18c-.11-.18-.21-.36-.31-.55a226.11,226.11,0,0,1-16.8-35.89,205,205,0,0,1-8.26-29.47,3.53,3.53,0,0,1-.12-.57l1.66-.31a3.88,3.88,0,0,0,.11.49,204,204,0,0,0,8.2,29.28A224.9,224.9,0,0,0,251.47,490c.11.2.19.36.29.51l.1.19Z"/><path class="cls-13" d="M224.78,424.75l.85,0-.85,0a19.36,19.36,0,0,1,.25-5.36,10.21,10.21,0,0,1,7.9-7.53l.3,1.67a8.5,8.5,0,0,0-6.56,6.25,17.91,17.91,0,0,0-.2,4.88Z"/><path class="cls-13" d="M559.6,953.81a8.09,8.09,0,1,1,8.09-8.1,7.48,7.48,0,0,1-.27,2A8,8,0,0,1,559.6,953.81Zm0-14.48a6.39,6.39,0,0,0-4.21,11.2h0a6.37,6.37,0,0,0,10.38-3.24,5.74,5.74,0,0,0,.22-1.58A6.4,6.4,0,0,0,559.6,939.33Z"/><path class="cls-13" d="M498.54,953.81a8.09,8.09,0,1,1,0-16.17,8.08,8.08,0,0,1,8.07,8.07,8.12,8.12,0,0,1-2.55,5.9A8,8,0,0,1,498.54,953.81Zm0-14.48a6.39,6.39,0,1,0,0,12.78,6.3,6.3,0,0,0,4.36-1.73h0a6.46,6.46,0,0,0,2-4.67,6.4,6.4,0,0,0-6.38-6.38Z"/><path class="cls-13" d="M161.56,967.73a8.09,8.09,0,1,1,8.07-8.1A8.1,8.1,0,0,1,161.56,967.73Zm0-14.48a6.39,6.39,0,1,0,6.38,6.38A6.4,6.4,0,0,0,161.56,953.25Z"/><path class="cls-13" d="M211.49,919.2a21.82,21.82,0,0,1-21.78-21.8,21.42,21.42,0,0,1,2.31-9.74,20.79,20.79,0,0,1,3-4.48,21.78,21.78,0,0,1,37.84,9.94l-1.66.33a20.08,20.08,0,0,0-34.9-9.16,19.43,19.43,0,0,0-2.74,4.12,19.67,19.67,0,0,0-2.13,9,20.07,20.07,0,0,0,7,15.26,19.48,19.48,0,0,0,4.35,2.86,19.84,19.84,0,0,0,8.71,2,20,20,0,0,0,14.6-6.32l.27-.26a20.2,20.2,0,0,0,5-16.58l1.68-.24a23,23,0,0,1,.25,3.3,21.63,21.63,0,0,1-5.93,14.94l-.27.27A21.77,21.77,0,0,1,211.49,919.2Z"/><path class="cls-13" d="M211.49,911.07a13.66,13.66,0,1,1,13.65-13.67A13.67,13.67,0,0,1,211.49,911.07Zm0-25.62a12,12,0,1,0,11.95,11.95A12,12,0,0,0,211.49,885.45Z"/><path class="cls-13" d="M89.54,967.4a8.09,8.09,0,1,1,8.08-8.09A8.1,8.1,0,0,1,89.54,967.4Zm0-14.49a6.4,6.4,0,1,0,6.38,6.4A6.41,6.41,0,0,0,89.54,952.91Z"/><path class="cls-13" d="M628.37,1296.61H34.5l.27-1c4.46-17.25,9.2-36.14,14.07-55.59l2.82-11.22c5-19.76,10.08-40.19,14.78-58.35,3-11.56,6.06-23.52,11.29-34.72.78-1.67,1.63-3.36,2.45-5,3.66-7.33,7.45-14.9,6.92-22.91,0-.92-.17-1.81-.29-2.64-.17-1.05-.37-2.11-.58-3.17a42.25,42.25,0,0,1-.92-6.42C85,1087.39,89,1080,93,1072.87l.78-1.41c17-31,25.9-62.24,27.24-95.44,0-.84.07-1.7.09-2.54h1.69q0,1.34-.09,2.61c-1.35,33.46-10.33,64.92-27.45,96.18l-.78,1.42c-3.83,6.93-7.78,14.1-7.46,21.79a41.51,41.51,0,0,0,.89,6.17c.21,1.08.42,2.16.59,3.24.13.87.26,1.81.31,2.79.56,8.45-3.33,16.24-7.1,23.76-.81,1.63-1.65,3.31-2.42,5-5.17,11-8.23,22.94-11.2,34.43-4.69,18.15-9.82,38.58-14.77,58.33l-2.82,11.22c-4.77,19.06-9.41,37.58-13.79,54.54H626c-7.28-20.6-13.71-41.75-19.12-62.9s-10-43.13-13.51-65.16c-.24-1.56-.49-3.12-.73-4.69-2.47-15.76-5-32.06-12.32-46.3-.28-.54-.56-1.08-.85-1.62-1.64-3.13-3.34-6.36-3.76-10a28.72,28.72,0,0,1,.69-8.59q.24-1.29.45-2.58c.11-.75.2-1.5.28-2.25,1.68-16.73-5.93-32-14-48.12-4.74-9.5-9.65-19.32-12.45-29.45a155.7,155.7,0,0,1-3.46-17.59c-1.3-8.24-2.65-16.77-5.87-24.54l1.56-.65c3.3,8,4.67,16.58,6,24.93a157.3,157.3,0,0,0,3.42,17.4c2.76,10,7.63,19.72,12.34,29.14,7.81,15.65,15.89,31.83,14.15,49.06-.08.78-.17,1.56-.29,2.33s-.3,1.75-.46,2.63a27,27,0,0,0-.67,8.08c.38,3.29,2,6.38,3.58,9.37l.85,1.64c7.42,14.48,10,30.92,12.49,46.81.24,1.56.49,3.12.74,4.68,3.52,22,8.05,43.85,13.48,65,5.48,21.49,12,43,19.46,63.88Z"/><path class="cls-13" d="M244.7,1124.43l6.34-3.15a313.57,313.57,0,0,0,122.18-108.17l1.41.94a315.3,315.3,0,0,1-116.52,105.52c73.52-18.44,141.1-63.45,186.27-124.29l1.36,1c-46.81,63-117.57,109.19-194.13,126.57Z"/><path class="cls-13" d="M230.8,1259.5v-1.7c54.9-.47,111.24-13,162.93-36.26,51.46-23.15,98.3-56.9,135.47-97.6,6.55-7.16,12.85-14.6,18.75-22.12.58-.73,1.15-1.45,1.72-2.2l1.34,1c-.57.75-1.15,1.48-1.73,2.21-5.92,7.54-12.26,15-18.83,22.21-37.32,40.87-84.36,74.76-136,98C342.51,1246.43,285.94,1259,230.8,1259.5Z"/><path class="cls-13" d="M380.06,1251.8l-.62-1.58c14.3-5.56,29.41-9.37,44-13,11.76-3,23.91-6,35.55-10,21.81-7.43,50.63-21.82,64-48.21l1.51.77c-10.81,21.28-33.28,38.25-65,49-11.71,4-23.9,7-35.68,10C409.32,1242.48,394.26,1246.27,380.06,1251.8Z"/><path class="cls-13" d="M202,1174.49a281.72,281.72,0,0,1-92-108.39l1.52-.73A280.34,280.34,0,0,0,203,1173.11Z"/><path class="cls-13" d="M172,1163.57a103.26,103.26,0,0,1-69.47-49.82l1.47-.84a101.59,101.59,0,0,0,68.32,49Z"/><path class="cls-13" d="M193.49,888.5l-1.42-.92c.55-.85,1.12-1.69,1.69-2.54l1.17-1.77c6.93-10.41,12.54-20.21,11.08-34.72-.22-2.18-.34-4.4-.45-6.54s-.25-4.64-.5-7c-.16-1.38-.28-2.76-.41-4.14a65.75,65.75,0,0,0-1.57-10.82c-.17-.68-.35-1.3-.54-1.89-.55.17-1.14.32-1.72.47-.81.2-1.65.42-2.31.66l-.59-1.59a25.22,25.22,0,0,1,2.48-.71c.79-.2,1.6-.41,2.25-.64l1.27-.43v1c.29.82.55,1.69.8,2.66a68.48,68.48,0,0,1,1.62,11.1c.13,1.37.25,2.73.4,4.11.26,2.35.39,4.73.51,7,.11,2.12.22,4.32.44,6.46,1.52,15-4.5,25.54-11.34,35.83L195.17,886Q194.32,887.24,193.49,888.5Z"/><path class="cls-13" d="M231.58,895.81c-.06-.49-.13-1-.23-1.41s-.1-.64-.16-.93A69.89,69.89,0,0,0,226.24,878a103.19,103.19,0,0,1-4-10.88,47.25,47.25,0,0,1-1.22-10c-.1-2-.2-3.89-.41-5.53-.38-2.87-.47-5.8-.57-8.63,0-1.3-.08-2.61-.15-3.91a104,104,0,0,0-2.25-17.87c-.12-.6-.27-1.18-.42-1.74l0-.21h.87l.79-.21c.16.59.31,1.2.44,1.81a106,106,0,0,1,2.28,18.14c.07,1.32.11,2.63.16,3.95.09,2.79.18,5.67.55,8.47.22,1.7.32,3.62.42,5.65a45.57,45.57,0,0,0,1.16,9.66,101.69,101.69,0,0,0,3.93,10.7,71.23,71.23,0,0,1,5,15.77c.06.29.11.61.17,1s.17,1,.24,1.49Z"/><path class="cls-13" d="M218.61,821.1a7.67,7.67,0,0,0-1.13-1.26,9,9,0,0,0-1.59-1.21c-3.7-2.2-8.47-1.56-12.63-.64l-.15,0c-.65.13-1.27.28-1.9.43l-.39-1.65c.62-.14,1.25-.29,1.89-.42a1,1,0,0,1,.24-.06c4.47-1,9.61-1.64,13.81.86a10,10,0,0,1,1.87,1.42,9.43,9.43,0,0,1,1.35,1.5Z"/><path class="cls-13" d="M354.43,822l-.15-1.68a399.08,399.08,0,0,0,74.79-13.81l.46,1.63A400.6,400.6,0,0,1,354.43,822Z"/><path class="cls-13" d="M314.48,823.68c-16.5,0-34-.81-53.55-2.48l.14-1.68c19.49,1.66,37,2.47,53.41,2.47,13.73,0,26.7-.56,39.65-1.69l.14,1.68C341.28,823.12,328.26,823.68,314.48,823.68Z"/><path class="cls-13" d="M260.69,821.19l-2.82-.26c-1.63-.15-3.27-.29-4.91-.46-34.78-3.32-57.78-10-68.35-19.91-.26-.25-.52-.49-.78-.75l1.2-1.2c.25.25.49.48.74.71,10.14,9.5,33.43,16.23,67.35,19.47l4.9.45,2.82.26Z"/><path class="cls-4" d="M366.5,292.43a80.75,80.75,0,0,1-93.77,1.18,341.18,341.18,0,0,0,47.16,2.65A341.61,341.61,0,0,0,366.5,292.43Z"/><path class="cls-13" d="M310.37,265a21.54,21.54,0,0,1-5,1.63,22.64,22.64,0,0,1-5.28.18,5.32,5.32,0,0,1,4.55-4.38A5.39,5.39,0,0,1,310.37,265Z"/><path class="cls-13" d="M329.08,263.82a5.38,5.38,0,0,1,6-2,5.31,5.31,0,0,1,4.11,4.79,22.07,22.07,0,0,1-5.23-.68A21.64,21.64,0,0,1,329.08,263.82Z"/><path class="cls-14" d="M272.73,293.61c4-.21,8-.74,11.93-1.34a75.33,75.33,0,0,0,11.82-2.34c3.93-1.22,7.81-2.74,11.63-3.23a10.67,10.67,0,0,1,5.71.23c1.9.65,3.82,1.7,5.74,1.88,3.86.67,7.61-2.3,11.42-2,3.82.14,7.75,1.81,11.74,3.13s7.91,1.51,11.9,2.06a87.48,87.48,0,0,0,11.88.4c-7.67,1.75-15.43,3-23.22,4.42a101.2,101.2,0,0,1-11.75,1.63c-3.94.27-7.91-.48-11.85-.26s-7.89,1-11.84.49c-3.94-.21-7.87-.85-11.78-1.39C288.24,296.08,280.45,295.13,272.73,293.61Z"/><path class="cls-14" d="M272.73,293.61a196.16,196.16,0,0,0,23.86,6.2,117,117,0,0,0,46.21-.61,196.9,196.9,0,0,0,23.7-6.77,53.06,53.06,0,0,1-20.59,16,65.07,65.07,0,0,1-26,5.76,65.79,65.79,0,0,1-26.16-5.11A53.26,53.26,0,0,1,272.73,293.61Z"/><path class="cls-15" d="M285,273.23,272.53,284"/><path class="cls-13" d="M352.24,273.15a4,4,0,0,1,1.91.78,18.44,18.44,0,0,1,1.56,1.29c1,.88,1.9,1.83,2.8,2.79s1.73,2,2.52,3a24.75,24.75,0,0,1,2.17,3.36,23.18,23.18,0,0,1-3.15-2.47c-1-.88-1.9-1.82-2.79-2.78s-1.74-2-2.52-3A13.73,13.73,0,0,0,352.24,273.15Z"/><path class="cls-13" d="M287.86,272.66c-.91,1-1.86,1.88-2.8,2.77l-2.79,2.63-2.81,2.64a8.18,8.18,0,0,1-3.43,2.11,23.11,23.11,0,0,0,2.45-3,23.09,23.09,0,0,1,2.63-3,21.22,21.22,0,0,1,3.15-2.44A14.93,14.93,0,0,1,287.86,272.66Z"/><path class="cls-13" d="M309.15,190.16a90.65,90.65,0,0,1,2.65,10.28A80.88,80.88,0,0,1,313.21,211a60.38,60.38,0,0,1-.24,10.67A41.94,41.94,0,0,1,310.5,232a82.25,82.25,0,0,0,1.15-10.45,93.43,93.43,0,0,0-.13-10.45c-.2-3.48-.59-7-1-10.44S309.56,193.68,309.15,190.16Z"/><circle class="cls-16" cx="266.01" cy="197.9" r="10.22"/><path class="cls-13" d="M266,208.55h-.46a10.65,10.65,0,1,1,11.09-10.19h0A10.66,10.66,0,0,1,266,208.55Zm0-20.43a9.8,9.8,0,1,0,.43,0Z"/><path class="cls-13" d="M228,193.5a13.8,13.8,0,0,0,3.68,2.87,5.69,5.69,0,0,0,4,.63,5.28,5.28,0,0,0,1.75-.74c.27-.17.53-.38.8-.59l1-.76a45.66,45.66,0,0,1,4.06-2.8,41.74,41.74,0,0,1,18.93-6.37,37,37,0,0,1,19.64,4.08,38.13,38.13,0,0,1,14.57,13,62,62,0,0,0-7.84-5.38,53,53,0,0,0-8.35-4,41.24,41.24,0,0,0-17.65-2.65,49,49,0,0,0-17.38,4.83q-2.08,1-4.14,2.1l-1,.56a12.23,12.23,0,0,1-1.26.61,8.15,8.15,0,0,1-2.82.62,7.5,7.5,0,0,1-5-2A11.28,11.28,0,0,1,228,193.5Z"/><path class="cls-13" d="M238.46,196.81a9.28,9.28,0,0,0,.86,1.74,15.5,15.5,0,0,0,1.21,1.74,20.32,20.32,0,0,0,3.08,3.07,22.91,22.91,0,0,0,3.77,2.39c.66.38,1.37.63,2.07.95s1.43.51,2.15.77c-.75-.12-1.52-.22-2.28-.37s-1.52-.31-2.25-.56a24.9,24.9,0,0,1-4.38-1.76,23,23,0,0,1-4-2.72,18.15,18.15,0,0,1-1.77-1.74,12.93,12.93,0,0,1-1.57-2.13Z"/><path class="cls-13" d="M296.32,162.58s-47.86-9.72-68.36,7.48c0,0,20.08-8.31,68.36-1.42Z"/><path class="cls-13" d="M288.8,212.51a15.34,15.34,0,0,1-3.42,2.91A20.54,20.54,0,0,1,277,218.5a15.36,15.36,0,0,1-4.49,0l4.21-1.27c1.37-.43,2.73-.86,4.06-1.37s2.67-1,4-1.57Z"/><circle class="cls-16" cx="373.22" cy="196.37" r="10.22"/><path class="cls-13" d="M373.21,207a10.66,10.66,0,1,1,.47,0Zm0-20.43h-.42a9.77,9.77,0,0,0-9.36,10.18h0a9.79,9.79,0,1,0,9.78-10.19Z"/><path class="cls-13" d="M411.27,192a11.28,11.28,0,0,1-2.86,4,7.48,7.48,0,0,1-5,2,8.14,8.14,0,0,1-2.81-.62,12.45,12.45,0,0,1-1.27-.62l-1-.55c-1.36-.75-2.75-1.45-4.14-2.11a49.46,49.46,0,0,0-17.37-4.83,41.43,41.43,0,0,0-17.66,2.66,53,53,0,0,0-8.35,4,63,63,0,0,0-7.84,5.37,38.26,38.26,0,0,1,14.57-13,36.93,36.93,0,0,1,19.64-4.08,41.81,41.81,0,0,1,18.93,6.36c1.41.87,2.76,1.81,4.07,2.81l1,.76c.27.21.53.42.8.59a5.37,5.37,0,0,0,1.75.74,5.65,5.65,0,0,0,4-.64A13.61,13.61,0,0,0,411.27,192Z"/><path class="cls-13" d="M403.86,196.67a12.38,12.38,0,0,1-1.57,2.13,17,17,0,0,1-1.77,1.73,22.14,22.14,0,0,1-4,2.73,24.6,24.6,0,0,1-4.38,1.76c-.73.25-1.51.37-2.25.56s-1.53.25-2.28.37c.72-.26,1.45-.49,2.16-.77s1.4-.57,2.06-1a23.59,23.59,0,0,0,3.77-2.39,19.93,19.93,0,0,0,3.08-3.08,15.48,15.48,0,0,0,1.22-1.73,10.18,10.18,0,0,0,.85-1.74Z"/><path class="cls-13" d="M342.91,161.24s47.86-9.9,68.36,7.3c0,0-20.07-8.32-68.36-1.42Z"/><path class="cls-13" d="M350.44,211l4,1.75c1.33.55,2.64,1.1,4,1.57s2.69.94,4.06,1.37l4.21,1.27a15,15,0,0,1-4.49,0,20.43,20.43,0,0,1-4.36-1.07,20.73,20.73,0,0,1-4-2A15.07,15.07,0,0,1,350.44,211Z"/></g></svg>