<svg xmlns="http://www.w3.org/2000/svg" viewBox="0 0 860.14 1296.61"><defs><style>.cls-1{fill:#f3d1bb;}.cls-2{fill:#adadad;}.cls-3{fill:#e56590;}.cls-4{fill:#b14191;}.cls-5{fill:#d5ad95;}.cls-6{fill:#fff;}.cls-7{fill:#f094b0;}.cls-8{fill:#ec7b23;}.cls-9{fill:#432918;}.cls-10{fill:#f6a000;}.cls-11{fill:#f39200;}.cls-12{fill:#706f6f;}.cls-13{fill:#26170e;}.cls-14{fill:#1d1d1b;}.cls-15{fill:#ce9087;}.cls-16{fill:none;}</style></defs><g id="PERSONAJES"><path class="cls-1" d="M822.84,291A42.19,42.19,0,0,1,829,284.3c2.91-2.56,6.18-4.9,10-5.74a14.88,14.88,0,0,1,6.85.15,4.47,4.47,0,0,1,2.88,6.32c-2.28,4.55-4.28,8.45-6.75,13.42,4-1.94,9.19-2.69,12.82-1.11a3.57,3.57,0,0,1,1.79,4.75c-7.72,17.16-14.93,34.29-26,54.46a46.72,46.72,0,0,1,10.77-4.28c5.42-1.29,11.51-1,16.27,1.76a3.49,3.49,0,0,1,1.73,3,3.6,3.6,0,0,1-.34,1.49c-2.74,5-6.08,8.08-10,11.6a144,144,0,0,1-19.12,14.51c-12.09,7.69-24.21,15.48-36.74,22.49q-36,10-71.41,21.77c-12.8,4.25-25.89,8.88-36.1,17.7-3.81,3.28-8.28,10.51-11.36,17.63-34.8,9.89-50.63-12.7-56-18.68.17-3.3.09-6.88-.07-10.55-.08-2.15-.18-4.35-.25-6.57v0a6.67,6.67,0,0,0-.1-4.33c-.07-7,.4-13.77,2.79-19.44,3.85-9.09,12.28-15.44,21.1-19.85,3.89-2,7.94-3.62,12-5.28l.93,2.29c18.52-7.37,38.18-6.22,58.08-12.25,12.1-3.67,16.4-4.38,24.28-7.21a85,85,0,0,0,14.93-7.62c13.52-8.16,26.89-17.29,36.17-30.05,4.95-6.79,8.6-14.46,13.8-21.05s12.48-12.26,20.86-12.68Z"/><path class="cls-2" d="M797.46,1295.77H625.23c23.2-23.24,44.23-48.58,54.14-79.49a145.52,145.52,0,0,0,5.23-22.7,76.53,76.53,0,0,0,6.6-9.13c24.71-5.84,48.87-12,73.09-18.88l.18,1.15A730.07,730.07,0,0,0,797.46,1295.77Z"/><path class="cls-3" d="M786.69,619.94c-2.42,8,6.11,15.8,5.37,24.1-3.56-3.14-7.2-6.17-11-9l.2-.28c-5.43-5.77-10.9-11.58-17.37-16.13a58.21,58.21,0,0,0-14.09-7.25c-.74-46.18-5.23-92.62-9.73-138.51-1.24-12.46-3.07-26.13-12-34.71q10-5,20.1-9.77l.37.81c16.92,3.44,29,19.13,34.15,35.59s4.93,34.05,6.49,51.24c.66,7.33,1.66,14.72,1,22.06-.51,5.69-2,11.28-2.41,17-.74,10.68,2.42,21.26,2.95,32A98.68,98.68,0,0,1,786.69,619.94Z"/><path class="cls-2" d="M792.06,644c0,.12,0,.22,0,.34-.35,2.94-1.88,5.58-3.11,8.28-7.45,16.05-5.22,34.64-6.2,52.32-.66,12.12-2.91,24.11-5.16,36q-3.69,19.68-7.39,39.37a188.7,188.7,0,0,0-29-14.38c-2.56-1-5.15-1.93-7.74-2.81.66-2.47,1.31-4.93,1.93-7.4,11.45-45.46,15-92.08,14.55-139a136.3,136.3,0,0,1,31.17,18.24C784.86,637.87,788.5,640.9,792.06,644Z"/><path class="cls-4" d="M781.3,634.77l-.2.28a136.3,136.3,0,0,0-31.17-18.24c0-1.8,0-3.61-.09-5.42a58.21,58.21,0,0,1,14.09,7.25C770.4,623.19,775.87,629,781.3,634.77Z"/><path class="cls-5" d="M728.12,438.17c-10.42,5.25-20.74,10.7-31.14,16.22q-2,1-4,2.1a97.15,97.15,0,0,1-18.78,7.74c3.08-7.12,7.55-14.35,11.36-17.63,10.21-8.82,23.3-13.45,36.1-17.7q35.43-11.77,71.41-21.77a261,261,0,0,1-26.67,13.19q-9.26,3.89-18.22,8.08Q738.08,433.13,728.12,438.17Z"/><path class="cls-3" d="M770.16,780.4c-.18,1-.37,2-.56,3-2,10.4-3.94,20.9-8.17,30.58-4,9.11-9.83,17.27-15.89,25.15-9.31,12.12-28.83,32.75-39.71,43.46-.72-5.43,8.47-19.91,8.44-25.43,1.76-6.13,3.28-12.31,4.6-18.54l-.12-2c5-6,1.16-14.85,1-22.77.64-2.83,1.34-5.64,2-8.45,2.29-3.47,6.25-6.29,6.11-10.37-.06-1.79-.94-3.45-1.55-5.13-.07-.2-.14-.39-.19-.59,2.46-8.7,5-17.39,7.33-26.11,2.59.88,5.18,1.81,7.74,2.81A188.7,188.7,0,0,1,770.16,780.4Z"/><path class="cls-3" d="M686.7,1138.49a698.13,698.13,0,0,0-10.53-101.26q24.58-5.51,48.93-12.1L737,1055.22c2.49,6.28,5,12.63,6,19.33,1.54,11.2,1.28,25,4.19,31.64a12.45,12.45,0,0,0,1.56,4.8c.75,1.36,1.66,2.68,2.59,4.49,7.91,15.43,10.25,33,13,50.09-24.22,6.89-48.38,13-73.09,18.88l-5.6,1.32a308,308,0,0,0,1.3-39.39C686.85,1143.76,686.79,1141.12,686.7,1138.49Z"/><path class="cls-6" d="M717.4,608.46a134,134,0,0,1,28.46,6.77c1.38.49,2.73,1,4.07,1.58.46,46.92-3.1,93.54-14.55,139-.62,2.47-1.27,4.93-1.93,7.4-3.33-1.13-6.72-2.17-10.11-3.12-2.59-7-7.06-13.49-10.38-20.31a71.51,71.51,0,0,1-6.46-41.19l-1-.22a3,3,0,0,0-.08-1.67,4,4,0,0,0-1-1.36,36.75,36.75,0,0,0-8.9-6.18c-2.83-28.9-5.69-55.91-7.44-82.55A247.52,247.52,0,0,1,717.4,608.46Z"/><path class="cls-7" d="M749.84,611.39c0,1.81.07,3.62.09,5.42-1.34-.56-2.69-1.09-4.07-1.58a134,134,0,0,0-28.46-6.77A66.76,66.76,0,0,1,749.84,611.39Z"/><path class="cls-7" d="M740.11,472.88c4.5,45.89,9,92.33,9.73,138.51a66.76,66.76,0,0,0-32.44-2.93,247.52,247.52,0,0,0-29.4-1.85c-2.87-43.68-2.79-86.39,5.2-134.93a13.53,13.53,0,0,0,5.3-8.4,12.85,12.85,0,0,0-1.52-8.89c10.4-5.52,20.72-11,31.14-16.22C737,446.75,738.87,460.42,740.11,472.88Z"/><path class="cls-1" d="M736.45,343.53c1.1,3.05-1,6.25-3.08,8.7-4.3,5-15.23,13.55-20.64,17.32-19.9,6-39.56,4.88-58.08,12.25l-.93-2.29a145,145,0,0,0,15-6.74c1.84-1,3.64-2.08,5.38-3.22,7.67-4.92,14.67-10.93,22.07-16.32,9.07-6.62,19.21-12.49,30.39-13.66C730.37,339.18,735.13,339.94,736.45,343.53Z"/><path class="cls-6" d="M727.86,795c.14,4.08-3.82,6.9-6.11,10.37,1.37-5.39,2.85-10.74,4.37-16.09,0,.2.12.39.19.59C726.92,791.59,727.8,793.25,727.86,795Z"/><path class="cls-7" d="M723.34,760.09c3.39.95,6.78,2,10.11,3.12-2.33,8.72-4.87,17.41-7.33,26.11-2.13-6.65-.12-14-.8-21A32,32,0,0,0,723.34,760.09Z"/><path class="cls-2" d="M679.64,840.83c.27-2.45.51-4.91.69-7.37a330.27,330.27,0,0,0,.48-41.38c1.22-1.05,2.4-2.15,3.55-3.32,9.1-9.24,14.89-21,19.71-33.15,6.51,1.23,12.92,2.71,19.27,4.48a32,32,0,0,1,2,8.28c.68,7-1.33,14.3.8,21,4.6,12-3,10.7-4.37,16.09-.15.23-.3.47-.44.72a14.5,14.5,0,0,0-1.59,7.73,119.37,119.37,0,0,1,0,27.21c-.88,6.84-5.48,9.12-5.44,16.1q-3.62,12.9-8.44,25.43-7.64,6.84-15.9,12.94c-2.37,1.74-4.77,3.45-7.23,5.1a78.64,78.64,0,0,0-12.92,11.11,19.91,19.91,0,0,1-9.07,6.38,14.14,14.14,0,0,1-6.08.56C669,895.44,676.66,868.21,679.64,840.83Z"/><path class="cls-2" d="M707.43,980.61l17.67,44.52q-24.33,6.6-48.93,12.1a697.9,697.9,0,0,0-28.43-108.4c2.45-3.28,4.74-6.67,6.89-10.14a14.14,14.14,0,0,0,6.08-.56,19.91,19.91,0,0,0,9.07-6.38,78.64,78.64,0,0,1,12.92-11.11c2.46-1.65,4.86-3.36,7.23-5.1.38,6.16.89,12.41,1.61,18.69,2.56,23.12,7.59,46.71,16.58,67.55Z"/><path class="cls-7" d="M721.31,806.13c.14-.25.29-.49.44-.72-.69,2.81-1.39,5.62-2,8.45A14.5,14.5,0,0,1,721.31,806.13Z"/><path class="cls-2" d="M704.07,755.61c-8.77-1.66-17.64-2.88-26.56-3.8q-1-9-2.07-18c4.86-3.59,9.58-7.38,14.21-11.15,3.94-3.22,6.13-7.86,7.43-12.79a3.65,3.65,0,0,1,.27-.69c1.47-3,7.13-6.79,7.94-10.06.05-.24.12-.49.17-.75l1,.22A71.51,71.51,0,0,0,713,739.78c3.32,6.82,7.79,13.3,10.38,20.31C717,758.32,710.58,756.84,704.07,755.61Z"/><path class="cls-2" d="M705.38,696.7a3,3,0,0,1,.08,1.67c-.05.26-.12.51-.17.75-.81,3.27-6.47,7-7.94,10.06-.63-6.79-1.27-13.45-1.91-20a36.75,36.75,0,0,1,8.9,6.18A4,4,0,0,1,705.38,696.7Z"/><path class="cls-8" d="M697,454.39a12.85,12.85,0,0,1,1.52,8.89,13.53,13.53,0,0,1-5.3,8.4,14.28,14.28,0,0,1-3.64,2,97.55,97.55,0,0,1-19.13,5.12c0-.53.05-1.07.08-1.59.19-3.41,1.63-8.16,3.73-13A97.15,97.15,0,0,0,693,456.49Q695,455.42,697,454.39Z"/><path class="cls-5" d="M675.44,733.81c-8.48,6.3-17.39,12-27,15.84l-5.28-.27c12.73-14.4,14.95-36.58,16-56.42l4.53-86.07a3.17,3.17,0,0,1,.44,0c7.9-.17,15.88-.34,23.85-.26,1.75,26.64,4.61,53.65,7.44,82.55.64,6.57,1.28,13.23,1.91,20a3.65,3.65,0,0,0-.27.69c-1.3,4.93-3.49,9.57-7.43,12.79C685,726.43,680.3,730.22,675.44,733.81Z"/><path class="cls-2" d="M704.07,755.61c-4.82,12.14-10.61,23.91-19.71,33.15-1.15,1.17-2.33,2.27-3.55,3.32-.61-13.43-1.83-26.85-3.3-40.27C686.43,752.73,695.3,754,704.07,755.61Z"/><path class="cls-6" d="M685.6,1185.77l5.6-1.32a76.53,76.53,0,0,1-6.6,9.13C685,1191,685.33,1188.38,685.6,1185.77Z"/><path class="cls-5" d="M689.56,473.67a14.28,14.28,0,0,0,3.64-2c-8,48.54-8.07,91.25-5.2,134.93-8-.08-16,.09-23.85.26a3.17,3.17,0,0,0-.44,0q3.35-64.07,6.72-128.1A97.55,97.55,0,0,0,689.56,473.67Z"/><path class="cls-7" d="M686.9,1146.38a308,308,0,0,1-1.3,39.39c-20.64,4.86-41.72,9.52-63.55,14.27q-10.8,2.37-22.5,4.42a413.21,413.21,0,0,0,87.15-66C686.79,1141.12,686.85,1143.76,686.9,1146.38Z"/><path class="cls-6" d="M599.55,1204.46q11.69-2.06,22.5-4.42c21.83-4.75,42.91-9.41,63.55-14.27-.27,2.61-.61,5.22-1,7.81a145.52,145.52,0,0,1-5.23,22.7c-9.91,30.91-30.94,56.25-54.14,79.49H205.87c8.71-33.68,18.56-73.81,27.57-109.22,51.44,22,108,31.73,164.08,32.8C456.82,1220.47,536.76,1215.55,599.55,1204.46Z"/><path class="cls-6" d="M640.2,752.44a73.2,73.2,0,0,0,8.28-2.79c9.67.5,19.37,1.17,29,2.16,1.47,13.42,2.69,26.84,3.3,40.27a330.27,330.27,0,0,1-.48,41.38c-.18,2.46-.42,4.92-.69,7.37-3,27.38-10.67,54.61-25,77.86a14.78,14.78,0,0,1-7.3-3l-13.44-10.46L592.6,873.05c-5.36-4.18-10.83-8.48-14.54-14.19s-5.44-12.53-7.08-19.18c-2.86-11.55-5.72-23.23-5.74-35.14,0-3.89.29-7.87-.71-11.65s-3.35-7.33-5-11c-.19-.42-.36-.84-.53-1.25-4-10.26-2.5-21.45-1.15-32.71q11.28-.17,22.56-.11a28.38,28.38,0,0,0,4.74,2.46c5.72,2.34,12,3,18.13,3.54,9.87.91,19.87,1.73,29.67.2A63.64,63.64,0,0,0,640.2,752.44Zm2.36,123.2a7.24,7.24,0,1,0-7.23,7.25A7.23,7.23,0,0,0,642.56,875.64Zm-36.82-74.33a7.24,7.24,0,1,0-7.23,7.23A7.24,7.24,0,0,0,605.74,801.31Z"/><path class="cls-9" d="M466.52,62.83c-11.33,3.15-21.91,9.25-32.14,15.29-.37.07-.72.16-1.08.24l-1.19-.42a98.87,98.87,0,0,1-2.82-33.17c.91-4.76,2-9.74,3.3-14.75C442.31,11.29,464.25,1.23,485.33.86s41.47,7.45,60.32,16.93c18.59,9.35,36.49,20.59,51,35.51,17.78,18.24,29.8,41.28,39.79,64.72,4.83,11.29,9.28,23,9.91,35.3.39,7.84-.8,15.73-.07,23.56,2.34,25.63,23.91,45,33.39,69,9.8,24.74,6.06,52.66.31,78.65-3.59,16.24-8,29-5.9,45.07-1.74,1.14-3.54,2.22-5.38,3.22a145,145,0,0,1-15,6.74c-4.07,1.66-8.12,3.32-12,5.28-8.82,4.41-17.25,10.76-21.1,19.85-2.39,5.67-2.86,12.48-2.79,19.44A6.5,6.5,0,0,0,613,420a32.22,32.22,0,0,0-13.79.37c-2.59-2.21-5.16-4.67-7.8-7.41h-.07a44.16,44.16,0,0,0-.83-6.44h0c-.47-2.1-2.15-3.75-3.74-5.24a4.75,4.75,0,0,0-2.34-1.45,5.1,5.1,0,0,0-2.84.54,9.28,9.28,0,0,1,2.84,5.6c-10.29-11.71-16.68-23.79-18.66-36.39-1.47-9.46-2.82-19.45-1.88-29a111.81,111.81,0,0,1,3.22-17.06h0c1.2-1.43,2.37-2.86,3.47-4.34a79.49,79.49,0,0,0,11.92-22.06,72.2,72.2,0,0,1-6-13.36c-10.25-31.26,3.92-66.34-5.17-98-1.91-6.63-4.91-13.08-9.79-17.94-5.6-5.58-13.2-8.6-19.79-13a57,57,0,0,1-25.1-45.6c-.16-8.82,1.71-17.86-.77-26.33a26.32,26.32,0,0,0-3.63-7.52C505.08,65,490.72,59.77,477.66,60.82A58.88,58.88,0,0,0,466.52,62.83Z"/><path class="cls-6" d="M677.51,751.81c-9.66-1-19.36-1.66-29-2.16,9.57-3.86,18.48-9.54,27-15.84Q676.53,742.81,677.51,751.81Z"/><path class="cls-7" d="M676.17,1037.23a698.13,698.13,0,0,1,10.53,101.26,413.21,413.21,0,0,1-87.15,66c-62.79,11.09-142.73,16-202,14.89-56.1-1.07-112.64-10.82-164.08-32.8,1.39-5.44,2.76-10.77,4.1-15.94,3-11.75,6.1-23.58,11.24-34.57,4.29-9.13,10.11-18.26,9.45-28.31-.27-4.12-1.62-8.1-1.79-12.21-.36-8.47,4.26-16.22,8.34-23.66,3.15-4,3-10.6,3.14-15.66.06-3.61-.68-7.23-.1-10.77a19.76,19.76,0,0,1,2.89-7.28c59.94,24.11,127.57,28.29,192.8,26.18q20.52-.66,41-2.07A315.16,315.16,0,0,1,421.7,1122a335.13,335.13,0,0,0,133.58-64.41A1139.22,1139.22,0,0,0,676.17,1037.23Z"/><path class="cls-6" d="M415.77,942.11c7.51-6.39,12.21-15.89,16.53-25l2.85-6c69.25,1.61,131.85.54,198.74-6l13.44,10.46a14.78,14.78,0,0,0,7.3,3c-2.15,3.47,2.45-3.29,0,0,12.36,35.29,15,81.72,21.54,118.54a1139.22,1139.22,0,0,1-120.89,20.39q-25.32,2.89-50.74,4.64-20.51,1.4-41,2.07c-65.23,2.11-132.86-2.07-192.8-26.18,2-3.2,4.52-6.16,6.64-9.28,7.58-11.16,11.51-24.62,13.07-38.17a75.68,75.68,0,0,1,4.37-18,238.68,238.68,0,0,0,13.11-55.9c6.33,3.05,13.64,4.78,20.3,7.21a100.06,100.06,0,0,1,10.65,4.7c9.89,5,19.25,11.1,29.39,15.59,13.7,6.05,30.36,8.74,43.18,1A29.77,29.77,0,0,0,415.77,942.11Z"/><path class="cls-10" d="M674.24,464.23c-2.1,4.81-3.54,9.56-3.73,13,0,.52,0,1.06-.08,1.59-26.89,4.21-45.08-6.13-54-14.16a40.05,40.05,0,0,1-3.13-3.13,14.4,14.4,0,0,1-3.71-9.77c.15-9.16,5.76-13.12,5.76-13.12h.12c-.36,1.71.12,4,2.74,6.93C623.61,451.53,639.44,474.12,674.24,464.23Z"/><path class="cls-1" d="M670.43,478.79q-3.36,64-6.72,128.1-36.63.75-73.27,1.57c5-26.38,10.14-52.71,15.73-79,4.54-21.27,9.38-42.59,10.29-64.86C625.35,472.66,643.54,483,670.43,478.79Z"/><path class="cls-1" d="M570.57,724.43c.16-2.11.34-4.21.58-6.33,1.05-9.9,2.83-19.76,4.59-29.56,4.83-26.71,9.65-53.41,14.7-80.08q36.62-.81,73.27-1.57L659.18,693c-1,19.84-3.25,42-16,56.42l-.32,0q-31.2-1.47-62.43-1.58a32.64,32.64,0,0,1-10.33-10.39l.07,0Q570.09,730.89,570.57,724.43Z"/><path class="cls-1" d="M643.2,749.38l5.28.27a73.2,73.2,0,0,1-8.28,2.79A39.27,39.27,0,0,0,643.2,749.38Z"/><path class="cls-1" d="M642.88,749.36l.32,0a39.27,39.27,0,0,1-3,3.06A63.64,63.64,0,0,1,633,754c-9.8,1.53-19.8.71-29.67-.2-6.16-.58-12.41-1.2-18.13-3.54a28.38,28.38,0,0,1-4.74-2.46Q611.68,747.87,642.88,749.36Z"/><path class="cls-11" d="M635.33,868.41a7.24,7.24,0,1,1-7.25,7.23A7.23,7.23,0,0,1,635.33,868.41Z"/><path class="cls-7" d="M500.08,757.89l1.58-.08A288.08,288.08,0,0,0,531,756.12a2.46,2.46,0,0,1,.37,0,135.87,135.87,0,0,0,25.15-4.77c-1.35,11.26-1.49,19.3,2.57,29.29.17.41.34.83.53,1.25,1.61,3.71,3.94,7.13,5,11s.69,7.76.71,11.65c0,11.91,2.88,23.59,5.74,35.14,1.64,6.65,3.34,13.44,7.08,19.18s9.18,10,14.54,14.19l41.29,32.18a613,613,0,0,0-198.74,6l11.44-24c1.7-3.54,3.41-7.18,3.69-11.1.34-4.65-1.38-9.19-1.82-13.83-.61-6.81,1.57-13.61,1.13-20.44-1-16.22-16.34-28.39-19.08-44.43-1.85-10.89,2.13-23.18-3.86-32.46-2.41-3.69-5.9-6.16-9.79-8.23,6.38.75,12.22,1.22,17.85,1.52.2,0,.39,0,.57,0C458.46,759.71,478.78,759,500.08,757.89Z"/><path class="cls-7" d="M618.17,435c.16,3.67.24,7.25.07,10.55-2.62-2.9-3.1-5.22-2.74-6.93A5.81,5.81,0,0,1,618,435Z"/><path class="cls-7" d="M367.92,438.71c.82,12.46,7.72,24.23,17.09,32.65,10,9,22.62,14.63,35.44,18.86.18.07.39.12.57.18,4.54,1.49,9.13,2.83,13.74,4a219.89,219.89,0,0,0,99.44,2.29c2.54-.53,5.08-1.1,7.62-1.73,1.53-.37,3.07-.78,4.59-1.19,13.72-3.69,27.15-9,38.32-17.72A84,84,0,0,0,599,461.58c7.05-9,12.62-19.3,17.44-29.86.41-.89.82-1.77,1.21-2.65.1-.2.16-.42.25-.64.07,2.22.17,4.42.25,6.57H618a5.81,5.81,0,0,0-2.49,3.62h-.12s-5.61,4-5.76,13.12a14.4,14.4,0,0,0,3.71,9.77,40.05,40.05,0,0,0,3.13,3.13c-.91,22.27-5.75,43.59-10.29,64.86-5.59,26.26-10.77,52.59-15.73,79l-75.32,1.61q-20.3.43-40.57.88l-92.61,2c-23.33.51-46.9,1.05-70,4-16.45-23.86-32.45-47.94-47-72.76-4.05-6.89-5.86-9.85-7.91-19-2.72-12.59-5.76-25.74-14.2-35.46a42,42,0,0,0-6.24-5.83c-1.16-6.11-2.23-12.26-3.2-18.4,2-1.71,4-3.42,6.2-5,11.92-8.65,26.76-11.82,41.23-14.72l2.24-.45a169.75,169.75,0,0,0,19.42-4.76c5.15-1.71,10.16-3.9,15.37-5.39,6.57-1.86,13.4-2.6,20.17-3.35,12.65-1.37,25.32-2.76,38-2.72l0,1.05a30.15,30.15,0,0,0-4.13.27,5,5,0,0,0-3.15,1.32,4.91,4.91,0,0,0-.87,3.08A32.3,32.3,0,0,0,367.92,438.71Z"/><path class="cls-3" d="M617.92,428.41v0c-.09.22-.15.44-.25.64-.39.88-.8,1.76-1.21,2.65a76.16,76.16,0,0,1-17.29-11.37A32.22,32.22,0,0,1,613,420a6.5,6.5,0,0,1,4.86,4.1C617.82,425.52,617.85,427,617.92,428.41Z"/><path class="cls-5" d="M581.53,448.51c1-1.78,2-3.59,2.91-5.45,4.57-9.35,7.45-19.81,6.86-30.12h.07c2.64,2.74,5.21,5.2,7.8,7.41a76.16,76.16,0,0,0,17.29,11.37c-4.82,10.56-10.39,20.86-17.44,29.86-4.38-2.76-9.21-5.11-13.51-7.95a56.42,56.42,0,0,1-4.86-3.64Z"/><path class="cls-11" d="M598.51,794.06a7.24,7.24,0,1,1-7.24,7.25A7.24,7.24,0,0,1,598.51,794.06Z"/><path class="cls-8" d="M584.44,405.94a9.28,9.28,0,0,0-2.84-5.6,5.1,5.1,0,0,1,2.84-.54,4.75,4.75,0,0,1,2.34,1.45c1.59,1.49,3.27,3.14,3.74,5.24h0a44.16,44.16,0,0,1,.83,6.44c.59,10.31-2.29,20.77-6.86,30.12-.91,1.86-1.88,3.67-2.91,5.45l-.88,1.48a60.23,60.23,0,0,1-5.1-4.75,90.39,90.39,0,0,0,4.61-9.24c3.77-9,5.81-18.88,4.54-28.55C584.63,406.94,584.54,406.45,584.44,405.94Z"/><path class="cls-6" d="M515.12,610.07l75.32-1.61c-5.05,26.67-9.87,53.37-14.7,80.08-1.76,9.8-3.54,19.66-4.59,29.56l-.13,0-5.25.29a7.34,7.34,0,0,0-6.88,8.13c.68,7-1.57,17.63-2.42,24.81a155,155,0,0,1-25.15,4.77,2.46,2.46,0,0,0-.37,0c-9.4.91-18.83,1.11-29.29,1.69-2.81-16.53-7.62-39.95-8-51.6,0-.37,0-.72,0-1.08a150.49,150.49,0,0,1,1.48-21.76v0c3.3-24.08,11.66-47.53,20.08-70.47Z"/><path class="cls-1" d="M599,461.58a84,84,0,0,1-14.29,14.47c-11.17,8.73-24.6,14-38.32,17.72,5.57-6.92,11.13-12.78,16.68-19.71,6.23-7.75,12.5-15.56,17.56-24.07a56.42,56.42,0,0,0,4.86,3.64C589.81,456.47,594.64,458.82,599,461.58Z"/><path class="cls-5" d="M584.7,407.45c1.27,9.67-.77,19.56-4.54,28.55a90.39,90.39,0,0,1-4.61,9.24c-11-11.39-18.28-26.61-26.5-40.48-10-16.93-24.5-33.95-43.72-36.58a1.7,1.7,0,0,0,.31-.06c10-2.65,18.71-8.81,27.11-14.91,12.66-9.19,24.79-18.45,34.37-29.7a111.81,111.81,0,0,0-3.22,17.06c-.94,9.53.41,19.52,1.88,29,2,12.6,8.37,24.68,18.66,36.39C584.54,406.45,584.63,406.94,584.7,407.45Z"/><path class="cls-6" d="M580.45,747.78q-11.28,0-22.56.11c.85-7.18,1.68-14.4,1-21.39a7.34,7.34,0,0,1,6.88-8.13l5.25-.29.13,0c-.24,2.12-.42,4.22-.58,6.33a5.92,5.92,0,0,0-3.14,7.64,30.52,30.52,0,0,0,2.69,5.32A32.64,32.64,0,0,0,580.45,747.78Z"/><path class="cls-5" d="M576.54,283.74a72.2,72.2,0,0,0,6,13.36,79.49,79.49,0,0,1-11.92,22.06,111.35,111.35,0,0,1-11.68-26.84c-5.59-20.32-4-41.82-5.13-62.87s-5.88-43.4-21-58c-8.53-8.23-20.17-13.82-25.57-24.39-4.54-8.87-3.69-19.39-4.79-29.29-1.95-17.63-10.87-34.24-24-46.13a113.36,113.36,0,0,1,33.9,3.81,26.32,26.32,0,0,1,3.63,7.52c2.48,8.47.61,17.51.77,26.33a57,57,0,0,0,25.1,45.6c6.59,4.37,14.19,7.39,19.79,13,4.88,4.86,7.88,11.31,9.79,17.94C580.46,217.4,566.29,252.48,576.54,283.74Z"/><path class="cls-10" d="M575.55,445.24a60.23,60.23,0,0,0,5.1,4.75c-5.06,8.51-11.33,16.32-17.56,24.07-5.55,6.93-11.11,12.79-16.68,19.71-1.52.41-3.06.82-4.59,1.19-2.54.63-5.08,1.2-7.62,1.73A315,315,0,0,0,565.05,461c3.09-4.13,6.07-8.35,8.74-12.74C574.4,447.24,575,446.24,575.55,445.24Z"/><path class="cls-1" d="M412.83,453.1h0c-3.37-9.63-6.28-19.64-9.21-29.65a22.76,22.76,0,0,1-1.2-7,71.83,71.83,0,0,0,5.31-10c11.33-24,16.9-51.55,10.62-77.3l.34-.34a147.07,147.07,0,0,0,18.74,15.88c10.13,7.25,20.34,14.57,31.79,19.43s24.18,7.14,36.13,4.09c19.22,2.63,33.7,19.65,43.72,36.58,8.22,13.87,15.46,29.09,26.5,40.48-.57,1-1.15,2-1.76,3-2.67,4.39-5.65,8.61-8.74,12.74a315,315,0,0,1-30.85,35.73,219.89,219.89,0,0,1-99.44-2.29C424.82,482.77,418.21,468.44,412.83,453.1Z"/><path class="cls-1" d="M433.3,78.36l.41.15.67-.39a294.49,294.49,0,0,1,32.55-5.64c3.86-.45,7.67-.76,11.46-.88,13.11,11.89,22,28.5,24,46.13,1.1,9.9.25,20.42,4.79,29.29,5.4,10.57,17,16.16,25.57,24.39,15.17,14.64,19.91,37,21,58s-.46,42.55,5.13,62.87a111.35,111.35,0,0,0,11.68,26.84c-1.1,1.48-2.27,2.91-3.47,4.34h0c-9.58,11.25-21.71,20.51-34.37,29.7-8.4,6.1-17.07,12.26-27.11,14.91a1.7,1.7,0,0,1-.31.06c-11.95,3.05-24.77.75-36.13-4.09s-21.66-12.18-31.79-19.43a147.07,147.07,0,0,1-18.74-15.88c-9.09-9.16-16.8-19.71-21.13-31.26-5.35-14.19-9.57-35.08-10.7-50.22-1.41-18.75-2.14-28.53-2.65-47.34-.4-15.67,2.32-31.23,5.37-46.59,5.27-26.55,13.09-55.32,35.24-70.86a268.47,268.47,0,0,1,4.49-37.74,98.87,98.87,0,0,0,2.82,33.17Z"/><path class="cls-12" d="M570.57,724.43q-.48,6.45-.38,12.91l-.07,0a30.52,30.52,0,0,1-2.69-5.32A5.92,5.92,0,0,1,570.57,724.43Z"/><path class="cls-7" d="M435.15,911.19a613,613,0,0,1,198.74-6C567,911.73,504.4,912.8,435.15,911.19Z"/><path class="cls-6" d="M531.32,756.08a155,155,0,0,0,25.15-4.77A135.87,135.87,0,0,1,531.32,756.08Z"/><path class="cls-6" d="M515.12,610.07l.07,2.78c-8.42,22.94-16.78,46.39-20.08,70.47C494,658.9,486.55,632.81,474.55,611Q494.85,610.48,515.12,610.07Z"/><path class="cls-7" d="M504.54,1062.26q25.43-1.76,50.74-4.64A335.13,335.13,0,0,1,421.7,1122,315.16,315.16,0,0,0,504.54,1062.26Z"/><path class="cls-6" d="M501.66,757.81l-1.58.08v-.06Z"/><path class="cls-6" d="M501.66,757.81l-1.58,0c-.49-2.66-1-5.32-1.4-8-2.81-16.51-4.83-32.48-5-43.66C494,717.86,498.85,741.28,501.66,757.81Z"/><path class="cls-6" d="M500.08,757.83v.06c-21.3,1.14-41.62,1.82-64.8.36C454.91,759.28,471.91,758.11,500.08,757.83Z"/><path class="cls-6" d="M498.68,749.87c.44,2.64.91,5.3,1.4,8-28.17.28-45.17,1.45-64.8.42-.18,0-.37,0-.57,0-5.76-.35-11.69-.86-17.85-1.52-5.59-3-12-5.06-17.09-8.82-26.73-45-58-87.59-87.84-130.91,23.11-3,46.68-3.52,70-4l92.61-2c12,21.86,19.49,47.95,20.56,72.37v0a150.49,150.49,0,0,0-1.48,21.76c0,.36,0,.71,0,1.08C493.85,717.39,495.87,733.36,498.68,749.87Z"/><path class="cls-13" d="M512.29,75.41a113.36,113.36,0,0,0-33.9-3.81,72.36,72.36,0,0,0-11.87-8.77,58.88,58.88,0,0,1,11.14-2C490.72,59.77,505.08,65,512.29,75.41Z"/><path class="cls-13" d="M478.39,71.6c-3.79.12-7.6.43-11.46.88a294.49,294.49,0,0,0-32.55,5.64c10.23-6,20.81-12.14,32.14-15.29A72.36,72.36,0,0,1,478.39,71.6Z"/><path class="cls-2" d="M419.47,878.42q-.18-7.47-.66-14.92c-1.22-18.76-4.34-38.62-16.72-52.78l-1.2-.17c8.6-6.85,14.17-17.39,18.32-27.85.12-.32.26-.63.37-1,1.7-4.37,3.2-9.5.83-13.56a16.31,16.31,0,0,0-4.09-4.2c-3-2.39-9.05-6.4-12-8.45,3.17-.39-7.68-7.32-4.52-7.67,3.9,2.06,24.47,13.36,26.88,17,6,9.28,2,21.57,3.86,32.46,2.74,16,18,28.21,19.08,44.43.44,6.83-1.74,13.63-1.13,20.44.44,4.64,2.16,9.18,1.82,13.83-.28,3.92-2,7.56-3.69,11.1l-11.44,24-2.85,6c-4.32,9.06-9,18.56-16.53,25A380.1,380.1,0,0,0,419.47,878.42Z"/><path class="cls-9" d="M376,429.18c-12.7,0-25.37,1.35-38,2.72-6.77.75-13.6,1.49-20.17,3.35-5.21,1.49-10.22,3.68-15.37,5.39A169.75,169.75,0,0,1,283,445.4l-2.24.45h0c-2-20.39,7.77-31,17.87-49.6,12.15-22.38,25.95-46.29,22.62-71.52-1.34-10.2-5.44-19.78-7.86-29.77a91.43,91.43,0,0,1,2.1-49.87c5.81-17.51,16.92-33.15,20.73-51.2,5-23.57-3.08-48.23.52-72,4.24-28,23.73-50.89,42.4-72.14,6.56-7.45,13.28-15,22-19.74s20-6,28.33-.64l3.08.71a58.42,58.42,0,0,0-3.3,14.75,268.47,268.47,0,0,0-4.49,37.74c-22.15,15.54-30,44.31-35.24,70.86-3.05,15.36-5.77,30.92-5.37,46.59.51,18.81,1.24,28.59,2.65,47.34,1.13,15.14,5.35,36,10.7,50.22,4.33,11.55,12,22.1,21.13,31.26l-.34.34c6.28,25.75.71,53.32-10.62,77.3a71.83,71.83,0,0,1-5.31,10,8,8,0,0,1,1-3.74,9.35,9.35,0,0,0-7.23,6.89,16.72,16.72,0,0,0-.25,4.53c0,.2,0,.4,0,.61-1.37,1.72-1.15,2-2.74,3.52a35,35,0,0,1-5.59,4.33l-.08-.15a31,31,0,0,0-11.5-2.18Z"/><path class="cls-10" d="M402.4,416.42a22.76,22.76,0,0,0,1.2,7c2.93,10,5.84,20,9.21,29.65h0c5.38,15.34,12,29.67,21.93,41.3-4.61-1.17-9.2-2.51-13.74-4a217.74,217.74,0,0,1-24.92-66.32l-.22,0a16.72,16.72,0,0,1,.25-4.53,9.35,9.35,0,0,1,7.23-6.89A8,8,0,0,0,402.4,416.42Z"/><path class="cls-1" d="M404.4,454.3A216.39,216.39,0,0,0,421,490.4c-.18-.06-.39-.11-.57-.18C407.63,486,395,480.36,385,471.36c-9.37-8.42-16.27-20.19-17.09-32.65a39.09,39.09,0,0,0,19.66-6.15,35,35,0,0,0,5.59-4.33c1.59-1.54,1.37-1.8,2.74-3.52,0-.21,0-.41,0-.61l.22,0A216.17,216.17,0,0,0,404.4,454.3Z"/><path class="cls-2" d="M420.41,768.19c2.37,4.06.87,9.19-.83,13.56-.11.32-.25.63-.37,1q-6.48-12.5-13.53-24.69c.56-.08,1.12-.15,1.68-.2,3,2.05,6,3.79,9,6.18A16.31,16.31,0,0,1,420.41,768.19Z"/><path class="cls-6" d="M321.39,904.55c-3.78-5-5.35-11.85-9.68-16.53-3.36-3.64-8.2-5.72-11.27-9.6s-3.91-8.75-5.26-13.38c-2.78-9.46-7.71-18.11-12.58-26.68q-9.08-15.86-18.14-31.75l.36-.2c2.52,4.48,6.75,8.09,11.09,11.31.83.61,1.66,1.22,2.49,1.79,8.5,6,17.07,12.16,26.63,16.29s20.34,6.23,30.5,3.9c13.46-3.07,24.15-13.33,37.12-18.11,1.77-.64,3.59-1.18,5.4-1.69,5.55-1.54,11.24-2.69,16.41-5.23a34.68,34.68,0,0,0,6.43-4.12l1.2.17c12.38,14.16,15.5,34,16.72,52.78q.48,7.44.66,14.92a380.1,380.1,0,0,1-3.7,63.69,29.77,29.77,0,0,1-4.35,3.18c-12.82,7.74-29.48,5.05-43.18-1-10.14-4.49-19.5-10.63-29.39-15.59-7.54-6.86-14.46-14.41-17.78-23.91Zm94.6,3.3a7.24,7.24,0,1,0-7.23,7.23A7.23,7.23,0,0,0,416,907.85Zm-6.38-68.73a7.24,7.24,0,1,0-7.23,7.23A7.24,7.24,0,0,0,409.61,839.12Z"/><path class="cls-11" d="M408.76,900.6a7.24,7.24,0,1,1-7.24,7.25A7.23,7.23,0,0,1,408.76,900.6Z"/><path class="cls-5" d="M419.21,782.7c-4.15,10.46-9.72,21-18.32,27.85a34.68,34.68,0,0,1-6.43,4.12c-5.17,2.54-10.86,3.69-16.41,5.23-.83-18-7.57-37.23-16.61-55.84q22.07-3.39,44.24-6Q412.75,770.23,419.21,782.7Z"/><path class="cls-11" d="M402.38,831.87a7.24,7.24,0,1,1-7.25,7.25A7.24,7.24,0,0,1,402.38,831.87Z"/><path class="cls-4" d="M407.36,757.81c-.56.05-1.12.12-1.68.2-.45-.83-.93-1.64-1.4-2.45v0C405.31,756.37,406.33,757.1,407.36,757.81Z"/><path class="cls-5" d="M399.77,747.87q2.3,3.81,4.51,7.69c.47.81,1,1.62,1.4,2.45q-22.17,2.67-44.24,6c-10.28-21.12-23.56-41.39-34.56-58a600.08,600.08,0,0,1-46.16-83.32A261.32,261.32,0,0,1,311.93,617C341.76,660.28,373,702.88,399.77,747.87Z"/><path class="cls-3" d="M387.5,432.41l.08.15a39.09,39.09,0,0,1-19.66,6.15,32.3,32.3,0,0,1-.07-3.81,4.91,4.91,0,0,1,.87-3.08,5,5,0,0,1,3.15-1.32,30.15,30.15,0,0,1,4.13-.27A31,31,0,0,1,387.5,432.41Z"/><path class="cls-1" d="M378.05,819.9c-1.81.51-3.63,1.05-5.4,1.69-13,4.78-23.66,15-37.12,18.11-10.16,2.33-20.93.23-30.5-3.9s-18.13-10.24-26.63-16.29c-.83-.57-1.66-1.18-2.49-1.79l3-.05c-2.08-9-4.16-18-6.3-27a111.92,111.92,0,0,1,12.82-7.35c19.83-9.67,41.83-13.8,63.6-17.34q6.22-1,12.45-2C370.48,782.67,377.22,801.92,378.05,819.9Z"/><path class="cls-1" d="M269.54,778c-10.94-45.48-23.06-90.73-39.45-134.19a166.87,166.87,0,0,1,37.83-17.39c4.23-1.36,8.5-2.56,12.8-3.64a600.08,600.08,0,0,0,46.16,83.32c11,16.61,24.28,36.88,34.56,58q-6.22.93-12.45,2c-21.77,3.54-43.77,7.67-63.6,17.34a111.92,111.92,0,0,0-12.82,7.35Q271.07,784.34,269.54,778Z"/><path class="cls-7" d="M264.46,806.61q9.07,15.87,18.14,31.75c4.87,8.57,9.8,17.22,12.58,26.68,1.35,4.63,2.27,9.59,5.26,13.38s7.91,6,11.27,9.6c4.33,4.68,5.9,11.57,9.68,16.53l-.32.24c3.32,9.5,10.24,17.05,17.78,23.91A100.06,100.06,0,0,0,328.2,924c-6.66-2.43-14-4.16-20.3-7.21a28.75,28.75,0,0,1-10.6-8.08c-7.12-9-6.68-22.55-14.38-31.08-4.47-5-11-7.44-16.24-11.57-12.38-9.77-15.73-26.92-24.64-40a76.3,76.3,0,0,1,20.42-27.62,19.37,19.37,0,0,0,.44,3.08,18.6,18.6,0,0,0,1.92,4.85Z"/><path class="cls-5" d="M311.93,617a261.32,261.32,0,0,0-31.21,5.78A609.87,609.87,0,0,1,236.57,484a42,42,0,0,1,6.24,5.83c8.44,9.72,11.48,22.87,14.2,35.46,2.05,9.11,3.86,12.07,7.91,19C279.48,569,295.48,593.1,311.93,617Z"/><path class="cls-2" d="M278.87,817.67l-3,.05c-4.34-3.22-8.57-6.83-11.09-11.31a18.6,18.6,0,0,1-1.92-4.85,19.37,19.37,0,0,1-.44-3.08,96.51,96.51,0,0,1,10.11-7.77C274.71,799.7,276.79,808.69,278.87,817.67Z"/><path class="cls-2" d="M269.54,778q1.53,6.38,3,12.75a96.51,96.51,0,0,0-10.11,7.77C262.07,791.35,265.83,784.29,269.54,778Z"/><path class="cls-1" d="M22,440.77v0c6.71-3.64,14.45-6.89,21.81-4.81a33.56,33.56,0,0,1,8.23,4.12q5.63,3.45,11.31,6.8l.07-.1c7.35-3.27,15.77.24,23.12,3.49,12.17,5.38,24.6,10.16,37.13,14.65C133.86,468.53,144.21,472,155,473c2.13.19,4.3.29,6.47.32-5-.42-9.18-6-10.13-10.85a30.31,30.31,0,0,1-.59-3.9,5,5,0,0,1,6.53-5.08c12,3.95,20.09,5.12,29.31,9.2,9.44,4.16,18.56,5.15,28,9.31,2,.9,4.05,1.8,6.07,2.74a81.93,81.93,0,0,1,16,9.23,609.87,609.87,0,0,0,44.15,138.79c-4.3,1.08-8.57,2.28-12.8,3.64a166.87,166.87,0,0,0-37.83,17.39,563.35,563.35,0,0,0-38.73-83.11,26.48,26.48,0,0,1-1.27-2.63c-2.45-5.6-7.4-9.53-13-12.58a86.8,86.8,0,0,0-8.6-4S68.89,510.74,9.93,507.3A4.8,4.8,0,0,1,6.1,500c3.56-6,10.18-10.31,17.09-12.1,9.36-2.43,19.25-1.11,28.83.23q8.35,1.17,16.73,2.32v0A536.52,536.52,0,0,0,.85,451.37a9.19,9.19,0,0,1,4.73-8.14c2.91-1.73,6.36-2.25,9.75-2.49A40.5,40.5,0,0,1,22,440.77Z"/><path class="cls-6" d="M269.54,778c-3.71,6.33-7.47,13.39-7.08,20.52A76.3,76.3,0,0,0,242,826.1c-.44-.66-.89-1.31-1.37-1.93-3.81-5-8.57-9.28-12.88-13.9A99,99,0,0,1,202,753.83c-1.59-14.83,0-30.87-7.84-43.59-2.91-4.75-7-8.73-9.66-13.63-.41-.76-.8-1.54-1.14-2.32,9.84-21.13,26.72-38.08,46.72-50.52C246.48,687.23,258.6,732.48,269.54,778Z"/><path class="cls-7" d="M233.37,465.55c1,6.14,2,12.29,3.2,18.4a81.93,81.93,0,0,0-16-9.23C225.36,472.47,229.34,469,233.37,465.55Z"/><path class="cls-7" d="M191.36,560.66a563.35,563.35,0,0,1,38.73,83.11c-20,12.44-36.88,29.39-46.72,50.52-4.05-9.26-3.59-20.2-7.57-29.6-1.81-4.28-6.72-7.62-6.92-12.25-.12-2.65.81-5.2,1.52-7.74,5.44-19.44-2-40.07-1-60.22.29-6,1.33-11.9,1.6-17.86.39-8.4,4.13-10.65,6.14-21.17,5.57,3,10.52,7,13,12.58A26.48,26.48,0,0,0,191.36,560.66Z"/><path class="cls-14" d="M494,370.42a65.32,65.32,0,0,1-25.15-5.56C457.36,360,447,352.56,437,345.39a147.62,147.62,0,0,1-18.91-16c-10.11-10.19-17.29-20.81-21.33-31.56-5.12-13.59-9.54-34.34-10.75-50.46-1.37-18.34-2.13-28.44-2.64-47.38-.42-16,2.43-31.9,5.38-46.77,5.53-27.86,13.63-55.75,35.24-71.15a276.25,276.25,0,0,1,4.48-37.45c1-5.33,2.11-10.17,3.32-14.81l1.64.43c-1.2,4.6-2.27,9.41-3.29,14.69a270.72,270.72,0,0,0-4.47,37.62l0,.42-.34.24c-21.39,15-29.41,42.68-34.9,70.34-2.93,14.78-5.76,30.54-5.35,46.39.51,18.9,1.27,29,2.64,47.31,1.2,16,5.58,36.53,10.65,50,3.95,10.53,11,20.95,20.94,31A146.59,146.59,0,0,0,437.91,344c10,7.15,20.28,14.51,31.62,19.33,8.79,3.74,22.11,7.49,35.59,4.05l.25-.05c10.22-2.69,19.07-9.11,26.88-14.78,12-8.7,24.49-18.14,34.23-29.57l1.29,1.1c-9.86,11.57-22.46,21.08-34.53,29.84-7.93,5.76-16.91,12.28-27.39,15a2,2,0,0,1-.37.09A46.59,46.59,0,0,1,494,370.42Z"/><path class="cls-14" d="M567.77,324l-1.3-1.09c1.34-1.58,2.47-3,3.44-4.29a78.19,78.19,0,0,0,11.8-21.84l1.6.56a79.93,79.93,0,0,1-12,22.29C570.27,321,569.13,322.44,567.77,324Z"/><path class="cls-14" d="M280,445.92c-1.63-16.6,4.42-26.84,12.07-39.8,1.91-3.24,3.89-6.59,5.89-10.28l1.6-2.93c11.84-21.74,24.08-44.22,20.93-68.08-.82-6.26-2.74-12.42-4.59-18.38-1.14-3.68-2.33-7.49-3.25-11.3a92.73,92.73,0,0,1,2.12-50.34,183.64,183.64,0,0,1,9.3-21.63c4.53-9.42,9.22-19.16,11.4-29.48,2.6-12.31,1.59-25.21.6-37.68-.88-11.29-1.8-23-.08-34.32,4.4-29.1,25.58-53.2,42.6-72.57,6.53-7.42,13.28-15.1,22.23-19.93,12-6.46,22.84-4.61,29.06-.69l2.3.54C441.42,11.79,462.21.42,485.32,0S529.85,8.9,546,17c22.06,11.1,38.34,22.43,51.25,35.68,19.31,19.81,31.5,45.13,40,65,4.48,10.49,9.32,22.76,10,35.6.18,3.58,0,7.21-.11,10.71a97.79,97.79,0,0,0,0,12.81c1.4,15.37,9.66,28.22,18.4,41.83,5.5,8.56,11.19,17.41,14.94,26.88,10.1,25.5,5.84,54.32.34,79.15-.66,3-1.35,5.89-2,8.68-3,12.41-5.55,23.14-3.86,36.11l-1.68.21c-1.73-13.27.87-24.14,3.89-36.72.67-2.78,1.36-5.66,2-8.64,5.44-24.58,9.67-53.09-.27-78.16-3.69-9.32-9.33-18.1-14.78-26.59-8.47-13.18-17.23-26.82-18.66-42.6a96.08,96.08,0,0,1-.05-13c.14-3.47.28-7.06.11-10.56-.64-12.56-5.41-24.66-9.84-35-8.4-19.71-20.49-44.84-39.62-64.46-12.76-13.11-28.9-24.34-50.79-35.34-16-8-37.24-17.26-59.92-16.84s-43.17,11.66-52,28.7L433,31l-4-1c-7.28-4.67-18.06-4.4-27.47.67-8.68,4.69-15.33,12.25-21.76,19.56C363,69.45,342,93.34,337.62,122c-1.69,11.16-.78,22.74.1,33.93,1,12.6,2,25.62-.63,38.17-2.22,10.52-7,20.35-11.54,29.86a181.58,181.58,0,0,0-9.21,21.44,91,91,0,0,0-2.08,49.4c.91,3.76,2.08,7.54,3.22,11.19,1.87,6,3.81,12.27,4.65,18.67C325.36,349,313,371.74,301,393.72l-1.59,2.93c-2,3.71-4,7.08-5.92,10.33-7.5,12.7-13.42,22.73-11.84,38.78Z"/><path class="cls-14" d="M614.27,335.27c-10.75-10.25-24.12-23-32.49-37.75a73.42,73.42,0,0,1-6-13.52c-5.3-16.16-4.12-33.54-3-50.36,1.08-15.9,2.19-32.35-2.2-47.64-2.16-7.48-5.39-13.39-9.57-17.57-3.61-3.59-8.19-6.17-12.61-8.66-2.35-1.32-4.78-2.69-7.06-4.2a57.59,57.59,0,0,1-25.47-46.29c-.06-2.85.1-5.76.26-8.56.32-5.87.65-11.93-1-17.55a25.41,25.41,0,0,0-3.5-7.27c-6.68-9.61-20.28-15.33-33.87-14.24a57.7,57.7,0,0,0-11,2c-10.85,3-20.88,8.67-31.94,15.2l-.66.38-.35.22-2.38-.86-.12-.42c-.05-.16-4.61-16.29-2.86-33.49a59.53,59.53,0,0,1,3.36-15l1.58.59a58.14,58.14,0,0,0-3.25,14.54c-1.57,15.35,2,29.83,2.69,32.44l.8.29.36-.2C445.11,70.8,455.25,65.09,466.3,62A59.21,59.21,0,0,1,477.6,60c14.17-1.13,28.38,4.88,35.39,15a27.25,27.25,0,0,1,3.74,7.76c1.73,5.9,1.39,12.11,1.07,18.12-.16,2.78-.31,5.65-.26,8.44a55.87,55.87,0,0,0,24.72,44.91c2.23,1.48,4.63,2.83,7,4.14,4.52,2.54,9.2,5.18,13,8.93,4.4,4.38,7.76,10.54,10,18.3,4.48,15.58,3.36,32.18,2.27,48.23-1.13,16.65-2.3,33.87,2.89,49.72a71.6,71.6,0,0,0,5.91,13.2c8.25,14.54,21.52,27.2,32.19,37.36Z"/><path class="cls-14" d="M432.53,79.41l-.35-1.66.45-.1.5-.12c.34-.08.71-.17,1.1-.24a297.58,297.58,0,0,1,32.6-5.65c4.06-.48,7.83-.77,11.54-.88a114.29,114.29,0,0,1,34.14,3.84c.27.06.59.15.91.24L513,76.47c-.29-.09-.59-.17-.86-.23a112.92,112.92,0,0,0-33.68-3.79c-3.65.11-7.38.4-11.39.88A292,292,0,0,0,434.57,79c-.39.07-.73.15-1.07.23l-.47.11Z"/><path class="cls-14" d="M367.82,439.56v-1.7h.1c6.09,0,13.27-2.28,19.21-6a35.07,35.07,0,0,0,5.45-4.23,8.61,8.61,0,0,0,1.53-1.85,18.94,18.94,0,0,1,1.14-1.59l1.33,1.05a17.09,17.09,0,0,0-1.05,1.46,9.92,9.92,0,0,1-1.77,2.15,36.35,36.35,0,0,1-5.73,4.44,40.14,40.14,0,0,1-20.1,6.28Z"/><path class="cls-14" d="M402.86,417.27h-.46v-.83h-.87l.35-.35-.19-.13a62.34,62.34,0,0,0,4.64-8.6l.62-1.31c12.45-26.35,16.2-53.6,10.56-76.73l1.64-.4c5.74,23.5,2,51.15-10.67,77.86l-.62,1.3a64.85,64.85,0,0,1-4.75,8.81Z"/><path class="cls-14" d="M616.1,432.48A76.67,76.67,0,0,1,598.62,421c-2.56-2.19-5.13-4.63-7.86-7.47l1.22-1.17c2.69,2.79,5.22,5.2,7.75,7.36A74.79,74.79,0,0,0,616.83,431Z"/><path class="cls-14" d="M584,406.69l-.12-.13c-10.62-12.08-17-24.47-18.91-36.87-1.48-9.51-2.85-19.59-1.89-29.21a113.32,113.32,0,0,1,3.25-17.22l.78.25H568l0,.27a109.84,109.84,0,0,0-3.19,16.88c-.93,9.42.42,19.38,1.88,28.77,1.9,12.09,8.11,24.19,18.46,36l.08.1Z"/><path class="cls-14" d="M618.73,428.67l-1.62-.52a5.84,5.84,0,0,0-.09-3.78,5.64,5.64,0,0,0-4.22-3.56,31.27,31.27,0,0,0-13.44.37l-.59-1.59.17,0a32.92,32.92,0,0,1,14.17-.39,7.32,7.32,0,0,1,5.5,4.63A7.59,7.59,0,0,1,618.73,428.67Z"/><path class="cls-14" d="M489.44,502.12a221,221,0,0,1-54.89-6.9c-4.58-1.16-9.22-2.51-13.79-4l-.27-.09-.33-.11c-15.68-5.17-27-11.22-35.72-19-10.26-9.22-16.59-21.32-17.36-33.22a31.33,31.33,0,0,1-.07-3.9,5.56,5.56,0,0,1,1.07-3.59,5.65,5.65,0,0,1,3.66-1.61,31.11,31.11,0,0,1,4.26-.28,32,32,0,0,1,11.81,2.24l-.63,1.58A30.36,30.36,0,0,0,376,431.07a29.18,29.18,0,0,0-4,.27,4.27,4.27,0,0,0-2.62,1,4.15,4.15,0,0,0-.66,2.56,30.28,30.28,0,0,0,.07,3.71c.74,11.47,6.87,23.16,16.8,32.09,8.51,7.64,19.67,13.57,35.14,18.68l.28.09.32.11c4.51,1.48,9.12,2.82,13.65,4A220.25,220.25,0,0,0,534,495.86c2.52-.52,5.07-1.1,7.59-1.72,1.52-.37,3-.78,4.57-1.18,15.94-4.29,28.38-10,38-17.58a82.82,82.82,0,0,0,14.15-14.32c6.19-7.91,11.69-17.35,17.33-29.7.41-.88.81-1.75,1.2-2.63a3.6,3.6,0,0,0,.16-.39l.08-.21,1.58.6-.07.19a3.49,3.49,0,0,1-.22.53c-.37.85-.78,1.74-1.19,2.62-5.69,12.47-11.27,22-17.54,30a84.68,84.68,0,0,1-14.44,14.6c-9.82,7.68-22.46,13.53-38.62,17.88-1.53.41-3.08.82-4.61,1.19-2.53.63-5.11,1.21-7.65,1.74A220.8,220.8,0,0,1,489.44,502.12Z"/><path class="cls-14" d="M490.61,535.18c-28,0-51.93-3.63-72.68-11-30.31-10.81-54.35-30.11-67.7-54.35l1.48-.82c13.15,23.88,36.87,42.9,66.79,53.58,24.05,8.57,52.37,12,86.61,10.62l.07,1.69Q497.71,535.19,490.61,535.18Z"/><path class="cls-14" d="M532.9,552.62l-.45-1.63c9.62-2.66,19.65-4.94,29.35-7.15,12.19-2.78,24.8-5.65,36.77-9.29l.5,1.62c-12,3.66-24.67,6.54-36.89,9.32C552.5,547.7,542.49,550,532.9,552.62Z"/><path class="cls-14" d="M497,469.63a24.55,24.55,0,0,1-20.21-11l1.42-.92a22.32,22.32,0,0,0,37.82-.5l1.45.88a24.49,24.49,0,0,1-20.19,11.53Z"/><path class="cls-14" d="M413,453.94l-.26-1.68c3.66-.56,7.09-1.17,10.4-1.77,5.28-.94,10.27-1.84,16-2.51,6.37-.73,13.06-1,18.8,2l-.79,1.49c-5.34-2.81-11.72-2.55-17.82-1.85-5.7.66-10.66,1.56-15.92,2.5C420.08,452.76,416.64,453.37,413,453.94Z"/><path class="cls-14" d="M392.86,456c-2.3,0-4.64-.11-7.29-.33l.13-1.69a76.18,76.18,0,0,0,18.58-.54l.23,1.68A84.87,84.87,0,0,1,392.86,456Z"/><path class="cls-14" d="M595.73,449.46c-2.71,0-4.91,0-7.1,0s-4.41,0-7.11-.05v-1.69h0c2.71,0,4.91,0,7.1.05s4.41,0,7.12,0Z"/><path class="cls-14" d="M532.1,451l-.8-1.49c4.72-2.55,10.44-2.47,15.06-2.41,5.23.07,9.89.1,14.58.13,4.12,0,8.27.05,12.86.11l0,1.69c-4.59-.05-8.73-.08-12.85-.11-4.7,0-9.36,0-14.6-.13C541.69,448.77,536.44,448.7,532.1,451Z"/><path class="cls-14" d="M534.8,497.29l-1.22-1.18h0a315.93,315.93,0,0,0,30.78-35.65c3.61-4.85,6.37-8.87,8.69-12.67.59-1,1.15-1.92,1.71-2.89a90,90,0,0,0,4.6-9.22c4.07-9.69,5.62-19.41,4.48-28.11-.07-.49-.15-1-.25-1.45-.48-2.45-1.29-4.08-2.55-5.12l-1-.84,1.19-.57a6,6,0,0,1,3.34-.62,5.4,5.4,0,0,1,2.79,1.68c1.79,1.67,3.44,3.36,4,5.58a1.93,1.93,0,0,1,.11.43l-1.67.28-.07-.26c-.41-1.79-1.83-3.23-3.5-4.8a4.06,4.06,0,0,0-1.9-1.24,3.35,3.35,0,0,0-1.16.07,11.29,11.29,0,0,1,2.13,5.08c.11.52.2,1,.27,1.56,1.18,9-.41,19-4.6,29a93.14,93.14,0,0,1-4.65,9.33c-.61,1.06-1.18,2-1.78,3-2.34,3.84-5.13,7.9-8.78,12.79A315.45,315.45,0,0,1,534.8,497.29Z"/><path class="cls-14" d="M547.07,494.3l-1.32-1.06c2.77-3.44,5.58-6.66,8.29-9.78s5.6-6.44,8.39-9.93c6.11-7.61,12.44-15.47,17.49-24,.31-.49.59-1,.87-1.44,1-1.75,2-3.57,2.89-5.42,5-10.15,7.31-20.42,6.77-29.7a42.32,42.32,0,0,0-.81-6.32l1.66-.34a45.78,45.78,0,0,1,.85,6.56c.55,9.57-1.85,20.13-6.95,30.54-.92,1.89-1.91,3.75-2.94,5.51-.3.51-.59,1-.89,1.49-5.11,8.59-11.47,16.51-17.62,24.16-2.81,3.51-5.67,6.8-8.43,10S549.82,490.89,547.07,494.3Z"/><path class="cls-14" d="M434.2,495l-.09-.09c-8.7-10.19-15.46-22.85-21.88-41h0l-.22-.57c-3.28-9.4-6.18-19.3-9-28.88l-.23-.81a23.41,23.41,0,0,1-1.24-7.3,8.84,8.84,0,0,1,1.07-4.12l.15-.27,1.51.77-.06.1a.71.71,0,0,0-.08.15,7.45,7.45,0,0,0-.9,3.43,22.25,22.25,0,0,0,1.17,6.76l.24.81c2.74,9.38,5.58,19.08,8.78,28.28l.2.52c6.4,18.25,13.12,30.9,21.77,41Z"/><path class="cls-14" d="M420.68,491.52l-.1-.18a6.12,6.12,0,0,1-.31-.56,218,218,0,0,1-25-66.54l1.66-.33A216.09,216.09,0,0,0,421.76,490a5.58,5.58,0,0,0,.28.51l.11.19Z"/><path class="cls-14" d="M395.07,424.78c0-.12,0-.24,0-.35a2.45,2.45,0,0,0,0-.27,17.84,17.84,0,0,1,.28-4.78,10.19,10.19,0,0,1,7.9-7.53l.3,1.67a8.45,8.45,0,0,0-6.55,6.25,16.5,16.5,0,0,0-.24,4.29,2.51,2.51,0,0,1,0,.3,2.45,2.45,0,0,0,0,.27Z"/><path class="cls-14" d="M415,1124.43l6.34-3.15A315,315,0,0,0,543.5,1013.11l1.42.94a316.94,316.94,0,0,1-116.53,105.52A335.93,335.93,0,0,0,554.76,1057a329.2,329.2,0,0,0,59.91-61.68l1.36,1a330.75,330.75,0,0,1-60.22,62,336.81,336.81,0,0,1-133.92,64.57Z"/><path class="cls-14" d="M401.08,1259.5v-1.7c68.27-.58,136.75-19.28,198.06-54.07a412.1,412.1,0,0,0,87-65.84A389.31,389.31,0,0,0,720,1099.62l1.34,1a392.55,392.55,0,0,1-34,38.43A414.22,414.22,0,0,1,600,1205.2C538.41,1240.13,469.64,1258.91,401.08,1259.5Z"/><path class="cls-14" d="M550.34,1251.8l-.61-1.58c14.3-5.57,29.41-9.37,44-13.06,11.75-3,23.91-6,35.55-10,24.07-8.2,42.46-19.69,54.65-34.15a75.84,75.84,0,0,0,6.53-9c1-1.68,2-3.37,2.83-5l1.51.76c-.86,1.72-1.84,3.45-2.9,5.16a77.32,77.32,0,0,1-6.67,9.23c-12.4,14.7-31,26.36-55.41,34.66-11.7,4-23.89,7.06-35.68,10C579.6,1242.48,564.54,1246.27,550.34,1251.8Z"/><path class="cls-14" d="M372.28,1174.49a281.06,281.06,0,0,1-92-108.39l1.53-.73a279.45,279.45,0,0,0,91.46,107.74Z"/><path class="cls-14" d="M342.24,1163.57a103.21,103.21,0,0,1-69.47-49.82l1.47-.84a101.5,101.5,0,0,0,68.33,49Z"/><path class="cls-14" d="M797.46,1296.61H205.87a.82.82,0,0,1-.66-.33.8.8,0,0,1-.15-.73c5-19.53,10.57-41.59,15.91-62.92,3.87-15.45,7.87-31.42,11.65-46.29,1.39-5.44,2.76-10.77,4.1-15.94,3-11.6,6.09-23.6,11.3-34.72.78-1.67,1.62-3.36,2.44-5,3.66-7.33,7.45-14.9,6.93-22.91a48,48,0,0,0-.87-5.73,43.49,43.49,0,0,1-.93-6.5c-.34-8.16,3.73-15.54,7.67-22.67l.78-1.42a.62.62,0,0,1,.08-.12c2.73-3.43,2.84-9.26,2.93-13.94l0-1.22c0-1.34-.07-2.72-.16-4a30.12,30.12,0,0,1,.07-6.84,20.66,20.66,0,0,1,3-7.59c1.16-1.89,2.54-3.71,3.87-5.48.94-1.25,1.91-2.54,2.79-3.83,6.86-10.08,11.21-22.8,12.93-37.78A77,77,0,0,1,294,972.39a236.2,236.2,0,0,0,13.05-55.7,3.84,3.84,0,0,0,.07-.47.85.85,0,0,1,1.69.16,5.77,5.77,0,0,1-.08.58,237,237,0,0,1-13.15,56,75.74,75.74,0,0,0-4.32,17.82c-1.75,15.26-6.2,28.23-13.21,38.55-.9,1.32-1.89,2.63-2.84,3.89-1.31,1.73-2.66,3.53-3.78,5.35a19,19,0,0,0-2.78,7,28.33,28.33,0,0,0,0,6.45c.09,1.37.19,2.79.16,4.2l0,1.22c-.09,4.91-.21,11-3.25,14.9l-.75,1.37c-3.83,6.93-7.78,14.09-7.46,21.78a42.26,42.26,0,0,0,.9,6.24,50.16,50.16,0,0,1,.9,6c.55,8.46-3.34,16.25-7.1,23.77-.82,1.63-1.66,3.31-2.43,5-5.14,11-8.22,22.9-11.19,34.43-1.34,5.16-2.71,10.49-4.1,15.93-3.78,14.87-7.78,30.84-11.65,46.28-5.25,21-10.67,42.61-15.64,61.88H796.26a731.34,731.34,0,0,1-32.62-128.07l-.09-.56c0-.19-.06-.38-.1-.57l-.56-3.58c-2.46-15.75-5-32-12.31-46.27-.54-1.06-1.07-1.93-1.59-2.78-.35-.58-.68-1.13-1-1.69a13.2,13.2,0,0,1-1.64-5c-1.91-4.46-2.46-11.78-3.05-19.52-.31-4.1-.63-8.33-1.16-12.22-.92-6.57-3.43-12.92-5.86-19.06l-12-30.17q-8.85-22.25-17.68-44.52a.81.81,0,0,1,0-.53c-7.76-18.57-13.11-40.79-15.91-66.06-.67-5.81-1.2-11.94-1.61-18.74a.85.85,0,0,1,1.69-.1c.41,6.76.93,12.86,1.6,18.65,2.87,25.9,8.43,48.54,16.52,67.3a.86.86,0,0,1,0,.63q8.48,21.39,17,42.75l11.94,30.08c2.5,6.32,5,12.76,6,19.54.55,3.94.87,8.2,1.18,12.32.58,7.66,1.12,14.9,3,19.08a1,1,0,0,1,.07.25,11.4,11.4,0,0,0,1.46,4.5c.29.53.61,1.06,1,1.62.5.83,1.08,1.78,1.65,2.88,7.42,14.49,10,30.91,12.48,46.79l.55,3.56c0,.19.07.39.1.59l.09.55a729.44,729.44,0,0,0,33,128.9.85.85,0,0,1-.8,1.13Z"/><path class="cls-14" d="M655.78,435.15l-1.66-.3c1.34-7.42,3.22-15.84,8.69-21.92,6.36-7.06,16-9.51,24.6-11.25a315.85,315.85,0,0,1,40.38-5.51l.12,1.69a312.18,312.18,0,0,0-40.16,5.48c-8.31,1.69-17.67,4.05-23.69,10.72C658.9,419.81,657.08,428,655.78,435.15Z"/><path class="cls-14" d="M766.75,375.13l-.56-1.6A108.64,108.64,0,0,0,828,316.77c.37-.82.73-1.65,1.09-2.48,2.26-5.18,4.59-10.52,8.91-14.29a16.63,16.63,0,0,1,3.55-2.31c4.63-2.25,9.93-2.69,13.53-1.13a4.27,4.27,0,0,1,2.32,2.4,4.52,4.52,0,0,1-.09,3.48q-1.93,4.31-3.85,8.62c-6.36,14.29-13,29.07-22.17,45.9l-1.48-.82c9.19-16.76,15.75-31.51,22.1-45.77q1.93-4.32,3.86-8.62a2.86,2.86,0,0,0,0-2.17,2.61,2.61,0,0,0-1.41-1.47c-3.11-1.35-8-.91-12.11,1.1a14.82,14.82,0,0,0-3.18,2.07c-4,3.51-6.3,8.68-8.48,13.68-.36.84-.73,1.67-1.1,2.5A110.36,110.36,0,0,1,766.75,375.13Z"/><path class="cls-14" d="M761.54,362l-.5-1.61c15.55-4.82,34.51-20.13,44.1-35.62A107.35,107.35,0,0,0,813,308.37c2.59-6.34,5-12.32,9.15-17.89a43,43,0,0,1,6.25-6.82c2.58-2.26,6.08-5,10.33-5.93a15.67,15.67,0,0,1,7.27.16,5.34,5.34,0,0,1,3.5,3,5.24,5.24,0,0,1-.09,4.54l-2.55,5.06c-1.34,2.65-2.68,5.3-4.21,8.37l-1.51-.75c1.52-3.07,2.87-5.73,4.21-8.39.84-1.65,1.67-3.3,2.55-5a3.63,3.63,0,0,0-2.34-5.12,14.24,14.24,0,0,0-6.46-.15c-3.88.87-7.16,3.43-9.58,5.55a41.58,41.58,0,0,0-6,6.56c-4,5.4-6.39,11.29-8.94,17.52a109.19,109.19,0,0,1-8,16.68C796.8,341.49,777.44,357.11,761.54,362Z"/><path class="cls-14" d="M655,382.58l-.63-1.57c10.26-4.08,20.6-5.53,31.55-7.07,8.69-1.23,17.68-2.49,26.6-5.2,5.07-1.53,8.72-2.54,11.94-3.43,4.33-1.19,7.75-2.13,12.3-3.77A84.64,84.64,0,0,0,751.51,354c13.18-8,26.66-17.09,35.92-29.83,2.22-3.05,4.22-6.35,6.15-9.54a114.31,114.31,0,0,1,7.67-11.54c3.65-4.63,11.29-12.49,21.48-13l.09,1.69c-9.53.48-16.77,8-20.24,12.36A112,112,0,0,0,795,315.51c-1.95,3.22-4,6.55-6.23,9.65-9.44,13-23.08,22.23-36.42,30.29a86.88,86.88,0,0,1-15.08,7.69c-4.62,1.66-8.07,2.6-12.43,3.81-3.21.88-6.85,1.88-11.9,3.41-9.05,2.75-18.1,4-26.86,5.25C675.27,377.14,665,378.58,655,382.58Z"/><path class="cls-14" d="M619.09,445.59l-1.69-.08c.17-3.49.06-7.25-.07-10.47l-.08-1.91c-.06-1.54-.13-3.1-.18-4.67s-.1-2.91-.1-4.38c-.06-5.9.22-13.48,2.86-19.77,3.39-8,10.63-14.85,21.5-20.27,4-2,8.29-3.77,12.07-5.31l.51-.21a143.61,143.61,0,0,0,14.4-6.49c1.74-.94,3.48-2,5.33-3.19,4.81-3.09,9.45-6.67,13.93-10.15,2.63-2,5.36-4.15,8.1-6.14,7.9-5.76,18.53-12.54,30.8-13.83,4.26-.43,9.31.53,10.77,4.52,1,2.75-.06,5.87-3.23,9.55-4.48,5.22-15.76,13.95-20.8,17.46l-1-1.39c5-3.47,16.1-12.07,20.49-17.18,2.73-3.17,3.69-5.74,2.92-7.86-1.13-3.08-5.4-3.78-9-3.41-11.87,1.24-22.26,7.87-30,13.51-2.72,2-5.43,4.08-8.06,6.11-4.51,3.5-9.17,7.11-14,10.24-1.88,1.22-3.66,2.29-5.44,3.25a146.59,146.59,0,0,1-14.57,6.57l-.52.21c-3.74,1.53-8,3.26-11.94,5.25-10.5,5.24-17.47,11.78-20.7,19.42-2.52,6-2.78,13.36-2.73,19.1,0,1.45,0,2.9.11,4.3,0,1.6.11,3.15.17,4.69L619,435C619.15,438.23,619.27,442,619.09,445.59Z"/><path class="cls-14" d="M657.74,467.52c-21.86,0-33.73-13.92-38.79-19.85-.5-.6-1-1.12-1.34-1.55-2.45-2.7-3.44-5.28-2.94-7.67a6.68,6.68,0,0,1,2.88-4.18l.87,1.46L618,435l.44.72a5,5,0,0,0-2.1,3.06c-.38,1.84.47,3.92,2.54,6.2.4.45.86,1,1.37,1.59,6.6,7.73,22,25.86,53.77,16.84a96.49,96.49,0,0,0,18.61-7.67q2-1.07,4-2.1c9.88-5.25,20.43-10.83,31.15-16.23,7.17-3.61,13.75-6.81,20.12-9.78,6.07-2.83,12.21-5.55,18.25-8.09a260,260,0,0,0,26.58-13.15c11.61-6.5,23-13.77,34.1-20.81l2.61-1.65a144.34,144.34,0,0,0,19-14.43c4.1-3.69,7.2-6.67,9.82-11.38a2.75,2.75,0,0,0,.23-1.08,2.64,2.64,0,0,0-1.31-2.28c-4.2-2.42-9.9-3-15.65-1.67a45.68,45.68,0,0,0-10.57,4.21c-2.25,1.17-4.51,2.48-6.69,3.74l-.59.34a378,378,0,0,1-52.5,24.88l-.6-1.58a375.05,375.05,0,0,0,52.25-24.77l.6-.34c2.19-1.27,4.46-2.58,6.75-3.77a47.16,47.16,0,0,1,11-4.36c6.16-1.46,12.32-.79,16.89,1.85a4.37,4.37,0,0,1,2.15,3.75,4.48,4.48,0,0,1-.41,1.85c-2.77,5-6,8.07-10.2,11.87a147,147,0,0,1-19.22,14.6L827.7,387c-11.07,7.05-22.53,14.34-34.18,20.86a260.27,260.27,0,0,1-26.76,13.23c-6,2.53-12.13,5.24-18.19,8.06-6.35,3-12.92,6.16-20.07,9.76-10.7,5.4-21.25,11-31.12,16.22-1.33.69-2.64,1.38-4,2.09A97.85,97.85,0,0,1,674.47,465,61.15,61.15,0,0,1,657.74,467.52Z"/><path class="cls-14" d="M658.24,480.61c-22.59,0-36.79-10.33-42.34-15.35a40.24,40.24,0,0,1-3.2-3.2,15.16,15.16,0,0,1-3.92-10.34c.15-9.49,5.87-13.63,6.11-13.8l1,1.38c-.21.15-5.26,3.86-5.4,12.44a13.51,13.51,0,0,0,3.49,9.2A40.32,40.32,0,0,0,617,464c6.33,5.72,24.19,18.51,53.27,13.95a97.08,97.08,0,0,0,19-5.07,13.44,13.44,0,0,0,3.42-1.88,12.62,12.62,0,0,0,5-7.87,12,12,0,0,0-1.43-8.32l1.47-.84a13.69,13.69,0,0,1,1.63,9.46,14.37,14.37,0,0,1-5.63,8.93,15.21,15.21,0,0,1-3.85,2.11,99.76,99.76,0,0,1-19.3,5.16A79.71,79.71,0,0,1,658.24,480.61Z"/><path class="cls-14" d="M696.51,709.26q-.94-10.18-1.91-20c-.49-4.92-1-9.77-1.44-14.58-2.34-23.6-4.55-45.88-6-68-3.41-51.81-1.86-92.22,5.21-135.13l1.67.27c-7,42.78-8.6,83.08-5.19,134.75,1.45,22.09,3.65,44.36,6,67.94q.72,7.21,1.44,14.58c.64,6.57,1.29,13.23,1.91,20Z"/><path class="cls-14" d="M569.34,737.35c-.07-4.24.06-8.61.39-13,.16-2.25.35-4.33.58-6.36,1-9.85,2.83-19.77,4.55-29.37l0-.25c4.73-26.21,9.63-53.3,14.7-80.09,5.49-29.2,10.63-55,15.73-79l.91-4.24c4.19-19.54,8.52-39.76,9.37-60.47l1.69.07c-.86,20.86-5.2,41.14-9.41,60.76l-.9,4.23c-5.1,23.94-10.24,49.76-15.73,79-5.07,26.78-10,53.87-14.7,80.07l0,.25c-1.72,9.57-3.5,19.46-4.54,29.25-.22,2-.41,4.07-.57,6.3-.32,4.33-.45,8.64-.39,12.83Z"/><path class="cls-14" d="M656.41,919.65a15,15,0,0,1-1.89-.12,15.54,15.54,0,0,1-7.71-3.17l-54.73-42.64c-5.1-4-10.89-8.49-14.73-14.39s-5.55-12.79-7.19-19.45c-2.83-11.4-5.75-23.19-5.77-35.34,0-.77,0-1.54,0-2.32a34.19,34.19,0,0,0-.7-9.11,33.7,33.7,0,0,0-3-7c-.66-1.28-1.35-2.61-1.94-4-.14-.31-.27-.63-.39-.94l-.14-.32c-4-10.28-2.61-21.55-1.29-32.46l.08-.69c.82-7,1.68-14.2,1-21.2a8.39,8.39,0,0,1,2-6.26,8,8,0,0,1,5.71-2.79l5.25-.29.09,1.69-5.25.29a6.29,6.29,0,0,0-4.51,2.21,6.61,6.61,0,0,0-1.57,5c.7,7.18-.16,14.49-1,21.56l-.08.69c-1.35,11.2-2.62,21.77,1.18,31.63l.13.31.38.9c.57,1.31,1.24,2.6,1.89,3.86a27.09,27.09,0,0,1,3.87,16.87c0,.77,0,1.54,0,2.3,0,11.94,2.91,23.63,5.71,34.94,1.61,6.52,3.28,13.26,7,18.92s9.11,9.9,14.35,14L647.85,915a13.77,13.77,0,0,0,6.88,2.83,13.29,13.29,0,0,0,5.72-.53,19.06,19.06,0,0,0,8.7-6.13,80.28,80.28,0,0,1,13.08-11.26c2.24-1.49,4.6-3.15,7.2-5.07,5.42-4,10.75-8.34,15.84-12.89,3.34-3,6.53-6,9.5-8.92a330.45,330.45,0,0,0,30.1-34.43c6.79-8.81,12.07-16.43,15.78-25,4.19-9.58,6.18-20.14,8.11-30.35l.57-3.06,4-21.1,3.42-18.27c2.21-11.7,4.49-23.8,5.15-35.94.25-4.39.29-8.92.34-13.3.13-13.33.27-27.12,5.94-39.33.24-.52.49-1,.74-1.56a21,21,0,0,0,2.3-6.47v-.12l0-.24c.32-3.57-1.29-7.23-2.85-10.77-1.91-4.33-3.88-8.82-2.49-13.44a97.87,97.87,0,0,0,4.06-32.57c-.21-4.29-.86-8.64-1.49-12.86-.94-6.27-1.9-12.76-1.45-19.22a87.19,87.19,0,0,1,1.25-9.09c.45-2.6.92-5.28,1.15-7.93.53-6-.08-12.21-.66-18.18-.12-1.25-.24-2.49-.35-3.73-.39-4.29-.68-8.67-.95-12.91-.82-12.72-1.67-25.88-5.5-38.16-4.57-14.56-15.78-31.41-33.52-35l.34-1.66c18.46,3.75,30.08,21.14,34.79,36.17,3.9,12.47,4.75,25.73,5.58,38.55.27,4.23.56,8.6.94,12.86.11,1.24.24,2.48.36,3.73.59,6,1.2,12.3.66,18.49-.24,2.72-.72,5.44-1.17,8.07a85.59,85.59,0,0,0-1.23,8.91c-.44,6.28.51,12.68,1.44,18.86.63,4.26,1.29,8.66,1.5,13a99.43,99.43,0,0,1-4.13,33.14c-1.21,4,.55,8,2.42,12.27,1.64,3.74,3.34,7.6,3,11.65l0,.17a1.49,1.49,0,0,1,0,.21,22.57,22.57,0,0,1-2.46,7c-.24.51-.49,1-.72,1.53-5.52,11.88-5.66,25.48-5.79,38.63,0,4.4-.09,9-.33,13.39-.67,12.25-3,24.4-5.18,36.15q-1.71,9.15-3.43,18.27l-4,21.1-.55,3c-2,10.35-4,21-8.24,30.76-3.78,8.69-9.12,16.41-16,25.32A332.69,332.69,0,0,1,716,874.25c-3,3-6.2,6-9.56,9-5.13,4.58-10.5,9-16,13-2.63,1.93-5,3.61-7.26,5.12a78.21,78.21,0,0,0-12.76,11c-3.06,3.49-5.88,5.47-9.45,6.63A14.55,14.55,0,0,1,656.41,919.65Z"/><path class="cls-14" d="M621.09,755.68c-5.72,0-11.6-.48-17.85-1.06-5.81-.54-12.4-1.16-18.37-3.6a28.06,28.06,0,0,1-4.88-2.53,33.56,33.56,0,0,1-10.59-10.65,32.84,32.84,0,0,1-2.76-5.46,6.81,6.81,0,0,1,3.45-8.66l.13-.13.41,0v.85l.54.63-.11.12-.15.06a5.11,5.11,0,0,0-2.7,6.55,30.18,30.18,0,0,0,2.62,5.17,32,32,0,0,0,10.07,10.14,27.8,27.8,0,0,0,4.61,2.39c5.74,2.34,12.2,2.94,17.89,3.48,10.56,1,20.06,1.66,29.46.21a64.46,64.46,0,0,0,7.12-1.53,71.13,71.13,0,0,0,8.19-2.76c8.35-3.37,16.85-8.37,26.77-15.73,5-3.69,9.76-7.53,14.17-11.13,3.33-2.72,5.67-6.76,7.15-12.35a5.16,5.16,0,0,1,.33-.85,20.22,20.22,0,0,1,3.79-4.57c1.82-1.83,3.69-3.72,4.09-5.31l.07-.32c0-.13.07-.26.09-.39a2.05,2.05,0,0,0,0-1.18,3.27,3.27,0,0,0-.84-1.08,36.16,36.16,0,0,0-8.7-6,1.85,1.85,0,0,0-.31-.16l-.11-.06.75-1.51.1,0,.4.21a37.42,37.42,0,0,1,9,6.29,4.72,4.72,0,0,1,1.24,1.67,3.79,3.79,0,0,1,.13,2.13c0,.16-.07.32-.11.47l-.07.3c-.51,2.07-2.56,4.13-4.54,6.13a19.33,19.33,0,0,0-3.47,4.12,3.1,3.1,0,0,0-.21.55c-1.57,5.94-4.1,10.26-7.72,13.21-4.42,3.62-9.21,7.47-14.24,11.19-10,7.44-18.65,12.51-27.14,15.93a74.53,74.53,0,0,1-8.38,2.83,64.89,64.89,0,0,1-7.3,1.56A77.8,77.8,0,0,1,621.09,755.68Z"/><path class="cls-14" d="M719.4,837.17l-1.29-1.08c3.27-3.92,2.45-9.28,1.57-14.94a58.16,58.16,0,0,1-.81-7.27,15.17,15.17,0,0,1,1.7-8.16A8.81,8.81,0,0,1,721,805a30.64,30.64,0,0,1,2.44-3.11c1.86-2.18,3.62-4.25,3.54-6.77a11.16,11.16,0,0,0-1-3.62c-.17-.42-.34-.83-.49-1.25l0-.15a4.48,4.48,0,0,1-.16-.52c-1.33-4.13-1.09-8.56-.86-12.85a55,55,0,0,0,0-8.22,31.18,31.18,0,0,0-1.93-8.07,90,90,0,0,0-6.19-12.49c-1.42-2.52-2.88-5.13-4.16-7.75a72.58,72.58,0,0,1-6.54-41.68l1.67.24a70.82,70.82,0,0,0,6.39,40.69c1.26,2.59,2.71,5.17,4.12,7.67a91.81,91.81,0,0,1,6.3,12.73,32.76,32.76,0,0,1,2,8.5,58.39,58.39,0,0,1,0,8.47c-.24,4.33-.46,8.41.79,12.29.05.19.09.32.13.45l.05.14c.14.37.3.77.46,1.17a12.64,12.64,0,0,1,1.14,4.19c.11,3.18-2,5.6-4,7.93a32.83,32.83,0,0,0-2.3,2.93,7.23,7.23,0,0,0-.4.66,13.43,13.43,0,0,0-1.49,7.3,54.09,54.09,0,0,0,.79,7.06C722.25,826.68,723.17,832.67,719.4,837.17Z"/><path class="cls-14" d="M620.43,818.83a47,47,0,0,1-22.32-5.26l.81-1.49c9,4.87,20.61,6.28,32.59,4,9.46-1.83,19.08-5.71,31.2-12.59a103.47,103.47,0,0,0,17.54-12c1.24-1.06,2.42-2.16,3.51-3.27,9.55-9.72,15.23-22.07,19.53-32.88,1.42-3.56,2.77-7.21,4.07-10.75l.36-1,1.59.59-.36,1c-1.31,3.55-2.66,7.22-4.09,10.8-4.36,11-10.13,23.51-19.89,33.44-1.13,1.14-2.34,2.27-3.61,3.36a107.69,107.69,0,0,1-17.81,12.22c-12.29,7-22.08,10.92-31.72,12.78A60.61,60.61,0,0,1,620.43,818.83Z"/><path class="cls-14" d="M635.53,858.65l-.4-1.64c18.56-4.52,32.57-9.89,44.07-16.9a75.52,75.52,0,0,0,23-21,58.46,58.46,0,0,0,10.06-25.14l1.68.24a60.24,60.24,0,0,1-10.35,25.87,77.15,77.15,0,0,1-23.49,21.5C668.43,848.66,654.27,854.09,635.53,858.65Z"/><path class="cls-14" d="M598.51,809.39a8.09,8.09,0,1,1,8.08-8.08A8.1,8.1,0,0,1,598.51,809.39Zm0-14.48a6.39,6.39,0,1,0,6.39,6.4A6.41,6.41,0,0,0,598.51,794.91Z"/><path class="cls-14" d="M402.38,847.2a8.09,8.09,0,1,1,8.08-8.08A8.1,8.1,0,0,1,402.38,847.2Zm0-14.48a6.39,6.39,0,1,0,6.38,6.4A6.41,6.41,0,0,0,402.38,832.72Z"/><path class="cls-14" d="M635.33,883.74a8.09,8.09,0,1,1,8.07-8.1A8.1,8.1,0,0,1,635.33,883.74Zm0-14.48a6.4,6.4,0,1,0,6.38,6.38A6.4,6.4,0,0,0,635.33,869.26Z"/><path class="cls-14" d="M408.76,915.93a8.09,8.09,0,1,1,8.08-8.08A8.1,8.1,0,0,1,408.76,915.93Zm0-14.48a6.39,6.39,0,1,0,6.39,6.4A6.41,6.41,0,0,0,408.76,901.45Z"/><path class="cls-14" d="M780.69,635.35c-5.33-5.66-10.84-11.51-17.25-16a57.81,57.81,0,0,0-13.88-7.14,65.59,65.59,0,0,0-32-2.89,68.31,68.31,0,0,0-8.18,1.8l-.46-1.62a68.9,68.9,0,0,1,8.38-1.86,67.5,67.5,0,0,1,32.86,3,59.75,59.75,0,0,1,14.29,7.35c6.54,4.61,12.11,10.53,17.5,16.25Z"/><path class="cls-14" d="M202.14,509.76c-2,0-3.44-2.31-4.47-3.92l-.35-.55c-1.43-2.19-4-3.8-7.9-4.91-8.06-2.3-16.74-1.81-25.13-1.34l-3.13.17a283.06,283.06,0,0,1-46.67-1.58l.2-1.68a280.73,280.73,0,0,0,46.39,1.57l3.12-.17c8.53-.48,17.35-1,25.69,1.4,4.29,1.23,7.19,3.07,8.85,5.62l.36.56c1.29,2,2.37,3.54,3.51,3l.7,1.55A2.89,2.89,0,0,1,202.14,509.76Z"/><path class="cls-14" d="M68.28,491.14a537.69,537.69,0,0,0-67.8-39L0,451.92v-.52a10.07,10.07,0,0,1,5.13-8.9c3.2-1.89,6.92-2.38,10.13-2.6a40.81,40.81,0,0,1,6.85,0,25.5,25.5,0,0,1,6.05,1.26c3.95,1.37,7.4,3.81,10.72,6.17.8.57,1.59,1.13,2.39,1.67,6.76,4.62,14.22,8.27,21.44,11.79l13.83,6.78,28.73,14.07-.75,1.52L75.8,469.12,62,462.35c-7.27-3.56-14.8-7.23-21.66-11.92-.81-.55-1.61-1.12-2.41-1.69-3.23-2.29-6.57-4.66-10.29-5.95A23.92,23.92,0,0,0,22,441.62a38.54,38.54,0,0,0-6.57,0c-3,.21-6.49.65-9.38,2.37a8.46,8.46,0,0,0-4.31,6.88,540.14,540.14,0,0,1,67.53,38.9Z"/><path class="cls-14" d="M118,476.76c-18.7-8.86-37.2-18.68-55-29.18-3.89-2.29-7.7-4.59-11.32-6.81a32.58,32.58,0,0,0-8-4c-7.21-2-14.75,1.25-21.17,4.73L21.63,440c6.33-3.44,14.6-7.1,22.44-4.88a34.06,34.06,0,0,1,8.45,4.21c3.61,2.22,7.41,4.5,11.29,6.79,17.76,10.48,36.21,20.27,54.87,29.11Z"/><path class="cls-14" d="M198.31,475.94c-8.5-2.46-17.61-2.2-26.41-1.94-3.44.1-7,.21-10.49.15-2.27,0-4.46-.15-6.53-.33-10.85-1-21.07-4.41-31.47-8.14C109,460.52,97.17,455.86,86.22,451c-6.4-2.83-15.17-6.71-22.42-3.48L63.11,446c7.93-3.53,17.1.52,23.8,3.49,10.91,4.82,22.69,9.47,37.08,14.62,10.28,3.69,20.4,7.08,31,8.05,2,.17,4.18.28,6.41.32,3.46.05,7,0,10.41-.15,8.94-.26,18.17-.53,26.93,2Z"/><path class="cls-14" d="M278.05,817.86l-.47-2q-2.88-12.47-5.83-25-1.5-6.37-3-12.74c-9.7-40.34-22-87.82-39.42-134.1-11.58-30.77-24.23-57.91-38.67-83a27.23,27.23,0,0,1-1.25-2.55l-.06-.15c-2-4.68-6.17-8.67-12.6-12.18a84.61,84.61,0,0,0-8.52-4c-.92-.28-100.14-30.67-158.32-34.06a5.6,5.6,0,0,1-4.65-3,5.67,5.67,0,0,1,.14-5.58c3.49-5.87,10.07-10.54,17.6-12.49,9.68-2.51,20-1.06,29.17.21l.29,0q8.2,1.15,16.44,2.28l21.78,3,10.78,1.49-.23,1.68-10.78-1.49-21.79-3Q60.41,490.19,52.2,489l-.29,0c-9-1.25-19.16-2.67-28.51-.25-7.11,1.84-13.3,6.22-16.57,11.72a4,4,0,0,0-.11,3.92A3.94,3.94,0,0,0,10,506.46c58.38,3.4,157.79,33.85,158.79,34.15a88.66,88.66,0,0,1,8.76,4.1c6.77,3.71,11.13,7.95,13.34,13l.06.15a25.17,25.17,0,0,0,1.17,2.39c14.48,25.15,27.17,52.38,38.78,83.24,17.48,46.36,29.77,93.9,39.49,134.29,1,4.25,2,8.5,3,12.76q3,12.48,5.83,25l.47,2Z"/><path class="cls-14" d="M418.46,783.09c-4.26-8.22-8.8-16.51-13.51-24.65-.46-.84-.93-1.65-1.4-2.46-1.48-2.57-3-5.15-4.5-7.68-20.37-34.27-43.76-67.71-66.38-100-7.05-10.09-14.35-20.52-21.44-30.82-13.54-19.64-31.11-45.66-47-72.81l-.25-.43c-3.93-6.68-5.72-9.73-7.75-18.78-2.44-11.25-5.48-25.25-14-35.09a41.19,41.19,0,0,0-6.11-5.7,82,82,0,0,0-15.81-9.14c-1.78-.83-3.56-1.63-5.34-2.42l-.71-.31a99,99,0,0,0-13.88-4.62,99.71,99.71,0,0,1-14.11-4.7A110.21,110.21,0,0,0,169.8,458c-4-1.07-8-2.18-12.82-3.76a4.06,4.06,0,0,0-3.83.65,4.11,4.11,0,0,0-1.6,3.57,29.33,29.33,0,0,0,.58,3.78c.9,4.61,4.87,9.79,9.37,10.18l-.15,1.69c-5.42-.47-9.87-6.35-10.88-11.54a31.93,31.93,0,0,1-.61-4,5.84,5.84,0,0,1,7.65-5.94c4.75,1.56,8.81,2.67,12.74,3.74a111.47,111.47,0,0,1,16.65,5.48,99,99,0,0,0,13.88,4.62,100.14,100.14,0,0,1,14.11,4.7l.71.32c1.79.79,3.58,1.59,5.37,2.43a83.6,83.6,0,0,1,16.12,9.32,43.53,43.53,0,0,1,6.35,5.94c8.84,10.16,11.92,24.4,14.4,35.84,2,8.78,3.73,11.76,7.56,18.28l.25.43c15.9,27.11,33.46,53.1,47,72.71,7.09,10.3,14.39,20.72,21.44,30.81,22.64,32.36,46,65.82,66.44,100.15,1.52,2.53,3,5.12,4.51,7.7q.72,1.22,1.41,2.46c4.72,8.15,9.27,16.47,13.54,24.71Z"/><path class="cls-14" d="M326.73,841.52a56.71,56.71,0,0,1-22-4.94c-9.58-4.14-18.24-10.3-26.61-16.25l-.18-.13c-.83-.57-1.67-1.19-2.5-1.8-4.09-3-8.63-6.78-11.33-11.58a19.68,19.68,0,0,1-2-5.06,19,19,0,0,1-.46-3.24c-.4-7.35,3.33-14.4,7.19-21a1.23,1.23,0,0,1,.17-.3l1.36,1-.07.14c-3.73,6.37-7.34,13.16-7,20a17.35,17.35,0,0,0,.42,2.94,17.66,17.66,0,0,0,1.83,4.62c2.54,4.52,6.91,8.12,10.85,11,.82.6,1.65,1.2,2.47,1.78l.19.13c8.3,5.9,16.88,12,26.3,16.07,7.4,3.2,18.61,6.46,30,3.85,7.46-1.7,14.23-5.75,20.78-9.67,5.16-3.09,10.5-6.29,16.23-8.4,2-.72,4-1.29,5.47-1.71,1.22-.34,2.44-.66,3.66-1a66.34,66.34,0,0,0,12.6-4.2,34.18,34.18,0,0,0,6.28-4c7.14-5.69,12.88-14.43,18.06-27.5l.19-.48.18-.45c1.66-4.28,3.06-9.14.89-12.84a15.79,15.79,0,0,0-3.89-4c-2-1.59-4-2.91-6-4.2-1-.63-2-1.27-2.94-1.94s-2-1.4-3.12-2.31l1.07-1.32c1.07.88,2.12,1.62,3,2.23s1.93,1.29,2.9,1.93a71.19,71.19,0,0,1,6.11,4.29,17.12,17.12,0,0,1,4.29,4.43c2.53,4.33,1,9.66-.77,14.3-.05.15-.12.32-.19.48s-.12.3-.17.45c-5.31,13.38-11.21,22.34-18.59,28.23a36.66,36.66,0,0,1-6.59,4.21,68,68,0,0,1-12.93,4.32c-1.21.32-2.42.63-3.62,1-1.48.41-3.42,1-5.35,1.67-5.57,2.05-10.84,5.21-15.94,8.26-6.66,4-13.55,8.11-21.27,9.87A39.89,39.89,0,0,1,326.73,841.52Z"/><path class="cls-14" d="M392.84,950.93c-6.78,0-15.08-1.52-24.94-5.87-6-2.64-11.77-5.91-17.37-9.06-3.93-2.22-8-4.5-12.06-6.55a99.71,99.71,0,0,0-10.56-4.65c-2.38-.87-4.91-1.67-7.35-2.44a98.46,98.46,0,0,1-13-4.81,29.71,29.71,0,0,1-10.9-8.31c-3.51-4.46-5.23-10-6.9-15.34-1.83-5.86-3.56-11.41-7.44-15.71-2.61-2.89-5.92-4.89-9.42-7a65.07,65.07,0,0,1-6.71-4.46c-7.9-6.23-12.24-15.51-16.44-24.48a112.45,112.45,0,0,0-8.38-15.66c-.43-.66-.88-1.29-1.34-1.9a96.33,96.33,0,0,0-8.58-9.46c-1.41-1.42-2.86-2.89-4.25-4.38a99.63,99.63,0,0,1-26-56.92c-.4-3.76-.61-7.65-.81-11.41-.58-11.06-1.18-22.49-6.91-31.82a66.23,66.23,0,0,0-4.41-6.11,57,57,0,0,1-5.28-7.56c-.47-.89-.85-1.67-1.17-2.39-2.08-4.77-3-10-3.89-15.09-.86-4.89-1.75-9.95-3.68-14.52a21.81,21.81,0,0,0-3.06-4.65c-1.87-2.38-3.8-4.85-3.93-7.9a20.73,20.73,0,0,1,1.19-6.74c.12-.42.25-.84.36-1.26,3.24-11.57,1.82-23.89.44-35.81-.92-7.94-1.87-16.16-1.48-24.22.14-3,.47-6,.8-8.9s.65-6,.79-9a27.73,27.73,0,0,1,2.77-10.65,47.18,47.18,0,0,0,3.39-10.64l1.66.32a48.57,48.57,0,0,1-3.49,11,26.17,26.17,0,0,0-2.64,10.07c-.14,3-.47,6.1-.8,9.07s-.65,5.86-.79,8.79c-.39,7.92.56,16.07,1.47,24,1.4,12.07,2.84,24.56-.48,36.45-.12.43-.25.86-.38,1.29a19.29,19.29,0,0,0-1.12,6.19c.11,2.5,1.79,4.65,3.57,6.93a23,23,0,0,1,3.29,5c2,4.75,2.91,9.9,3.79,14.89s1.77,10.12,3.78,14.7c.29.68.65,1.42,1.1,2.26a55.31,55.31,0,0,0,5.12,7.33,68.45,68.45,0,0,1,4.53,6.26c5.95,9.7,6.56,21.35,7.16,32.62.19,3.74.4,7.6.8,11.32a97.94,97.94,0,0,0,25.54,56c1.38,1.47,2.82,2.93,4.22,4.34a96.69,96.69,0,0,1,8.73,9.63c.48.63,1,1.29,1.4,2a112.29,112.29,0,0,1,8.5,15.9c4.31,9.19,8.37,17.88,15.95,23.87a66.07,66.07,0,0,0,6.54,4.33c3.45,2.09,7,4.25,9.81,7.33,4.13,4.57,6,10.56,7.8,16.34,1.62,5.2,3.29,10.57,6.61,14.79a27.72,27.72,0,0,0,10.3,7.84,98.26,98.26,0,0,0,12.82,4.71c2.45.78,5,1.58,7.41,2.47a100.2,100.2,0,0,1,10.74,4.73c4.11,2.06,8.19,4.36,12.13,6.58,5.57,3.14,11.32,6.38,17.23,9,16.2,7.15,31.65,7.53,42.4,1a28.67,28.67,0,0,0,4.23-3.09c7.09-6,11.59-14.75,16.32-24.67l6.9-14.49q3.69-7.74,7.39-15.5c1.56-3.26,3.33-7,3.61-10.79a30.43,30.43,0,0,0-.93-8.28c-.35-1.76-.72-3.58-.9-5.41a51,51,0,0,1,.55-10.71,53.1,53.1,0,0,0,.58-9.75c-.54-8.37-4.9-15.53-9.52-23.12-4-6.64-8.23-13.51-9.55-21.23A65.91,65.91,0,0,1,429.2,785c.19-7.17.37-13.94-3.27-19.57-2-3.08-4.92-5.53-9.47-7.94-1.93-1-4-2-6-2.86a62.28,62.28,0,0,1-11.12-6l-.11-.08,0,0,.11-.15L400,747l.24.15A59.31,59.31,0,0,0,411.15,753c2,.92,4.13,1.87,6.1,2.91,4.82,2.56,7.93,5.18,10.1,8.52,3.93,6.08,3.73,13.43,3.55,20.54a63.88,63.88,0,0,0,.44,12.24c1.27,7.4,5.36,14.13,9.33,20.63,4.52,7.43,9.2,15.11,9.76,23.89a54.45,54.45,0,0,1-.59,10.07,36.24,36.24,0,0,0,.33,15.58,31.9,31.9,0,0,1,1,8.74c-.31,4.15-2.15,8-3.77,11.39Q443.67,895.3,440,903l-6.9,14.49c-4.82,10.1-9.4,19-16.75,25.22a30.11,30.11,0,0,1-4.46,3.27A36.46,36.46,0,0,1,392.84,950.93Z"/><path class="cls-14" d="M220.85,475.54l-.81-1.49.14-.06c4.57-2.16,8.31-5.37,12.26-8.76l.38-.33c2.17-1.84,4.13-3.48,6.25-5,12.45-9,28.6-12.26,41.57-14.86l2.23-.45a166.16,166.16,0,0,0,19.32-4.74c2.07-.68,4.17-1.46,6.19-2.22,3-1.12,6.09-2.27,9.22-3.17,6.61-1.87,13.52-2.63,20.21-3.37l.49-.05c12.19-1.33,24.8-2.69,37.27-2.69,1.16,0,2.33,0,3.49,0v1.7c-1.19,0-2.35,0-3.5,0-12.38,0-24.94,1.36-37.09,2.68l-.49.05c-6.61.73-13.45,1.48-19.92,3.32-3.07.88-6.14,2-9.1,3.13-2,.76-4.14,1.54-6.24,2.24a168.05,168.05,0,0,1-19.52,4.79l-2.24.45c-13.48,2.7-28.75,5.75-40.9,14.57-2.07,1.51-4,3.13-6.15,4.94l-.37.32c-3.87,3.32-7.87,6.75-12.58,9Z"/><path class="cls-14" d="M299.88,572a286.49,286.49,0,0,0-42.47-104.3l1.41-.94a288.34,288.34,0,0,1,42.73,104.92Z"/><path class="cls-14" d="M494.26,683.36c-1.05-24-8.5-50.24-20.45-72-1.69-3.08-3.47-6.07-5.29-8.89l1.42-.92c1.85,2.85,3.65,5.88,5.35,9,12.07,22,19.6,48.49,20.66,72.74Z"/><path class="cls-14" d="M510.86,808.78c-3.68-12.24-8.13-31.68-11.61-50.73v-.16c-.54-2.88-1-5.49-1.4-7.88-2.16-12.73-4.8-30.66-5-43.78,0-.36,0-.73,0-1.1a153,153,0,0,1,1.48-21.82v-.1c3.19-23.31,11-45.79,20.12-70.66l1.59.59c-9.08,24.75-16.85,47.12-20,70.24v.11a150.22,150.22,0,0,0-1.46,21.63c0,.35,0,.7,0,1,.24,13,2.86,30.88,5,43.55.4,2.39.86,5,1.41,7.95v.16c3.46,18.91,7.89,38.28,11.55,50.47Z"/><path class="cls-14" d="M324.23,908.54a16.28,16.28,0,0,1-3.51-3.48,43,43,0,0,1-4.3-7.64c-1.5-3.12-3-6.35-5.34-8.82a33.53,33.53,0,0,0-5.14-4.26,30,30,0,0,1-6.16-5.39c-2.56-3.24-3.65-7.26-4.71-11.14-.23-.85-.46-1.69-.7-2.53-2.75-9.36-7.7-18.06-12.49-26.47l-12.11-21.19-6-10.59c-.75-1.29-1.48-2.56-2.21-3.85l1.48-.83c.72,1.28,1.45,2.55,2.19,3.83l6.05,10.6,12.09,21.16c4.86,8.53,9.86,17.32,12.66,26.87.25.84.48,1.69.71,2.55,1,3.72,2.06,7.57,4.41,10.54a28.36,28.36,0,0,0,5.82,5.07,34.72,34.72,0,0,1,5.4,4.48c2.47,2.66,4.07,6,5.61,9.24a41.84,41.84,0,0,0,4.13,7.35,14.09,14.09,0,0,0,3.15,3.12Z"/><path class="cls-14" d="M352.34,903.35a99.79,99.79,0,0,1-17.69-1.57l.3-1.67c29.1,5.26,60.49-3.09,84-22.34a98.69,98.69,0,0,0,14.22-14.32l1.32,1.06A99.63,99.63,0,0,1,420,879.08,107.7,107.7,0,0,1,352.34,903.35Z"/><path class="cls-14" d="M208.71,723.61l-1.57-.65a38,38,0,0,1,24.1-21.54l.47,1.63A36.24,36.24,0,0,0,208.71,723.61Z"/><path class="cls-14" d="M480.65,265a22,22,0,0,1-5,1.63,22.64,22.64,0,0,1-5.28.18A5.65,5.65,0,0,1,480.65,265Z"/><path class="cls-14" d="M499.36,263.81a5.39,5.39,0,0,1,6-2,5.31,5.31,0,0,1,4.11,4.79,22.07,22.07,0,0,1-5.23-.68A21.3,21.3,0,0,1,499.36,263.81Z"/><path class="cls-14" d="M479.43,190.16a88.58,88.58,0,0,1,2.65,10.28A80.88,80.88,0,0,1,483.49,211a59.44,59.44,0,0,1-.24,10.67A41.49,41.49,0,0,1,480.78,232a84.13,84.13,0,0,0,1.16-10.45,95.89,95.89,0,0,0-.14-10.45c-.2-3.49-.59-7-1-10.45S479.84,193.68,479.43,190.16Z"/><path class="cls-14" d="M398.24,193.5A15.73,15.73,0,0,0,400.1,195a10.51,10.51,0,0,0,2,1.14,5.46,5.46,0,0,0,3.78.41,5.08,5.08,0,0,0,1.56-.78,9.25,9.25,0,0,0,.73-.58l1-.78a42.21,42.21,0,0,1,4.06-2.92,40.93,40.93,0,0,1,19.18-6.62,36.56,36.56,0,0,1,20,4.31,39,39,0,0,1,8.16,5.88,34.2,34.2,0,0,1,3.38,3.64,25,25,0,0,1,2.76,4.08,66.31,66.31,0,0,0-16.46-8.75,42.66,42.66,0,0,0-17.32-2.41,51.14,51.14,0,0,0-17.12,4.57c-1.38.63-2.78,1.28-4.15,2l-1,.53a10.34,10.34,0,0,1-1.34.63,8.37,8.37,0,0,1-3,.58,7.47,7.47,0,0,1-5.21-2.21A11,11,0,0,1,398.24,193.5Z"/><path class="cls-14" d="M463.31,132.3s-48.77,1.25-63.29,26.49c0,0,14.78-12.18,62.86-20.34Z"/><path class="cls-14" d="M515.73,132.3s48.77,1.25,63.29,26.49c0,0-14.78-12.18-62.86-20.34Z"/><path class="cls-14" d="M442.29,205.69a15.21,15.21,0,0,1,4.06-1.9,20.35,20.35,0,0,1,8.91-.73,15.54,15.54,0,0,1,4.32,1.21l-4.4.11c-1.43.05-2.86.11-4.28.24s-2.84.28-4.26.46Z"/><path class="cls-14" d="M581.55,192a11.08,11.08,0,0,1-2.72,4.24,7.6,7.6,0,0,1-5.21,2.21,8.69,8.69,0,0,1-3-.58,13.74,13.74,0,0,1-1.34-.63l-1-.53c-1.37-.71-2.76-1.36-4.15-2A51.15,51.15,0,0,0,547,190.13a42.68,42.68,0,0,0-17.33,2.41,66.21,66.21,0,0,0-16.45,8.74A25.88,25.88,0,0,1,516,197.2a35,35,0,0,1,3.37-3.63,38.88,38.88,0,0,1,8.16-5.88,36.68,36.68,0,0,1,20-4.32A41,41,0,0,1,566.65,190a49.14,49.14,0,0,1,4.06,2.92l1,.79c.25.21.48.41.72.58a5.19,5.19,0,0,0,1.56.78,5.48,5.48,0,0,0,3.79-.41,10.34,10.34,0,0,0,2-1.15A14.63,14.63,0,0,0,581.55,192Z"/><path class="cls-14" d="M537.51,204.3l-4.35-.59c-1.43-.17-2.85-.34-4.27-.43s-2.84-.17-4.28-.22l-4.4-.07a14.88,14.88,0,0,1,4.31-1.24,20.39,20.39,0,0,1,8.92.67A15.36,15.36,0,0,1,537.51,204.3Z"/><path class="cls-6" d="M536.78,288.3c-5.63,4.12-24.33,23.56-48.82,23.75-24,.19-36.51-18.24-42.28-22.24a304.14,304.14,0,0,0,44.49,2.32A340,340,0,0,0,536.78,288.3Z"/><path class="cls-15" d="M443,289.48c4-.2,8-.74,11.93-1.33a75.36,75.36,0,0,0,11.82-2.35c3.93-1.21,7.81-2.74,11.63-3.22a10.57,10.57,0,0,1,5.71.23c1.9.65,3.82,1.7,5.74,1.88,3.86.67,7.61-2.3,11.42-2,3.83.14,7.76,1.8,11.74,3.13s7.92,1.51,11.9,2a85.89,85.89,0,0,0,11.88.4c-7.67,1.75-15.43,3-23.21,4.42a99.57,99.57,0,0,1-11.76,1.64c-3.94.26-7.91-.49-11.85-.26s-7.89.95-11.84.48c-3.94-.2-7.87-.84-11.78-1.39C458.53,292,450.73,291,443,289.48Z"/><path class="cls-15" d="M444.27,289.41c8.31,2.59,14.8,13.07,22.6,14.45a117,117,0,0,0,46.21-.61c7.76-1.58,15.45-12.16,23.7-14.95-5.23,7-12.53,20.52-20.59,24.21a65.37,65.37,0,0,1-52.19.65C455.86,309.67,449.69,296.27,444.27,289.41Z"/><path class="cls-16" d="M496.11,269.11l-12.42,10.76"/><path class="cls-14" d="M522.52,269a4.13,4.13,0,0,1,1.91.79A16.71,16.71,0,0,1,526,271.1c1,.88,1.9,1.82,2.8,2.78s1.73,2,2.52,3a23.16,23.16,0,0,1,2.17,3.35,24.61,24.61,0,0,1-3.15-2.46c-1-.88-1.89-1.83-2.79-2.79s-1.74-2-2.52-3A13.5,13.5,0,0,0,522.52,269Z"/><path class="cls-14" d="M458.15,268.54c-.92,1-1.87,1.88-2.8,2.76l-2.8,2.64-2.81,2.64a8.18,8.18,0,0,1-3.43,2.11,23.8,23.8,0,0,0,2.45-3,21.37,21.37,0,0,1,5.78-5.43A15.17,15.17,0,0,1,458.15,268.54Z"/></g></svg>