<svg xmlns="http://www.w3.org/2000/svg" viewBox="0 0 738.3 1298.09"><defs><style>.cls-1{fill:#003d1d;}.cls-2{fill:#063;}.cls-3{fill:#d4a87f;}.cls-4{fill:#634e42;}.cls-5{fill:#e3bb94;}.cls-6{fill:#7b6a58;}.cls-7{fill:#f4ad33;}.cls-8{fill:#ee8d00;}.cls-9{fill:#1d1d1b;}.cls-10{fill:#fff;}.cls-11{fill:#392f25;}.cls-12{fill:#7ff4c7;opacity:0.3;}</style></defs><g id="PERSONAJES"><path class="cls-1" d="M695.82,748.05c-2.65-20-4.67-40.08-4.79-60.26-.22-38.82,6.64-77.34,8.43-116.11C701,537.45,698.23,501.89,684,471a62.42,62.42,0,0,1,8.75,6.59c10.23,9.26,16.6,22,22.33,34.51,6.73,14.69,7,33.06,9.27,49.06,3.59,25,5.19,50.19,6.77,75.37q2.46,39,4.92,78c2.14,33.73,3.88,69.39-11.7,99.37-4.47,8.58-10.23,16.43-15.26,24.72-.83-5.62-1.66-11.26-2.5-16.88q-3.29-22.12-6.56-44.26C698.57,767.7,697.13,757.89,695.82,748.05Z"/><path class="cls-1" d="M610.19,736.5c-3.14-10-5.38-20.9-9.78-30-8.55-17.65-26-28.88-40.91-41.59a199.74,199.74,0,0,1-60.74-91.69c-2.36-7.53-4.31-15.29-6.59-22.89C512.44,538.91,523,530,523,530l3.06,5.1c16.4,27.42,33.18,55.34,57.29,76.3,6.7,5.81,14,11.21,18.62,18.79,3.74,6.15,5.39,13.29,8,20,9.87,25,32.67,42,53,59.62,12.63,11,25.11,23.72,32.86,38.26,1.31,9.84,2.75,19.65,4.21,29.46q3.3,22.14,6.56,44.26c.84,5.62,1.67,11.26,2.5,16.88-.76,1.29-1.55,2.59-2.28,3.91q-1.65,3-3.14,6c-18.38-23.89-15.7-69-44.14-79.88-.54-.22-1.1-.41-1.66-.6-9.26-3-19.71-1.34-28.61-5.27C618.6,758.11,613.81,747.93,610.19,736.5Z"/><path class="cls-2" d="M684,471c14.22,30.89,17,66.45,15.45,100.68-1.79,38.77-8.65,77.29-8.43,116.11.12,20.18,2.14,40.24,4.79,60.26-7.75-14.54-20.23-27.3-32.86-38.26-20.3-17.6-43.1-34.63-53-59.62-2.63-6.69-4.28-13.83-8-20-4.59-7.58-11.92-13-18.62-18.79-24.11-21-40.89-48.88-57.29-76.3L523,530q-13.35-22.33-26.72-44.71c-1.72-2.87-3.58-5.9-6.59-7.36s-6.31-1.1-9.55-.13c-2.28-11.05-2.62-22.26-2.34-33.54,6,7.13,14.22,22.48,13.93,31.65a.88.88,0,0,0,1.68.39q13.86-32,27.74-64.05c1-2.24,2-4.65,1.84-7.05a1353.23,1353.23,0,0,1,142,55.91A153.19,153.19,0,0,1,684,471Z"/><path class="cls-2" d="M610.19,736.5c3.62,11.43,8.41,21.61,19.07,26.29,8.9,3.93,19.35,2.28,28.61,5.27.56.19,1.12.38,1.66.6,28.44,10.92,25.76,56,44.14,79.88-6.08,12.32-10.35,25.5-15.68,38.19-5.11,12.17-11.45,24.21-20.57,33.61A59.39,59.39,0,0,1,661.2,926a50.66,50.66,0,0,1-20.51,9.67c-8.27,1.78-16.89,1.2-24.48-2.54-6.27-3.09-11.4-8.05-16.43-12.92L498.59,821.8c-6.3-6.13-12.64-12.3-17.74-19.47q-1.28-1.82-2.44-3.67v0c-10.76-17.19-14.46-38-18.62-58-3.91-18.65-8.63-37.48-16.4-54.79h0a133.84,133.84,0,0,0-12.66-22.43c-7.67-10.89-17.38-20.78-21.61-33.42-4.91-14.69-1.64-30.66.41-46a370.9,370.9,0,0,0,82.64-33.63c2.28,7.6,4.23,15.36,6.59,22.89A199.74,199.74,0,0,0,559.5,664.9c14.93,12.71,32.36,23.94,40.91,41.59C604.81,715.6,607.05,726.54,610.19,736.5Z"/><path class="cls-1" d="M665.51,1028.07c5.57,89.72,34.22,178.76,22.84,267.92l-109.31-.1c56-110.14,78.56-237.41,61.72-359.92l-.07-.32A50.66,50.66,0,0,0,661.2,926a59.39,59.39,0,0,0,6.22-5.64C664.36,959.18,663.1,989.26,665.51,1028.07Z"/><path class="cls-2" d="M640.76,936C657.6,1058.48,635,1185.75,579,1295.89l-88.4-.07v-.42c-7.05-81.16,4.11-131.75-5.2-207.66-4.38-35.8-16.67-81-19.1-117-1.63-24.09,9.09-56.66,10.74-80.76,2.24-32.83,1.9-59.15,1.33-91.34q1.17,1.86,2.44,3.67c5.1,7.17,11.44,13.34,17.74,19.47l101.19,98.39c5,4.87,10.16,9.83,16.43,12.92,7.59,3.74,16.21,4.32,24.48,2.54Z"/><path class="cls-3" d="M531.57,190.52c1.37,8.77-1.51,17.6-4.37,26q-3.65,10.78-7.29,21.53c-1.76,5.21-3.58,10.55-6.95,14.9s-8.61,7.64-14.1,7.2L498,260a417.63,417.63,0,0,0,6.61-43.25c1.21-11.1,2.5-14.51,2.92-24.16a22.12,22.12,0,0,1,1.73-2.23,23.18,23.18,0,0,1,9.5-6.43c3.65-1.3,8.27-1.4,10.79,1.52A10.08,10.08,0,0,1,531.57,190.52Z"/><path class="cls-2" d="M523,405.2c.13,2.4-.87,4.81-1.84,7.05q-13.89,32-27.74,64.05a.88.88,0,0,1-1.68-.39c.29-9.17-7.92-24.52-13.93-31.65.4-17.7,2.32-35.58.61-53.2-.46-4.68-1.18-9.37-1.89-14l.15,0,1-.15q.51,5.72,1.35,11.27A67.51,67.51,0,0,0,482.65,377c12.92,2.74,21.55,22.63,36.12,24.57a15.59,15.59,0,0,0,3.2.12,8.65,8.65,0,0,1,.9,2.41A5.68,5.68,0,0,1,523,405.2Z"/><path class="cls-1" d="M480.14,477.8c3.24-1,6.59-1.33,9.55.13s4.87,4.49,6.59,7.36Q509.63,507.67,523,530s-10.56,8.91-30.83,20.32c-3.13-10.51-6.87-20.74-13.12-29.69-10.77-15.41-32.43-25.59-48.72-16.19l-1.4-2.5a420.05,420.05,0,0,1,46.88-22.6A43.47,43.47,0,0,1,480.14,477.8Z"/><path class="cls-1" d="M522,401.7a15.59,15.59,0,0,1-3.2-.12c-14.57-1.94-23.2-21.83-36.12-24.57,2.33-10.19,1.18-19.72-6.3-28.84v0q0-4,0-8.1h.26L520,398.73A24.26,24.26,0,0,1,522,401.7Z"/><path class="cls-4" d="M518.79,107c1.43,12.3,1.16,32.23-.25,44.53-1.8,15.62-2.37,24.69-9.25,38.82a22.12,22.12,0,0,0-1.73,2.23c0-1.07.09-2.23.1-3.48-8.37-22.07-8.3-47.76-22.3-66.77-4.51-6.14-10.38-11.38-13.53-18.32a27.84,27.84,0,0,1-2-6.66c-1.41-8,.16-16.6,1.11-25.57a1.46,1.46,0,0,0,0-.22c1.34-9.26,1.34-18.94,1.92-28.1v-2c1.21,3.62,6,3.9,9.69,5,6.72,2.13,10.8,8.8,14.1,15.06C504.62,76.62,516.8,90,518.79,107Z"/><path class="cls-3" d="M471.48,301.11c-5.15.06-10.1,2.93-13.66,6.74-7.67,8.16-9.94,19.93-10.76,31.09-.37,5-.51,10.08-.92,15.09-5.33,5.33-7.79,8-13.45,11.43l-.15.27q-5.64-3.32-11-7.12c46.54-77.55,63.82-172.18,47.69-261.19l.51-.09a27.84,27.84,0,0,0,2,6.66c3.15,6.94,9,12.18,13.53,18.32,14,19,13.93,44.7,22.3,66.77,0,1.25-.06,2.41-.1,3.48-.42,9.65-1.71,13.06-2.92,24.16A417.63,417.63,0,0,1,498,260c-3.67,17-9,33.44-17.31,48.63-1.79,3.26-2.41,4.47-3.62,6.54-.44.76-1,1.65-1.68,2.8a75.05,75.05,0,0,0-2.09-16.73A16.64,16.64,0,0,0,471.48,301.11Z"/><path class="cls-2" d="M479.05,520.63c6.25,9,10,19.18,13.12,29.69A370.9,370.9,0,0,1,409.53,584c2-15.36,2.38-32.4-7-44.7-3.23-4.23-7.66-8-9.28-12.93l2-3.37c.95-.66,1.92-1.32,2.89-2q15-10.18,30.8-19l1.4,2.5C446.62,495,468.28,505.22,479.05,520.63Z"/><path class="cls-2" d="M490.64,1295.4v.42l-36.71,0a1091.17,1091.17,0,0,0-9.86-239.43c-5.79-38-10.52-72.28-7.93-110.62,1.71-25.62,5-54.56,8.56-80,6.78-47.74,3.82-96.26.87-144.4-.94-15.37-1.24-20.18-2.18-35.54,7.77,17.31,12.49,36.14,16.4,54.79,4.16,20,7.86,40.83,18.62,58v0c.57,32.19.91,58.51-1.33,91.34-1.65,24.1-12.37,56.67-10.74,80.76,2.43,36,14.72,81.18,19.1,117C494.75,1163.65,483.59,1214.24,490.64,1295.4Z"/><path class="cls-1" d="M476.35,348.17c7.48,9.12,8.63,18.65,6.3,28.84a13.81,13.81,0,0,0-5-.15C476.71,367.48,476.37,357.82,476.35,348.17Z"/><path class="cls-1" d="M477.63,376.86a13.81,13.81,0,0,1,5,.15A67.51,67.51,0,0,1,479,388.13Q478.14,382.57,477.63,376.86Z"/><path class="cls-3" d="M478.41,391.06c1.71,17.62-.21,35.5-.61,53.2-.28,11.28.06,22.49,2.34,33.54a43.47,43.47,0,0,0-4.33,1.54,420.05,420.05,0,0,0-46.88,22.6q-15.8,8.83-30.8,19l-.19-.27c-.23-.36-.47-.71-.71-1.05,19-31.45,36.94-63.56,50.55-97.64,15.34-38.41,25.09-79.65,23.7-120.91a16.64,16.64,0,0,1,1.85.1,75.05,75.05,0,0,1,2.09,16.73c.3,12.73-1.48,26-1.16,38.3A165.37,165.37,0,0,0,476.52,377C477.23,381.69,478,386.38,478.41,391.06Z"/><path class="cls-2" d="M477.63,376.86l-1,.15-.15,0a165.37,165.37,0,0,1-2.26-20.79c-.32-12.29,1.46-25.57,1.16-38.3.69-1.15,1.24-2,1.68-2.8l0,0c-.31,8.08-.6,16.44-.72,24.89q0,4.05,0,8.1v0C476.37,357.82,476.71,367.48,477.63,376.86Z"/><path class="cls-5" d="M355.78,391.17c1.51.83,2.9,1.58,4.11,2.19A12.45,12.45,0,0,0,355.78,391.17Zm-27,48.43a19.86,19.86,0,0,1-3.43-9.54c-.39-6.12,3.87-12.81,10-13.24a18.72,18.72,0,0,1,7.3,1.48c-2.71-1.5-5.16-3.16-6.33-5.56a6.19,6.19,0,0,1-.31-3.26c.41-4.7,1.07-9.61,3.84-13.44a11.49,11.49,0,0,1,1.29-1.49,53.15,53.15,0,0,1-6.76-7.36c-3.19-4-6.52-8.37-7.07-13.51-.73-7.1,4-13.47,8.46-19a5.1,5.1,0,0,1,2.5-2,5,5,0,0,1,2.65.3c4,1.21,8.22,2.52,12.49,3.95,13.17,4.45,26.88,10.07,37.48,17.6a134.13,134.13,0,0,1-21.49-18.83C357,342,342.2,340,328.53,330a32.63,32.63,0,0,1-4-3.42c-1.36-2.29-2.67-4.72-4-7.39a6.35,6.35,0,0,1,.45-2.7c1.86-4.84,8.37-5.57,13.55-5.13,18.88,1.63,37.3,12.49,52.76,23.43,10.14,7.17,19,11.91,28.72,19.59,1.84,1.44,3.69,2.84,5.59,4.19q5.31,3.81,11,7.12c3.39,2,6.88,3.89,10.43,5.63A68.13,68.13,0,0,0,446.14,354c.41-5,.55-10.09.92-15.09.82-11.16,3.09-22.93,10.76-31.09,3.56-3.81,8.51-6.68,13.66-6.74,1.39,41.26-8.36,82.5-23.7,120.91-13.61,34.08-31.57,66.19-50.55,97.64a52.84,52.84,0,0,0-4.25-5.44l-.08-.1c-7.92-8.95-18-15.53-25.79-24.63a57.2,57.2,0,0,1-4-5.2c-5.7-8.38-8.89-18.4-15.53-26.05-3.43-3.94-7.68-7.12-11.59-10.62-.66-.59-1.32-1.19-2-1.81A36.66,36.66,0,0,1,328.78,439.6Z"/><path class="cls-6" d="M300.61,114.83c-11.24,23.64-12.69,50.27-11.24,75.5h-.11c-4.16-4.72-6.4-10.78-8.41-16.75-7.1-21.15-12.31-43.32-11-65.59s9.82-44.81,26.56-59.55l-7.16-.27,31.89-25.56c6.37-5.09,12.85-10.26,20.32-13.55C350.7,5,360.94,4,371,3c9.58-.92,19.14-1.82,28.76-2.1,8.43-.26,17,0,25.09,2.25,20.46,5.8,34.93,23.5,48,40.25-.58,9.16-.58,18.84-1.92,28.1a1.46,1.46,0,0,1,0,.22A68.78,68.78,0,0,1,468,84.13c-1.52,4.37-3.33,8.82-6.75,11.93-2.92,2.7-6.76,4.14-10.52,5.47A373.79,373.79,0,0,1,330,122.9c-5,0-10.18-.05-14.72-2.15a11.91,11.91,0,0,0,5.7-4.83A33.82,33.82,0,0,1,300.61,114.83Z"/><path class="cls-5" d="M289.47,192c0-.53-.07-1.07-.1-1.62-1.45-25.23,0-51.86,11.24-75.5A33.82,33.82,0,0,0,321,115.92a11.91,11.91,0,0,1-5.7,4.83c4.54,2.1,9.7,2.19,14.72,2.15a373.79,373.79,0,0,0,120.72-21.37c3.76-1.33,7.6-2.77,10.52-5.47,3.42-3.11,5.23-7.56,6.75-11.93a68.78,68.78,0,0,0,2.92-12.37c-.95,9-2.52,17.62-1.11,25.57l-.51.09c16.13,89-1.15,183.64-47.69,261.19-1.9-1.35-3.75-2.75-5.59-4.19-9.76-7.68-18.58-12.42-28.72-19.59-15.46-10.94-33.88-21.8-52.76-23.43-5.18-.44-11.69.29-13.55,5.13a6.35,6.35,0,0,0-.45,2.7c-1.56-3.16-3.16-6.66-4.92-10.63A280.31,280.31,0,0,1,299.18,260a334.68,334.68,0,0,1-7.5-43.3C290.81,208.75,290,200.43,289.47,192Z"/><path class="cls-7" d="M444.07,1056.36a1091.17,1091.17,0,0,1,9.86,239.43l-75.34-.07a511.05,511.05,0,0,1,.26-211.16c6-28.24,14.49-56.07,17.63-84.78,3.76-34.37-.22-69-3.34-103.48a2125.36,2125.36,0,0,1-1.52-367.4c.53-.85,1.06-1.72,1.58-2.58,1.62,5,6.05,8.7,9.28,12.93,9.43,12.3,9.09,29.34,7,44.7s-5.32,31.33-.41,46c4.23,12.64,13.94,22.53,21.61,33.42a133.84,133.84,0,0,1,12.66,22.43h0c.94,15.36,1.24,20.17,2.18,35.54,2.95,48.14,5.91,96.66-.87,144.4-3.6,25.41-6.85,54.35-8.56,80C433.55,984.08,438.28,1018.37,444.07,1056.36Z"/><path class="cls-3" d="M446.14,354A68.13,68.13,0,0,1,443,371.36c-3.55-1.74-7-3.62-10.43-5.63l.15-.27C438.35,362,440.81,359.36,446.14,354Z"/><path class="cls-7" d="M397.94,520.71l.19.27c-1,.65-1.94,1.31-2.89,2,.67-1.08,1.33-2.19,2-3.29C397.47,520,397.71,520.35,397.94,520.71Z"/><path class="cls-7" d="M397.23,519.66c-.66,1.1-1.32,2.21-2,3.29l-2.48,1.72a11.45,11.45,0,0,0,.44,1.65c-.52.86-1.05,1.73-1.58,2.58q.6-7.29,1.26-14.59l.1-.09A52.84,52.84,0,0,1,397.23,519.66Z"/><path class="cls-8" d="M391.62,528.9a2125.36,2125.36,0,0,0,1.52,367.4c3.12,34.44,7.1,69.11,3.34,103.48-3.14,28.71-11.6,56.54-17.63,84.78a511.05,511.05,0,0,0-.26,211.16l-33.21,0a1090.85,1090.85,0,0,1,9.84-239.33c5.79-38,13.62-76.17,11-114.51-1.72-25.61-8.05-50.67-11.67-76.08-6.76-47.74-3.82-96.26-.87-144.4,4.79-77.76,7.94-141.6,12.52-217.75,0,0,11.78,10.79,26.52,10.79l.12-.1Q392.22,521.6,391.62,528.9Z"/><path class="cls-2" d="M392.76,524.67l2.48-1.72-2,3.37A11.45,11.45,0,0,1,392.76,524.67Z"/><path class="cls-7" d="M392.9,514.12l.08.1-.1.09A.62.62,0,0,1,392.9,514.12Z"/><path class="cls-8" d="M392.9,514.12a.62.62,0,0,0,0,.19l-.12.1c-14.74,0-26.52-10.79-26.52-10.79.29-4.65.58-9.38.87-14.13C374.94,498.59,385,505.17,392.9,514.12Z"/><path class="cls-5" d="M369.39,355.64a134.13,134.13,0,0,0,21.49,18.83c-10.6-7.53-24.31-13.15-37.48-17.6-15.84-12.92-23-20.32-28.9-30.25a32.63,32.63,0,0,0,4,3.42C342.2,340,357,342,369.39,355.64Z"/><path class="cls-2" d="M367.11,489.49c-.29,4.75-.58,9.48-.87,14.13-4.58,76.15-7.73,140-12.52,217.75-3,48.14-5.89,96.66.87,144.4,3.62,25.41,10,50.47,11.67,76.08,2.58,38.34-5.25,76.52-11,114.51a1090.85,1090.85,0,0,0-9.84,239.33l-36.71,0v-.25c7.05-81.16-4.12-131.75,5.18-207.66,4.38-35.8,16.68-81,19.09-117,1.63-24.09-9.09-56.66-10.73-80.76-7.62-111.2,5-216.64,10.9-330.74,1.75-33.86,8.53-89.7,2.89-111.64,3.91,3.5,8.16,6.68,11.59,10.62,6.64,7.65,9.83,17.67,15.53,26.05A57.2,57.2,0,0,0,367.11,489.49Z"/><path class="cls-5" d="M322.75,348.39c0-2.72-.1-5.46-.19-8.23-.15-5.4-.37-10.92-.59-16.66a17.22,17.22,0,0,0,2.53,3.12c5.88,9.93,13.06,17.33,28.9,30.25-4.27-1.43-8.46-2.74-12.49-3.95a5,5,0,0,0-2.65-.3,5.1,5.1,0,0,0-2.5,2c-4.46,5.55-9.19,11.92-8.46,19,.55,5.14,3.88,9.47,7.07,13.51a53.15,53.15,0,0,0,6.76,7.36,11.49,11.49,0,0,0-1.29,1.49c-2.77,3.83-3.43,8.74-3.84,13.44a88.81,88.81,0,0,1-11.89-12.93,34.46,34.46,0,0,1-3.81-6.45A247.59,247.59,0,0,0,322.75,348.39Z"/><path class="cls-2" d="M320.3,390.1a34.46,34.46,0,0,0,3.81,6.45A88.81,88.81,0,0,0,336,409.48a6.19,6.19,0,0,0,.31,3.26c1.17,2.4,3.62,4.06,6.33,5.56a18.72,18.72,0,0,0-7.3-1.48c-6.12.43-10.38,7.12-10,13.24a19.86,19.86,0,0,0,3.43,9.54,93,93,0,0,0-11.37,10.72c-6,7.12-10.14,16.42-9.85,25.59a.87.87,0,0,1-1.66.39q-13.89-32-27.75-64.05a20.59,20.59,0,0,1-1.76-5.44,7.43,7.43,0,0,1,.05-2.7,13.85,13.85,0,0,1,2.87-5.38q21.6-29.31,43.25-58.57c.09,2.77.16,5.51.19,8.23C314.34,358.92,314.31,377.08,320.3,390.1Z"/><path class="cls-2" d="M1.17,1258.34c18.61-18.58,14.61-49,11.13-75.11a554.66,554.66,0,0,1,1.17-155.16c4.79-32.15,12.4-65,5.18-96.72C16.89,923.62,14.24,916,14.32,908c.09-8.8,3.52-17.18,5.86-25.67,6.56-23.79,4.56-49,3.86-73.63A670.81,670.81,0,0,1,84.2,512.1c5.74-12.56,12.1-25.25,22.32-34.51,8-7.25,18-12,27.8-16.48,47.13-21.59,92.85-38.05,142.07-54.3a20.59,20.59,0,0,0,1.76,5.44q13.86,32,27.75,64.05a.87.87,0,0,0,1.66-.39c-.29-9.17,3.82-18.47,9.85-25.59a93,93,0,0,1,11.37-10.72,36.66,36.66,0,0,0,5.25,6.21c.65.62,1.31,1.22,2,1.81,5.64,21.94-1.14,77.78-2.89,111.64-5.88,114.1-18.52,219.54-10.9,330.74,1.64,24.1,12.36,56.67,10.73,80.76-2.41,36-14.71,81.18-19.09,117-9.3,75.91,1.87,126.5-5.18,207.66v.25l-196.47-.17q-1-42.7-1.92-85.42c5.3-60.52,19.72-121.1,23.5-182,6-96.77-14.89-193.8-13.39-290.42-8.84,66.41-12.51,133.39-13.61,200.51q-.23,14-.31,28.1c-.37,57.94.92,116,2.23,173.82l1.58,70c-2.5,28.47-3,57,.61,85.42l-100.36-.08A41.55,41.55,0,0,0,1.17,1258.34Z"/><path class="cls-1" d="M322.75,348.39a247.59,247.59,0,0,1-2.45,41.71C314.31,377.08,314.34,358.92,322.75,348.39Z"/><path class="cls-5" d="M299.18,260l-.57.14c-5.49.44-10.74-2.84-14.1-7.2s-5.19-9.69-6.95-14.9q-3.65-10.76-7.29-21.53c-2.86-8.41-5.74-17.24-4.37-26a10.08,10.08,0,0,1,2-5.1c2.51-2.92,7.14-2.82,10.79-1.52a22.93,22.93,0,0,1,10.79,8c.51,8.48,1.34,16.8,2.21,24.77A334.68,334.68,0,0,0,299.18,260Z"/><path class="cls-1" d="M106.47,966.26q.07-14,.31-28.1c1.1-67.12,4.77-134.1,13.61-200.51-1.5,96.62,19.4,193.65,13.39,290.42-3.78,60.89-18.2,121.47-23.5,182l-1.58-70C107.39,1082.21,106.1,1024.2,106.47,966.26Z"/><path class="cls-2" d="M110.28,1210.06q.94,42.7,1.92,85.42h-1.31C107.29,1267,107.78,1238.53,110.28,1210.06Z"/><path class="cls-9" d="M297.65,261.05c-4.95,0-10.16-2.83-13.82-7.57-3.47-4.49-5.3-9.91-7.08-15.15q-3.64-10.76-7.29-21.53c-2.74-8.07-5.84-17.22-4.4-26.41a11,11,0,0,1,2.19-5.52c2.87-3.34,7.93-3.11,11.71-1.78a23.77,23.77,0,0,1,11.19,8.36c.21.25.41.54.61.83l-1.4,1c-.17-.25-.35-.5-.55-.76a22.17,22.17,0,0,0-10.41-7.78c-3.1-1.1-7.55-1.42-9.86,1.28a9.39,9.39,0,0,0-1.8,4.67c-1.38,8.78,1.66,17.72,4.33,25.61q3.65,10.78,7.29,21.52c1.73,5.11,3.52,10.39,6.82,14.66,3.56,4.62,8.68,7.24,13.36,6.87l.14,1.7C298.34,261,298,261.05,297.65,261.05Z"/><path class="cls-9" d="M499.82,261.05c-.35,0-.69,0-1,0l.14-1.7c4.69.38,9.8-2.25,13.36-6.87,3.3-4.27,5.09-9.55,6.82-14.66q3.64-10.74,7.29-21.52c2.67-7.89,5.71-16.83,4.33-25.61a9.39,9.39,0,0,0-1.8-4.67c-2.32-2.7-6.76-2.38-9.86-1.28a22,22,0,0,0-9.14,6.2,18.62,18.62,0,0,0-1.66,2.13l-.14.18-.72-.45-.64-.57.12-.15a20.61,20.61,0,0,1,1.77-2.27,23.8,23.8,0,0,1,9.85-6.68c3.77-1.33,8.83-1.57,11.71,1.78a11,11,0,0,1,2.19,5.52c1.44,9.19-1.66,18.34-4.4,26.42l-7.29,21.52c-1.78,5.24-3.61,10.66-7.08,15.15C510,258.22,504.77,261.05,499.82,261.05Z"/><path class="cls-9" d="M509.29,191.18a.83.83,0,0,1-.37-.08.86.86,0,0,1-.39-1.14c6.26-12.86,7.25-21.63,8.75-34.9l.41-3.64c1.48-12.91,1.6-32.8.26-44.34-1.37-11.72-7.57-21.53-14.14-31.91-2.72-4.3-5.52-8.74-7.92-13.29-3.17-6-7.09-12.58-13.61-14.64-.75-.23-1.55-.43-2.39-.64-2.26-.55-4.73-1.16-6.35-2.65a1,1,0,0,1-.41.3.88.88,0,0,1-.95-.28C457.63,25.36,444,9.51,424.59,4c-8.39-2.37-17.26-2.45-24.84-2.23-9.81.3-19.85,1.26-28.7,2.11-9.88.94-20.1,1.91-29.23,5.94-7.42,3.27-13.88,8.44-20.14,13.45Q308.77,33.62,295.85,44l-4.28,3.42,1.23.05,3.65.14a.85.85,0,0,1,.77.56.87.87,0,0,1-.24.93c-15.29,13.46-24.86,35-26.27,59-1.13,18.93,2.35,39.67,11,65.27,2,6.06,4.2,11.88,8.24,16.46a.84.84,0,0,1-.08,1.2.85.85,0,0,1-1.2-.07c-4.24-4.83-6.56-11.07-8.57-17.05-8.67-25.82-12.18-46.76-11-65.91,1.39-23.64,10.58-44.9,25.3-58.73l-1.58-.06-3.5-.14a.85.85,0,0,1-.5-1.51l6-4.85L320.62,22c6.34-5.07,12.9-10.31,20.51-13.67,9.39-4.15,19.74-5.13,29.76-6.08C379.77,1.35,389.83.38,399.7.09c7.71-.24,16.74-.15,25.35,2.29,19.26,5.45,32.82,20.65,47,38.68a.84.84,0,0,1,.65-.51.86.86,0,0,1,.94.57c.8,2.4,3.63,3.1,6.63,3.83.83.21,1.7.42,2.5.67,6.79,2.15,11,8.7,14.6,15.47,2.37,4.49,5.16,8.9,7.86,13.17,6.37,10.09,13,20.52,14.38,32.63,1.36,11.64,1.24,31.71-.25,44.72l-.41,3.64c-1.52,13.45-2.52,22.33-8.91,35.46A.85.85,0,0,1,509.29,191.18Z"/><path class="cls-9" d="M470.93,72.39h-.12a.84.84,0,0,1-.72-1,195.06,195.06,0,0,0,1.49-19.48c.12-2.82.25-5.74.42-8.55a.86.86,0,0,1,.91-.79.84.84,0,0,1,.79.9c-.18,2.79-.3,5.7-.42,8.52a196.64,196.64,0,0,1-1.51,19.65A.84.84,0,0,1,470.93,72.39Z"/><path class="cls-9" d="M328.82,123.76c-4.91,0-9.66-.27-13.9-2.24a.88.88,0,0,1-.5-.8A.83.83,0,0,1,315,120a11,11,0,0,0,3.93-2.7,35,35,0,0,1-18.57-1.63,33.36,33.36,0,0,1-10-5.73.85.85,0,0,1-.17-1.13,86.24,86.24,0,0,1,11.21-13.49.85.85,0,0,1,1.19,1.22A83.66,83.66,0,0,0,292,109.08a31.84,31.84,0,0,0,8.9,5,33,33,0,0,0,19.85,1.07.85.85,0,0,1,.9.31.86.86,0,0,1,0,1,12.66,12.66,0,0,1-4.34,4.3c3.85,1.33,8.18,1.43,12.63,1.39a371.35,371.35,0,0,0,120.45-21.32c4-1.41,7.5-2.77,10.22-5.29,3.39-3.08,5.14-7.6,6.52-11.59a67.17,67.17,0,0,0,2.89-12.21.85.85,0,1,1,1.68.25,68.93,68.93,0,0,1-3,12.52c-1.45,4.19-3.31,8.93-7,12.28-2.95,2.73-6.8,4.23-10.8,5.64a373.12,373.12,0,0,1-121,21.42Z"/><path class="cls-9" d="M352.86,357.52c-16.17-13.19-23.24-20.59-29.09-30.46-1.38-2.33-2.69-4.76-4-7.45s-2.87-6-4.94-10.67a281.77,281.77,0,0,1-16.46-48.72,339.13,339.13,0,0,1-7.53-43.41c-.8-7.33-1.68-16-2.21-24.81l-.1-1.61c-1.15-20-1.22-49.57,11.33-75.92a5.38,5.38,0,0,1,.24-.53l1.52.76c-.07.15-.15.3-.21.45-9.44,19.84-13,43.7-11.19,75.14l.1,1.6c.53,8.76,1.42,17.42,2.21,24.74A337.45,337.45,0,0,0,300,259.82a280.4,280.4,0,0,0,16.36,48.43c2.06,4.64,3.53,7.81,4.92,10.61,1.29,2.65,2.59,5,3.94,7.33,5.73,9.68,12.71,17,28.71,30Z"/><path class="cls-9" d="M433.13,366.19l-.88-1.45c5.14-3.14,7.63-5.64,12.14-10.16l1.15-1.15,1.2,1.2-1.14,1.15C441,360.4,438.45,362.94,433.13,366.19Z"/><path class="cls-9" d="M476.14,318.38l-1.45-.88.57-.94c.43-.71.79-1.31,1.1-1.85.89-1.52,1.47-2.59,2.43-4.35l1.18-2.17c7.52-13.71,13.15-29.54,17.23-48.4a422.77,422.77,0,0,0,6.59-43.16c.5-4.59,1-7.89,1.47-10.8a105.66,105.66,0,0,0,1.45-13.31l0-.92c0-.75.06-1.54.07-2.37-3.11-8.25-5.08-17.09-7-25.63-3.18-14.26-6.48-29-15.15-40.79-1.5-2-3.2-4-4.84-6-3.27-3.83-6.64-7.8-8.77-12.5a28,28,0,0,1-2.1-6.86c-1.18-6.61-.35-13.55.53-20.91.19-1.62.39-3.25.56-4.9l0-.12h1.7a1.61,1.61,0,0,1,0,.37c-.18,1.63-.37,3.26-.56,4.87-.87,7.22-1.68,14-.55,20.41a26.82,26.82,0,0,0,2,6.45c2,4.48,5.33,8.36,8.52,12.1,1.66,2,3.38,4,4.92,6.07,8.88,12.06,12.22,27,15.44,41.42,1.9,8.54,3.88,17.37,7,25.54l.05.16v.16c0,.9,0,1.76-.07,2.57l0,.93a107.65,107.65,0,0,1-1.47,13.5c-.45,2.9-1,6.18-1.46,10.72a421.65,421.65,0,0,1-6.62,43.34c-4.11,19-9.8,35-17.4,48.86l-1.18,2.17c-1,1.77-1.55,2.84-2.45,4.39-.31.54-.68,1.15-1.12,1.87Z"/><path class="cls-9" d="M479,389a.87.87,0,0,1-.84-.73c-.57-3.78-1-7.59-1.36-11.31-.84-8.59-1.26-18-1.28-28.77a.85.85,0,0,1,.85-.85h0a.85.85,0,0,1,.85.85c0,10.7.43,20.06,1.27,28.61.33,3.69.79,7.47,1.35,11.22a.85.85,0,0,1-.71,1Z"/><path class="cls-9" d="M476.35,349a.85.85,0,0,1-.85-.85c0-2.71,0-5.41.05-8.12.12-8,.37-15.71.72-24.91a.84.84,0,0,1,.85-.81h0a.84.84,0,0,1,.81.88c-.34,9.18-.6,16.93-.71,24.87q0,4-.05,8.09A.85.85,0,0,1,476.35,349Z"/><path class="cls-9" d="M454.62,1298.09l-1.7-.12.16-2.24a1090.85,1090.85,0,0,0-9.85-239.25c-6.05-39.7-10.48-73.07-7.94-110.8,1.6-23.92,4.64-52.34,8.57-80,6.78-47.77,3.77-96.81.86-144.22-.48-7.89-.79-13-1.11-18.16-.3-4.92-.61-9.9-1.07-17.39l1.7-.1c.46,7.49.76,12.46,1.06,17.38.32,5.18.64,10.28,1.11,18.16,2.92,47.5,5.94,96.62-.87,144.57-3.92,27.65-7,56-8.55,79.9-2.53,37.57,1.88,70.84,7.92,110.44a1092.31,1092.31,0,0,1,9.86,239.62Z"/><path class="cls-9" d="M479.77,388.45l-1.57-.65a67.62,67.62,0,0,0,3.63-11c2.51-11,.56-19.95-6.14-28.13l-.19-.23v-.3h.86l.65-.53c7.06,8.61,9.11,18,6.47,29.57A68.67,68.67,0,0,1,479.77,388.45Z"/><path class="cls-9" d="M492.64,477.68a1.74,1.74,0,0,1-1.76-1.78c.28-8.85-7.81-24.07-13.73-31.09l1.3-1.1c6,7.08,14.43,22.63,14.13,32.23q13.94-32,27.79-64c.85-2,1.9-4.38,1.77-6.66a4.45,4.45,0,0,0-.11-1,7.65,7.65,0,0,0-.81-2.17,23.66,23.66,0,0,0-1.9-2.86L476,340.55l1.37-1,43.34,58.68a23.83,23.83,0,0,1,2,3.08,9.18,9.18,0,0,1,1,2.65,6.87,6.87,0,0,1,.14,1.25c.15,2.63-1,5.27-1.91,7.39q-13.89,32-27.74,64.05A1.69,1.69,0,0,1,492.64,477.68Z"/><path class="cls-9" d="M489.79,1295.47c-3.34-38.46-2.59-70.11-1.87-100.71.81-34.46,1.57-67-3.32-106.92-1.88-15.35-5.15-32.08-8.61-49.8-4.47-22.93-9.1-46.64-10.49-67.22-1-14.33,2.38-31.58,5.63-48.27,2.28-11.72,4.43-22.79,5.1-32.61,2.19-31.93,1.94-56.87,1.33-91.26l1.7,0c.61,34.45.86,59.42-1.33,91.41-.68,9.93-2.84,21.05-5.13,32.83-3.23,16.57-6.56,33.71-5.61,47.83,1.38,20.47,6,44.13,10.47,67,3.46,17.74,6.74,34.51,8.62,49.91,4.92,40,4.15,72.65,3.34,107.17-.72,30.56-1.47,62.16,1.87,100.53Z"/><path class="cls-9" d="M541.31,1016.44l.1-1.46c1.14-18.27,11.26-36.7,30.93-56.32l1.2,1.2c-18.83,18.79-28.77,36.39-30.33,53.76a408.59,408.59,0,0,0,87.71-58.35l1.12,1.29a410.67,410.67,0,0,1-89.41,59.24Z"/><path class="cls-9" d="M596,1264.66l-.36-1.66a112.46,112.46,0,0,0,75.86-58l1.51.77A114.19,114.19,0,0,1,596,1264.66Z"/><path class="cls-9" d="M627.77,1273.33c-1.38,0-2.77-.06-4.16-.17l.14-1.7a52.12,52.12,0,0,0,46-21.4l1.38,1A54,54,0,0,1,627.77,1273.33Z"/><path class="cls-9" d="M320.25,391.35h-.1a.85.85,0,0,1-.74-1l0-.41a245.18,245.18,0,0,0,2.44-41.59c0-2.43-.09-5-.19-8.21-.13-4.76-.32-9.55-.51-14.62l-.08-2,.85-.07.85,0,.08,2c.19,5.07.38,9.87.51,14.63.1,3.18.16,5.8.19,8.24a246.86,246.86,0,0,1-2.46,41.84l-.05.39A.84.84,0,0,1,320.25,391.35Z"/><path class="cls-9" d="M344.68,1298.09l-.05-.79c0-.53-.08-1-.1-1.58a1091.94,1091.94,0,0,1,9.85-239.49c.93-6.13,1.94-12.37,2.91-18.41,5-31.39,10.28-63.85,8.12-95.92-1.07-16-4-32.19-6.88-47.79-1.69-9.23-3.44-18.78-4.78-28.22-6.81-48-3.79-97.11-.88-144.57,2.57-41.59,4.69-79.86,6.75-116.86,1.79-32.19,3.64-65.48,5.77-100.89q.44-7,.87-14.14l1.7.11c-.29,4.75-.58,9.48-.87,14.13-2.13,35.41-4,68.7-5.77,100.89-2.06,37-4.19,75.26-6.75,116.87-2.91,47.37-5.92,96.35.86,144.22,1.34,9.41,3.08,18.94,4.77,28.15,2.86,15.65,5.83,31.84,6.91,48,2.17,32.26-3.07,64.82-8.15,96.3-1,6-2,12.27-2.9,18.39a1090.06,1090.06,0,0,0-9.83,239.15c0,.53.06,1,.09,1.55l.06.8Z"/><path class="cls-9" d="M335.42,410.1a89.18,89.18,0,0,1-12-13,35.31,35.31,0,0,1-3.9-6.61c-6.56-14.24-5.46-32.55,2.55-42.59l.19-.24,1.33,1.06-.19.24c-7.64,9.57-8.65,27.12-2.34,40.82a33.42,33.42,0,0,0,3.72,6.3,87.13,87.13,0,0,0,11.79,12.82Z"/><path class="cls-9" d="M306.68,477.68a1.69,1.69,0,0,1-1.56-1q-13.89-32-27.75-64.05a21.84,21.84,0,0,1-1.83-5.67,8.49,8.49,0,0,1,.06-3,14.73,14.73,0,0,1,3-5.72q16.59-22.5,33.2-45l10.06-13.61a1.05,1.05,0,0,1,.16-.2l.6.61.69.48-.1.13h0L313.2,354.26q-16.6,22.49-33.21,45a13.34,13.34,0,0,0-2.72,5,6.92,6.92,0,0,0,0,2.41,20.22,20.22,0,0,0,1.7,5.19Q292.8,444,306.67,476c-.23-8.78,3.43-18.32,10.1-26.18a91.36,91.36,0,0,1,11.48-10.84l.47.59.68.66-.09.08a90.42,90.42,0,0,0-11.25,10.6c-6.39,7.55-9.91,16.67-9.65,25a1.72,1.72,0,0,1-1.35,1.76A1.69,1.69,0,0,1,306.68,477.68Z"/><path class="cls-9" d="M309.51,1295.47l-1.69-.14c3.33-38.39,2.59-70,1.87-100.57-.82-34.51-1.59-67.1,3.31-107.13,1.89-15.39,5.16-32.14,8.62-49.87,4.48-22.89,9.1-46.57,10.48-67,.95-14.11-2.38-31.25-5.61-47.83-2.29-11.77-4.45-22.9-5.13-32.83-5.62-82-.28-160,5.36-242.47,2-28.71,4-58.4,5.54-88.36.45-8.61,1.22-18.59,2-29.16,2.37-30.93,5.06-66,.89-82.23l1.64-.42c4.25,16.5,1.54,51.72-.84,82.78-.81,10.56-1.57,20.53-2,29.12-1.54,30-3.58,59.67-5.54,88.38-5.64,82.44-11,160.31-5.37,242.25.67,9.82,2.83,20.89,5.11,32.62,3.25,16.68,6.6,33.93,5.63,48.26-1.38,20.59-6,44.32-10.5,67.27-3.46,17.7-6.72,34.42-8.6,49.75-4.89,39.9-4.12,72.43-3.31,106.88C312.11,1225.33,312.85,1257,309.51,1295.47Z"/><path class="cls-9" d="M123.24,661l-1.66-.35c12-57.11,22.57-117.73,9.35-175.9l1.65-.38C145.89,542.83,135.26,603.66,123.24,661Z"/><path class="cls-9" d="M110.11,1296.08a1.92,1.92,0,0,0,0-.22c0-.09,0-.19,0-.29-3.26-25.85-3.46-53.06-.61-85.58,2.44-27.87,6.89-56.21,11.19-83.63,5-32.2,10.27-65.5,12.31-98.34,3.28-52.78-1.54-106.53-6.19-158.51-3.88-43.25-7.88-88-7.2-131.87.23-15.75,1-30.4,2.46-44.77l1.7.17c-1.43,14.32-2.23,28.92-2.46,44.62-.68,43.82,3.32,88.49,7.19,131.69,4.66,52,9.48,105.87,6.19,158.77-2,32.93-7.27,66.26-12.32,98.51-4.3,27.38-8.74,55.7-11.18,83.5-2.84,32.41-2.64,59.5.61,85.25,0,.09,0,.16,0,.23s0,.2,0,.3Z"/><path class="cls-9" d="M117.85,982.63a63.22,63.22,0,0,0-12-15.76C88.08,949.62,60.47,941.43,36,935.11l.43-1.65c24.69,6.38,52.54,14.66,70.64,32.19a64.65,64.65,0,0,1,12.29,16.18Z"/><path class="cls-9" d="M117.36,946.48c-3.51-2.67-7.22-5.23-11-7.6A139.94,139.94,0,0,0,51,919.21l.21-1.69a141.83,141.83,0,0,1,56,19.92c3.86,2.4,7.61,5,11.16,7.69Z"/><path class="cls-9" d="M1.5,1259.13l-.66-1.57c30.45-12.8,63.74-16.53,89.91-10.21-16.39-14.06-35-19.6-56.65-17l-.21-1.69c23.4-2.85,43.22,3.6,60.64,19.74l2.59,2.41-3.4-1C67.43,1242.45,33,1245.9,1.5,1259.13Z"/><path class="cls-9" d="M299.61,935.42a425.94,425.94,0,0,0-62.09-47.07q-2.86-1.77-5.78-3.54c-12.64-7.72-25.71-15.71-35.3-27.23-9.42-11.31-14.85-25.28-20.11-38.8-4.31-11.1-8.78-22.59-15.43-32.53l1.41-.94c6.76,10.09,11.26,21.67,15.61,32.86,5.2,13.39,10.59,27.23,19.83,38.32,9.41,11.31,22.36,19.22,34.88,26.87q2.91,1.77,5.79,3.55a427.94,427.94,0,0,1,62.34,47.26Z"/><path class="cls-9" d="M279.66,991.72a263.7,263.7,0,0,0-74.33-60.85l.82-1.49A265.49,265.49,0,0,1,281,990.62Z"/><path class="cls-9" d="M631.76,937.47a35.85,35.85,0,0,1-15.93-3.59c-6.42-3.17-11.61-8.21-16.64-13.08L498,822.41c-6.24-6.07-12.69-12.35-17.84-19.59-.85-1.21-1.68-2.46-2.47-3.71l-.13-.22c-9.94-16-13.87-35.11-17.68-53.59q-.45-2.26-.93-4.5c-3.53-16.88-8.24-36.56-16.33-54.62l-.08-.18A132.49,132.49,0,0,0,430,663.88c-2.05-2.92-4.3-5.81-6.47-8.62-5.95-7.69-12.11-15.64-15.25-25-4.37-13.08-2.36-27.14-.42-40.73.27-1.9.54-3.79.79-5.68,1.85-13.92,2.74-31.52-6.88-44.07-.94-1.23-2-2.45-3.05-3.62-2.54-2.9-5.17-5.9-6.36-9.56a11.39,11.39,0,0,1-.47-1.76l-.1-.54,2.93-2c.95-.67,1.93-1.33,2.9-2,9.95-6.77,20.33-13.19,30.86-19.08a420.2,420.2,0,0,1,47-22.64,43.16,43.16,0,0,1,4.42-1.58c4.09-1.22,7.42-1.16,10.15.19,3.32,1.61,5.33,5,6.95,7.68q8.36,14,16.73,28l13,21.82c16.18,27.07,32.91,55.05,57.12,76.1q1.76,1.51,3.54,3c5.6,4.72,11.39,9.6,15.25,16,2.59,4.27,4.21,9,5.78,13.66.72,2.13,1.47,4.33,2.3,6.45,8.56,21.68,27.11,37.45,45.05,52.71q3.88,3.28,7.69,6.58c15.92,13.81,26.42,26.05,33.05,38.5,5.1,9.6,7.77,19.31,7.93,28.87l-1.7,0c-.15-9.42-2.68-18.61-7.73-28.1-6.53-12.27-16.91-24.35-32.66-38-2.53-2.19-5.1-4.38-7.68-6.57-18.1-15.39-36.81-31.3-45.53-53.38-.85-2.15-1.6-4.38-2.33-6.53-1.54-4.53-3.13-9.21-5.62-13.32-3.72-6.13-9.4-10.92-14.89-15.55q-1.8-1.51-3.57-3c-24.41-21.23-41.21-49.33-57.46-76.5l-13.05-21.82q-8.37-14-16.73-28c-1.5-2.51-3.37-5.63-6.23-7-2.37-1.17-5.21-1.2-8.94-.09-1.47.43-2.92,1-4.26,1.52a421.89,421.89,0,0,0-46.77,22.55c-10.48,5.87-20.83,12.26-30.74,19-1,.64-1.93,1.3-2.88,2l-2,1.4c.08.33.18.66.29,1,1.09,3.35,3.61,6.21,6,9,1,1.21,2.14,2.45,3.12,3.72,10,13,9.11,31.08,7.21,45.33-.25,1.89-.52,3.79-.79,5.69-1.92,13.4-3.89,27.25.35,40,3.05,9.1,9.12,16.94,15,24.52,2.18,2.82,4.43,5.73,6.51,8.68a134.12,134.12,0,0,1,12.74,22.57l.07.18c8.12,18.16,12.84,37.89,16.38,54.8l.93,4.51c3.79,18.41,7.71,37.46,17.58,53.23l.13.22c.73,1.16,1.5,2.31,2.29,3.43,5.05,7.11,11.45,13.33,17.63,19.35l101.19,98.39c4.93,4.78,10,9.73,16.21,12.77,7,3.47,15.33,4.32,23.93,2.47a49.46,49.46,0,0,0,20.16-9.51,57.3,57.3,0,0,0,6.13-5.56c7.69-7.91,14.17-18.51,20.41-33.35,2-4.67,3.82-9.5,5.61-14.17,3.06-8,6.24-16.26,10.09-24.07.93-1.92,2-3.89,3.16-6,.59-1.08,1.22-2.13,1.85-3.19l.44-.74c1.85-3.05,3.82-6.08,5.73-9,3.29-5,6.69-10.26,9.5-15.67,15.95-30.69,13.54-68.52,11.62-98.92q-2.33-37.1-4.69-74.16l-.24-3.88c-1.55-24.66-3.15-50.16-6.76-75.3-.57-4-1-8.27-1.47-12.39-1.35-12.56-2.75-25.55-7.73-36.44-5.59-12.24-11.89-25-22.13-34.23a62,62,0,0,0-8.63-6.5,151.18,151.18,0,0,0-18.94-9.83A1357.68,1357.68,0,0,0,522.72,406l-.12-.05-.17-.06.64-1.57.23.08a1361.27,1361.27,0,0,1,142,55.93,153.25,153.25,0,0,1,19.15,9.94,63.33,63.33,0,0,1,8.86,6.68c10.48,9.49,16.88,22.39,22.53,34.79,5.1,11.14,6.51,24.26,7.88,37,.46,4.29.89,8.34,1.47,12.33,3.61,25.2,5.21,50.74,6.76,75.44l.25,3.87q2.35,37.08,4.68,74.16c1.94,30.61,4.36,68.71-11.8,99.81-2.85,5.48-6.28,10.74-9.59,15.82-1.9,2.92-3.86,5.93-5.69,9l-.44.74c-.62,1-1.24,2.08-1.82,3.14-1.18,2.11-2.2,4-3.13,5.94-3.81,7.74-7,16-10,23.93-1.79,4.68-3.65,9.52-5.63,14.22-6.32,15-12.91,25.8-20.75,33.87a59.58,59.58,0,0,1-6.3,5.72,51.21,51.21,0,0,1-20.85,9.83A43.63,43.63,0,0,1,631.76,937.47Z"/><path class="cls-9" d="M689.09,1296.84l-380.43-.34-299.21-.25.26-1a40.5,40.5,0,0,0-9.17-36.29l-.54-.6.57-.57c18.37-18.35,14.4-48.12,10.89-74.39a554.54,554.54,0,0,1,1.17-155.41c.75-5,1.58-10.12,2.38-15.07,4.36-26.91,8.88-54.74,2.82-81.33-.43-1.87-.92-3.77-1.39-5.61-1.49-5.8-3-11.8-3-17.92.07-6.77,2.09-13.34,4-19.7.63-2,1.28-4.12,1.85-6.19,5.65-20.52,4.88-42.43,4.14-63.61-.11-3.26-.23-6.52-.32-9.77a672.45,672.45,0,0,1,60.24-297C89.11,499.32,95.53,486.4,106,477c7.87-7.11,17.34-11.73,28-16.62C185,437,234.46,419.75,276.12,406l.53,1.61c-41.61,13.73-91,30.92-142,54.27-10.54,4.82-19.89,9.38-27.58,16.33-10.18,9.22-16.51,22-22.12,34.23A670.91,670.91,0,0,0,24.89,808.69q.13,4.88.32,9.76C26,839.76,26.73,861.8,21,882.58c-.57,2.08-1.22,4.19-1.85,6.23-1.93,6.24-3.92,12.69-4,19.22-.06,5.89,1.45,11.78,2.91,17.47.48,1.85,1,3.77,1.4,5.66,6.14,26.91,1.6,54.91-2.79,82-.8,4.94-1.63,10.05-2.38,15.05a553,553,0,0,0-1.17,154.93c3.35,25.09,7.52,56.25-10.81,75.25a42.28,42.28,0,0,1,9.27,36.18l676,.59c7-56.11-1.94-113.24-10.6-168.5-5.06-32.24-10.29-65.59-12.33-98.52-2.44-39.1-1.15-69.15,1.9-107.85l1.69.13c-3,38.63-4.32,68.62-1.9,107.62,2,32.85,7.26,66.15,12.31,98.36,8.73,55.62,17.74,113.13,10.52,169.72Z"/><path class="cls-9" d="M392.76,515.26c-14.9,0-26.6-10.56-27.09-11l1.15-1.26c.11.11,11.71,10.57,25.94,10.57Z"/><path class="cls-9" d="M409.76,584.77l-.46-1.64a369.15,369.15,0,0,0,82.45-33.55c19.95-11.23,30.6-20.14,30.71-20.22l1.09,1.29c-.1.09-10.86,9.09-31,20.41A371.42,371.42,0,0,1,409.76,584.77Z"/><path class="cls-9" d="M577.31,875.55l-.62-1.58A131.56,131.56,0,0,0,643,816.23a132.89,132.89,0,0,0,15.73-47.68,130.23,130.23,0,0,0-.78-38.94l1.68-.29a132.64,132.64,0,0,1,.79,39.45,135,135,0,0,1-15.94,48.3A133.25,133.25,0,0,1,577.31,875.55Z"/><path class="cls-9" d="M596.21,767.12l-1.39-1a110.54,110.54,0,0,0,14.56-29.91A112.44,112.44,0,0,0,613,682.92l1.67-.29A114,114,0,0,1,611,736.75,112.19,112.19,0,0,1,596.21,767.12Z"/><path class="cls-9" d="M607,625.27A232.44,232.44,0,0,1,640,501c5.92-9.79,13.53-20.39,25.08-24.73l.59,1.59c-11.06,4.16-18.45,14.48-24.22,24a230.67,230.67,0,0,0-32.8,123.38Z"/><path class="cls-9" d="M479.37,478.2l0-.17c-2.54-12.28-2.61-24.51-2.38-33.79.12-5.2.37-10.51.62-15.64.59-12.32,1.2-25.07,0-37.45-.46-4.74-1.18-9.44-1.88-14a166.21,166.21,0,0,1-2.27-20.9c-.16-6.17.21-12.7.57-19s.74-12.94.59-19.28a74.61,74.61,0,0,0-1.92-16c-.39,0-.78,0-1.17,0-4.48.05-9.24,2.41-13,6.47-8,8.48-9.82,20.8-10.53,30.57-.18,2.33-.3,4.72-.42,7-.14,2.64-.28,5.38-.5,8.06a69.53,69.53,0,0,1-3.22,17.54c-.06.21-.15.47-.24.73l-1.6-.57c.08-.21.15-.43.22-.66A68.12,68.12,0,0,0,445.3,354c.21-2.66.36-5.38.49-8,.12-2.32.25-4.73.42-7.07.74-10.06,2.65-22.74,11-31.61,4.11-4.39,9.31-6.95,14.26-7h0a18.19,18.19,0,0,1,1.95.1l.58.07.15.57a75.54,75.54,0,0,1,2.12,16.92c.15,6.41-.23,13-.59,19.42s-.73,12.78-.57,18.87a163.69,163.69,0,0,0,2.25,20.69c.7,4.57,1.42,9.3,1.89,14.08,1.22,12.51.61,25.32,0,37.71-.24,5.11-.5,10.41-.61,15.59-.23,9.18-.16,21.25,2.31,33.29l0,.13Z"/><path class="cls-9" d="M341.13,395.4a.84.84,0,0,1-.55-.21,54.55,54.55,0,0,1-6.87-7.47c-3-3.76-6.67-8.43-7.25-14-.75-7.28,3.86-13.7,8.64-19.65a5.75,5.75,0,0,1,2.95-2.32,5.65,5.65,0,0,1,3.12.31c4.53,1.36,8.63,2.65,12.5,3.95a190.13,190.13,0,0,1,25.83,10.58,122.53,122.53,0,0,1-10.74-10.43c-7.31-8-15.36-11.91-23.88-16-5.57-2.68-11.33-5.44-16.85-9.47a33.83,33.83,0,0,1-4.14-3.51,18.52,18.52,0,0,1-2.65-3.28,9.68,9.68,0,0,1-1.57-4.68,7.37,7.37,0,0,1,.5-3c2.25-5.81,10-6,14.43-5.67,20.26,1.76,40,14.3,53.17,23.59,4.08,2.88,8,5.4,11.76,7.83,5.73,3.69,11.15,7.18,17,11.78,1.87,1.47,3.69,2.84,5.56,4.17,3.51,2.52,7.17,4.9,10.88,7.08,3.45,2,6.94,3.92,10.37,5.59,2.21,1.08,4.53,2.14,6.88,3.15a.84.84,0,0,1,.44,1.11.85.85,0,0,1-1.11.45c-2.38-1-4.71-2.09-6.95-3.18-3.48-1.69-7-3.6-10.5-5.65-3.74-2.21-7.45-4.62-11-7.16-1.89-1.36-3.73-2.74-5.62-4.22-5.79-4.56-11.17-8-16.87-11.69-3.79-2.44-7.71-5-11.82-7.88-13-9.17-32.49-21.56-52.34-23.27-3.17-.27-10.78-.37-12.69,4.59a5.63,5.63,0,0,0-.39,2.34,8,8,0,0,0,1.32,3.87,16.72,16.72,0,0,0,2.41,3,31,31,0,0,0,3.92,3.33c5.41,3.94,11.09,6.67,16.59,9.32,8.3,4,16.88,8.11,24.4,16.4a133.58,133.58,0,0,0,21.29,18.65l.07,0a.86.86,0,0,1,.2,1.19.85.85,0,0,1-1.18.2l-.07,0c-8.85-6.27-21-12-37.19-17.45-3.85-1.29-7.93-2.58-12.46-3.93a4.24,4.24,0,0,0-2.2-.3,4.41,4.41,0,0,0-2,1.74c-4.57,5.68-9,11.78-8.28,18.42.53,5,3.91,9.29,6.89,13.06a52.53,52.53,0,0,0,6.64,7.24.85.85,0,0,1-.55,1.5Z"/><path class="cls-9" d="M342.64,419.15a.83.83,0,0,1-.4-.11c-2.57-1.41-5.37-3.21-6.7-5.92a7,7,0,0,1-.38-3.72c.39-4.58,1.06-9.81,4-13.86a12.56,12.56,0,0,1,1.39-1.6.44.44,0,0,1,.11-.09A15.73,15.73,0,0,1,356,390.36a13.26,13.26,0,0,1,4.39,2.34.85.85,0,0,1-1.06,1.32,11.91,11.91,0,0,0-3.84-2,14,14,0,0,0-13.77,3.17l-.12.1a9.84,9.84,0,0,0-1.1,1.29c-2.68,3.69-3.29,8.46-3.68,13a5.55,5.55,0,0,0,.22,2.82c1.12,2.27,3.65,3.89,6,5.18a.84.84,0,0,1,.34,1.15A.87.87,0,0,1,342.64,419.15Z"/><path class="cls-9" d="M398,521.56a.83.83,0,0,1-.71-.38l-.7-1a55.28,55.28,0,0,0-4.19-5.36.77.77,0,0,1-.13-.15,133.24,133.24,0,0,0-12.45-11.82A126.85,126.85,0,0,1,366.47,490a56.31,56.31,0,0,1-4.06-5.28,104.85,104.85,0,0,1-6.3-11.14c-2.64-5.13-5.36-10.44-9.16-14.82a74.37,74.37,0,0,0-8-7.49c-1.19-1-2.38-2-3.54-3.05-.71-.65-1.36-1.23-2-1.85a37.58,37.58,0,0,1-5.37-6.34,20.81,20.81,0,0,1-3.57-10c-.4-6.3,3.93-13.66,10.78-14.14a19.88,19.88,0,0,1,7.64,1.53.85.85,0,1,1-.55,1.6,18.37,18.37,0,0,0-7-1.43c-5.69.39-9.55,6.84-9.2,12.33a19.14,19.14,0,0,0,3.29,9.14,35.91,35.91,0,0,0,5.13,6.05c.62.61,1.25,1.17,1.88,1.74,1.22,1.09,2.39,2.09,3.57,3.09a75.54,75.54,0,0,1,8.16,7.66c3.94,4.54,6.71,9.94,9.39,15.17a102,102,0,0,0,6.2,11,54.51,54.51,0,0,0,3.93,5.12,126.7,126.7,0,0,0,13.13,12.6,135,135,0,0,1,12.66,12l.06.08a55.91,55.91,0,0,1,4.34,5.54l.71,1.06a.85.85,0,0,1-.23,1.18A.92.92,0,0,1,398,521.56Z"/><path class="cls-9" d="M359.89,394.21a.92.92,0,0,1-.39-.09c-1.14-.58-2.49-1.31-4.13-2.21-2.57-1.4-5.91-3.31-9.15-5.45a5.72,5.72,0,0,1,1.79,4.25.87.87,0,0,1-.92.78.85.85,0,0,1-.77-.92c.11-1.39-.92-2.51-2.11-3.81a10,10,0,0,1-2.53-3.74.83.83,0,0,1,.33-.94.86.86,0,0,1,1,0,106.72,106.72,0,0,0,13.17,8.32c1.63.9,3,1.61,4.09,2.18a.85.85,0,0,1-.38,1.61Z"/><path class="cls-9" d="M393.63,413.12a.85.85,0,0,1-.85-.83v-.5c-.06-2.3-.18-6.58-.95-8.5-.64-1.57-7-3.6-9.79-3.92a.86.86,0,0,1-.75-.94.84.84,0,0,1,1-.75c1.95.22,10,2.12,11.17,5,.88,2.21,1,6.52,1.06,9.09l0,.5a.86.86,0,0,1-.83.88Z"/><path class="cls-9" d="M369.28,436a.85.85,0,0,1-.77-.49,13.45,13.45,0,0,0-9.14-7.31.85.85,0,0,1,.36-1.66,15.18,15.18,0,0,1,10.32,8.25.85.85,0,0,1-.41,1.13A.9.9,0,0,1,369.28,436Z"/><path class="cls-9" d="M417.94,392.56a.86.86,0,0,1-.81-.59,30.79,30.79,0,0,1-.81-3.35,17.94,17.94,0,0,0-1.46-4.84,5.89,5.89,0,0,0-3.48-2.91,3,3,0,0,0-2.42.28.85.85,0,1,1-.9-1.44,4.61,4.61,0,0,1,3.76-.48,7.66,7.66,0,0,1,4.55,3.77,19.39,19.39,0,0,1,1.61,5.28,30.51,30.51,0,0,0,.77,3.17.85.85,0,0,1-.55,1.07A.75.75,0,0,1,417.94,392.56Z"/><path class="cls-10" d="M371,303s17.95-10.29,21.33-6.18c0,0,6.52,3.35,11.82,0C408.68,294,425,303,425,303S398.22,315.51,371,303Z"/><path class="cls-9" d="M397,309.37a62.62,62.62,0,0,1-26.35-5.6.85.85,0,0,1-.49-.74.84.84,0,0,1,.42-.77c3.07-1.76,18.39-10.22,22.28-6.14.92.42,6.43,2.77,10.84,0,4.79-3,20,5.21,21.72,6.16a.85.85,0,0,1,.44.77.84.84,0,0,1-.49.74A74.28,74.28,0,0,1,397,309.37Zm-24.1-6.46c22.22,9.45,44.1,2.32,50.13,0-6.28-3.27-15.69-7.09-18.42-5.37-5.64,3.57-12.38.18-12.66,0a.9.9,0,0,1-.27-.21C389.83,295.06,380.08,299,372.93,302.91Z"/><path class="cls-9" d="M383.34,325.76a11,11,0,0,1,1.88.48c.61.18,1.22.36,1.84.52a36.27,36.27,0,0,0,3.69.81,40.83,40.83,0,0,0,7.48.55c1.25-.07,2.51-.07,3.75-.25.63-.07,1.26-.11,1.88-.2s1.24-.21,1.87-.31a16.92,16.92,0,0,0,1.86-.35l1.88-.38c1.24-.27,2.47-.63,3.75-.87-1.14.6-2.31,1.16-3.51,1.67a35.64,35.64,0,0,1-3.7,1.23,32.47,32.47,0,0,1-7.74,1.15,28.07,28.07,0,0,1-7.8-.95,24.91,24.91,0,0,1-3.69-1.32c-.59-.28-1.18-.55-1.75-.87A17.28,17.28,0,0,0,383.34,325.76Z"/><path class="cls-9" d="M423.68,274.38a12.14,12.14,0,0,1-3.37,1.75,5.47,5.47,0,0,1-3.92-.11,10.42,10.42,0,0,1-3-2.54,1.52,1.52,0,0,0-.52-.39c-.08,0-.11,0-.29.14a5.6,5.6,0,0,0-.91,1.38,11.15,11.15,0,0,1-2.45,3.15,14,14,0,0,1-3.34,2.17,17.66,17.66,0,0,1-15.29,0,14.25,14.25,0,0,1-3.34-2.16,11.34,11.34,0,0,1-2.45-3.16,5,5,0,0,0-.91-1.37c-.18-.15-.2-.16-.28-.15a1.68,1.68,0,0,0-.53.39,10,10,0,0,1-3,2.54,5.42,5.42,0,0,1-3.92.11,12.14,12.14,0,0,1-3.37-1.75,14.61,14.61,0,0,0,3.49,1.31,4.8,4.8,0,0,0,3.43-.41,9.76,9.76,0,0,0,2.52-2.56,2.39,2.39,0,0,1,1-.74,1.38,1.38,0,0,1,.83,0,1.75,1.75,0,0,1,.62.34A6.22,6.22,0,0,1,386,274a10.8,10.8,0,0,0,2.27,2.67,12.33,12.33,0,0,0,3,1.82,17,17,0,0,0,14,0,12.88,12.88,0,0,0,3-1.83,10.58,10.58,0,0,0,2.26-2.67,6.26,6.26,0,0,1,1.29-1.67,1.92,1.92,0,0,1,.62-.34,1.35,1.35,0,0,1,.82,0,2.48,2.48,0,0,1,1,.74,9.49,9.49,0,0,0,2.53,2.56,4.73,4.73,0,0,0,3.43.41A14.13,14.13,0,0,0,423.68,274.38Z"/><path class="cls-9" d="M369.38,285.47c-2.08,2.83-4.06,5.58-5.83,8.48-.91,1.43-1.75,2.91-2.55,4.42s-1.52,3.05-2.35,4.62a19.16,19.16,0,0,1,1.14-5.16c.26-.85.68-1.63,1-2.45s.82-1.57,1.29-2.32a27,27,0,0,1,3.22-4.21A19.06,19.06,0,0,1,369.38,285.47Z"/><path class="cls-9" d="M427.33,285.47a19.06,19.06,0,0,1,4.06,3.38,26.9,26.9,0,0,1,3.21,4.21c.47.75.88,1.54,1.3,2.32s.76,1.6,1,2.45a19.55,19.55,0,0,1,1.14,5.16c-.83-1.57-1.53-3.13-2.36-4.62s-1.63-3-2.54-4.42C431.39,291.05,429.41,288.3,427.33,285.47Z"/><path class="cls-9" d="M385.84,213.22a30.81,30.81,0,0,1,1.88,7.46,41.37,41.37,0,0,1,.33,7.71c-.05,1.29-.21,2.57-.36,3.85s-.39,2.55-.74,3.8a32.36,32.36,0,0,1-2.64,7.22c.47-2.53,1-5,1.33-7.48a69.39,69.39,0,0,0,.71-7.47c.16-2.5.14-5,0-7.52S386.13,215.76,385.84,213.22Z"/><circle class="cls-11" cx="451.84" cy="204.48" r="8.61"/><path class="cls-9" d="M451.85,213.53h-.4a8.95,8.95,0,1,1,.4,0Zm0-17.23a8.33,8.33,0,1,0,.35,0Z"/><path class="cls-9" d="M448.41,225.28a15.74,15.74,0,0,1-4.49-.35,20.84,20.84,0,0,1-4.27-1.44,20.47,20.47,0,0,1-3.86-2.34,15.26,15.26,0,0,1-3.17-3.2l3.89,2.09c1.28.66,2.55,1.32,3.85,1.91s2.61,1.16,3.95,1.71Z"/><path class="cls-9" d="M432.62,207.5a23.15,23.15,0,0,1,8.38-9.23,22.54,22.54,0,0,1,12.49-3.64,23.1,23.1,0,0,1,12.36,3.9,27.33,27.33,0,0,1,8.62,9A89.81,89.81,0,0,0,464,202.07a28.51,28.51,0,0,0-10.56-2.34,26.66,26.66,0,0,0-10.57,2.08A52.4,52.4,0,0,0,432.62,207.5Z"/><path class="cls-9" d="M424,155.38v10.73s44-13.23,62.23,0C486.27,166.11,484.48,145.37,424,155.38Z"/><circle class="cls-11" cx="344.78" cy="204.48" r="8.61"/><path class="cls-9" d="M344.77,213.53a9.14,9.14,0,1,1,.4,0Zm0-17.23h-.36a8,8,0,1,0,.36,0Z"/><path class="cls-9" d="M348.21,225.28l4.1-1.62c1.33-.55,2.65-1.09,3.95-1.71s2.57-1.25,3.85-1.91L364,218a15.51,15.51,0,0,1-3.17,3.2,20.52,20.52,0,0,1-8.14,3.78A15.67,15.67,0,0,1,348.21,225.28Z"/><path class="cls-9" d="M364,207.5a52.18,52.18,0,0,0-10.24-5.69,26.58,26.58,0,0,0-10.56-2.08,28.51,28.51,0,0,0-10.56,2.34,89.81,89.81,0,0,0-10.49,5.43,27.4,27.4,0,0,1,8.61-9,23.13,23.13,0,0,1,12.37-3.9,22.48,22.48,0,0,1,12.48,3.64A23.17,23.17,0,0,1,364,207.5Z"/><path class="cls-9" d="M373.61,182.88V172.15s-44,13.23-62.23,0C311.38,172.15,313.17,192.9,373.61,182.88Z"/><path class="cls-12" d="M311.93,192.77c5.1-3.55,11.58-4.32,17.77-4.88,11.53-1,23.26-1.68,34.62.56,6,1.19,12.29,3.45,16,8.37a21.74,21.74,0,0,1,3.83,10.84c1.56,14.74-7,30-20.34,36.39a49.59,49.59,0,0,1-14.25,4c-9.1,1.34-14.43,1.28-22.76-1.3-8.79-2.71-15.39-10.76-19.49-23.1C304.13,214.19,302,199.68,311.93,192.77Z"/><path class="cls-12" d="M484.39,192.77c-5.1-3.55-11.58-4.32-17.77-4.88-11.54-1-23.26-1.68-34.63.56-6,1.19-12.28,3.45-16,8.37a21.73,21.73,0,0,0-3.82,10.84c-1.57,14.74,7,30,20.34,36.39a49.53,49.53,0,0,0,14.24,4c9.11,1.34,14.43,1.28,22.76-1.3,8.8-2.71,15.4-10.76,19.49-23.1C492.18,214.19,494.34,199.68,484.39,192.77Z"/><path class="cls-9" d="M411.11,211.77c-12.79-7.93-25.39-.32-25.91,0l-1.8-2.88c.6-.38,14.88-9.06,29.5,0Z"/><path class="cls-9" d="M491.33,206.18a1.7,1.7,0,0,1-1.1-3L509,187.31a1.7,1.7,0,0,1,2.19,2.6l-18.78,15.86A1.7,1.7,0,0,1,491.33,206.18Z"/><path class="cls-9" d="M304.65,205.49a1.65,1.65,0,0,1-1.14-.44L286,189.19a1.7,1.7,0,1,1,2.28-2.52l17.53,15.86a1.7,1.7,0,0,1-1.14,3Z"/><path class="cls-9" d="M339.83,250.66a44.16,44.16,0,0,1-13.55-2.23c-9.16-2.83-16.29-11.2-20.6-24.19-2.37-7.14-6.6-24.62,5.28-32.87h0c5.34-3.71,11.84-4.56,18.58-5.17,10.69-1,23.11-1.79,35.11.58,8.09,1.6,13.65,4.54,17,9a23.31,23.31,0,0,1,4.16,11.68c1.63,15.41-7.32,31.43-21.3,38.11a51.1,51.1,0,0,1-14.73,4.19A67.37,67.37,0,0,1,339.83,250.66Zm-26.93-56.5c-10,6.94-6.12,22.6-4,29,4,11.91,10.31,19.52,18.38,22,8.4,2.59,13.58,2.48,22,1.24a47.81,47.81,0,0,0,13.77-3.9c12.72-6.08,20.87-20.66,19.38-34.68a19.93,19.93,0,0,0-3.5-10c-2.83-3.77-7.72-6.3-14.94-7.72-11.57-2.28-23.7-1.48-34.15-.53-6.28.56-12.29,1.33-17,4.57Z"/><path class="cls-9" d="M456.49,250.66a67.25,67.25,0,0,1-10-.88,51.07,51.07,0,0,1-14.74-4.19c-14-6.68-22.93-22.7-21.29-38.11a23.12,23.12,0,0,1,4.16-11.68c3.36-4.48,8.92-7.42,17-9,12-2.37,24.42-1.54,35.11-.58,6.75.61,13.24,1.46,18.59,5.17h0c11.87,8.25,7.64,25.73,5.28,32.87-4.32,13-11.44,21.36-20.61,24.19A44.15,44.15,0,0,1,456.49,250.66Zm-7.42-62a86.15,86.15,0,0,0-16.75,1.48c-7.23,1.42-12.11,3.95-14.95,7.72a19.93,19.93,0,0,0-3.49,10c-1.49,14,6.66,28.6,19.38,34.68a47.83,47.83,0,0,0,13.76,3.9c8.43,1.24,13.61,1.35,22-1.24,8.07-2.49,14.43-10.1,18.38-22,2.13-6.41,6-22.07-4-29-4.66-3.24-10.68-4-16.95-4.57C461,189.1,455.11,188.64,449.07,188.64Z"/></g></svg>