<svg xmlns="http://www.w3.org/2000/svg" viewBox="0 0 799.29 1298.09"><defs><style>.cls-1{fill:#003d1d;}.cls-2{fill:#063;}.cls-3{fill:#d4a87f;}.cls-4{fill:#634e42;}.cls-5{fill:#7b6a58;}.cls-6{fill:#e3bb94;}.cls-7{fill:#f4ad33;}.cls-8{fill:#ee8d00;}.cls-9{fill:#1d1d1b;}.cls-10{fill:#392f25;}.cls-11{fill:#7ff4c7;opacity:0.3;}</style></defs><g id="PERSONAJES"><path class="cls-1" d="M753.6,936.81c1.7-13.27,3-26.69,0-39.62-2.33-10-7.19-19.2-10.11-29-3.71-12.51-4.22-25.71-4.45-38.74-1.13-61.88,3.26-123.85-.58-185.61-3.4-54.37-13.59-109.43-38-157.83,6.05,7.86,10.52,17,14.68,26.11a671,671,0,0,1,60.17,296.64c-.71,24.67-2.71,49.84,3.84,73.63,2.35,8.49,5.78,16.85,5.88,25.67.07,7.92-2.58,15.58-4.33,23.31-7.24,31.7.37,64.59,5.18,96.74A555.41,555.41,0,0,1,787,1183.24c-3.5,26.06-7.49,56.51,11.12,75.11a41.51,41.51,0,0,0-9.35,37.06H743.05c1-15.33,1.67-30.67,2.08-46q.24-9.93.39-19.89c1.32-95.4-4.93-191.25,7.2-285.85C753,941.36,753.31,939.09,753.6,936.81Z"/><path class="cls-2" d="M639,1244.17c-.61,2.44-1.27,4.86-2,7.27a139.73,139.73,0,0,1-8.54,21,249.64,249.64,0,0,1-13.14,22.92H490.62c-7.05-81.16,4.11-131.76-5.18-207.68-4.38-35.78-16.67-81-19.1-117-1.63-24.11,9.09-56.67,10.74-80.77,7.61-111.19-5-216.63-10.91-330.73-2-39.06-11.48-107,1.41-121.54a73.12,73.12,0,0,1,14.31,12.59c6,7.13,10.13,16.43,9.84,25.6a.87.87,0,0,0,1.66.39q13.89-32,27.76-64.07c1-2.24,2-4.64,1.84-7.05a1358.62,1358.62,0,0,1,142,55.93c9.84,4.5,19.77,9.23,27.79,16.48a61.3,61.3,0,0,1,7.65,8.38c24.45,48.4,34.64,103.46,38,157.83,3.84,61.76-.55,123.73.58,185.61.23,13,.74,26.23,4.45,38.74,2.92,9.83,7.78,19,10.11,29,3,12.93,1.71,26.35,0,39.62-.29,2.28-.59,4.55-.88,6.83-12.13,94.6-5.88,190.45-7.2,285.85-14.87,1.9-28.12,8.41-40.17,19.59a72.86,72.86,0,0,1,39.78.3c-.41,15.36-1.06,30.7-2.08,46H688.41c11.2-89-17.34-177.83-22.9-267.33-6.86-110.21,21.22-220.76,11.33-330.67l-.1,0c5,159.58-30.44,317.92-32.31,477.57C644.17,1198.18,644.55,1221.76,639,1244.17Z"/><path class="cls-2" d="M745.52,1229.49q-.13,10-.39,19.89a72.86,72.86,0,0,0-39.78-.3C717.4,1237.9,730.65,1231.39,745.52,1229.49Z"/><path class="cls-1" d="M628.48,1272.49a139.73,139.73,0,0,0,8.54-21c.75-2.41,1.41-4.83,2-7.27,5.51-22.41,5.13-46,5.39-69.17,1.87-159.65,37.27-318,32.31-477.57l.1,0c9.89,109.91-18.19,220.46-11.33,330.67,5.56,89.5,34.1,178.37,22.9,267.33H615.34A249.64,249.64,0,0,0,628.48,1272.49Z"/><path class="cls-3" d="M531.57,190.51c1.37,8.79-1.51,17.6-4.37,26l-7.29,21.53c-1.76,5.21-3.58,10.53-6.95,14.9s-8.61,7.64-14.1,7.2L498,260a418.87,418.87,0,0,0,6.61-43.25c1.21-11.1,2.5-14.51,2.92-24.16a17.69,17.69,0,0,1,1.75-2.23,23,23,0,0,1,9.48-6.45c3.64-1.29,8.27-1.4,10.79,1.54A10.23,10.23,0,0,1,531.57,190.51Z"/><path class="cls-2" d="M479.39,389.19a37.44,37.44,0,0,0,1.38-3.67c10.85.05,20.1,7.86,29.36,13.74A44.28,44.28,0,0,0,523,404.89a1.51,1.51,0,0,1,0,.3c.13,2.41-.87,4.81-1.84,7.05q-13.89,32-27.76,64.07a.87.87,0,0,1-1.66-.39c.29-9.17-3.83-18.47-9.84-25.6a73.12,73.12,0,0,0-14.31-12.59c-4.24-3-8.71-5.68-13.15-8.36-1.35-.82-2.85-1.68-4.45-1.53a4.31,4.31,0,0,0-1.37.39c0-1.68-.05-3.36-.19-5,9-8.8,19.18-16.56,26.76-26.66A35.42,35.42,0,0,0,479.39,389.19Z"/><path class="cls-1" d="M522.87,404.12a6.76,6.76,0,0,1,.1.77,44.28,44.28,0,0,1-12.84-5.63c-9.26-5.88-18.51-13.69-29.36-13.74,4.16-12.52,3.23-28-4.42-37.34v0c0-2.7,0-5.42,0-8.12h.24L520,398.72A14.31,14.31,0,0,1,522.87,404.12Z"/><path class="cls-4" d="M518.79,107c1.43,12.3,1.16,32.23-.25,44.53-1.8,15.62-2.38,24.69-9.25,38.81h0a17.69,17.69,0,0,0-1.75,2.23c0-1.07.09-2.23.1-3.48-8.37-22.09-8.3-47.76-22.3-66.79-4.51-6.12-10.38-11.37-13.53-18.3-4.4-9.68-2.16-20.67-.93-32.21a1.75,1.75,0,0,0,0-.24c1.33-9.27,1.33-19,1.92-28.1V41.4c1.21,3.62,6,3.89,9.69,5,6.72,2.13,10.8,8.8,14.1,15C504.62,76.63,516.8,90,518.79,107Z"/><path class="cls-3" d="M507.56,192.57c-.42,9.65-1.71,13.06-2.92,24.16A418.87,418.87,0,0,1,498,260c-3.67,17-9,33.44-17.33,48.63-1.21,2.19-2.41,4.36-3.65,6.52-14.9,26-32.38,48.73-57.38,57.12l-.42-.31c49.41-81,64.41-182.19,40.59-274l-.34-.5a12.54,12.54,0,0,0,1.73-1.37c3.4-3.13,5.23-7.58,6.75-11.93a68.77,68.77,0,0,0,2.92-12.35c-1.23,11.54-3.47,22.53.93,32.21,3.15,6.93,9,12.18,13.53,18.3,14,19,13.93,44.7,22.3,66.79C507.65,190.34,507.59,191.5,507.56,192.57Z"/><path class="cls-2" d="M490.62,1295.41H453.94a1091.36,1091.36,0,0,0-9.87-239c-5.79-38-13.62-76.17-11-114.51,1.71-25.62,8.07-50.67,11.67-76.08,6.76-47.74,3.82-96.27.87-144.4Q439,614.22,432.4,507.1q-1-16.65-2-33.3c-.61-9.79-1.15-19.93,2.33-29.11a36.91,36.91,0,0,1,2.5-5.28l.3.17,10.42-9.4a10.85,10.85,0,0,1,2.7-1.95,4.31,4.31,0,0,1,1.37-.39c1.6-.15,3.1.71,4.45,1.53,4.44,2.68,8.91,5.38,13.15,8.36-12.89,14.51-3.41,82.48-1.41,121.54,5.88,114.1,18.52,219.54,10.91,330.73-1.65,24.1-12.37,56.66-10.74,80.77,2.43,36,14.72,81.18,19.1,117C494.73,1163.65,483.57,1214.25,490.62,1295.41Z"/><path class="cls-1" d="M480.77,385.52a37.44,37.44,0,0,1-1.38,3.67,288.12,288.12,0,0,1-3-41C484,357.5,484.93,373,480.77,385.52Z"/><path class="cls-3" d="M476.35,348.18a288.12,288.12,0,0,0,3,41,35.42,35.42,0,0,1-4.21,7.35c-7.58,10.1-17.74,17.86-26.76,26.66-1.46-20.08-12.18-39.43-28.75-50.95,25-8.39,42.48-31.14,57.38-57.12l.07,0c-.31,8.08-.6,16.42-.72,24.87,0,2.7,0,5.42,0,8.12Z"/><path class="cls-5" d="M300.59,114.84c-11.24,23.62-12.67,50.26-11.24,75.49h-.09c-4.16-4.71-6.4-10.78-8.41-16.74-7.1-21.15-12.31-43.34-11-65.59s9.84-44.81,26.58-59.57c-2.4-.08-4.78-.17-7.16-.27l31.89-25.54c6.37-5.11,12.85-10.28,20.32-13.57C350.7,5,360.92,4,371,3c9.56-.9,19.14-1.8,28.76-2.09,8.43-.27,17,0,25.08,2.26,20.47,5.8,34.94,23.5,48,40.25-.59,9.14-.59,18.83-1.92,28.1a1.75,1.75,0,0,1,0,.24A68.77,68.77,0,0,1,468,84.14c-1.52,4.35-3.35,8.8-6.75,11.93a12.54,12.54,0,0,1-1.73,1.37,35.26,35.26,0,0,1-8.79,4.1A373.77,373.77,0,0,1,330,122.89c-5,.06-10.2,0-14.72-2.14a12,12,0,0,0,5.7-4.84A33.81,33.81,0,0,1,300.59,114.84Z"/><path class="cls-6" d="M298.32,260.19a418,418,0,0,1-6.66-43.46c-.87-8-1.7-16.3-2.21-24.79,0-.53-.07-1.07-.1-1.61-1.43-25.23,0-51.87,11.24-75.49A33.81,33.81,0,0,0,321,115.91a12,12,0,0,1-5.7,4.84c4.52,2.11,9.7,2.2,14.72,2.14a373.77,373.77,0,0,0,120.72-21.35,35.26,35.26,0,0,0,8.79-4.1l.34.5c23.82,91.81,8.82,193-40.59,274l.42.31a66.77,66.77,0,0,1-21.52,3.45c-35.24,0-57.77-25.06-76.1-55.78-2.21-3.7-4.35-7.47-6.45-11.31C307.29,293.49,302,277.07,298.32,260.19Z"/><path class="cls-7" d="M444.07,1056.37a1091.36,1091.36,0,0,1,9.87,239H375.11c-5.25-56-8.36-112.4,1.09-167.69,6.18-36.15,17.7-71.41,21-107.93,4.74-52.6-7.75-105-12.64-157.61C373.73,746.27,399.46,626.21,381,513c12.06,3.87,30.76,6,51.44-5.86Q439,614.26,445.57,721.38c2.95,48.13,5.89,96.66-.87,144.4-3.6,25.41-10,50.46-11.67,76.08C430.45,980.2,438.28,1018.38,444.07,1056.37Z"/><path class="cls-2" d="M448.42,423.2c.14,1.67.2,3.35.19,5a10.85,10.85,0,0,0-2.7,1.95l-10.42,9.4-.3-.17a57.27,57.27,0,0,1,6.26-8.82C443.65,428,446,425.58,448.42,423.2Z"/><path class="cls-6" d="M322.85,348.26c0-2.73-.05-5.47-.12-8.22-.15-6.58-.42-13.25-.68-20.12,18.33,30.72,40.86,55.78,76.1,55.78a66.77,66.77,0,0,0,21.52-3.45c16.57,11.52,27.29,30.87,28.75,50.95-2.43,2.38-4.77,4.81-7,7.39a57.27,57.27,0,0,0-6.26,8.82,36.91,36.91,0,0,0-2.5,5.28c-3.48,9.18-2.94,19.32-2.33,29.11-27,15.44-48.25,7.54-57.05,2.77-1.21-4.69-2.51-9.38-3.92-14,0-6.1-.63-12.15-2.79-17.84a38,38,0,0,0-2.5-5.28,57.33,57.33,0,0,0-6.27-8.82c-10.34-12.18-24.11-21.25-33.72-34a35.48,35.48,0,0,1-4.11-7.13A264.63,264.63,0,0,0,322.85,348.26Z"/><path class="cls-7" d="M430.36,473.8q1,16.63,2,33.3C411.72,518.94,393,516.83,381,513c-2-12.22-4.51-24.35-7.65-36.39C382.11,481.34,403.4,489.24,430.36,473.8Z"/><path class="cls-8" d="M384.54,862.18c4.89,52.58,17.38,105,12.64,157.61-3.28,36.52-14.8,71.78-21,107.93-9.45,55.29-6.34,111.67-1.09,167.69H345.35a1091.36,1091.36,0,0,1,9.87-239c5.79-38,13.62-76.17,11-114.51-1.72-25.62-8.07-50.67-11.67-76.08-6.76-47.74-3.83-96.27-.87-144.4l13.2-215A56,56,0,0,0,381,513C399.46,626.21,373.73,746.27,384.54,862.18Z"/><path class="cls-8" d="M373.31,476.57c3.14,12,5.66,24.17,7.65,36.39a56,56,0,0,1-14-6.54c.66-10.88,1.34-21.73,2-32.61A34.49,34.49,0,0,0,373.31,476.57Z"/><path class="cls-3" d="M373.31,476.57a34.49,34.49,0,0,1-4.38-2.76h0c.23-3.72.46-7.51.46-11.27C370.8,467.19,372.1,471.88,373.31,476.57Z"/><path class="cls-2" d="M369.39,462.53c0,3.76-.23,7.55-.46,11.27h0c-.67,10.88-1.35,21.73-2,32.61l-13.2,215c-3,48.13-5.89,96.66.87,144.4,3.6,25.41,10,50.46,11.67,76.08,2.58,38.34-5.25,76.52-11,114.51a1091.36,1091.36,0,0,0-9.87,239H308.66c7.06-81.16-4.11-131.76,5.19-207.68,4.38-35.78,16.66-81,19.09-117,1.63-24.11-9.09-56.67-10.73-80.77-7.62-111.19,5-216.63,10.9-330.73,2-39.06,9.62-110.79-1.41-121.54,4.25-3,8.72-5.68,13.15-8.36,1.38-.82,2.86-1.68,4.45-1.53s2.89,1.27,4.08,2.34l10.42,9.4.3-.17a38,38,0,0,1,2.5,5.28C368.76,450.38,369.37,456.43,369.39,462.53Z"/><path class="cls-2" d="M276.37,406.81a8.38,8.38,0,0,1,.05-2.69,14.17,14.17,0,0,1,2.89-5.4L322.65,340h.08c.07,2.75.1,5.49.12,8.22-8.37,10.33-8.58,28.14-2.85,41.15a35.48,35.48,0,0,0,4.11,7.13c9.61,12.8,23.38,21.87,33.72,34a57.33,57.33,0,0,1,6.27,8.82l-.3.17-10.42-9.4c-1.19-1.07-2.5-2.19-4.08-2.34s-3.07.71-4.45,1.53c-4.43,2.68-8.9,5.38-13.15,8.36a73.06,73.06,0,0,0-14.3,12.59c-6,7.13-10.13,16.43-9.84,25.6a.87.87,0,0,1-1.66.39l-27.77-64.07A21.68,21.68,0,0,1,276.37,406.81Z"/><path class="cls-2" d="M114.41,975.46c-2.3,60.23-5.85,120.39-11.47,180.4-4.35,46.43-9.94,93-8.48,139.55H10.52a41.51,41.51,0,0,0-9.35-37.06c18.61-18.6,14.61-49,11.13-75.11a555,555,0,0,1,1.16-155.16c4.8-32.15,12.41-65,5.18-96.74-1.75-7.73-4.4-15.39-4.33-23.31.1-8.82,3.53-17.18,5.87-25.67,6.56-23.79,4.56-49,3.84-73.63A671,671,0,0,1,84.2,512.09c5.74-12.54,12.1-25.23,22.32-34.49,8-7.25,18-12,27.8-16.48,47.13-21.59,92.83-38.07,142.05-54.31a21.68,21.68,0,0,0,1.76,5.43l27.77,64.07a.87.87,0,0,0,1.66-.39c-.29-9.17,3.82-18.47,9.84-25.6a73.06,73.06,0,0,1,14.3-12.59c11,10.75,3.43,82.48,1.41,121.54-5.88,114.1-18.52,219.54-10.9,330.73,1.64,24.1,12.36,56.66,10.73,80.77-2.43,36-14.71,81.18-19.09,117-9.3,75.92,1.87,126.52-5.19,207.68H110.87c-11.19-89,17.35-177.83,22.91-267.33,5.94-95.7-14.43-191.68-13.44-287.24l-1.63,0c-.43,67.74-1.13,135.51-3.22,203.21Q115,959.75,114.41,975.46Z"/><path class="cls-1" d="M322.85,348.26A264.63,264.63,0,0,1,320,389.41C314.27,376.4,314.48,358.59,322.85,348.26Z"/><path class="cls-6" d="M298.32,260.19c-5.39.3-10.52-3-13.81-7.22s-5.2-9.69-6.95-14.9l-7.29-21.53c-2.86-8.43-5.74-17.24-4.37-26a10,10,0,0,1,2-5.08c2.51-2.94,7.14-2.83,10.79-1.54a23,23,0,0,1,10.77,8.05c.51,8.49,1.34,16.8,2.21,24.79A418,418,0,0,0,298.32,260.19Z"/><path class="cls-1" d="M115.49,944c2.09-67.7,2.79-135.47,3.22-203.21l1.63,0c-1,95.56,19.38,191.54,13.44,287.24-5.56,89.5-34.1,178.37-22.91,267.33H94.46c-1.46-46.52,4.13-93.12,8.48-139.55,5.62-60,9.17-120.17,11.47-180.4Q115,959.74,115.49,944Z"/><path class="cls-9" d="M297.58,261.06c-4.95,0-10.05-2.79-13.75-7.57-3.54-4.6-5.42-10.21-7.08-15.15l-7.29-21.53c-2.73-8.08-5.84-17.24-4.4-26.43a10.89,10.89,0,0,1,2.19-5.5c2.87-3.36,7.93-3.13,11.71-1.79a23.84,23.84,0,0,1,11.18,8.35,8,8,0,0,1,.64.87l-1.43.92a6.5,6.5,0,0,0-.54-.73,22.16,22.16,0,0,0-10.42-7.81c-3.09-1.1-7.54-1.41-9.85,1.29a9.41,9.41,0,0,0-1.8,4.67c-1.37,8.77,1.66,17.72,4.33,25.62l7.29,21.52c1.62,4.83,3.45,10.29,6.82,14.66s8.52,7.14,13.09,6.89h.2l.27,1.68-.42,0Z"/><path class="cls-9" d="M499.81,261.06c-.34,0-.68,0-1,0l.14-1.7c5.59.45,10.56-3.25,13.36-6.87,3.31-4.3,5.09-9.56,6.82-14.66l7.29-21.52c2.67-7.9,5.7-16.85,4.33-25.63a9.74,9.74,0,0,0-1.8-4.66c-2.32-2.71-6.76-2.39-9.85-1.29A22,22,0,0,0,510,190.9a16.64,16.64,0,0,0-1.68,2.13l-.18.25-1.36-1,.15-.21a17.25,17.25,0,0,1,1.81-2.29,23.53,23.53,0,0,1,9.81-6.68c3.78-1.34,8.84-1.58,11.72,1.79a11.13,11.13,0,0,1,2.19,5.5c1.44,9.19-1.67,18.35-4.4,26.43l-7.29,21.53c-1.77,5.22-3.6,10.63-7.08,15.14C510,258.23,504.75,261.06,499.81,261.06Z"/><path class="cls-9" d="M509.29,191.18a.85.85,0,0,1-.76-1.22c6.26-12.89,7.26-21.68,8.76-35l.4-3.55c1.48-12.9,1.6-32.79.26-44.33-1.37-11.73-7.57-21.53-14.13-31.9-2.72-4.3-5.53-8.76-7.94-13.32-3.16-6-7.09-12.56-13.6-14.62-.77-.24-1.58-.44-2.45-.66-2.23-.55-4.67-1.15-6.29-2.63a.9.9,0,0,1-.41.3.88.88,0,0,1-.95-.28C457.63,25.37,444,9.52,424.57,4c-8.46-2.39-17.29-2.47-24.81-2.23-9.64.29-19.34,1.21-28.71,2.09-9.85.93-20,1.9-29.24,6-7.45,3.28-13.9,8.45-20.13,13.46q-15.06,12-30.12,24.11l4.89.18a.85.85,0,0,1,.53,1.49c-15.28,13.47-24.86,35-26.29,59-1.11,18.93,2.37,39.67,11,65.27,2,6.06,4.2,11.87,8.24,16.44a.85.85,0,1,1-1.27,1.13c-4.25-4.8-6.57-11-8.58-17C271.38,148.05,267.87,127.1,269,108,270.4,84.31,279.59,63,294.3,49.2L289.23,49a.85.85,0,0,1-.5-1.51Q304.66,34.72,320.62,22c6.32-5.07,12.85-10.31,20.51-13.69,9.45-4.16,19.77-5.13,29.76-6.08C380.29,1.3,390,.39,399.7.1c7.65-.26,16.64-.17,25.34,2.29,19.27,5.45,32.83,20.65,47,38.68a.84.84,0,0,1,.65-.51.85.85,0,0,1,.94.57c.79,2.39,3.61,3.08,6.58,3.81.85.21,1.73.43,2.55.69,7.12,2.25,11.27,9.16,14.6,15.45,2.37,4.5,5.17,8.93,7.87,13.2,6.37,10.08,13,20.5,14.37,32.61,1.36,11.65,1.24,31.72-.25,44.73l-.4,3.54c-1.52,13.48-2.53,22.39-8.92,35.54A.86.86,0,0,1,509.29,191.18Z"/><path class="cls-9" d="M470.93,72.4h-.12a.84.84,0,0,1-.72-1c.9-6.31,1.19-12.88,1.47-19.24.12-2.9.26-5.9.44-8.79a.85.85,0,1,1,1.7.11c-.19,2.87-.32,5.86-.45,8.76-.28,6.4-.56,13-1.48,19.4A.84.84,0,0,1,470.93,72.4Z"/><path class="cls-9" d="M328.43,123.75c-4.77,0-9.37-.29-13.51-2.23a.86.86,0,0,1-.5-.79A.84.84,0,0,1,315,120a11.17,11.17,0,0,0,3.93-2.71,34.94,34.94,0,0,1-18.58-1.62,33.39,33.39,0,0,1-10-5.75.85.85,0,0,1-.15-1.13,84.86,84.86,0,0,1,11.2-13.47.84.84,0,0,1,1.2,0,.85.85,0,0,1,0,1.2A83.27,83.27,0,0,0,292,109.07a31.34,31.34,0,0,0,8.89,5,33,33,0,0,0,19.86,1,.84.84,0,0,1,.94,1.26,12.87,12.87,0,0,1-4.36,4.32c3.87,1.34,8.19,1.43,12.65,1.38a371.46,371.46,0,0,0,120.45-21.31,35.07,35.07,0,0,0,8.58-4,13,13,0,0,0,1.64-1.3c3.38-3.11,5.14-7.61,6.52-11.59a66.57,66.57,0,0,0,2.89-12.19.85.85,0,1,1,1.68.25,69,69,0,0,1-3,12.5c-1.56,4.48-3.48,9.06-7,12.27A13.56,13.56,0,0,1,460,98.15a35.93,35.93,0,0,1-9,4.19,373.12,373.12,0,0,1-121,21.4Z"/><path class="cls-9" d="M398.15,376.55c-38.37,0-61.21-30-76.83-56.19-2.09-3.51-4.21-7.22-6.47-11.34-7.56-13.76-13.24-29.68-17.36-48.65a420.7,420.7,0,0,1-6.68-43.55c-.79-7.36-1.68-16.07-2.21-24.83l-.1-1.52c-1.13-20.09-1.19-49.72,11.33-76l.26-.53,1.52.76-.26.51c-12.34,25.91-12.27,55.25-11.15,75.06l.1,1.61c.52,8.7,1.37,17,2.2,24.75A418.65,418.65,0,0,0,299.15,260c4.09,18.81,9.71,34.57,17.19,48.19,2.25,4.1,4.36,7.79,6.44,11.29,29.29,49.07,55.66,55.36,75.37,55.36a66.44,66.44,0,0,0,21.25-3.41c26.75-9,44.47-35,56.91-56.73,1.3-2.26,2.57-4.56,3.65-6.51,7.52-13.74,13.16-29.57,17.24-48.4a423.19,423.19,0,0,0,6.59-43.16c.5-4.58,1-7.89,1.47-10.8a105.66,105.66,0,0,0,1.45-13.31l0-.88c0-.76.06-1.56.07-2.41-3.11-8.25-5.08-17.09-7-25.64-3.18-14.26-6.47-29-15.15-40.8-1.5-2-3.18-4-4.82-5.93-3.27-3.84-6.66-7.81-8.79-12.52-3.87-8.51-2.75-17.85-1.57-27.74.19-1.62.39-3.26.56-4.91l0-.11,1.71,0a3,3,0,0,1,0,.39c-.17,1.6-.37,3.24-.57,4.88-1.15,9.64-2.24,18.75,1.44,26.83,2,4.49,5.34,8.37,8.54,12.12,1.65,1.94,3.36,3.94,4.89,6,8.89,12.07,12.22,27,15.44,41.43,1.9,8.54,3.88,17.38,7,25.56l.05.15v.16c0,.92,0,1.79-.07,2.61l0,.89a107.65,107.65,0,0,1-1.47,13.5c-.45,2.9-1,6.18-1.46,10.72a425.67,425.67,0,0,1-6.62,43.34c-4.11,19-9.81,35-17.41,48.86-1.08,2-2.36,4.26-3.67,6.53-24,41.8-43.5,52.69-57.83,57.51A68.42,68.42,0,0,1,398.15,376.55Z"/><path class="cls-9" d="M479.39,390.05a.83.83,0,0,1-.85-.83,287,287,0,0,1-3-41,.85.85,0,0,1,.85-.85.83.83,0,0,1,.85.84,284.33,284.33,0,0,0,3,40.89.53.53,0,0,1,0,.13A.86.86,0,0,1,479.39,390.05Z"/><path class="cls-9" d="M476.35,349a.85.85,0,0,1-.85-.85c0-2.71,0-5.43.05-8.13.12-8.48.42-17,.72-24.9a.85.85,0,0,1,.85-.81h0a.84.84,0,0,1,.81.88c-.29,7.91-.59,16.4-.71,24.85,0,2.7-.05,5.41-.05,8.11A.85.85,0,0,1,476.35,349Z"/><path class="cls-9" d="M454.62,1298.09l-1.69-.13c.06-.86.11-1.74.16-2.59a1091.42,1091.42,0,0,0-9.86-238.88c-.93-6.12-1.94-12.35-2.91-18.38-5.07-31.49-10.31-64-8.14-96.31,1.08-16.12,4-32.25,6.89-47.86,1.7-9.25,3.45-18.82,4.79-28.28,6.78-47.86,3.77-96.85.86-144.22q-3.29-53.58-6.59-107.15t-6.58-107.14l-2-33.3c-.58-9.33-1.24-19.91,2.38-29.46a37.92,37.92,0,0,1,2.56-5.4,58.14,58.14,0,0,1,6.36-8.95c2-2.32,4.2-4.69,7-7.45s5.71-5.36,8.54-7.93c6.36-5.75,12.93-11.7,18.13-18.63a34.67,34.67,0,0,0,4.11-7.18,35.38,35.38,0,0,0,1.35-3.58c4.43-13.35,2.72-28-4.27-36.56l-.19-.23v-.3h.86l.65-.53c7.34,8.95,9.17,24.28,4.56,38.15a39.6,39.6,0,0,1-5.71,11.27c-5.3,7.05-11.93,13.06-18.35,18.86-2.82,2.56-5.74,5.2-8.5,7.89s-5,5.05-6.91,7.33a55.41,55.41,0,0,0-6.17,8.69,36.18,36.18,0,0,0-2.45,5.16c-3.49,9.21-2.84,19.59-2.27,28.75l2,33.3q3.28,53.58,6.58,107.15t6.58,107.14c2.92,47.46,5.93,96.54-.87,144.57-1.34,9.49-3.1,19.08-4.8,28.35-2.85,15.56-5.79,31.64-6.86,47.66-2.16,32.07,3.06,64.53,8.12,95.93,1,6,2,12.27,2.91,18.4a1093.4,1093.4,0,0,1,9.88,239.23C454.74,1296.33,454.69,1297.22,454.62,1298.09Z"/><path class="cls-9" d="M492.62,477.69a1.39,1.39,0,0,1-.35,0,1.72,1.72,0,0,1-1.39-1.75c.26-8.34-3.25-17.46-9.64-25a71.94,71.94,0,0,0-14.14-12.44c-4.19-2.93-8.66-5.64-13-8.26l-.11-.06c-1.15-.69-2.57-1.54-3.94-1.42a3.49,3.49,0,0,0-1.1.32,9.88,9.88,0,0,0-2.49,1.82l-3.34,3-7.07,6.38L434.92,439l7.07-6.38,3.35-3a11.77,11.77,0,0,1,2.92-2.1,5.17,5.17,0,0,1,1.64-.46c1.9-.18,3.61.84,5,1.65l.12.07c4.35,2.63,8.85,5.36,13.08,8.32a73.16,73.16,0,0,1,14.47,12.74c6.65,7.89,10.31,17.43,10,26.18q7.28-16.65,14.49-33.34,6.65-15.35,13.3-30.71c.85-1.95,1.9-4.38,1.77-6.66a1.35,1.35,0,0,0,0-.22,6.32,6.32,0,0,0-.09-.73,13.9,13.9,0,0,0-2.74-5.07L476,340.54l1.36-1,43.34,58.68a14.79,14.79,0,0,1,3,5.74,6.87,6.87,0,0,1,.12.88,2.93,2.93,0,0,1,0,.36c.15,2.64-1,5.27-1.91,7.39q-6.66,15.36-13.3,30.71l-14.46,33.36A1.68,1.68,0,0,1,492.62,477.69Z"/><path class="cls-9" d="M489.78,1295.48c-3.35-38.47-2.6-70.13-1.88-100.75.82-34.45,1.58-67-3.3-106.9-1.88-15.34-5.15-32.07-8.61-49.78-4.47-22.93-9.1-46.65-10.49-67.22-1-14.35,2.38-31.61,5.63-48.29,2.28-11.72,4.43-22.78,5.1-32.59,5.61-81.93.28-159.8-5.36-242.23-2-28.73-4-58.43-5.54-88.41-.45-8.64-1.26-18.68-2.11-29.31-3.07-38.1-6.55-81.27,3.73-92.84l1.27,1.13c-9.8,11-6.2,55.68-3.31,91.57.86,10.64,1.67,20.7,2.11,29.37,1.55,30,3.58,59.65,5.54,88.37,5.65,82.5,11,160.42,5.37,242.46-.68,9.92-2.84,21-5.13,32.8-3.23,16.58-6.56,33.73-5.61,47.86,1.39,20.46,6,44.12,10.47,67,3.47,17.74,6.74,34.5,8.62,49.89,4.9,40,4.14,72.64,3.32,107.15-.72,30.57-1.47,62.18,1.87,100.56Z"/><path class="cls-9" d="M676.05,660.94c-12-57.29-22.65-118.11-9.34-176.63l1.65.38c-13.22,58.18-2.63,118.8,9.35,175.9Z"/><path class="cls-9" d="M689.19,1296.08l-1.69-.15c0-.11,0-.22,0-.33l0-.26c7.07-56.19-1.9-113.39-10.58-168.7-5-32.25-10.28-65.59-12.32-98.51-3.3-52.9,1.52-106.72,6.19-158.77,5-56.41,10.28-114.74,5.14-171.87-.12-1.48-.26-3-.41-4.46l1.69-.17c.16,1.5.29,3,.41,4.48,5.15,57.28-.08,115.69-5.14,172.17-4.66,52-9.48,105.74-6.19,158.52,2,32.84,7.26,66.14,12.31,98.34,8.7,55.43,17.68,112.75,10.59,169.14,0,.09,0,.2,0,.31Z"/><path class="cls-9" d="M681.43,982.62l-1.5-.8C694,955.36,725,943.81,753.38,936c3.2-.87,6.36-1.7,9.51-2.52l.42,1.65c-3.14.81-6.29,1.64-9.48,2.51C703.84,951.38,689.18,968.09,681.43,982.62Z"/><path class="cls-9" d="M681.93,946.49l-1-1.35a140.52,140.52,0,0,1,67.18-27.61l.21,1.69A138.75,138.75,0,0,0,681.93,946.49Z"/><path class="cls-9" d="M773.63,1266.15a73.13,73.13,0,0,0-68-16.26l-3.39,1,2.58-2.4c12.29-11.4,25.58-17.88,40.64-19.8a80.68,80.68,0,0,1,20,.06l-.2,1.69a79.33,79.33,0,0,0-19.59-.07c-13.64,1.75-25.82,7.34-37.11,17.06a73.57,73.57,0,0,1,36.85,1.18,72.76,72.76,0,0,1,29.43,16.33Z"/><path class="cls-9" d="M541.31,1016.43l.1-1.45c1.14-18.27,11.26-36.69,30.93-56.31,4.26-4.25,8.75-8.44,13.1-12.48,11.31-10.52,23-21.4,31.55-34.45l.87-1.33c3.52-5.43,7.51-11.59,14.06-13.08l.38,1.66c-5.88,1.33-9.51,6.93-13,12.35l-.87,1.34c-8.66,13.22-20.43,24.17-31.82,34.75-4.34,4-8.82,8.21-13.06,12.44-18.83,18.79-28.77,36.39-30.33,53.74a408.07,408.07,0,0,0,87.7-58.33l1.11,1.28a409.53,409.53,0,0,1-89.39,59.23Z"/><path class="cls-9" d="M596,1264.67l-.36-1.66a113.19,113.19,0,0,0,75.86-58l1.51.77a114.83,114.83,0,0,1-77,58.92Z"/><path class="cls-9" d="M627.89,1273.34c-1.47,0-2.9-.06-4.28-.17l.15-1.7c1.51.13,3.09.18,4.71.17a52.42,52.42,0,0,0,41.33-21.59l1.38,1a54.13,54.13,0,0,1-42.69,22.31Z"/><path class="cls-9" d="M320,390.26h-.13a.85.85,0,0,1-.71-1,263.31,263.31,0,0,0,2.84-41c0-3.06-.06-5.75-.12-8.21-.12-5.45-.33-10.86-.54-16.59L321.2,320a.85.85,0,1,1,1.7-.06l.13,3.51c.22,5.74.42,11.16.55,16.62.06,2.47.1,5.17.12,8.23a265.68,265.68,0,0,1-2.86,41.29A.86.86,0,0,1,320,390.26Z"/><path class="cls-9" d="M344.67,1298.09c-.07-.83-.12-1.67-.16-2.5v-.13a1092.72,1092.72,0,0,1,9.88-239.22c.93-6.13,1.94-12.37,2.91-18.4,5-31.4,10.28-63.86,8.12-95.93-1.07-16-4-32.1-6.86-47.65-1.7-9.28-3.46-18.87-4.8-28.36-6.81-48-3.79-97.11-.88-144.57l13.2-215q.51-8.14,1-16.3t1-16.3l1.69.1q-.5,8.16-1,16.31t-1,16.3l-13.2,215c-2.91,47.37-5.92,96.36.86,144.22,1.34,9.46,3.09,19,4.79,28.29,2.85,15.6,5.81,31.74,6.89,47.85,2.17,32.26-3.07,64.82-8.15,96.3-1,6-2,12.27-2.9,18.39a1091.92,1091.92,0,0,0-9.87,238.86v.14c.05.82.1,1.65.16,2.47Z"/><path class="cls-9" d="M369.77,473.85l-1.69-.11c.23-3.61.46-7.45.46-11.21,0-7.1-.89-12.67-2.73-17.54a36.24,36.24,0,0,0-2.45-5.16,56.67,56.67,0,0,0-6.18-8.69,167.34,167.34,0,0,0-15.39-15.21c-6.42-5.81-13.06-11.82-18.36-18.87a36.68,36.68,0,0,1-4.21-7.31c-7.18-16.32-3.94-33.5,3-42a1.2,1.2,0,0,1,.15-.16l1.2,1.2-.6-.6.64.56-.13.14c-7.5,9.26-8.67,26.57-2.68,40.21a35,35,0,0,0,4,7c5.21,6.93,11.78,12.89,18.14,18.64A169.5,169.5,0,0,1,358.48,430a58.14,58.14,0,0,1,6.36,8.95,37.35,37.35,0,0,1,2.55,5.4c1.92,5.06,2.82,10.82,2.85,18.14C370.24,466.34,370,470.21,369.77,473.85Z"/><path class="cls-9" d="M306.67,477.69a1.68,1.68,0,0,1-1.56-1.05l-13.65-31.5-14.1-32.56a22.22,22.22,0,0,1-1.83-5.66,9.36,9.36,0,0,1,.05-2.95,14.89,14.89,0,0,1,3-5.75L322,339.53l1.37,1L280,399.22a13.67,13.67,0,0,0-2.74,5.07,7.68,7.68,0,0,0,0,2.4,21,21,0,0,0,1.71,5.22L293,444.46,306.67,476c-.23-8.77,3.42-18.31,10.08-26.2A72.85,72.85,0,0,1,331.22,437c4.23-3,8.73-5.69,13.08-8.32l.11-.07c1.45-.86,3.08-1.83,5-1.65s3.46,1.56,4.57,2.56l3.14,2.84,7.28,6.56-1.14,1.26L356,433.65l-3.15-2.84c-1.21-1.09-2.32-2-3.59-2.13s-2.66.66-3.93,1.42l-.11.06c-4.33,2.62-8.8,5.33-13,8.26a71.32,71.32,0,0,0-14.14,12.45c-6.39,7.57-9.9,16.69-9.64,25a1.72,1.72,0,0,1-1.37,1.76A1.55,1.55,0,0,1,306.67,477.69Z"/><path class="cls-9" d="M309.51,1295.48l-1.69-.15c3.33-38.38,2.59-70,1.87-100.57-.82-34.5-1.59-67.1,3.31-107.14,1.89-15.39,5.16-32.15,8.62-49.89,4.47-22.88,9.09-46.55,10.48-67,.95-14.13-2.38-31.28-5.61-47.86-2.29-11.76-4.45-22.88-5.13-32.8-5.62-82-.28-160,5.36-242.47,2-28.71,4-58.4,5.54-88.36.39-7.36,1-15.88,1.58-24.9,2.51-36.94,5.94-87.54-2.73-96l1.19-1.22c9.23,9,5.9,58,3.23,97.33-.61,9-1.19,17.52-1.57,24.86-1.54,30-3.58,59.67-5.54,88.39-5.64,82.44-11,160.31-5.37,242.25.67,9.81,2.83,20.87,5.11,32.59,3.24,16.69,6.6,33.94,5.63,48.29-1.39,20.57-6,44.29-10.5,67.23-3.46,17.71-6.72,34.44-8.6,49.77-4.89,39.91-4.12,72.45-3.31,106.89C312.11,1225.34,312.85,1257,309.51,1295.48Z"/><path class="cls-9" d="M123.24,660.94l-1.66-.35c12-57.1,22.57-117.72,9.34-175.9l1.66-.38C145.88,542.83,135.26,603.65,123.24,660.94Z"/><path class="cls-9" d="M110.09,1296.08a1.24,1.24,0,0,0,0-.27l0-.33c-7.1-56.36,1.89-113.68,10.59-169.11,5-32.2,10.27-65.5,12.31-98.34,3.28-52.79-1.54-106.56-6.2-158.56-3.78-42.18-7.68-85.81-7.24-128.64.18-17.18,1-32.87,2.51-48l1.7.17c-1.51,15.05-2.33,30.69-2.51,47.82-.44,42.75,3.46,86.33,7.23,128.47,4.67,52.06,9.49,105.9,6.2,158.81-2,32.92-7.27,66.26-12.33,98.5-8.67,55.32-17.64,112.51-10.57,168.67,0,.12,0,.21,0,.3s0,.21,0,.33Z"/><path class="cls-9" d="M117.85,982.62a59.89,59.89,0,0,0-4.13-6.66C97.05,952.46,66.17,942.9,36,935.12l.42-1.65C66.9,941.33,98.1,951,115.1,975a63.37,63.37,0,0,1,4.25,6.85Z"/><path class="cls-9" d="M117.36,946.49,115,944.71a139.33,139.33,0,0,0-64-25.49l.21-1.69A141.16,141.16,0,0,1,116,943.34l2.4,1.8Z"/><path class="cls-9" d="M25.65,1266.15l-1.15-1.25c17.47-16.11,43.12-22.8,66.28-17.51-16.41-14.1-35-19.65-56.7-17l-.2-1.69c23.38-2.87,43.22,3.59,60.63,19.74l2.59,2.41-3.4-1A73,73,0,0,0,25.65,1266.15Z"/><path class="cls-9" d="M299.61,935.43a424.87,424.87,0,0,0-62.1-47.07l-5.78-3.55c-12.63-7.72-25.7-15.71-35.29-27.22-9.43-11.32-14.86-25.3-20.11-38.82-4.32-11.1-8.78-22.59-15.43-32.52l1.41-1c6.75,10.09,11.25,21.67,15.6,32.85,5.2,13.4,10.59,27.25,19.84,38.35,9.41,11.29,22.35,19.21,34.87,26.87q2.91,1.77,5.78,3.55a425.72,425.72,0,0,1,62.36,47.26Z"/><path class="cls-9" d="M279.66,991.73a263.83,263.83,0,0,0-74.34-60.87l.82-1.49A265.64,265.64,0,0,1,281,990.63Z"/><path class="cls-9" d="M789.85,1296.26H9.43l.26-1a40.44,40.44,0,0,0-9.15-36.29l-.54-.6.57-.57c18.38-18.37,14.4-48.13,10.89-74.39A554.55,554.55,0,0,1,12.62,1028c.74-5,1.57-10.06,2.37-15,4.37-27,8.9-54.81,2.82-81.45-.43-1.91-.93-3.85-1.41-5.72-1.47-5.76-3-11.72-2.94-17.79.07-6.78,2.1-13.33,4.05-19.67.63-2,1.28-4.14,1.86-6.22,5.66-20.56,4.88-42.5,4.13-63.72-.12-3.22-.23-6.45-.33-9.66a672.65,672.65,0,0,1,60.26-297C89.12,499.31,95.54,486.4,106,477c7.87-7.11,17.34-11.74,28-16.62C185.14,436.9,234.53,419.72,276.1,406l.27,0v.87l.25.78c-41.52,13.71-90.86,30.87-142,54.28-10.54,4.83-19.89,9.39-27.58,16.34-10.17,9.21-16.5,21.95-22.12,34.21A670.91,670.91,0,0,0,24.87,808.7q.15,4.81.32,9.65C26,839.7,26.74,861.77,21,882.58c-.58,2.1-1.23,4.22-1.86,6.27-1.92,6.22-3.91,12.66-4,19.19-.05,5.84,1.45,11.69,2.9,17.35.48,1.88,1,3.83,1.42,5.76,6.15,27,1.6,55-2.81,82.1-.8,4.91-1.62,10-2.36,15a553.4,553.4,0,0,0-1.16,154.93c3.35,25.08,7.52,56.23-10.81,75.25a42.18,42.18,0,0,1,9.25,36.18H787.7a42.21,42.21,0,0,1,9.25-36.18c-18.34-19-14.16-50.18-10.79-75.25A553.77,553.77,0,0,0,785,1028.2c-.74-5-1.57-10-2.36-15-4.41-27.11-9-55.14-2.81-82.1.44-1.93.94-3.88,1.42-5.76,1.45-5.66,2.94-11.51,2.89-17.35-.07-6.53-2.06-13-4-19.19-.63-2.05-1.29-4.17-1.87-6.27-5.74-20.81-4.95-42.89-4.19-64.23.12-3.23.23-6.44.33-9.65a671,671,0,0,0-60.1-296.26c-4-8.76-8.47-18-14.59-26a60.22,60.22,0,0,0-7.54-8.26c-7.68-7-17-11.51-27.57-16.34A1365.71,1365.71,0,0,0,522.72,406l-.28-.1.62-1.58.24.08a1367.18,1367.18,0,0,1,142,56c10.68,4.88,20.15,9.51,28,16.62a63,63,0,0,1,7.75,8.49c6.23,8.1,10.72,17.42,14.78,26.28a672.5,672.5,0,0,1,60.25,297q-.14,4.82-.32,9.66c-.76,21.22-1.54,43.16,4.13,63.72.58,2.08,1.22,4.18,1.85,6.22,2,6.34,4,12.89,4.06,19.67,0,6.07-1.47,12-2.94,17.79-.48,1.87-1,3.81-1.41,5.72-6.08,26.64-1.56,54.5,2.82,81.45.8,4.92,1.63,10,2.37,15a555.67,555.67,0,0,1,1.18,155.41c-3.35,25-7.53,56,10.87,74.39l.57.57-.54.6a40.41,40.41,0,0,0-9.15,36.29Z"/><path class="cls-9" d="M398.62,483.68a54.39,54.39,0,0,1-25.72-6.37,36.48,36.48,0,0,1-4.5-2.83l-.32-.25v-.42h.85l.52-.66a34.78,34.78,0,0,0,4.27,2.68c7.93,4.31,29.3,12.66,56.22-2.76l.84,1.47C418.78,481.41,407.83,483.68,398.62,483.68Z"/><path class="cls-9" d="M400.2,516.86a64,64,0,0,1-19.5-3.09,56.21,56.21,0,0,1-14.27-6.66l1-1.39a55.36,55.36,0,0,0,13.8,6.43c11.89,3.82,30.34,5.91,50.77-5.79l.84,1.47A64.93,64.93,0,0,1,400.2,516.86Z"/><path class="cls-9" d="M406.42,431.08a35.89,35.89,0,0,1-11.82-22.51l1.69-.2a34.13,34.13,0,0,0,11.25,21.43Z"/><path class="cls-9" d="M529.72,406.61a29.38,29.38,0,0,1-7-.9,45,45,0,0,1-13.1-5.73c-1.68-1.07-3.38-2.21-5-3.32-7.49-5-15.23-10.25-23.88-10.29h-1l-.07-1.69c.37,0,.72,0,1.09,0,9.16,0,17.12,5.4,24.81,10.58,1.64,1.1,3.34,2.24,5,3.3a43.16,43.16,0,0,0,12.59,5.51c5.19,1.28,12.48,1.74,17.75-3.3l1.17,1.22A17.32,17.32,0,0,1,529.72,406.61Z"/><path class="cls-9" d="M363.86,309c2.36-.53,4.75-.93,7.14-1.32s4.8-.68,7.22-.91a65.79,65.79,0,0,1,7.31-.3,27.63,27.63,0,0,1,3.71.33,10.92,10.92,0,0,1,1.89.48,4.32,4.32,0,0,1,1.87,1.2l-.26-.21a13,13,0,0,0,9.31.84,8.54,8.54,0,0,0,1.08-.46c.17-.08.34-.19.51-.28s.44-.24.65-.35a10,10,0,0,1,2.69-.69,40.2,40.2,0,0,1,5.23-.31c3.45,0,6.88.25,10.29.59s6.81.79,10.19,1.39c-3.42-.18-6.84-.36-10.25-.46s-6.82-.19-10.21-.07a39,39,0,0,0-5,.43,10.35,10.35,0,0,0-2.26.61l-1.08.6a9.78,9.78,0,0,1-1.28.57,12,12,0,0,1-5.43.56,16.8,16.8,0,0,1-5.19-1.51l-.14-.07-.12-.14a5.39,5.39,0,0,0-2.77-1.17,26.61,26.61,0,0,0-3.49-.4c-2.37-.12-4.78-.11-7.18,0s-4.8.25-7.21.41S366.27,308.76,363.86,309Z"/><path class="cls-9" d="M376,325.76a18.74,18.74,0,0,1,2.79.5c.92.19,1.84.36,2.76.52,1.84.33,3.69.61,5.54.81a92.06,92.06,0,0,0,11.13.53c1.86-.07,3.72-.07,5.58-.25.93-.06,1.86-.11,2.79-.2s1.85-.21,2.78-.3l1.39-.14,1.39-.21,2.78-.38c1.86-.25,3.7-.64,5.58-.88-1.78.61-3.59,1.17-5.41,1.7s-3.66,1-5.54,1.22a70.27,70.27,0,0,1-11.31,1.14,61.66,61.66,0,0,1-11.35-.93,49.52,49.52,0,0,1-5.54-1.3C379.56,327,377.81,326.33,376,325.76Z"/><path class="cls-9" d="M423.68,274.38a12.14,12.14,0,0,1-3.37,1.75,5.42,5.42,0,0,1-3.92-.11,10,10,0,0,1-3-2.54,1.68,1.68,0,0,0-.53-.39c-.07,0-.1,0-.28.15a5.27,5.27,0,0,0-.92,1.37,11,11,0,0,1-2.44,3.16,13.94,13.94,0,0,1-3.34,2.16,20.48,20.48,0,0,1-7.65,1.74,20.86,20.86,0,0,1-7.64-1.73,14.29,14.29,0,0,1-3.34-2.17,11.06,11.06,0,0,1-2.45-3.16,5.72,5.72,0,0,0-.91-1.37c-.18-.15-.21-.15-.28-.14a1.4,1.4,0,0,0-.53.39,10.11,10.11,0,0,1-3,2.53,5.42,5.42,0,0,1-3.92.11,11.87,11.87,0,0,1-3.37-1.75,14.57,14.57,0,0,0,3.48,1.32,4.78,4.78,0,0,0,3.43-.42,9.49,9.49,0,0,0,2.53-2.56,2.48,2.48,0,0,1,1-.74,1.35,1.35,0,0,1,.82,0,1.88,1.88,0,0,1,.63.34A6.22,6.22,0,0,1,386,274a10.79,10.79,0,0,0,2.26,2.67,12.74,12.74,0,0,0,3,1.83,17,17,0,0,0,14,0,12.74,12.74,0,0,0,3-1.83,10.79,10.79,0,0,0,2.26-2.67,6.54,6.54,0,0,1,1.28-1.67,1.92,1.92,0,0,1,.62-.34,1.46,1.46,0,0,1,.83,0,2.58,2.58,0,0,1,1,.74,9.61,9.61,0,0,0,2.52,2.56,4.82,4.82,0,0,0,3.44.42A14.57,14.57,0,0,0,423.68,274.38Z"/><path class="cls-9" d="M369.38,285.47c-2.08,2.84-4.07,5.58-5.84,8.48-.91,1.44-1.74,2.92-2.54,4.42s-1.52,3.06-2.35,4.63a18.78,18.78,0,0,1,1.14-5.17,24.83,24.83,0,0,1,1-2.45c.41-.78.82-1.57,1.29-2.32a26.37,26.37,0,0,1,3.22-4.21A19.36,19.36,0,0,1,369.38,285.47Z"/><path class="cls-9" d="M427.32,285.47a18.87,18.87,0,0,1,4.06,3.38,26.37,26.37,0,0,1,3.22,4.21c.47.75.88,1.54,1.29,2.32a24.83,24.83,0,0,1,1,2.45,18.78,18.78,0,0,1,1.14,5.17c-.83-1.57-1.52-3.13-2.35-4.63s-1.63-3-2.54-4.42C431.39,291.05,429.4,288.31,427.32,285.47Z"/><path class="cls-9" d="M385.83,213.22a30.38,30.38,0,0,1,1.89,7.46,41.41,41.41,0,0,1,.33,7.71c-.05,1.29-.22,2.57-.36,3.85a38.08,38.08,0,0,1-.75,3.8,33.1,33.1,0,0,1-2.63,7.23c.46-2.53,1-5,1.33-7.48s.6-5,.71-7.48.14-5,0-7.52S386.13,215.77,385.83,213.22Z"/><circle class="cls-10" cx="451.83" cy="204.48" r="8.61"/><path class="cls-9" d="M451.84,213.53h-.39a9.05,9.05,0,1,1,9.43-8.66h0A9.07,9.07,0,0,1,451.84,213.53Zm0-17.23a8.17,8.17,0,0,0-.35,16.34,8,8,0,0,0,5.88-2.14,8.11,8.11,0,0,0,2.64-5.67h0a8.19,8.19,0,0,0-7.82-8.52Z"/><path class="cls-9" d="M448.41,225.29a15.74,15.74,0,0,1-4.49-.36,21.14,21.14,0,0,1-4.28-1.44,20.8,20.8,0,0,1-3.86-2.34,15.17,15.17,0,0,1-3.16-3.19L436.5,220c1.28.66,2.55,1.32,3.86,1.91s2.61,1.16,3.95,1.71Z"/><path class="cls-9" d="M432.62,207.5a23.14,23.14,0,0,1,8.38-9.23,22.45,22.45,0,0,1,12.49-3.63,23,23,0,0,1,12.36,3.9,27.31,27.31,0,0,1,8.62,9,88.29,88.29,0,0,0-10.5-5.42,28.48,28.48,0,0,0-10.56-2.35,26.79,26.79,0,0,0-10.56,2.08A52.11,52.11,0,0,0,432.62,207.5Z"/><path class="cls-9" d="M424,168.15v10.73s44-13.23,62.24,0C486.27,178.88,484.48,158.14,424,168.15Z"/><circle class="cls-10" cx="344.78" cy="204.48" r="8.61"/><path class="cls-9" d="M344.77,213.53a9.09,9.09,0,1,1,.39,0Zm0-17.23h-.36a8.19,8.19,0,0,0-7.82,8.52h0a8.17,8.17,0,1,0,8.18-8.53Z"/><path class="cls-9" d="M348.2,225.29l4.1-1.63c1.34-.55,2.66-1.09,3.95-1.71s2.58-1.25,3.86-1.91L364,218a15.17,15.17,0,0,1-3.16,3.19,20.52,20.52,0,0,1-8.14,3.78A15.74,15.74,0,0,1,348.2,225.29Z"/><path class="cls-9" d="M364,207.5a52.11,52.11,0,0,0-10.23-5.69,26.79,26.79,0,0,0-10.56-2.08,28.48,28.48,0,0,0-10.56,2.35,87.43,87.43,0,0,0-10.49,5.42,27.27,27.27,0,0,1,8.61-9,23,23,0,0,1,12.36-3.9,22.45,22.45,0,0,1,12.49,3.63A23.14,23.14,0,0,1,364,207.5Z"/><path class="cls-9" d="M372.58,168.15v10.73s-44-13.23-62.24,0C310.34,178.88,312.13,158.14,372.58,168.15Z"/><path class="cls-9" d="M411.11,211.78c-12.8-7.93-25.39-.33-25.92,0l-1.79-2.89c.6-.37,14.87-9.06,29.5,0Z"/><path class="cls-9" d="M491.32,206.18a1.7,1.7,0,0,1-1.1-3L509,187.32a1.7,1.7,0,1,1,2.19,2.59l-18.78,15.87A1.7,1.7,0,0,1,491.32,206.18Z"/><path class="cls-9" d="M304.64,205.5a1.74,1.74,0,0,1-1.14-.44L286,189.19a1.7,1.7,0,1,1,2.28-2.52l17.53,15.87a1.7,1.7,0,0,1-1.14,3Z"/><path class="cls-11" d="M311.92,192.77c5.11-3.55,11.58-4.32,17.77-4.87,11.54-1,23.27-1.69,34.63.55,6,1.19,12.28,3.45,16,8.37a21.76,21.76,0,0,1,3.82,10.85c1.57,14.73-7,30-20.33,36.39a50,50,0,0,1-14.25,4.05c-9.11,1.33-14.43,1.27-22.76-1.3-8.79-2.72-15.4-10.77-19.49-23.11C304.13,214.19,302,199.68,311.92,192.77Z"/><path class="cls-11" d="M484.39,192.77c-5.11-3.55-11.58-4.32-17.77-4.87-11.54-1-23.27-1.69-34.63.55-6,1.19-12.28,3.45-16,8.37a21.76,21.76,0,0,0-3.82,10.85c-1.57,14.73,7,30,20.33,36.39a50,50,0,0,0,14.25,4.05c9.11,1.33,14.43,1.27,22.76-1.3,8.79-2.72,15.39-10.77,19.49-23.11C492.18,214.19,494.34,199.68,484.39,192.77Z"/><path class="cls-9" d="M339.83,250.67a44.2,44.2,0,0,1-13.55-2.24c-9.17-2.83-16.29-11.2-20.6-24.19-2.37-7.13-6.6-24.62,5.27-32.87h0c5.35-3.71,11.84-4.56,18.59-5.17,10.69-1,23.1-1.78,35.11.58,8.08,1.6,13.65,4.55,17,9a23.21,23.21,0,0,1,4.15,11.69c1.64,15.4-7.32,31.42-21.29,38.1a51.38,51.38,0,0,1-14.74,4.2A68.62,68.62,0,0,1,339.83,250.67Zm7.42-62c-6.05,0-11.95.46-17.4,1-6.28.56-12.3,1.34-17,4.57h0c-10,6.94-6.12,22.6-4,29,4,11.91,10.31,19.52,18.38,22,8.4,2.6,13.58,2.48,22,1.25a47.64,47.64,0,0,0,13.76-3.91c12.72-6.07,20.87-20.66,19.38-34.67a20,20,0,0,0-3.49-10c-2.83-3.77-7.72-6.3-14.95-7.72A86.84,86.84,0,0,0,347.25,188.64Z"/><path class="cls-9" d="M456.48,250.67a68.87,68.87,0,0,1-10-.88,51.41,51.41,0,0,1-14.73-4.2c-14-6.68-22.93-22.7-21.29-38.1a23.25,23.25,0,0,1,4.15-11.69c3.36-4.47,8.93-7.42,17-9,12-2.36,24.42-1.54,35.11-.58,6.74.61,13.24,1.46,18.59,5.17,11.87,8.25,7.64,25.73,5.27,32.87-4.31,13-11.44,21.36-20.6,24.19A44.2,44.2,0,0,1,456.48,250.67Zm-7.42-62a86.84,86.84,0,0,0-16.74,1.48c-7.23,1.42-12.12,3.95-14.95,7.72a20,20,0,0,0-3.49,10c-1.5,14,6.66,28.6,19.38,34.67A47.64,47.64,0,0,0,447,246.43c8.43,1.23,13.61,1.35,22-1.25,8.07-2.49,14.42-10.1,18.38-22,2.13-6.41,6-22.07-4-29h0c-4.66-3.23-10.68-4-17-4.57C461,189.1,455.11,188.64,449.06,188.64Z"/></g></svg>