<svg xmlns="http://www.w3.org/2000/svg" viewBox="0 0 821.39 1298.1"><defs><style>.cls-1{fill:#003d1d;}.cls-2{fill:#063;}.cls-3{fill:#d4a87f;}.cls-4{fill:#634e42;}.cls-5{fill:#e3bb94;}.cls-6{fill:#7b6a58;}.cls-7{fill:#f4ad33;}.cls-8{fill:#ee8d00;}.cls-9{fill:#1d1d1b;}.cls-10{fill:#fff;}.cls-11{fill:#392f25;}.cls-12{fill:#7ff4c7;opacity:0.3;}</style></defs><g id="PERSONAJES"><path class="cls-1" d="M785.9,918.62c-8.09-34.3-16.5-68.53-19.83-103.58-1.78-18.76-2.09-37.58-2.07-56.44,0-21.36.51-42.76-.24-64.12a566.41,566.41,0,0,0-46.21-204.74c4.72,7,8.46,14.68,12,22.36,41.65,91.18,58.12,163.88,70.89,261.42a13.38,13.38,0,0,1-1.19,7.45c-2.78,6-1.73,12.85,0,19.71,2.06,8,6,15.43,8.89,23.21,5.53,15.19,6.69,31.57,7.79,47.69q2,29.61,4.05,59.22c.49,7.19,1,14.43,0,21.55-.86,6.13-2.83,12-4.79,17.9q-6.24,18.87-12.54,37.7c-1-9.83-2.31-19.62-4-29.27C795.21,958.53,790.6,938.57,785.9,918.62Z"/><path class="cls-2" d="M802.61,1008l-.59,1.79c-1,3.17-2.21,6.5-4.67,8.78-2.3,2.11-5.41,3-8.45,3.72-17,3.89-37.36,4-48,17.87-2.62,3.42-4.39,7.46-7.34,10.59-5.73,6-14.63,7.56-22.89,8.73l-27.49,3.93q-8,1.11-16.05,2.29c4.43-52.5,10.65-104.89,16-157.32a76,76,0,0,1,11.54-2.67,156.52,156.52,0,0,1,91.2,13c4.7,20,9.31,39.91,12.76,60.06C800.3,988.33,801.66,998.12,802.61,1008Z"/><path class="cls-2" d="M683.16,908.33a35.09,35.09,0,0,0-12.76,7c-5.13,4.6-8.63,11.23-14.85,14.22-3.38,1.63-7.22,2-10.87,2.83-20.35,4.71-34.74,24-55,29.31-7.66,2-16.43,2.16-22.1,7.66-2.45,2.38-4.12,5.61-7,7.36-3.38,2-7.61,1.63-11.55,1.7-10.3.15-20.17,3.86-29.79,7.52-10.12,3.84-21.61,5.58-20.27,16.3q-7.77-2.15-15.4-4.66l.22-.68c-1.57-9.85-2.42-17.12-3-26.13-1.63-24.09,9.09-56.66,10.74-80.76,7.61-111.2-5-216.64-10.91-330.74-2-39-11.48-107,1.4-121.53a73.46,73.46,0,0,1,14.32,12.59c6,7.12,10.12,16.42,9.83,25.59a.87.87,0,0,0,1.67.39q13.89-32,27.76-64.05a18.35,18.35,0,0,0,1.82-6.22,31.94,31.94,0,0,0,6.9,1.46,1356.2,1356.2,0,0,1,135.1,53.62c9.83,4.5,19.77,9.23,27.79,16.48a65.27,65.27,0,0,1,10.35,12.15,566.41,566.41,0,0,1,46.21,204.74c.75,21.36.27,42.76.24,64.12,0,18.86.29,37.68,2.07,56.44,3.33,35.05,11.74,69.28,19.83,103.58a156.52,156.52,0,0,0-91.2-13A76,76,0,0,0,683.16,908.33Z"/><path class="cls-1" d="M646.4,1272.29a138.2,138.2,0,0,0,7.54-19c1.21-3.91,2.21-7.85,3.06-11.84,4.4-21,4.09-43,4.35-64.6.42-37.14,2.68-74.19,5.81-111.21q8-1.17,16.05-2.29c8.31,81.83,30,151.2,19.57,232.63H633.06A233.14,233.14,0,0,0,646.4,1272.29Z"/><path class="cls-2" d="M670.4,915.33a35.09,35.09,0,0,1,12.76-7c-5.35,52.43-11.57,104.82-16,157.32-2.72.37-5.44.76-8.16,1.15-2.33.33-4.77.72-6.59,2.2-1.44,1.17-2.31,2.88-3.52,4.28-5.13,5.91-14.4,4.75-22.15,3.57A186.53,186.53,0,0,0,527.18,1089l-.32.14a53.44,53.44,0,0,0,8.2-22l-.06-.46c.83-.14,1.68-.26,2.51-.39a10.41,10.41,0,0,0,4.26-1.28c4.13-2.63,2.77-9.19-.34-13,6.27-4.84,12.12-8.25,17.42-13.91,2.19-2.33,4.08-6.81,2.19-8.72-6.83-6-16.72-6.26-24.65-2.78-.24.1-.48.22-.71.34l-.24-.51a10.73,10.73,0,0,0-8.19-3.72v-.12a88.41,88.41,0,0,0-7.82-15.7l-1.2-2a26.63,26.63,0,0,0-5.58-6.88,10,10,0,0,0-8.27-2.31c-2.89.66-5.33,3.46-5,6.4l0,.12-.38-.1c-1.34-10.72,10.15-12.46,20.27-16.3,9.62-3.66,19.49-7.37,29.79-7.52,3.94-.07,8.17.34,11.55-1.7,2.9-1.75,4.57-5,7-7.36,5.67-5.5,14.44-5.65,22.1-7.66,20.22-5.27,34.61-24.6,55-29.31,3.65-.83,7.49-1.2,10.87-2.83C661.77,926.56,665.27,919.93,670.4,915.33Z"/><path class="cls-2" d="M526.86,1089.18l.32-.14a186.53,186.53,0,0,1,99.56-12.19c7.75,1.18,17,2.34,22.15-3.57,1.21-1.4,2.08-3.11,3.52-4.28,1.82-1.48,4.26-1.87,6.59-2.2,2.72-.39,5.44-.78,8.16-1.15-3.13,37-5.39,74.07-5.81,111.21-.26,21.6,0,43.56-4.35,64.6-.85,4-1.85,7.93-3.06,11.84a138.2,138.2,0,0,1-7.54,19,233.14,233.14,0,0,1-13.34,23.7h-128v-.59c-7.05-81.16,2.12-127.49-7.17-203.42a15.53,15.53,0,0,0,5.5-3.5c4.2-3.58,7.8-6.72,11.37-9.92l3.67,7.14c.9,1.75,2,3.65,3.86,4.21A7,7,0,0,0,526.86,1089.18Z"/><path class="cls-3" d="M561,1029.44c1.89,1.91,0,6.39-2.19,8.72-5.3,5.66-11.15,9.07-17.42,13.91-6-7.35-15.88-10.09-25.56-10.31,3.19-2.6,6.42-5.21,9.63-7.8a52.87,52.87,0,0,1,10.18-7c.23-.12.47-.24.71-.34C544.32,1023.18,554.21,1023.43,561,1029.44Z"/><path class="cls-3" d="M546,190.52c1.38,8.77-1.51,17.6-4.36,26q-3.64,10.78-7.29,21.53c-1.77,5.21-3.58,10.55-7,14.9s-8.61,7.64-14.1,7.2l-.83-.19a418.87,418.87,0,0,0,6.61-43.25c1.2-11.1,2.49-14.51,2.92-24.16a20.76,20.76,0,0,1,1.73-2.23,23.17,23.17,0,0,1,9.5-6.44c3.63-1.29,8.27-1.39,10.79,1.53A10.16,10.16,0,0,1,546,190.52Z"/><path class="cls-2" d="M537.42,405.2c2.32.76,4.61,1.53,6.89,2.29a31.94,31.94,0,0,1-6.9-1.46A4.6,4.6,0,0,0,537.42,405.2Z"/><path class="cls-3" d="M469.45,1044a74.45,74.45,0,0,0,7.59.9,88.68,88.68,0,0,0,16.67-1c2.8-.39,5.59-.8,8.38-1.17s5.67-.71,8.53-.88c1.73-.1,3.48-.16,5.25-.09,9.68.22,19.55,3,25.56,10.31,3.11,3.79,4.47,10.35.34,13a10.41,10.41,0,0,1-4.26,1.28c-.83.13-1.68.25-2.51.39l-9,1.38c-4.06,3.89-7.63,7.2-11.25,10.46s-7.17,6.34-11.37,9.92a15.53,15.53,0,0,1-5.5,3.5c-1.9.56-3.92.21-5.89.22-18.93.17-36.89.07-55.17-3.07l-.56,3c-11.28-2.12-22.56-4.35-33.76-6.84.78-3.42,1.58-6.83,2.35-10.25a31.4,31.4,0,0,0,5.45-2.53c8.05-4.74,14.08-12.17,20.83-18.62,5.76-5.52,12.62-10.6,20.32-12.08,2.43,0,4.86.24,7.27.53C462.31,1042.73,465.88,1043.43,469.45,1044Z"/><path class="cls-1" d="M537.42,405.2a4.6,4.6,0,0,1,0,.83A45.31,45.31,0,0,1,527,401.12c-9.56-6.06-19.11-14.2-30.42-13.73l-1.82-.66c4.62-12.72,3.87-28.93-4-38.55,0-2.73,0-5.45.05-8.13h.22q21.69,29.32,43.34,58.68a14.23,14.23,0,0,1,2.89,5.38A6.94,6.94,0,0,1,537.42,405.2Z"/><path class="cls-2" d="M482,437.73c-4.25-3-8.72-5.7-13.14-8.37a9.8,9.8,0,0,0-3.38-1.48,62.09,62.09,0,0,0-.56-6.66c8.48-8,17.69-15.36,24.69-24.67a35.38,35.38,0,0,0,3.85-6.54v0a32.23,32.23,0,0,0,1.33-3.26l1.82.66c11.31-.47,20.86,7.67,30.42,13.73A45.31,45.31,0,0,0,537.41,406a18.35,18.35,0,0,1-1.82,6.22q-13.89,32-27.76,64.05a.87.87,0,0,1-1.67-.39c.29-9.17-3.82-18.47-9.83-25.59A73.46,73.46,0,0,0,482,437.73Z"/><path class="cls-3" d="M535.44,1026.49l.24.51a52.87,52.87,0,0,0-10.18,7c-3.21,2.59-6.44,5.2-9.63,7.8-1.77-.07-3.52,0-5.25.09-2.86.17-5.7.51-8.53.88,3.07-2.87,5.54-6.32,8.2-9.58.31-.39.61-.77.94-1.14,3.06-3.64,6.66-7,11.18-8.55a13.69,13.69,0,0,1,4.84-.69A10.73,10.73,0,0,1,535.44,1026.49Z"/><path class="cls-1" d="M535,1066.72l.06.46a53.44,53.44,0,0,1-8.2,22,7,7,0,0,1-4.57.73c-1.87-.56-3-2.46-3.86-4.21l-3.67-7.14c3.62-3.26,7.19-6.57,11.25-10.46Z"/><path class="cls-4" d="M533.23,107c1.43,12.3,1.15,32.23-.26,44.53-1.8,15.62-2.37,24.69-9.24,38.82a20.76,20.76,0,0,0-1.73,2.23c0-1.07.08-2.23.1-3.48-8.38-22.07-8.31-47.76-22.31-66.77-4.5-6.14-10.38-11.39-13.52-18.32-4.4-9.68-2.16-20.66-.93-32.21a1.75,1.75,0,0,0,0-.24c1.32-9.26,1.32-18.94,1.92-28.1v-2c1.21,3.62,6,3.9,9.68,5,6.73,2.13,10.81,8.8,14.1,15.06C519.06,76.62,531.24,90,533.23,107Z"/><path class="cls-3" d="M472.88,1023c-.68-6-2-12.43-6.71-16.07-2.17-1.68-4.89-2.56-7.13-4.18a13.45,13.45,0,0,1-5.42-8.65c-.45-2.6-.24-5.59-2.11-7.44a7.47,7.47,0,0,0-2.77-1.54c0-.43-.09-.84-.12-1.24a337.65,337.65,0,0,0,35,13.67q7.64,2.52,15.4,4.66l.38.1q9.81,2.7,19.76,4.81l.3-.19a88.41,88.41,0,0,1,7.82,15.7v.12a13.69,13.69,0,0,0-4.84.69c-4.52,1.5-8.12,4.91-11.18,8.55-.33.37-.63.75-.94,1.14v0c-6.58-.41-12.56,5.27-16.57,10.77a88.68,88.68,0,0,1-16.67,1,74.45,74.45,0,0,1-7.59-.9,38.63,38.63,0,0,1,.75-20.68Z"/><path class="cls-3" d="M522,192.56c-.43,9.65-1.72,13.06-2.92,24.16A418.87,418.87,0,0,1,512.47,260c-3.67,17-9,33.44-17.33,48.63-1.21,2.19-2.41,4.36-3.65,6.52-14.14,24.64-30.6,46.38-53.57,55.73,48-80.63,64-187.33,40.5-278a37.19,37.19,0,0,0,4-8.68,68,68,0,0,0,2.93-12.35c-1.23,11.55-3.47,22.53.93,32.21,3.14,6.93,9,12.18,13.52,18.32,14,19,13.93,44.7,22.31,66.77C522.08,190.33,522,191.49,522,192.56Z"/><path class="cls-1" d="M518.23,1005l1.2,2-.3.19q-9.94-2.11-19.76-4.81l0-.12c-.35-2.94,2.09-5.74,5-6.4a10,10,0,0,1,8.27,2.31A26.63,26.63,0,0,1,518.23,1005Z"/><path class="cls-3" d="M510.28,1033.13v0c-2.66,3.26-5.13,6.71-8.2,9.58-2.79.37-5.58.78-8.38,1.17C497.72,1038.4,503.7,1032.72,510.28,1033.13Z"/><path class="cls-2" d="M505.06,1295.4v.59H468.35a1064.81,1064.81,0,0,0-4.42-198.86,66.57,66.57,0,0,0,17,1.09c7.31-.68,12.44-.46,17-6.24C507.18,1167.91,498,1214.24,505.06,1295.4Z"/><path class="cls-5" d="M492,1092.2c2,0,4,.34,5.89-.22-4.52,5.78-9.65,5.56-17,6.24a66.57,66.57,0,0,1-17-1.09c-1.62-.27-3.21-.56-4.81-.85q-11.44-2.05-22.85-4.18l.56-3C455.11,1092.27,473.07,1092.37,492,1092.2Z"/><path class="cls-1" d="M490.81,348.18c7.86,9.62,8.61,25.83,4,38.55a32.23,32.23,0,0,1-1.33,3.26C491.47,376.93,490.84,362.49,490.81,348.18Z"/><path class="cls-3" d="M490.81,348.18c0,14.31.66,28.75,2.66,41.81v0a35.38,35.38,0,0,1-3.85,6.54c-7,9.31-16.21,16.65-24.69,24.67-2.5-18.84-13.05-36.65-28.78-47.42.6-1,1.19-2,1.75-2.95h0c23-9.35,39.43-31.09,53.57-55.73l.06,0c-.3,7.93-.59,16.32-.69,24.89C490.82,342.73,490.81,345.45,490.81,348.18Z"/><path class="cls-2" d="M465.49,427.88a9.8,9.8,0,0,1,3.38,1.48c4.42,2.67,8.89,5.38,13.14,8.37-12.88,14.55-3.4,82.49-1.4,121.53,5.88,114.1,18.52,219.54,10.91,330.74-1.65,24.1-12.37,56.67-10.74,80.76.61,9,1.46,16.28,3,26.13l-.22.68a337.65,337.65,0,0,1-35-13.67c-1.41-14.63-2.14-27.27-1.15-42,1.71-25.61,8.07-50.67,11.67-76.08,6.76-47.74,3.82-96.26.86-144.4q-6.57-107.13-13.16-214.28l-2-33.29c-.61-9.8-1.16-19.94,2.33-29.12a36.86,36.86,0,0,1,2.49-5.28l.31.17,10.41-9.4c1.19-1.07,2.5-2.19,4.08-2.34A3.85,3.85,0,0,1,465.49,427.88Z"/><path class="cls-6" d="M315.05,114.83c-11.26,23.62-12.69,50.26-11.26,75.5h-.09c-4.16-4.72-6.4-10.78-8.41-16.75-7.1-21.15-12.32-43.32-11-65.59s9.84-44.81,26.57-59.55l-7.15-.27,31.89-25.56c6.37-5.09,12.84-10.26,20.32-13.55C365.13,5,375.36,4,385.4,3c9.57-.92,19.15-1.82,28.77-2.1,8.42-.26,17,0,25.07,2.25,20.48,5.8,34.95,23.5,48.05,40.25-.6,9.16-.6,18.84-1.92,28.1a1.75,1.75,0,0,1,0,.24,68,68,0,0,1-2.93,12.35,37.19,37.19,0,0,1-4,8.68,18.21,18.21,0,0,1-2.75,3.25c-2.94,2.7-6.76,4.14-10.52,5.47A373.81,373.81,0,0,1,344.42,122.9c-5,0-10.19-.05-14.71-2.16a11.85,11.85,0,0,0,5.69-4.82A33.79,33.79,0,0,1,315.05,114.83Z"/><path class="cls-5" d="M303.89,191.93c-.05-.53-.07-1.07-.1-1.6-1.43-25.24,0-51.88,11.26-75.5a33.79,33.79,0,0,0,20.35,1.09,11.85,11.85,0,0,1-5.69,4.82c4.52,2.11,9.7,2.2,14.71,2.16a373.81,373.81,0,0,0,120.73-21.37c3.76-1.33,7.58-2.77,10.52-5.47a18.21,18.21,0,0,0,2.75-3.25c23.53,90.71,7.54,197.41-40.5,278h0a66.62,66.62,0,0,1-25.31,4.84c-35.24,0-57.77-25.06-76.1-55.78-2.21-3.7-4.35-7.47-6.46-11.31-8.3-15.12-13.6-31.53-17.27-48.42a415.34,415.34,0,0,1-6.66-43.46C305.23,208.73,304.4,200.43,303.89,191.93Z"/><path class="cls-5" d="M413.45,1027.8c.26-2,.46-4.1.65-6.15.64-7.12,1-14.24,1-21.36a404.62,404.62,0,0,0-2.44-45.87,12.9,12.9,0,0,1,1.39.81c4.61,3.16,6.42,9.52,11.35,12.17,3.5,1.89,8.09,1.6,11,4.3,2,1.87,2.7,4.72,4.08,7.1a.62.62,0,0,0,.12.19c.08.15.19.28.27.42a13.54,13.54,0,0,0,6.18,5.11c.55.23,1.11.41,1.67.62a7.47,7.47,0,0,1,2.77,1.54c1.87,1.85,1.66,4.84,2.11,7.44a13.45,13.45,0,0,0,5.42,8.65c2.24,1.62,5,2.5,7.13,4.18,4.74,3.64,6,10,6.71,16.07l-2.68.29a38.63,38.63,0,0,0-.75,20.68c-3.57-.56-7.14-1.26-10.72-1.68-2.41-.29-4.84-.48-7.27-.53-7.7,1.48-14.56,6.56-20.32,12.08-6.75,6.45-12.78,13.88-20.83,18.62a31.4,31.4,0,0,1-5.45,2.53C408.39,1059.36,411.63,1043.7,413.45,1027.8Z"/><path class="cls-7" d="M463.93,1097.13A1064.81,1064.81,0,0,1,468.35,1296H391.89c-5.18-55.59-8.17-111.53,1.23-166.41,2.54-14.88,6-29.61,9.39-44.32,11.2,2.49,22.48,4.72,33.76,6.84q11.42,2.14,22.85,4.18C460.72,1096.57,462.31,1096.86,463.93,1097.13Z"/><path class="cls-2" d="M465.49,427.88a3.85,3.85,0,0,0-1.07-.05c-1.58.15-2.89,1.27-4.08,2.34l-10.41,9.4-.31-.17a56.21,56.21,0,0,1,6.27-8.8,121.25,121.25,0,0,1,9-9.38A62.09,62.09,0,0,1,465.49,427.88Z"/><path class="cls-7" d="M440.62,979a.62.62,0,0,1-.12-.19c-1.38-2.38-2.06-5.23-4.08-7.1-2.9-2.7-7.49-2.41-11-4.3-4.93-2.65-6.74-9-11.35-12.17a12.9,12.9,0,0,0-1.39-.81c-3.13-30.12-8.43-60.23-11.25-90.38-10.82-116.3,15.1-236.8-3.77-350.41,12.08,3.39,29.75,4.58,49.17-6.54Q453.41,614.22,460,721.37c3,48.14,5.9,96.66-.86,144.4-3.6,25.41-10,50.47-11.67,76.08-1,14.78-.26,27.42,1.15,42-1.36-.62-2.7-1.24-4.06-1.89a9.3,9.3,0,0,1-3.67-2.6C440.81,979.27,440.7,979.14,440.62,979Z"/><path class="cls-5" d="M337.27,348.27c0-2.74,0-5.49-.12-8.22-.15-6.68-.4-13.39-.66-20.14,18.33,30.72,40.86,55.78,76.1,55.78a66.62,66.62,0,0,0,25.31-4.84c-.56,1-1.15,2-1.75,2.95,15.73,10.77,26.28,28.58,28.78,47.42a121.25,121.25,0,0,0-9,9.38,56.21,56.21,0,0,0-6.27,8.8,36.86,36.86,0,0,0-2.49,5.28c-3.49,9.18-2.94,19.32-2.33,29.12-24.84,14.22-44.87,8.65-54.74,3.95q-2.91-11.07-6.51-22h0A42.94,42.94,0,0,0,381,444.68a38,38,0,0,0-2.5-5.28,56.21,56.21,0,0,0-6.27-8.8c-10.35-12.2-24.11-21.27-33.72-34.05a35.41,35.41,0,0,1-3.86-6.54v0A263.33,263.33,0,0,0,337.27,348.27Z"/><path class="cls-7" d="M444.8,473.8l2,33.29c-19.42,11.12-37.09,9.93-49.17,6.54-2-12.05-4.5-24-7.61-35.88C399.93,482.45,420,488,444.8,473.8Z"/><path class="cls-5" d="M328.47,1071.66c-1.29-4.36-2.56-8.8-3.45-13.27h0a54.33,54.33,0,0,1-1.14-13.75,55,55,0,0,1,1.38-9.1c.58-2.55,1.27-5.07,1.95-7.58q3.3-12,6.56-24c1.65-6,3.43-12.25,7.78-16.68,3-3.13,7.07-5.07,11-6.92L385,965a36,36,0,0,0,6.49-18l1,.1c2.25,3.23,6.43,4.42,10.32,5,3.34.53,6.88.83,9.87,2.33a404.62,404.62,0,0,1,2.44,45.87l-2.31,0c-14.66,8.14-29.74,16.63-40.11,29.85a104.85,104.85,0,0,0-11.33,19.06A320.6,320.6,0,0,0,345.1,1089a10.82,10.82,0,0,0-.69,4.32c-4.81,2.56-9.81,3.78-14,1.86a10.9,10.9,0,0,1-3.82-3c-3.72-4.37-1.84-11,.22-16.35Z"/><path class="cls-5" d="M412.82,1000.31l2.31,0c-.06,7.12-.39,14.24-1,21.36-.19,2.05-.39,4.11-.65,6.15-14.91,10.43-20.93,20.83-30.49,41.6a2.79,2.79,0,0,0-.19,2,3.29,3.29,0,0,0,1.21,1.51,50.62,50.62,0,0,1-3.67,6.93c-4.32,6.83-10,12-16.87,14.78a31.25,31.25,0,0,1-14.31,2.23,5.75,5.75,0,0,1-3.65-1.21,3.54,3.54,0,0,1-1.07-2.27,10.82,10.82,0,0,1,.69-4.32,320.6,320.6,0,0,1,16.28-39.79,104.85,104.85,0,0,1,11.33-19.06C383.08,1016.94,398.16,1008.45,412.82,1000.31Z"/><path class="cls-8" d="M412.69,954.42c-3-1.5-6.53-1.8-9.87-2.33-3.89-.59-8.07-1.78-10.32-5l-1-.1a33.41,33.41,0,0,0-3-17.3c-1-2-2.58-4.21-4.84-4.19-1.87,0-3.33,1.47-4.62,2.8-1.72-25.6-6.47-37.11-10.07-62.52-6.77-47.74-3.83-96.26-.87-144.4q6.6-107.46,13.2-215a57.43,57.43,0,0,0,16.31,7.22c18.87,113.61-7.05,234.11,3.77,350.41C404.26,894.19,409.56,924.3,412.69,954.42Z"/><path class="cls-5" d="M413.45,1027.8c-1.82,15.9-5.06,31.56-8.59,47.21-7.09,2.5-15.12,2.43-20.88-2.14a3.29,3.29,0,0,1-1.21-1.51,2.79,2.79,0,0,1,.19-2C392.52,1048.63,398.54,1038.23,413.45,1027.8Z"/><path class="cls-3" d="M404.86,1075c-.77,3.42-1.57,6.83-2.35,10.25-7.41-1.67-14.78-3.45-22.12-5.41l-.08,0a50.62,50.62,0,0,0,3.67-6.93C389.74,1077.44,397.77,1077.51,404.86,1075Z"/><path class="cls-8" d="M402.51,1085.26c-3.41,14.71-6.85,29.44-9.39,44.32-9.4,54.88-6.41,110.82-1.23,166.41H359.82c-4.35-64.29.54-150,3.62-201.41,6.83-2.77,12.55-7.95,16.87-14.78l.08,0C387.73,1081.81,395.1,1083.59,402.51,1085.26Z"/><path class="cls-5" d="M325.06,985.36l9.85-24.64A27,27,0,0,1,339,953a17.64,17.64,0,0,1,5.2-4,85.07,85.07,0,0,1,9.19-3.76,72.22,72.22,0,0,0,17.59-9.8,71.42,71.42,0,0,0,8.1-7.15c1.29-1.33,2.75-2.8,4.62-2.8,2.26,0,3.86,2.15,4.84,4.19a33.41,33.41,0,0,1,3,17.3A36,36,0,0,1,385,965l-32.47,15.34c-3.94,1.85-8,3.79-11,6.92-4.35,4.43-6.13,10.7-7.78,16.68q-3.25,12-6.56,24c-.68,2.51-1.37,5-1.95,7.58l-.76-.17c-16.14,6.4-37.94,2.87-52.84-7.48.86-7.59,2.14-15.19,3.43-22.68,1.21-7,2.45-14.15,5.52-20.59a33.89,33.89,0,0,1,3.08-5.22h0a83.71,83.71,0,0,0,41.34,6Z"/><path class="cls-8" d="M390.06,477.75c3.11,11.87,5.6,23.83,7.61,35.88a57.43,57.43,0,0,1-16.31-7.22c.66-10.88,1.34-21.73,2-32.61A38,38,0,0,0,390.06,477.75Z"/><path class="cls-3" d="M383.55,455.73q3.61,10.95,6.51,22a38,38,0,0,1-6.7-3.95,114.81,114.81,0,0,0,.16-18.07Z"/><path class="cls-2" d="M383.52,455.73a114.81,114.81,0,0,1-.16,18.07c-.66,10.88-1.34,21.73-2,32.61q-6.6,107.46-13.2,215c-3,48.14-5.9,96.66.87,144.4,3.6,25.41,8.35,36.92,10.07,62.52a71.42,71.42,0,0,1-8.1,7.15l-.21-.27-31.11-23.38a165.17,165.17,0,0,1-3-21.79c-7.61-111.2,5-216.64,10.91-330.74,2-39,9.62-110.72-1.39-121.53,4.24-3,8.71-5.7,13.13-8.37,1.38-.82,2.85-1.67,4.45-1.53s2.89,1.27,4.08,2.34l10.41,9.4.31-.17a38,38,0,0,1,2.5,5.28A42.94,42.94,0,0,1,383.52,455.73Z"/><path class="cls-2" d="M290.81,406.81a8.44,8.44,0,0,1,.05-2.7,14.07,14.07,0,0,1,2.88-5.38q21.67-29.36,43.34-58.68h.07c.07,2.73.1,5.48.12,8.22-8.48,10.48-8.58,28.66-2.58,41.72v0a35.41,35.41,0,0,0,3.86,6.54c9.61,12.78,23.37,21.85,33.72,34.05a56.21,56.21,0,0,1,6.27,8.8l-.31.17-10.41-9.4c-1.19-1.07-2.5-2.19-4.08-2.34s-3.07.71-4.45,1.53c-4.42,2.67-8.89,5.38-13.13,8.37a72.89,72.89,0,0,0-14.32,12.59c-6,7.12-10.13,16.42-9.84,25.59a.87.87,0,0,1-1.67.39q-13.89-32-27.76-64.05A21.1,21.1,0,0,1,290.81,406.81Z"/><path class="cls-5" d="M370.79,935.17l.21.27a72.22,72.22,0,0,1-17.59,9.8,85.07,85.07,0,0,0-9.19,3.76c-9.53-6.58-18.77-17.36-16.8-28.78A18.77,18.77,0,0,1,332.21,910a3.54,3.54,0,0,1,2.73-1.31,4.22,4.22,0,0,1,1.86.94l2.88,2.17Z"/><path class="cls-2" d="M359.82,1296H323.1v-.59c7-80.94-1.83-124.65,7.34-200.21,4.16,1.92,9.16.7,14-1.86a3.54,3.54,0,0,0,1.07,2.27,5.75,5.75,0,0,0,3.65,1.21,31.25,31.25,0,0,0,14.31-2.23C360.36,1146,355.47,1231.7,359.82,1296Z"/><path class="cls-2" d="M237.7,954.81s-52.18,31.89-22.16,101.9c-37.37.7-75.89-5.3-108.42-18.65-4.66-1.92-9.35-4-14.34-4.55-6.19-.72-12.37.91-18.39,2.54l-10,2.71c-1.9-.34-3.79-.7-5.66-1.14C28.37,1030.5,4.38,1002,2.56,970.85c-1-17,4-34.2.65-50.89-.77-3.87-2-7.69-2.28-11.65a51.69,51.69,0,0,1,1-12.39l4.29-25.41c1-6.14,2.14-12.46,5.47-17.72,2.41-3.82,5.87-6.88,8.66-10.45,8.8-11.25,10.21-26.49,10.31-40.78l-1.17-.17c15-108.54,26.81-196.78,69.1-289.29,5.74-12.56,12.09-25.25,22.32-34.51,8-7.25,18-12,27.8-16.48,47.13-21.59,92.83-38.05,142.05-54.3a21.1,21.1,0,0,0,1.76,5.44q13.89,32,27.76,64.05a.87.87,0,0,0,1.67-.39c-.29-9.17,3.82-18.47,9.84-25.59a72.89,72.89,0,0,1,14.32-12.59c11,10.81,3.41,82.49,1.39,121.53C341.67,673.36,329,778.8,336.64,890a165.17,165.17,0,0,0,3,21.79l-2.88-2.17a4.22,4.22,0,0,0-1.86-.94,3.54,3.54,0,0,0-2.73,1.31,18.77,18.77,0,0,0-4.79,10.23c-2,11.42,7.27,22.2,16.8,28.78a17.64,17.64,0,0,0-5.2,4,27,27,0,0,0-4.11,7.71l-9.85,24.64h0a82.9,82.9,0,0,1-22.14-.53c-4.53-1.89-4-9.53-7.12-14.66a8.39,8.39,0,0,0-.93-1.36c-1.7-2.06-4.18-3.26-6.61-4.32a104.08,104.08,0,0,0-28.58-7.71A102.52,102.52,0,0,0,244.9,956C242.42,956.1,239.77,956.19,237.7,954.81ZM118.41,921.29c3.69-.8,7.36-1.5,11-2.16,4.11-.76,8.33-1.51,12.44-.83a20.33,20.33,0,0,1,4,1.1l.37-1c-1.12-14.92-2.44-29.85-3.77-44.77-4.18-46.58-8.51-93.15-7.52-139.62h0Q133,799.1,125.8,863.92,122.65,892.66,118.41,921.29Z"/><path class="cls-1" d="M337.27,348.27A263.33,263.33,0,0,1,334.69,390C328.69,376.93,328.79,358.75,337.27,348.27Z"/><path class="cls-2" d="M328.47,1071.66l-1.63,4.23c-2.06,5.36-3.94,12-.22,16.35a10.9,10.9,0,0,0,3.82,3c-9.17,75.56-.3,119.27-7.34,200.21v.59H125.38c-10.11-79.19,10.89-149.93,19.72-229.47,8.4-.73,16.3-4.71,24.72-5.17,16.77-.93,36.87,15.21,50.34,5.17,0,0,46.16,7.13,57.33,9.26a5.35,5.35,0,0,0,3.82-1.36c7.08-5.08,12.45-14.7,15.07-23a124.4,124.4,0,0,1,28.64,7h0C325.91,1062.86,327.18,1067.3,328.47,1071.66Z"/><path class="cls-3" d="M324.5,1035.36l.76.17a55,55,0,0,0-1.38,9.1,54.33,54.33,0,0,0,1.14,13.75,124.4,124.4,0,0,0-28.64-7,130.85,130.85,0,0,0-25.72-.86h0a145.05,145.05,0,0,1,1-22.67C286.56,1038.23,308.36,1041.76,324.5,1035.36Z"/><path class="cls-5" d="M312.76,260.18c-5.39.3-10.52-2.94-13.82-7.22s-5.2-9.69-6.95-14.9q-3.63-10.76-7.28-21.53c-2.86-8.41-5.75-17.24-4.37-26a10.08,10.08,0,0,1,2-5.1c2.51-2.92,7.13-2.82,10.79-1.53a22.92,22.92,0,0,1,10.77,8c.51,8.5,1.34,16.8,2.21,24.79A415.34,415.34,0,0,0,312.76,260.18Z"/><path class="cls-1" d="M295.78,970.17c3.1,5.13,2.59,12.77,7.12,14.66a83.25,83.25,0,0,1-19.2-5.44,24,24,0,0,1,11.93-9.14Z"/><path class="cls-2" d="M271.66,1027.88a145.05,145.05,0,0,0-1,22.67,291.76,291.76,0,0,1-55.1,6.16c-30-70,22.16-101.9,22.16-101.9,2.07,1.38,4.72,1.29,7.2,1.22a102.52,102.52,0,0,1,14.76.75,104.08,104.08,0,0,1,28.58,7.71c2.43,1.06,4.91,2.26,6.61,4.32a8.39,8.39,0,0,1,.93,1.36l-.15.08a24,24,0,0,0-11.93,9.14h0a33.89,33.89,0,0,0-3.08,5.22c-3.07,6.44-4.31,13.56-5.52,20.59C273.8,1012.69,272.52,1020.29,271.66,1027.88Z"/><path class="cls-1" d="M296.38,1051.41c-2.62,8.31-8,17.93-15.07,23a5.35,5.35,0,0,1-3.82,1.36c-2-.34-2.94-2.54-3.52-4.46a85.27,85.27,0,0,1-3.33-20.77h0A130.85,130.85,0,0,1,296.38,1051.41Z"/><path class="cls-1" d="M274,1071.32c.58,1.92,1.54,4.12,3.52,4.46-11.17-2.13-57.33-9.26-57.33-9.26-1.71-3.35-3.26-6.63-4.62-9.81a291.76,291.76,0,0,0,55.1-6.16A85.27,85.27,0,0,0,274,1071.32Z"/><path class="cls-1" d="M215.54,1056.71c1.36,3.18,2.91,6.46,4.62,9.81-13.47,10-33.57-6.1-50.34-5.17-8.42.46-16.32,4.44-24.72,5.17-21.67,1.88-39.07-17.32-59.87-23.76-6.76-2.1-13.86-2.8-20.86-4l10-2.71c6-1.63,12.2-3.26,18.39-2.54,5,.56,9.68,2.63,14.34,4.55C139.65,1051.41,178.17,1057.41,215.54,1056.71Z"/><path class="cls-1" d="M146.17,918.37l-.37,1a20.33,20.33,0,0,0-4-1.1c-4.11-.68-8.33.07-12.44.83-3.6.66-7.27,1.36-11,2.16q4.26-28.62,7.39-57.37A137.26,137.26,0,0,0,141,873.74l1.44-.14C143.73,888.52,145.05,903.45,146.17,918.37Z"/><path class="cls-1" d="M142.4,873.6l-1.44.14a137.26,137.26,0,0,1-15.16-9.82Q133,799.17,134.86,734h0C133.89,780.45,138.22,827,142.4,873.6Z"/><path class="cls-9" d="M312,261.05c-4.95,0-10.06-2.79-13.74-7.57-3.53-4.57-5.42-10.19-7.08-15.15q-3.65-10.76-7.29-21.53c-2.74-8.07-5.84-17.22-4.4-26.41a11,11,0,0,1,2.18-5.52c2.88-3.35,7.94-3.11,11.72-1.78a23.66,23.66,0,0,1,11.17,8.34,8.51,8.51,0,0,1,.64.87l-1.43.92a8,8,0,0,0-.55-.75,22,22,0,0,0-10.4-7.77c-3.09-1.1-7.54-1.42-9.86,1.28a9.37,9.37,0,0,0-1.79,4.67c-1.38,8.78,1.65,17.72,4.33,25.61q3.64,10.78,7.29,21.53c1.62,4.83,3.46,10.31,6.82,14.65,3.47,4.51,8.47,7.15,13.09,6.89h.2l.27,1.68-.42,0Z"/><path class="cls-9" d="M514.25,261.05c-.34,0-.68,0-1,0l.14-1.7c4.67.37,9.8-2.25,13.36-6.87,3.29-4.26,5.08-9.54,6.82-14.65q3.65-10.75,7.28-21.53c2.68-7.89,5.71-16.82,4.34-25.61a9.26,9.26,0,0,0-1.8-4.68c-2.32-2.7-6.76-2.37-9.86-1.27a22,22,0,0,0-9.14,6.2A19.88,19.88,0,0,0,522.7,193l-.18.25-1.35-1,.15-.2a19.76,19.76,0,0,1,1.78-2.29,23.9,23.9,0,0,1,9.84-6.67c3.78-1.33,8.84-1.57,11.72,1.78a11.18,11.18,0,0,1,2.18,5.52c1.45,9.2-1.66,18.34-4.4,26.42l-7.29,21.52c-1.77,5.24-3.61,10.66-7.08,15.15C524.42,258.22,519.21,261.05,514.25,261.05Z"/><path class="cls-9" d="M523.73,191.18a.83.83,0,0,1-.37-.08A.85.85,0,0,1,523,190c6.26-12.89,7.25-21.68,8.76-35l.4-3.56c1.48-12.9,1.59-32.79.26-44.33-1.38-11.72-7.58-21.53-14.14-31.91-2.72-4.3-5.53-8.74-7.93-13.29-3.16-6-7.09-12.58-13.6-14.64-.75-.23-1.55-.43-2.39-.64-2.26-.55-4.73-1.16-6.36-2.65a.9.9,0,0,1-.41.3.86.86,0,0,1-.94-.28C472.07,25.36,458.45,9.51,439,4c-8.38-2.37-17.24-2.45-24.82-2.23-9.88.3-19.88,1.26-28.71,2.11-9.87.93-20.08,1.9-29.23,5.94-7.41,3.27-13.88,8.45-20.13,13.45L309.71,44.44l-3.7,3,1.22.05,3.65.14a.83.83,0,0,1,.77.56.84.84,0,0,1-.24.93c-15.27,13.46-24.85,35-26.28,59-1.11,18.93,2.37,39.67,11,65.27,2,6.06,4.19,11.88,8.24,16.46a.85.85,0,0,1-1.28,1.13c-4.25-4.82-6.56-11.07-8.58-17.05-8.66-25.81-12.17-46.75-11.05-65.91C284.84,84.3,294,63,308.74,49.21l-1.58-.06L303.67,49a.85.85,0,0,1-.5-1.51l5.48-4.39L335.06,22C341.4,16.88,348,11.64,355.57,8.28,365,4.12,375.31,3.14,385.32,2.2c8.85-.85,18.89-1.82,28.82-2.11,7.7-.24,16.73-.15,25.33,2.29,19.28,5.45,32.83,20.65,47,38.68a.86.86,0,0,1,.65-.51.85.85,0,0,1,.94.57c.81,2.4,3.64,3.1,6.64,3.83.83.21,1.7.42,2.5.67,7.13,2.25,11.27,9.17,14.6,15.47,2.36,4.49,5.16,8.91,7.86,13.17,6.37,10.09,13,20.52,14.38,32.62,1.35,11.66,1.24,31.72-.25,44.73l-.41,3.55c-1.52,13.48-2.52,22.39-8.92,35.54A.82.82,0,0,1,523.73,191.18Z"/><path class="cls-9" d="M485.37,72.39h-.12a.84.84,0,0,1-.72-1c.9-6.3,1.19-12.88,1.46-19.24.13-2.9.26-5.9.45-8.79a.85.85,0,1,1,1.7.11c-.19,2.87-.32,5.87-.45,8.76-.28,6.4-.57,13-1.48,19.4A.84.84,0,0,1,485.37,72.39Z"/><path class="cls-9" d="M343.25,123.76c-4.92,0-9.67-.27-13.9-2.25a.85.85,0,0,1-.49-.79.83.83,0,0,1,.54-.76,11,11,0,0,0,3.92-2.7,35,35,0,0,1-18.57-1.63,33.61,33.61,0,0,1-10-5.73.86.86,0,0,1-.16-1.13A86.24,86.24,0,0,1,315.8,95.28a.85.85,0,0,1,1.2,0,.86.86,0,0,1,0,1.21,83.66,83.66,0,0,0-10.55,12.58,32.12,32.12,0,0,0,8.9,5,33.16,33.16,0,0,0,19.85,1.06.83.83,0,0,1,.89.31.85.85,0,0,1,.05,1,12.87,12.87,0,0,1-4.35,4.3c3.85,1.33,8.18,1.43,12.64,1.39a371.39,371.39,0,0,0,120.45-21.32c4-1.4,7.47-2.76,10.22-5.3a17.11,17.11,0,0,0,2.63-3.09,37.59,37.59,0,0,0,3.89-8.48,67.72,67.72,0,0,0,2.89-12.2.84.84,0,0,1,1-.72.86.86,0,0,1,.72,1,69,69,0,0,1-3,12.5,39.13,39.13,0,0,1-4.09,8.88,19,19,0,0,1-2.89,3.39c-3,2.75-6.81,4.24-10.81,5.65a373,373,0,0,1-121,21.42Z"/><path class="cls-9" d="M412.59,376.54c-38.37,0-61.22-30-76.83-56.19-2.1-3.52-4.21-7.23-6.47-11.34-7.56-13.76-13.24-29.68-17.36-48.65a420.7,420.7,0,0,1-6.68-43.55c-.84-7.74-1.69-16.11-2.21-24.83,0-.32-.05-.69-.07-1l0-.54c-1.13-20-1.19-49.65,11.34-75.92.06-.14.15-.34.25-.53l1.52.76a4.54,4.54,0,0,0-.21.45c-12.39,26-12.33,55.32-11.21,75.14l0,.55c0,.34,0,.68.06,1,.53,8.71,1.37,17.06,2.21,24.78A416.37,416.37,0,0,0,313.59,260c4.08,18.81,9.71,34.57,17.19,48.19,2.25,4.1,4.35,7.79,6.44,11.29,29.28,49.07,55.66,55.36,75.37,55.36a66.27,66.27,0,0,0,25-4.78l.64,1.57A67.85,67.85,0,0,1,412.59,376.54Z"/><path class="cls-9" d="M438.24,371.63l-.64-1.57C462.32,360,479,335.19,490.75,314.7c1.3-2.26,2.57-4.56,3.64-6.51,7.53-13.73,13.17-29.56,17.25-48.4a424,424,0,0,0,6.59-43.16c.5-4.58,1-7.89,1.47-10.8a105.66,105.66,0,0,0,1.45-13.31l0-.86c0-.77.05-1.58.07-2.43-3.11-8.25-5.09-17.09-7-25.63-3.19-14.27-6.48-29-15.15-40.79-1.51-2-3.2-4-4.84-6-3.27-3.83-6.64-7.8-8.77-12.5-3.87-8.51-2.76-17.84-1.58-27.72.2-1.63.4-3.27.57-4.93l0-.11,1.71,0a2.21,2.21,0,0,1,0,.37c-.18,1.62-.37,3.27-.57,4.91-1.15,9.64-2.24,18.74,1.43,26.82,2,4.48,5.33,8.36,8.52,12.1,1.66,2,3.38,4,4.92,6.06,8.88,12.07,12.21,27,15.43,41.43,1.91,8.54,3.88,17.37,7,25.55l.06.15v.16c0,.93,0,1.8-.07,2.63l0,.87a107.43,107.43,0,0,1-1.47,13.5c-.45,2.9-1,6.18-1.46,10.72a425.67,425.67,0,0,1-6.62,43.34c-4.11,19-9.81,35-17.42,48.86-1.07,1.95-2.35,4.26-3.66,6.53C480.33,336.27,463.44,361.38,438.24,371.63Z"/><path class="cls-9" d="M493.47,390.84a.86.86,0,0,1-.84-.72c-1.76-11.48-2.63-25.2-2.67-41.93,0-2.75,0-5.47.05-8.16.1-8.66.39-17.09.69-24.91a.87.87,0,0,1,.89-.81.84.84,0,0,1,.81.88c-.3,7.81-.59,16.22-.69,24.86,0,2.69,0,5.4,0,8.13,0,16.65.9,30.29,2.65,41.69a.84.84,0,0,1-.71,1Z"/><path class="cls-9" d="M469.06,1298.1l-1.7-.13v-.1c.05-.64.1-1.28.13-1.92a1063,1063,0,0,0-4.42-198.72l1.69-.2a1064.53,1064.53,0,0,1,4.42,199c0,.64-.08,1.29-.13,1.94Z"/><path class="cls-9" d="M447.89,985.2c0-.21,0-.42-.06-.63s0-.4-.06-.6c-1.4-14.6-2.14-27.37-1.15-42.18,1.08-16.1,4-32.24,6.89-47.84,1.69-9.26,3.45-18.84,4.79-28.3,6.78-47.87,3.77-96.85.86-144.22q-3.3-53.58-6.59-107.15T446,507.14l-2-33.28c-.58-9.34-1.24-19.93,2.38-29.48a38.5,38.5,0,0,1,2.56-5.4,57.11,57.11,0,0,1,6.35-8.93,121.77,121.77,0,0,1,9.11-9.45c2.14-2,4.37-4,6.52-6,6.34-5.74,12.88-11.67,18.07-18.57a34.59,34.59,0,0,0,3.68-6.21h0l.08-.19a33.07,33.07,0,0,0,1.3-3.18c4.89-13.47,3.31-29-3.85-37.73l-.19-.23v-.31h.8l.61-.65.06.14,0,0C499,356.83,500.68,373,495.6,387c-.38,1.08-.81,2.15-1.29,3.18l-.06.17a36.72,36.72,0,0,1-3.95,6.69c-5.29,7-11.9,13-18.29,18.81-2.14,1.94-4.36,3.95-6.49,6a118.33,118.33,0,0,0-9,9.31,54.62,54.62,0,0,0-6.18,8.67,37.41,37.41,0,0,0-2.44,5.17c-3.49,9.2-2.85,19.59-2.27,28.76l2,33.28q3.29,53.58,6.58,107.15t6.58,107.14c2.92,47.46,5.93,96.53-.87,144.57-1.35,9.49-3.1,19.09-4.8,28.37-2.85,15.55-5.79,31.64-6.87,47.64-1,14.7-.24,27.39,1.16,41.92,0,.19,0,.38,0,.57s.05.45.07.68Z"/><path class="cls-9" d="M507.06,477.68a1.47,1.47,0,0,1-.36,0,1.74,1.74,0,0,1-1.39-1.75c.27-8.34-3.25-17.46-9.63-25a72.19,72.19,0,0,0-14.16-12.44c-4.1-2.88-8.35-5.48-13.09-8.34a9,9,0,0,0-3.07-1.37,2.79,2.79,0,0,0-.86,0c-1.27.12-2.37,1-3.59,2.13L450.5,440.2l-1.14-1.26,10.41-9.4c1.12-1,2.64-2.37,4.57-2.56a4.46,4.46,0,0,1,1.31.07,10.57,10.57,0,0,1,3.66,1.58c4.77,2.88,9,5.5,13.18,8.41A73.37,73.37,0,0,1,497,449.78c6.65,7.87,10.31,17.41,10,26.16l13.24-30.42,14.56-33.61a17.6,17.6,0,0,0,1.75-5.91,4.7,4.7,0,0,0,0-.75,6,6,0,0,0-.11-1,13.72,13.72,0,0,0-2.73-5L490.4,340.55l1.36-1q21.69,29.34,43.34,58.68a15.15,15.15,0,0,1,3,5.72,7.16,7.16,0,0,1,.13,1.26,4.21,4.21,0,0,1,0,.94,18.87,18.87,0,0,1-1.88,6.44l-27.76,64.06A1.68,1.68,0,0,1,507.06,477.68Z"/><path class="cls-9" d="M504.21,1295.47c-3.31-38.09-3-68.49-2.79-97.9.29-33.53.56-65.21-4.37-105.48l1.68-.21c4.95,40.39,4.67,72.11,4.39,105.71-.26,29.36-.52,59.73,2.79,97.74Z"/><path class="cls-9" d="M483,997c-1.58-9.93-2.43-17.28-3-26.21-1-14.33,2.39-31.58,5.63-48.26,2.29-11.73,4.44-22.8,5.11-32.62,5.61-81.94.28-159.81-5.36-242.25-2-28.72-4-58.41-5.55-88.39-.44-8.64-1.25-18.68-2.11-29.32-3.06-38.07-6.54-81.22,3.72-92.81l.65.55.62.58,0,0c-9.76,11-6.16,55.66-3.27,91.53.85,10.64,1.67,20.69,2.11,29.37,1.54,30,3.58,59.65,5.54,88.36,5.65,82.5,11,160.42,5.37,242.47-.68,9.93-2.85,21.06-5.14,32.83-3.22,16.58-6.56,33.71-5.6,47.83.6,8.87,1.45,16.17,3,26Z"/><path class="cls-9" d="M690.48,661c-12-57.29-22.64-118.12-9.34-176.63l1.66.38c-13.23,58.17-2.64,118.79,9.35,175.9Z"/><path class="cls-9" d="M585.15,963.41l-1.2-1.2c3.75-3.74,7.73-7.51,11.94-11.51,13.07-12.44,26.6-25.29,35.54-39l.85-1.3c3.52-5.45,7.52-11.64,14.08-13.13l.38,1.66c-5.89,1.34-9.52,7-13,12.39l-.85,1.31c-9.05,13.82-22.65,26.75-35.79,39.25C592.86,955.92,588.89,959.69,585.15,963.41Z"/><path class="cls-9" d="M610.44,1264.66l-.36-1.66a113.12,113.12,0,0,0,75.86-58l1.51.77a114.78,114.78,0,0,1-77,58.92Z"/><path class="cls-9" d="M642.11,1273.33c-1.37,0-2.73-.06-4.06-.17l.14-1.7a48,48,0,0,0,8.13,0,52.21,52.21,0,0,0,37.91-21.4l1.39,1a53.93,53.93,0,0,1-39.15,22.1C645,1273.27,643.55,1273.33,642.11,1273.33Z"/><path class="cls-9" d="M334.69,390.84h-.13a.85.85,0,0,1-.71-1,260.21,260.21,0,0,0,2.57-41.6c0-3.16-.06-5.77-.12-8.2-.15-6.59-.4-13.35-.65-19.87V320a.86.86,0,0,1,.82-.89h0a.86.86,0,0,1,.85.82v.25c.25,6.54.5,13.29.65,19.9.06,2.43.1,5.05.12,8.23a261.11,261.11,0,0,1-2.59,41.86A.86.86,0,0,1,334.69,390.84Z"/><path class="cls-9" d="M359.11,1298.1c-.06-.69-.11-1.38-.14-2.06-4.48-66.12.79-154.19,3.62-201.51l1.69.1c-2.82,47.28-8.08,135.28-3.62,201.31,0,.68.09,1.36.14,2Z"/><path class="cls-9" d="M378.25,928.35c-1-15.22-3.15-25.61-5.41-36.61-1.57-7.66-3.2-15.58-4.66-25.85-6.8-48-3.78-97.11-.87-144.57l13.2-215q.5-8.14,1-16.3t1-16.3a115,115,0,0,0,.15-17.94A41.14,41.14,0,0,0,380.24,445a35.72,35.72,0,0,0-2.44-5.17,54.62,54.62,0,0,0-6.18-8.67,165.91,165.91,0,0,0-15.44-15.26c-6.4-5.8-13-11.8-18.31-18.83a36.15,36.15,0,0,1-3.95-6.69l-.08-.19c-6.47-14.26-5.29-32.48,2.77-42.45l.16-.18,1.2,1.2-.6-.6.63.57-.13.15c-7.65,9.47-8.72,27-2.41,40.77l.08.19a34.51,34.51,0,0,0,3.69,6.21c5.19,6.9,11.75,12.84,18.09,18.59a166.84,166.84,0,0,1,15.6,15.42,56.76,56.76,0,0,1,6.36,8.93,38.38,38.38,0,0,1,2.55,5.4,42.88,42.88,0,0,1,2.53,11.26,116.08,116.08,0,0,1-.15,18.22q-.49,8.14-1,16.3t-1,16.3l-13.2,215c-2.91,47.37-5.92,96.36.86,144.22,1.44,10.22,3.07,18.12,4.63,25.75,2.27,11.05,4.42,21.5,5.45,36.83Z"/><path class="cls-9" d="M321.11,477.68a1.68,1.68,0,0,1-1.56-1.05l-27.76-64a22.64,22.64,0,0,1-1.83-5.66,9.25,9.25,0,0,1,.06-3,15.12,15.12,0,0,1,3-5.73q21.66-29.36,43.34-58.68l1.37,1q-21.69,29.34-43.34,58.68a13.53,13.53,0,0,0-2.74,5,7.5,7.5,0,0,0,0,2.42,20.41,20.41,0,0,0,1.7,5.21l27.76,64c-.24-8.77,3.42-18.31,10.08-26.18A73,73,0,0,1,345.67,437c4.15-2.92,8.42-5.54,13.18-8.41,1.37-.81,3.07-1.81,5-1.65s3.46,1.56,4.58,2.56l10.41,9.4-1.14,1.26-10.41-9.39c-1.21-1.1-2.32-2-3.59-2.13s-2.73.69-3.94,1.41c-4.72,2.85-9,5.45-13.07,8.34a72,72,0,0,0-14.17,12.44c-6.38,7.56-9.9,16.68-9.63,25a1.72,1.72,0,0,1-1.37,1.76A1.61,1.61,0,0,1,321.11,477.68Z"/><path class="cls-9" d="M324,1295.47l-1.69-.14c3.29-38,3.09-67.69,2.9-96.45-.22-32.73-.43-63.65,4.44-103.79,0-.08,0-.2,0-.32a1.15,1.15,0,0,0,0-.26l1.7.15c0,.11,0,.21,0,.32l0,.28c-4.87,40.07-4.66,70.93-4.43,103.61C327.05,1227.66,327.25,1257.44,324,1295.47Z"/><path class="cls-9" d="M338.85,912a165.64,165.64,0,0,1-3.05-21.9c-5.62-82-.29-160,5.36-242.46,2-28.72,4-58.41,5.54-88.37.38-7.36,1-15.89,1.58-24.91,2.5-36.92,5.94-87.47-2.72-96l1.18-1.22h0c9.21,9,5.88,58,3.21,97.29-.61,9-1.19,17.54-1.57,24.88-1.55,30-3.58,59.68-5.55,88.41-5.64,82.43-11,160.3-5.36,242.23a164.46,164.46,0,0,0,3,21.69Z"/><path class="cls-9" d="M137.68,661,136,660.6c12-57.11,22.57-117.73,9.34-175.9l1.66-.38C160.32,542.83,149.7,603.66,137.68,661Z"/><path class="cls-9" d="M682.84,908.78l-1.7-.13c1.35-17.88,3-35.37,4.57-52.27,5.14-54.67,10-106.31,4.32-163.34l1.69-.17c5.68,57.2.83,108.91-4.31,163.67C685.82,873.43,684.18,890.91,682.84,908.78Z"/><path class="cls-9" d="M703.53,1296.84H124.63l-.09-.74c-7.15-55.95,1.11-107.07,9.84-161.19,3.58-22.14,7.28-45.05,9.88-68.49l1.69.19c-2.61,23.48-6.31,46.41-9.89,68.58-8.68,53.75-16.88,104.53-9.93,160H702c7-55.68-1-105.46-9.39-158.16-3.78-23.63-7.69-48.06-10.27-73.54l1.69-.17c2.58,25.43,6.48,49.84,10.25,73.44,8.48,53.06,16.5,103.17,9.32,159.39Z"/><path class="cls-9" d="M145.33,918.43c-1.13-15-2.48-30.14-3.77-44.75l-.36-4c-4-44.51-8.13-90.54-7.17-135.73.32-14.59,1.11-28,2.41-41.09l1.69.17c-1.29,13-2.08,26.41-2.4,41-1,45.09,3.17,91.07,7.16,135.54l.36,4c1.3,14.63,2.64,29.75,3.77,44.78Z"/><path class="cls-9" d="M314.05,935.42a425.77,425.77,0,0,0-62.11-47.07l-5.82-3.58c-12.62-7.71-25.67-15.68-35.24-27.19-9.43-11.31-14.87-25.29-20.12-38.81-4.32-11.1-8.78-22.58-15.42-32.52l1.41-.94C183.5,795.4,188,807,192.34,818.15c5.21,13.39,10.59,27.24,19.85,38.34,9.39,11.29,22.32,19.19,34.81,26.83,2,1.2,3.91,2.39,5.84,3.59a427.78,427.78,0,0,1,62.36,47.26Z"/><path class="cls-9" d="M259.11,957.43c-13.65-11.64-24-18.08-39.36-26.56l.82-1.49c15.5,8.54,25.88,15,39.64,26.75Z"/><path class="cls-9" d="M30.28,802.25h-.74v-.66l-.85-.21v-.85h.12l.48-3.42c15-108.35,26.79-193.93,68.58-285.37C103.55,499.32,110,486.4,120.39,477c7.87-7.12,17.34-11.74,28-16.62,51.07-23.4,100.51-40.59,142.14-54.33l.27-.05v.88l.26.78c-41.58,13.72-91,30.9-142,54.26-10.54,4.83-19.89,9.39-27.58,16.34-10.18,9.22-16.51,22-22.12,34.23C57.72,603.66,45.91,689.13,31,797.34Z"/><path class="cls-9" d="M413,483.73a54.32,54.32,0,0,1-23.32-5.22,38.31,38.31,0,0,1-6.85-4l1.05-1.33a37.34,37.34,0,0,0,6.53,3.84c9.6,4.58,29.38,10.15,54-3.91l.84,1.47C433.17,481.44,422.23,483.73,413,483.73Z"/><path class="cls-9" d="M414.62,516.83a63.09,63.09,0,0,1-17.18-2.39,57.79,57.79,0,0,1-16.57-7.34l1-1.39a56.9,56.9,0,0,0,16,7.1c11.39,3.2,29.06,4.69,48.52-6.46l.84,1.47A64.88,64.88,0,0,1,414.62,516.83Z"/><path class="cls-9" d="M420.86,431.08A35.94,35.94,0,0,1,409,408.58l1.69-.2A34.23,34.23,0,0,0,422,429.81Z"/><path class="cls-9" d="M277.33,1076.61c-10.51-2-52.68-8.54-56.95-9.2-8.4,6-19.26,2.46-29.76-1-7-2.28-14.21-4.63-20.75-4.26a59.37,59.37,0,0,0-12.68,2.59,66.31,66.31,0,0,1-12,2.57c-13.61,1.17-25.73-5.87-37.45-12.69-7.3-4.25-14.84-8.65-22.75-11.09a103.84,103.84,0,0,0-15.17-3.1c-1.86-.28-3.73-.57-5.58-.89s-3.75-.68-5.71-1.15c-30.56-7.16-55-36.2-56.81-67.54-.41-7.17.23-14.46.84-21.51.85-9.67,1.73-19.68-.18-29.26-.24-1.25-.55-2.53-.84-3.76a51.51,51.51,0,0,1-1.45-8,52.13,52.13,0,0,1,1-12.49l4.3-25.51c1-5.88,2.12-12.55,5.59-18a48.6,48.6,0,0,1,5.24-6.49c1.17-1.3,2.39-2.64,3.47-4,8.76-11.19,10-26.63,10.13-40.26h1.7c-.1,13.92-1.42,29.7-10.49,41.29-1.12,1.44-2.36,2.8-3.56,4.12a46.66,46.66,0,0,0-5.06,6.26c-3.28,5.2-4.38,11.69-5.35,17.41L2.82,896.07a51.33,51.33,0,0,0-1,12.17A50.51,50.51,0,0,0,3.18,916c.3,1.25.61,2.55.86,3.83,2,9.82,1.06,20,.21,29.74-.62,7-1.25,14.22-.84,21.26,1.79,30.62,25.65,59,55.5,66,1.92.46,3.83.81,5.61,1.13s3.7.6,5.55.88A106.51,106.51,0,0,1,85.49,1042c8.08,2.51,15.72,7,23.09,11.25,12,7,23.39,13.61,36.45,12.47a64.39,64.39,0,0,0,11.7-2.52,61.55,61.55,0,0,1,13.05-2.65c6.85-.37,14.23,2,21.37,4.34,10.68,3.48,20.77,6.76,28.51,1l.28-.21.35.06c.47.07,46.31,7.16,57.36,9.26Z"/><path class="cls-9" d="M61.81,1007.84c-4.35-19-7.13-38.81,1.79-55.44,10.83-20.17,34.89-27.67,54.63-31.94,3.81-.83,7.53-1.53,11-2.16,3.92-.73,8.36-1.56,12.73-.84a20.46,20.46,0,0,1,4.15,1.15,52.42,52.42,0,0,1,7.77,3.86l20.18,11.46L193.62,945c4.94,2.8,11.07,6.26,17.4,5.89a41,41,0,0,0,7.76-1.55c5.51-1.47,11.21-3,15.53.79A16.21,16.21,0,0,1,236,952a10.7,10.7,0,0,0,2.15,2.11c1.83,1.22,4.28,1.15,6.65,1.09a102,102,0,0,1,14.95.75,104.75,104.75,0,0,1,28.81,7.77c2.38,1,5.08,2.33,6.92,4.56a9.59,9.59,0,0,1,1,1.48,26.62,26.62,0,0,1,2.58,6.91c.95,3.43,1.76,6.4,4.13,7.39l-.65,1.56c-3.14-1.3-4.1-4.8-5.11-8.5a26,26,0,0,0-2.41-6.5,8.22,8.22,0,0,0-.86-1.25c-1.61-2-4-3.09-6.3-4.09a103.12,103.12,0,0,0-28.34-7.65,101,101,0,0,0-14.64-.74c-2.57.07-5.41.15-7.69-1.36a12.29,12.29,0,0,1-2.5-2.43,15.3,15.3,0,0,0-1.54-1.65c-3.64-3.18-8.66-1.85-14-.43a43.08,43.08,0,0,1-8.09,1.61c-6.84.41-13.21-3.2-18.35-6.11L173.21,935.4,153,924a51.1,51.1,0,0,0-7.52-3.75,19,19,0,0,0-3.84-1.06c-4.07-.68-8.36.12-12.14.83-3.45.63-7.15,1.33-10.94,2.15-36.91,8-48,20.81-53.49,31.09-8.66,16.13-5.91,35.6-1.64,54.25Z"/><path class="cls-9" d="M284.39,979.89l-1.38-1a24.75,24.75,0,0,1,12.36-9.46l.52,1.62A23.11,23.11,0,0,0,284.39,979.89Z"/><path class="cls-9" d="M278,1076.67a3.66,3.66,0,0,1-.65-.06c-2.81-.48-3.85-3.91-4.18-5a85.42,85.42,0,0,1-3.37-21,145.72,145.72,0,0,1,1-22.79c.87-7.58,2.12-15.08,3.44-22.73,1.2-7,2.44-14.21,5.6-20.82A34.25,34.25,0,0,1,283,978.9l1.38,1a33.12,33.12,0,0,0-3,5.08c-3.06,6.4-4.28,13.51-5.45,20.37-1.32,7.63-2.57,15.1-3.43,22.64a143.58,143.58,0,0,0-1,22.53,84,84,0,0,0,3.29,20.57c.72,2.39,1.65,3.65,2.85,3.86a4.57,4.57,0,0,0,3.18-1.21c7.29-5.23,12.4-15.09,14.76-22.57l1.62.51c-2.44,7.74-7.77,18-15.39,23.44A6.79,6.79,0,0,1,278,1076.67Z"/><path class="cls-9" d="M219.41,1066.9c-1.73-3.36-3.29-6.67-4.65-9.85-8.63-20.14-15.67-50-.14-78a73.13,73.13,0,0,1,22.63-25l.89,1.45A71.28,71.28,0,0,0,216.06,980c-15.14,27.33-8.21,56.62.26,76.39,1.35,3.14,2.89,6.42,4.6,9.75Z"/><path class="cls-9" d="M146,1034.87c-3.07-13.23-5.87-28.8-3.4-44,2.67-16.24,11.51-29.79,23.65-36.25l.8,1.5c-11.68,6.21-20.19,19.31-22.77,35-2.42,14.88.34,30.25,3.37,43.32Z"/><path class="cls-9" d="M140.54,874.48a138.86,138.86,0,0,1-15.24-9.88,150.29,150.29,0,0,1-42.41-49.54,146.3,146.3,0,0,1-17.35-62.82l1.7-.06a144.42,144.42,0,0,0,17.15,62.08,148.42,148.42,0,0,0,41.92,49A135.08,135.08,0,0,0,141.37,873Z"/><path class="cls-9" d="M31.8,945.87l-1.63-.46a76.89,76.89,0,0,1,91.8-54l-.39,1.65A75.19,75.19,0,0,0,31.8,945.87Z"/><path class="cls-9" d="M523.44,1090.92a5.17,5.17,0,0,1-1.39-.19c-2.17-.65-3.39-2.74-4.37-4.64l-1.53-3L514,1079l-.1-.18v-.21h.79l.63-.67.13.31.06,0c1.11,2.18,1.55,3,2.14,4.17l1.53,3c.85,1.66,1.82,3.33,3.34,3.79a6.36,6.36,0,0,0,4-.7.81.81,0,0,1,.18-.08l.14-.06a186.21,186.21,0,0,1,100-12.25c8.27,1.27,16.74,2.06,21.38-3.29.42-.48.8-1,1.2-1.58a13.87,13.87,0,0,1,2.42-2.8c2.08-1.69,4.93-2.09,7-2.38,2.77-.39,5.46-.78,8.16-1.15q8-1.17,16.05-2.3l27.49-3.92c8.75-1.24,17-2.82,22.39-8.47a36.23,36.23,0,0,0,4.28-6,52,52,0,0,1,3-4.52c8.49-11.11,22.94-13.59,36.92-16,3.84-.66,7.82-1.35,11.55-2.2,2.92-.67,5.92-1.56,8-3.52,2.38-2.19,3.52-5.64,4.44-8.42.11-.3.2-.6.3-.89l.3-.9,4.51-13.54q4-12.07,8-24.15l0-.17c1.9-5.7,3.85-11.59,4.7-17.59,1-7.05.51-14.33,0-21.37q-2-29.61-4-59.22c-1.09-15.87-2.21-32.27-7.75-47.46-1.05-2.86-2.28-5.72-3.46-8.48a102.27,102.27,0,0,1-5.45-14.81c-1.73-6.77-2.92-13.91,0-20.27a12.55,12.55,0,0,0,1.12-7c-12.35-94.25-27.89-167.2-70.83-261.18-3.19-7-7-15-11.91-22.23a63,63,0,0,0-10.21-12c-7.69-7-17-11.51-27.58-16.34A1360.44,1360.44,0,0,0,544,408.3L537.16,406,537,406a.58.58,0,0,1-.17-.06l.63-1.57.24.08,6.84,2.28a1361.45,1361.45,0,0,1,135.18,53.65c10.67,4.88,20.14,9.51,28,16.62a64.92,64.92,0,0,1,10.48,12.31c5,7.33,8.83,15.44,12,22.47,43,94.18,58.6,167.26,71,261.67a14.28,14.28,0,0,1-1.27,7.92c-2.72,5.89-1.57,12.68.07,19.14A101.93,101.93,0,0,0,805.44,815c1.2,2.78,2.43,5.67,3.49,8.57,5.62,15.41,6.76,31.94,7.85,47.92q2,29.61,4,59.23c.49,7.12,1,14.49,0,21.72-.87,6.15-2.85,12.12-4.77,17.89l0,.16q-4,12.09-8,24.15l-4.51,13.55-.3.89c-.1.3-.19.6-.3.9-1,3-2.2,6.64-4.9,9.13-2.42,2.23-5.67,3.21-8.83,3.93-3.77.86-7.77,1.55-11.63,2.21-13.66,2.35-27.78,4.77-35.86,15.35a51.16,51.16,0,0,0-2.91,4.38,36.7,36.7,0,0,1-4.49,6.27c-5.72,6-14.33,7.71-23.38,9l-27.49,3.93q-8,1.11-16.05,2.29c-2.7.37-5.4.76-8.09,1.15-2.51.35-4.66.73-6.24,2a12.24,12.24,0,0,0-2.12,2.47,20.56,20.56,0,0,1-1.29,1.7c-5.65,6.51-16,4.91-22.93,3.86a184.51,184.51,0,0,0-99.1,12.14l-.19.07-.13.06A9.89,9.89,0,0,1,523.44,1090.92Z"/><path class="cls-9" d="M498.15,1002.33c-1.21-9.67,7.48-12.61,15.89-15.46,1.62-.55,3.3-1.12,4.92-1.73,9.12-3.48,19.46-7.42,30.07-7.58h2c3.22,0,6.54,0,9.17-1.57a17.06,17.06,0,0,0,4.25-4.23,32,32,0,0,1,2.61-3c4.4-4.26,10.53-5.44,16.47-6.58,2-.38,4.07-.78,6-1.29,9.79-2.55,18.38-8.58,26.7-14.42,8.74-6.12,17.77-12.46,28.29-14.89,1-.23,2-.42,3-.61a31.25,31.25,0,0,0,7.69-2.17c3.79-1.82,6.51-5,9.39-8.42a57.34,57.34,0,0,1,5.26-5.67,35.75,35.75,0,0,1,13.07-7.17,76.15,76.15,0,0,1,11.66-2.7,157.79,157.79,0,0,1,91.7,13c3.81,1.81,7.56,3.77,11.16,5.85l-.85,1.47c-3.56-2-7.27-4-11-5.78a156,156,0,0,0-90.7-12.89,74.29,74.29,0,0,0-11.4,2.63A34.07,34.07,0,0,0,671,916a56.76,56.76,0,0,0-5.11,5.5c-2.87,3.38-5.83,6.88-9.94,8.85a32.43,32.43,0,0,1-8.11,2.3c-1,.19-2,.38-2.94.6-10.19,2.36-19.09,8.6-27.69,14.64-8.44,5.92-17.17,12-27.25,14.66-2,.53-4.09.93-6.12,1.32-5.95,1.14-11.57,2.22-15.6,6.13a29.35,29.35,0,0,0-2.47,2.85,18.64,18.64,0,0,1-4.7,4.63c-3,1.83-6.6,1.81-10.06,1.81h-1.92c-10.32.15-20.5,4-29.49,7.47-1.66.62-3.35,1.2-5,1.75-8.47,2.87-15.78,5.34-14.74,13.64Z"/><path class="cls-9" d="M717,819l-1.6-.56a133.23,133.23,0,0,1,26.33-44.75c6.14-6.89,11.44-11.21,17.18-14a36.22,36.22,0,0,1,4.79-1.91,26.12,26.12,0,0,1,17.2.17l-.62,1.58c-6.06-2.34-12.08-1.36-16.07-.13a33.72,33.72,0,0,0-4.55,1.82c-5.54,2.71-10.68,6.92-16.66,13.63A131.52,131.52,0,0,0,717,819Z"/><path class="cls-9" d="M660.58,1044.15l-1.69-.19a98.38,98.38,0,0,0-7.58-49.8c-1.73-4-3.76-7.91-5.73-11.72a148,148,0,0,1-7.51-16.12l1.6-.59a146,146,0,0,0,7.42,15.93c2,3.83,4,7.79,5.78,11.82A100.1,100.1,0,0,1,660.58,1044.15Z"/><path class="cls-9" d="M724.26,1027.92l.5-3.83a86.5,86.5,0,0,0-12.64-56.71l1.44-.91a88.31,88.31,0,0,1,13.29,53.93,71.31,71.31,0,0,0-32.14-99.21l.72-1.54a73,73,0,0,1,30.89,105Z"/><path class="cls-9" d="M315.89,986.71a84.79,84.79,0,0,1-32.51-6.53l.32-.77v-.87h.18l.16.07a82.84,82.84,0,0,0,40.92,5.9l.18,1.69A84,84,0,0,1,315.89,986.71Z"/><path class="cls-9" d="M322.19,994.8l-1.57-.64,1.82-4.56,1.83-4.56,9.85-24.63a27.66,27.66,0,0,1,4.26-7.95,18.17,18.17,0,0,1,5.44-4.21,55.56,55.56,0,0,1,6.84-2.88c.82-.3,1.64-.6,2.44-.92a70.94,70.94,0,0,0,17.38-9.69,70.09,70.09,0,0,0,8-7.06c1.33-1.37,3-3.06,5.23-3.06h0c2.17,0,4.1,1.61,5.58,4.67a34.08,34.08,0,0,1,3,17.74,36.9,36.9,0,0,1-6.65,18.47l-1.38-1a35.14,35.14,0,0,0,6.33-17.61,32.29,32.29,0,0,0-2.87-16.86c-.82-1.69-2.19-3.71-4.05-3.71h0c-1.54,0-2.86,1.35-4,2.54a73.11,73.11,0,0,1-26,17.16l-2.47.92a53.53,53.53,0,0,0-6.63,2.79,16.79,16.79,0,0,0-4.95,3.81,26.21,26.21,0,0,0-4,7.48l-9.85,24.63c-.62,1.52-1.22,3-1.83,4.56Z"/><polygon class="cls-9" points="325.04 1059.24 325.02 1057.55 325.04 1057.55 325.04 1059.24"/><path class="cls-9" d="M343.74,949.7c-18.47-12.74-17.8-25.9-17.16-29.62a19.55,19.55,0,0,1,5-10.69,4.18,4.18,0,0,1,3.43-1.55,4.8,4.8,0,0,1,2.23,1.07l2.93,2.21,31.1,23.37-1,1.36-31.11-23.38-2.89-2.17a3.29,3.29,0,0,0-1.44-.77,2.7,2.7,0,0,0-2,1.06,18,18,0,0,0-4.56,9.77c-.6,3.48-1.18,15.77,16.45,27.94Z"/><path class="cls-9" d="M327.91,1072.77l-.25-.87c-1.32-4.45-2.58-8.83-3.47-13.34l0-.1a50.59,50.59,0,0,1,.26-23.12c.51-2.27,1.13-4.53,1.72-6.72l1.41-5.14q2.7-9.87,5.39-19.74c1.6-5.81,3.41-12.39,8-17.06,3.23-3.32,7.49-5.32,11.25-7.09l40.11-19,.73,1.54-40.11,19c-3.64,1.71-7.75,3.64-10.77,6.74-4.28,4.36-6,10.71-7.57,16.32q-2.68,9.87-5.39,19.74l-1.41,5.13c-.59,2.18-1.2,4.42-1.7,6.65a48.71,48.71,0,0,0-.24,22.5l0,.1c.88,4.41,2.12,8.72,3.42,13.11l.25.87Z"/><path class="cls-9" d="M334.92,1097a11.4,11.4,0,0,1-4.83-1,11.87,11.87,0,0,1-4.12-3.18c-4-4.68-2.05-11.65.08-17.2l13.54-35.15c2.82-7.35,6-15.68,11.5-22.28,4-4.8,9.23-8.65,13.83-12l26.23-19.41,1,1.36-26.23,19.42c-4.74,3.5-9.65,7.13-13.53,11.77-5.31,6.38-8.45,14.57-11.23,21.8l-13.54,35.15c-2,5.11-3.77,11.49-.36,15.49a10.27,10.27,0,0,0,3.53,2.73c3.47,1.6,7.91,1,13.21-1.84l.8,1.49A21.35,21.35,0,0,1,334.92,1097Z"/><path class="cls-9" d="M351.6,1097.75c-.84,0-1.68,0-2.53-.09a6.56,6.56,0,0,1-4.18-1.44,4.42,4.42,0,0,1-1.33-2.8,11.7,11.7,0,0,1,.74-4.67,319.76,319.76,0,0,1,16.32-39.9c2.95-6.06,6.62-13.08,11.42-19.22,10.64-13.56,26.44-22.33,40.37-30.07l.83,1.49c-13.8,7.66-29.43,16.34-39.86,29.63-4.71,6-8.32,12.93-11.24,18.91a320.68,320.68,0,0,0-16.23,39.69,10.45,10.45,0,0,0-.66,4,2.71,2.71,0,0,0,.8,1.75,5,5,0,0,0,3.14,1,30.25,30.25,0,0,0,13.92-2.16c6.47-2.62,12.16-7.62,16.48-14.45a49.59,49.59,0,0,0,3.61-6.82l1.56.68a51.3,51.3,0,0,1-3.74,7c-4.5,7.13-10.47,12.36-17.26,15.11A31.6,31.6,0,0,1,351.6,1097.75Z"/><path class="cls-9" d="M395.73,1077.49a19.59,19.59,0,0,1-12.28-4,4,4,0,0,1-1.49-1.94,3.63,3.63,0,0,1,.23-2.56c9.42-20.46,15.53-31.28,30.78-41.94a182.31,182.31,0,0,1,22-12.73l.77,1.51a181.15,181.15,0,0,0-21.83,12.61c-14.91,10.43-20.92,21.08-30.21,41.27a2,2,0,0,0-.15,1.36,2.71,2.71,0,0,0,.93,1.09c4.95,3.93,12.46,4.68,20.06,2a30.18,30.18,0,0,0,5.31-2.46c5.83-3.44,10.71-8.43,15.42-13.25,1.7-1.74,3.47-3.55,5.25-5.25,7.3-7,14.09-11,20.75-12.3a23.53,23.53,0,0,1,4.13-.48l0,1.7a21.52,21.52,0,0,0-3.84.44c-6.34,1.22-12.85,5.1-19.9,11.86-1.77,1.69-3.52,3.48-5.21,5.22-4.79,4.9-9.75,10-15.78,13.52a31.68,31.68,0,0,1-5.6,2.6A28.31,28.31,0,0,1,395.73,1077.49Z"/><path class="cls-9" d="M472.22,1024.76c0-.47-.1-.93-.15-1.4l0-.24c-.68-6-1.92-12.07-6.39-15.5a22.93,22.93,0,0,0-3.59-2.12,28.41,28.41,0,0,1-3.52-2,14.26,14.26,0,0,1-5.76-9.2c-.11-.63-.18-1.29-.25-2-.21-2-.41-3.83-1.62-5a6.7,6.7,0,0,0-2.46-1.36l-.5-.17c-.4-.15-.8-.29-1.2-.45a14.4,14.4,0,0,1-6.57-5.44l1.42-.92a12.84,12.84,0,0,0,5.8,4.79c.36.15.74.28,1.12.42l.51.18a8.23,8.23,0,0,1,3.07,1.74c1.64,1.62,1.88,3.87,2.12,6,.06.62.13,1.25.23,1.85a12.61,12.61,0,0,0,5.08,8.1,27.1,27.1,0,0,0,3.3,1.91,24.05,24.05,0,0,1,3.86,2.29c5,3.81,6.32,10.25,7,16.65l0,.23c.06.48.12,1,.16,1.45Z"/><path class="cls-9" d="M440,979.59a1.49,1.49,0,0,1-.28-.41c-.46-.8-.86-1.69-1.25-2.55a12.78,12.78,0,0,0-2.64-4.31c-1.54-1.42-3.64-1.94-5.87-2.49a21,21,0,0,1-5-1.68c-2.8-1.51-4.63-4.09-6.4-6.59a21.41,21.41,0,0,0-5-5.62,9.76,9.76,0,0,0-1.29-.76,26.45,26.45,0,0,0-8-2l-1.66-.25c-3.44-.52-8.3-1.65-10.88-5.37l1.39-1c2.21,3.17,6.62,4.17,9.74,4.65l1.65.25a27.51,27.51,0,0,1,8.48,2.16,13.18,13.18,0,0,1,1.5.88,23.26,23.26,0,0,1,5.45,6c1.73,2.44,3.37,4.76,5.81,6.07a19.4,19.4,0,0,0,4.56,1.53c2.34.57,4.76,1.17,6.61,2.9a14.13,14.13,0,0,1,3,4.85c.39.86.75,1.68,1.19,2.44l0,.09-.06-.07Z"/><path class="cls-9" d="M519,1008c-6.73-1.43-13.39-3.06-19.81-4.82l-.38-.11c-5.24-1.44-10.43-3-15.44-4.66a339.16,339.16,0,0,1-35.05-13.71c-1.36-.61-2.71-1.24-4.07-1.89a10,10,0,0,1-4-2.87l-.12-.18a3.62,3.62,0,0,1-.2-.33,3.87,3.87,0,0,1-.45-1.26l1.67-.31a2.5,2.5,0,0,0,.26.74,1.93,1.93,0,0,0,.13.21l.12.18a8.8,8.8,0,0,0,3.31,2.28c1.36.65,2.7,1.27,4.05,1.88a338.17,338.17,0,0,0,34.88,13.65c5,1.64,10.15,3.2,15.37,4.64l.38.1c6.38,1.76,13,3.37,19.7,4.8Z"/><path class="cls-9" d="M476.86,1099.25a80,80,0,0,1-13.07-1.28c-1.62-.27-3.22-.56-4.82-.85-8.1-1.46-15.4-2.79-22.86-4.18-13.59-2.56-24-4.68-33.78-6.86-7.9-1.77-15.15-3.54-22.16-5.41l.44-1.64c7,1.86,14.21,3.63,22.09,5.4,9.75,2.17,20.15,4.28,33.73,6.84,7.45,1.39,14.75,2.72,22.84,4.18,1.59.28,3.19.57,4.8.84a66.38,66.38,0,0,0,16.79,1.08l2.27-.19c6-.5,10.28-.85,14.09-5.72l1.34,1c-4.27,5.45-9.13,5.85-15.29,6.36l-2.26.19C479.63,1099.19,478.24,1099.25,476.86,1099.25Z"/><path class="cls-9" d="M495.3,1093.15c-.55,0-1.09,0-1.63-.05s-1.11-.06-1.67,0c-18.71.17-37,.06-55.31-3.08l.28-1.68c18.18,3.13,35.67,3.24,55,3.06.58,0,1.17,0,1.76.05a11.67,11.67,0,0,0,3.9-.23,15,15,0,0,0,5.19-3.33c4.22-3.61,7.83-6.76,11.35-9.91,3.74-3.36,7.3-6.68,11.23-10.45l1.18,1.23c-3.94,3.77-7.52,7.11-11.27,10.48-3.54,3.17-7.15,6.33-11.38,9.94a16.59,16.59,0,0,1-5.82,3.67A9.81,9.81,0,0,1,495.3,1093.15Z"/><path class="cls-9" d="M471.08,1074.74a126.69,126.69,0,0,1-29.3-3.15l.39-1.65c25.85,6.14,53.7,1.89,78.27-1.85l2.71-.42,2.73-.41,9-1.38,1.26-.2,1.24-.19a9.87,9.87,0,0,0,3.94-1.15,4.67,4.67,0,0,0,2.11-3.37,11.4,11.4,0,0,0-2.64-8.36c-6.5-7.94-17.14-9.82-24.93-10a51.61,51.61,0,0,0-5.18.09c-2.89.17-5.78.52-8.47.87l-5.28.74-3.09.44a90.72,90.72,0,0,1-16.83,1c-2.24-.14-4.68-.43-7.69-.91l-3.55-.59c-2.34-.4-4.76-.81-7.13-1.09s-4.91-.47-7.19-.52c-.95,0-2,0-3.13,0l0-1.7c1.19,0,2.24,0,3.21,0,2.32,0,4.79.23,7.34.53s4.85.7,7.21,1.1l3.54.59a73.93,73.93,0,0,0,7.52.89,86.34,86.34,0,0,0,16.5-1l3.08-.43q2.65-.39,5.29-.74c2.73-.36,5.66-.72,8.59-.89,2-.12,3.74-.15,5.34-.09,8.13.19,19.29,2.18,26.19,10.63a13.16,13.16,0,0,1,3,9.7,6.39,6.39,0,0,1-2.87,4.53,11.14,11.14,0,0,1-4.59,1.4l-1.26.19-1.25.2-9,1.38-2.73.41-2.71.42C505.05,1072.15,488.07,1074.74,471.08,1074.74Z"/><path class="cls-9" d="M542,1052.75l-1-1.35c1.89-1.45,3.74-2.78,5.53-4.07a75.74,75.74,0,0,0,11.79-9.75c2.12-2.26,3.56-6.17,2.21-7.54-6-5.26-15.3-6.29-23.71-2.6-.22.09-.44.2-.66.31a52.71,52.71,0,0,0-10,6.83q-4.89,3.95-9.68,7.84l-.28.21-1.09-1.3a4.5,4.5,0,0,1,.37-.28c3.12-2.55,6.35-5.16,9.57-7.75a53.6,53.6,0,0,1,10.34-7.07c.25-.12.5-.25.74-.35,9-4,19-2.8,25.55,2.93,2.4,2.42.25,7.4-2.13,9.93a77.42,77.42,0,0,1-12,10C545.65,1050,543.81,1051.31,542,1052.75Z"/><path class="cls-9" d="M502.59,1043.43l-1.21-1.2.1-.09a63.74,63.74,0,0,0,6.2-7.08c.64-.82,1.29-1.64,2-2.45.3-.39.61-.77.94-1.16,2.49-3,6.4-7.08,11.56-8.79a14.5,14.5,0,0,1,5.14-.74,11.59,11.59,0,0,1,8.82,4l-1.33,1.06a9.86,9.86,0,0,0-7.54-3.4,12.79,12.79,0,0,0-4.56.65c-4.75,1.57-8.43,5.48-10.79,8.29-.32.37-.62.73-.92,1.11-.67.82-1.31,1.63-1.95,2.44a63.69,63.69,0,0,1-6.34,7.24Z"/><path class="cls-9" d="M493.61,1045.5l-1.4-1c.26-.39.54-.77.82-1.15,3.17-4.36,9.63-11.62,17.3-11.12l-.11,1.7c-6.86-.43-12.85,6.35-15.82,10.42C494.13,1044.77,493.86,1045.14,493.61,1045.5Z"/><path class="cls-9" d="M526.45,1022.94a87.06,87.06,0,0,0-7.74-15.55l-1.2-1.94a26.2,26.2,0,0,0-5.39-6.67,9.17,9.17,0,0,0-7.55-2.15c-2.34.54-4.64,2.87-4.32,5.48l-1.69.2c-.39-3.24,2.13-6.53,5.63-7.33a10.87,10.87,0,0,1,9,2.47,27.9,27.9,0,0,1,5.76,7.09c.41.65.82,1.32,1.21,2a88.43,88.43,0,0,1,7.89,15.85Z"/><path class="cls-9" d="M526.73,1090.87l-1.41-.94.36-.53c.16-.22.31-.44.46-.68a52.46,52.46,0,0,0,8.08-21.65l1.68.22a54.14,54.14,0,0,1-8.33,22.35c-.16.25-.33.49-.5.73Z"/><path class="cls-10" d="M378.45,311.76s25-12.68,28.35-8.57c0,0,6.52,3.35,11.82,0,4.5-2.85,28.51,8.57,28.51,8.57S412.71,304.66,378.45,311.76Z"/><path class="cls-9" d="M378.45,312.61a.85.85,0,0,1-.38-1.61c4.22-2.14,25.24-12.51,29.25-8.51.9.42,6.42,2.78,10.85,0,4.74-3,26.82,7.33,29.32,8.52a.84.84,0,0,1,.44,1,.86.86,0,0,1-1,.56c-.34-.07-34.64-7-68.33,0Zm32.93-4.83a213.13,213.13,0,0,1,29.47,2.08c-8.79-3.77-19.37-7.48-21.77-5.95-5.65,3.57-12.38.18-12.67,0a.75.75,0,0,1-.26-.21c-1.09-1.32-8.46-.11-21.75,6.07A172.57,172.57,0,0,1,411.38,307.78Z"/><path class="cls-9" d="M390.58,324.1c1.83.44,3.55,1.15,5.34,1.6.88.28,1.79.48,2.67.72l2.69.6a55.75,55.75,0,0,0,10.91,1.08,51.37,51.37,0,0,0,10.91-1,52.87,52.87,0,0,0,5.36-1.29,24.64,24.64,0,0,0,2.65-.83c.88-.3,1.76-.58,2.66-.86-.82.44-1.65.87-2.48,1.3a24.49,24.49,0,0,1-2.55,1.18l-2.64,1a8.3,8.3,0,0,1-1.34.42l-1.37.37a43.26,43.26,0,0,1-5.55,1.11c-.93.14-1.88.15-2.82.24l-1.42.09h-1.42a43.18,43.18,0,0,1-11.2-1.5c-.9-.27-1.81-.52-2.7-.82s-1.77-.62-2.63-1C393.9,325.8,392.26,324.89,390.58,324.1Z"/><path class="cls-9" d="M438.12,274.38a12.19,12.19,0,0,1-3.38,1.75,5.45,5.45,0,0,1-3.91-.11,10.29,10.29,0,0,1-3-2.54,1.53,1.53,0,0,0-.53-.39c-.08,0-.1,0-.29.14a5.6,5.6,0,0,0-.91,1.38,11,11,0,0,1-2.45,3.15,13.92,13.92,0,0,1-3.33,2.17,17.66,17.66,0,0,1-15.29,0,14.25,14.25,0,0,1-3.34-2.16,11.16,11.16,0,0,1-2.45-3.16,5.34,5.34,0,0,0-.91-1.37c-.19-.15-.21-.16-.29-.15a1.66,1.66,0,0,0-.52.39,10.12,10.12,0,0,1-3,2.54,5.42,5.42,0,0,1-3.92.11,12.33,12.33,0,0,1-3.38-1.75,14.77,14.77,0,0,0,3.49,1.31,4.8,4.8,0,0,0,3.43-.41,9.79,9.79,0,0,0,2.53-2.56,2.35,2.35,0,0,1,.95-.74,1.38,1.38,0,0,1,.83,0,1.8,1.8,0,0,1,.63.34,6.22,6.22,0,0,1,1.28,1.67,10.76,10.76,0,0,0,2.26,2.67,12.52,12.52,0,0,0,3,1.82,17,17,0,0,0,14,0,12.68,12.68,0,0,0,3-1.83A10.62,10.62,0,0,0,425,274a6.22,6.22,0,0,1,1.28-1.67,1.92,1.92,0,0,1,.62-.34,1.38,1.38,0,0,1,.83,0,2.48,2.48,0,0,1,1,.74,9.46,9.46,0,0,0,2.52,2.56,4.74,4.74,0,0,0,3.43.41A14.77,14.77,0,0,0,438.12,274.38Z"/><path class="cls-9" d="M383.82,285.47c-2.08,2.83-4.07,5.58-5.84,8.48-.91,1.43-1.74,2.91-2.54,4.42s-1.52,3.05-2.35,4.62a18.71,18.71,0,0,1,1.14-5.16,24.83,24.83,0,0,1,1-2.45c.41-.78.82-1.57,1.29-2.32a26.37,26.37,0,0,1,3.22-4.21A18.58,18.58,0,0,1,383.82,285.47Z"/><path class="cls-9" d="M441.76,285.47a19.06,19.06,0,0,1,4.06,3.38,26.37,26.37,0,0,1,3.22,4.21c.47.75.87,1.54,1.29,2.32a24.83,24.83,0,0,1,1,2.45,19.08,19.08,0,0,1,1.14,5.16c-.83-1.57-1.52-3.13-2.35-4.62s-1.63-3-2.55-4.42C445.83,291.05,443.84,288.3,441.76,285.47Z"/><path class="cls-9" d="M400.27,213.22a29.92,29.92,0,0,1,1.88,7.46,39.73,39.73,0,0,1,.33,7.71c0,1.29-.21,2.57-.35,3.85s-.4,2.55-.75,3.8a32.84,32.84,0,0,1-2.63,7.22c.46-2.53,1-5,1.33-7.48a74.89,74.89,0,0,0,.71-7.47c.15-2.5.13-5,0-7.52S400.56,215.76,400.27,213.22Z"/><circle class="cls-11" cx="466.27" cy="204.48" r="8.61"/><path class="cls-9" d="M466.27,213.53h-.39a9.05,9.05,0,0,1-8.65-9.43,9.06,9.06,0,0,1,9.43-8.66,9.05,9.05,0,0,1-.39,18.1Zm0-17.23a8.23,8.23,0,1,0,.36,0Z"/><path class="cls-9" d="M462.84,225.28a15.35,15.35,0,0,1-4.48-.36,20.31,20.31,0,0,1-4.28-1.43,20.8,20.8,0,0,1-3.86-2.34,15.46,15.46,0,0,1-3.16-3.2l3.88,2.09c1.28.66,2.55,1.32,3.86,1.91s2.61,1.16,3.94,1.71Z"/><path class="cls-9" d="M447.06,207.5a23.08,23.08,0,0,1,8.38-9.23,22.51,22.51,0,0,1,12.48-3.64,23.13,23.13,0,0,1,12.37,3.9,27.4,27.4,0,0,1,8.61,9,87.54,87.54,0,0,0-10.49-5.43,28.47,28.47,0,0,0-10.56-2.34,26.58,26.58,0,0,0-10.56,2.08A51.83,51.83,0,0,0,447.06,207.5Z"/><path class="cls-9" d="M438.91,178.7l3.56,10.12s37.11-27.07,58.71-20.64C501.18,168.18,492.61,149.2,438.91,178.7Z"/><circle class="cls-11" cx="359.22" cy="204.48" r="8.61"/><path class="cls-9" d="M359.21,213.53a9.09,9.09,0,1,1,.39,0Zm0-17.23h-.35a8,8,0,1,0,.35,0Z"/><path class="cls-9" d="M362.64,225.28l4.1-1.62c1.34-.55,2.66-1.09,3.95-1.71s2.57-1.25,3.86-1.91l3.88-2.09a15.26,15.26,0,0,1-3.17,3.2,20.2,20.2,0,0,1-8.13,3.77A15.39,15.39,0,0,1,362.64,225.28Z"/><path class="cls-9" d="M378.43,207.5a52.4,52.4,0,0,0-10.23-5.69,26.61,26.61,0,0,0-10.56-2.08,28.52,28.52,0,0,0-10.57,2.34,89.07,89.07,0,0,0-10.49,5.43,27.33,27.33,0,0,1,8.62-9,23.13,23.13,0,0,1,12.36-3.9,22.54,22.54,0,0,1,12.49,3.64A23.08,23.08,0,0,1,378.43,207.5Z"/><path class="cls-9" d="M386.65,178.34l-3.44,10.16s-37.42-26.64-58.95-19.95C324.26,168.55,332.61,149.47,386.65,178.34Z"/><path class="cls-12" d="M326.36,192.77c5.1-3.55,11.58-4.32,17.77-4.88,11.54-1,23.26-1.68,34.63.56,6,1.19,12.28,3.45,16,8.37a21.73,21.73,0,0,1,3.82,10.84c1.57,14.73-7,30-20.34,36.39a49.5,49.5,0,0,1-14.25,4c-9.1,1.34-14.43,1.28-22.75-1.3-8.8-2.71-15.4-10.76-19.49-23.1C318.57,214.19,316.41,199.68,326.36,192.77Z"/><path class="cls-12" d="M498.82,192.77c-5.1-3.55-11.58-4.32-17.77-4.88-11.53-1-23.26-1.68-34.62.56-6,1.19-12.29,3.45-16,8.37a21.74,21.74,0,0,0-3.83,10.84c-1.56,14.73,7,30,20.34,36.39a49.59,49.59,0,0,0,14.25,4c9.1,1.34,14.43,1.28,22.76-1.3,8.79-2.71,15.39-10.76,19.49-23.1C506.62,214.19,508.78,199.68,498.82,192.77Z"/><path class="cls-9" d="M425.54,211.78c-12.84-8-25.78-.09-25.91,0l-1.79-2.88c.59-.38,14.87-9.06,29.49,0Z"/><path class="cls-9" d="M505.76,206.17a1.7,1.7,0,0,1-1.1-3l18.78-15.87a1.7,1.7,0,0,1,2.2,2.6l-18.79,15.86A1.65,1.65,0,0,1,505.76,206.17Z"/><path class="cls-9" d="M319.08,205.49a1.67,1.67,0,0,1-1.14-.44l-17.53-15.86a1.7,1.7,0,1,1,2.28-2.52l17.53,15.86a1.7,1.7,0,0,1-1.14,3Z"/><path class="cls-9" d="M354.26,250.66a44.15,44.15,0,0,1-13.54-2.23c-9.17-2.83-16.29-11.2-20.61-24.19-2.36-7.14-6.59-24.62,5.28-32.87h0c5.34-3.71,11.84-4.56,18.59-5.17,10.69-1,23.11-1.79,35.11.58,8.08,1.6,13.64,4.54,17,9a23.25,23.25,0,0,1,4.16,11.7c1.64,15.4-7.32,31.42-21.29,38.1a51.17,51.17,0,0,1-14.74,4.19A67.25,67.25,0,0,1,354.26,250.66Zm-26.93-56.5c-10,6.94-6.12,22.6-4,29,4,11.91,10.31,19.52,18.38,22,8.4,2.59,13.58,2.48,22,1.24a47.83,47.83,0,0,0,13.76-3.9c12.72-6.08,20.87-20.66,19.38-34.68a19.93,19.93,0,0,0-3.49-10c-2.84-3.77-7.73-6.3-14.95-7.72-11.56-2.29-23.69-1.47-34.15-.54-6.27.57-12.29,1.34-16.95,4.58Z"/><path class="cls-9" d="M470.92,250.66a67.37,67.37,0,0,1-10-.88,51.1,51.1,0,0,1-14.73-4.19c-14-6.68-22.93-22.7-21.3-38.1a23.38,23.38,0,0,1,4.16-11.7c3.36-4.47,8.92-7.41,17-9,12-2.37,24.41-1.54,35.11-.58,6.74.61,13.24,1.46,18.58,5.17h0c11.88,8.25,7.65,25.73,5.28,32.87-4.31,13-11.44,21.36-20.6,24.19A44.21,44.21,0,0,1,470.92,250.66Zm-7.42-62a86.15,86.15,0,0,0-16.75,1.48c-7.22,1.42-12.11,3.95-14.94,7.72a19.93,19.93,0,0,0-3.5,10c-1.49,14,6.66,28.6,19.38,34.68a47.81,47.81,0,0,0,13.77,3.9c8.43,1.24,13.61,1.35,22-1.24,8.07-2.49,14.42-10.1,18.38-22,2.12-6.41,6-22.07-4-29-4.66-3.24-10.67-4-17-4.58C475.45,189.09,469.54,188.64,463.5,188.64Z"/></g></svg>