<svg xmlns="http://www.w3.org/2000/svg" xmlns:xlink="http://www.w3.org/1999/xlink" viewBox="0 0 398 128"><defs><style>.cls-1{fill:url(#Degradado_sin_nombre_35);}.cls-2{fill:none;}.cls-3{isolation:isolate;}.cls-10,.cls-4{fill:#fff;}.cls-5{clip-path:url(#clip-path);}.cls-6{clip-path:url(#clip-path-2);}.cls-7{opacity:0.25;mix-blend-mode:multiply;}.cls-8{fill:#f6d968;}.cls-10,.cls-9{font-size:62.93px;font-family:AvenirNext-Heavy, Avenir Next;font-weight:800;}.cls-9{fill:#b98601;}</style><linearGradient id="Degradado_sin_nombre_35" x1="435.11" y1="6499.16" x2="549.98" y2="6499.16" gradientTransform="translate(-293.55 -6441.26)" gradientUnits="userSpaceOnUse"><stop offset="0.06" stop-color="#ffef88"/><stop offset="0.09" stop-color="#ffea78"/><stop offset="0.14" stop-color="#ffe159"/><stop offset="0.21" stop-color="#ffd93d"/><stop offset="0.28" stop-color="#ffd327"/><stop offset="0.36" stop-color="#ffce16"/><stop offset="0.46" stop-color="#ffcb0b"/><stop offset="0.6" stop-color="#ffc904"/><stop offset="1" stop-color="#ffc802"/></linearGradient><clipPath id="clip-path"><path class="cls-1" d="M141.57-131.1H247.16a9.27,9.27,0,0,1,9.27,9.27V237.63a9.27,9.27,0,0,1-9.27,9.27H141.57a0,0,0,0,1,0,0v-378A0,0,0,0,1,141.57-131.1Z" transform="translate(256.9 -141.1) rotate(90)"/></clipPath><clipPath id="clip-path-2"><rect class="cls-2" x="141.57" y="-131.1" width="114.87" height="378" transform="translate(256.9 -141.1) rotate(90)"/></clipPath></defs><g class="cls-3"><g id="INTERFACE"><rect class="cls-4" width="398" height="128" rx="5.04"/><path class="cls-1" d="M141.57-131.1H247.16a9.27,9.27,0,0,1,9.27,9.27V237.63a9.27,9.27,0,0,1-9.27,9.27H141.57a0,0,0,0,1,0,0v-378A0,0,0,0,1,141.57-131.1Z" transform="translate(256.9 -141.1) rotate(90)"/><g class="cls-5"><g class="cls-6"><g class="cls-7"><polygon class="cls-8" points="52.07 10.36 23.5 26.66 23.5 42.08 41.84 32.18 41.84 51.04 52.07 57.67 62.31 51.04 62.31 32.18 80.65 42.08 80.65 26.66 52.07 10.36"/><polygon class="cls-8" points="-13.65 10.36 -42.23 26.66 -42.23 42.08 -23.89 32.18 -23.89 51.04 -13.65 57.67 -3.42 51.04 -3.42 32.18 14.93 42.08 14.93 26.66 -13.65 10.36"/><polygon class="cls-8" points="116.25 10.36 87.67 26.66 87.67 42.08 106.01 32.18 106.01 51.04 116.25 57.67 126.48 51.04 126.48 32.18 144.82 42.08 144.82 26.66 116.25 10.36"/><polygon class="cls-8" points="180.43 10.36 151.85 26.66 151.85 42.08 170.19 32.18 170.19 51.04 180.43 57.67 190.66 51.04 190.66 32.18 209 42.08 209 26.66 180.43 10.36"/><polygon class="cls-8" points="244.6 10.36 216.02 26.66 216.02 42.08 234.37 32.18 234.37 51.04 244.6 57.67 254.84 51.04 254.84 32.18 273.18 42.08 273.18 26.66 244.6 10.36"/><polygon class="cls-8" points="308.78 10.36 280.2 26.66 280.2 42.08 298.54 32.18 298.54 51.04 308.78 57.67 319.01 51.04 319.01 32.18 337.35 42.08 337.35 26.66 308.78 10.36"/><polygon class="cls-8" points="372.95 10.36 344.38 26.66 344.38 42.08 362.72 32.18 362.72 51.04 372.95 57.67 383.19 51.04 383.19 32.18 401.53 42.08 401.53 26.66 372.95 10.36"/></g><g class="cls-7"><polygon class="cls-8" points="19.98 48.49 -8.59 64.79 -8.59 80.21 9.75 70.31 9.75 89.17 19.98 95.8 30.22 89.17 30.22 70.31 48.56 80.21 48.56 64.79 19.98 48.49"/><polygon class="cls-8" points="84.16 48.49 55.58 64.79 55.58 80.21 73.92 70.31 73.92 89.17 84.16 95.8 94.4 89.17 94.4 70.31 112.74 80.21 112.74 64.79 84.16 48.49"/><polygon class="cls-8" points="148.34 48.49 119.76 64.79 119.76 80.21 138.1 70.31 138.1 89.17 148.34 95.8 158.57 89.17 158.57 70.31 176.91 80.21 176.91 64.79 148.34 48.49"/><polygon class="cls-8" points="212.51 48.49 183.94 64.79 183.94 80.21 202.28 70.31 202.28 89.17 212.51 95.8 222.75 89.17 222.75 70.31 241.09 80.21 241.09 64.79 212.51 48.49"/><polygon class="cls-8" points="276.69 48.49 248.11 64.79 248.11 80.21 266.45 70.31 266.45 89.17 276.69 95.8 286.93 89.17 286.93 70.31 305.27 80.21 305.27 64.79 276.69 48.49"/><polygon class="cls-8" points="340.87 48.49 312.29 64.79 312.29 80.21 330.63 70.31 330.63 89.17 340.87 95.8 351.1 89.17 351.1 70.31 369.44 80.21 369.44 64.79 340.87 48.49"/><polygon class="cls-8" points="405.04 48.49 376.46 64.79 376.46 80.21 394.81 70.31 394.81 89.17 405.04 95.8 415.28 89.17 415.28 70.31 433.62 80.21 433.62 64.79 405.04 48.49"/></g><g class="cls-7"><polygon class="cls-8" points="51.08 87.56 22.5 103.86 22.5 119.28 40.84 109.38 40.84 128.23 51.08 134.86 61.31 128.23 61.31 109.38 79.65 119.28 79.65 103.86 51.08 87.56"/><polygon class="cls-8" points="-13.5 87.56 -42.08 103.86 -42.08 119.28 -23.73 109.38 -23.73 128.23 -13.5 134.86 -3.26 128.23 -3.26 109.38 15.08 119.28 15.08 103.86 -13.5 87.56"/><polygon class="cls-8" points="115.65 87.56 87.07 103.86 87.07 119.28 105.41 109.38 105.41 128.23 115.65 134.86 125.89 128.23 125.89 109.38 144.23 119.28 144.23 103.86 115.65 87.56"/><polygon class="cls-8" points="180.23 87.56 151.65 103.86 151.65 119.28 169.99 109.38 169.99 128.23 180.23 134.86 190.46 128.23 190.46 109.38 208.8 119.28 208.8 103.86 180.23 87.56"/><polygon class="cls-8" points="244.8 87.56 216.22 103.86 216.22 119.28 234.56 109.38 234.56 128.23 244.8 134.86 255.04 128.23 255.04 109.38 273.38 119.28 273.38 103.86 244.8 87.56"/><polygon class="cls-8" points="309.38 87.56 280.8 103.86 280.8 119.28 299.14 109.38 299.14 128.23 309.38 134.86 319.61 128.23 319.61 109.38 337.95 119.28 337.95 103.86 309.38 87.56"/><polygon class="cls-8" points="373.95 87.56 345.37 103.86 345.37 119.28 363.71 109.38 363.71 128.23 373.95 134.86 384.19 128.23 384.19 109.38 402.53 119.28 402.53 103.86 373.95 87.56"/></g></g></g><text class="cls-9" transform="translate(56 84.09) scale(1.01 1)">Empezar</text><text class="cls-10" transform="translate(58.77 79.09)">Empezar</text></g></g></svg>