<?xml version="1.0" encoding="utf-8"?>
<!-- Generator: Adobe Illustrator 25.2.3, SVG Export Plug-In . SVG Version: 6.00 Build 0)  -->
<svg version="1.1" xmlns="http://www.w3.org/2000/svg" xmlns:xlink="http://www.w3.org/1999/xlink" x="0px" y="0px"
	 viewBox="0 0 399.9 114.87" style="enable-background:new 0 0 399.9 114.87;" xml:space="preserve">
<style type="text/css">
	.st0{clip-path:url(#XMLID_3_);}
	.st1{opacity:0.25;clip-path:url(#SVGID_2_);}
	.st2{fill:#F6D968;}
	.st3{fill:#B98601;}
	.st4{fill:#FFFFFF;}
	.st5{clip-path:url(#XMLID_5_);}
	.st6{opacity:0.25;clip-path:url(#SVGID_4_);}
	.st7{clip-path:url(#XMLID_7_);}
	.st8{opacity:0.25;clip-path:url(#SVGID_6_);}
	.st9{opacity:0.25;clip-path:url(#XMLID_10_);}
	.st10{opacity:0.25;clip-path:url(#XMLID_12_);}
	.st11{opacity:0.25;clip-path:url(#XMLID_14_);}
	.st12{fill:url(#SVGID_7_);}
	.st13{fill:url(#SVGID_8_);}
	.st14{fill:url(#SVGID_9_);}
	.st15{fill:url(#SVGID_10_);}
	.st16{opacity:0.7;fill:#60DFFF;}
	.st17{fill:url(#SVGID_11_);}
	.st18{fill:#D7F7FF;}
	.st19{fill:url(#SVGID_12_);}
	.st20{fill:url(#SVGID_13_);}
	.st21{opacity:0.25;clip-path:url(#SVGID_15_);}
	.st22{fill:#53CFFC;}
	.st23{fill:#017BD2;}
	.st24{fill:url(#SVGID_16_);}
	.st25{opacity:0.25;}
	.st26{clip-path:url(#SVGID_18_);}
	.st27{fill:url(#SVGID_19_);}
	.st28{opacity:0.25;clip-path:url(#SVGID_21_);}
	.st29{fill:url(#SVGID_22_);}
	.st30{clip-path:url(#SVGID_24_);}
	.st31{fill:url(#SVGID_25_);}
	.st32{opacity:0.25;clip-path:url(#SVGID_27_);}
	.st33{fill:url(#SVGID_28_);}
	.st34{clip-path:url(#SVGID_30_);}
	.st35{fill:url(#SVGID_31_);}
	.st36{opacity:0.25;clip-path:url(#SVGID_33_);}
	.st37{fill:url(#SVGID_34_);}
	.st38{clip-path:url(#SVGID_36_);}
	.st39{fill:#60DFFF;}
	.st40{fill:url(#SVGID_37_);}
	.st41{opacity:0.25;clip-path:url(#SVGID_39_);}
	.st42{fill:url(#SVGID_40_);}
	.st43{opacity:0.25;clip-path:url(#SVGID_42_);}
	.st44{fill:url(#SVGID_43_);}
	.st45{fill:#1E3865;}
</style>
<g id="FONDOS">
</g>
<g id="PERSONAJES">
</g>
<g id="INTERFACE">
	<g>
		<g>
			<g>
				<g>
					<defs>
						<path id="XMLID_33_" d="M0,105.59V9.09C0,4.07,4.07,0,9.09,0h381.71c5.02,0,9.1,4.07,9.1,9.09v96.5
							c0,5.12-4.15,9.27-9.27,9.27H9.27C4.15,114.87,0,110.71,0,105.59z"/>
					</defs>
					
						<linearGradient id="XMLID_2_" gradientUnits="userSpaceOnUse" x1="597.6509" y1="7761.707" x2="712.5169" y2="7761.707" gradientTransform="matrix(0 1 -1 0 7961.6592 -597.6509)">
						<stop  offset="0.0642" style="stop-color:#FFEF88"/>
						<stop  offset="0.0877" style="stop-color:#FFEA78"/>
						<stop  offset="0.1428" style="stop-color:#FFE159"/>
						<stop  offset="0.2053" style="stop-color:#FFD93D"/>
						<stop  offset="0.2759" style="stop-color:#FFD327"/>
						<stop  offset="0.3583" style="stop-color:#FFCE16"/>
						<stop  offset="0.4602" style="stop-color:#FFCB0B"/>
						<stop  offset="0.6031" style="stop-color:#FFC904"/>
						<stop  offset="1" style="stop-color:#FFC802"/>
					</linearGradient>
					<use xlink:href="#XMLID_33_"  style="overflow:visible;fill:url(#XMLID_2_);"/>
					<clipPath id="XMLID_3_">
						<use xlink:href="#XMLID_33_"  style="overflow:visible;"/>
					</clipPath>
					<g style="opacity:0.25;clip-path:url(#XMLID_3_);">
						<polygon class="st2" points="53.03,9.89 24.45,26.19 24.45,41.61 42.79,31.72 42.79,50.57 53.03,57.2 63.26,50.57 
							63.26,31.72 81.6,41.61 81.6,26.19 						"/>
						<polygon class="st2" points="117.2,9.89 88.62,26.19 88.62,41.61 106.96,31.72 106.96,50.57 117.2,57.2 127.44,50.57 
							127.44,31.72 145.78,41.61 145.78,26.19 						"/>
						<polygon class="st2" points="181.38,9.89 152.8,26.19 152.8,41.61 171.14,31.72 171.14,50.57 181.38,57.2 191.61,50.57 
							191.61,31.72 209.95,41.61 209.95,26.19 						"/>
						<polygon class="st2" points="245.55,9.89 216.98,26.19 216.98,41.61 235.32,31.72 235.32,50.57 245.55,57.2 255.79,50.57 
							255.79,31.72 274.13,41.61 274.13,26.19 						"/>
						<polygon class="st2" points="309.73,9.89 281.15,26.19 281.15,41.61 299.49,31.72 299.49,50.57 309.73,57.2 319.97,50.57 
							319.97,31.72 338.31,41.61 338.31,26.19 						"/>
						<polygon class="st2" points="373.91,9.89 345.33,26.19 345.33,41.61 363.67,31.72 363.67,50.57 373.91,57.2 384.14,50.57 
							384.14,31.72 402.48,41.61 402.48,26.19 						"/>
					</g>
					<g style="opacity:0.25;clip-path:url(#XMLID_3_);">
						<polygon class="st2" points="20.94,48.03 -7.64,64.33 -7.64,79.75 10.7,69.85 10.7,88.71 20.94,95.33 31.17,88.71 
							31.17,69.85 49.51,79.75 49.51,64.33 						"/>
						<polygon class="st2" points="85.11,48.03 56.54,64.33 56.54,79.75 74.88,69.85 74.88,88.71 85.11,95.33 95.35,88.71 
							95.35,69.85 113.69,79.75 113.69,64.33 						"/>
						<polygon class="st2" points="149.29,48.03 120.71,64.33 120.71,79.75 139.05,69.85 139.05,88.71 149.29,95.33 159.53,88.71 
							159.53,69.85 177.87,79.75 177.87,64.33 						"/>
						<polygon class="st2" points="213.47,48.03 184.89,64.33 184.89,79.75 203.23,69.85 203.23,88.71 213.47,95.33 223.7,88.71 
							223.7,69.85 242.04,79.75 242.04,64.33 						"/>
						<polygon class="st2" points="277.64,48.03 249.06,64.33 249.06,79.75 267.41,69.85 267.41,88.71 277.64,95.33 287.88,88.71 
							287.88,69.85 306.22,79.75 306.22,64.33 						"/>
						<polygon class="st2" points="341.82,48.03 313.24,64.33 313.24,79.75 331.58,69.85 331.58,88.71 341.82,95.33 352.05,88.71 
							352.05,69.85 370.39,79.75 370.39,64.33 						"/>
						<polygon class="st2" points="405.99,48.03 377.42,64.33 377.42,79.75 395.76,69.85 395.76,88.71 405.99,95.33 416.23,88.71 
							416.23,69.85 434.57,79.75 434.57,64.33 						"/>
					</g>
					<g style="opacity:0.25;clip-path:url(#XMLID_3_);">
						<polygon class="st2" points="52.03,87.09 23.45,103.39 23.45,118.81 41.79,108.91 41.79,127.77 52.03,134.4 62.26,127.77 
							62.26,108.91 80.61,118.81 80.61,103.39 						"/>
						<polygon class="st2" points="-12.55,87.09 -41.12,103.39 -41.12,118.81 -22.78,108.91 -22.78,127.77 -12.55,134.4 
							-2.31,127.77 -2.31,108.91 16.03,118.81 16.03,103.39 						"/>
						<polygon class="st2" points="116.6,87.09 88.03,103.39 88.03,118.81 106.37,108.91 106.37,127.77 116.6,134.4 126.84,127.77 
							126.84,108.91 145.18,118.81 145.18,103.39 						"/>
						<polygon class="st2" points="181.18,87.09 152.6,103.39 152.6,118.81 170.94,108.91 170.94,127.77 181.18,134.4 
							191.41,127.77 191.41,108.91 209.75,118.81 209.75,103.39 						"/>
						<polygon class="st2" points="245.75,87.09 217.18,103.39 217.18,118.81 235.52,108.91 235.52,127.77 245.75,134.4 
							255.99,127.77 255.99,108.91 274.33,118.81 274.33,103.39 						"/>
						<polygon class="st2" points="310.33,87.09 281.75,103.39 281.75,118.81 300.09,108.91 300.09,127.77 310.33,134.4 
							320.56,127.77 320.56,108.91 338.9,118.81 338.9,103.39 						"/>
						<polygon class="st2" points="374.9,87.09 346.33,103.39 346.33,118.81 364.67,108.91 364.67,127.77 374.9,134.4 
							385.14,127.77 385.14,108.91 403.48,118.81 403.48,103.39 						"/>
					</g>
				</g>
			</g>
		</g>
		<g>
			<g>
				<g>
					<path class="st3" d="M41.03,66.69H28.71v16.93H13.58V39.07h15.06v15.1h12.33v-15.1h15.19v44.55H41.03V66.69z"/>
					<path class="st3" d="M64.55,39.07H79.8v44.55H64.55V39.07z"/>
					<path class="st3" d="M102.92,84.88c-1.82,0-3.61-0.16-5.37-0.47c-1.76-0.31-3.45-0.77-5.08-1.38
						c-1.63-0.61-3.17-1.31-4.61-2.13c-1.44-0.81-2.73-1.72-3.88-2.72l9.21-9.91c1.06,1.13,2.47,2.14,4.23,3.02
						c1.76,0.88,3.57,1.32,5.43,1.32c0.85,0,1.62-0.15,2.32-0.44c0.7-0.29,1.05-0.84,1.05-1.64c0-0.42-0.12-0.78-0.35-1.07
						c-0.23-0.29-0.65-0.6-1.24-0.91c-0.59-0.31-1.41-0.66-2.45-1.04c-1.04-0.38-2.34-0.82-3.91-1.32c-1.53-0.5-2.99-1.1-4.38-1.8
						c-1.4-0.69-2.64-1.54-3.72-2.55c-1.08-1.01-1.94-2.22-2.57-3.62c-0.64-1.41-0.95-3.1-0.95-5.08c0-2.77,0.57-5.13,1.72-7.06
						c1.14-1.93,2.61-3.52,4.42-4.76c1.8-1.24,3.82-2.13,6.07-2.68c2.24-0.55,4.47-0.82,6.67-0.82c2.96,0,5.98,0.57,9.05,1.7
						c3.07,1.13,5.77,2.77,8.1,4.91l-9.4,9.5c-1.02-1.26-2.27-2.21-3.75-2.86c-1.48-0.65-2.82-0.98-4-0.98
						c-1.1,0-1.99,0.16-2.67,0.47c-0.68,0.31-1.02,0.83-1.02,1.54c0,0.67,0.35,1.18,1.05,1.51c0.7,0.34,1.83,0.76,3.4,1.26
						c1.61,0.5,3.3,1.09,5.08,1.76c1.78,0.67,3.42,1.54,4.92,2.61c1.5,1.07,2.74,2.38,3.72,3.93c0.97,1.55,1.46,3.48,1.46,5.79
						c0,2.69-0.54,5.02-1.62,7.02c-1.08,1.99-2.5,3.65-4.26,4.97c-1.76,1.32-3.74,2.31-5.94,2.96
						C107.46,84.55,105.21,84.88,102.92,84.88z"/>
					<path class="st3" d="M149.06,83.62h-15.12v-31.9h-11.06V39.07h37.24v12.65h-11.06V83.62z"/>
					<path class="st3" d="M160.81,61.09c0-3.56,0.64-6.79,1.91-9.66c1.27-2.87,3.02-5.32,5.24-7.33c2.22-2.01,4.86-3.57,7.91-4.66
						c3.05-1.09,6.35-1.64,9.91-1.64c3.56,0,6.86,0.55,9.91,1.64c3.05,1.09,5.7,2.64,7.94,4.66c2.25,2.01,4,4.46,5.27,7.33
						c1.27,2.87,1.91,6.09,1.91,9.66c0,3.57-0.64,6.82-1.91,9.75c-1.27,2.94-3.03,5.44-5.27,7.52c-2.25,2.08-4.89,3.68-7.94,4.81
						c-3.05,1.13-6.35,1.7-9.91,1.7c-3.56,0-6.86-0.57-9.91-1.7c-3.05-1.13-5.69-2.74-7.91-4.81c-2.22-2.08-3.97-4.58-5.24-7.52
						C161.45,67.91,160.81,64.66,160.81,61.09z M176.89,61.09c0,1.47,0.22,2.81,0.67,4.03c0.44,1.22,1.06,2.27,1.84,3.15
						c0.78,0.88,1.73,1.56,2.83,2.05c1.1,0.48,2.29,0.72,3.56,0.72c1.27,0,2.45-0.24,3.53-0.72c1.08-0.48,2.02-1.16,2.83-2.05
						c0.8-0.88,1.43-1.93,1.87-3.15c0.44-1.22,0.67-2.56,0.67-4.03c0-1.43-0.22-2.74-0.67-3.93c-0.44-1.2-1.07-2.2-1.87-3.02
						c-0.81-0.82-1.75-1.46-2.83-1.92c-1.08-0.46-2.26-0.69-3.53-0.69c-1.27,0-2.46,0.23-3.56,0.69c-1.1,0.46-2.04,1.1-2.83,1.92
						c-0.78,0.82-1.4,1.82-1.84,3.02C177.11,58.36,176.89,59.67,176.89,61.09z"/>
					<path class="st3" d="M217.17,39.07h19.38c2.2,0,4.39,0.22,6.58,0.66c2.18,0.44,4.13,1.22,5.85,2.33
						c1.72,1.11,3.1,2.6,4.16,4.47c1.06,1.87,1.59,4.21,1.59,7.02c0,2.73-0.68,5.13-2.03,7.21c-1.35,2.08-3.3,3.68-5.83,4.81
						l11.42,18.06h-17.37l-8.62-15.92h-0.44v15.92h-14.68V39.07z M231.72,57.88h2.96c0.5,0,1.06-0.04,1.67-0.13
						c0.61-0.08,1.18-0.26,1.7-0.54c0.52-0.27,0.97-0.65,1.32-1.13c0.36-0.48,0.54-1.12,0.54-1.92c0-0.8-0.15-1.43-0.44-1.89
						c-0.29-0.46-0.67-0.81-1.14-1.04c-0.46-0.23-0.97-0.38-1.51-0.44c-0.55-0.06-1.05-0.09-1.51-0.09h-3.59V57.88z"/>
					<path class="st3" d="M262.54,39.07h15.25v44.55h-15.25V39.07z"/>
					<path class="st3" d="M298.7,39.07h16.08l17.54,44.55h-16.46l-2.35-6.54h-14.3l-2.22,6.54h-16.01L298.7,39.07z M306.51,54.61
						l-3.69,11.01h7.31L306.51,54.61z"/>
					<path class="st3" d="M368.02,57.88c0.72-0.54,1.31-1.15,1.78-1.82c0.47-0.67,0.7-1.36,0.7-2.08c0-0.84-0.27-1.57-0.79-2.2
						c-0.53-0.63-1.37-0.94-2.51-0.94c-1.23,0-2.25,0.48-3.05,1.45c-0.81,0.97-1.25,2.27-1.33,3.9l-14.42-1.64
						c0.3-2.89,1.06-5.39,2.29-7.49c1.23-2.1,2.76-3.84,4.61-5.22s3.9-2.4,6.16-3.05c2.27-0.65,4.61-0.98,7.02-0.98
						c2.2,0,4.39,0.27,6.58,0.82c2.18,0.55,4.12,1.4,5.81,2.55c1.69,1.15,3.07,2.65,4.13,4.5c1.06,1.85,1.59,4.07,1.59,6.67
						c0,1.85-0.24,3.47-0.73,4.88c-0.49,1.41-1.14,2.65-1.97,3.74c-0.83,1.09-1.76,2.08-2.8,2.96c-1.04,0.88-2.13,1.72-3.27,2.52
						l-6.61,4.66h15.5v12.52h-36.47V71.98L368.02,57.88z"/>
				</g>
			</g>
			<g>
				<g>
					<path class="st4" d="M42.97,61.69H30.76v16.93H15.78V34.07h14.91v15.1H42.9v-15.1h15.04v44.55H42.97V61.69z"/>
					<path class="st4" d="M66.25,34.07h15.1v44.55h-15.1V34.07z"/>
					<path class="st4" d="M104.25,79.88c-1.8,0-3.58-0.16-5.32-0.47c-1.74-0.31-3.42-0.77-5.03-1.38c-1.62-0.61-3.14-1.31-4.56-2.13
						c-1.43-0.81-2.71-1.72-3.84-2.72l9.12-9.91c1.05,1.13,2.44,2.14,4.18,3.02c1.74,0.88,3.53,1.32,5.38,1.32
						c0.84,0,1.61-0.15,2.3-0.44c0.69-0.29,1.04-0.84,1.04-1.64c0-0.42-0.12-0.78-0.35-1.07c-0.23-0.29-0.64-0.6-1.23-0.91
						c-0.59-0.32-1.4-0.66-2.42-1.04c-1.03-0.38-2.32-0.82-3.87-1.32c-1.51-0.5-2.96-1.1-4.34-1.8c-1.38-0.69-2.61-1.54-3.68-2.55
						c-1.07-1.01-1.92-2.22-2.55-3.62c-0.63-1.41-0.94-3.1-0.94-5.08c0-2.77,0.57-5.13,1.7-7.06s2.59-3.52,4.37-4.76
						s3.79-2.13,6.01-2.68c2.22-0.55,4.43-0.82,6.61-0.82c2.94,0,5.92,0.57,8.97,1.7c3.04,1.13,5.71,2.77,8.02,4.91l-9.31,9.5
						c-1.01-1.26-2.25-2.21-3.71-2.86c-1.47-0.65-2.79-0.97-3.96-0.97c-1.09,0-1.97,0.16-2.64,0.47s-1.01,0.83-1.01,1.54
						c0,0.67,0.35,1.17,1.04,1.51c0.69,0.34,1.81,0.75,3.37,1.26c1.59,0.5,3.27,1.09,5.03,1.76c1.76,0.67,3.39,1.54,4.88,2.61
						c1.49,1.07,2.71,2.38,3.68,3.93c0.96,1.55,1.45,3.48,1.45,5.79c0,2.69-0.54,5.02-1.6,7.02c-1.07,1.99-2.48,3.65-4.22,4.97
						c-1.74,1.32-3.7,2.31-5.88,2.96C108.74,79.55,106.52,79.88,104.25,79.88z"/>
					<path class="st4" d="M149.94,78.62h-14.98v-31.9h-10.95V34.07h36.87v12.65h-10.95V78.62z"/>
					<path class="st4" d="M161.58,56.09c0-3.57,0.63-6.79,1.89-9.66c1.26-2.87,2.99-5.32,5.19-7.33s4.81-3.56,7.83-4.66
						c3.02-1.09,6.29-1.64,9.82-1.64c3.52,0,6.8,0.54,9.82,1.64c3.02,1.09,5.64,2.64,7.87,4.66c2.22,2.01,3.96,4.46,5.22,7.33
						c1.26,2.87,1.89,6.09,1.89,9.66c0,3.57-0.63,6.82-1.89,9.75c-1.26,2.94-3,5.44-5.22,7.52c-2.22,2.08-4.85,3.68-7.87,4.81
						s-6.29,1.7-9.82,1.7c-3.52,0-6.8-0.57-9.82-1.7s-5.63-2.74-7.83-4.81c-2.2-2.08-3.93-4.58-5.19-7.52S161.58,59.66,161.58,56.09
						z M177.5,56.09c0,1.47,0.22,2.81,0.66,4.03s1.05,2.27,1.82,3.15s1.71,1.56,2.8,2.04c1.09,0.48,2.26,0.72,3.52,0.72
						s2.42-0.24,3.49-0.72c1.07-0.48,2-1.16,2.8-2.04c0.8-0.88,1.42-1.93,1.86-3.15s0.66-2.56,0.66-4.03c0-1.43-0.22-2.74-0.66-3.93
						c-0.44-1.2-1.06-2.2-1.86-3.02c-0.8-0.82-1.73-1.46-2.8-1.92c-1.07-0.46-2.23-0.69-3.49-0.69s-2.43,0.23-3.52,0.69
						c-1.09,0.46-2.02,1.1-2.8,1.92c-0.78,0.82-1.38,1.82-1.82,3.02C177.72,53.36,177.5,54.67,177.5,56.09z"/>
					<path class="st4" d="M217.39,34.07h19.19c2.18,0,4.35,0.22,6.51,0.66c2.16,0.44,4.09,1.22,5.79,2.33
						c1.7,1.11,3.07,2.6,4.12,4.47c1.05,1.87,1.57,4.21,1.57,7.02c0,2.73-0.67,5.13-2.01,7.21c-1.34,2.08-3.26,3.68-5.77,4.81
						l11.31,18.06h-17.2l-8.53-15.92h-0.44v15.92h-14.54V34.07z M231.8,52.88h2.93c0.5,0,1.05-0.04,1.65-0.13
						c0.6-0.08,1.17-0.26,1.69-0.54c0.52-0.27,0.96-0.65,1.31-1.13c0.35-0.48,0.53-1.12,0.53-1.92c0-0.8-0.15-1.43-0.44-1.89
						c-0.29-0.46-0.67-0.81-1.12-1.04s-0.96-0.38-1.5-0.44c-0.54-0.06-1.04-0.09-1.5-0.09h-3.56V52.88z"/>
					<path class="st4" d="M262.32,34.07h15.1v44.55h-15.1V34.07z"/>
					<path class="st4" d="M298.13,34.07h15.92l17.37,44.55h-16.3l-2.33-6.54h-14.16l-2.2,6.54h-15.86L298.13,34.07z M305.87,49.61
						l-3.65,11.01h7.24L305.87,49.61z"/>
					<path class="st4" d="M366.78,52.88c0.71-0.54,1.3-1.15,1.76-1.83c0.46-0.67,0.69-1.36,0.69-2.08c0-0.84-0.26-1.57-0.79-2.2
						c-0.52-0.63-1.35-0.94-2.49-0.94c-1.22,0-2.22,0.48-3.02,1.45c-0.8,0.97-1.24,2.27-1.32,3.9l-14.28-1.64
						c0.29-2.89,1.05-5.39,2.27-7.49c1.22-2.1,2.74-3.84,4.56-5.22c1.83-1.38,3.86-2.4,6.1-3.05c2.24-0.65,4.56-0.97,6.95-0.97
						c2.18,0,4.35,0.27,6.51,0.82c2.16,0.55,4.08,1.4,5.76,2.55c1.68,1.15,3.04,2.65,4.09,4.5c1.05,1.85,1.57,4.07,1.57,6.67
						c0,1.85-0.24,3.47-0.72,4.88c-0.48,1.41-1.13,2.65-1.95,3.74c-0.82,1.09-1.74,2.08-2.77,2.96c-1.03,0.88-2.11,1.72-3.24,2.52
						l-6.54,4.66h15.35v12.52h-36.12V66.98L366.78,52.88z"/>
				</g>
			</g>
		</g>
	</g>
</g>
</svg>
