<?xml version="1.0" encoding="utf-8"?>
<!-- Generator: Adobe Illustrator 25.2.3, SVG Export Plug-In . SVG Version: 6.00 Build 0)  -->
<svg version="1.1" xmlns="http://www.w3.org/2000/svg" xmlns:xlink="http://www.w3.org/1999/xlink" x="0px" y="0px"
	 viewBox="0 0 378 114.87" style="enable-background:new 0 0 378 114.87;" xml:space="preserve">
<style type="text/css">
	.st0{clip-path:url(#XMLID_3_);}
	.st1{opacity:0.25;clip-path:url(#SVGID_2_);}
	.st2{fill:#F6D968;}
	.st3{fill:#B98601;}
	.st4{fill:#FFFFFF;}
	.st5{clip-path:url(#XMLID_5_);}
	.st6{opacity:0.25;clip-path:url(#SVGID_4_);}
	.st7{clip-path:url(#XMLID_7_);}
	.st8{opacity:0.25;clip-path:url(#SVGID_6_);}
	.st9{opacity:0.25;clip-path:url(#XMLID_10_);}
	.st10{opacity:0.25;clip-path:url(#XMLID_12_);}
	.st11{opacity:0.25;clip-path:url(#XMLID_14_);}
	.st12{fill:url(#SVGID_7_);}
	.st13{fill:url(#SVGID_8_);}
	.st14{fill:url(#SVGID_9_);}
	.st15{fill:url(#SVGID_10_);}
	.st16{opacity:0.7;fill:#60DFFF;}
	.st17{fill:url(#SVGID_11_);}
	.st18{fill:#D7F7FF;}
	.st19{fill:url(#SVGID_12_);}
	.st20{fill:url(#SVGID_13_);}
	.st21{opacity:0.25;clip-path:url(#SVGID_15_);}
	.st22{fill:#53CFFC;}
	.st23{fill:#017BD2;}
	.st24{fill:url(#SVGID_16_);}
	.st25{opacity:0.25;}
	.st26{clip-path:url(#SVGID_18_);}
	.st27{fill:url(#SVGID_19_);}
	.st28{opacity:0.25;clip-path:url(#SVGID_21_);}
	.st29{fill:url(#SVGID_22_);}
	.st30{clip-path:url(#SVGID_24_);}
	.st31{fill:url(#SVGID_25_);}
	.st32{opacity:0.25;clip-path:url(#SVGID_27_);}
	.st33{fill:url(#SVGID_28_);}
	.st34{clip-path:url(#SVGID_30_);}
	.st35{fill:url(#SVGID_31_);}
	.st36{opacity:0.25;clip-path:url(#SVGID_33_);}
	.st37{fill:url(#SVGID_34_);}
	.st38{clip-path:url(#SVGID_36_);}
	.st39{fill:#60DFFF;}
	.st40{fill:url(#SVGID_37_);}
	.st41{opacity:0.25;clip-path:url(#SVGID_39_);}
	.st42{fill:url(#SVGID_40_);}
	.st43{opacity:0.25;clip-path:url(#SVGID_42_);}
	.st44{fill:url(#SVGID_43_);}
	.st45{fill:#1E3865;}
</style>
<g id="FONDOS">
</g>
<g id="PERSONAJES">
</g>
<g id="INTERFACE">
	<g>
		<g>
			<g>
				<g>
					<defs>
						<path id="XMLID_72_" d="M0,105.59V8.73C0,3.91,3.91,0,8.73,0h360.54c4.82,0,8.73,3.91,8.73,8.73v96.86
							c0,5.12-4.15,9.27-9.27,9.27H9.27C4.15,114.87,0,110.71,0,105.59z"/>
					</defs>
					
						<linearGradient id="XMLID_2_" gradientUnits="userSpaceOnUse" x1="248.9006" y1="8708.1855" x2="363.7666" y2="8708.1855" gradientTransform="matrix(0 1 -1 0 8897.1855 -248.9006)">
						<stop  offset="0.0642" style="stop-color:#FFEF88"/>
						<stop  offset="0.0877" style="stop-color:#FFEA78"/>
						<stop  offset="0.1428" style="stop-color:#FFE159"/>
						<stop  offset="0.2053" style="stop-color:#FFD93D"/>
						<stop  offset="0.2759" style="stop-color:#FFD327"/>
						<stop  offset="0.3583" style="stop-color:#FFCE16"/>
						<stop  offset="0.4602" style="stop-color:#FFCB0B"/>
						<stop  offset="0.6031" style="stop-color:#FFC904"/>
						<stop  offset="1" style="stop-color:#FFC802"/>
					</linearGradient>
					<use xlink:href="#XMLID_72_"  style="overflow:visible;fill:url(#XMLID_2_);"/>
					<clipPath id="XMLID_3_">
						<use xlink:href="#XMLID_72_"  style="overflow:visible;"/>
					</clipPath>
					<g class="st0">
						<defs>
							<path id="SVGID_5_" d="M0,114.87V8.73C0,3.91,3.91,0,8.73,0h360.54c4.82,0,8.73,3.91,8.73,8.73v106.14H0z"/>
						</defs>
						<clipPath id="SVGID_2_">
							<use xlink:href="#SVGID_5_"  style="overflow:visible;"/>
						</clipPath>
						<g class="st1">
							<polygon class="st2" points="42.07,9.89 13.5,26.19 13.5,41.61 31.84,31.72 31.84,50.57 42.07,57.2 52.31,50.57 52.31,31.72 
								70.65,41.61 70.65,26.19 							"/>
							<polygon class="st2" points="-23.67,9.89 -52.25,26.19 -52.25,41.61 -33.91,31.72 -33.91,50.57 -23.67,57.2 -13.44,50.57 
								-13.44,31.72 4.9,41.61 4.9,26.19 							"/>
							<polygon class="st2" points="106.25,9.89 77.67,26.19 77.67,41.61 96.01,31.72 96.01,50.57 106.25,57.2 116.49,50.57 
								116.49,31.72 134.83,41.61 134.83,26.19 							"/>
							<polygon class="st2" points="170.42,9.89 141.85,26.19 141.85,41.61 160.19,31.72 160.19,50.57 170.42,57.2 180.66,50.57 
								180.66,31.72 199,41.61 199,26.19 							"/>
							<polygon class="st2" points="234.6,9.89 206.02,26.19 206.02,41.61 224.36,31.72 224.36,50.57 234.6,57.2 244.84,50.57 
								244.84,31.72 263.18,41.61 263.18,26.19 							"/>
							<polygon class="st2" points="298.78,9.89 270.2,26.19 270.2,41.61 288.54,31.72 288.54,50.57 298.78,57.2 309.01,50.57 
								309.01,31.72 327.35,41.61 327.35,26.19 							"/>
							<polygon class="st2" points="362.95,9.89 334.38,26.19 334.38,41.61 352.72,31.72 352.72,50.57 362.95,57.2 373.19,50.57 
								373.19,31.72 391.53,41.61 391.53,26.19 							"/>
						</g>
						<g class="st1">
							<polygon class="st2" points="9.98,48.03 -18.59,64.33 -18.59,79.75 -0.25,69.85 -0.25,88.71 9.98,95.33 20.22,88.71 
								20.22,69.85 38.56,79.75 38.56,64.33 							"/>
							<polygon class="st2" points="74.16,48.03 45.58,64.33 45.58,79.75 63.92,69.85 63.92,88.71 74.16,95.33 84.4,88.71 
								84.4,69.85 102.74,79.75 102.74,64.33 							"/>
							<polygon class="st2" points="138.34,48.03 109.76,64.33 109.76,79.75 128.1,69.85 128.1,88.71 138.34,95.33 148.57,88.71 
								148.57,69.85 166.91,79.75 166.91,64.33 							"/>
							<polygon class="st2" points="202.51,48.03 173.94,64.33 173.94,79.75 192.28,69.85 192.28,88.71 202.51,95.33 212.75,88.71 
								212.75,69.85 231.09,79.75 231.09,64.33 							"/>
							<polygon class="st2" points="266.69,48.03 238.11,64.33 238.11,79.75 256.45,69.85 256.45,88.71 266.69,95.33 276.93,88.71 
								276.93,69.85 295.27,79.75 295.27,64.33 							"/>
							<polygon class="st2" points="330.87,48.03 302.29,64.33 302.29,79.75 320.63,69.85 320.63,88.71 330.87,95.33 341.1,88.71 
								341.1,69.85 359.44,79.75 359.44,64.33 							"/>
							<polygon class="st2" points="395.04,48.03 366.46,64.33 366.46,79.75 384.81,69.85 384.81,88.71 395.04,95.33 405.28,88.71 
								405.28,69.85 423.62,79.75 423.62,64.33 							"/>
						</g>
						<g class="st1">
							<polygon class="st2" points="41.08,87.09 12.5,103.39 12.5,118.81 30.84,108.91 30.84,127.77 41.08,134.4 51.31,127.77 
								51.31,108.91 69.65,118.81 69.65,103.39 							"/>
							<polygon class="st2" points="-23.5,87.09 -52.08,103.39 -52.08,118.81 -33.74,108.91 -33.74,127.77 -23.5,134.4 
								-13.26,127.77 -13.26,108.91 5.08,118.81 5.08,103.39 							"/>
							<polygon class="st2" points="105.65,87.09 77.07,103.39 77.07,118.81 95.41,108.91 95.41,127.77 105.65,134.4 115.89,127.77 
								115.89,108.91 134.23,118.81 134.23,103.39 							"/>
							<polygon class="st2" points="170.23,87.09 141.65,103.39 141.65,118.81 159.99,108.91 159.99,127.77 170.23,134.4 
								180.46,127.77 180.46,108.91 198.8,118.81 198.8,103.39 							"/>
							<polygon class="st2" points="234.8,87.09 206.22,103.39 206.22,118.81 224.56,108.91 224.56,127.77 234.8,134.4 
								245.04,127.77 245.04,108.91 263.38,118.81 263.38,103.39 							"/>
							<polygon class="st2" points="299.38,87.09 270.8,103.39 270.8,118.81 289.14,108.91 289.14,127.77 299.38,134.4 
								309.61,127.77 309.61,108.91 327.95,118.81 327.95,103.39 							"/>
							<polygon class="st2" points="363.95,87.09 335.37,103.39 335.37,118.81 353.71,108.91 353.71,127.77 363.95,134.4 
								374.19,127.77 374.19,108.91 392.53,118.81 392.53,103.39 							"/>
						</g>
					</g>
				</g>
			</g>
		</g>
		<g>
			<g>
				<g>
					<path class="st3" d="M27.73,61.35c0-3.56,0.64-6.8,1.91-9.69c1.27-2.89,3.01-5.37,5.21-7.43c2.2-2.05,4.8-3.64,7.78-4.75
						c2.99-1.11,6.17-1.67,9.56-1.67c3.47,0,6.76,0.56,9.85,1.67c3.09,1.11,5.68,2.61,7.75,4.5l-9.28,11.07
						c-0.85-1.09-1.91-1.92-3.18-2.49s-2.69-0.85-4.26-0.85c-1.27,0-2.46,0.22-3.56,0.66c-1.1,0.44-2.07,1.08-2.89,1.92
						c-0.83,0.84-1.47,1.86-1.94,3.05c-0.47,1.2-0.7,2.53-0.7,4c0,1.47,0.24,2.78,0.73,3.93c0.49,1.15,1.14,2.15,1.97,2.99
						c0.83,0.84,1.79,1.48,2.89,1.92c1.1,0.44,2.27,0.66,3.49,0.66c1.74,0,3.23-0.36,4.48-1.07c1.25-0.71,2.23-1.55,2.95-2.52
						l9.28,11.01c-2.03,2.01-4.53,3.62-7.5,4.81c-2.97,1.2-6.33,1.79-10.1,1.79c-3.39,0-6.58-0.57-9.56-1.7s-5.58-2.74-7.78-4.81
						c-2.2-2.08-3.94-4.55-5.21-7.43C28.37,68.07,27.73,64.87,27.73,61.35z"/>
					<path class="st3" d="M109.19,66.95c0,2.85-0.52,5.39-1.56,7.61c-1.04,2.22-2.44,4.1-4.19,5.63c-1.76,1.53-3.79,2.7-6.1,3.49
						c-2.31,0.8-4.73,1.2-7.28,1.2c-2.5,0-4.9-0.4-7.21-1.2c-2.31-0.8-4.33-1.96-6.07-3.49c-1.74-1.53-3.12-3.41-4.16-5.63
						c-1.04-2.22-1.56-4.76-1.56-7.61c0-2.81,0.52-5.32,1.56-7.52c1.04-2.2,2.42-4.06,4.16-5.57c1.74-1.51,3.76-2.65,6.07-3.43
						c2.31-0.78,4.71-1.16,7.21-1.16c2.54,0,4.97,0.39,7.28,1.16c2.31,0.78,4.34,1.92,6.1,3.43c1.76,1.51,3.16,3.37,4.19,5.57
						C108.67,61.63,109.19,64.14,109.19,66.95z M90.07,61.54c-1.61,0-2.91,0.55-3.91,1.64c-1,1.09-1.49,2.37-1.49,3.84
						c0,1.55,0.51,2.87,1.53,3.96c1.02,1.09,2.33,1.64,3.94,1.64c1.61,0,2.92-0.54,3.94-1.64c1.02-1.09,1.53-2.41,1.53-3.96
						c0-1.47-0.52-2.75-1.56-3.84C93,62.08,91.68,61.54,90.07,61.54z"/>
					<path class="st3" d="M114.59,50.52h14.3v3.65h0.13c0.84-1.22,2.1-2.28,3.77-3.18c1.67-0.9,3.58-1.35,5.73-1.35
						c2.32,0,4.25,0.42,5.8,1.26c1.54,0.84,2.77,1.92,3.67,3.24c0.91,1.32,1.54,2.8,1.9,4.44s0.54,3.27,0.54,4.91v20.14h-14.68V66
						c0-1.68-0.27-2.85-0.79-3.52c-0.53-0.67-1.32-1.01-2.38-1.01c-0.98,0-1.77,0.39-2.38,1.16c-0.61,0.78-0.92,1.9-0.92,3.37v17.62
						h-14.68V50.52z"/>
					<path class="st3" d="M171.46,84.5c-4.49,0-7.82-0.95-9.98-2.86c-2.16-1.91-3.24-4.88-3.24-8.9V60.91h-4.7V50.52h4.64V43.1
						h14.23v7.42h7.24v10.38h-7.24v8.81c0,1.59,0.35,2.67,1.05,3.24c0.7,0.57,1.66,0.85,2.89,0.85c0.47,0,0.95-0.04,1.46-0.13
						c0.51-0.08,0.91-0.17,1.21-0.25v9.94c-0.76,0.33-1.83,0.61-3.21,0.82C174.44,84.4,172.99,84.5,171.46,84.5z"/>
					<path class="st3" d="M183.47,40.96c0-1.01,0.2-1.96,0.6-2.86c0.4-0.9,0.95-1.69,1.65-2.36c0.7-0.67,1.51-1.21,2.45-1.6
						c0.93-0.4,1.93-0.6,2.99-0.6c1.02,0,1.97,0.2,2.86,0.6c0.89,0.4,1.68,0.93,2.38,1.6c0.7,0.67,1.25,1.46,1.65,2.36
						c0.4,0.9,0.6,1.86,0.6,2.86c0,1.05-0.2,2.02-0.6,2.93c-0.4,0.9-0.95,1.68-1.65,2.33c-0.7,0.65-1.49,1.16-2.38,1.54
						s-1.84,0.57-2.86,0.57c-1.06,0-2.06-0.19-2.99-0.57c-0.93-0.38-1.75-0.89-2.45-1.54c-0.7-0.65-1.25-1.43-1.65-2.33
						C183.67,42.98,183.47,42.01,183.47,40.96z M183.73,50.52h14.68v33.1h-14.68V50.52z"/>
					<path class="st3" d="M205.2,50.52h14.3v3.65h0.13c0.84-1.22,2.1-2.28,3.77-3.18c1.67-0.9,3.58-1.35,5.73-1.35
						c2.32,0,4.25,0.42,5.8,1.26c1.54,0.84,2.77,1.92,3.67,3.24c0.91,1.32,1.54,2.8,1.9,4.44s0.54,3.27,0.54,4.91v20.14h-14.68V66
						c0-1.68-0.27-2.85-0.79-3.52c-0.53-0.67-1.32-1.01-2.38-1.01c-0.98,0-1.77,0.39-2.38,1.16c-0.61,0.78-0.92,1.9-0.92,3.37v17.62
						H205.2V50.52z"/>
					<path class="st3" d="M282.91,83.62h-14.3v-3.65h-0.13c-0.85,1.22-2.11,2.28-3.78,3.18c-1.67,0.9-3.59,1.35-5.75,1.35
						c-2.37,0-4.32-0.41-5.85-1.23c-1.52-0.82-2.74-1.89-3.65-3.21c-0.91-1.32-1.55-2.81-1.91-4.47c-0.36-1.66-0.54-3.3-0.54-4.94
						V50.52h14.68v17.49c0,1.68,0.27,2.85,0.8,3.52c0.53,0.67,1.34,1.01,2.41,1.01c0.98,0,1.79-0.39,2.41-1.16
						c0.62-0.78,0.93-1.9,0.93-3.37V50.52h14.68V83.62z"/>
					<path class="st3" d="M307.38,62.6c0-1.01-0.35-1.75-1.05-2.23c-0.7-0.48-1.62-0.72-2.76-0.72c-1.36,0-2.64,0.28-3.84,0.85
						c-1.21,0.57-2.28,1.23-3.21,1.98l-7.31-7.17c2.03-1.93,4.45-3.42,7.24-4.47c2.8-1.05,5.68-1.57,8.64-1.57
						c3.18,0,5.8,0.44,7.88,1.32c2.08,0.88,3.72,2.1,4.92,3.65c1.21,1.55,2.05,3.36,2.54,5.41c0.49,2.06,0.73,4.24,0.73,6.54v17.43
						h-13.28v-2.64h-0.13c-0.85,1.26-2.06,2.16-3.62,2.71c-1.57,0.54-3.09,0.82-4.58,0.82c-1.31,0-2.66-0.19-4.03-0.57
						c-1.38-0.38-2.63-0.98-3.75-1.82c-1.12-0.84-2.04-1.93-2.76-3.27c-0.72-1.34-1.08-3-1.08-4.97c0-2.31,0.6-4.18,1.81-5.63
						c1.21-1.45,2.74-2.58,4.61-3.4c1.86-0.82,3.95-1.37,6.26-1.67c2.31-0.29,4.56-0.44,6.77-0.44V62.6z M307.51,69.9
						c-2.16,0-3.9,0.23-5.21,0.69c-1.31,0.46-1.97,1.32-1.97,2.58c0,0.46,0.11,0.85,0.32,1.16c0.21,0.31,0.49,0.58,0.83,0.79
						c0.34,0.21,0.71,0.37,1.11,0.47c0.4,0.1,0.77,0.16,1.11,0.16c1.4,0,2.52-0.44,3.37-1.32c0.85-0.88,1.27-2.01,1.27-3.4V69.9
						H307.51z"/>
					<path class="st3" d="M327.2,50.52h14.11v3.78h0.13c0.72-1.34,1.79-2.45,3.21-3.33c1.42-0.88,3.08-1.32,4.99-1.32
						c1.14,0,2.08,0.11,2.8,0.31l-1.14,12.33c-0.47-0.13-0.98-0.22-1.56-0.28c-0.57-0.06-1.09-0.09-1.56-0.09
						c-1.91,0-3.43,0.55-4.58,1.64c-1.14,1.09-1.72,2.43-1.72,4.03v16.05H327.2V50.52z"/>
				</g>
			</g>
			<g>
				<g>
					<path class="st4" d="M30.69,56.35c0-3.57,0.63-6.8,1.89-9.69c1.26-2.89,2.98-5.37,5.16-7.43c2.18-2.05,4.75-3.64,7.71-4.75
						c2.96-1.11,6.11-1.67,9.47-1.67c3.44,0,6.69,0.56,9.75,1.67c3.06,1.11,5.62,2.61,7.68,4.5l-9.19,11.08
						c-0.84-1.09-1.89-1.92-3.15-2.49s-2.67-0.85-4.22-0.85c-1.26,0-2.43,0.22-3.52,0.66s-2.04,1.08-2.86,1.92
						c-0.82,0.84-1.46,1.86-1.92,3.05c-0.46,1.2-0.69,2.53-0.69,4c0,1.47,0.24,2.78,0.72,3.93c0.48,1.15,1.13,2.15,1.95,2.99
						s1.77,1.48,2.86,1.92c1.09,0.44,2.24,0.66,3.46,0.66c1.72,0,3.2-0.36,4.44-1.07c1.24-0.71,2.21-1.55,2.93-2.52l9.19,11.01
						c-2.01,2.01-4.49,3.62-7.42,4.81c-2.94,1.2-6.27,1.79-10,1.79c-3.36,0-6.51-0.57-9.47-1.7c-2.96-1.13-5.53-2.74-7.71-4.81
						c-2.18-2.08-3.9-4.55-5.16-7.43C31.31,63.07,30.69,59.87,30.69,56.35z"/>
					<path class="st4" d="M111.36,61.95c0,2.85-0.51,5.39-1.54,7.61c-1.03,2.22-2.41,4.1-4.15,5.63c-1.74,1.53-3.75,2.7-6.04,3.49
						c-2.29,0.8-4.69,1.2-7.21,1.2c-2.48,0-4.86-0.4-7.14-1.2c-2.29-0.8-4.29-1.96-6.01-3.49c-1.72-1.53-3.09-3.41-4.12-5.63
						c-1.03-2.22-1.54-4.76-1.54-7.61c0-2.81,0.51-5.32,1.54-7.52c1.03-2.2,2.4-4.06,4.12-5.57c1.72-1.51,3.72-2.65,6.01-3.43
						c2.29-0.78,4.67-1.16,7.14-1.16c2.52,0,4.92,0.39,7.21,1.16c2.29,0.78,4.3,1.92,6.04,3.43c1.74,1.51,3.12,3.37,4.15,5.57
						C110.84,56.63,111.36,59.14,111.36,61.95z M92.41,56.54c-1.59,0-2.88,0.55-3.87,1.64c-0.99,1.09-1.48,2.37-1.48,3.84
						c0,1.55,0.5,2.87,1.51,3.96c1.01,1.09,2.31,1.64,3.9,1.64c1.59,0,2.89-0.54,3.9-1.64c1.01-1.09,1.51-2.41,1.51-3.96
						c0-1.47-0.51-2.75-1.54-3.84C95.32,57.08,94.01,56.54,92.41,56.54z"/>
					<path class="st4" d="M116.7,45.52h14.16v3.65h0.13c0.84-1.22,2.08-2.28,3.73-3.18c1.65-0.9,3.54-1.35,5.68-1.35
						c2.3,0,4.21,0.42,5.74,1.26c1.53,0.84,2.74,1.92,3.64,3.24c0.9,1.32,1.53,2.8,1.88,4.44c0.36,1.64,0.53,3.27,0.53,4.91v20.14
						h-14.54V61c0-1.68-0.26-2.85-0.79-3.52c-0.53-0.67-1.31-1.01-2.36-1.01c-0.96,0-1.75,0.39-2.36,1.16
						c-0.61,0.78-0.91,1.9-0.91,3.37v17.62H116.7V45.52z"/>
					<path class="st4" d="M173.02,79.5c-4.45,0-7.74-0.95-9.88-2.86c-2.14-1.91-3.21-4.88-3.21-8.9V55.91h-4.66V45.52h4.59V38.1
						h14.09v7.43h7.17v10.38h-7.17v8.81c0,1.59,0.35,2.67,1.04,3.24c0.69,0.57,1.65,0.85,2.86,0.85c0.46,0,0.94-0.04,1.45-0.13
						c0.5-0.08,0.9-0.17,1.2-0.25v9.94c-0.75,0.34-1.82,0.61-3.18,0.82C175.97,79.4,174.53,79.5,173.02,79.5z"/>
					<path class="st4" d="M184.91,35.96c0-1.01,0.2-1.96,0.6-2.86c0.4-0.9,0.94-1.69,1.64-2.36c0.69-0.67,1.5-1.21,2.42-1.6
						c0.92-0.4,1.91-0.6,2.96-0.6c1.01,0,1.95,0.2,2.83,0.6c0.88,0.4,1.67,0.93,2.36,1.6c0.69,0.67,1.24,1.46,1.64,2.36
						c0.4,0.9,0.6,1.86,0.6,2.86c0,1.05-0.2,2.03-0.6,2.93c-0.4,0.9-0.94,1.68-1.64,2.33c-0.69,0.65-1.48,1.16-2.36,1.54
						c-0.88,0.38-1.82,0.57-2.83,0.57c-1.05,0-2.04-0.19-2.96-0.57c-0.92-0.38-1.73-0.89-2.42-1.54s-1.24-1.43-1.64-2.33
						C185.11,37.98,184.91,37.01,184.91,35.96z M185.17,45.52h14.54v33.1h-14.54V45.52z"/>
					<path class="st4" d="M206.43,45.52h14.16v3.65h0.13c0.84-1.22,2.08-2.28,3.73-3.18c1.65-0.9,3.54-1.35,5.68-1.35
						c2.3,0,4.21,0.42,5.74,1.26c1.53,0.84,2.74,1.92,3.64,3.24c0.9,1.32,1.53,2.8,1.88,4.44c0.36,1.64,0.53,3.27,0.53,4.91v20.14
						h-14.54V61c0-1.68-0.26-2.85-0.79-3.52c-0.53-0.67-1.31-1.01-2.36-1.01c-0.96,0-1.75,0.39-2.36,1.16
						c-0.61,0.78-0.91,1.9-0.91,3.37v17.62h-14.54V45.52z"/>
					<path class="st4" d="M283.39,78.62h-14.16v-3.65h-0.13c-0.84,1.22-2.09,2.28-3.74,3.18c-1.66,0.9-3.56,1.35-5.69,1.35
						c-2.35,0-4.28-0.41-5.79-1.23c-1.51-0.82-2.72-1.89-3.62-3.21c-0.9-1.32-1.53-2.81-1.89-4.47c-0.36-1.66-0.53-3.3-0.53-4.94
						V45.52h14.54v17.49c0,1.68,0.26,2.85,0.79,3.52c0.53,0.67,1.32,1.01,2.38,1.01c0.97,0,1.77-0.39,2.38-1.16
						c0.61-0.78,0.92-1.9,0.92-3.37V45.52h14.54V78.62z"/>
					<path class="st4" d="M307.62,57.61c0-1.01-0.35-1.75-1.04-2.23c-0.69-0.48-1.61-0.72-2.74-0.72c-1.34,0-2.61,0.28-3.81,0.85
						s-2.25,1.23-3.18,1.98l-7.24-7.17c2.01-1.93,4.41-3.42,7.17-4.47c2.77-1.05,5.62-1.57,8.56-1.57c3.15,0,5.75,0.44,7.8,1.32
						c2.05,0.88,3.68,2.1,4.88,3.65c1.2,1.55,2.03,3.36,2.52,5.41c0.48,2.06,0.72,4.24,0.72,6.54v17.43h-13.15v-2.64h-0.13
						c-0.84,1.26-2.04,2.16-3.59,2.71c-1.55,0.54-3.06,0.82-4.53,0.82c-1.3,0-2.63-0.19-4-0.57c-1.36-0.38-2.6-0.99-3.71-1.82
						c-1.11-0.84-2.02-1.93-2.74-3.27c-0.71-1.34-1.07-3-1.07-4.97c0-2.31,0.6-4.18,1.79-5.63c1.2-1.45,2.72-2.58,4.56-3.4
						s3.91-1.37,6.2-1.67c2.29-0.29,4.52-0.44,6.7-0.44V57.61z M307.74,64.91c-2.14,0-3.86,0.23-5.16,0.69
						c-1.3,0.46-1.95,1.32-1.95,2.58c0,0.46,0.1,0.85,0.32,1.16c0.21,0.31,0.48,0.58,0.82,0.79c0.33,0.21,0.7,0.37,1.1,0.47
						c0.4,0.11,0.76,0.16,1.1,0.16c1.38,0,2.5-0.44,3.34-1.32c0.84-0.88,1.26-2.01,1.26-3.4v-1.13H307.74z"/>
					<path class="st4" d="M327.25,45.52h13.97v3.78h0.13c0.71-1.34,1.77-2.45,3.18-3.33c1.4-0.88,3.05-1.32,4.94-1.32
						c1.13,0,2.05,0.1,2.77,0.31l-1.13,12.33c-0.46-0.13-0.97-0.22-1.54-0.28c-0.57-0.06-1.08-0.09-1.54-0.09
						c-1.89,0-3.4,0.54-4.53,1.64c-1.13,1.09-1.7,2.43-1.7,4.03v16.05h-14.54V45.52z"/>
				</g>
			</g>
		</g>
	</g>
</g>
</svg>
