<svg xmlns="http://www.w3.org/2000/svg" xmlns:xlink="http://www.w3.org/1999/xlink" viewBox="0 0 165.36 131.89"><defs><style>.cls-1{fill:#fff;}.cls-2{fill:url(#Degradado_sin_nombre_32);}.cls-3{opacity:0.4;}.cls-4{fill:#004cff;}</style><linearGradient id="Degradado_sin_nombre_32" x1="13163.98" y1="6245.62" x2="13163.98" y2="6368.57" gradientTransform="translate(13261.13 6377.51) rotate(180)" gradientUnits="userSpaceOnUse"><stop offset="0" stop-color="#60dfff"/><stop offset="1" stop-color="#0baaff"/></linearGradient></defs><g id="INTERFACE"><path class="cls-1" d="M0,131.89,11.17,67.22C17.86,28.46,53.29,0,94.83,0h70.53V131.89Z"/><path class="cls-2" d="M29,131.89l9.46-62.74A71.75,71.75,0,0,1,109.23,8.94h56.13v123Z"/><g id="jn0FLP" class="cls-3"><path class="cls-4" d="M117.83,84.84v19.92c0,.27,0,.53,0,.8a3.08,3.08,0,0,0,2.82,3.4,26.57,26.57,0,0,0,5.84.31c.79,0,1,.24,1,1a34.63,34.63,0,0,0,0,3.53c0,.65-.2.79-.81.79-5.87,0-11.73,0-17.59,0-7,0-13.92,0-20.88,0-.75,0-1-.22-.92-.94.06-1.21,0-2.41,0-3.62,0-.61.2-.76.78-.76,1.71,0,3.42,0,5.13-.1,3.14-.21,4.21-1.4,4.21-4.54V74.05c0-2.56-.9-3.7-3.4-4.31a24,24,0,0,0-6.71-.23c-.78,0-1-.14-1-.94.07-1.14,0-2.3,0-3.45,0-.59.12-.83.78-.84,3.82-.12,7.65-.29,11.47-.42l18.22-.65c1,0,1.06,0,1.06,1Z"/><path class="cls-4" d="M105.53,55.47A11.57,11.57,0,1,1,117.15,44,11.58,11.58,0,0,1,105.53,55.47Z"/></g><g id="jn0FLP-2" data-name="jn0FLP"><path class="cls-1" d="M117.83,80.39V100.3c0,.27,0,.54,0,.81a3.08,3.08,0,0,0,2.82,3.4,27.19,27.19,0,0,0,5.84.31c.79,0,1,.24,1,1a34.64,34.64,0,0,0,0,3.53c0,.66-.2.8-.81.79-5.87,0-11.73,0-17.59,0-7,0-13.92,0-20.88,0-.75,0-1-.22-.92-.94.06-1.2,0-2.41,0-3.61,0-.62.2-.77.78-.77,1.71,0,3.42,0,5.13-.1,3.14-.21,4.21-1.39,4.21-4.54V69.6c0-2.56-.9-3.71-3.4-4.31a24,24,0,0,0-6.71-.24c-.78,0-1-.14-1-.93.07-1.15,0-2.3,0-3.45,0-.6.12-.83.78-.85,3.82-.11,7.65-.28,11.47-.42l18.22-.65c1,0,1.06,0,1.06,1Z"/><path class="cls-1" d="M105.53,51a11.56,11.56,0,1,1,11.62-11.47A11.58,11.58,0,0,1,105.53,51Z"/></g></g></svg>