<?xml version="1.0" encoding="utf-8"?>
<!-- Generator: Adobe Illustrator 25.2.3, SVG Export Plug-In . SVG Version: 6.00 Build 0)  -->
<svg version="1.1" xmlns="http://www.w3.org/2000/svg" xmlns:xlink="http://www.w3.org/1999/xlink" x="0px" y="0px"
	 viewBox="0 0 132.33 131.35" style="enable-background:new 0 0 132.33 131.35;" xml:space="preserve">
<style type="text/css">
	.st0{clip-path:url(#XMLID_3_);}
	.st1{opacity:0.25;clip-path:url(#SVGID_2_);}
	.st2{fill:#F6D968;}
	.st3{fill:#B98601;}
	.st4{fill:#FFFFFF;}
	.st5{clip-path:url(#XMLID_5_);}
	.st6{opacity:0.25;clip-path:url(#SVGID_4_);}
	.st7{clip-path:url(#XMLID_7_);}
	.st8{opacity:0.25;clip-path:url(#SVGID_6_);}
	.st9{opacity:0.25;clip-path:url(#XMLID_10_);}
	.st10{opacity:0.25;clip-path:url(#XMLID_12_);}
	.st11{opacity:0.25;clip-path:url(#XMLID_14_);}
	.st12{fill:url(#SVGID_7_);}
	.st13{fill:url(#SVGID_8_);}
	.st14{fill:url(#SVGID_9_);}
	.st15{fill:url(#SVGID_10_);}
	.st16{opacity:0.7;fill:#60DFFF;}
	.st17{fill:url(#SVGID_11_);}
	.st18{fill:#D7F7FF;}
	.st19{fill:url(#SVGID_12_);}
	.st20{fill:url(#SVGID_13_);}
	.st21{opacity:0.25;clip-path:url(#SVGID_15_);}
	.st22{fill:#53CFFC;}
	.st23{fill:#017BD2;}
	.st24{fill:url(#SVGID_16_);}
	.st25{opacity:0.25;}
	.st26{clip-path:url(#SVGID_18_);}
	.st27{fill:url(#SVGID_19_);}
	.st28{opacity:0.25;clip-path:url(#SVGID_21_);}
	.st29{fill:url(#SVGID_22_);}
	.st30{clip-path:url(#SVGID_24_);}
	.st31{fill:url(#SVGID_25_);}
	.st32{opacity:0.25;clip-path:url(#SVGID_27_);}
	.st33{fill:url(#SVGID_28_);}
	.st34{clip-path:url(#SVGID_30_);}
	.st35{fill:url(#SVGID_31_);}
	.st36{opacity:0.25;clip-path:url(#SVGID_33_);}
	.st37{fill:url(#SVGID_34_);}
	.st38{clip-path:url(#SVGID_36_);}
	.st39{fill:#60DFFF;}
	.st40{fill:url(#SVGID_37_);}
	.st41{opacity:0.25;clip-path:url(#SVGID_39_);}
	.st42{fill:url(#SVGID_40_);}
	.st43{opacity:0.25;clip-path:url(#SVGID_42_);}
	.st44{fill:url(#SVGID_43_);}
	.st45{fill:#1E3865;}
</style>
<g id="FONDOS">
</g>
<g id="PERSONAJES">
</g>
<g id="INTERFACE">
	<g>
		<g>
			<path class="st4" d="M126.61,131.35H5.72c-3.16,0-5.72-2.56-5.72-5.72V5.72C0,2.56,2.56,0,5.72,0h120.89
				c3.16,0,5.72,2.56,5.72,5.72v119.91C132.33,128.79,129.77,131.35,126.61,131.35z"/>
			
				<linearGradient id="SVGID_2_" gradientUnits="userSpaceOnUse" x1="-221.7058" y1="8358.8105" x2="-106.9942" y2="8358.8105" gradientTransform="matrix(0 1 -1 0 8424.9736 230.5957)">
				<stop  offset="0" style="stop-color:#60DFFF"/>
				<stop  offset="1" style="stop-color:#0BAAFF"/>
			</linearGradient>
			<path style="fill:url(#SVGID_2_);" d="M7.82,117.39V15.03c0-3.39,2.75-6.14,6.14-6.14h104.41c3.39,0,6.14,2.75,6.14,6.14v102.36
				c0,3.43-2.78,6.22-6.22,6.22H14.04C10.6,123.6,7.82,120.82,7.82,117.39z"/>
			<g>
				<defs>
					<path id="SVGID_38_" d="M7.82,117.39V15.03c0-3.39,2.75-6.14,6.14-6.14h104.41c3.39,0,6.14,2.75,6.14,6.14v102.36
						c0,3.43-2.78,6.22-6.22,6.22H14.04C10.6,123.6,7.82,120.82,7.82,117.39z"/>
				</defs>
				<clipPath id="SVGID_4_">
					<use xlink:href="#SVGID_38_"  style="overflow:visible;"/>
				</clipPath>
				<g class="st6">
					<polygon class="st22" points="36.29,18.77 7.75,35.05 7.75,50.45 26.07,40.56 26.07,59.39 36.29,66.01 46.51,59.39 
						46.51,40.56 64.83,50.45 64.83,35.05 					"/>
					<polygon class="st22" points="100.38,18.77 71.84,35.05 71.84,50.45 90.16,40.56 90.16,59.39 100.38,66.01 110.6,59.39 
						110.6,40.56 128.92,50.45 128.92,35.05 					"/>
				</g>
				<g class="st6">
					<polygon class="st22" points="4.24,56.85 -24.29,73.13 -24.29,88.53 -5.98,78.65 -5.98,97.48 4.24,104.1 14.47,97.48 
						14.47,78.65 32.78,88.53 32.78,73.13 					"/>
					<polygon class="st22" points="68.33,56.85 39.79,73.13 39.79,88.53 58.11,78.65 58.11,97.48 68.33,104.1 78.56,97.48 
						78.56,78.65 96.87,88.53 96.87,73.13 					"/>
					<polygon class="st22" points="132.42,56.85 103.88,73.13 103.88,88.53 122.2,78.65 122.2,97.48 132.42,104.1 142.65,97.48 
						142.65,78.65 160.96,88.53 160.96,73.13 					"/>
				</g>
				<g class="st6">
					<polygon class="st22" points="36.49,95.86 7.95,112.14 7.95,127.54 26.26,117.66 26.26,136.49 36.49,143.11 46.71,136.49 
						46.71,117.66 65.03,127.54 65.03,112.14 					"/>
					<polygon class="st22" points="100.98,95.86 72.44,112.14 72.44,127.54 90.75,117.66 90.75,136.49 100.98,143.11 111.2,136.49 
						111.2,117.66 129.51,127.54 129.51,112.14 					"/>
				</g>
			</g>
			<g>
				<path class="st23" d="M98.66,65.34H77.27l2.86-12.91c1.31-5.93-5.03-10.6-10.3-7.58L27.18,69.27c-4.69,2.69-4.69,9.45,0,12.14
					l42.65,24.42c5.27,3.02,11.61-1.65,10.3-7.58l-2.86-12.91h21.39c5.52,0,10-4.48,10-10v0C108.66,69.82,104.19,65.34,98.66,65.34z
					"/>
			</g>
			<path class="st4" d="M98.66,59.21H77.27l2.86-12.91c1.31-5.93-5.03-10.6-10.3-7.58L27.18,63.14c-4.69,2.69-4.69,9.45,0,12.14
				L69.83,99.7c5.27,3.02,11.61-1.65,10.3-7.58l-2.86-12.91h21.39c5.52,0,10-4.48,10-10v0C108.66,63.69,104.19,59.21,98.66,59.21z"
				/>
		</g>
	</g>
</g>
</svg>
