<svg xmlns="http://www.w3.org/2000/svg" xmlns:xlink="http://www.w3.org/1999/xlink" viewBox="0 0 414.61 128"><defs><style>.cls-1{fill:url(#Degradado_sin_nombre_35);}.cls-2{isolation:isolate;}.cls-12,.cls-3{fill:#fff;}.cls-4{clip-path:url(#clip-path);}.cls-5{opacity:0.25;mix-blend-mode:multiply;}.cls-6{fill:#f6d968;}.cls-12,.cls-7{font-size:62.93px;font-family:AvenirNext-Heavy, Avenir Next;font-weight:800;}.cls-7{fill:#b98601;}.cls-8{letter-spacing:-0.01em;}.cls-9{letter-spacing:-0.03em;}.cls-10{letter-spacing:0em;}.cls-11{letter-spacing:-0.02em;}.cls-13{letter-spacing:-0.01em;}.cls-14{letter-spacing:-0.03em;}.cls-15{letter-spacing:-0.02em;}</style><linearGradient id="Degradado_sin_nombre_35" x1="871.81" y1="3594.09" x2="986.68" y2="3594.09" gradientTransform="translate(-721.94 -3536.19)" gradientUnits="userSpaceOnUse"><stop offset="0.06" stop-color="#ffef88"/><stop offset="0.09" stop-color="#ffea78"/><stop offset="0.14" stop-color="#ffe159"/><stop offset="0.21" stop-color="#ffd93d"/><stop offset="0.28" stop-color="#ffd327"/><stop offset="0.36" stop-color="#ffce16"/><stop offset="0.46" stop-color="#ffcb0b"/><stop offset="0.6" stop-color="#ffc904"/><stop offset="1" stop-color="#ffc802"/></linearGradient><clipPath id="clip-path"><path class="cls-1" d="M149.87-142.05H255.47a9.27,9.27,0,0,1,9.27,9.27V248.58a9.27,9.27,0,0,1-9.27,9.27H149.87a0,0,0,0,1,0,0v-399.9A0,0,0,0,1,149.87-142.05Z" transform="translate(265.2 -149.41) rotate(90)"/></clipPath></defs><g class="cls-2"><g id="INTERFACE"><rect class="cls-3" width="414.61" height="128" rx="5.04"/><path class="cls-1" d="M149.87-142.05H255.47a9.27,9.27,0,0,1,9.27,9.27V248.58a9.27,9.27,0,0,1-9.27,9.27H149.87a0,0,0,0,1,0,0v-399.9A0,0,0,0,1,149.87-142.05Z" transform="translate(265.2 -149.41) rotate(90)"/><g class="cls-4"><g class="cls-5"><polygon class="cls-6" points="60.38 10.36 31.8 26.66 31.8 42.08 50.14 32.18 50.14 51.04 60.38 57.67 70.61 51.04 70.61 32.18 88.95 42.08 88.95 26.66 60.38 10.36"/><polygon class="cls-6" points="124.56 10.36 95.98 26.66 95.98 42.08 114.32 32.18 114.32 51.04 124.56 57.67 134.79 51.04 134.79 32.18 153.13 42.08 153.13 26.66 124.56 10.36"/><polygon class="cls-6" points="188.73 10.36 160.15 26.66 160.15 42.08 178.49 32.18 178.49 51.04 188.73 57.67 198.97 51.04 198.97 32.18 217.31 42.08 217.31 26.66 188.73 10.36"/><polygon class="cls-6" points="252.91 10.36 224.33 26.66 224.33 42.08 242.67 32.18 242.67 51.04 252.91 57.67 263.14 51.04 263.14 32.18 281.48 42.08 281.48 26.66 252.91 10.36"/><polygon class="cls-6" points="317.08 10.36 288.51 26.66 288.51 42.08 306.85 32.18 306.85 51.04 317.08 57.67 327.32 51.04 327.32 32.18 345.66 42.08 345.66 26.66 317.08 10.36"/><polygon class="cls-6" points="381.26 10.36 352.68 26.66 352.68 42.08 371.02 32.18 371.02 51.04 381.26 57.67 391.5 51.04 391.5 32.18 409.84 42.08 409.84 26.66 381.26 10.36"/></g><g class="cls-5"><polygon class="cls-6" points="28.29 48.49 -0.29 64.79 -0.29 80.21 18.05 70.31 18.05 89.17 28.29 95.8 38.53 89.17 38.53 70.31 56.87 80.21 56.87 64.79 28.29 48.49"/><polygon class="cls-6" points="92.47 48.49 63.89 64.79 63.89 80.21 82.23 70.31 82.23 89.17 92.47 95.8 102.7 89.17 102.7 70.31 121.04 80.21 121.04 64.79 92.47 48.49"/><polygon class="cls-6" points="156.64 48.49 128.07 64.79 128.07 80.21 146.41 70.31 146.41 89.17 156.64 95.8 166.88 89.17 166.88 70.31 185.22 80.21 185.22 64.79 156.64 48.49"/><polygon class="cls-6" points="220.82 48.49 192.24 64.79 192.24 80.21 210.58 70.31 210.58 89.17 220.82 95.8 231.06 89.17 231.06 70.31 249.4 80.21 249.4 64.79 220.82 48.49"/><polygon class="cls-6" points="285 48.49 256.42 64.79 256.42 80.21 274.76 70.31 274.76 89.17 285 95.8 295.23 89.17 295.23 70.31 313.57 80.21 313.57 64.79 285 48.49"/><polygon class="cls-6" points="349.17 48.49 320.59 64.79 320.59 80.21 338.94 70.31 338.94 89.17 349.17 95.8 359.41 89.17 359.41 70.31 377.75 80.21 377.75 64.79 349.17 48.49"/><polygon class="cls-6" points="413.35 48.49 384.77 64.79 384.77 80.21 403.11 70.31 403.11 89.17 413.35 95.8 423.58 89.17 423.58 70.31 441.92 80.21 441.92 64.79 413.35 48.49"/></g><g class="cls-5"><polygon class="cls-6" points="59.38 87.56 30.8 103.86 30.8 119.28 49.15 109.38 49.15 128.23 59.38 134.86 69.62 128.23 69.62 109.38 87.96 119.28 87.96 103.86 59.38 87.56"/><polygon class="cls-6" points="-5.19 87.56 -33.77 103.86 -33.77 119.28 -15.43 109.38 -15.43 128.23 -5.19 134.86 5.04 128.23 5.04 109.38 23.38 119.28 23.38 103.86 -5.19 87.56"/><polygon class="cls-6" points="123.96 87.56 95.38 103.86 95.38 119.28 113.72 109.38 113.72 128.23 123.96 134.86 134.19 128.23 134.19 109.38 152.53 119.28 152.53 103.86 123.96 87.56"/><polygon class="cls-6" points="188.53 87.56 159.96 103.86 159.96 119.28 178.29 109.38 178.29 128.23 188.53 134.86 198.77 128.23 198.77 109.38 217.11 119.28 217.11 103.86 188.53 87.56"/><polygon class="cls-6" points="253.11 87.56 224.53 103.86 224.53 119.28 242.87 109.38 242.87 128.23 253.11 134.86 263.34 128.23 263.34 109.38 281.68 119.28 281.68 103.86 253.11 87.56"/><polygon class="cls-6" points="317.68 87.56 289.1 103.86 289.1 119.28 307.44 109.38 307.44 128.23 317.68 134.86 327.92 128.23 327.92 109.38 346.26 119.28 346.26 103.86 317.68 87.56"/><polygon class="cls-6" points="382.26 87.56 353.68 103.86 353.68 119.28 372.02 109.38 372.02 128.23 382.26 134.86 392.49 128.23 392.49 109.38 410.83 119.28 410.83 103.86 382.26 87.56"/></g></g><text class="cls-7" transform="translate(16.74 84.09) scale(1.01 1)">HI<tspan class="cls-8" x="73.87" y="0">S</tspan><tspan class="cls-9" x="111.94" y="0">T</tspan><tspan class="cls-10" x="147.81" y="0">ORI</tspan><tspan class="cls-11" x="269.95" y="0">A</tspan><tspan x="317.65" y="0" xml:space="preserve"> 3</tspan></text><text class="cls-12" transform="translate(18.98 79.09)">HI<tspan class="cls-13" x="73.87" y="0">S</tspan><tspan class="cls-14" x="111.94" y="0">T</tspan><tspan x="147.81" y="0">ORI</tspan><tspan class="cls-15" x="269.95" y="0">A</tspan><tspan x="317.65" y="0" xml:space="preserve"> 3</tspan></text></g></g></svg>