<?xml version="1.0" encoding="utf-8"?>
<!-- Generator: Adobe Illustrator 25.2.3, SVG Export Plug-In . SVG Version: 6.00 Build 0)  -->
<svg version="1.1" xmlns="http://www.w3.org/2000/svg" xmlns:xlink="http://www.w3.org/1999/xlink" x="0px" y="0px"
	 viewBox="0 0 378 114.87" style="enable-background:new 0 0 378 114.87;" xml:space="preserve">
<style type="text/css">
	.st0{clip-path:url(#XMLID_3_);}
	.st1{opacity:0.25;clip-path:url(#SVGID_2_);}
	.st2{fill:#F6D968;}
	.st3{fill:#B98601;}
	.st4{fill:#FFFFFF;}
	.st5{clip-path:url(#XMLID_5_);}
	.st6{opacity:0.25;clip-path:url(#SVGID_4_);}
	.st7{clip-path:url(#XMLID_7_);}
	.st8{opacity:0.25;clip-path:url(#SVGID_6_);}
	.st9{opacity:0.25;clip-path:url(#XMLID_10_);}
	.st10{opacity:0.25;clip-path:url(#XMLID_12_);}
	.st11{opacity:0.25;clip-path:url(#XMLID_14_);}
	.st12{fill:url(#SVGID_7_);}
	.st13{fill:url(#SVGID_8_);}
	.st14{fill:url(#SVGID_9_);}
	.st15{fill:url(#SVGID_10_);}
	.st16{opacity:0.7;fill:#60DFFF;}
	.st17{fill:url(#SVGID_11_);}
	.st18{fill:#D7F7FF;}
	.st19{fill:url(#SVGID_12_);}
	.st20{fill:url(#SVGID_13_);}
	.st21{opacity:0.25;clip-path:url(#SVGID_15_);}
	.st22{fill:#53CFFC;}
	.st23{fill:#017BD2;}
	.st24{fill:url(#SVGID_16_);}
	.st25{opacity:0.25;}
	.st26{clip-path:url(#SVGID_18_);}
	.st27{fill:url(#SVGID_19_);}
	.st28{opacity:0.25;clip-path:url(#SVGID_21_);}
	.st29{fill:url(#SVGID_22_);}
	.st30{clip-path:url(#SVGID_24_);}
	.st31{fill:url(#SVGID_25_);}
	.st32{opacity:0.25;clip-path:url(#SVGID_27_);}
	.st33{fill:url(#SVGID_28_);}
	.st34{clip-path:url(#SVGID_30_);}
	.st35{fill:url(#SVGID_31_);}
	.st36{opacity:0.25;clip-path:url(#SVGID_33_);}
	.st37{fill:url(#SVGID_34_);}
	.st38{clip-path:url(#SVGID_36_);}
	.st39{fill:#60DFFF;}
	.st40{fill:url(#SVGID_37_);}
	.st41{opacity:0.25;clip-path:url(#SVGID_39_);}
	.st42{fill:url(#SVGID_40_);}
	.st43{opacity:0.25;clip-path:url(#SVGID_42_);}
	.st44{fill:url(#SVGID_43_);}
	.st45{fill:#1E3865;}
</style>
<g id="FONDOS">
</g>
<g id="PERSONAJES">
</g>
<g id="INTERFACE">
	<g>
		<g>
			<g>
				<g>
					<defs>
						<path id="XMLID_9_" d="M0,105.59V8.73C0,3.91,3.91,0,8.73,0h360.54c4.82,0,8.73,3.91,8.73,8.73v96.86
							c0,5.12-4.15,9.27-9.27,9.27H9.27C4.15,114.87,0,110.71,0,105.59z"/>
					</defs>
					
						<linearGradient id="XMLID_2_" gradientUnits="userSpaceOnUse" x1="733.5384" y1="9192.8232" x2="848.4044" y2="9192.8232" gradientTransform="matrix(0 1 -1 0 9381.8232 -733.5384)">
						<stop  offset="0.0642" style="stop-color:#FFEF88"/>
						<stop  offset="0.0877" style="stop-color:#FFEA78"/>
						<stop  offset="0.1428" style="stop-color:#FFE159"/>
						<stop  offset="0.2053" style="stop-color:#FFD93D"/>
						<stop  offset="0.2759" style="stop-color:#FFD327"/>
						<stop  offset="0.3583" style="stop-color:#FFCE16"/>
						<stop  offset="0.4602" style="stop-color:#FFCB0B"/>
						<stop  offset="0.6031" style="stop-color:#FFC904"/>
						<stop  offset="1" style="stop-color:#FFC802"/>
					</linearGradient>
					<use xlink:href="#XMLID_9_"  style="overflow:visible;fill:url(#XMLID_2_);"/>
					<clipPath id="XMLID_3_">
						<use xlink:href="#XMLID_9_"  style="overflow:visible;"/>
					</clipPath>
					<g class="st0">
						<defs>
							<path id="SVGID_1_" d="M0,114.87V8.73C0,3.91,3.91,0,8.73,0h360.54c4.82,0,8.73,3.91,8.73,8.73v106.14H0z"/>
						</defs>
						<clipPath id="SVGID_2_">
							<use xlink:href="#SVGID_1_"  style="overflow:visible;"/>
						</clipPath>
						<g class="st1">
							<polygon class="st2" points="42.07,9.89 13.5,26.19 13.5,41.61 31.84,31.72 31.84,50.57 42.07,57.2 52.31,50.57 52.31,31.72 
								70.65,41.61 70.65,26.19 							"/>
							<polygon class="st2" points="-23.65,9.89 -52.23,26.19 -52.23,41.61 -33.89,31.72 -33.89,50.57 -23.65,57.2 -13.41,50.57 
								-13.41,31.72 4.93,41.61 4.93,26.19 							"/>
							<polygon class="st2" points="106.25,9.89 77.67,26.19 77.67,41.61 96.01,31.72 96.01,50.57 106.25,57.2 116.49,50.57 
								116.49,31.72 134.83,41.61 134.83,26.19 							"/>
							<polygon class="st2" points="170.42,9.89 141.85,26.19 141.85,41.61 160.19,31.72 160.19,50.57 170.42,57.2 180.66,50.57 
								180.66,31.72 199,41.61 199,26.19 							"/>
							<polygon class="st2" points="234.6,9.89 206.02,26.19 206.02,41.61 224.36,31.72 224.36,50.57 234.6,57.2 244.84,50.57 
								244.84,31.72 263.18,41.61 263.18,26.19 							"/>
							<polygon class="st2" points="298.78,9.89 270.2,26.19 270.2,41.61 288.54,31.72 288.54,50.57 298.78,57.2 309.01,50.57 
								309.01,31.72 327.35,41.61 327.35,26.19 							"/>
							<polygon class="st2" points="362.95,9.89 334.38,26.19 334.38,41.61 352.72,31.72 352.72,50.57 362.95,57.2 373.19,50.57 
								373.19,31.72 391.53,41.61 391.53,26.19 							"/>
						</g>
						<g class="st1">
							<polygon class="st2" points="9.98,48.03 -18.59,64.33 -18.59,79.75 -0.25,69.85 -0.25,88.71 9.98,95.33 20.22,88.71 
								20.22,69.85 38.56,79.75 38.56,64.33 							"/>
							<polygon class="st2" points="74.16,48.03 45.58,64.33 45.58,79.75 63.92,69.85 63.92,88.71 74.16,95.33 84.4,88.71 
								84.4,69.85 102.74,79.75 102.74,64.33 							"/>
							<polygon class="st2" points="138.34,48.03 109.76,64.33 109.76,79.75 128.1,69.85 128.1,88.71 138.34,95.33 148.57,88.71 
								148.57,69.85 166.91,79.75 166.91,64.33 							"/>
							<polygon class="st2" points="202.51,48.03 173.94,64.33 173.94,79.75 192.28,69.85 192.28,88.71 202.51,95.33 212.75,88.71 
								212.75,69.85 231.09,79.75 231.09,64.33 							"/>
							<polygon class="st2" points="266.69,48.03 238.11,64.33 238.11,79.75 256.45,69.85 256.45,88.71 266.69,95.33 276.93,88.71 
								276.93,69.85 295.27,79.75 295.27,64.33 							"/>
							<polygon class="st2" points="330.87,48.03 302.29,64.33 302.29,79.75 320.63,69.85 320.63,88.71 330.87,95.33 341.1,88.71 
								341.1,69.85 359.44,79.75 359.44,64.33 							"/>
							<polygon class="st2" points="395.04,48.03 366.46,64.33 366.46,79.75 384.81,69.85 384.81,88.71 395.04,95.33 405.28,88.71 
								405.28,69.85 423.62,79.75 423.62,64.33 							"/>
						</g>
						<g class="st1">
							<polygon class="st2" points="41.08,87.09 12.5,103.39 12.5,118.81 30.84,108.91 30.84,127.77 41.08,134.4 51.31,127.77 
								51.31,108.91 69.65,118.81 69.65,103.39 							"/>
							<polygon class="st2" points="-23.5,87.09 -52.08,103.39 -52.08,118.81 -33.74,108.91 -33.74,127.77 -23.5,134.4 
								-13.26,127.77 -13.26,108.91 5.08,118.81 5.08,103.39 							"/>
							<polygon class="st2" points="105.65,87.09 77.07,103.39 77.07,118.81 95.41,108.91 95.41,127.77 105.65,134.4 115.89,127.77 
								115.89,108.91 134.23,118.81 134.23,103.39 							"/>
							<polygon class="st2" points="170.23,87.09 141.65,103.39 141.65,118.81 159.99,108.91 159.99,127.77 170.23,134.4 
								180.46,127.77 180.46,108.91 198.8,118.81 198.8,103.39 							"/>
							<polygon class="st2" points="234.8,87.09 206.22,103.39 206.22,118.81 224.56,108.91 224.56,127.77 234.8,134.4 
								245.04,127.77 245.04,108.91 263.38,118.81 263.38,103.39 							"/>
							<polygon class="st2" points="299.38,87.09 270.8,103.39 270.8,118.81 289.14,108.91 289.14,127.77 299.38,134.4 
								309.61,127.77 309.61,108.91 327.95,118.81 327.95,103.39 							"/>
							<polygon class="st2" points="363.95,87.09 335.37,103.39 335.37,118.81 353.71,108.91 353.71,127.77 363.95,134.4 
								374.19,127.77 374.19,108.91 392.53,118.81 392.53,103.39 							"/>
						</g>
					</g>
				</g>
			</g>
		</g>
		<g>
			<g>
				<g>
					<path class="st3" d="M50.19,39.07h30.95v12.46H64.43v3.84h15.7v11.64h-15.7v4.15h17.79v12.46H50.19V39.07z"/>
					<path class="st3" d="M108.14,83.62V66.25c0-1.68-0.21-2.89-0.64-3.65c-0.42-0.75-1.12-1.13-2.1-1.13
						c-0.72,0-1.41,0.34-2.06,1.01c-0.66,0.67-0.99,1.87-0.99,3.59v17.56H87.68v-33.1h14.3v3.65h0.13c0.42-0.54,0.94-1.08,1.56-1.6
						c0.61-0.52,1.31-1.01,2.1-1.45c0.78-0.44,1.66-0.8,2.64-1.07c0.97-0.27,2.03-0.41,3.18-0.41c2.2,0,4.11,0.39,5.72,1.16
						c1.61,0.78,2.88,1.98,3.81,3.62c1.1-1.34,2.46-2.48,4.07-3.4c1.61-0.92,3.64-1.38,6.1-1.38c2.37,0,4.33,0.46,5.88,1.38
						c1.55,0.92,2.77,2.08,3.69,3.46c0.91,1.38,1.55,2.88,1.91,4.5c0.36,1.62,0.54,3.12,0.54,4.5v20.14H128.6V66
						c0-1.8-0.22-3.01-0.67-3.62c-0.44-0.61-1.13-0.91-2.07-0.91c-0.85,0-1.57,0.39-2.16,1.16c-0.59,0.78-0.89,1.92-0.89,3.43v17.56
						H108.14z"/>
					<path class="st3" d="M173.21,84.5c-1.65,0-3.28-0.3-4.89-0.91c-1.61-0.61-2.92-1.46-3.94-2.55h-0.13v17.68H149.7v-48.2h13.79
						v3.34h0.13c1.23-1.38,2.71-2.43,4.45-3.15c1.74-0.71,3.43-1.07,5.08-1.07c2.5,0,4.7,0.5,6.61,1.51s3.49,2.33,4.77,3.96
						c1.27,1.64,2.23,3.48,2.89,5.54c0.66,2.06,0.98,4.15,0.98,6.29c0,2.18-0.33,4.32-0.98,6.42c-0.66,2.1-1.62,3.97-2.89,5.63
						s-2.85,2.99-4.73,4C177.9,84,175.71,84.5,173.21,84.5z M174.8,66.95c0-1.47-0.47-2.75-1.4-3.84c-0.93-1.09-2.29-1.64-4.07-1.64
						c-1.74,0-3.12,0.55-4.16,1.64c-1.04,1.09-1.56,2.37-1.56,3.84c0,1.55,0.52,2.87,1.56,3.96c1.04,1.09,2.42,1.64,4.16,1.64
						c1.78,0,3.13-0.54,4.07-1.6C174.33,69.87,174.8,68.54,174.8,66.95z"/>
					<path class="st3" d="M228.68,67.39c0,0.55-0.01,1.1-0.03,1.67c-0.02,0.57-0.05,1.04-0.1,1.42h-22.49
						c0.04,0.59,0.24,1.11,0.6,1.57c0.36,0.46,0.8,0.86,1.33,1.2c0.53,0.34,1.12,0.59,1.78,0.75c0.66,0.17,1.32,0.25,2,0.25
						c1.36,0,2.49-0.24,3.4-0.72c0.91-0.48,1.6-1.02,2.07-1.6l10.42,5.22c-1.48,2.39-3.63,4.28-6.45,5.66
						c-2.82,1.38-6.09,2.08-9.82,2.08c-2.41,0-4.77-0.38-7.05-1.13c-2.29-0.76-4.31-1.88-6.07-3.37c-1.76-1.49-3.17-3.34-4.23-5.57
						c-1.06-2.22-1.59-4.8-1.59-7.74c0-2.73,0.49-5.19,1.46-7.39c0.97-2.2,2.3-4.07,3.97-5.6c1.67-1.53,3.64-2.72,5.91-3.56
						c2.27-0.84,4.69-1.26,7.28-1.26c2.63,0,5.02,0.45,7.18,1.35c2.16,0.9,4.01,2.16,5.56,3.78c1.55,1.62,2.74,3.54,3.59,5.76
						C228.26,62.37,228.68,64.79,228.68,67.39z M216.04,62.67c0-1.17-0.44-2.14-1.3-2.89c-0.87-0.76-2.04-1.13-3.53-1.13
						c-1.61,0-2.86,0.44-3.75,1.32s-1.4,1.78-1.52,2.71H216.04z"/>
					<path class="st3" d="M232.56,73.49l12.52-12.21h-12.2V50.52h30.44v9.44l-13.53,12.9h13.92v10.76h-31.14V73.49z"/>
					<path class="st3" d="M286.95,62.6c0-1.01-0.35-1.75-1.05-2.23s-1.62-0.72-2.76-0.72c-1.36,0-2.64,0.28-3.84,0.85
						c-1.21,0.57-2.28,1.23-3.21,1.98l-7.31-7.17c2.03-1.93,4.45-3.42,7.24-4.47s5.68-1.57,8.64-1.57c3.18,0,5.8,0.44,7.88,1.32
						c2.08,0.88,3.72,2.1,4.92,3.65c1.21,1.55,2.05,3.36,2.54,5.41c0.49,2.06,0.73,4.24,0.73,6.54v17.43h-13.28v-2.64h-0.13
						c-0.85,1.26-2.06,2.16-3.62,2.71c-1.57,0.54-3.09,0.82-4.58,0.82c-1.31,0-2.66-0.19-4.03-0.57c-1.38-0.38-2.63-0.99-3.75-1.83
						c-1.12-0.84-2.04-1.93-2.76-3.27c-0.72-1.34-1.08-3-1.08-4.97c0-2.31,0.6-4.18,1.81-5.63s2.74-2.58,4.61-3.4
						c1.86-0.82,3.95-1.37,6.26-1.67c2.31-0.29,4.56-0.44,6.77-0.44V62.6z M287.08,69.9c-2.16,0-3.9,0.23-5.21,0.69
						c-1.31,0.46-1.97,1.32-1.97,2.58c0,0.46,0.11,0.85,0.32,1.16c0.21,0.32,0.49,0.58,0.83,0.79c0.34,0.21,0.71,0.37,1.11,0.47
						c0.4,0.11,0.77,0.16,1.11,0.16c1.4,0,2.52-0.44,3.37-1.32c0.85-0.88,1.27-2.01,1.27-3.4V69.9H287.08z"/>
					<path class="st3" d="M306.77,50.52h14.11v3.78h0.13c0.72-1.34,1.79-2.45,3.21-3.33c1.42-0.88,3.08-1.32,4.99-1.32
						c1.14,0,2.08,0.11,2.8,0.32l-1.14,12.33c-0.47-0.13-0.98-0.22-1.56-0.28c-0.57-0.06-1.09-0.09-1.56-0.09
						c-1.91,0-3.43,0.55-4.57,1.64s-1.72,2.43-1.72,4.03v16.05h-14.68V50.52z"/>
				</g>
			</g>
			<g>
				<g>
					<path class="st4" d="M52.93,34.07h30.64v12.46H67.02v3.84h15.54v11.64H67.02v4.15h17.62v12.46H52.93V34.07z"/>
					<path class="st4" d="M110.32,78.62V61.25c0-1.68-0.21-2.89-0.63-3.65c-0.42-0.75-1.11-1.13-2.08-1.13
						c-0.71,0-1.4,0.34-2.04,1.01c-0.65,0.67-0.98,1.87-0.98,3.59v17.56H90.05v-33.1h14.16v3.65h0.13c0.42-0.54,0.93-1.08,1.54-1.6
						c0.61-0.52,1.3-1.01,2.08-1.45c0.78-0.44,1.65-0.8,2.61-1.07c0.96-0.27,2.01-0.41,3.15-0.41c2.18,0,4.07,0.39,5.66,1.16
						c1.59,0.78,2.85,1.98,3.78,3.62c1.09-1.34,2.43-2.47,4.03-3.4c1.59-0.92,3.61-1.38,6.04-1.38c2.35,0,4.29,0.46,5.82,1.38
						c1.53,0.92,2.75,2.08,3.65,3.46c0.9,1.38,1.53,2.88,1.89,4.5c0.36,1.62,0.53,3.12,0.53,4.5v20.14h-14.54V61
						c0-1.8-0.22-3.01-0.66-3.62c-0.44-0.61-1.12-0.91-2.04-0.91c-0.84,0-1.55,0.39-2.14,1.16c-0.59,0.78-0.88,1.92-0.88,3.43v17.56
						H110.32z"/>
					<path class="st4" d="M174.75,79.5c-1.64,0-3.25-0.3-4.84-0.91c-1.59-0.61-2.89-1.46-3.9-2.55h-0.13v17.68h-14.41v-48.2h13.66
						v3.33h0.13c1.22-1.38,2.68-2.43,4.4-3.15c1.72-0.71,3.4-1.07,5.03-1.07c2.47,0,4.66,0.5,6.54,1.51s3.46,2.33,4.72,3.96
						c1.26,1.64,2.21,3.48,2.86,5.54c0.65,2.06,0.98,4.15,0.98,6.29c0,2.18-0.33,4.32-0.98,6.42c-0.65,2.1-1.6,3.97-2.86,5.63
						s-2.82,2.99-4.69,4S177.23,79.5,174.75,79.5z M176.33,61.95c0-1.47-0.46-2.75-1.38-3.84c-0.92-1.09-2.27-1.64-4.03-1.64
						c-1.72,0-3.09,0.54-4.12,1.64c-1.03,1.09-1.54,2.37-1.54,3.84c0,1.55,0.51,2.87,1.54,3.96c1.03,1.09,2.4,1.64,4.12,1.64
						c1.76,0,3.1-0.53,4.03-1.6C175.86,64.87,176.33,63.54,176.33,61.95z"/>
					<path class="st4" d="M229.69,62.39c0,0.54-0.01,1.1-0.03,1.67c-0.02,0.57-0.05,1.04-0.09,1.42h-22.28
						c0.04,0.59,0.24,1.11,0.6,1.57c0.36,0.46,0.8,0.86,1.32,1.2c0.52,0.34,1.11,0.59,1.76,0.75c0.65,0.17,1.31,0.25,1.98,0.25
						c1.34,0,2.46-0.24,3.37-0.72c0.9-0.48,1.58-1.02,2.04-1.6l10.32,5.22c-1.47,2.39-3.6,4.28-6.39,5.66
						c-2.79,1.38-6.03,2.08-9.72,2.08c-2.39,0-4.72-0.38-6.99-1.13c-2.26-0.75-4.27-1.88-6.01-3.37c-1.74-1.49-3.14-3.35-4.18-5.57
						c-1.05-2.22-1.57-4.8-1.57-7.74c0-2.73,0.48-5.19,1.45-7.39c0.96-2.2,2.28-4.07,3.93-5.6c1.66-1.53,3.61-2.71,5.85-3.55
						c2.24-0.84,4.65-1.26,7.21-1.26c2.6,0,4.97,0.45,7.11,1.35c2.14,0.9,3.97,2.16,5.51,3.78c1.53,1.62,2.72,3.53,3.56,5.76
						C229.27,57.37,229.69,59.79,229.69,62.39z M217.16,57.67c0-1.17-0.43-2.14-1.29-2.89c-0.86-0.75-2.02-1.13-3.49-1.13
						c-1.6,0-2.83,0.44-3.71,1.32s-1.38,1.78-1.51,2.71H217.16z"/>
					<path class="st4" d="M233.52,68.49l12.4-12.21h-12.08V45.52h30.14v9.44l-13.4,12.9h13.78v10.76h-30.83V68.49z"/>
					<path class="st4" d="M287.39,57.6c0-1.01-0.35-1.75-1.04-2.23c-0.69-0.48-1.61-0.72-2.74-0.72c-1.34,0-2.61,0.28-3.81,0.85
						s-2.25,1.23-3.18,1.98l-7.24-7.17c2.01-1.93,4.41-3.42,7.17-4.47c2.77-1.05,5.62-1.57,8.56-1.57c3.15,0,5.75,0.44,7.8,1.32
						c2.05,0.88,3.68,2.1,4.88,3.65c1.2,1.55,2.03,3.36,2.52,5.41c0.48,2.06,0.72,4.24,0.72,6.54v17.43h-13.15v-2.64h-0.13
						c-0.84,1.26-2.04,2.16-3.59,2.71c-1.55,0.54-3.06,0.82-4.53,0.82c-1.3,0-2.63-0.19-4-0.57c-1.36-0.38-2.6-0.99-3.71-1.82
						c-1.11-0.84-2.02-1.93-2.74-3.27c-0.71-1.34-1.07-3-1.07-4.97c0-2.31,0.6-4.18,1.79-5.63c1.2-1.45,2.72-2.58,4.56-3.4
						s3.91-1.37,6.2-1.67c2.29-0.29,4.52-0.44,6.7-0.44V57.6z M287.51,64.9c-2.14,0-3.86,0.23-5.16,0.69
						c-1.3,0.46-1.95,1.32-1.95,2.58c0,0.46,0.1,0.85,0.32,1.16c0.21,0.31,0.48,0.58,0.82,0.79c0.33,0.21,0.7,0.37,1.1,0.47
						c0.4,0.11,0.76,0.16,1.1,0.16c1.38,0,2.5-0.44,3.34-1.32c0.84-0.88,1.26-2.01,1.26-3.4V64.9H287.51z"/>
					<path class="st4" d="M307.02,45.52h13.97v3.78h0.13c0.71-1.34,1.77-2.45,3.18-3.33c1.4-0.88,3.05-1.32,4.94-1.32
						c1.13,0,2.05,0.1,2.77,0.31l-1.13,12.33c-0.46-0.13-0.97-0.22-1.54-0.28c-0.57-0.06-1.08-0.09-1.54-0.09
						c-1.89,0-3.4,0.54-4.53,1.64c-1.13,1.09-1.7,2.43-1.7,4.03v16.05h-14.54V45.52z"/>
				</g>
			</g>
		</g>
	</g>
</g>
</svg>
