<svg xmlns="http://www.w3.org/2000/svg" viewBox="0 0 924.38 1286.62"><defs><style>.cls-1{fill:#575756;}.cls-2{fill:#977763;}.cls-3{fill:#cea36b;}.cls-4{fill:#29235c;}.cls-5{fill:#3142aa;}.cls-6{fill:#a7a7a7;}.cls-7{fill:#f1f1f1;}.cls-8{fill:#b8b8b7;}.cls-9{fill:#1d1d1b;}.cls-10{fill:#fff;}</style></defs><g id="PERSONAJES"><path class="cls-1" d="M923.43,578.3c-.25,1.14-.5,2.29-.73,3.46-3.7,12.82-17.69,20.52-30.8,25.61q2.91-15.25,5.84-30.49c.25-1.27.49-2.55.74-3.82C905,572.68,918.1,574.58,923.43,578.3Z"/><path class="cls-2" d="M864.55,616.89q-10.92,3.5-22,6.57c12.8-16.29,21.87-35.62,30.66-54.55,18.38-39.5,36.81-79.25,47.94-121.37a21.84,21.84,0,0,1,1.8,7.73A121.87,121.87,0,0,1,919,500c-2.7,9.56-6.55,18.74-9.68,28.17-4.85,14.62-7.9,29.77-10.81,44.9-.25,1.27-.49,2.55-.74,3.82q-2.91,15.25-5.84,30.49l-2,.75Q877.35,612.82,864.55,616.89Z"/><path class="cls-3" d="M845.12,499.5c2.45-3.75,5-7.43,7.54-11.08a35,35,0,0,0-6.6-12.25l-.65.54c-2.35,1.05-4.86,2.29-5.94,4.62-1.44,3.08.23,6.68,2.07,9.55C843.27,493.55,845.26,496.39,845.12,499.5ZM808.4,481.34l-.87,0c-4.58-4.08-9.42-8.65-10.46-14.71-.8-4.69.86-9.42,2.7-13.79a138.76,138.76,0,0,1,19.36-32.49,5.88,5.88,0,0,1,2.31-2l-.08-.46a10.24,10.24,0,0,0,0-2.82h.13c2.75-2.18,6.28-2.38,9.84-1.79,7.92-6.26,19.82-2.2,29.12,2.19l49.21,23.11c4.35,2.06,9,4.35,11.3,8.57a4.51,4.51,0,0,1,.22.44c-11.13,42.12-29.56,81.87-47.94,121.37-8.79,18.93-17.86,38.26-30.66,54.55q-18,5-36.35,8.77l-.1-.47q7.57-17.76,15.14-35.52c.84-2,1.68-3.93,2.35-5.94a25.73,25.73,0,0,0,1.34-6.09c.51-6-1.71-11.85-3.22-17.78-.37-1.42-.68-2.86-.92-4.3-2.26-13.94,4-27.75,10.78-40.12,1.89-3.41,3.82-6.81,5.82-10.15l-.11-.07c-5.36-4.59-11.85-7.67-17.53-11.87s-10.77-10.07-11.33-17.1C808.42,482.33,808.4,481.83,808.4,481.34Z"/><path class="cls-1" d="M891.9,607.37c13.11-5.09,27.1-12.79,30.8-25.61-4.64,22.16-8.5,47.34-13.06,70a174.53,174.53,0,0,1-34.47,23.44c-.51-19.87-3.6-39.42-10.62-58.27q12.78-4.08,25.38-8.77Z"/><path class="cls-4" d="M824.57,921.5c12.39-41.92,22.66-84.52,32.92-127,4.87-20.18,9.71-40.87,13.11-61.62,1.27-7.78,2.34-15.57,3.13-23.33a269.45,269.45,0,0,0,1.44-34.34,174.53,174.53,0,0,0,34.47-23.44c-.6,3-1.2,6-1.84,8.87-1.74,8.1-3.5,16.62-1.14,24.56,1.18,4,3.35,7.65,4.32,11.7,1.19,5,.47,10.19-.23,15.26q-8.16,57.92-16.3,115.82c-2.53,18-5.07,36-9.81,53.45C872,928.33,853,969,814.06,998.07c-2,1.53-14.31,4.89-16.82,4.4a5.81,5.81,0,0,1-2.13-.9,83.25,83.25,0,0,0,9.39-18.68C811.87,962.64,818.48,942.16,824.57,921.5Z"/><path class="cls-5" d="M752.18,707.09c.47-4.05.79-8.12,1-12.19l.24,0s61.69,11.33,121.76-19.76a269.45,269.45,0,0,1-1.44,34.34c-24.41,14.94-53.59,22.34-82.13,27.13a109.43,109.43,0,0,0,79-3.8c-3.4,20.75-8.24,41.44-13.11,61.62C847.23,837,837,879.58,824.57,921.5c-6.09,20.66-12.7,41.14-20.07,61.39a83.25,83.25,0,0,1-9.39,18.68,16,16,0,0,1-2.49-2.18c-18.63-18.72-30.81-15.73-49.44-34.46-8.5-8.55-23.56-38.93-29.82-49.25-22.13-36.5-10.67-84.89-26.92-124.24.07-17.91.42-36.82,1.17-56.45C694.51,728.39,717.59,709,752.18,707.09Z"/><path class="cls-5" d="M873.73,709.5c-.79,7.76-1.86,15.55-3.13,23.33a109.43,109.43,0,0,1-79,3.8C820.14,731.84,849.32,724.44,873.73,709.5Z"/><path class="cls-6" d="M842.58,623.46q11-3.08,22-6.57c7,18.85,10.11,38.4,10.62,58.27-60.07,31.09-121.76,19.76-121.76,19.76l-.24,0c.67-14.34-.18-28.85-1.44-43.26q-.65-7.46-1.39-14.86l.17,0c.6,3,5.21,3.66,8.54,3.26q23.72-2.88,47.18-7.76Q824.53,628.44,842.58,623.46Z"/><path class="cls-3" d="M852.66,488.42c-2.58,3.65-5.09,7.33-7.54,11.08.14-3.11-1.85-5.95-3.58-8.62-1.84-2.87-3.51-6.47-2.07-9.55,1.08-2.33,3.59-3.57,5.94-4.62l.65-.54A35,35,0,0,1,852.66,488.42Z"/><path class="cls-3" d="M837.31,511.79l.11.07c-2,3.34-3.93,6.74-5.82,10.15-6.79,12.37-13,26.18-10.78,40.12.24,1.44.55,2.88.92,4.3-8.55-7.63-17.25-15.71-21.47-26.36-6.7-16.88-.74-36.88-7.83-53.62-2.48-5.86-6.46-11-8.92-16.87-5-11.88-3.3-25.49-.21-38,1.68-6.73,3.8-13.51,8-19s10.94-9.47,17.84-8.77c5.92.59,11.41,5.49,12.17,11.21a10.24,10.24,0,0,1,0,2.82l.08.46a5.88,5.88,0,0,0-2.31,2,138.76,138.76,0,0,0-19.36,32.49c-1.84,4.37-3.5,9.1-2.7,13.79,1,6.06,5.88,10.63,10.46,14.71l.87,0c0,.49,0,1,.05,1.48.56,7,5.66,12.92,11.33,17.1S832,507.2,837.31,511.79Z"/><path class="cls-1" d="M787.11,605.87c11.5-6,23.95-10.85,36.51-15.57-.67,2-1.51,4-2.35,5.94Q813.7,614,806.13,631.76l.1.47q-23.43,4.86-47.18,7.76c-3.33.4-7.94-.27-8.54-3.26a2.31,2.31,0,0,1-.08-.71C760.17,622.64,772.92,613.3,787.11,605.87Z"/><path class="cls-5" d="M694.84,633.9c5.19-48.47,13.33-98.31,25.6-146.23q5.74-22.55,12.8-44.44c15.81,16,25.2,38.73,32.13,60.68l.54.9c-3.8,34.43,15.81,66.83,21.2,101.06-14.19,7.43-26.94,16.77-36.68,30.15a2.31,2.31,0,0,0,.08.71l-.17,0q.74,7.41,1.39,14.86c-32.73-2.36-60.42,19.82-60.42,19.82Q692.8,652.88,694.84,633.9Z"/><path class="cls-6" d="M751.73,651.64c1.26,14.41,2.11,28.92,1.44,43.26-.2,4.07-.52,8.14-1,12.19-34.59,1.92-57.67,21.3-64.57,27.9.77-20.5,2-41.78,3.7-63.53C691.31,671.46,719,649.28,751.73,651.64Z"/><path class="cls-6" d="M576.75,405a248.9,248.9,0,0,0-14.64-28.92,373,373,0,0,0,107.43,40.67c16.17,3.4,32.9,5.85,47.31,13.91a72.46,72.46,0,0,1,16.39,12.6q-7.05,21.86-12.8,44.44c-8-14.26-27.79-16.17-44.22-18.59-25.07-3.72-48.92-13.08-72.51-22.36L592,442.1l-55.31-21.76-.13-.65a231.4,231.4,0,0,1,44.1-5.14Q578.79,409.72,576.75,405Z"/><path class="cls-4" d="M642.38,1134.19c14.22-48.45,40.48-97.3,33.22-146.86-2.28-15.53-7.84-30.51-9.12-46.16l-1,.08A912.12,912.12,0,0,1,694.84,633.9q-2.07,19-3.53,37.56c-1.74,21.75-2.93,43-3.7,63.53-.75,19.63-1.1,38.54-1.17,56.45-.11,28.15.47,53.84,1.34,76a130,130,0,0,0,8.2,39.18c4.1,11.26,10.1,21.84,13,33.47,4.14,16.75,1.51,34.44,3.67,51.57,2.49,19.8,11.38,39.18,8.52,58.93-3.33,22.84-21.36,40.2-34.14,59.43-2.23,3.36-4.36,6.91-5.09,10.88-.87,4.73.32,9.59.62,14.41a39.75,39.75,0,0,1-17.86,34.93c-1,.65-2,1.25-3.11,1.8a174.48,174.48,0,0,1-27.42,4C635.15,1162.13,638.26,1148.17,642.38,1134.19Z"/><path class="cls-5" d="M642.38,1134.19c-4.12,14-7.23,27.94-8.24,41.86a170,170,0,0,1-45.1-3.11c-4.54-.91-9.34-2-13.66-.32a19.24,19.24,0,0,0-3.93,2.16c31.95-61.24,43-137.39,28.06-204.82-5-22.53-12.58-44.49-16.15-67.29-3-18.84-3.09-38-3.25-57.1-.13-20.22-.38-50.08-.53-70.3h0a260.82,260.82,0,0,0,59.78-8,12.58,12.58,0,0,0,9.12-9c8.61-32.67,12.16-64.42,12.29-97.09.08-16.37-.69-33-2.09-50C632,617.6,604.9,623,577.49,623.41c5.69-59.12,10.37-120.21,13.75-179.51l.72-1.8,11.75,4.62c23.59,9.28,47.44,18.64,72.51,22.36,16.43,2.42,36.23,4.33,44.22,18.59-12.27,47.92-20.41,97.76-25.6,146.23a912.12,912.12,0,0,0-29.38,307.35l1-.08c1.28,15.65,6.84,30.63,9.12,46.16C682.86,1036.89,656.6,1085.74,642.38,1134.19Z"/><path class="cls-4" d="M635.15,1203.28a110.84,110.84,0,0,1-1.34-16.52A216.26,216.26,0,0,0,671.3,1182a116.6,116.6,0,0,1,3.58,12q3,11.61,6,23.26c1.66,6.44,3.31,12.89,4.55,19.41,3.06,16.34,3.47,33.23,8.49,49.08l-23-.14q-3.76-9-8.2-17.65c-8.69-17-19.23-33.34-24.6-51.69A102.75,102.75,0,0,1,635.15,1203.28Z"/><path class="cls-5" d="M635.15,1203.28a102.75,102.75,0,0,0,2.91,13c5.37,18.35,15.91,34.66,24.6,51.69q4.43,8.68,8.2,17.65l-53-.32c-29.94-19.81-39.21-65.57-28.8-101.37,13.32,2.66,29.17,3.5,44.77,2.81A110.84,110.84,0,0,0,635.15,1203.28Z"/><path class="cls-4" d="M664.79,1170.41A38,38,0,0,1,671.3,1182a216.26,216.26,0,0,1-37.49,4.78c0-3.58.06-7.14.33-10.71a174.48,174.48,0,0,0,27.42-4c1.07-.55,2.1-1.15,3.11-1.8Z"/><path class="cls-5" d="M577.49,623.41c27.41-.46,54.54-5.81,81.19-12.29,1.4,17.06,2.17,33.66,2.09,50-97.86,40.45-168.84.83-170.31,0a427.15,427.15,0,0,1,3.31-56.55c24.59,13.76,53.27,19.06,81.46,18.85C576,623.46,576.73,623.44,577.49,623.41Z"/><path class="cls-5" d="M660.77,661.15c-.13,32.67-3.68,64.42-12.29,97.09a12.58,12.58,0,0,1-9.12,9,260.82,260.82,0,0,1-59.78,8c-24,.32-46.66-3.1-70.43-9.06-2.86-.7-5.87-1.57-7.85-3.75s-2.58-5.29-3-8.21a615.73,615.73,0,0,1-7.81-93.08C491.93,662,562.91,701.6,660.77,661.15Z"/><path class="cls-5" d="M634.14,1176.05c-.27,3.57-.38,7.13-.33,10.71-15.6.69-31.45-.15-44.77-2.81-4.54-.9-9.34-2-13.66-.32-2.41.91-4.42,2.58-6.61,3.94-.79.48-1.59.92-2.41,1.32-6,2.94-12.87,3.88-19.55,4.75l-37.16,4.82c-19.28,2.49-39.23,5-58,.47q-3-.71-5.93-1.66c-3.76-1.22-7.5-2.78-11.45-3-6.57-.3-12.65,3.2-18.94,5.11-1,.3-2,.55-3,.76-23,5.24-47-9.13-71-8.11-12.32.52-24.27,5.14-36.61,4.88a67,67,0,0,1-20.3-4c-9.66-3.28-19.11-7.8-28.95-10.54-15.22-4.25-31.28-4.27-46.8-7.32-4.94-1-13.3-2.79-18.07-4.65A39.71,39.71,0,0,1,170.2,1142c0-.18-.07-.37-.1-.57,7.88,13.69,23.16,19.55,38.66,22.58s31.58,3.06,46.8,7.33c3.19.89,6.36,2,9.49,3.13,13.12,4.87,25.87,11.18,39.76,11.45,12.34.23,24.29-4.39,36.61-4.91,25-1,50,14.63,73.94,7.35,4.08-1.24,8.07-3.13,12.17-4.23a22.17,22.17,0,0,1,6.77-.86c.49,0,1,.07,1.48.12,3.41.44,6.68,1.76,10,2.83,20.44,6.66,42.58,4,63.9,1.19l37.16-4.82c7.6-1,15.45-2.06,22-6.08.9-.57,1.79-1.17,2.68-1.77a19.24,19.24,0,0,1,3.93-2.16c4.32-1.64,9.12-.59,13.66.32A170,170,0,0,0,634.14,1176.05Z"/><path class="cls-5" d="M617.84,1285.32l-30-.18c-22.49-24.3-31.06-58.64-21.47-96.25.82-.4,1.62-.84,2.41-1.32,2.19-1.36,4.2-3,6.61-3.94,4.32-1.64,9.12-.58,13.66.32C578.63,1219.75,587.9,1265.51,617.84,1285.32Z"/><path class="cls-5" d="M427.43,813.53c.53-2.51,1.08-5,1.65-7.51,4.44-19.6,9.78-39.53,7.62-59.53-2.26-21.07-12.64-40.37-17.46-61-4.6-19.66-4.07-40.13-3.5-60.32,1-34.64,3.08-96,4.05-130.86a10.7,10.7,0,0,0,1.33-3.9,6.66,6.66,0,0,0-.54-3.4,83.63,83.63,0,0,1,2.28-9.82c6.59-7.53,15.46-14,23.6-20.15,15.54-11.82,37.25-21.63,55.76-27.9a298.13,298.13,0,0,1,34.3-9.44l.13.65L592,442.1l-.72,1.8c-3.38,59.3-8.06,120.39-13.75,179.51-.76,0-1.51.05-2.26.05-28.19.21-56.87-5.09-81.46-18.85a427.15,427.15,0,0,0-3.31,56.55,615.73,615.73,0,0,0,7.81,93.08c.45,2.92,1,6,3,8.21s5,3,7.85,3.75c23.77,6,46.43,9.38,70.43,9.06h0c.15,20.22.4,50.08.53,70.3.16,19.09.29,38.26,3.25,57.1,3.57,22.8,11.18,44.76,16.15,67.29,14.92,67.43,3.89,143.58-28.06,204.82-.89.6-1.78,1.2-2.68,1.77-6.51,4-14.36,5.09-22,6.08l-37.16,4.82c-21.32,2.78-43.46,5.47-63.9-1.19-3.29-1.07-6.56-2.39-10-2.83v-.1c-3.53-26.89,2.84-53.94,6.29-80.95,1.82-14.25,2.85-28.49,1.16-42.7-2.43-20.38-10.31-39.65-15.94-59.4C410.07,939.8,414.25,875.14,427.43,813.53Z"/><path class="cls-5" d="M587.83,1285.14l-136.15-.82v-85.39c18.74,4.49,38.69,2,58-.47l37.16-4.82c6.68-.87,13.57-1.81,19.55-4.75C556.77,1226.5,565.34,1260.84,587.83,1285.14Z"/><path class="cls-6" d="M422.86,477.18a50.12,50.12,0,0,0-5.17,7,3.51,3.51,0,0,0-.66-.24,63.06,63.06,0,0,1,6.78-11.41c8.69-11.82,21.32-21.79,33.37-29.64,28.67-18.68,58.7-30,92.49-35.42,11.06-1.77,22.18-3.16,27.08-2.48q2,4.75,3.87,9.58a231.4,231.4,0,0,0-44.1,5.14,298.13,298.13,0,0,0-34.3,9.44C483.71,435.4,462,445.21,446.46,457,438.32,463.2,429.45,469.65,422.86,477.18Z"/><path class="cls-5" d="M562.11,376.05A248.9,248.9,0,0,1,576.75,405c-4.9-.68-16,.71-27.08,2.48-33.79,5.42-63.82,16.74-92.49,35.42-12.05,7.85-24.68,17.82-33.37,29.64,3.75-7.23,9.24-15,15.62-22.93h0c11.1-13.83,24.89-28.19,36.87-41.22,6.4-6.93,12.27-13.51,17-19.42,3.7-4.65,7.35-9.52,9.24-15.15a.54.54,0,0,1,.05-.11c1.72-5.19,1.75-11.22-.92-15.9-.09-1.94-.17-3.9-.25-5.84-.82-19.3.18-38.83,1.17-59.2-.45,23.33,24.11,35.15,38.39,52.8A255.19,255.19,0,0,1,562.11,376.05Z"/><path class="cls-2" d="M550.54,179.72c.67,12.55-2.84,18.67-5.77,31.54-1.68,7.25-10.46,20.67-16.47,25l-.45-.08a112.31,112.31,0,0,0,1.87-28.76c-.85-11.58-1.69-23.2-2.73-34.78q2.71-3,5-6.11a0,0,0,0,0,0,0c8.77-7.53,13.67-2.13,15.85,1.36S550.32,175.6,550.54,179.72Z"/><path class="cls-6" d="M532,166.49q-2.28,3.09-5,6.11c-2.06-23.16-4.9-46.22-10-68.87-2-8.77-4.31-17.54-8.46-25.47a73.9,73.9,0,0,0-18.7-22.41c.89-4.55.59-8,.3-12.39l.64,0c4.5-2.29,10-4.55,14.31-1.94,2.16,1.3,3.53,3.6,4.82,5.81,11.58,20,27.76,43.43,32.63,66.05,4.29,20,.87,37.49-10.52,53.11A0,0,0,0,1,532,166.49Z"/><path class="cls-2" d="M527,172.6c1,11.58,1.88,23.2,2.73,34.78a112.31,112.31,0,0,1-1.87,28.76A127.14,127.14,0,0,1,517.1,268.6a163.78,163.78,0,0,1-14.71,24,282.65,282.65,0,0,1-20.57,24.69c-2.74,3-5.56,6-8.47,8.8-1.84-11.84-2.41-23.24,1-33.77,13-40.27,27.56-73.71,27.43-117.39-.13-44.86-10.93-89.16-28.59-130.5,1.56.89,3.13,1.83,4.69,2.81a108.53,108.53,0,0,1,11.95,8.61,73.9,73.9,0,0,1,18.7,22.41C512.67,86.19,515,95,517,103.73,522.09,126.38,524.93,149.44,527,172.6Z"/><path class="cls-2" d="M501.64,357.78q.32,8,.67,16l.2.06c-1.89,5.63-5.54,10.5-9.24,15.15-4.69,5.91-10.56,12.49-17,19.42l-.67-.62c12.57-26.31,1.88-55.12-2.29-81.65,2.91-2.84,5.73-5.82,8.47-8.8a282.65,282.65,0,0,0,20.57-24.69l.17.14c-1,20.37-2,39.9-1.17,59.2C501.47,353.88,501.55,355.84,501.64,357.78Z"/><path class="cls-3" d="M308.44,236.2a112.77,112.77,0,0,1-1.89-28.82c.76-10.27,1.51-20.57,2.38-30.84,2.11-24.49,4.95-48.88,10.36-72.81,2-8.77,4.34-17.54,8.49-25.47C334.6,65.17,346,55,358.42,47.24c1.31-.82,2.63-1.6,3.93-2.37a116.52,116.52,0,0,1,26-11.27,105.87,105.87,0,0,1,29.76-4.15c2.57,0,5.12.09,7.68.25a106,106,0,0,1,32.27,7.42,120.52,120.52,0,0,1,15.09,7.31c17.66,41.34,28.46,85.64,28.59,130.5.13,43.68-14.44,77.12-27.43,117.39-3.4,10.53-2.83,21.93-1,33.77A98.22,98.22,0,0,1,454.66,341s-9.74,10.33-36.52,10.33S381.62,341,381.62,341c-10.35-6.14-19-14.81-27.15-23.7a280.28,280.28,0,0,1-20.42-24.53,164.82,164.82,0,0,1-14.88-24.16A127.32,127.32,0,0,1,308.44,236.2Z"/><path class="cls-6" d="M473.18,44.43a120.52,120.52,0,0,0-15.09-7.31l.17-.44c-.94-7-1.78-12.87-4.57-19.38a33.72,33.72,0,0,0-4.12-7.08h0c7.34-1.94,16.4-2,23.28,1.26a29.06,29.06,0,0,1,15,16.58c1.51,4.41,1.86,9.11,2.14,13.76,0,.57.07,1.11.1,1.64.29,4.37.59,7.84-.3,12.39a108.53,108.53,0,0,0-11.95-8.61C476.31,46.26,474.74,45.32,473.18,44.43Z"/><path class="cls-3" d="M335,361.14c.08-1.94.16-3.9.25-5.84.77-18.24-.1-39.7-1-59.2l-.15-3.33h0a280.28,280.28,0,0,0,20.42,24.53c8.17,8.89,16.8,17.56,27.15,23.7,0,0,9.74,10.33,36.52,10.33S454.66,341,454.66,341a98.22,98.22,0,0,0,18.69-14.9c4.17,26.53,14.86,55.34,2.29,81.65l.67.62c-12,13-25.77,27.39-36.87,41.22h0c-24.74,11.18-45.14.47-46,0h0c-16.62-20.3-37.64-41.58-50.11-57.26-3.68-4.65-7.35-9.5-9.24-15.14l.22-.09C334.5,371.77,334.74,366.46,335,361.14Z"/><path class="cls-6" d="M458.26,36.68l-.17.44a106,106,0,0,0-32.27-7.42l0-.56c-4.27-8.09-8.35-15.2-15.65-20.64,3.62-5.12,9.79-7.3,16-7.58,4.5-.2,9.12-.12,13.34,1.49a23.23,23.23,0,0,1,10,7.81,33.72,33.72,0,0,1,4.12,7.08C456.48,23.81,457.32,29.65,458.26,36.68Z"/><path class="cls-5" d="M451.68,1284.22v.1l-39.28-.23v-83.91c1-.21,2-.46,3-.76,6.29-1.91,12.37-5.41,18.94-5.11,3.95.18,7.69,1.74,11.45,3q2.94,1,5.93,1.66Z"/><path class="cls-6" d="M443.23,1059.68c1.69,14.21.66,28.45-1.16,42.7l-.64-.14q-3.81-.85-7.59-1.86c1.67-13.59,2.51-27.16.9-40.7-2.43-20.38-10.31-39.65-15.93-59.4-17.23-60.5-13-125.19.15-186.81,2.78,0,5.6,0,8.47.06-13.18,61.61-17.36,126.27-.14,186.75C432.92,1020,440.8,1039.3,443.23,1059.68Z"/><path class="cls-6" d="M441.43,1102.24l.64.14c-3.45,27-9.82,54.06-6.29,80.95v.1c-.49,0-1-.1-1.48-.12a22.17,22.17,0,0,0-6.77.86l-.24-.84c-3.63-27.56,3.17-55.28,6.55-82.95Q437.62,1101.38,441.43,1102.24Z"/><path class="cls-6" d="M436.7,746.49c2.16,20-3.18,39.93-7.62,59.53-.57,2.49-1.12,5-1.65,7.51-2.87,0-5.69-.06-8.47-.06.53-2.48,1.07-5,1.64-7.45,4.43-19.6,9.77-39.53,7.61-59.53-2.26-21.07-12.63-40.37-17.45-61-4.61-19.66-4.07-40.13-3.5-60.32.95-34.64,2.07-70.54,3-105.42l3.17,1a59.71,59.71,0,0,0,3-14.63,28.19,28.19,0,0,1,1.12-7.51,40.55,40.55,0,0,1,2.17-4.32c-1,34.88-3.09,96.22-4.05,130.86-.57,20.19-1.1,40.66,3.5,60.32C424.06,706.12,434.44,725.42,436.7,746.49Z"/><path class="cls-5" d="M347.47,661.16a434.05,434.05,0,0,0-3.31-56.55,146,146,0,0,1-46.81,16.1l-26.63-60.55,10.14-4.44-3.43-34.84-23.83-5.23-2.09.17c-1.89-24.84-3.57-49.09-5-73.94l49.77-19.58a291.94,291.94,0,0,1,38.08,10.19c18.51,6.28,40.2,16.1,55.77,27.92,14.84,11.28,20.53,15.13,26.24,23.34-2.8-.48-5.84,1.14-6.18,5.49-.18,2.41,1,4.87.36,7.22a9.79,9.79,0,0,1-2.62,4q-6.3,6.75-13,13.07a134.69,134.69,0,0,0,15.36,6.26c-1,34.88-2.09,70.78-3,105.42-.57,20.19-1.11,40.66,3.5,60.32,4.82,20.64,15.19,39.94,17.45,61,2.16,20-3.18,39.93-7.61,59.53-.57,2.48-1.11,5-1.64,7.45-13.19,61.62-17.38,126.31-.15,186.81,5.62,19.75,13.5,39,15.93,59.4,1.61,13.54.77,27.11-.9,40.7-3.38,27.67-10.18,55.39-6.55,82.95l.24.84c-4.1,1.1-8.09,3-12.17,4.23-23.93,7.28-49-8.4-73.94-7.35-12.32.52-24.27,5.14-36.61,4.91-13.89-.27-26.64-6.58-39.76-11.45-31.94-61.22-41.54-137.12-26.65-204.55,5-22.53,12.6-44.49,16.17-67.29,2.95-18.84,3.1-38,3.23-57.1.15-20.22.4-50.08.55-70.3h0c24,.32,46.66-3.1,70.43-9.06,2.85-.7,5.87-1.57,7.85-3.75s2.56-5.29,3-8.21A615.73,615.73,0,0,0,347.47,661.16Z"/><path class="cls-7" d="M439.43,449.58c-6.38,7.93-11.87,15.7-15.62,22.93A63.06,63.06,0,0,0,417,483.92c-.13-.05-.28-.08-.42-.12-1-1.95-2.19-3.93-3.48-5.9h0c-4.52-8.69-11.58-18.38-19.7-28.31C394.29,450.05,414.69,460.76,439.43,449.58Z"/><path class="cls-6" d="M425.85,29.14l0,.56c-2.56-.16-5.11-.25-7.68-.25a105.87,105.87,0,0,0-29.76,4.15l-.18-.66-2.52-3.64c-2.05-3-4.16-6-7-8.15A18,18,0,0,0,371.53,18v0C377.05,10,387.26,5.62,396.85,5.22a19.16,19.16,0,0,1,7.26.84c2.34.8,4.81,1.47,6.09,2.44C417.5,13.94,421.58,21.05,425.85,29.14Z"/><path class="cls-6" d="M422.86,477.18a83.63,83.63,0,0,0-2.28,9.82,5.63,5.63,0,0,0-2.89-2.84A50.12,50.12,0,0,1,422.86,477.18Z"/><path class="cls-6" d="M420.58,487a6.66,6.66,0,0,1,.54,3.4,10.7,10.7,0,0,1-1.33,3.9,40.55,40.55,0,0,0-2.17,4.32,28.19,28.19,0,0,0-1.12,7.51,59.71,59.71,0,0,1-3,14.63l-3.17-1a134.69,134.69,0,0,1-15.36-6.26q6.71-6.33,13-13.07a9.79,9.79,0,0,0,2.62-4c.61-2.35-.54-4.81-.36-7.22.34-4.35,3.38-6,6.18-5.49l.45.66a46.79,46.79,0,0,0-2.46,6.83,30.42,30.42,0,0,0-1.59,10,43.94,43.94,0,0,1,1.59-10,33.29,33.29,0,0,1,2.85-6.26v0c.15-.27.3-.54.47-.8A5.63,5.63,0,0,1,420.58,487Z"/><path class="cls-6" d="M296.29,422.3A229.29,229.29,0,0,0,256,417.91q1.83-4.82,3.86-9.55c4.89-.71,16,.68,27.1,2.47,33.79,5.43,63.82,16.72,92.49,35.4,16.9,11,27.11,21.46,33.72,31.67,1.29,2,2.45,4,3.48,5.9l-.23-.05c-5.71-8.21-11.4-12.06-26.24-23.34-15.57-11.82-37.26-21.64-55.77-27.92A291.94,291.94,0,0,0,296.29,422.3Z"/><path class="cls-5" d="M276.88,375.47a253.21,253.21,0,0,1,18.76-26.55c14.26-17.65,38.85-29.49,38.4-52.82h.15c.92,19.5,1.79,41,1,59.2-.09,1.94-.17,3.9-.25,5.84-2.68,4.7-2.65,10.71-.94,15.9l.05.14c1.89,5.64,5.56,10.49,9.24,15.14,12.47,15.68,33.49,37,50.11,57.26h0c8.12,9.93,15.18,19.62,19.7,28.31h0c-6.61-10.21-16.82-20.64-33.72-31.67-28.67-18.68-58.7-30-92.49-35.4-11.08-1.79-22.21-3.18-27.1-2.47A251.15,251.15,0,0,1,276.88,375.47Z"/><path class="cls-5" d="M412.4,1200.18v83.91l-131.22-.79v-.07c22.7-24.32,29.07-51.8,23.63-86.28,12.34.26,24.29-4.36,36.61-4.88C365.38,1191.05,389.37,1205.42,412.4,1200.18Z"/><path class="cls-6" d="M388.2,32.94l.18.66a116.52,116.52,0,0,0-26,11.27c-4-7.35-12.72-8.67-20.7-6.45l-1.36.42c.54-6.78,6-13.55,11.89-16.88a31.72,31.72,0,0,1,13.2-4.36,22.26,22.26,0,0,1,6.15.39v0a18,18,0,0,1,7.11,3.14c2.88,2.16,5,5.19,7,8.15Z"/><path class="cls-6" d="M362.35,44.87c-1.3.77-2.62,1.55-3.93,2.37C346,55,334.6,65.17,327.78,78.26c-4.15,7.93-6.51,16.7-8.49,25.47-5.41,23.93-8.25,48.32-10.36,72.81-3.18-4.26-6.29-8.49-9.07-12.82-6.16-9.58-10.7-19.6-10.81-31.45-.07-7.13,1.72-14.15,3.75-21,6.22-21,15-41.59,29-58.28,5.07-6,11.09-11.68,18.47-14.18l1.36-.42C349.63,36.2,358.32,37.52,362.35,44.87Z"/><path class="cls-5" d="M260.44,623.41c.76,0,1.51.05,2.26.05a198.62,198.62,0,0,0,21.38-1q4.19-.4,8.35-1l.5-.07,4.47-.59,0-.13a146,146,0,0,0,46.81-16.1,434.05,434.05,0,0,1,3.31,56.55c-1.47.82-72.43,40.42-170.31,0-.08-16.37.67-33,2.08-50,21.5,5.22,43.31,9.72,65.32,11.5l0,0C249.85,623.07,255.14,623.34,260.44,623.41Z"/><path class="cls-5" d="M347.47,661.16a615.73,615.73,0,0,1-7.81,93.08c-.47,2.92-1,6-3,8.21s-5,3-7.85,3.75c-23.77,6-46.43,9.38-70.43,9.06a260.68,260.68,0,0,1-59.78-8,12.55,12.55,0,0,1-9.12-9c-8.62-32.67-12.14-64.42-12.29-97.09C275,701.58,346,662,347.47,661.16Z"/><path class="cls-3" d="M308.93,176.54c-.87,10.27-1.62,20.57-2.38,30.84a112.77,112.77,0,0,0,1.89,28.82c-6-4.28-14.79-17.69-16.45-24.94-2.94-12.87-6.44-19-5.77-31.54.22-4.12.52-8.42,2.69-11.9s6.85-5.73,10.43-3.77l.52-.33C302.64,168.05,305.75,172.28,308.93,176.54Z"/><path class="cls-5" d="M279.71,1252.6c7.85-17.65,8.85-38.61,4.8-59.68a67,67,0,0,0,20.3,4c5.44,34.48-.93,62-23.63,86.28v.07l-27.6-.17q1.33-.87,2.61-1.77c.22.05.45.1.69.17l.22-.84A69.14,69.14,0,0,0,279.71,1252.6Z"/><path class="cls-8" d="M270.72,560.16l26.63,60.55c-1.47.27-3,.5-4.42.72l-.5.07q-4.17.6-8.35,1l-25.16-57.19-3.56,1.56-6.58,2.88-11.1-12.49-12.15-13.67,12.34-21.06,4.2,9.61-4.66,8,13.18,14.81,3.9-1.71L268.76,547l-2-19.73-9-2-4.2-9.61,23.83,5.23,3.43,34.84Z"/><path class="cls-5" d="M207.12,1208.15A106.57,106.57,0,0,0,191,1171l-.26-.57c4.77,1.86,13.13,3.68,18.07,4.65,15.52,3,31.58,3.07,46.8,7.32,9.84,2.74,19.29,7.26,28.95,10.54,4.05,21.07,3.05,42-4.8,59.68-9.42-1.44-28.17-9.6-37.58-11.09-23.58-3.73-37.42-6.26-56.25-17.83a82.15,82.15,0,0,1,18.35-9.9,4.67,4.67,0,0,0,2.86-5.61Z"/><path class="cls-5" d="M258.92,565.31l25.16,57.19a198.62,198.62,0,0,1-21.38,1c-.75,0-1.5,0-2.26-.05-1.92-19.87-3.38-36-5.08-56.52v0Z"/><path class="cls-6" d="M246.52,441.88l-12.3,4.84c-23.58,9.28-47.43,18.64-72.51,22.36-16.43,2.42-36.23,4.33-44.21,18.59q-5.77-22.55-12.82-44.44a72.63,72.63,0,0,1,16.38-12.6c14.43-8.06,31.16-10.51,47.33-13.91a373.22,373.22,0,0,0,108.49-41.25,251.15,251.15,0,0,0-17.06,32.89q-2,4.74-3.86,9.55a229.29,229.29,0,0,1,40.33,4.39Z"/><path class="cls-3" d="M279.71,1252.6a69.14,69.14,0,0,1-22.61,28.09l.2-.79a47,47,0,0,0-13.63-2c-7.18-.15-12.83-.27-18.86,4.25l.64.85-129.38-.78c.15-5.69.07-11.4-.25-17.09-.22-4.17-.57-8.34-1-12.49l-.47-.6c10.21-7.65,20.27-19.36,28.56-25.82,10.86-8.49,24-13.58,36.93-18.25,3.2-1.13,6.45-2.29,9.73-3.28-.62,6.2,6,12.25,11.16,15.72,1.77,1.19,3.5,2.29,5.17,3.31,18.83,11.57,32.67,14.1,56.25,17.83C251.54,1243,270.29,1251.16,279.71,1252.6Z"/><path class="cls-5" d="M266.8,527.24l2,19.73-14.27,6.24c-1-12.7-2-25.12-3-37.39l2.09-.17,4.2,9.61Z"/><path class="cls-5" d="M125.88,985.67c1.07-15.23-.57-30.78,3.1-45.59,2.88-11.63,8.87-22.21,13-33.47a130,130,0,0,0,8.2-39.18c.64-16.22,1.12-34.35,1.29-54,.15-17.28.05-35.7-.39-55-.4-17-1.07-34.61-2.11-52.72-3.91-69.57-13-146-31.44-218.11,8-14.26,27.78-16.17,44.21-18.59,25.08-3.72,48.93-13.08,72.51-22.36l12.3-4.84c1.42,24.85,3.1,49.1,5,73.94,1,12.27,1.94,24.69,3,37.39l-3.9,1.71-13.18-14.81,4.66-8-4.2-9.61-12.34,21.06,12.15,13.67-2.47,2.19a20.36,20.36,0,1,0-15.07,34,19.9,19.9,0,0,0,6.75-1.16h0c1.61,0,17.16,29.36,17.64,30.28-22-1.78-43.82-6.28-65.32-11.5-1.41,17.06-2.16,33.66-2.08,50,.15,32.67,3.67,64.42,12.29,97.09a12.55,12.55,0,0,0,9.12,9,260.68,260.68,0,0,0,59.78,8h0c-.15,20.22-.4,50.08-.55,70.3-.13,19.09-.28,38.26-3.23,57.1C251,925.47,243.39,947.43,238.4,970c-14.89,67.43-5.29,143.33,26.65,204.55-3.13-1.15-6.3-2.24-9.49-3.13-15.22-4.27-31.28-4.28-46.8-7.33s-30.78-8.89-38.66-22.58h0a36.91,36.91,0,0,1-.37-7.79c.29-4.82,1.47-9.67.6-14.41-.73-4-2.86-7.51-5.08-10.88-12.77-19.23-30.82-36.58-34.15-59.43-2.86-19.75-8.28-37.5-5.79-57.3Q125.69,988.68,125.88,985.67Z"/><path class="cls-5" d="M255.36,566.89c1.7,20.55,3.16,36.65,5.08,56.52-.6-1-22.81-37.78-22.93-39.65v0s0,0,0,0a20.05,20.05,0,0,0,3-10.54,20.33,20.33,0,0,0-5.28-13.7l2.47-2.19,11.1,12.49,6.58-2.88Z"/><path class="cls-3" d="M257.3,1279.9l-.2.79c-.29.23-.61.45-.91.67a42.64,42.64,0,0,0-12.48-1.81c-6.88-.17-11.9-.27-17.21,3.41h-1.05l-.64-.85c6-4.52,11.68-4.4,18.86-4.25A47,47,0,0,1,257.3,1279.9Z"/><path class="cls-5" d="M256.19,1281.36c.3-.22.62-.44.91-.67l-.22.84C256.64,1281.46,256.41,1281.41,256.19,1281.36Z"/><path class="cls-3" d="M256.19,1281.36q-1.27.9-2.61,1.77L226.5,1283c5.31-3.68,10.33-3.58,17.21-3.41A42.64,42.64,0,0,1,256.19,1281.36Z"/><path class="cls-8" d="M237.51,583.76c.12,1.87,22.33,38.66,22.93,39.65-5.3-.07-10.59-.34-15.86-.77l0,0c-.48-.92-16-30.28-17.64-30.28A20.43,20.43,0,0,0,237.51,583.76Z"/><path class="cls-8" d="M235.21,559.45a20.33,20.33,0,0,1,5.28,13.7,20.05,20.05,0,0,1-3,10.54s0,0,0,0v0a20.43,20.43,0,0,1-10.59,8.58h0a19.9,19.9,0,0,1-6.75,1.16,20.36,20.36,0,1,1,15.07-34Zm-4.54,13.7a10.54,10.54,0,1,0-10.53,10.54A10.52,10.52,0,0,0,230.67,573.15Z"/><path class="cls-5" d="M220.14,562.62a10.54,10.54,0,1,1-10.54,10.53A10.52,10.52,0,0,1,220.14,562.62Z"/><path class="cls-9" d="M226.5,1283l-.68.49-.37-.49Z"/><path class="cls-1" d="M207.09,1208.17a4.67,4.67,0,0,1-2.86,5.61,82.15,82.15,0,0,0-18.35,9.9c-1.67-1-3.4-2.12-5.17-3.31-5.19-3.47-11.78-9.52-11.16-15.72a66.5,66.5,0,0,1,17.52-3.21,36.34,36.34,0,0,1,17.67,3.8A4.59,4.59,0,0,1,207.09,1208.17Z"/><path class="cls-6" d="M207.12,1208.15l0,0a4.59,4.59,0,0,0-2.35-2.93,36.34,36.34,0,0,0-17.67-3.8,66.5,66.5,0,0,0-17.52,3.21c-3.28,1-6.53,2.15-9.73,3.28-13,4.67-26.07,9.76-36.93,18.25-8.29,6.46-18.35,18.17-28.56,25.82a39.69,39.69,0,0,1-12.25,6.63,48.74,48.74,0,0,1-7-13.37c-6.51-17.89-8.87-37.36-12.2-56.2,14-8.19,25.07-17.38,39.05-25.56,12.27-7.18,24.75-14.46,38.54-17.93,8.94-2.24,19.8-2.84,29-3.41l.7-.12a39.71,39.71,0,0,0,20.49,28.37l.26.57A106.57,106.57,0,0,1,207.12,1208.15Z"/><path class="cls-5" d="M122,925.9a574,574,0,0,0,3.85,59.77q-.19,3-.57,6c-2.49,19.8,2.93,37.55,5.79,57.3,3.33,22.85,21.38,40.2,34.15,59.43,2.22,3.37,4.35,6.92,5.08,10.88.87,4.74-.31,9.59-.6,14.41a36.91,36.91,0,0,0,.37,7.79h0c0,.2.07.39.1.57l-.7.12c-9.21.57-20.07,1.17-29,3.41-13.79,3.47-26.27,10.75-38.54,17.93-14,8.18-25.07,17.37-39.05,25.56-.33-1.93-.69-3.82-1-5.73-5.79-30.24-19.75-53.29-25.46-81.39C27.6,1058.73,20.64,1016,12.22,972.75,7.65,949.25.24,925.94.87,902,2,861,26.6,820.66,15.9,781.08c-1.43-5.35-3.54-10.64-3.63-16.2,27.8,44.27,88,47.72,119.3,47.82-1.82,10.76-3.51,21.54-4.9,32.33A581.58,581.58,0,0,0,122,925.9Z"/><path class="cls-1" d="M151.05,758.5c.44,19.27.54,37.69.39,55h-.09c0-1.17-7.76-.72-19.78-.77,3.11-18.26,6.65-36.47,9.84-54.72C146.62,758,150.05,758,151.05,758.5Z"/><path class="cls-4" d="M122,925.9A581.58,581.58,0,0,1,126.67,845c1.39-10.79,3.08-21.57,4.9-32.33,12,0,19.77-.4,19.78.77h.09c-.17,19.61-.65,37.74-1.29,54a130,130,0,0,1-8.2,39.18c-4.1,11.26-10.09,21.84-13,33.47-3.67,14.81-2,30.36-3.1,45.59A574,574,0,0,1,122,925.9Z"/><path class="cls-4" d="M148.94,705.78c1,18.11,1.71,35.75,2.11,52.72-1-.5-4.43-.52-9.64-.52C144.46,740.61,147.19,723.22,148.94,705.78Z"/><path class="cls-5" d="M117.5,487.67C136,559.76,145,636.21,148.94,705.78c-1.75,17.44-4.48,34.83-7.53,52.2-24.2,0-86.64,0-120.35-50.89,1.47-15.25,7.18-29.69,12.38-44.09A733.1,733.1,0,0,0,71.5,504.46l1.06-.55c6.93-22,16.32-44.66,32.12-60.68Q111.73,465.09,117.5,487.67Z"/><path class="cls-6" d="M141.41,758c-3.19,18.25-6.73,36.46-9.84,54.72-31.28-.1-91.5-3.55-119.3-47.82-.15-8.17,4-15.7,6.08-23.6,2.89-11.09,1.6-22.79,2.71-34.19C54.77,758,117.21,758,141.41,758Z"/><path class="cls-9" d="M418.14,352.15c-25.83,0-36-9.4-37-10.5-10.44-6.22-19.26-15.11-27.25-23.79a277.39,277.39,0,0,1-20.47-24.61h0a163.52,163.52,0,0,1-15-24.27,128.12,128.12,0,0,1-10.8-32.62,112.91,112.91,0,0,1-1.9-29l0-.31c.74-10,1.49-20.37,2.36-30.54,1.74-20.3,4.5-46.93,10.37-72.92,1.92-8.5,4.28-17.49,8.56-25.68,6.16-11.79,16.57-22.34,31-31.33,1.31-.83,2.64-1.62,3.95-2.39A117.54,117.54,0,0,1,388.15,32.8,106.81,106.81,0,0,1,418,28.62c2.65,0,5.24.08,7.91.25a107.26,107.26,0,0,1,32.53,7.47,124.37,124.37,0,0,1,15.2,7.37c1.7,1,3.24,1.89,4.72,2.83a108.63,108.63,0,0,1,12,8.67,74.71,74.71,0,0,1,18.9,22.66c4.26,8.14,6.62,17.15,8.54,25.68,4.45,19.72,7.54,41,10,69,.95,10.6,1.74,21.38,2.51,31.82l.22,3a112.55,112.55,0,0,1-1.89,29A127.76,127.76,0,0,1,517.85,269a165.48,165.48,0,0,1-14.78,24.12,284.85,284.85,0,0,1-20.63,24.76c-2.29,2.48-5.32,5.72-8.5,8.83a97.74,97.74,0,0,1-18.76,15C454.09,342.75,444,352.15,418.14,352.15ZM418,30.29a105.37,105.37,0,0,0-29.35,4.12,116.1,116.1,0,0,0-25.84,11.18c-1.29.77-2.6,1.55-3.9,2.36-14.13,8.84-24.34,19.17-30.35,30.7-4.2,8-6.52,16.88-8.41,25.27-5.85,25.89-8.6,52.45-10.35,72.69-.86,10.16-1.62,20.51-2.35,30.52l0,.31a111,111,0,0,0,1.88,28.61,126,126,0,0,0,10.65,32.18,162.46,162.46,0,0,0,14.81,24h0a272.67,272.67,0,0,0,20.36,24.46c7.92,8.62,16.66,17.44,27,23.55l.18.15c.09.1,9.88,10.06,35.91,10.06s35.81-10,35.91-10.06a.65.65,0,0,1,.18-.15,96.36,96.36,0,0,0,18.53-14.77c3.16-3.09,6.17-6.31,8.45-8.78a279.78,279.78,0,0,0,20.5-24.61,162.27,162.27,0,0,0,14.64-23.88A126,126,0,0,0,527,236a110.57,110.57,0,0,0,1.87-28.54l-.22-3c-.77-10.43-1.56-21.21-2.51-31.79-2.48-27.91-5.56-49.11-10-68.76-1.9-8.42-4.23-17.3-8.4-25.27a73,73,0,0,0-18.48-22.16A108,108,0,0,0,477.43,48c-1.46-.92-3-1.83-4.66-2.79a121.6,121.6,0,0,0-15-7.26,105.55,105.55,0,0,0-32-7.36C423.13,30.37,420.56,30.29,418,30.29Z"/><path class="cls-9" d="M308.93,177.37a.83.83,0,0,1-.67-.33c-3-4-6.22-8.37-9.1-12.87-7.47-11.61-10.85-21.44-11-31.89-.07-7.57,1.92-14.92,3.78-21.22,7.36-24.81,16.91-44,29.19-58.58,6.47-7.68,12.45-12.27,18.85-14.43l1.38-.43c7.52-2.09,17.15-1.4,21.68,6.85a.84.84,0,0,1-1.47.8c-4.05-7.38-12.85-8-19.74-6-.43.13-.88.26-1.32.41-6.09,2-11.84,6.48-18.1,13.92C310.33,68,300.89,87,293.6,111.53c-1.83,6.19-3.78,13.4-3.72,20.73.1,10.12,3.4,19.68,10.68,31,2.86,4.46,6,8.76,9,12.78a.83.83,0,0,1-.67,1.33Z"/><path class="cls-9" d="M388.2,33.77a.82.82,0,0,1-.69-.36L385,29.78c-2-2.89-4.09-5.87-6.86-8a17.13,17.13,0,0,0-6.79-3,.84.84,0,0,1-.64-1,.82.82,0,0,1,1-.64,18.73,18.73,0,0,1,7.44,3.29c3,2.25,5.15,5.35,7.23,8.35l2.51,3.63a.82.82,0,0,1-.21,1.16A.84.84,0,0,1,388.2,33.77Z"/><path class="cls-9" d="M340.3,39.68h-.07a.84.84,0,0,1-.77-.9c.6-7.59,6.8-14.42,12.3-17.55a32.35,32.35,0,0,1,13.56-4.46,22.9,22.9,0,0,1,6.38.4.83.83,0,0,1,.64,1,.84.84,0,0,1-1,.65,21.06,21.06,0,0,0-5.91-.37,30.72,30.72,0,0,0-12.85,4.24c-5.3,3-10.93,9.56-11.46,16.23A.84.84,0,0,1,340.3,39.68Z"/><path class="cls-9" d="M425.85,30a.84.84,0,0,1-.74-.44c-4.22-8-8.3-15.06-15.41-20.36a17.84,17.84,0,0,0-4.43-1.85l-1.43-.47a18.23,18.23,0,0,0-6.95-.79c-10.18.42-19.62,5.16-24.65,12.37a.84.84,0,0,1-.71.4.82.82,0,0,1-.84-.82v0a.83.83,0,0,1,.15-.48c5.31-7.65,15.27-12.68,26-13.13a20.3,20.3,0,0,1,7.58.88l1.4.47a18.42,18.42,0,0,1,4.92,2.1c7.38,5.51,11.56,12.73,15.88,20.92a.83.83,0,0,1-.35,1.13A.86.86,0,0,1,425.85,30Z"/><path class="cls-9" d="M458.25,37.52a.82.82,0,0,1-.82-.73c-.87-6.45-1.68-12.56-4.51-19.16a32.47,32.47,0,0,0-4-6.9,22.44,22.44,0,0,0-9.68-7.54c-4.16-1.59-8.71-1.63-13-1.44C419.4,2.07,414,4.63,410.89,9a.84.84,0,0,1-1.17.2.82.82,0,0,1-.2-1.16c3.37-4.78,9.28-7.6,16.63-7.94,4.47-.2,9.23-.15,13.67,1.55a24,24,0,0,1,10.41,8.09A33.59,33.59,0,0,1,454.45,17c2.93,6.81,3.76,13,4.63,19.6a.83.83,0,0,1-.71.94Z"/><path class="cls-9" d="M489.82,56.68h-.16a.84.84,0,0,1-.66-1,41.11,41.11,0,0,0,.34-11.43l-.15-2.39c-.31-4.93-.67-9.35-2.1-13.53a28.45,28.45,0,0,0-14.58-16.11c-6-2.85-14.72-3.31-22.71-1.2a.84.84,0,0,1-.43-1.62c8.49-2.24,17.4-1.75,23.85,1.31a29.68,29.68,0,0,1,15.45,17.07c1.5,4.38,1.88,8.92,2.19,14l.15,2.38A42.57,42.57,0,0,1,490.64,56,.83.83,0,0,1,489.82,56.68Z"/><path class="cls-9" d="M527,173.49a.84.84,0,0,1-.68-1.32.6.6,0,0,1,.09-.13c1.73-1.92,3.39-3.95,4.94-6a.82.82,0,0,1,1.17-.18.83.83,0,0,1,.17,1.17c-1.57,2.12-3.25,4.18-5,6.13a1.31,1.31,0,0,1-.11.12A.81.81,0,0,1,527,173.49Z"/><path class="cls-9" d="M532,167.3a.83.83,0,0,1-.68-1.33c11.26-15.42,14.65-32.57,10.39-52.44-3.93-18.25-15.47-37.37-25.65-54.24-2.43-4-4.72-7.83-6.9-11.58-1.17-2-2.5-4.28-4.53-5.51-3.88-2.34-9-.31-13.49,2a.84.84,0,1,1-.76-1.49c4.9-2.49,10.53-4.67,15.12-1.91,2.39,1.45,3.9,4,5.11,6.1,2.17,3.74,4.46,7.53,6.88,11.55,10.25,17,21.87,36.23,25.85,54.76,4.37,20.36.88,37.95-10.67,53.77A.82.82,0,0,1,532,167.3Z"/><path class="cls-9" d="M308.46,237.06a.83.83,0,0,1-.54-.21c-6.12-4.39-15-17.9-16.74-25.4-.86-3.74-1.74-6.84-2.6-9.83-2.05-7.22-3.68-12.92-3.2-22,.2-3.79.45-8.5,2.82-12.3s7.4-6.32,11.54-4.05a.83.83,0,1,1-.8,1.46c-3.19-1.74-7.39.4-9.32,3.48-2.14,3.43-2.37,7.9-2.57,11.5-.46,8.75,1.13,14.33,3.14,21.4.82,2.88,1.75,6.14,2.62,9.92,1.62,7.08,10.36,20.33,16.12,24.44l.12.1a.84.84,0,0,1-.59,1.44Z"/><path class="cls-9" d="M528.3,237.06a.84.84,0,0,1-.49-1.52c5.75-4.1,14.5-17.36,16.14-24.46.87-3.81,1.8-7.09,2.63-10,2-7,3.59-12.61,3.13-21.33-.24-4.4-.59-8.31-2.57-11.5-1.73-2.77-3.75-4.35-6-4.69-2.52-.38-5.38.78-8.52,3.45l-.06.07a.85.85,0,0,1-1.44-.6.84.84,0,0,1,.23-.57l.09-.09c3.56-3.06,6.91-4.38,9.95-3.91,2.75.41,5.15,2.25,7.16,5.45,2.19,3.54,2.57,7.67,2.82,12.3.48,9-1.14,14.69-3.19,21.88-.86,3-1.75,6.14-2.61,9.9-1.74,7.54-10.69,21.09-16.8,25.45A.84.84,0,0,1,528.3,237.06Z"/><path class="cls-9" d="M415.18,491.46l-1.62-.45a48.56,48.56,0,0,1,2.46-6.84.77.77,0,0,1,.1-.25c.05-.13.1-.24.16-.37A63.89,63.89,0,0,1,423.14,472c7.45-10.14,18.75-20.18,33.59-29.84,28.29-18.44,58.65-30.06,92.81-35.54,14.13-2.27,23.06-3.08,27.33-2.48l-.11.77v.89h-.14c-4-.57-13.06.27-26.83,2.48-33.92,5.44-64.06,17-92.16,35.29C443,453.12,431.82,463,424.48,473a63.42,63.42,0,0,0-6.69,11.27,2.93,2.93,0,0,0-.12.28v0l-.08.17A46.29,46.29,0,0,0,415.18,491.46Z"/><path class="cls-9" d="M413.62,501.28l-1.68,0A31.25,31.25,0,0,1,413.58,491l1.6.49A42.47,42.47,0,0,0,413.62,501.28Z"/><path class="cls-9" d="M418,485.37l-1.46-.82c.15-.28.31-.56.49-.84a51,51,0,0,1,5.25-7.08c6-6.9,13.86-12.81,21.43-18.53l2.29-1.74c13.64-10.37,34.06-20.59,56-28a299.9,299.9,0,0,1,34.39-9.46,233.67,233.67,0,0,1,43.07-5.14c-1.1-2.86-2.25-5.69-3.43-8.43a249.72,249.72,0,0,0-14.59-28.82,253.09,253.09,0,0,0-21.09-30.41c-4.35-5.38-9.74-10.29-15-15-11.77-10.71-23.94-21.78-23.62-38.32l1.67,0c-.3,15.79,11.05,26.11,23.07,37.05,5.27,4.79,10.71,9.74,15.14,15.22a254.48,254.48,0,0,1,21.23,30.61,249.2,249.2,0,0,1,14.69,29c1.34,3.11,2.64,6.34,3.88,9.6l.42,1.12h-1.19a231.61,231.61,0,0,0-43.94,5.13,296.07,296.07,0,0,0-34.2,9.41c-21.78,7.38-42,17.51-55.53,27.77l-2.3,1.74c-7.5,5.67-15.25,11.53-21.17,18.3a50.26,50.26,0,0,0-5.09,6.86C418.23,484.86,418.09,485.11,418,485.37Z"/><path class="cls-9" d="M501.47,373.76c-.23-5.23-.44-10.44-.66-15.67l-.26-6.12c-.8-18.74.12-37.52,1.08-57.4l.09-1.87,1.67.08-.09,1.87c-1,19.84-1.87,38.58-1.08,57.25l.26,6.12c.22,5.23.43,10.44.66,15.67Z"/><path class="cls-9" d="M424.55,472.89l-1.48-.77c3.47-6.69,8.6-14.23,15.7-23.07l1.31,1.05C433.05,458.85,428,466.3,424.55,472.89Z"/><path class="cls-9" d="M440.1,450.1l-1.31-1.05c8.8-11,19.17-22.13,29.21-32.94,2.62-2.82,5.2-5.6,7.7-8.32,7.64-8.29,12.86-14.26,16.91-19.37,3.59-4.51,7.25-9.38,9.1-14.89l.06-.13c1.8-5.43,1.48-11.11-.86-15.21a13.22,13.22,0,0,0-.79-1.25l1.36-1a13.3,13.3,0,0,1,.89,1.4c2.57,4.49,2.93,10.69,1,16.57l0,.1a.14.14,0,0,0,0,.06c-1.94,5.75-5.69,10.74-9.37,15.36-4.08,5.15-9.32,11.15-17,19.46-2.5,2.73-5.09,5.51-7.71,8.33C459.21,428,448.86,439.19,440.1,450.1Z"/><path class="cls-9" d="M415.17,491.5l-1.59-.53a33.6,33.6,0,0,1,2.69-6l-.4-.78c-1.06-2-2.22-4-3.44-5.83-7.23-11.16-18.18-21.43-33.48-31.42-28.07-18.29-58.22-29.82-92.16-35.27-13.77-2.23-22.8-3.06-26.85-2.48l-.23-1.65c4.21-.61,13.42.22,27.35,2.48,34.17,5.48,64.53,17.1,92.81,35.52,15.5,10.11,26.61,20.55,34,31.91,1.25,1.91,2.43,3.92,3.52,6l.7,1.34v.43l-.11.21A32.18,32.18,0,0,0,415.17,491.5Z"/><path class="cls-9" d="M416.54,485.45l-.21-.3-.64-.92c-5-7.25-9.91-10.94-21.7-19.85l-4.36-3.31c-13.56-10.29-33.8-20.42-55.53-27.79a293.22,293.22,0,0,0-38-10.16A226.72,226.72,0,0,0,256,418.75l-1.2,0,.43-1.12c1.21-3.17,2.51-6.4,3.88-9.58a249.65,249.65,0,0,1,17.11-33A252.6,252.6,0,0,1,295,348.4c4.43-5.48,9.87-10.44,15.14-15.23,12-10.94,23.37-21.27,23.07-37.05l1.67,0c.32,16.53-11.84,27.61-23.61,38.31-5.22,4.76-10.62,9.67-15,15.05a253.37,253.37,0,0,0-18.7,26.46,250.46,250.46,0,0,0-17,32.77c-1.19,2.8-2.34,5.62-3.42,8.42a230.54,230.54,0,0,1,39.28,4.38,293.41,293.41,0,0,1,38.19,10.22c21.89,7.42,42.31,17.64,56,28L395,463c11.59,8.77,16.88,12.77,22.07,20.24l.45.65.2.28.17.26Z"/><path class="cls-9" d="M335.12,377.13l-1.67-.07q.17-4,.34-8l.33-8,.25-5.85c.77-18.27-.12-40.1-1-59.12l-.15-3.33,1.67-.08.15,3.34c.9,19.05,1.8,40.92,1,59.27l-.25,5.84-.33,8C335.34,371.81,335.23,374.46,335.12,377.13Z"/><path class="cls-9" d="M412.41,478.28c-4-7.74-10.44-16.95-19.61-28.15l1.3-1.07c9.24,11.3,15.71,20.61,19.79,28.45Z"/><path class="cls-9" d="M392.77,450.11c-8.34-10.19-17.68-20.5-26.72-30.48-8.83-9.75-17.18-19-23.4-26.79-3.85-4.87-7.47-9.71-9.37-15.4l-.06-.14c-2-6-1.59-12,1-16.57a15.1,15.1,0,0,1,.88-1.39l1.37,1a12.84,12.84,0,0,0-.79,1.25c-2.34,4.1-2.66,9.79-.88,15.23l.05.13c1.83,5.44,5.35,10.15,9.1,14.89,6.19,7.78,14.52,17,23.33,26.71,9,10,18.41,20.32,26.77,30.54Z"/><path class="cls-9" d="M424.62,428.21a38.55,38.55,0,0,1-19.64-22l1.58-.55a36.89,36.89,0,0,0,18.78,21.06Z"/><path class="cls-9" d="M414,521.8l-.78-.24-3.17-1a131.23,131.23,0,0,1-15.46-6.3l-1.1-.52.89-.84c4.47-4.22,8.83-8.61,13-13a9.1,9.1,0,0,0,2.42-3.59,9.32,9.32,0,0,0-.11-3.74,13.63,13.63,0,0,1-.27-3.33,6.83,6.83,0,0,1,2.47-5.14,5.93,5.93,0,0,1,4.68-1.11l.36.08a2.85,2.85,0,0,1,.39.11,4.58,4.58,0,0,1,.77.28,6.38,6.38,0,0,1,3.3,3.25,7.57,7.57,0,0,1,.61,3.82,11.62,11.62,0,0,1-1.41,4.21c-.22.43-.46.85-.69,1.28a23,23,0,0,0-1.45,3,22.24,22.24,0,0,0-1,6.09l-.09,1.2A60,60,0,0,1,414.26,521Zm-17.59-8.55a133.51,133.51,0,0,0,14.17,5.7l2.37.76a58.61,58.61,0,0,0,2.72-13.64l.09-1.19a23.87,23.87,0,0,1,1.08-6.55,25.27,25.27,0,0,1,1.55-3.18c.23-.41.46-.82.67-1.24a9.63,9.63,0,0,0,1.23-3.59,5.8,5.8,0,0,0-.46-3,4.8,4.8,0,0,0-2.47-2.43,3.15,3.15,0,0,0-.5-.18l-.11,0-.26-.07-.18,0,.08-.84-.14.83a4.21,4.21,0,0,0-3.37.78,5.3,5.3,0,0,0-1.83,3.95,12.44,12.44,0,0,0,.25,2.93,10.49,10.49,0,0,1,.07,4.43,10.19,10.19,0,0,1-2.81,4.31C404.67,505.14,400.59,509.26,396.4,513.25Z"/><path class="cls-9" d="M426.46,1183.44c-2.75-20.88.49-42.14,3.63-62.7,1-6.71,2.08-13.65,2.91-20.46,2-16.33,2.29-28.82.91-40.5-1.71-14.32-6.21-28.36-10.56-41.94-1.82-5.66-3.69-11.52-5.35-17.33-15.34-53.88-15.29-115.12.14-187.22l.18-.83c.48-2.21,1-4.42,1.46-6.63q.66-2.91,1.34-5.84c4-17.47,8.19-35.54,6.26-53.41-1.33-12.38-5.56-24.39-9.66-36a239.79,239.79,0,0,1-7.78-24.9c-4.66-19.93-4.08-40.57-3.52-60.53.5-18,1-36.45,1.58-54.86.5-16.92,1-33.86,1.47-50.57l1.67,0c-.46,16.71-1,33.65-1.46,50.57-.55,18.41-1.09,36.8-1.58,54.86-.56,19.85-1.14,40.38,3.47,60.1A239.33,239.33,0,0,0,419.29,710c4.14,11.71,8.41,23.82,9.75,36.39,2,18.15-2.23,36.36-6.29,54q-.67,2.92-1.34,5.84c-.5,2.2-1,4.41-1.45,6.61l-.18.83c-15.38,71.82-15.43,132.8-.17,186.41,1.65,5.79,3.52,11.63,5.33,17.28,4.38,13.65,8.91,27.77,10.63,42.25,1.4,11.82,1.12,24.44-.9,40.91-.84,6.83-1.9,13.78-2.92,20.5-3.12,20.44-6.35,41.58-3.63,62.23Z"/><path class="cls-9" d="M435,1183.44c-2.74-20.87.5-42.13,3.63-62.69.92-6.06,1.87-12.32,2.66-18.48,1.5-11.7,3-27.11,1.15-42.49-1.7-14.33-6.2-28.37-10.56-41.95-1.81-5.66-3.69-11.51-5.34-17.32-15.33-53.85-15.29-115.06.12-187.15.53-2.52,1.09-5,1.66-7.53.44-1.94.89-3.88,1.33-5.83,4-17.48,8.2-35.54,6.27-53.42-1.33-12.38-5.57-24.39-9.67-36a239.74,239.74,0,0,1-7.77-24.9c-4.67-19.93-4.09-40.57-3.52-60.53.48-17.58,1.28-42.4,2-66.41.75-23.24,1.52-47.27,2-64.45l1.67,0c-.48,17.19-1.25,41.22-2,64.47-.77,24-1.57,48.82-2.05,66.4-.56,19.85-1.14,40.38,3.48,60.1A237.84,237.84,0,0,0,427.78,710c4.13,11.7,8.4,23.81,9.75,36.38,2,18.16-2.24,36.36-6.29,54q-.67,2.93-1.34,5.83-.86,3.75-1.66,7.51c-15.35,71.81-15.4,132.77-.14,186.34,1.64,5.78,3.52,11.62,5.33,17.27,4.37,13.66,8.9,27.78,10.63,42.26,1.85,15.57.35,31.1-1.16,42.9-.79,6.18-1.74,12.46-2.67,18.53-3.11,20.44-6.33,41.58-3.62,62.21Z"/><path class="cls-9" d="M421.41,487.12l-1.66-.24a85.69,85.69,0,0,1,2.31-9.95l.14-.43c.06-.2.12-.4.19-.57l1.57.56-.17.52-.14.43A83.62,83.62,0,0,0,421.41,487.12Z"/><path class="cls-9" d="M572.13,839.6a478.13,478.13,0,0,0-144.72-25.23c-2.55,0-5.31-.07-8.45-.07A432.58,432.58,0,0,0,315,827c-24.53,6.22-38.61,12.49-38.75,12.55l-.68-1.53c.56-.25,57-25.19,143.41-25.41,3.15,0,5.92,0,8.48.07A479.62,479.62,0,0,1,572.67,838Z"/><path class="cls-9" d="M576.48,776.11c-21.29,0-42.84-2.91-67.53-9.1-3-.74-6.15-1.66-8.27-4s-2.73-5.41-3.23-8.66a614.7,614.7,0,0,1-7.83-93.19,430.17,430.17,0,0,1,3.32-56.67l.16-1.22,1.08.6c22.33,12.5,50.35,19,81,18.74.75,0,1.49,0,2.23,0,28.92-.48,57.19-6.47,81-12.26l.95-.23.08,1c1.49,18.07,2.18,34.46,2.1,50.1-.15,34.55-4.17,66.37-12.32,97.3a13.38,13.38,0,0,1-9.73,9.6,261.24,261.24,0,0,1-60,8C578.56,776.11,577.52,776.11,576.48,776.11Zm-82-170.17a430.44,430.44,0,0,0-3.16,55.22,614.22,614.22,0,0,0,7.81,93c.46,3,1,5.82,2.82,7.78s4.66,2.82,7.43,3.5c25.75,6.45,48,9.33,70.22,9a260.14,260.14,0,0,0,59.59-8,11.73,11.73,0,0,0,8.52-8.41c8.1-30.78,12.11-62.47,12.25-96.88h0c.08-15.31-.58-31.34-2-49-23.73,5.75-51.74,11.61-80.42,12.08-.74,0-1.51,0-2.27,0C544.78,624.51,516.85,618.18,494.45,605.94Z"/><path class="cls-9" d="M572.76,680.11c-49.14,0-80.74-17.12-82.71-18.21l-.19-.15.62-.63.38-.69c3,1.65,73.31,39.74,169.59-.06l.64,1.55C628.09,675.56,598.09,680.11,572.76,680.11Z"/><path class="cls-9" d="M416.26,455.49a52.36,52.36,0,0,1-23.21-5.16l-.19-.14.56-.56v-.89l.4.17,0-.05c.84.45,20.84,11,45.23,0l.17-.08h.18v.86l.34.74A56.6,56.6,0,0,1,416.26,455.49Z"/><path class="cls-9" d="M720.25,489.1c-.17-.35-.34-.68-.53-1-7.26-13-24.82-15.49-40.3-17.71l-3.33-.49c-25.32-3.75-49.4-13.23-72.68-22.41l-11.75-4.61-34.25-13.47-21.07-8.29.62-1.56L558,427.85l34.25,13.47L604,445.94c23.2,9.13,47.18,18.58,72.32,22.31l3.32.48c15.87,2.28,33.85,4.86,41.51,18.53.2.33.39.7.58,1.09Z"/><path class="cls-9" d="M578.32,623.49l-1.67-.07c5.74-59.66,10.37-120,13.76-179.56l1.67.09C588.69,503.5,584.06,563.9,578.32,623.49Z"/><path class="cls-9" d="M572.19,1175.17l-1.49-.78c32.18-61.67,42.64-138,28-204.25-2-8.9-4.38-17.86-6.72-26.52-3.58-13.27-7.28-27-9.45-40.82-2.95-18.79-3.1-38.15-3.25-56.88v-.34c-.09-12.56-.21-28.84-.34-44.21-.07-9.38-.14-18.43-.2-26.09h1.68c.05,7.66.12,16.7.2,26.08.12,15.38.25,31.65.33,44.21v.35c.14,18.66.29,38,3.23,56.63,2.15,13.74,5.84,27.42,9.4,40.64,2.35,8.69,4.77,17.66,6.74,26.59C615.06,1036.38,604.54,1113.16,572.19,1175.17Z"/><path class="cls-9" d="M261.45,776.11c-1,0-2.07,0-3.11,0a261,261,0,0,1-60-8,13.35,13.35,0,0,1-9.73-9.6c-8.13-30.8-12.15-62.62-12.31-97.3-.08-15.77.59-32.16,2.07-50.1l.08-1,1,.23c17.86,4.33,41.41,9.56,65.2,11.47l-.14,1.67c-23.48-1.89-46.7-7-64.5-11.29-1.42,17.51-2.07,33.55-2,49,.16,34.54,4.17,66.23,12.26,96.88a11.71,11.71,0,0,0,8.51,8.41,259.92,259.92,0,0,0,59.59,8c22.15.3,44.47-2.57,70.22-9,2.77-.68,5.63-1.52,7.43-3.5s2.42-5.25,2.82-7.79a614,614,0,0,0,7.81-92.94,436,436,0,0,0-3.15-55.22,147.73,147.73,0,0,1-46,15.6c-1.32.24-2.78.47-4.44.72l-.24-1.66c1.64-.24,3.07-.47,4.39-.71a145.06,145.06,0,0,0,46.55-16l1.08-.61.16,1.23a437.14,437.14,0,0,1,3.32,56.67,616.16,616.16,0,0,1-7.82,93.2c-.45,2.76-1,6.19-3.24,8.65s-5.24,3.25-8.27,4C304.3,773.2,282.74,776.11,261.45,776.11Z"/><path class="cls-9" d="M264.27,624.3H262.7c-.76,0-1.53,0-2.29,0-5.12-.06-10.48-.32-15.9-.77l.14-1.67c5.38.45,10.7.7,15.81.77.76,0,1.5,0,2.24,0a199.94,199.94,0,0,0,21.29-1c2.77-.27,5.57-.6,8.32-1l.24,1.66c-2.78.4-5.6.74-8.39,1A198.52,198.52,0,0,1,264.27,624.3Z"/><path class="cls-9" d="M265.19,680.11c-25.33,0-55.32-4.55-88.35-18.19l.31-.75v-.86h.16l.17.06c96.33,39.8,166.64,1.7,169.58.06l.39.7.63.61-.2.15C345.92,663,314.33,680.11,265.19,680.11Z"/><path class="cls-9" d="M117.67,489.1l-1.49-.75q.28-.59.6-1.11c7.64-13.65,25.63-16.23,41.49-18.51l3.32-.48c25.14-3.73,49.12-13.18,72.32-22.31l5.28-2.08,7-2.76,1.9-.75L296,421.52c.16,0,.24-.09.32-.12l.67,1.53a2.85,2.85,0,0,1-.46.17l-47.8,18.81-1.89.75-7,2.76-5.28,2.07c-23.28,9.18-47.36,18.66-72.68,22.41l-3.33.49c-15.48,2.22-33,4.74-40.28,17.69C118,488.42,117.85,488.75,117.67,489.1Z"/><path class="cls-9" d="M264.3,1174.9c-31.68-60.75-41.67-137.43-26.72-205.13,2-8.89,4.39-17.84,6.73-26.49,3.58-13.26,7.28-27,9.43-40.74,3-18.89,3.09-38.25,3.22-57,.08-10.11.18-22.63.28-35.15s.2-25,.27-35.14h1.68c-.08,10.11-.18,22.62-.28,35.14s-.2,25-.27,35.15c-.14,18.79-.27,38.22-3.24,57.23-2.17,13.86-5.89,27.62-9.48,40.92-2.33,8.63-4.74,17.56-6.7,26.42-14.87,67.32-4.94,143.57,26.57,204Z"/><path class="cls-9" d="M150.74,759.28c-.92-.46-5-.46-9.33-.46-23.87,0-87.12-.06-121-51.27l1.4-.92c33.43,50.46,96,50.5,119.59,50.52,5.85,0,8.92,0,10.08.61a1.16,1.16,0,0,1,.76,1.1h-1.67A.5.5,0,0,0,150.74,759.28Z"/><path class="cls-9" d="M150.71,813.89c-.74-.45-5.67-.42-10.89-.38-2.44,0-5.21,0-8.25,0-15.35,0-38.39-.86-61.18-7.37-26.83-7.66-46.62-21.4-58.83-40.83l1.42-.89C25,783.51,44.43,797,70.85,804.55c22.59,6.45,45.48,7.26,60.72,7.31,3,0,5.81,0,8.24,0,10.2-.08,12.36,0,12.38,1.62l-1.67,0A.52.52,0,0,0,150.71,813.89Z"/><path class="cls-9" d="M121.52,926.58l-.08-.08c-20.9-20.56-54.13-11-74-5.29-5.86,1.68-10.49,3-13.57,3.25l-.13-1.67c2.91-.22,7.47-1.53,13.24-3.19,20.2-5.82,54-15.55,75.62,5.71l.09.09Z"/><path class="cls-9" d="M93.61,1266c-4.48,0-8.57-2.31-12.19-6.88a48.57,48.57,0,0,1-7.1-13.61c-5.27-14.46-7.86-30.11-10.36-45.24-.62-3.71-1.23-7.42-1.88-11.1-.34-1.92-.69-3.81-1-5.71-3-15.57-8.2-29.37-13.24-42.71-4.86-12.88-9.45-25-12.22-38.67-4.94-24.29-9.37-48.83-13.67-72.55-3.35-18.53-6.81-37.69-10.5-56.65-1.19-6.11-2.59-12.32-3.95-18.32C3.57,937.48-.43,919.78,0,902c.45-16.6,4.77-33.27,9-49.39,6.39-24.62,12.43-47.86,6.1-71.29-.36-1.31-.75-2.62-1.14-3.93-1.21-4-2.46-8.17-2.52-12.48-.11-5.62,1.79-11,3.62-16.15.89-2.5,1.81-5.1,2.48-7.67,1.82-7,2-14.35,2.11-21.48.09-4.13.17-8.4.58-12.58,1.34-13.88,6.2-27.22,10.91-40.13.51-1.38,1-2.77,1.52-4.16a732.7,732.7,0,0,0,38-158.37l.06-.43,1.13-.6C78,484,87.16,459.8,104.08,442.65a73.89,73.89,0,0,1,16.57-12.75C133,423,147.24,420.13,161,417.38q3.64-.72,7.26-1.48a371.13,371.13,0,0,0,108.24-41.16l.28-.17.93,1.41-.11.06-.2.11a372.87,372.87,0,0,1-108.8,41.39c-2.41.51-4.84,1-7.27,1.48-13.6,2.73-27.66,5.54-39.82,12.34a72.36,72.36,0,0,0-16.2,12.46c-16.77,17-25.86,41.18-31.91,60.34l-.11.33-1,.51A735.16,735.16,0,0,1,34.23,663.29c-.5,1.39-1,2.78-1.52,4.17-4.67,12.8-9.5,26-10.82,39.71-.4,4.11-.48,8.35-.57,12.45-.14,7.24-.3,14.72-2.16,21.87-.69,2.65-1.62,5.27-2.52,7.81-1.87,5.27-3.63,10.25-3.53,15.57.06,4.07,1.27,8.11,2.45,12,.4,1.33.8,2.66,1.15,4,6.45,23.85.07,48.4-6.09,72.14-4.16,16-8.47,32.6-8.91,49-.47,17.59,3.52,35.18,7.37,52.19,1.36,6,2.77,12.23,4,18.37,3.69,19,7.16,38.14,10.51,56.67,4.29,23.72,8.73,48.25,13.66,72.51,2.74,13.5,7.31,25.6,12.15,38.42,5.06,13.4,10.3,27.27,13.31,43,.37,1.92.72,3.81,1.06,5.74.65,3.69,1.26,7.4,1.88,11.12,2.49,15,5.07,30.62,10.28,44.94a46.94,46.94,0,0,0,6.85,13.14c3.56,4.5,7.55,6.58,11.92,6.2l.15,1.66Q94.21,1266,93.61,1266Z"/><path class="cls-9" d="M82.31,1259.43l-.46-1.6c3.59-1,7.51-3.16,12-6.5A173.39,173.39,0,0,0,110,1236.8a163.51,163.51,0,0,1,12.35-11.28c11-8.56,24.37-13.77,37.17-18.37,3.18-1.13,6.46-2.3,9.77-3.3a66.22,66.22,0,0,1,17.74-3.25,37.66,37.66,0,0,1,18.08,3.9,5.43,5.43,0,0,1,2.77,3.45,5.51,5.51,0,0,1-3.39,6.61,80.75,80.75,0,0,0-18.15,9.81l-1-1.37a82.3,82.3,0,0,1,18.54-10,3.84,3.84,0,0,0,2.34-4.61,3.76,3.76,0,0,0-1.92-2.4,35.7,35.7,0,0,0-17.27-3.7,64.39,64.39,0,0,0-17.3,3.17c-3.27,1-6.53,2.15-9.69,3.27-12.67,4.56-25.94,9.71-36.7,18.12A161.38,161.38,0,0,0,111.19,1238c-5.29,5.15-10.76,10.48-16.36,14.67C90.19,1256.14,86.1,1258.35,82.31,1259.43Z"/><path class="cls-9" d="M206.48,1209.09a1.55,1.55,0,0,0,0-.21l-.14-.55a106.32,106.32,0,0,0-16-36.88l-.06-.11-.15-.32a40.58,40.58,0,0,1-20.67-28.84c0-.18-.07-.36-.11-.57l1.65-.27c0,.19.07.37.1.55a38.92,38.92,0,0,0,20,27.78l.25.12.36.77a108.3,108.3,0,0,1,16.11,36.75h0l.21,1c0,.16.08.33.11.5Z"/><path class="cls-9" d="M169.27,1141.59a37.69,37.69,0,0,1-.37-8c.08-1.5.26-3,.43-4.48.39-3.38.76-6.57.18-9.74-.73-3.93-2.94-7.51-5-10.56-3.33-5-7.09-10-10.73-14.81-10.35-13.71-21.06-27.89-23.55-45-.74-5.13-1.67-10.19-2.57-15.09-2.61-14.23-5.08-27.68-3.22-42.44.24-1.88.43-3.82.57-5.92.36-5.13.41-10.39.46-15.48.1-10,.21-20.36,2.66-30.26,1.8-7.28,4.84-14.24,7.79-21,1.8-4.1,3.65-8.33,5.2-12.59a128.82,128.82,0,0,0,8.15-38.93c.7-17.9,1.14-36,1.29-53.93.16-18.15,0-36.63-.38-54.94-.43-18-1.14-35.72-2.11-52.69-4.56-81-15.13-154.34-31.42-218-3.9-15.19-8.2-30.13-12.81-44.39l1.59-.51c4.62,14.29,8.94,29.26,12.84,44.48,16.32,63.72,26.9,137.16,31.47,218.28,1,17,1.68,34.73,2.11,52.74.41,18.33.54,36.83.39,55-.16,17.91-.59,36.07-1.29,54a130.56,130.56,0,0,1-8.26,39.43c-1.56,4.31-3.43,8.57-5.23,12.69-2.92,6.67-5.94,13.56-7.71,20.7-2.4,9.71-2.51,20-2.61,29.88-.05,5.11-.1,10.39-.46,15.57-.15,2.14-.33,4.11-.58,6-1.82,14.51.62,27.83,3.21,41.93.9,4.91,1.83,10,2.58,15.15,2.43,16.65,13,30.66,23.23,44.2,3.65,4.84,7.43,9.84,10.78,14.89,2.11,3.19,4.43,6.95,5.22,11.19a34.71,34.71,0,0,1-.17,10.23c-.16,1.44-.34,2.93-.42,4.38a35.69,35.69,0,0,0,.36,7.61Z"/><path class="cls-9" d="M695.05,1286.62,95.21,1283l0-.85c.15-5.65.06-11.37-.25-17-.21-4-.55-8.14-1-12.44l1.66-.19c.48,4.34.82,8.56,1,12.54.3,5.4.39,10.88.27,16.3l184.26,1.11,411.58,2.47c-3-9.81-4.27-20.11-5.53-30.09-.75-5.92-1.53-12-2.64-18-1.23-6.49-2.91-13-4.53-19.32-2-7.81-4-15.56-6-23.3a117.05,117.05,0,0,0-3.56-12,36.93,36.93,0,0,0-6.36-11.31l1.27-1.09a38.49,38.49,0,0,1,6.66,11.81,118.31,118.31,0,0,1,3.61,12.14q3,11.63,6,23.26c1.64,6.38,3.32,12.93,4.56,19.47,1.13,6,1.9,12.13,2.66,18.08,1.3,10.28,2.64,20.9,5.81,30.89Z"/><path class="cls-9" d="M279.72,1253.44h-.14c-4.82-.73-12.08-3.22-19.1-5.62-6.83-2.33-13.88-4.75-18.48-5.48-24.21-3.83-37.72-6.37-56.56-17.93-1.69-1-3.44-2.16-5.19-3.34-3.72-2.47-12.28-9-11.54-16.49l1.67.17c-.67,6.72,8.09,13.13,10.8,14.93,1.74,1.17,3.47,2.28,5.14,3.3,18.56,11.4,32,13.91,55.94,17.71,4.74.75,11.87,3.19,18.76,5.55s14.14,4.83,18.81,5.55l-.11.77Z"/><path class="cls-9" d="M475,1191.26a95,95,0,0,1-29.51-4.2l-2.16-.73a39.32,39.32,0,0,0-7.66-2.07c-.45,0-.93-.09-1.39-.11a21,21,0,0,0-6.53.83,67.87,67.87,0,0,0-6.57,2.25c-1.82.69-3.7,1.4-5.58,2-14,4.26-28.56.74-42.64-2.67-10.34-2.5-21-5.08-31.51-4.64a112.61,112.61,0,0,0-16.66,2.42c-6.5,1.29-13.22,2.63-20,2.49-11.32-.22-22-4.45-32.37-8.53-2.51-1-5.11-2-7.67-3-3.68-1.35-6.68-2.34-9.43-3.1-8.83-2.48-18.13-3.54-27.13-4.56-6.45-.73-13.12-1.49-19.6-2.76-20-3.9-32.45-11.21-39.23-23l-.11-.19v-.23h.85l.72-.41c6.51,11.33,18.62,18.37,38.09,22.18,6.42,1.26,13.05,2,19.46,2.74,9.07,1,18.45,2.09,27.4,4.61,2.79.77,5.83,1.77,9.56,3.15,2.58,1,5.19,2,7.71,3,10.21,4,20.77,8.2,31.78,8.41,6.6.14,13.22-1.18,19.64-2.45a112,112,0,0,1,16.91-2.45c10.71-.46,21.52,2.16,32,4.69,14.51,3.5,28.2,6.82,41.77,2.69,1.82-.55,3.67-1.26,5.46-1.94a71.1,71.1,0,0,1,6.73-2.3,22.72,22.72,0,0,1,7-.88c.5,0,1,.07,1.52.12a40.57,40.57,0,0,1,8,2.14c.71.25,1.43.49,2.14.72,20.68,6.74,43.45,3.78,63.53,1.16l37.16-4.82c7.11-.93,15.17-2,21.63-6,.89-.56,1.77-1.16,2.64-1.75a20.38,20.38,0,0,1,4.11-2.25c4.39-1.67,9.08-.73,13.63.18l.49.1a168.6,168.6,0,0,0,44.88,3.1,176.13,176.13,0,0,0,27.19-4c1-.52,2-1.1,2.94-1.72,11.25-7.26,18.27-21,17.48-34.17-.09-1.43-.26-2.9-.43-4.32a34.45,34.45,0,0,1-.18-10.29c.79-4.25,3.11-8,5.22-11.19,3.35-5,7.11-10,10.75-14.85,10.24-13.56,20.83-27.57,23.26-44.25,1.82-12.59-1.27-25.35-4.25-37.69a193,193,0,0,1-4.27-21,188.22,188.22,0,0,1-1-21.57c-.1-9.92-.2-20.18-2.6-29.9-1.77-7.14-4.78-14-7.7-20.7-1.81-4.12-3.68-8.38-5.24-12.69A130.29,130.29,0,0,1,687,867.46c-1-25.26-1.45-50.84-1.34-76,.07-19.05.46-38.06,1.17-56.48.81-21.67,2.06-43.06,3.7-63.57,1.06-13.3,2.22-25.6,3.53-37.58,5.66-52.81,14.27-102,25.62-146.35,3.85-15.12,8.16-30.08,12.81-44.48l1.59.51c-4.63,14.37-8.94,29.3-12.78,44.39C709.92,532.1,701.32,581.26,695.68,634c-1.32,12-2.47,24.25-3.53,37.53-1.64,20.49-2.89,41.86-3.7,63.5-.71,18.41-1.1,37.39-1.17,56.42-.1,25.17.35,50.72,1.34,75.95a128.89,128.89,0,0,0,8.15,38.93c1.55,4.26,3.4,8.49,5.2,12.59,2.95,6.73,6,13.69,7.8,21,2.44,9.9,2.55,20.26,2.65,30.28a186.62,186.62,0,0,0,1,21.38,192.12,192.12,0,0,0,4.23,20.83c3,12.49,6.16,25.41,4.29,38.33-2.5,17.09-13.21,31.28-23.58,45-3.63,4.8-7.37,9.76-10.7,14.76-2,3-4.23,6.63-5,10.57-.58,3.18-.21,6.39.19,9.79.17,1.44.35,2.94.44,4.42a40.31,40.31,0,0,1-18.24,35.68c-1,.66-2.09,1.29-3.18,1.85l-.2.07a177,177,0,0,1-27.55,4,170.23,170.23,0,0,1-45.32-3.13l-.49-.1c-4.31-.86-8.77-1.75-12.71-.26a19.13,19.13,0,0,0-3.76,2.07c-.89.61-1.78,1.22-2.7,1.79-6.77,4.18-15,5.25-22.29,6.2l-37.16,4.82C498.73,1189.72,486.89,1191.26,475,1191.26Z"/><path class="cls-9" d="M475,1202.25a100.52,100.52,0,0,1-23.47-2.51c-2-.47-4-1-6-1.67l-2.19-.74a33.36,33.36,0,0,0-9-2.18c-4.47-.2-8.65,1.39-13.07,3.08-1.83.69-3.71,1.41-5.6,2-1,.29-2,.55-3,.78-13,3-26.54-.3-39.61-3.46-10.34-2.5-21-5.08-31.52-4.64a111.89,111.89,0,0,0-16.62,2.42c-6.52,1.28-13.25,2.62-20,2.47-6.17-.12-12.71-1.41-20.56-4.08-3.94-1.34-7.91-2.9-11.75-4.42a175.78,175.78,0,0,0-17.16-6.11c-8.81-2.46-18.1-3.51-27.09-4.53-6.46-.73-13.14-1.49-19.64-2.77-3.74-.73-13-2.66-18.22-4.69l.61-1.56c5.08,2,14.23,3.88,17.93,4.61,6.43,1.26,13.08,2,19.51,2.75,9,1,18.41,2.08,27.35,4.58a178.09,178.09,0,0,1,17.33,6.16c3.82,1.51,7.77,3.07,11.67,4.4,7.68,2.61,14.05,3.87,20.05,4,6.6.15,13.25-1.18,19.67-2.45a112.91,112.91,0,0,1,16.88-2.44c10.72-.46,21.53,2.16,32,4.68,13.48,3.26,26.21,6.34,38.85,3.46,1-.23,2-.47,2.9-.76,1.84-.55,3.69-1.26,5.49-1.94,4.39-1.68,8.94-3.42,13.74-3.2a34.8,34.8,0,0,1,9.5,2.28l2.17.73c1.92.62,3.89,1.17,5.86,1.64,18.93,4.52,39.51,1.86,57.68-.49l37.15-4.82c6.25-.81,13.33-1.74,19.29-4.67.84-.42,1.61-.84,2.34-1.29s1.27-.82,1.9-1.25a23.76,23.76,0,0,1,4.85-2.75c4.39-1.67,9.09-.73,13.63.18l.49.1c12.77,2.55,28.18,3.52,44.57,2.8a214.3,214.3,0,0,0,37.34-4.77l.37,1.63a214.86,214.86,0,0,1-37.64,4.81c-16.52.72-32.07-.25-45-2.83l-.49-.1c-4.31-.86-8.77-1.75-12.71-.26a21.47,21.47,0,0,0-4.5,2.58c-.65.44-1.3.88-2,1.29s-1.59.92-2.48,1.36c-6.21,3.06-13.44,4-19.81,4.83l-37.16,4.82C498.75,1200.71,486.86,1202.25,475,1202.25Z"/><path class="cls-9" d="M222.6,1112.73l-2.35-1.83c-9.69-7.51-19.23-15.3-28.35-23.15-10.77-9.27-22-19.38-30-32.09-12-18.91-16.08-42.07-19.65-62.5l1.65-.28c3.54,20.27,7.56,43.25,19.41,61.88,8,12.52,19,22.53,29.72,31.72,8.33,7.17,17,14.29,25.83,21.19-4.26-10-10.47-19.27-16.49-28.24-4-6-8.21-12.23-11.79-18.66a131.55,131.55,0,0,1-16.12-53.87l1.67-.12A130.07,130.07,0,0,0,192,1060c3.54,6.36,7.7,12.55,11.72,18.54,6.64,9.89,13.51,20.12,17.82,31.44Z"/><path class="cls-9" d="M595.28,1159.49l-.54-1.59a179.3,179.3,0,0,0,47.15-24.39,182.52,182.52,0,0,0,60.76-74.45l1.53.67a184.15,184.15,0,0,1-61.32,75.14A181.07,181.07,0,0,1,595.28,1159.49Z"/><path class="cls-9" d="M528.22,1111.37c-28.58,0-58-1.8-86.33-8.18a5.19,5.19,0,0,1-.54-.11l-.1,0c-2.51-.56-5.08-1.19-7.63-1.87-49.27-12.89-88.53-39.37-110.55-74.57l1.41-.89c21.8,34.84,60.71,61.06,109.57,73.84,2.53.68,5.07,1.3,7.57,1.86l.11,0,.47.1c47.41,10.67,97.87,8.47,142.4,6.53l.07,1.68C566.63,1110.54,547.61,1111.37,528.22,1111.37Z"/><path class="cls-9" d="M254,1283.83l-1.07-1.29.15-.11c.88-.58,1.74-1.16,2.59-1.76l.2-.14c.22-.16.45-.32.65-.49a68.32,68.32,0,0,0,22.38-27.78c7.37-16.56,9-37,4.75-59.18l1.64-.32c4.33,22.5,2.65,43.31-4.86,60.18a69.87,69.87,0,0,1-22.88,28.42c-.2.17-.46.35-.71.54l-.2.14C255.82,1282.65,254.94,1283.24,254,1283.83Z"/><path class="cls-9" d="M281.79,1283.8l-1.22-1.14c21.84-23.4,29.06-49.79,23.42-85.57l1.65-.27C311.3,1232.67,303.72,1260.31,281.79,1283.8Z"/><path class="cls-9" d="M617.93,1286.38l-.57-.37c-14.14-9.36-24.75-25.4-29.86-45.17a109.33,109.33,0,0,1,.73-57.12l1.61.46a109.17,109.17,0,0,0-.72,56.24c5,19.37,15.37,35.07,29.18,44.21l.52.34Z"/><path class="cls-9" d="M587.5,1286l-.3-.33c-23.11-25-31-60.33-21.65-97l1.62.41c-9.35,36.66-1.79,70.56,21.27,95.48l.33.36Z"/><path class="cls-9" d="M235.85,1225.44a4.48,4.48,0,0,1-3.09-1.23c-2.1-1.94-2.84-5.77-2.83-8.46a141.94,141.94,0,0,1,1.77-22l1.65.27a139.59,139.59,0,0,0-1.74,21.74c0,2.54.69,5.75,2.29,7.23a2.72,2.72,0,0,0,2.22.77c1.68-.14,3-1.77,4-3.17a51.36,51.36,0,0,0,7.47-16.34l1.62.42a52.86,52.86,0,0,1-7.72,16.87c-1.18,1.71-2.84,3.69-5.22,3.89Z"/><path class="cls-9" d="M331.26,1221.09a2.32,2.32,0,0,1-2-.95,3.56,3.56,0,0,1-.13-3.06l4.06-13.9,1.61.47-4.07,13.91c-.18.6-.33,1.26-.09,1.62.38.53,1.61.09,2.37-.4a24.34,24.34,0,0,0,9.94-13.41l1.61.47A26,26,0,0,1,334,1220.18,5.16,5.16,0,0,1,331.26,1221.09Z"/><path class="cls-9" d="M529.43,1235.57l-.86-.17a29.51,29.51,0,0,1-22.88-24.5l1.66-.21A27.83,27.83,0,0,0,528,1233.57a94.07,94.07,0,0,0-1.15-33.21l1.64-.35a95.67,95.67,0,0,1,1,34.7Z"/><path class="cls-9" d="M641.42,1212.69l-1.55-2.32a45.81,45.81,0,0,0-14-13.42l.87-1.43a45.5,45.5,0,0,1,9,7.18,47.52,47.52,0,0,1,3.8,4.35,26.24,26.24,0,0,0-4.21-11.4l1.39-.94a27.9,27.9,0,0,1,4.67,15.19Z"/><rect class="cls-9" x="411.56" y="1200.18" width="1.67" height="84.04"/><rect class="cls-9" x="450.84" y="1198.93" width="1.67" height="85.29"/><path class="cls-9" d="M345.74,1168.3a40.62,40.62,0,0,1-9.29-26.28,23.17,23.17,0,0,0-7.88,21.08l-1.65.27a24.82,24.82,0,0,1,9.95-23.78l1.42-1-.11,1.74a38.88,38.88,0,0,0,8.85,26.91Z"/><path class="cls-9" d="M506.26,1173l-.51-1.59c4.05-1.32,7.09-4.72,10-8,.53-.59,1.05-1.18,1.58-1.75,4.92-5.38,9.72-7.77,14.26-7.09l.79.11-.08.79q-.8,8.34-1.59,16.69l-1.66-.16q.74-7.92,1.51-15.86c-3.74-.2-7.78,2-12,6.65-.53.57-1.05,1.15-1.57,1.73C513.94,1168,510.74,1171.53,506.26,1173Z"/><path class="cls-9" d="M63.32,1189.78l-.84-1.45c7-4.07,13.32-8.48,19.47-12.74s12.56-8.71,19.57-12.81c12.19-7.13,24.79-14.51,38.77-18,8.68-2.18,19-2.81,28.13-3.37l1-.07.1,1.67-1,.07c-9,.55-19.29,1.18-27.82,3.32-13.75,3.46-26.25,10.77-38.33,17.84-7,4.08-13.32,8.48-19.47,12.74S70.34,1185.67,63.32,1189.78Z"/><path class="cls-9" d="M220.14,594.33a21.19,21.19,0,1,1,21.19-21.19,21,21,0,0,1-3.09,11l-1.42-.88A19.45,19.45,0,0,0,234.58,560a19.51,19.51,0,1,0-14.44,32.64,19,19,0,0,0,6.47-1.11l.56,1.58A20.81,20.81,0,0,1,220.14,594.33Z"/><path class="cls-9" d="M227.2,593.13l-.56-1.58a19.63,19.63,0,0,0,10.16-8.23l1.43.87A21.36,21.36,0,0,1,227.2,593.13Z"/><path class="cls-9" d="M220.14,584.53a11.38,11.38,0,1,1,11.37-11.39A11.4,11.4,0,0,1,220.14,584.53Zm0-21.08a9.7,9.7,0,1,0,9.69,9.69A9.72,9.72,0,0,0,220.14,563.45Z"/><path class="cls-9" d="M254.49,554.05a.84.84,0,0,1-.84-.77c-1-12.2-2-24.44-3-37.39-2-26.9-3.68-51.09-5-74,0-.08,0-.18,0-.29s0-.17,0-.25a.84.84,0,0,1,.76-.91.82.82,0,0,1,.91.75c0,.11,0,.22,0,.34s0,.16,0,.23c1.31,22.9,2.94,47.08,5,74,1,13,2,25.18,3,37.38a.85.85,0,0,1-.77.91Z"/><path class="cls-9" d="M260.44,623.42h-.83c-2-20.41-3.41-36.25-5.09-56.45a.84.84,0,1,1,1.67-.14c1.68,20.19,3.1,36,5.09,56.5Z"/><path class="cls-9" d="M260.45,624.24a.83.83,0,0,1-.72-.4c-.23-.37-22.91-37.82-23.05-40a1,1,0,0,1,0-.34.84.84,0,0,1,1.65.22.28.28,0,0,1,0,.09c.72,2.46,19.67,34.06,22.8,39.19a.84.84,0,0,1-.28,1.15A.88.88,0,0,1,260.45,624.24Z"/><path class="cls-9" d="M244,623.23l-.17-.22c-6.21-11.77-15.65-28.83-17.2-29.91a.54.54,0,0,0,.3.08l0-1.68h0c.74,0,1.5,0,10,15.23,4.25,7.63,8.37,15.42,8.41,15.5l-.7.37Z"/><path class="cls-9" d="M284.08,623.35a.85.85,0,0,1-.81-.6l-24.78-56.34-9.38,4.1a.83.83,0,0,1-1-.21l-23.24-26.16a.83.83,0,0,1-.1-1l12.33-21.06a.83.83,0,0,1,.78-.41.82.82,0,0,1,.71.5l4.2,9.6a.85.85,0,0,1,0,.76L238.44,540l12.37,13.91,17.06-7.46L266,527.92l-8.41-1.84a.87.87,0,0,1-.59-.48l-4.2-9.61a.86.86,0,0,1,.12-.87.84.84,0,0,1,.83-.28l23.83,5.22a.83.83,0,0,1,.65.73l3.44,34.85a.86.86,0,0,1-.5.85l-9.38,4.1,26.36,60a.85.85,0,0,1-.06.73.84.84,0,0,1-.61.39l-5,.66a.84.84,0,1,1-.22-1.66l3.87-.51L270,560.49a.83.83,0,0,1,0-.64.84.84,0,0,1,.45-.46L280,555.2l-3.31-33.64L255,516.82l3.38,7.72,8.58,1.88a.84.84,0,0,1,.66.73l2,19.74a.86.86,0,0,1-.5.85l-18.18,8a.83.83,0,0,1-1-.22l-13.17-14.81a.84.84,0,0,1-.1-1l4.44-7.59-3.37-7.72-11.2,19.12L249,568.74l9.59-4.19a.83.83,0,0,1,1.1.43l25.15,57.18a.8.8,0,0,1,.07.34A.85.85,0,0,1,284.08,623.35Z"/><path class="cls-9" d="M757.22,640.94c-3.51,0-7-1.18-7.53-4.05a2.88,2.88,0,0,1-.1-.87v-.27l.16-.22c8.86-12.17,20.61-21.84,37-30.41,11.41-6,23.82-10.8,36.59-15.6l.59,1.56c-12.72,4.79-25.08,9.57-36.41,15.53-16,8.39-27.54,17.82-36.23,29.67a.88.88,0,0,0,0,.2c.47,2.31,4.28,3.09,7.64,2.68,15.71-1.91,31.56-4.52,47.11-7.75,12.05-2.5,24.26-5.45,36.3-8.76,7.21-2,14.59-4.2,21.94-6.55,8.75-2.8,17.28-5.75,25.33-8.76l2-.75c17.48-6.78,27.39-15,30.29-25.06a20.78,20.78,0,0,0,.64-2.82c-5.45-3.44-17.88-5.17-24-4.81l-.1-1.67c6.67-.39,19.91,1.5,25.48,5.38l.42.29-.07.51a21.88,21.88,0,0,1-.76,3.59c-3.06,10.61-13.3,19.16-31.29,26.15l-2,.76c-8.09,3-16.64,6-25.42,8.78-7.37,2.36-14.78,4.57-22,6.57-12.07,3.33-24.32,6.28-36.4,8.78-15.6,3.25-31.49,5.86-47.25,7.78A15.51,15.51,0,0,1,757.22,640.94Z"/><path class="cls-9" d="M745.14,891a4.57,4.57,0,0,1-1.08-.14c-3.5-.89-6.83-6-7.62-10-3.41-17.18-6-32.65-3-47.95,1.5-7.77,4.45-15.37,7.3-22.72,4.7-12.1,9.13-23.53,7.8-35.83a77,77,0,0,0-2.14-10.55,73.43,73.43,0,0,1-2.28-11.78c-.66-8,1.3-15.86,3.19-23.5.5-2,1-4.06,1.47-6.09a149.5,149.5,0,0,0,2.59-15.5c.45-3.85.78-7.93,1-12.13.71-15.29-.33-30.39-1.44-43.15-.39-4.47-.85-9.33-1.39-14.85l1.67-.16c.54,5.52,1,10.39,1.39,14.87,1.11,12.81,2.16,28,1.44,43.37-.21,4.24-.54,8.36-1,12.24a152.31,152.31,0,0,1-2.63,15.67c-.46,2-1,4.13-1.47,6.14-1.86,7.5-3.79,15.26-3.15,23A72.45,72.45,0,0,0,748,763.45a80.08,80.08,0,0,1,2.19,10.78c1.37,12.7-3.35,24.86-7.91,36.61-2.82,7.29-5.74,14.82-7.22,22.43-2.9,15-.35,30.31,3,47.32.76,3.81,3.87,8,6.39,8.68a2.41,2.41,0,0,0,2.59-.94l1.28,1.07A4.1,4.1,0,0,1,745.14,891Z"/><path class="cls-9" d="M797.79,1003.35a4.63,4.63,0,0,1-.71-.05,6.85,6.85,0,0,1-2.43-1A16.69,16.69,0,0,1,792,1000c-9.21-9.26-17-13.23-24.5-17.07S752,975,742.59,965.52c-6.15-6.18-15.38-23.06-22.79-36.62-2.88-5.28-5.38-9.85-7.16-12.79-12.24-20.19-14.32-44.34-16.33-67.7-1.65-19.17-3.35-39-10.64-56.65-.32-.8-.65-1.58-1-2.35l1.53-.69c.36.8.7,1.6,1,2.41C694.6,809,696.32,829,698,848.27c2,23.17,4.06,47.12,16.09,67,1.8,3,4.31,7.56,7.2,12.86,7,12.75,16.52,30.23,22.5,36.24,9.22,9.27,17,13.24,24.51,17.08s15.53,7.93,24.93,17.38a15.5,15.5,0,0,0,2.37,2.07,4.81,4.81,0,0,0,1.82.78c2.1.39,14.18-2.77,16.16-4.25,43.15-32.21,60.22-79,70.27-116.23,4.74-17.52,7.31-35.74,9.79-53.36q7.18-51.22,14.41-102.42l1.89-13.4c.69-5,1.4-10.11.25-15a40.12,40.12,0,0,0-2.26-6.24,50.88,50.88,0,0,1-2-5.42c-2.46-8.28-.56-17.14,1.12-25,.66-3,1.28-6,1.84-8.86,2.12-10.53,4.12-21.79,6.06-32.68,2.22-12.5,4.52-25.43,7-37.29.23-1.17.49-2.33.74-3.47l1.63.36c-.25,1.13-.5,2.28-.73,3.45-2.48,11.84-4.77,24.75-7,37.24-1.94,10.9-3.95,22.17-6.07,32.72-.56,2.84-1.18,5.88-1.84,8.88-1.64,7.62-3.49,16.27-1.15,24.14a47.66,47.66,0,0,0,2,5.23,42,42,0,0,1,2.35,6.51c1.22,5.15.49,10.45-.22,15.57l-1.89,13.4Q902.47,776.83,895.28,828c-2.49,17.68-5.06,36-9.83,53.56-7.16,26.49-15.27,47.22-25.52,65.24-12,21.09-26.84,38.07-45.37,51.9C812.55,1000.24,801.54,1003.35,797.79,1003.35Z"/><path class="cls-9" d="M786.52,606.46l-.19-.2,0-.26c-2-13-6.21-25.91-10.25-38.42-6.53-20.25-13.28-41.19-11-62.58l-.47-.84c-6.06-19.17-15.15-43.34-31.94-60.34a72.08,72.08,0,0,0-16.19-12.46c-12.15-6.8-26.21-9.61-39.81-12.34-2.43-.48-4.86-1-7.27-1.48a372.85,372.85,0,0,1-107.68-40.76l-1.42-.8.83-1.46,1.42.81A371.13,371.13,0,0,0,669.71,415.9q3.62.77,7.25,1.48c13.73,2.75,27.93,5.59,40.3,12.52a73.89,73.89,0,0,1,16.57,12.75c17,17.22,26.2,41.58,32.31,60.91l.63,1.06,0,.28c-2.33,21.13,4.39,42,10.9,62.17,4,12.48,8.18,25.38,10.26,38.4l.05,0,0,.41h-.84Z"/><path class="cls-9" d="M781.31,697.71a174.57,174.57,0,0,1-28.06-2l.31-1.64c.61.11,62.11,10.91,121.22-19.69a173.64,173.64,0,0,0,34.31-23.32l.1-.08,1.15,1.22-.14.12a175.91,175.91,0,0,1-34.65,23.55C840.72,693.93,805.07,697.71,781.31,697.71Z"/><path class="cls-9" d="M826,743.09a107.2,107.2,0,0,1-34.63-5.67l-3.13-1.07,3.26-.55c46.56-7.81,69-19.16,81.83-27a123.9,123.9,0,0,0,20.3-15.42l1.15,1.22a125.7,125.7,0,0,1-20.58,15.62C861.53,718,839.67,729,795.09,736.88a108.8,108.8,0,0,0,75.17-4.81,103.62,103.62,0,0,0,13.66-7.36l.9,1.41a104,104,0,0,1-13.88,7.47A111,111,0,0,1,826,743.09Z"/><path class="cls-9" d="M809.16,923.55h-1.31c-8.22,0-17.7-.3-26.33-3.22-9.49-3.22-16.79-9.44-20-17.05l1.54-.65c3,7.17,10,13,19,16.12,8.39,2.83,17.34,3.1,25.79,3.13a83,83,0,0,0,16.56-1.19c6.4-1.25,11.36-3.57,15.14-7.07l1.14,1.23c-4,3.72-9.24,6.17-16,7.48A81.15,81.15,0,0,1,809.16,923.55Z"/><path class="cls-9" d="M686.06,737.74l-1.24-1.12s.77-.86,2.22-2.24c6.38-6.1,29.94-26.17,65.1-28.13l.06.84v.84c-34.55,1.92-57.73,21.66-64,27.66C686.8,736.92,686.07,737.73,686.06,737.74Z"/><path class="cls-9" d="M691.84,672.11l-1.05-1.31c.28-.22,28.3-22.37,61-20l-.12,1.67C719.65,650.17,692.11,671.89,691.84,672.11Z"/><path class="cls-9" d="M806.9,632.09l-1.54-.66,7.57-17.76,7.57-17.76c.93-2.16,1.69-4,2.32-5.87a24.51,24.51,0,0,0,1.3-5.9c.4-4.62-.85-9-2.17-13.74-.35-1.25-.7-2.5-1-3.76-.41-1.57-.71-3-.93-4.37-2.3-14.17,3.86-27.91,10.87-40.66,2.23-4,4.08-7.26,5.84-10.19,2.52-4.24,5.12-8.41,7.71-12.37,2.29-3.51,4.75-7.14,7.31-10.77a34.12,34.12,0,0,0-6.31-11.57c-.19-.25-.37-.46-.56-.68l1.27-1.09c.21.25.4.47.59.72a36,36,0,0,1,6.74,12.52l.12.39-.24.34c-2.64,3.73-5.17,7.45-7.52,11-2.58,4-5.16,8.09-7.68,12.32-1.74,2.91-3.59,6.13-5.81,10.14-6.85,12.48-12.9,25.92-10.68,39.58.21,1.32.51,2.7.9,4.22.32,1.25.67,2.49,1,3.73,1.3,4.63,2.64,9.41,2.22,14.33a26.77,26.77,0,0,1-1.38,6.29c-.7,2.11-1.63,4.27-2.37,6l-7.57,17.76Z"/><path class="cls-9" d="M845.9,500.33l-1.66-.22a4.3,4.3,0,0,0,0-.61c.11-2.69-1.54-5.22-3.13-7.67l-.32-.49c-2.71-4.24-3.41-7.63-2.13-10.37,1.18-2.53,3.79-3.87,6.35-5l.69,1.52c-2.37,1.07-4.58,2.2-5.53,4.21-1,2.18-.35,5,2,8.75l.31.48c1.66,2.55,3.54,5.44,3.4,8.63A5.91,5.91,0,0,1,845.9,500.33Z"/><path class="cls-9" d="M836.76,512.42a79.2,79.2,0,0,0-9.9-6.84c-2.53-1.57-5.14-3.18-7.57-5-5-3.66-11-9.71-11.67-17.71,0-.51,0-1,0-1.54,0-5.62,2.69-10.92,5.62-16.3l3.91-7.23q3.27-6,6.52-12.06a14.56,14.56,0,0,1,3.26-4.48c2.74-2.24,6.77-2.52,12.31-.86,2.26.68,4.51,1.33,6.75,2,9.56,2.76,18.58,5.36,28,10.35l-.79,1.48c-9.24-4.9-18.18-7.49-27.66-10.22-2.24-.65-4.49-1.3-6.76-2-5-1.49-8.49-1.31-10.76.55a13.23,13.23,0,0,0-2.86,4l-6.51,12.05-3.92,7.24c-2.94,5.39-5.37,10.28-5.42,15.51,0,.46,0,.94,0,1.41.58,7.35,6.29,13,11,16.49,2.38,1.76,5,3.36,7.46,4.9a81,81,0,0,1,10.11,7Z"/><path class="cls-9" d="M807,481.94c-5.06-4.5-9.68-9.05-10.73-15.2-.83-4.83.83-9.71,2.75-14.26a139.58,139.58,0,0,1,19.48-32.68,5.29,5.29,0,0,1,7-2.05l5.91,1.67c17.42,4.93,39.09,11.06,54.63,19.41l-.79,1.48c-15.38-8.27-37-14.37-54.29-19.27L825,419.35a5.26,5.26,0,0,0-3.24-.26,5.15,5.15,0,0,0-2,1.75,138,138,0,0,0-19.25,32.29c-1.82,4.32-3.4,8.92-2.64,13.33,1,5.61,5.37,9.93,10.19,14.23Z"/><path class="cls-9" d="M821.79,567.61l-.42-.38-.19-.18c-9.41-8.39-17.54-16.2-21.69-26.67-3.35-8.45-3.58-17.74-3.81-26.72s-.47-18.53-4-26.88a72.74,72.74,0,0,0-4.39-8.28,73.24,73.24,0,0,1-4.54-8.6c-5.51-13.13-2.77-28.27-.24-38.52,1.66-6.66,3.8-13.62,8.19-19.3,4.86-6.28,12-9.76,18.58-9.09s12.12,5.88,12.92,11.93a11.05,11.05,0,0,1,0,3l-1.66-.23a9.29,9.29,0,0,0,0-2.58c-.69-5.24-5.81-9.94-11.42-10.5-6.05-.61-12.59,2.62-17.1,8.45-4.2,5.44-6.27,12.2-7.88,18.69-2.48,10-5.16,24.79.16,37.46a69.4,69.4,0,0,0,4.44,8.4,75,75,0,0,1,4.48,8.47c3.66,8.65,3.91,18.23,4.14,27.5.23,8.83.46,18,3.7,26.14,4,10.13,12,17.79,21.25,26l.22.2c.11.11.22.22.34.32Z"/><path class="cls-9" d="M790.71,459.43a10.08,10.08,0,0,1-4.38-1l.73-1.51a9.18,9.18,0,0,0,11.14-3l1.39.94A10.77,10.77,0,0,1,790.71,459.43Z"/><path class="cls-9" d="M893.61,437.65a526.67,526.67,0,0,0-56.54-22.11,40.31,40.31,0,0,0-5.87-1.49c-4-.65-7-.12-9.19,1.62l-1-1.31c2.59-2.05,6-2.69,10.5-2a40.71,40.71,0,0,1,6.11,1.55,527.26,527.26,0,0,1,56.73,22.18Z"/><path class="cls-9" d="M892.67,607.8l-1.64-.32.05-.27q1.45-7.62,2.92-15.24t2.92-15.25c.13-.64.25-1.27.37-1.91s.24-1.27.37-1.91c3-15.49,6.05-30.59,10.84-45,1.21-3.63,2.54-7.28,3.83-10.82,2-5.63,4.18-11.45,5.83-17.31a120.28,120.28,0,0,0,4-44.41,21.48,21.48,0,0,0-1.72-7.44c-.07-.15-.12-.26-.18-.37-2.28-4.15-7.09-6.42-11-8.25l-24.6-11.56-24.6-11.55c-8.38-3.95-20.42-8.49-28.25-2.3l-.27.24-.25.21-1.13-1.24.31-.26.26-.22c8.6-6.8,21.26-2.09,30,2.05l24.6,11.56L910,437.77c4.08,1.94,9.16,4.34,11.67,8.93a3.87,3.87,0,0,1,.25.5,22.63,22.63,0,0,1,1.88,8,121.92,121.92,0,0,1-4.05,45c-1.67,5.91-3.8,11.77-5.87,17.43-1.29,3.52-2.61,7.16-3.81,10.77-4.76,14.33-7.82,29.37-10.79,44.8-.12.64-.25,1.27-.37,1.91s-.24,1.27-.37,1.91q-1.45,7.62-2.92,15.24t-2.92,15.25Z"/><path class="cls-9" d="M405.21,154.16a20.13,20.13,0,0,1,3.5,6,34.79,34.79,0,0,1,1.86,6.71,38.39,38.39,0,0,1,.47,6.93c0,1.16-.14,2.31-.23,3.46s-.35,2.28-.6,3.4c-.12-1.15-.15-2.29-.22-3.43s-.14-2.26-.25-3.39-.18-2.25-.36-3.36-.29-2.22-.46-3.33q-.56-3.31-1.44-6.57A44.65,44.65,0,0,0,405.21,154.16Z"/><path class="cls-9" d="M434.23,180.63c-.26,2.72-.42,5.41-.53,8.09s-.17,5.38-.13,8.06c0,1.34,0,2.69.08,4l.05,2c.05.68.08,1.35.1,2,.12,2.69.33,5.38.43,8.12a52.07,52.07,0,0,1-1.73-8,63.75,63.75,0,0,1-.6-8.17,62.16,62.16,0,0,1,.5-8.18A37.56,37.56,0,0,1,434.23,180.63Z"/><path class="cls-9" d="M367.62,191.12a15.22,15.22,0,0,1,3.38-2.87,20.19,20.19,0,0,1,8.29-3,15.36,15.36,0,0,1,4.44,0l-4.16,1.26c-1.36.43-2.7.85-4,1.35s-2.63,1-3.94,1.56Z"/><path class="cls-9" d="M383.86,181.58a39.77,39.77,0,0,0-3.19-5.52,16.39,16.39,0,0,0-3.86-4,11.17,11.17,0,0,0-2.15-1.14,10.53,10.53,0,0,0-2.28-.55,15.47,15.47,0,0,0-5,.39,23.53,23.53,0,0,0-2.68.76l-.68.22-.74.26c-.49.18-1,.37-1.48.53l-6,2c-2,.67-4,1.32-5.92,2-1,.35-1.95.73-2.9,1.16a13.73,13.73,0,0,0-1.37.72,2.6,2.6,0,0,0-1.11,1.07,1.47,1.47,0,0,1,0-.88,5.08,5.08,0,0,1,.31-.85,9.19,9.19,0,0,1,1-1.49,19.51,19.51,0,0,1,2.35-2.53,37.22,37.22,0,0,1,5.4-4,56.25,56.25,0,0,1,5.81-3.14c.49-.24,1-.45,1.49-.68l.74-.33.83-.33a25.49,25.49,0,0,1,3.47-1.08,17.5,17.5,0,0,1,7.7-.08,13.61,13.61,0,0,1,3.77,1.54,13.1,13.1,0,0,1,3.06,2.55,15.4,15.4,0,0,1,3.27,6.55A16.38,16.38,0,0,1,383.86,181.58Z"/><path class="cls-9" d="M392.89,128.19l-4.75-10.75s-20.12-1.23-32.65,5-18.8,19.36-18.8,19.36S351.37,129.24,392.89,128.19Z"/><path class="cls-9" d="M444,128.19l4.75-10.75s20.12-1.23,32.66,5,18.79,19.36,18.79,19.36S485.52,129.24,444,128.19Z"/><path class="cls-9" d="M468.66,191.12l-4-1.72c-1.32-.55-2.62-1.09-3.95-1.56s-2.66-.92-4-1.35l-4.15-1.26a15.29,15.29,0,0,1,4.43,0,20.2,20.2,0,0,1,4.32,1.06,20.52,20.52,0,0,1,4,2A15.4,15.4,0,0,1,468.66,191.12Z"/><path class="cls-9" d="M452.42,181.58a16.38,16.38,0,0,1,.19-6.82,15.26,15.26,0,0,1,3.26-6.55,13.17,13.17,0,0,1,6.83-4.09,17.5,17.5,0,0,1,7.7.08,25.49,25.49,0,0,1,3.47,1.08l.83.33.74.33c.5.23,1,.44,1.5.68a57.15,57.15,0,0,1,5.8,3.14,36.68,36.68,0,0,1,5.4,4,18.83,18.83,0,0,1,2.35,2.53,9.19,9.19,0,0,1,.95,1.49,5.08,5.08,0,0,1,.31.85,1.47,1.47,0,0,1,0,.88,2.6,2.6,0,0,0-1.11-1.07,13.73,13.73,0,0,0-1.37-.72c-.95-.43-1.91-.81-2.89-1.16-2-.72-4-1.37-5.93-2l-6-2c-.5-.16-1-.35-1.49-.53l-.74-.26-.68-.22a23.53,23.53,0,0,0-2.68-.76,15.45,15.45,0,0,0-5-.39,10.45,10.45,0,0,0-2.27.55,11,11,0,0,0-2.16,1.14,16.58,16.58,0,0,0-3.86,4A39.77,39.77,0,0,0,452.42,181.58Z"/><path class="cls-9" d="M450.84,242a4.1,4.1,0,0,1,1.9.77,16.19,16.19,0,0,1,1.53,1.28c1,.87,1.88,1.8,2.77,2.75s1.71,1.95,2.49,3a22.75,22.75,0,0,1,2.15,3.32,23.4,23.4,0,0,1-3.11-2.44c-1-.87-1.88-1.8-2.77-2.75s-1.71-2-2.49-3A13.33,13.33,0,0,0,450.84,242Z"/><path class="cls-9" d="M387.22,241.5c-.91,1-1.84,1.85-2.77,2.73l-2.77,2.61-2.77,2.6a8.11,8.11,0,0,1-3.39,2.09,23.91,23.91,0,0,0,2.42-3,21.07,21.07,0,0,1,5.71-5.37A14.83,14.83,0,0,1,387.22,241.5Z"/><path class="cls-9" d="M392.77,230a9.75,9.75,0,0,0,1.7,3.39,7,7,0,0,0,2.9,2.23,8.21,8.21,0,0,0,3.57.61,14.69,14.69,0,0,0,3.64-.62l.39-.12.31.36a14.28,14.28,0,0,0,5.37,3.73,17.53,17.53,0,0,0,6.49,1.32,14.75,14.75,0,0,0,11.71-5l.3-.35.4.08a21.24,21.24,0,0,0,4.09.36,15.84,15.84,0,0,0,4.07-.54,8.91,8.91,0,0,0,3.6-1.89,8.27,8.27,0,0,0,2.2-3.52,7.69,7.69,0,0,1-1.85,3.86,9,9,0,0,1-3.67,2.4,15.44,15.44,0,0,1-4.3.87,21.79,21.79,0,0,1-4.41-.16l.7-.27a14.25,14.25,0,0,1-2.63,2.58,15.49,15.49,0,0,1-3.12,1.9,16,16,0,0,1-7.14,1.39A18.8,18.8,0,0,1,410,241a16.8,16.8,0,0,1-3.15-1.83,12.87,12.87,0,0,1-2.65-2.57l.7.25a14.75,14.75,0,0,1-4,.46,9.27,9.27,0,0,1-3.93-1,7.77,7.77,0,0,1-2.91-2.72A8.72,8.72,0,0,1,392.77,230Z"/><path class="cls-6" d="M420.09,245.33v16.86s30.75-.7,51.14,12.33c0,0,2.77-14.62-9.57-21.14C447.19,245.73,420.09,245.33,420.09,245.33Z"/><path d="M471.82,275.89l-1.05-.66C450.84,262.48,420.4,263,420.11,263l-.86,0V244.48h.85c1.11,0,27.47.49,42,8.15,12.73,6.74,10,21.89,10,22Zm-50.9-14.54c5,0,31.22.63,49.65,11.78.35-3.58.42-13.87-9.3-19-12.7-6.72-35.65-7.78-40.35-7.93Z"/><path class="cls-6" d="M416.2,245.33v16.86s-30.76-.7-51.14,12.33c0,0-2.77-14.62,9.56-21.14C389.09,245.73,416.2,245.33,416.2,245.33Z"/><path d="M364.46,275.89l-.23-1.21c0-.15-2.73-15.3,10-22,14.48-7.66,40.84-8.13,41.95-8.15H417v18.57l-.85,0c-.3,0-30.74-.55-50.67,12.2Zm50.9-29.7c-4.69.15-27.65,1.21-40.35,7.93-9.72,5.14-9.64,15.43-9.3,19,18.43-11.14,44.6-11.77,49.65-11.78Z"/><path class="cls-9" d="M405.21,305.59a7.44,7.44,0,0,1,1.71.68c.55.25,1.1.51,1.65.73a28.57,28.57,0,0,0,3.37,1.16,24.11,24.11,0,0,0,7,.81,30.24,30.24,0,0,0,7-1.06,64.4,64.4,0,0,0,6.86-2.32,25.13,25.13,0,0,1-6.46,3.57,25.54,25.54,0,0,1-3.59,1,26,26,0,0,1-3.74.43,19.41,19.41,0,0,1-7.4-1.25,18.28,18.28,0,0,1-3.34-1.67c-.52-.33-1-.68-1.52-1.06l-.72-.56A3,3,0,0,0,405.21,305.59Z"/><path class="cls-10" d="M379.1,272s6.61,20.33,39.5,20.33,43.08-19.91,43.08-19.91-31.45-4-35.68,0-7.86,3.88-7.86,3.88h.92s-3.63.16-7.86-3.88-35.68,0-35.68,0"/><path class="cls-9" d="M379.1,272a23.05,23.05,0,0,0,3,5.18l.92,1.18,1,1.11a28.39,28.39,0,0,0,2.15,2.1,35.51,35.51,0,0,0,10.15,6.23,49.79,49.79,0,0,0,11.5,3.17l3,.33a24.78,24.78,0,0,0,3,.25l3,.09a27.29,27.29,0,0,0,3,0,62.91,62.91,0,0,0,23.24-4.72,45.73,45.73,0,0,0,10.12-6.14c.38-.32.77-.62,1.14-.94l1.08-1c.75-.65,1.39-1.4,2.07-2.11a28.75,28.75,0,0,0,3.46-4.67l.63,1.2c-3.7-.47-7.43-.86-11.15-1.18s-7.46-.57-11.19-.66c-1.86,0-3.72-.05-5.57,0a25.92,25.92,0,0,0-5.41.69,5.87,5.87,0,0,0-1.18.43,2,2,0,0,0-.46.29,4.36,4.36,0,0,0-.52.44,15.54,15.54,0,0,1-2.33,1.77,13.87,13.87,0,0,1-2.65,1.3,9,9,0,0,1-3,.57l0-1.26h.92l0,1.24a8.83,8.83,0,0,1-3-.62,13.68,13.68,0,0,1-2.61-1.34,16.56,16.56,0,0,1-2.28-1.8,4.52,4.52,0,0,0-.52-.44,1.73,1.73,0,0,0-.49-.32,5.64,5.64,0,0,0-1.21-.47,26.43,26.43,0,0,0-5.45-.77c-1.86-.11-3.72-.12-5.59-.12-3.74,0-7.49.19-11.23.44s-7.48.56-11.21.94q5.57-.82,11.18-1.37c3.73-.36,7.48-.66,11.24-.8,1.88-.07,3.77-.08,5.66,0a27,27,0,0,1,5.68.7,7.16,7.16,0,0,1,1.42.52,3.16,3.16,0,0,1,.69.43,5.74,5.74,0,0,1,.55.47,15.38,15.38,0,0,0,2.17,1.63,12,12,0,0,0,2.41,1.18,7.8,7.8,0,0,0,2.51.51l0,1.25h-.92l0-1.26a8,8,0,0,0,2.49-.56,12.29,12.29,0,0,0,2.36-1.22,16.07,16.07,0,0,0,2.12-1.65,6.16,6.16,0,0,1,.56-.48,3.36,3.36,0,0,1,.71-.47,8.09,8.09,0,0,1,1.45-.55,27.79,27.79,0,0,1,5.73-.78c1.9-.09,3.79-.1,5.67-.07,3.78.07,7.54.29,11.29.59s7.49.66,11.23,1.12l1.24.15-.6,1A33.67,33.67,0,0,1,454.2,282a47.31,47.31,0,0,1-10.51,6.29,62.05,62.05,0,0,1-23.84,4.63,28.22,28.22,0,0,1-3.05-.05l-3-.15a25.93,25.93,0,0,1-3-.31l-3-.4a50.46,50.46,0,0,1-11.66-3.46,36.45,36.45,0,0,1-10.13-6.66A26.74,26.74,0,0,1,379.1,272Z"/></g></svg>