<svg xmlns="http://www.w3.org/2000/svg" viewBox="0 0 749.62 1287.63"><defs><style>.cls-1{fill:#29235c;}.cls-2{fill:#575756;}.cls-3{fill:#a7a7a7;}.cls-4{fill:#3142aa;}.cls-5{fill:#977763;}.cls-6{fill:#cea36b;}.cls-7{fill:#f1f1f1;}.cls-8{fill:#b8b8b7;}.cls-9{fill:#1d1d1b;}.cls-10{fill:#392f25;}.cls-11{fill:#fff;}</style></defs><g id="PERSONAJES"><path class="cls-1" d="M703.25,731.81A267.54,267.54,0,0,1,746.86,744c.27,3.85.52,7.68.77,11.53,1,14.24,1.89,28.59.29,42.78-1.33,11.72-4.37,23.21-5.59,34.95-3,28.92,5.18,58.12,2.22,87-1.32,13-4.85,25.59-6.34,38.5h0c-3.18,7.87-13.12,10.95-21.69,12.61q-10.39,2-20.87,3.66c-2-21.59-1.07-43.38-.14-65.07q3.82-87.91,7.64-175.85Z"/><path class="cls-2" d="M705.3,673.78a168.84,168.84,0,0,1,37.46,14.43c1.56,18.59,2.86,37.2,4.1,55.8a267.54,267.54,0,0,0-43.61-12.2C704.08,712.49,704.9,693.13,705.3,673.78Z"/><path class="cls-1" d="M669.37,435.33c21.46,15.77,33.07,42.72,41.22,68.57,18.83,59.64,26.95,121.83,32.17,184.31a168.84,168.84,0,0,0-37.46-14.43c1-45.32-.21-90.61-8.51-135.08-6.53-35-17.38-69.06-28.93-102.81C668.37,435.69,668.87,435.5,669.37,435.33Z"/><path class="cls-3" d="M667.14,433.76c.76.52,1.51,1,2.23,1.57-.5.17-1,.36-1.51.56C667.63,435.18,667.4,434.46,667.14,433.76Z"/><path class="cls-3" d="M480.55,419.94a232.14,232.14,0,0,1,45.29-5.39c-1.23-3.22-2.51-6.41-3.87-9.58a245.94,245.94,0,0,0-14.66-28.92,372.74,372.74,0,0,0,107.45,40.67c16.15,3.4,32.9,5.84,47.31,13.91,1.74,1,3.43,2,5.07,3.13.26.7.49,1.42.72,2.13-15.28,5.77-31,19.18-43.46,33.65l-.45-.46c-22.15-7.72-51.43-13.08-75-22.36l-12.3-4.82C518,434.6,498.84,427.13,480.55,419.94Z"/><path class="cls-3" d="M575.33,746.94c-3.18-17.94-6.33-36-8.09-54.11,41-24.12,92-30.85,138.06-19.05-.4,19.35-1.22,38.71-2,58C659.3,723.44,612.67,726.22,575.33,746.94Z"/><path class="cls-1" d="M583.34,1137.15c14.6-44.48,36.12-89.32,29.46-134.76-1-6.71-2.58-13.34-4.2-19.93q23.8-.3,47.53-2.46c2.5,19.8,13.09,50.83,10.21,70.57C663,1073.42,645,1090.78,632.22,1110c-2.23,3.36-4.36,6.91-5.09,10.88-.89,4.73.32,9.59.6,14.41a39.69,39.69,0,0,1-17.84,34.93c-1,.65-2,1.25-3.11,1.8a172.17,172.17,0,0,1-33.63,4.32A269.78,269.78,0,0,1,583.34,1137.15Z"/><path class="cls-1" d="M575.26,1231.36c-4.32-14.77-5.07-29.55-3.55-44.38a220.57,220.57,0,0,0,44.81-5A116.78,116.78,0,0,1,620.1,1194q3,11.61,6,23.26c1.66,6.44,3.31,12.89,4.54,19.41,3.07,16.34,3.46,33.23,8.48,49.08v1H601.74c-.62-1.26-1.24-2.51-1.88-3.75C591.18,1266,580.62,1249.71,575.26,1231.36Z"/><path class="cls-1" d="M610,1170.41a38.11,38.11,0,0,1,6.51,11.56,220.57,220.57,0,0,1-44.81,5c.35-3.55.84-7.08,1.44-10.63a172.17,172.17,0,0,0,33.63-4.32c1.07-.55,2.1-1.15,3.11-1.8Z"/><path class="cls-4" d="M522.71,623.42c5.65-58.84,10.54-122.46,13.91-181.52l12.3,4.82c23.6,9.28,52.88,14.64,75,22.36l.45.46c-8.84,10.25-16.1,21-20.52,30C593,521.75,587,546,581.13,570c-3.93,16-7.88,32.17-10.77,48.42h0A256.88,256.88,0,0,1,522.71,623.42Z"/><path class="cls-4" d="M556.75,801.55a302.43,302.43,0,0,0-31.68,1.92l0-.2c-.1-11.8-.18-18.37-.25-27.9,16.55-.4,34.06-2.86,54.23-7.83,2.1,11.8,3.74,22.68,3.61,35.73A181.13,181.13,0,0,0,556.75,801.55Z"/><path class="cls-4" d="M435.66,661.16c1.22.74,52.13,31.22,130.14,12.76H566c.2,6.31.65,12.62,1.27,18.91C569,711,572.15,729,575.33,746.94l.2,1.15c.37,2,.72,4.07,1.09,6.09.82,4.67,1.65,9.08,2.41,13.36-20.17,5-37.68,7.43-54.23,7.83-23.73.62-45.52-2.91-70.43-9.17-2.86-.7-5.87-1.57-7.87-3.75s-2.56-5.29-3-8.21A614.65,614.65,0,0,1,435.66,661.16Z"/><path class="cls-4" d="M570.36,618.37c2.89-16.25,6.84-32.39,10.77-48.42,5.9-24,11.85-48.2,22.75-70.38,4.42-9,11.68-19.78,20.52-30,12.5-14.47,28.18-27.88,43.46-33.65,11.55,33.75,22.4,67.78,28.93,102.81,8.3,44.47,9.5,89.76,8.51,135.08-46-11.8-97-5.07-138.06,19.05-.62-6.29-1.07-12.6-1.27-18.91-.2-5.64-.22-11.28,0-16.92a276.86,276.86,0,0,1,4.39-38.63Z"/><path class="cls-4" d="M534.24,1184a184.49,184.49,0,0,0,37.47,3c-1.52,14.83-.77,29.61,3.55,44.38,5.36,18.35,15.92,34.67,24.6,51.69.64,1.24,1.26,2.49,1.88,3.75h-38C533.54,1267.1,523.79,1219.88,534.24,1184Z"/><path class="cls-4" d="M520.58,1183.63c4.32-1.64,9.14-.58,13.66.32-10.45,35.93-.7,83.15,29.52,102.85H534.32c-22.69-24.32-32.38-60.14-22.74-97.91a27.09,27.09,0,0,0,2.41-1.33C516.16,1186.21,518.19,1184.54,520.58,1183.63Z"/><path class="cls-4" d="M387.29,1102.37c1.82-14.24,2.83-28.48,1.14-42.69-2.43-20.39-10.31-39.65-15.93-59.4-4.62-16.2-5.41-17.74-7.62-31.88q42.75,4.49,85.69,6.86c12,.67,24.1,1.19,35.85-1.19,7-1.42,14-3.85,21-2.69,5,.83,9.49,3.43,14.29,5a68.78,68.78,0,0,0,14.53,2.67c3.48.36,7,.72,10.48,1,14.88,67.4,1.82,133.46-30.08,194.66a0,0,0,0,0,0,0c-.88.58-1.77,1.2-2.67,1.77-6.53,4-14.38,5.09-22,6.08l-37.15,4.82c-21.31,2.78-43.47,5.47-63.9-1.19-3.28-1.07-6.57-2.39-10-2.83v-.1C377.45,1156.43,383.83,1129.39,387.29,1102.37Z"/><path class="cls-4" d="M396.88,1198.93c18.75,4.48,38.71,2,58-.47l37.15-4.82c6.68-.87,13.58-1.81,19.57-4.75-9.64,37.77.05,73.59,22.74,97.91H396.71Z"/><path class="cls-4" d="M439,604.61c24.61,13.76,53.28,19.06,81.46,18.84.77,0,1.52,0,2.28,0a256.88,256.88,0,0,0,47.63-5A276.86,276.86,0,0,0,566,657c-.2,5.64-.18,11.28,0,16.92h-.17c-78,18.46-128.92-12-130.14-12.76A434.26,434.26,0,0,1,439,604.61Z"/><path class="cls-4" d="M520.58,1172.62a18.77,18.77,0,0,0-3.9,2.14c31.9-61.2,45-127.26,30.08-194.66a607.74,607.74,0,0,0,61.84,2.36c1.62,6.59,3.21,13.22,4.2,19.93,6.66,45.44-14.86,90.28-29.46,134.76a269.78,269.78,0,0,0-10.19,39.2,171.73,171.73,0,0,1-38.91-3.41C529.72,1172,524.9,1171,520.58,1172.62Z"/><path class="cls-2" d="M436,43.43c4.5-2.29,10-4.55,14.29-1.94,2.18,1.3,3.55,3.6,4.82,5.8,11.58,20,27.78,43.44,32.64,66.06,4.28,20,.88,37.49-10.51,53.11a0,0,0,0,1,0,0q-2.28,3.09-5,6.11c-2.06-23.16-4.9-46.22-10-68.87-2-8.77-4.33-17.54-8.46-25.47A73.9,73.9,0,0,0,435,55.85c.87-4.56.59-8,.28-12.37Z"/><path class="cls-5" d="M490,211.26c-1.66,7.25-10.46,20.67-16.45,25l-.45-.09a113.05,113.05,0,0,0,1.87-28.75c-.84-11.58-1.67-23.2-2.73-34.78q2.71-3,5-6.11a0,0,0,0,0,0,0c8.77-7.53,13.67-2.13,15.83,1.36s2.48,7.78,2.71,11.9C496.41,192.27,492.92,198.39,490,211.26Z"/><path class="cls-5" d="M427,317.29a280.31,280.31,0,0,0,20.57-24.67l.17.12c-1,20.37-2,39.9-1.17,59.2.08,1.94.17,3.86.25,5.8q.35,8,.67,16l.22.08c-1.89,5.62-5.54,10.48-9.24,15.13-6,7.53-13.89,16.13-22.33,25.21,7.7-26.26-3.81-54.43-6.54-80A164.71,164.71,0,0,0,427,317.29Z"/><path class="cls-2" d="M394.79,10.22c7.36-1.94,16.4-2,23.3,1.26a29.19,29.19,0,0,1,15,16.58c1.49,4.41,1.86,9.11,2.12,13.76,0,.57.07,1.12.1,1.66.31,4.37.59,7.81-.28,12.37a109.51,109.51,0,0,0-12-8.61,124.07,124.07,0,0,0-19.76-10.12l.16-.44c-.93-7-1.77-12.87-4.56-19.38A34.61,34.61,0,0,0,394.79,10.22Z"/><path class="cls-5" d="M399.26,35.6c1.35.46,2.69,1,4.05,1.52a124.07,124.07,0,0,1,19.76,10.12,109.51,109.51,0,0,1,12,8.61,73.9,73.9,0,0,1,18.7,22.41c4.13,7.93,6.49,16.7,8.46,25.47,5.11,22.65,7.95,45.71,10,68.87,1.06,11.58,1.89,23.2,2.73,34.78a113.05,113.05,0,0,1-1.87,28.75,127.86,127.86,0,0,1-10.75,32.47,164.09,164.09,0,0,1-14.73,24A280.31,280.31,0,0,1,427,317.29a164.71,164.71,0,0,1-17.4,16.85c-1-9.33-.81-18.32,1.91-26.76,13-40.27,27.58-73.71,27.44-117.39C438.81,136.37,423.42,83.53,399.26,35.6Z"/><path class="cls-3" d="M371.41.92c4.5-.2,9.12-.12,13.34,1.49a23.23,23.23,0,0,1,10,7.81,34.61,34.61,0,0,1,4.12,7.08c2.79,6.51,3.63,12.35,4.56,19.38l-.16.44c-1.36-.54-2.7-1.06-4.05-1.52A104.64,104.64,0,0,0,371,29.7l0-.56c-4.27-8.09-8.37-15.2-15.65-20.64C359,3.38,365.2,1.2,371.41.92Z"/><path class="cls-4" d="M379.52,1194.31c4,.18,7.69,1.74,11.44,3,2,.64,3.93,1.19,5.92,1.66l-.17,87.87H357.43l.17-86.6c1-.23,2-.48,3-.79C366.87,1197.51,373,1194,379.52,1194.31Z"/><path class="cls-4" d="M364.85,968.2c-30.16-115.92,27.93-167,29.19-168.06h0c1.68.62,3.33,1.26,5,2,4.52,1.85,9,4.06,13.89,4.41,8.2.61,16.25-4.15,24.37-2.79,4.84.8,9.05,3.68,13.69,5.32,7.57,2.68,15.85,1.91,23.8,1,16.77-2,33.49-4.72,50.28-6.52a302.43,302.43,0,0,1,31.68-1.92,181.13,181.13,0,0,1,25.89,1.72c.13-13-1.51-23.93-3.61-35.73-.76-4.28-1.59-8.69-2.41-13.36-.37-2-.72-4.06-1.09-6.09l-.2-1.15c37.34-20.72,84-23.5,127.92-15.13l-.1,2.36q-3.82,87.92-7.64,175.85c-.93,21.69-1.87,43.48.14,65.07Q676,978.18,656.13,980q-23.7,2.16-47.53,2.46a607.74,607.74,0,0,1-61.84-2.36c-3.5-.3-7-.66-10.48-1a68.78,68.78,0,0,1-14.53-2.67c-4.8-1.6-9.3-4.2-14.29-5-7-1.16-14.06,1.27-21,2.69-11.75,2.38-23.88,1.86-35.85,1.19q-42.93-2.35-85.69-6.86A1.62,1.62,0,0,1,364.85,968.2Z"/><path class="cls-6" d="M307.57,44.87a116.78,116.78,0,0,1,26-11.27,106.11,106.11,0,0,1,29.78-4.15c2.57,0,5.12.09,7.68.25a104.64,104.64,0,0,1,28.22,5.9C423.42,83.53,438.81,136.37,439,190c.14,43.68-14.46,77.12-27.44,117.39-2.72,8.44-2.9,17.43-1.91,26.76a82.89,82.89,0,0,1-9.74,6.85s-9.74,10.33-36.52,10.33S326.84,341,326.84,341c-10.35-6.14-19-14.81-27.17-23.7a284.84,284.84,0,0,1-20.41-24.52,164.67,164.67,0,0,1-14.87-24.17,127.17,127.17,0,0,1-10.73-32.38,112.93,112.93,0,0,1-1.89-28.84c.74-10.28,1.49-20.57,2.38-30.84,2.11-24.49,5-48.88,10.36-72.81,2-8.77,4.32-17.54,8.47-25.47,6.83-13.09,18.23-23.23,30.64-31C305,46.42,306.27,45.62,307.57,44.87Z"/><path class="cls-3" d="M356.73,967.53c2.71.3,5.42.58,8.15.87,2.21,14.14,3,15.68,7.62,31.88,5.62,19.75,13.5,39,15.93,59.4,1.69,14.21.68,28.45-1.14,42.69-.22,0-.43-.08-.65-.13q-3.79-.85-7.58-1.86c1.65-13.57,2.49-27.16.88-40.7-2.42-20.39-10.31-39.65-15.93-59.4C360.39,987.59,358.52,980.18,356.73,967.53Z"/><path class="cls-3" d="M379.52,1183.31a21.7,21.7,0,0,0-6.79.87l-.23-.85c-3.64-27.56,3.16-55.26,6.56-82.95q3.78,1,7.58,1.86c.22,0,.43.1.65.13-3.46,27-9.84,54.06-6.31,81v.1C380.5,1183.38,380,1183.33,379.52,1183.31Z"/><path class="cls-3" d="M352.46,625.16c1-34.64,2.08-70.54,3.05-105.42,1.05.35,2.11.68,3.18,1a59.71,59.71,0,0,0,3-14.63c.2-2.54.23-5.12,1.12-7.51A40.55,40.55,0,0,1,365,494.3c-1,34.88-3.09,96.22-4.06,130.86-.56,20.19-1.09,40.66,3.49,60.32,4.84,20.64,15.22,39.93,17.48,61,2.14,20-1.32,29-5.78,48.55-2.49-.52-5-.95-7.53-1.26h0c3.87-16.87,6.66-30.16,4.82-47.28-2.26-21.08-12.63-40.37-17.47-61C351.37,665.82,351.91,645.35,352.46,625.16Z"/><path class="cls-4" d="M222,888.8c5.1,2.48,15.13,5,20.79,5.57,4.05.42,8.11-.17,12.18-.47,16.62-1.2,27.92-.3,42.36,8,.39,16.3,2.33,32.67,4,49.64a11.64,11.64,0,0,0,10,10.39Q334,965,356.73,967.53c1.79,12.65,3.66,20.06,7.28,32.75,5.62,19.75,13.51,39,15.93,59.4,1.61,13.54.77,27.13-.88,40.7-3.4,27.69-10.2,55.39-6.56,82.95l.23.85c-4.08,1.09-8.07,3-12.15,4.22-23.93,7.28-49-8.4-73.94-7.35-12.32.52-24.29,5.14-36.61,4.91-13.89-.27-26.66-6.58-39.78-11.45-31.93-61.22-41.54-137.12-26.63-204.56,5-22.52,7-18.47,12.87-41.34h0c10.29-11.81,18.44-25.47,25.5-39.81Z"/><path class="cls-3" d="M356.73,967.53Q334,965,311.27,961.92a11.64,11.64,0,0,1-10-10.39c-1.64-17-3.58-33.34-4-49.64-.74-29.49,3.57-58.78,23.67-91.14,2.81-4.53,5.92-9.12,9.39-13.77a86,86,0,0,1,38.22-3.2c2.53.31,5,.74,7.53,1.26a118.91,118.91,0,0,1,17.9,5.1c-1.26,1.09-59.35,52.14-29.19,168.06a1.62,1.62,0,0,0,0,.2C362.15,968.11,359.44,967.83,356.73,967.53Z"/><path class="cls-4" d="M273.7,766.08l.28.12c2.87-.7,5.88-1.57,7.87-3.75s2.56-5.29,3-8.21l1.3-18.35v0q4.6-11.1,9.19-22.21l4.77-11.55c7-17,23.58-36.47,26.92-47.83,2.35-8-15.62-40.44-31.65-49.54a52.75,52.75,0,0,1,10.47-18.93c4.66-5.14,10.45-9.21,14.82-14.61,12.25-15.18,10.71-36.71,9-56.27,4.69-6.66,14.15-5.32,18.81-12a21.52,21.52,0,0,0,2.87-7.31q1.88-7.23,3.75-14.46a15.28,15.28,0,0,0,.7-6.38c3,2.76,3.8,5.53,5.86,9-2.82-.54-5.91,1.09-6.25,5.47-.18,2.41,1,4.87.36,7.22a9.81,9.81,0,0,1-2.63,4q-6.28,6.75-13,13.07a137.81,137.81,0,0,0,15.37,6.26c-1,34.88-2.08,70.78-3.05,105.42-.55,20.19-1.09,40.66,3.5,60.32,4.84,20.64,15.21,39.93,17.47,61,1.84,17.12-.95,30.41-4.82,47.28h0a86,86,0,0,0-38.22,3.2c-3.47,4.65-6.58,9.24-9.39,13.77-15.65-5.67-26.21-12.8-39.6-22.69-3.35-2.46-6.76-5-9-8.54-.7-1.12-1.42-2.42-2.69-2.74l-.4-.17C270.8,773.1,272.26,769.6,273.7,766.08Z"/><path class="cls-4" d="M402.39,442.87c-12.05,7.85-24.67,17.82-33.38,29.64,3.75-7.23,9.26-15,15.64-22.93,9.47-11.8,20.9-24,31.51-35.42h0c8.44-9.08,16.35-17.68,22.33-25.21,3.7-4.65,7.35-9.51,9.24-15.13a.69.69,0,0,1,0-.13c1.72-5.21,1.75-11.23-.94-15.94-.08-1.94-.17-3.86-.25-5.8-.8-19.3.2-38.83,1.17-59.2-.44,23.33,24.13,35.14,38.39,52.8a250.64,250.64,0,0,1,21.16,30.51A245.94,245.94,0,0,1,522,405c-4.9-.68-16,.71-27.08,2.48C461.1,412.87,431.07,424.19,402.39,442.87Z"/><path class="cls-3" d="M333.4,32.93c-1.06-1.55-1.42-2.07-2.5-3.63-2-3-4.16-6-7-8.15A18.31,18.31,0,0,0,316.75,18c5.5-7.95,15.73-12.37,25.3-12.77a19.22,19.22,0,0,1,7.28.84c2.34.8,4.81,1.47,6.09,2.44,7.28,5.44,11.38,12.55,15.65,20.64l0,.56c-2.56-.16-5.11-.25-7.68-.25a106.11,106.11,0,0,0-29.78,4.15Z"/><path class="cls-3" d="M362.91,484.16a48.57,48.57,0,0,1,5.17-7A83.63,83.63,0,0,0,365.8,487h0A5.56,5.56,0,0,0,362.91,484.16Z"/><path class="cls-4" d="M365.8,487a83.63,83.63,0,0,1,2.28-9.82c6.59-7.54,15.46-14,23.58-20.15,15.56-11.82,37.25-21.63,55.77-27.9a292.08,292.08,0,0,1,33.12-9.19c18.29,7.19,37.45,14.66,56.07,22-3.37,59.06-8.26,122.68-13.91,181.52-.76,0-1.51,0-2.28,0-28.18.22-56.85-5.08-81.46-18.84a434.26,434.26,0,0,0-3.31,56.55,614.65,614.65,0,0,0,7.83,93.08c.45,2.92,1,6,3,8.21s5,3,7.87,3.75c24.91,6.26,46.7,9.79,70.43,9.17.07,9.53.15,16.1.25,27.9l0,.2c-16.79,1.8-33.51,4.51-50.28,6.52-8,1-16.23,1.72-23.8-1-4.64-1.64-8.85-4.52-13.69-5.32-8.12-1.36-16.17,3.4-24.37,2.79-4.87-.35-9.37-2.56-13.89-4.41-1.66-.69-3.31-1.33-5-2h0a118.91,118.91,0,0,0-17.9-5.1c4.46-19.6,7.92-28.55,5.78-48.55-2.26-21.08-12.64-40.37-17.48-61-4.58-19.66-4.05-40.13-3.49-60.32,1-34.64,3.09-96,4.06-130.86a10.66,10.66,0,0,0,1.31-3.9,6.38,6.38,0,0,0-.54-3.4Z"/><path class="cls-3" d="M362.24,483.92A63.24,63.24,0,0,1,369,472.51c8.71-11.82,21.33-21.79,33.38-29.64,28.68-18.68,58.71-30,92.5-35.42C506,405.68,517.07,404.29,522,405c1.36,3.17,2.64,6.36,3.87,9.58a232.14,232.14,0,0,0-45.29,5.39,292.08,292.08,0,0,0-33.12,9.19c-18.52,6.27-40.21,16.08-55.77,27.9-8.12,6.17-17,12.61-23.58,20.15a48.57,48.57,0,0,0-5.17,7A2.83,2.83,0,0,0,362.24,483.92Z"/><path class="cls-3" d="M355.51,519.74a137.81,137.81,0,0,1-15.37-6.26q6.71-6.33,13-13.07a9.81,9.81,0,0,0,2.63-4c.61-2.35-.54-4.81-.36-7.22.34-4.38,3.43-6,6.25-5.47h0l.35.6a46.9,46.9,0,0,0-2.52,7.13,30.06,30.06,0,0,0-1.51,9.74,43.55,43.55,0,0,1,1.51-9.74,33.39,33.39,0,0,1,2.93-6.52v0c.15-.27.3-.54.47-.8a5.56,5.56,0,0,1,2.87,2.84,6.38,6.38,0,0,1,.54,3.4,10.66,10.66,0,0,1-1.31,3.9,40.55,40.55,0,0,0-2.17,4.32c-.89,2.39-.92,5-1.12,7.51a59.71,59.71,0,0,1-3,14.63C357.62,520.42,356.56,520.09,355.51,519.74Z"/><path class="cls-5" d="M288.85,650.7A211.61,211.61,0,0,1,250,640.28a490.76,490.76,0,0,0,45.91-78.82c4.45-9.59,8.63-19.5,9.69-30,1.42-14.16-2.91-28.67.17-42.57,3.73-16.81,17.23-29,32.11-38.43a26.48,26.48,0,0,1,4.54,4.2c.53.6,1.05,1.22,1.54,1.84q5,6.3,9.41,13.05a14.76,14.76,0,0,1,2.44,5.24,15.28,15.28,0,0,1-.7,6.38q-1.89,7.23-3.75,14.46a21.52,21.52,0,0,1-2.87,7.31c-4.66,6.67-14.12,5.33-18.81,12,1.73,19.56,3.27,41.09-9,56.27-4.37,5.4-10.16,9.47-14.82,14.61a52.75,52.75,0,0,0-10.47,18.93C290.5,619.25,289.5,636.43,288.85,650.7Z"/><path class="cls-7" d="M342.42,451.23s16.95,9.78,42.23-1.65c-6.38,7.93-11.89,15.7-15.64,22.93a63.24,63.24,0,0,0-6.77,11.41,2.91,2.91,0,0,0-.56-.15h0c-2.06-3.46-2.82-6.23-5.86-9a14.76,14.76,0,0,0-2.44-5.24Q349,462.79,344,456.49c-.49-.62-1-1.24-1.54-1.84a11.55,11.55,0,0,0-.5-3.28Z"/><path class="cls-6" d="M342.42,454.65a26.48,26.48,0,0,0-4.54-4.2c1-.64,1.95-1.24,2.93-1.86a17.14,17.14,0,0,1,1.11,2.78A11.55,11.55,0,0,1,342.42,454.65Z"/><path class="cls-2" d="M327.06,654.27a259.09,259.09,0,0,1-38.21-3.57c.65-14.27,1.65-31.45,6.56-46C311.44,613.83,329.41,646.25,327.06,654.27Z"/><path class="cls-3" d="M286.85,38.42l-1.34.42c.54-6.78,6-13.55,11.89-16.88a31.72,31.72,0,0,1,13.2-4.36,22.28,22.28,0,0,1,6.15.39,18.31,18.31,0,0,1,7.11,3.16c2.88,2.16,5,5.19,7,8.15,1.08,1.56,1.44,2.08,2.5,3.63l.18.67a116.78,116.78,0,0,0-26,11.27C303.52,37.52,294.85,36.2,286.85,38.42Z"/><path class="cls-3" d="M286.85,38.42c8-2.22,16.67-.9,20.72,6.45-1.3.75-2.62,1.55-3.95,2.37C291.21,55,279.81,65.17,273,78.26c-4.15,7.93-6.5,16.7-8.47,25.47-5.41,23.93-8.25,48.32-10.36,72.81-3.18-4.26-6.29-8.49-9.09-12.83-6.14-9.57-10.68-19.59-10.79-31.44-.07-7.13,1.72-14.15,3.75-21,6.22-21,15-41.6,29-58.28,5.09-6,11.11-11.7,18.49-14.18Z"/><path class="cls-2" d="M250,640.28a211.61,211.61,0,0,0,38.85,10.42,259.09,259.09,0,0,0,38.21,3.57c-3.34,11.36-19.9,30.84-26.92,47.83l-4.77,11.55c-21.59,2.27-40.32,1.29-56.52-1.86a396,396,0,0,0,8.22-67.45C248.06,643,249,641.63,250,640.28Z"/><path class="cls-4" d="M281.85,762.45c-2,2.18-5,3-7.87,3.75l-.28-.12Q280,751,286.18,735.89l-1.3,18.35C284.41,757.16,283.84,760.26,281.85,762.45Z"/><path class="cls-5" d="M255,893.9c-4.07.3-8.13.89-12.18.47-5.66-.58-15.69-3.09-20.79-5.57h0c5.76-11.62,10.81-23.68,15.72-35.57q15.84-38.31,31.65-76.62l.4.17c1.27.32,2,1.62,2.69,2.74,2.2,3.54,5.61,6.08,9,8.54,13.39,9.89,24,17,39.6,22.69-20.1,32.36-24.41,61.65-23.67,91.14C282.89,893.6,271.59,892.7,255,893.9Z"/><path class="cls-6" d="M282,411.75q-11.55,13-22.19,26.71a2.49,2.49,0,0,1-.72.66c15.26-24.91,33.32-45.78,60.25-51.92,3.18-.72,6.46-1.29,9.29-2.9,4.53-2.59,7.3-7.59,8.37-12.72.7-3.43,1.57-7,1.94-10.59a4.53,4.53,0,0,0-4.81-5,123.87,123.87,0,0,0-54.39,16.86c.18-4.64.32-7.94.5-11.82.07-1.74.15-3.6.24-5.74.75-18.24-.1-39.7-1-59.2l-.15-3.33a284.84,284.84,0,0,0,20.41,24.52c8.19,8.89,16.82,17.56,27.17,23.7,0,0,9.74,10.33,36.52,10.33S399.88,341,399.88,341a82.89,82.89,0,0,0,9.74-6.85c2.73,25.58,14.24,53.75,6.54,80h0c-10.61,11.43-22,23.62-31.51,35.42-25.28,11.43-42.23,1.65-42.23,1.65l-.5.14a17.14,17.14,0,0,0-1.11-2.78,25.76,25.76,0,0,0-1.91-3.25c.29-7.71.05-18.21-4.21-24.58-3-4.52-7.85-7.47-12.57-10.15-5.34-3-10.88-5.9-16.89-7.13s-12.64-.63-17.66,2.88A33.71,33.71,0,0,0,282,411.75Z"/><path class="cls-4" d="M250,1197c12.32.26,24.29-4.36,36.61-4.88,23.95-1,47.95,13.34,71,8.13l-.17,86.6h-132C248.12,1262.48,255.47,1231.43,250,1197Z"/><path class="cls-4" d="M197.43,1286.8c30.36-19.62,39.11-58.38,32.28-93.88a67.19,67.19,0,0,0,20.32,4c5.44,34.48-1.91,65.53-24.62,89.85Z"/><path class="cls-6" d="M234.13,167.82c2.16-3.49,6.85-5.73,10.41-3.77l.52-.34c2.8,4.34,5.91,8.57,9.09,12.83-.89,10.27-1.64,20.56-2.38,30.84a112.93,112.93,0,0,0,1.89,28.84c-6-4.29-14.79-17.71-16.45-25-2.94-12.87-6.44-19-5.79-31.54C231.64,175.6,232,171.3,234.13,167.82Z"/><path class="cls-4" d="M109.39,1194c2.16-8.37,7.42-28.74,13-35.32a38.16,38.16,0,0,0,13.48,11.7c4.75,1.86,13.12,3.68,18.07,4.65,15.5,3,31.57,3.07,46.8,7.32,9.82,2.74,19.28,7.26,28.93,10.54,6.83,35.5-1.92,74.26-32.28,93.88h-107v-1c5-15.85,5.41-32.74,8.49-49.08,1.22-6.52,2.89-13,4.55-19.41Q106.41,1205.64,109.39,1194Z"/><path class="cls-3" d="M103.08,418.87c3.52-.72,7-1.41,10.52-2.15a372.82,372.82,0,0,0,108.5-41.27A250.12,250.12,0,0,0,205,408.35c-1.36,3.17-2.63,6.35-3.85,9.56a271.12,271.12,0,0,1,31.5,2.34c-1.63,2.45-3.22,4.93-4.77,7.4l-36.17,14.23-12.3,4.84c-14,5.52-23.3,9.54-37.71,13.9l-1.27.74C121.29,427.89,103.08,418.87,103.08,418.87Z"/><path class="cls-3" d="M205,408.35c4.9-.7,23.09.69,34.17,2.48-2.26,3.08-4.41,6.23-6.52,9.42a271.12,271.12,0,0,0-31.5-2.34C202.4,414.7,203.67,411.52,205,408.35Z"/><path class="cls-4" d="M114.93,1133.67c.31-4.82,1.49-9.67.61-14.41-.74-4-2.87-7.51-5.09-10.88-12.77-19.23-30.8-36.58-34.13-59.43-2.86-19.6-8.21-37.22-5.86-56.84q24.47-9,48.89-18.06c21.94-8.11,44.32-16.48,62.5-31.21a115.83,115.83,0,0,0,14.63-14.23h0c-5.89,22.87-7.88,18.82-12.87,41.34-14.91,67.44-5.3,143.34,26.63,204.56-3.13-1.15-6.28-2.24-9.47-3.13-15.23-4.27-31.3-4.28-46.8-7.33s-30.79-8.89-38.66-22.59h0A36.91,36.91,0,0,1,114.93,1133.67Z"/><path class="cls-6" d="M207.66,543.52c-.07-.72-.12-1.44-.19-2.16a.06.06,0,0,1,0-.05c-.46-7.31-1-14.71-1.42-22.24a267.2,267.2,0,0,1,1.27-41c.84-7.78,2-15.58,4.87-22.86,2.31-5.94,5.68-11.42,9-16.84q3.31-5.37,6.7-10.73c1.55-2.47,3.14-4.95,4.77-7.4,2.11-3.19,4.26-6.34,6.52-9.42a156.56,156.56,0,0,1,17-20.07,120.36,120.36,0,0,1,23-17.62,3.06,3.06,0,0,1,.49-.28A123.87,123.87,0,0,1,334.08,356a4.53,4.53,0,0,1,4.81,5c-.37,3.56-1.24,7.16-1.94,10.59-1.07,5.13-3.84,10.13-8.37,12.72-2.83,1.61-6.11,2.18-9.29,2.9-26.93,6.14-45,27-60.25,51.92a2.49,2.49,0,0,0,.72-.66Q270.4,424.77,282,411.75a33.71,33.71,0,0,1,5.62-5.39c5-3.51,11.65-4.11,17.66-2.88s11.55,4.12,16.89,7.13c4.72,2.68,9.54,5.63,12.57,10.15,4.26,6.37,4.5,16.87,4.21,24.58a25.76,25.76,0,0,1,1.91,3.25c-1,.62-2,1.22-2.93,1.86-14.88,9.45-28.38,21.62-32.11,38.43-3.08,13.9,1.25,28.41-.17,42.57-1.06,10.51-5.24,20.42-9.69,30A490.76,490.76,0,0,1,250,640.28,186,186,0,0,1,197.06,610a89.28,89.28,0,0,0,10.44-34.49c1.11-10.53.76-21.17.09-32Z"/><path class="cls-4" d="M207.45,541.31c-3.33-37.2-13.55-63.11-15.71-99.43l36.17-14.23q-3.39,5.36-6.7,10.73c-3.36,5.42-6.73,10.9-9,16.84-2.84,7.28-4,15.08-4.87,22.86a267.2,267.2,0,0,0-1.27,41C206.4,526.6,207,534,207.45,541.31Z"/><path class="cls-4" d="M239.2,410.83c-11.08-1.79-29.27-3.18-34.17-2.48a254.28,254.28,0,0,1,35.83-59.43c14.26-17.65,38.83-29.49,38.4-52.82h.15c.92,19.5,1.77,41,1,59.2-.09,2.14-.17,4-.24,5.74-2.58,4.08-2.54,7.21-1,12.1a120.36,120.36,0,0,0-23,17.62A156.56,156.56,0,0,0,239.2,410.83Z"/><path class="cls-8" d="M190.22,568.86a10.53,10.53,0,1,0-4.44-14.23A10.53,10.53,0,0,0,190.22,568.86ZM187,578.45c-6.6-2.71-10.85-9.26-11.83-16.2a20.09,20.09,0,0,1,29.4-20.75c1.73.9,1.76.71,3.05,2,.67,10.87,1,21.51-.09,32C198.77,575.65,194.35,576.73,187,578.45Z"/><path class="cls-4" d="M204.44,564.42A10.54,10.54,0,1,1,200,550.2,10.53,10.53,0,0,1,204.44,564.42Z"/><path class="cls-2" d="M197.06,610c-16.05-13.12-24-24.12-26.39-24.27h0a9.9,9.9,0,0,1,6.78-5.12c3.8-.78,6.86-1.5,9.54-2.14,7.38-1.72,11.8-2.8,20.53-3A89.28,89.28,0,0,1,197.06,610Z"/><path class="cls-4" d="M8.56,572.44a357.25,357.25,0,0,1,8.5-67.63l-.22-.42.92-.49c9-28.65,22.31-58.62,48.52-73.27,11.3-6.33,24-9.19,36.8-11.76,0,0,18.21,9,37.38,42.49,12.52,21.84,25.44,54.08,34,101q1.61,8.76,3,18.22a9.9,9.9,0,0,0-6.78,5.12c-4.05,7.12-3.13,19.79-3.63,28.51-.3,5.42-.57,11.29-4.08,15.41-4.81,5.61-14.35,6.29-17.54,12.94-3.07,6.36,1.77,13.91.6,20.87a15.11,15.11,0,0,1-3.38,7C44.94,666.45,8.46,690,8.46,690c1.35-12.92,2.39-25.86,2.47-38.85.12-19.91-2-39.78-2.46-59.7Q8.27,581.92,8.56,572.44Z"/><path class="cls-4" d="M177.43,580.59q-1.38-9.47-3-18.22l.69-.12c1,6.94,5.23,13.49,11.83,16.2C184.29,579.09,181.23,579.81,177.43,580.59Z"/><path class="cls-4" d="M141.73,460.62c14.41-4.36,23.7-8.38,37.71-13.9l12.3-4.84c2.16,36.32,12.38,62.23,15.71,99.43a.06.06,0,0,0,0,.05c0,.7.09,1.39.12,2.09-1.29-1.24-1.32-1.05-3.05-2a20.09,20.09,0,0,0-29.4,20.75l-.69.12c-8.55-46.93-21.47-79.17-34-101Z"/><path class="cls-3" d="M167,614.22c.5-8.72-.42-21.39,3.63-28.51h0c2.41.15,10.34,11.15,26.39,24.27A186,186,0,0,0,250,640.28c-1,1.35-1.94,2.71-2.93,4.06a396,396,0,0,1-8.22,67.45C167.4,698,145.4,642.57,145.4,642.57c3.19-6.65,12.73-7.33,17.54-12.94C166.45,625.51,166.72,619.64,167,614.22Z"/><path class="cls-3" d="M2.31,744.88c1.58-18.34,4.2-36.62,6.15-54.93,0,0,36.48-23.5,134.16-19.47-3.77,4.67-9.69,8.27-13.38,13.24-5,6.7-5.6,15.54-7.81,23.59a71.81,71.81,0,0,1-9.81,20.85c-8-2.43-19.3-6.78-27.28-9.21-5.86-1.77-13.12-3.23-17.34,1.21-3.18,3.35-3,8.89-.79,13C38,732.53,2.31,744.88,2.31,744.88Z"/><path class="cls-4" d="M115.32,1141.46c7.87,13.7,23.15,19.56,38.66,22.59s31.57,3.06,46.8,7.33c3.19.89,6.34,2,9.47,3.13,13.12,4.87,25.89,11.18,39.78,11.45,12.32.23,24.29-4.39,36.61-4.91,25-1,50,14.63,73.94,7.35,4.08-1.24,8.07-3.13,12.15-4.22a21.7,21.7,0,0,1,6.79-.87c.49,0,1,.07,1.46.12,3.41.44,6.7,1.76,10,2.83,20.43,6.66,42.59,4,63.9,1.19l37.15-4.82c7.6-1,15.45-2.06,22-6.08.9-.57,1.79-1.19,2.67-1.77a0,0,0,0,1,0,0,18.77,18.77,0,0,1,3.9-2.14c4.32-1.64,9.14-.59,13.66.32a171.73,171.73,0,0,0,38.91,3.41c-.6,3.55-1.09,7.08-1.44,10.63a184.49,184.49,0,0,1-37.47-3c-4.52-.9-9.34-2-13.66-.32-2.39.91-4.42,2.58-6.59,3.93a27.09,27.09,0,0,1-2.41,1.33c-6,2.94-12.89,3.88-19.57,4.75l-37.15,4.82c-19.27,2.49-39.23,5-58,.47-2-.47-4-1-5.92-1.66-3.75-1.22-7.49-2.78-11.44-3-6.57-.3-12.65,3.2-18.94,5.1-1,.31-2,.56-3,.79-23,5.21-47-9.15-71-8.13-12.32.52-24.29,5.14-36.61,4.88a67.19,67.19,0,0,1-20.32-4c-9.65-3.28-19.11-7.8-28.93-10.54-15.23-4.25-31.3-4.27-46.8-7.32-4.95-1-13.32-2.79-18.07-4.65a38.16,38.16,0,0,1-13.48-11.7,40.08,40.08,0,0,1-7.13-17.25Z"/><path class="cls-6" d="M72.42,771.29c-1.67-4.7-3.34-9.56-3.08-14.54s3-10.18,7.65-11.87l.5-.64,11.82,9.12.37.37c-4.52,4.62-9.09,9.17-13.41,13.83-1.2,1.3-2.41,2.63-3.58,4Z"/><path class="cls-6" d="M67,720.16c4.22-4.44,11.48-3,17.34-1.21,8,2.43,19.28,6.78,27.28,9.21-6.13,9.17-14,17.44-21.94,25.57l-.37-.37-11.82-9.12c-.53-.42-1.08-.83-1.62-1.25-3.68-2.83-7.45-5.78-9.66-9.86S63.82,723.51,67,720.16Z"/><path class="cls-4" d="M2.31,744.88s35.7-12.35,63.9-11.75c2.21,4.08,6,7,9.66,9.86.54.42,1.09.83,1.62,1.25l-.5.64c-4.7,1.69-7.4,6.88-7.65,11.87s1.41,9.84,3.08,14.54l.27.23c1.17-1.33,2.38-2.66,3.58-4,4.32-4.66,8.89-9.21,13.41-13.83,8-8.13,15.81-16.4,21.94-25.57a71.81,71.81,0,0,0,9.81-20.85c2.21-8,2.84-16.89,7.81-23.59,3.69-5,9.61-8.57,13.38-13.24a15.11,15.11,0,0,0,3.38-7c1.17-7-3.67-14.51-.6-20.87,0,0,22,55.45,93.45,69.22a465.22,465.22,0,0,1-78.44,176.82c-28.32,38.82-61.33,73.78-97,106.06-6.16,2.11-12.67,3.6-18.64,1.34-7.68-2.93-11.85-11.13-14.73-18.83-7.57-20.23-11.08-41.7-14.56-63C7,861.89-1.6,809.08,1.48,756.19,1.69,752.41,2,748.65,2.31,744.88Z"/><path class="cls-1" d="M70.46,992.11,67,993.42c-1.14.42-2.31.85-3.5,1.25,35.63-32.28,68.64-67.24,97-106.06a465.22,465.22,0,0,0,78.44-176.82c16.2,3.15,34.93,4.13,56.52,1.86q-4.59,11.1-9.19,22.21v0Q279.94,751,273.7,766.08c-1.44,3.52-2.9,7-4.35,10.53q-15.83,38.31-31.65,76.62c-4.91,11.89-10,23.95-15.72,35.57-7.06,14.34-15.21,28-25.5,39.81a115.83,115.83,0,0,1-14.63,14.23c-18.18,14.73-40.56,23.1-62.5,31.21Q94.9,983.07,70.46,992.11Z"/><path class="cls-9" d="M363.36,352.15c-25.83,0-36-9.4-37-10.5-9.83-5.85-18-13.74-27.26-23.79a283.91,283.91,0,0,1-20.48-24.59A165,165,0,0,1,263.64,269a128,128,0,0,1-10.8-32.6,114.74,114.74,0,0,1-1.9-29.05c.71-9.88,1.47-20.4,2.38-30.86,1.74-20.29,4.5-46.92,10.37-72.91C265.61,95,268,86,272.24,77.87c6.14-11.78,16.55-22.32,30.94-31.34,1.55-1,2.81-1.71,4-2.39a118,118,0,0,1,26.2-11.34,106.18,106.18,0,0,1,30-4.18c2.59,0,5.13.08,7.73.25a106.06,106.06,0,0,1,28.45,5.94c1.38.48,2.78,1,4.08,1.53a126.49,126.49,0,0,1,19.9,10.19,112.22,112.22,0,0,1,12.06,8.67,74.86,74.86,0,0,1,18.9,22.67c4.27,8.2,6.63,17.18,8.54,25.68,4.45,19.72,7.54,41,10,69,1,11.46,1.88,23.13,2.7,34.42l0,.37a113.33,113.33,0,0,1-1.89,29A128.67,128.67,0,0,1,463.07,269a164.8,164.8,0,0,1-14.8,24.14,278,278,0,0,1-20.63,24.74,167,167,0,0,1-17.5,16.94,82,82,0,0,1-9.74,6.85C399.31,342.75,389.18,352.15,363.36,352.15Zm-.19-321.86a104.09,104.09,0,0,0-29.36,4.12A116.42,116.42,0,0,0,308,45.59c-1.15.67-2.39,1.42-3.92,2.37-14.13,8.85-24.34,19.18-30.35,30.68-4.17,8-6.5,16.86-8.39,25.27-5.85,25.9-8.6,52.46-10.35,72.7-.9,10.44-1.66,21-2.37,30.83a112.78,112.78,0,0,0,1.88,28.62,125.91,125.91,0,0,0,10.65,32.17,163,163,0,0,0,14.79,24h0a280.58,280.58,0,0,0,20.36,24.44c9.18,10,17.29,17.8,27,23.55l.18.14c.09.11,9.88,10.07,35.91,10.07s35.81-10,35.91-10.07a.86.86,0,0,1,.18-.14,79.22,79.22,0,0,0,9.64-6.78,164.45,164.45,0,0,0,17.32-16.77,276.52,276.52,0,0,0,20.51-24.59,163.23,163.23,0,0,0,14.65-23.9A126.13,126.13,0,0,0,472.24,236a111.35,111.35,0,0,0,1.87-28.54l0-.37c-.82-11.28-1.66-22.94-2.7-34.39-2.48-27.91-5.56-49.12-10-68.77-1.89-8.38-4.21-17.24-8.4-25.27a73,73,0,0,0-18.48-22.15A108.89,108.89,0,0,0,422.63,48,124.34,124.34,0,0,0,403,37.9c-1.28-.51-2.65-1-4-1.51a104.35,104.35,0,0,0-28-5.85C368.35,30.37,365.76,30.28,363.17,30.29Z"/><path class="cls-9" d="M254.15,177.37a.83.83,0,0,1-.67-.33c-2.88-3.86-6.21-8.35-9.12-12.87-7.46-11.62-10.83-21.46-10.93-31.9-.07-7.56,1.92-14.91,3.78-21.21,7.36-24.81,16.9-44,29.17-58.58,6.49-7.7,12.48-12.29,18.87-14.43.46-.16.91-.29,1.37-.43,7.51-2.09,17.15-1.39,21.69,6.84A.85.85,0,0,1,308,45.6a.84.84,0,0,1-1.14-.33c-4.07-7.38-12.87-8-19.76-6-.43.13-.86.26-1.3.41-6.08,2-11.84,6.46-18.12,13.92C255.54,68,246.11,87,238.82,111.53c-1.83,6.19-3.78,13.4-3.72,20.73.1,10.1,3.39,19.67,10.67,31,2.88,4.48,6.18,8.94,9,12.77a.83.83,0,0,1-.17,1.17A.78.78,0,0,1,254.15,177.37Z"/><path class="cls-9" d="M285.52,39.68h-.07a.84.84,0,0,1-.77-.9c.6-7.6,6.8-14.42,12.3-17.55a32.35,32.35,0,0,1,13.56-4.46,22.9,22.9,0,0,1,6.38.4,19.06,19.06,0,0,1,7.44,3.31c3,2.25,5.15,5.35,7.23,8.34l.83,1.21c.54.77.94,1.36,1.67,2.44a.84.84,0,0,1-.22,1.16.83.83,0,0,1-1.16-.23L331.05,31l-.84-1.2c-2-2.89-4.08-5.88-6.85-8a17.31,17.31,0,0,0-6.79-3,21.06,21.06,0,0,0-5.91-.37,30.72,30.72,0,0,0-12.85,4.24c-5.3,3-10.93,9.56-11.46,16.23A.84.84,0,0,1,285.52,39.68Z"/><path class="cls-9" d="M371.07,30a.84.84,0,0,1-.74-.44c-4.22-8-8.29-15-15.41-20.36a17.84,17.84,0,0,0-4.43-1.85l-1.43-.47a18.25,18.25,0,0,0-7-.8c-10.2.43-19.65,5.19-24.66,12.42l-.1.12a.86.86,0,0,1-.6.25.84.84,0,0,1-.84-.83.85.85,0,0,1,.2-.54C321.39,9.84,331.32,4.83,342,4.38a20.07,20.07,0,0,1,7.59.88l1.4.47a18.42,18.42,0,0,1,4.92,2.1c7.4,5.53,11.57,12.74,15.88,20.91a.84.84,0,0,1-.35,1.14A.89.89,0,0,1,371.07,30Z"/><path class="cls-9" d="M403.47,37.52a.83.83,0,0,1-.82-.73c-.87-6.45-1.68-12.55-4.51-19.16a33.56,33.56,0,0,0-4-6.9,22.36,22.36,0,0,0-9.67-7.54c-4.16-1.59-8.71-1.63-13-1.44-6.82.32-12.26,2.88-15.33,7.23a.84.84,0,0,1-1.17.2.82.82,0,0,1-.2-1.16C358.11,3.24,364,.42,371.37.08c4.47-.2,9.23-.15,13.67,1.54a24.1,24.1,0,0,1,10.41,8.09A35.39,35.39,0,0,1,399.67,17c2.93,6.82,3.76,13,4.63,19.6a.83.83,0,0,1-.72.94Z"/><path class="cls-9" d="M435,56.68h-.16a.84.84,0,0,1-.66-1,41.28,41.28,0,0,0,.3-11.67l-.13-2.15c-.27-4.69-.63-9.25-2.08-13.54a28.57,28.57,0,0,0-14.58-16.1C411.61,9.34,403.12,8.89,395,11a.84.84,0,1,1-.42-1.62c8.48-2.23,17.4-1.75,23.86,1.31a29.81,29.81,0,0,1,15.45,17.07c1.52,4.49,1.89,9.18,2.17,14l.13,2.13a42.56,42.56,0,0,1-.33,12.1A.83.83,0,0,1,435,56.68Z"/><path class="cls-9" d="M472.18,173.49a.81.81,0,0,1-.59-.25.82.82,0,0,1-.09-1.08l.09-.12c1.73-1.92,3.39-3.95,4.94-6a.82.82,0,0,1,1.17-.18.83.83,0,0,1,.17,1.17c-1.57,2.12-3.25,4.18-5,6.13a.58.58,0,0,1-.1.12A.81.81,0,0,1,472.18,173.49Z"/><path class="cls-9" d="M477.22,167.3a.9.9,0,0,1-.5-.16.84.84,0,0,1-.18-1.17c11.25-15.41,14.64-32.56,10.37-52.44C483,95.29,471.46,76.18,461.28,59.32c-2.43-4-4.73-7.85-6.91-11.61-1.1-1.9-2.46-4.26-4.53-5.51-3.88-2.34-9-.31-13.48,2a.84.84,0,1,1-.76-1.49c4.9-2.5,10.53-4.67,15.1-1.91,2.44,1.46,3.92,4,5.12,6.11,2.17,3.74,4.46,7.54,6.9,11.57,10.24,17,21.85,36.21,25.83,54.73,4.37,20.37.89,38-10.66,53.77A.82.82,0,0,1,477.22,167.3Z"/><path class="cls-9" d="M253.66,237.05a.87.87,0,0,1-.48-.15c-6.13-4.38-15.07-17.94-16.78-25.45-.86-3.74-1.75-6.85-2.6-9.85-2.06-7.21-3.68-12.91-3.21-21.93.24-4.64.62-8.76,2.83-12.3,2.32-3.74,7.5-6.26,11.53-4.05a.83.83,0,1,1-.81,1.46c-3.19-1.75-7.38.39-9.3,3.48s-2.35,7.1-2.58,11.5c-.46,8.74,1.13,14.32,3.15,21.38.82,2.88,1.75,6.15,2.62,9.94,1.62,7.08,10.36,20.33,16.12,24.46a.83.83,0,0,1,.2,1.16A.86.86,0,0,1,253.66,237.05Z"/><path class="cls-9" d="M473.52,237.05a.83.83,0,0,1-.49-1.51c5.77-4.13,14.51-17.38,16.12-24.46.87-3.79,1.8-7.06,2.63-9.94,2-7.06,3.6-12.64,3.14-21.38-.21-3.8-.46-8.1-2.58-11.5-1.72-2.77-3.72-4.34-6-4.69-2.52-.38-5.38.77-8.53,3.45l-.06.06a.83.83,0,0,1-1.43-.59.86.86,0,0,1,.21-.56l.1-.11c3.57-3.06,6.91-4.37,10-3.9,2.75.42,5.15,2.26,7.13,5.45,2.35,3.76,2.62,8.5,2.84,12.3.47,9-1.16,14.72-3.22,21.93-.85,3-1.74,6.11-2.59,9.85C489.07,219,480.13,232.52,474,236.9A.83.83,0,0,1,473.52,237.05Z"/><path class="cls-9" d="M360.32,491.71l-1.62-.42a47.42,47.42,0,0,1,2.57-7.26l.2-.45A63.72,63.72,0,0,1,368.34,472c7.48-10.16,18.78-20.2,33.59-29.85,28.31-18.43,58.67-30.05,92.83-35.54,14.12-2.26,23.06-3.07,27.33-2.47l-.11.77v.89h-.14c-4-.56-13.06.27-26.83,2.48-33.91,5.44-64.07,17-92.18,35.29C388.2,453.1,377.05,463,369.69,473A62.24,62.24,0,0,0,363,484.27l-.2.44A45.48,45.48,0,0,0,360.32,491.71Z"/><path class="cls-9" d="M358.84,501.28l-1.68,0a31.17,31.17,0,0,1,1.55-10l1.6.48A42.51,42.51,0,0,0,358.84,501.28Z"/><path class="cls-9" d="M360.3,491.76l-1.59-.52a35.2,35.2,0,0,1,3-6.68l1.45.83A33.47,33.47,0,0,0,360.3,491.76Z"/><path class="cls-9" d="M363.18,485.35l-1.47-.8c.16-.3.32-.57.49-.84a50.36,50.36,0,0,1,5.25-7.09c6-6.86,13.8-12.76,21.33-18.46l2.37-1.8c13.67-10.38,34.09-20.6,56-28a297.58,297.58,0,0,1,33.21-9.21,234.56,234.56,0,0,1,44.26-5.39c-1.1-2.85-2.25-5.68-3.43-8.43a252.86,252.86,0,0,0-35.7-59.23c-4.34-5.38-9.74-10.3-15-15.05-11.76-10.7-23.91-21.76-23.61-38.3l1.68,0c-.3,15.78,11,26.1,23.06,37,5.27,4.8,10.72,9.75,15.15,15.24A251,251,0,0,1,508,375.63a247,247,0,0,1,14.71,29c1.34,3.12,2.64,6.35,3.88,9.6l.42,1.12h-1.19a232.15,232.15,0,0,0-45.13,5.37,294.28,294.28,0,0,0-33,9.17c-21.76,7.37-42,17.5-55.54,27.77l-2.37,1.81c-7.47,5.65-15.18,11.49-21.08,18.23a49.56,49.56,0,0,0-5.09,6.86C363.46,484.85,363.32,485.1,363.18,485.35Z"/><path class="cls-9" d="M446.67,373.76l-.05-1.33q-.3-7.32-.62-14.65l-.25-5.81c-.77-18.58.12-37.19,1.06-56.88l.11-2.39,1.68.08-.12,2.39c-.94,19.66-1.83,38.23-1.06,56.73l.26,5.81q.31,7.32.61,14.65l0,1.33Z"/><path class="cls-9" d="M369.76,472.89l-1.49-.77c3.45-6.65,8.59-14.19,15.72-23.07,8.84-11,19.26-22.22,29.34-33.07l2.22-2.39,1.22,1.14-2.21,2.39c-10.06,10.83-20.46,22-29.26,33C378.24,458.89,373.15,466.34,369.76,472.89Z"/><path class="cls-9" d="M416.77,414.72l-1.22-1.15c8.35-9,16.33-17.65,22.28-25.15,3.75-4.71,7.26-9.39,9.1-14.88l.05-.11c1.81-5.47,1.48-11.17-.87-15.27a12.38,12.38,0,0,0-.77-1.22l1.36-1a12.59,12.59,0,0,1,.87,1.37c2.62,4.56,3,10.62,1,16.6l0,.11c-1.94,5.77-5.7,10.77-9.39,15.41C433.16,397,425.15,405.71,416.77,414.72Z"/><path class="cls-9" d="M239.07,411.66c-11.24-1.82-29.31-3.14-33.92-2.48l-.24-1.65c5.21-.75,23.81.76,34.43,2.48Z"/><path class="cls-9" d="M361.77,485.46a4.17,4.17,0,0,1-.26-.37l-.15-.23-.4-.67,1.45-.84.35.6.15.22.2.29.16.22V485h-.85Z"/><path class="cls-9" d="M361,484.2c-.62-1-1.11-2-1.58-2.91a18.65,18.65,0,0,0-4.12-5.89l1.12-1.24a20,20,0,0,1,4.48,6.36c.47.9.95,1.84,1.54,2.82Z"/><path class="cls-9" d="M232.56,421.08a265.74,265.74,0,0,0-31.39-2.33l-1.2,0,.43-1.11c1.31-3.45,2.57-6.59,3.86-9.59a254.88,254.88,0,0,1,36-59.63c4.42-5.48,9.87-10.44,15.14-15.23,12-10.94,23.36-21.27,23.07-37.05l1.67,0c.31,16.53-11.85,27.61-23.62,38.31-5.22,4.76-10.61,9.67-15,15.05a253.13,253.13,0,0,0-35.71,59.23c-1.14,2.66-2.26,5.43-3.41,8.42a264.46,264.46,0,0,1,30.41,2.33Z"/><path class="cls-9" d="M280.47,373.79l-1.67-.1.06-.88c.18-4.62.31-7.92.5-11.81l.23-5.73c.76-18.46-.13-40.2-1-59.13l-.15-3.33,1.67-.08.15,3.33c.9,19,1.79,40.75,1,59.27l-.23,5.74c-.19,3.89-.32,7.19-.5,11.82Z"/><path class="cls-9" d="M278.6,374c0-.11-.07-.21-.1-.31l-.08-.25c-1.54-4.81-1.81-8.26,1.06-12.83q.33-.55.84-1.26l1.35,1c-.3.42-.55.8-.76,1.15-2.29,3.64-2.51,6.41-.91,11.43a2.83,2.83,0,0,1,.09.27l.09.25Z"/><path class="cls-9" d="M369.82,428.2a38.67,38.67,0,0,1-19.64-22l1.58-.55a37,37,0,0,0,18.79,21.06Z"/><path class="cls-9" d="M359.21,521.8l-.77-.24-3.2-1a136.92,136.92,0,0,1-15.46-6.3l-1.1-.52.89-.84c4.61-4.35,9-8.74,13-13a9,9,0,0,0,2.44-3.6,9.27,9.27,0,0,0-.11-3.73,13.63,13.63,0,0,1-.27-3.33,6.82,6.82,0,0,1,2.5-5.17,6,6,0,0,1,4.65-1.08l.09,0a3.79,3.79,0,0,1,.64.17,3.28,3.28,0,0,1,.79.28,6.46,6.46,0,0,1,3.29,3.26,7.32,7.32,0,0,1,.6,3.81,11.22,11.22,0,0,1-1.39,4.21c-.22.43-.46.86-.69,1.28a23,23,0,0,0-1.45,3,21.37,21.37,0,0,0-1,6l-.09,1.27A60,60,0,0,1,359.48,521Zm-17.6-8.55a135.14,135.14,0,0,0,14.17,5.69c.78.27,1.58.52,2.38.77a58.5,58.5,0,0,0,2.72-13.64l.09-1.25a23.16,23.16,0,0,1,1.08-6.5,23.72,23.72,0,0,1,1.55-3.16c.23-.42.46-.83.67-1.25a9.7,9.7,0,0,0,1.22-3.58,5.71,5.71,0,0,0-.46-3,4.84,4.84,0,0,0-2.46-2.44,2.1,2.1,0,0,0-.51-.18l-.11,0a1.69,1.69,0,0,0-.35-.1l-.09,0a4.3,4.3,0,0,0-3.4.75,5.26,5.26,0,0,0-1.85,4,12.44,12.44,0,0,0,.25,2.93,8.18,8.18,0,0,1-2.76,8.75C350,505,345.92,509.14,341.61,513.25Z"/><path class="cls-9" d="M371.66,1183.44c-2.75-20.9.5-42.18,3.65-62.75,1-6.69,2.08-13.61,2.91-20.41,2-16.35,2.28-28.84.89-40.5-1.7-14.32-6.2-28.36-10.56-41.94-1.81-5.66-3.69-11.52-5.35-17.33-3.71-13-5.55-20.49-7.3-32.87l0-.2c-.05-.35-.09-.71-.15-1.07l1.66-.26c.06.38.1.76.15,1.13l0,.19c1.74,12.26,3.56,19.66,7.25,32.62,1.65,5.78,3.52,11.63,5.34,17.28,4.37,13.65,8.9,27.77,10.62,42.25,1.4,11.8,1.13,24.41-.88,40.91-.84,6.82-1.9,13.75-2.93,20.45-3.12,20.46-6.36,41.61-3.63,62.28Z"/><path class="cls-9" d="M369.43,794l-1.63-.37c4.05-17.69,6.57-30.51,4.8-47-1.33-12.39-5.57-24.42-9.68-36.05a242.28,242.28,0,0,1-7.78-24.86c-4.63-19.87-4.06-40.54-3.52-60.53.47-16.73,1-33.75,1.47-50.8.54-18.27,1.08-36.59,1.58-54.63l1.67,0c-.5,18-1,36.36-1.57,54.63-.5,17.05-1,34.07-1.47,50.8-.55,19.88-1.11,40.44,3.47,60.1A237,237,0,0,0,364.5,710c4.13,11.72,8.41,23.84,9.76,36.43C376.07,763.15,373.52,776.1,369.43,794Z"/><path class="cls-9" d="M380.15,1183.44c-2.74-20.9.51-42.18,3.65-62.77.92-6,1.87-12.27,2.66-18.4,1.49-11.67,3-27,1.14-42.49-1.71-14.33-6.21-28.37-10.56-41.95-1.82-5.66-3.7-11.51-5.35-17.32-.71-2.5-1.33-4.64-1.88-6.54-3-10.32-3.88-13.43-5.76-25.44h0l0-.13,1.63-.41a1.52,1.52,0,0,1,0,.21c1.88,12,2.69,14.8,5.73,25.3.55,1.9,1.17,4,1.88,6.55,1.65,5.78,3.52,11.62,5.33,17.27,4.38,13.66,8.91,27.78,10.63,42.26,1.86,15.63.37,31.14-1.14,42.9-.79,6.15-1.74,12.4-2.67,18.45-3.12,20.46-6.35,41.63-3.64,62.29Z"/><path class="cls-9" d="M377,795.22l-1.63-.37c.71-3.12,1.39-6,2-8.66,3.31-13.82,5.5-23,3.72-39.62-1.33-12.38-5.58-24.41-9.69-36a242.23,242.23,0,0,1-7.77-24.86c-4.63-19.87-4.07-40.54-3.52-60.53.48-17.11,1.26-41.17,2-64.44.78-24,1.58-48.77,2.07-66.43l1.67.05c-.49,17.66-1.29,42.46-2.06,66.44-.75,23.26-1.53,47.32-2,64.43-.54,19.88-1.1,40.44,3.48,60.1A239.38,239.38,0,0,0,373,710c4.14,11.72,8.42,23.84,9.77,36.43,1.82,17-.4,26.19-3.76,40.18C378.35,789.25,377.67,792.1,377,795.22Z"/><path class="cls-9" d="M366.63,487.12l-1.66-.24a85.22,85.22,0,0,1,2.31-9.95l.14-.44c.06-.2.12-.39.19-.56l1.57.56L369,477l-.14.44A83.62,83.62,0,0,0,366.63,487.12Z"/><path class="cls-9" d="M519.37,776.28c-19.78,0-39.66-2.85-65.2-9.27-3-.74-6.15-1.66-8.28-4s-2.72-5.41-3.23-8.66a614.15,614.15,0,0,1-7.84-93.2,436.88,436.88,0,0,1,3.32-56.66l.16-1.23,1.08.61c22.35,12.49,50.35,18.94,81,18.74.78,0,1.52,0,2.27,0a257.27,257.27,0,0,0,47.49-5l.32,1.65a259.63,259.63,0,0,1-47.78,5.07c-.75,0-1.51,0-2.29,0-30.48.25-58.36-6.11-80.78-18.35a435.78,435.78,0,0,0-3.15,55.22,611.08,611.08,0,0,0,7.82,93c.46,3,1,5.82,2.8,7.78s4.68,2.82,7.45,3.5c27.74,7,48.74,9.72,70.21,9.15,16.69-.41,34.37-3,54.05-7.81l.4,1.62c-19.8,4.88-37.59,7.45-54.41,7.86C523,776.26,521.18,776.28,519.37,776.28Z"/><path class="cls-9" d="M516.19,680.68c-49,0-79.33-17.82-81-18.8l-.18-.14.63-.62.41-.67c2.11,1.27,52.48,30.88,129.52,12.65l.39,1.63A215.77,215.77,0,0,1,516.19,680.68Z"/><path class="cls-9" d="M360.44,456c-11.22,0-18-3.79-18.44-4l.84-1.45c.16.09,16.91,9.41,41.46-1.7l.69,1.53A59.35,59.35,0,0,1,360.44,456Z"/><path class="cls-9" d="M623.67,469.87c-9.68-3.38-20.58-6.26-32.12-9.31-14.57-3.85-29.65-7.83-42.94-13.07q-6.11-2.37-12.3-4.82l-22.39-8.76c-11.34-4.43-22.67-8.86-33.68-13.2l.61-1.55c11,4.33,22.34,8.76,33.68,13.19l22.39,8.77,12.3,4.82c13.2,5.19,28.23,9.16,42.76,13,11.57,3.06,22.5,5.95,32.24,9.35Z"/><path class="cls-9" d="M523.54,623.5l-1.67-.16c5.73-59.58,10.54-122.34,13.91-181.49l.05-.81,1.67.1,0,.81C534.08,501.12,529.27,563.9,523.54,623.5Z"/><path class="cls-9" d="M517.42,1175.15l-1.48-.78c34-65.15,44-130.45,30-194.09l0-.11a.72.72,0,0,1,0-.17h.84l.82-.16v.08h0C561.71,1044,551.57,1109.64,517.42,1175.15Z"/><path class="cls-9" d="M524.21,803.28c0-5.16-.08-9.33-.12-13.18-.05-4.94-.09-9.36-.13-14.72v-.11h1.68v.1c0,5.35.08,9.77.12,14.72,0,3.85.08,8,.13,13.18Z"/><path class="cls-9" d="M274.18,767l-.4-1.62c2.77-.68,5.63-1.51,7.45-3.5s2.32-4.68,2.82-7.79l1.3-18.27L287,736l-1.31,18.34c-.42,2.68-1,6.25-3.24,8.73S277.2,766.27,274.18,767Z"/><path class="cls-9" d="M142,461.42l-.48-1.6c11.74-3.56,20-6.84,30.36-11l7.28-2.89,12.3-4.84,18.42-7.24,18.25-7.19.62,1.56-.5.2-17.76,7L192,442.66l-12.3,4.83-7.27,2.89C162,454.55,153.78,457.84,142,461.42Z"/><path class="cls-9" d="M209.51,1174.9c-31.69-60.76-41.67-137.44-26.71-205.13,2.65-11.93,4.49-16.54,6.44-21.42a139.11,139.11,0,0,0,6.44-19.94l1.62.41A142.09,142.09,0,0,1,190.79,949c-1.92,4.81-3.74,9.36-6.35,21.15-14.89,67.32-5,143.58,26.55,204Z"/><path class="cls-9" d="M17.08,505.21l-.75-1.5.74-.39c8.28-26.17,21.32-58.06,48.8-73.42,11.27-6.31,24-9.21,37.05-11.86l3.83-.77,6.67-1.36a370.63,370.63,0,0,0,108.26-41.19l.36-.2.82,1.46-.34.2a372.41,372.41,0,0,1-108.75,41.36c-2.22.47-4.45.92-6.69,1.37l-3.83.78c-13,2.61-25.5,5.48-36.56,11.67-27.08,15.13-39.95,46.85-48.13,72.8l-.11.33Z"/><path class="cls-9" d="M135.39,1171.32l-.13-.3a39.17,39.17,0,0,1-13.51-11.82,40.76,40.76,0,0,1-7.27-17.62,37,37,0,0,1-.38-8c.09-1.47.27-2.95.43-4.39.4-3.41.78-6.62.18-9.81-.73-3.94-2.94-7.52-5-10.57-3.32-5-7.08-10-10.71-14.79-10.35-13.72-21.05-27.9-23.54-45-.75-5.1-1.68-10.13-2.57-15-2.6-14.11-5.05-27.45-3.3-42.07l.05-.46,1.67.19,0,.46c-1.73,14.38.7,27.59,3.28,41.58.89,4.88,1.82,9.92,2.57,15,2.43,16.66,13,30.67,23.23,44.22,3.64,4.83,7.41,9.82,10.77,14.87,2.11,3.19,4.42,6.95,5.21,11.19.64,3.44.23,6.93-.16,10.32-.17,1.41-.34,2.87-.43,4.29a35.69,35.69,0,0,0,.36,7.61,39,39,0,0,0,7,16.89,37.3,37.3,0,0,0,13.18,11.44l.26.14.37.84Z"/><path class="cls-9" d="M640,1287.63H89.54l0-2.11c3.16-10,4.5-20.55,5.79-30.79.76-6,1.54-12.16,2.67-18.18,1.19-6.34,2.82-12.68,4.4-18.82l.17-.65q2.52-9.82,5-19.61l.93-3.65c2.24-8.66,7.47-28.93,13.22-35.65l.65.52.59.6h0c-5.45,6.38-10.8,27.12-12.81,34.93l-.94,3.65-5,19.62-.17.64c-1.57,6.11-3.19,12.44-4.37,18.72-1.13,6-1.9,12.13-2.66,18.08-1.3,10.27-2.64,20.9-5.81,31v.06H638.27v-.06c-3.17-10.06-4.51-20.68-5.81-31-.75-6-1.53-12.11-2.66-18.08-1.21-6.49-2.89-13-4.51-19.33-1.88-7.27-3.74-14.49-5.59-21.71l-.41-1.59a115.88,115.88,0,0,0-3.56-12,37.11,37.11,0,0,0-6.36-11.32l1.27-1.08a38.49,38.49,0,0,1,6.66,11.81,117.3,117.3,0,0,1,3.61,12.14l.41,1.59q2.77,10.81,5.58,21.67c1.64,6.37,3.32,12.93,4.55,19.47,1.13,6,1.91,12.2,2.67,18.18,1.29,10.24,2.63,20.83,5.79,30.79l0,.26Z"/><path class="cls-9" d="M420.21,1191.26a94.88,94.88,0,0,1-29.51-4.2l-2.1-.71a39.34,39.34,0,0,0-7.73-2.09c-.47,0-.92-.1-1.37-.11a20.94,20.94,0,0,0-6.55.84c-2.21.59-4.44,1.44-6.59,2.25-1.81.69-3.67,1.4-5.54,2-14,4.26-28.56.74-42.64-2.67-10.34-2.5-21-5.07-31.51-4.64a112.75,112.75,0,0,0-16.67,2.42c-6.5,1.29-13.23,2.61-20,2.48-11.33-.21-22-4.44-32.4-8.53-2.51-1-5.1-2-7.66-3-3.76-1.38-6.66-2.34-9.41-3.1-8.83-2.48-18.14-3.54-27.14-4.56-6.45-.73-13.11-1.49-19.59-2.76-20-3.9-32.46-11.21-39.23-23L116,1141c6.51,11.33,18.61,18.38,38.1,22.19,6.41,1.26,13.05,2,19.46,2.74,9.07,1,18.44,2.09,27.4,4.6,2.79.78,5.73,1.75,9.54,3.16,2.58,1,5.18,2,7.69,3,10.22,4,20.8,8.21,31.82,8.42,6.55.12,13.21-1.18,19.63-2.45a112.16,112.16,0,0,1,16.92-2.45c10.72-.46,21.52,2.16,32,4.69,14.5,3.5,28.2,6.81,41.77,2.69,1.81-.55,3.65-1.25,5.42-1.92a69.66,69.66,0,0,1,6.75-2.3,22.35,22.35,0,0,1,7.05-.9c.48,0,1,.06,1.47.11a41.22,41.22,0,0,1,8.11,2.17c.69.24,1.38.48,2.08.7,20.67,6.75,43.44,3.78,63.53,1.16l37.15-4.82c7.11-.93,15.17-2,21.65-6,.57-.36,1.15-.75,1.72-1.14l.56-.37v-.39h.59a19.08,19.08,0,0,1,3.87-2.1c4.39-1.66,9.11-.72,13.66.2l.45.09a169.26,169.26,0,0,0,72.09-.88c1-.52,2-1.1,2.94-1.72,11.25-7.26,18.27-21,17.46-34.17-.08-1.46-.26-2.95-.43-4.39a34.37,34.37,0,0,1-.16-10.23c.79-4.24,3.11-8,5.22-11.19,3.35-5,7.12-10,10.77-14.87,10.22-13.55,20.79-27.56,23.22-44.22,1.89-12.91-2.15-31.13-5.72-47.19-1.87-8.45-3.64-16.42-4.49-23.16l1.66-.21c.84,6.66,2.6,14.6,4.47,23,3.59,16.21,7.67,34.59,5.74,47.81-2.49,17.08-13.2,31.26-23.55,45-3.63,4.81-7.38,9.78-10.71,14.79-2,3-4.23,6.63-5,10.57-.59,3.16-.22,6.35.18,9.73.17,1.46.35,3,.43,4.48a40.23,40.23,0,0,1-18.22,35.68c-1,.66-2.09,1.29-3.18,1.85l-.2.07a170.65,170.65,0,0,1-72.89.91l-.45-.09c-4.32-.87-8.79-1.77-12.74-.27a17.12,17.12,0,0,0-3.38,1.82h0l-1.29.86c-.59.4-1.18.79-1.78,1.17-6.79,4.18-15,5.25-22.31,6.2L455,1188.28C443.93,1189.72,432.1,1191.26,420.21,1191.26Z"/><path class="cls-9" d="M420.16,1202.25a100.46,100.46,0,0,1-23.47-2.51c-2-.47-4-1-6-1.67l-2.16-.73a33.15,33.15,0,0,0-9.05-2.19c-4.47-.21-8.64,1.39-13.07,3.08-1.83.69-3.71,1.41-5.6,2-.88.28-1.85.53-3,.81-13,2.94-26.52-.32-39.58-3.48-10.35-2.5-21-5.08-31.54-4.64a112,112,0,0,0-16.63,2.42c-6.52,1.28-13.26,2.6-20,2.47-6.19-.12-12.72-1.41-20.57-4.08-3.95-1.34-7.93-2.91-11.77-4.43a179.77,179.77,0,0,0-17.13-6.1c-8.82-2.46-18.11-3.51-27.09-4.53-6.46-.73-13.15-1.49-19.64-2.77-3.74-.73-13-2.66-18.22-4.69l.61-1.56c5.08,2,14.23,3.89,17.93,4.61,6.43,1.26,13.08,2,19.51,2.75,9,1,18.4,2.08,27.35,4.58a177.29,177.29,0,0,1,17.29,6.15c3.83,1.52,7.78,3.08,11.69,4.41,7.69,2.61,14.06,3.87,20.07,4,6.6.15,13.23-1.18,19.66-2.44a111.77,111.77,0,0,1,16.89-2.45c10.73-.47,21.54,2.16,32,4.68,13.47,3.26,26.19,6.33,38.81,3.47,1.14-.26,2.07-.51,2.92-.77,1.84-.55,3.7-1.26,5.49-1.95,4.39-1.67,8.94-3.41,13.74-3.19a34.59,34.59,0,0,1,9.52,2.29l2.13.72c1.94.62,3.91,1.18,5.86,1.63,18.93,4.54,39.52,1.87,57.68-.48l37.15-4.82c6.25-.81,13.33-1.74,19.31-4.67.84-.42,1.61-.84,2.34-1.29s1.23-.8,1.85-1.22a23.26,23.26,0,0,1,4.89-2.78c4.4-1.67,9.11-.73,13.66.19l.45.09a182.65,182.65,0,0,0,37.3,3,220.57,220.57,0,0,0,44.63-5l.37,1.63a221.86,221.86,0,0,1-45,5,184.67,184.67,0,0,1-37.65-3l-.45-.09c-4.32-.87-8.79-1.77-12.74-.27a22.42,22.42,0,0,0-4.54,2.61c-.63.42-1.27.85-1.91,1.25a27.61,27.61,0,0,1-2.48,1.37c-6.23,3.06-13.45,4-19.83,4.83L455,1199.29C444,1200.71,432.07,1202.25,420.16,1202.25Z"/><path class="cls-9" d="M167.82,1112.72l-2.35-1.82c-9.54-7.38-19.08-15.17-28.35-23.15-10.28-8.84-21.92-19.33-30-32.09-12-18.88-16.08-42.05-19.67-62.5l1.65-.29c3.56,20.3,7.6,43.3,19.43,61.89,8,12.57,19.54,23,29.72,31.72,8.46,7.28,17.14,14.4,25.84,21.19-4.27-10-10.48-19.27-16.5-28.24-4-6-8.22-12.23-11.79-18.66a132.1,132.1,0,0,1-16.14-53.87l1.67-.12A130.42,130.42,0,0,0,137.22,1060c3.54,6.36,7.7,12.55,11.72,18.54,6.64,9.89,13.51,20.12,17.82,31.44Z"/><path class="cls-9" d="M540.5,1159.49l-.54-1.59a178.15,178.15,0,0,0,42.91-21.44c28.4-19.22,51.48-46.71,65-77.4l1.53.67c-13.64,31-36.93,58.72-65.59,78.12A180.55,180.55,0,0,1,540.5,1159.49Z"/><path class="cls-9" d="M473.44,1111.37c-28.59,0-58-1.8-86.33-8.18-.18,0-.42-.08-.66-.13-2.52-.57-5.08-1.2-7.61-1.87-49.27-12.88-88.54-39.37-110.57-74.57l1.42-.89c21.8,34.84,60.72,61.07,109.58,73.84,2.51.67,5.05,1.29,7.55,1.85.2,0,.4.1.6.13,47.4,10.67,97.87,8.47,142.4,6.53l.07,1.67C511.85,1110.54,492.83,1111.37,473.44,1111.37Z"/><path class="cls-9" d="M197.88,1287.5l-.9-1.41c21.41-13.83,41.05-45.54,31.91-93l1.65-.32c3.58,18.61,2.81,37-2.22,53.3C222.81,1263.87,212.29,1278.2,197.88,1287.5Z"/><path class="cls-9" d="M226,1287.37l-1.22-1.14c21.84-23.39,30-53.38,24.41-89.15l1.65-.26C256.59,1233.13,248.23,1263.59,226,1287.37Z"/><path class="cls-9" d="M563.47,1287.6l-.21-.13c-14.24-9.28-25-25.56-30.32-45.8-4.92-18.81-4.74-39.93.49-58l1.61.46c-12.68,43.63,4.88,86.08,29.18,101.92l-.36.76.45-.7.15.1Z"/><path class="cls-9" d="M533.71,1287.37c-23.67-25.36-32.24-62.25-22.94-98.69l1.62.41c-9.16,35.89-.73,72.2,22.54,97.14Z"/><path class="cls-9" d="M181.05,1225.44a4.41,4.41,0,0,1-3.07-1.23c-2.1-1.92-2.84-5.63-2.84-8.46a140.89,140.89,0,0,1,1.78-22l1.65.27a141.1,141.1,0,0,0-1.76,21.74c0,2.54.71,5.77,2.3,7.23a2.82,2.82,0,0,0,2.23.77c1.68-.14,3-1.77,4-3.17a52,52,0,0,0,7.46-16.34l1.62.42a53.58,53.58,0,0,1-7.71,16.87c-1.18,1.71-2.84,3.69-5.22,3.89Z"/><path class="cls-9" d="M276.48,1221.09a2.32,2.32,0,0,1-2-.95,3.62,3.62,0,0,1-.15-3.05l2-7,2-7,1.61.47-2,6.95q-1,3.48-2,7c-.16.59-.32,1.25-.07,1.62s1.61.09,2.37-.4a24.31,24.31,0,0,0,9.92-13.4l1.61.46a26,26,0,0,1-10.62,14.34A5.25,5.25,0,0,1,276.48,1221.09Z"/><path class="cls-9" d="M474.65,1235.57l-.86-.17a29.55,29.55,0,0,1-22.89-24.49l1.66-.22a27.87,27.87,0,0,0,20.7,22.88,94.37,94.37,0,0,0-1.15-33.21l1.64-.35a95.91,95.91,0,0,1,1,34.69Z"/><path class="cls-9" d="M586.65,1212.7l-1.56-2.33a45.39,45.39,0,0,0-14-13.42l.87-1.43A46.89,46.89,0,0,1,584.76,1207a26.15,26.15,0,0,0-4.22-11.39l1.39-.94a27.88,27.88,0,0,1,4.69,15.19Z"/><polygon class="cls-9" points="358.27 1286.8 356.6 1286.8 356.76 1200.2 358.44 1200.18 358.44 1200.2 358.27 1286.8"/><rect class="cls-9" x="352.86" y="1242.03" width="87.87" height="1.67" transform="translate(-846.99 1636.76) rotate(-89.87)"/><path class="cls-9" d="M291,1168.3a40.7,40.7,0,0,1-9.28-26.28,23.26,23.26,0,0,0-7.9,21.08l-1.65.26a24.9,24.9,0,0,1,10-23.78l1.43-1-.11,1.75a39,39,0,0,0,8.83,26.91Z"/><path class="cls-9" d="M451.48,1173l-.51-1.59c4.06-1.32,7.11-4.74,10.07-8.05.51-.58,1-1.15,1.54-1.71,4.93-5.38,9.74-7.76,14.27-7.1l.79.12L476,1172.13l-1.67-.16,1.53-15.86c-3.74-.19-7.78,2-12,6.65-.51.55-1,1.12-1.52,1.69C459.19,1167.93,456,1171.52,451.48,1173Z"/><path class="cls-9" d="M186.7,579.25l-.1,0c-6.47-2.66-11.19-9.12-12.29-16.83a20.93,20.93,0,0,1,30.62-21.62c.42.22.73.38,1,.5a6.84,6.84,0,0,1,2.25,1.6l.08.08-1.19,1.18L207,544a5.23,5.23,0,0,0-1.79-1.27l-1-.52A19.25,19.25,0,0,0,176,562.13c1,7.13,5.35,13.09,11.32,15.55l.15.07Z"/><path class="cls-9" d="M195.1,570.9a11.37,11.37,0,1,1,10.08-6.09h0A11.36,11.36,0,0,1,195.1,570.9Zm0-21.07A9.7,9.7,0,1,0,203.7,564h0a9.71,9.71,0,0,0-8.59-14.21Z"/><path class="cls-9" d="M207.45,542.15a.84.84,0,0,1-.83-.76c-1.58-17.61-4.73-32.84-7.79-47.57-3.49-16.84-6.79-32.75-7.93-51.89,0-.08,0-.19,0-.3s0-.17,0-.25a.84.84,0,0,1,1.67-.15c0,.11,0,.22,0,.33s0,.16,0,.24c1.13,19.05,4.42,34.9,7.9,51.68,3.07,14.77,6.23,30,7.82,47.76a.83.83,0,0,1-.76.9Z"/><path class="cls-9" d="M207.65,544.36a.84.84,0,0,1-.83-.76l-.09-1.09-.09-1.07a.83.83,0,0,1,.75-.91.81.81,0,0,1,.91.75c0,.37.07.73.1,1.09l.09,1.07a.84.84,0,0,1-.76.91Z"/><path class="cls-9" d="M680,877.65c-12.17-18.82-26-40.15-45.51-54.06-14-10-31.52-16.57-52-19.49a183,183,0,0,0-25.77-1.71,292.3,292.3,0,0,0-31.59,1.92c-9.51,1-19.16,2.34-28.5,3.63-7.13,1-14.5,2-21.77,2.88-8.41,1-16.58,1.69-24.18-1a56.14,56.14,0,0,1-5.2-2.24,32.51,32.51,0,0,0-8.35-3.05c-4.15-.69-8.25.27-12.6,1.29-3.79.89-7.72,1.81-11.69,1.52-4.27-.31-8.25-2-12.11-3.62l-2-.86c-1.47-.61-3.05-1.22-5-1.93l.58-1.57c1.94.71,3.53,1.34,5,1.95l2.06.86c3.72,1.58,7.58,3.21,11.57,3.5,3.71.27,7.51-.62,11.19-1.48,4.32-1,8.77-2.05,13.26-1.31a34,34,0,0,1,8.78,3.19,54.82,54.82,0,0,0,5,2.17c7.25,2.57,15.22,1.9,23.42.91,7.25-.86,14.62-1.88,21.74-2.87,9.35-1.29,19-2.62,28.55-3.64a298.08,298.08,0,0,1,31.77-1.93,186.07,186.07,0,0,1,26,1.74c20.74,2.95,38.48,9.61,52.74,19.77,19.8,14.1,33.69,35.58,45.94,54.53Z"/><path class="cls-9" d="M600.82,983.34c-18.06,0-36.23-.81-54.14-2.41-3.06-.26-6.3-.58-10.49-1a70,70,0,0,1-14.7-2.7c-1.77-.59-3.52-1.32-5.2-2a41.42,41.42,0,0,0-9-3c-5.33-.87-10.83.42-16.16,1.67-1.5.35-3.05.71-4.57,1-11.54,2.33-23.16,1.93-36.06,1.21-28.4-1.57-57.24-3.88-85.74-6.87-2.73-.28-5.44-.57-8.15-.87-15.47-1.71-30.78-3.59-45.48-5.61a12.43,12.43,0,0,1-10.7-11.14c-.3-3.21-.63-6.4-.95-9.56-1.39-13.83-2.7-26.89-3-40.14-.89-35.92,6.22-63.31,23.8-91.6,2.87-4.64,6-9.29,9.42-13.83l.16-.21.25-.08a86.87,86.87,0,0,1,38.6-3.24c2.37.29,4.86.7,7.59,1.27a120.84,120.84,0,0,1,18,5.14l-.57,1.57A119.49,119.49,0,0,0,376,795.86c-2.69-.56-5.14-1-7.47-1.24a85.11,85.11,0,0,0-37.61,3.07c-3.29,4.43-6.38,9-9.19,13.51-17.39,28-24.43,55.1-23.54,90.67.31,13.18,1.62,26.21,3,40q.48,4.75.95,9.57a10.75,10.75,0,0,0,9.26,9.64c14.69,2,30,3.9,45.43,5.61,2.71.3,5.42.58,8.15.87,28.46,3,57.28,5.3,85.65,6.85,12.79.72,24.29,1.13,35.64-1.17,1.5-.3,3-.67,4.52-1,5.49-1.29,11.16-2.62,16.82-1.69a42.75,42.75,0,0,1,9.33,3.09c1.66.69,3.38,1.41,5.09,2a66.78,66.78,0,0,0,14.35,2.62c4.18.45,7.4.76,10.46,1a605.84,605.84,0,0,0,61.76,2.36c15.79-.2,31.77-1,47.47-2.46,13.08-1.19,26.36-2.84,39.46-4.89,7-1.11,14-2.34,20.84-3.66,7.54-1.46,17.92-4.3,21.07-12.1l1.55.63c-3.45,8.55-14.38,11.58-22.3,13.11-6.88,1.33-13.91,2.56-20.9,3.67-13.14,2.06-26.45,3.71-39.57,4.91-15.75,1.43-31.76,2.26-47.6,2.46C606,983.33,603.42,983.34,600.82,983.34Z"/><path class="cls-9" d="M738.76,961.57l-1.65-.23c.08-.88.17-1.74.27-2.61.72-6.24,1.92-12.49,3.09-18.53,1.26-6.53,2.57-13.27,3.25-20,1.47-14.36.15-29.07-1.12-43.3s-2.61-29.19-1.11-43.75c.64-6.07,1.77-12.16,2.86-18,1-5.53,2.1-11.25,2.73-16.91,1.62-14.25.65-28.68-.28-42.63q-.39-5.77-.77-11.53c-1.1-16.49-2.45-36-4.1-55.79-4.63-55.39-12.07-120.57-32.14-184.12-7.27-23.08-18.49-51.67-40.92-68.15-.7-.53-1.43-1-2.16-1.53-1.73-1.17-3.42-2.21-5-3.12-12.14-6.79-26.19-9.61-39.78-12.33-2.44-.49-4.88-1-7.3-1.49A372.43,372.43,0,0,1,506.9,376.78l-1.41-.8.83-1.46,1.41.81a370.61,370.61,0,0,0,107.2,40.57c2.42.51,4.85,1,7.29,1.49,13.71,2.75,27.9,5.59,40.26,12.51,1.67.93,3.39,2,5.13,3.17.79.54,1.54,1.06,2.26,1.59,22.81,16.76,34.17,45.68,41.52,69,20.12,63.71,27.57,129,32.2,184.49,1.66,19.8,3,39.33,4.11,55.81q.39,5.77.77,11.54c.94,14,1.91,28.53.28,42.92-.65,5.72-1.72,11.47-2.75,17-1.09,5.86-2.22,11.91-2.84,17.91-1.49,14.4-.17,29.16,1.11,43.43s2.6,29.1,1.11,43.62c-.69,6.77-2,13.56-3.27,20.12-1.08,5.58-2.19,11.35-2.91,17.08l.28.07Z"/><path class="cls-9" d="M567.67,693.55l-.85-1.44C608,667.91,658.55,660.93,705.51,673a169.65,169.65,0,0,1,37.64,14.5l-.78,1.48a168.37,168.37,0,0,0-37.27-14.36C658.56,662.66,608.47,669.57,567.67,693.55Z"/><path class="cls-9" d="M575.73,747.67l-.81-1.46c34.34-19.06,80-24.46,128.48-15.22a267.33,267.33,0,0,1,43.75,12.24l-.58,1.56a267.57,267.57,0,0,0-43.48-12.16C655,723.47,609.73,728.81,575.73,747.67Z"/><path class="cls-9" d="M517.54,957.67c-14-32.28-9.83-70.48-6.48-101.18l1.67.18c-3.51,32.09-7.48,68.46,6.34,100.33Z"/><path class="cls-9" d="M412,928.62a325.37,325.37,0,0,1,3.12-65c2-13.74,5.53-29.2,15.86-39.71l1.2,1.17c-10,10.17-13.4,25.31-15.41,38.79a324.23,324.23,0,0,0-3.1,64.67Z"/><path class="cls-9" d="M51.32,998a19.16,19.16,0,0,1-6.81-1.18c-8.26-3.15-12.47-12-15.22-19.32-7.6-20.34-11.16-42.12-14.6-63.17C6.26,862.75-2.46,809.43.64,756.14c.21-3.64.48-7.35.84-11.33,1-11.14,2.32-22.44,3.64-33.36.86-7.08,1.74-14.39,2.5-21.59,1.64-15.6,2.4-27.56,2.48-38.76.06-11.44-.62-23.07-1.28-34.31-.48-8.31-1-16.9-1.18-25.37-.14-6.52-.11-12.92.08-19a359.64,359.64,0,0,1,8.52-67.79l1.63.37a357.89,357.89,0,0,0-8.48,67.48c-.19,6.06-.22,12.42-.08,18.92.2,8.43.7,17,1.19,25.3.66,11.27,1.34,22.93,1.27,34.42-.07,11.26-.84,23.26-2.48,38.93-.77,7.21-1.65,14.53-2.51,21.61C5.46,722.56,4.1,733.84,3.15,745c-.36,4-.63,7.67-.84,11.29-3.09,53.11,5.61,106.33,14,157.8,3.43,21,7,42.67,14.52,62.85,2.62,7,6.61,15.43,14.25,18.34,5.92,2.24,12.45.58,18.07-1.35,1.1-.37,2.18-.77,3.23-1.15l14.29-5.29,38.36-14.17c21.63-8,44-16.27,62.26-31.08a116.28,116.28,0,0,0,14.52-14.12c9.21-10.58,17.28-23.17,25.39-39.64,5.72-11.54,10.69-23.39,15.69-35.52q15.86-38.31,31.65-76.62l1-2.39q1.69-4.06,3.36-8.13,3.16-7.62,6.3-15.23,3.06-7.41,6.13-14.82l.06-.18,14-33.76c3.52-8.54,9.54-17.86,14.85-26.08s10.4-16.08,12-21.67c2.26-7.66-15.74-39.76-31.26-48.58l-.26-.15-.11-.07.83-1.45a4.77,4.77,0,0,1,.44.27c7.18,4.07,15.79,13.59,22.95,25.42,5.09,8.4,10.5,20,9,25-1.71,5.82-6.82,13.73-12.23,22.11-5.53,8.56-11.25,17.41-14.71,25.81l-14,33.79q-3.1,7.49-6.19,15l-6.3,15.23q-1.67,4.07-3.36,8.13l-1,2.39q-15.81,38.31-31.65,76.62c-5,12.16-10,24-15.74,35.62-8.17,16.6-16.32,29.31-25.62,40a117.66,117.66,0,0,1-14.74,14.33c-18.48,15-41,23.3-62.73,31.35L81.28,989,67,994.3c-1.07.39-2.16.79-3.27,1.17A39.22,39.22,0,0,1,51.32,998Z"/><path class="cls-9" d="M25.81,856.84l-1.6-.49A233,233,0,0,1,72.06,771c1.29-1.47,2.6-2.9,3.6-4,3.25-3.5,6.7-7,10-10.39l3.39-3.45c8-8.2,15.73-16.31,21.84-25.46a70.26,70.26,0,0,0,9.7-20.61c.58-2.12,1.07-4.35,1.53-6.5,1.31-6.05,2.67-12.3,6.42-17.36a48.38,48.38,0,0,1,7.21-7.24,49.28,49.28,0,0,0,6.19-6,14,14,0,0,0,3.2-6.66c.49-2.87-.13-6-.73-9-.81-4.08-1.65-8.29.2-12.14s5.86-5.91,9.69-7.81c2.93-1.45,5.95-2.94,8-5.3,3.27-3.83,3.57-9.33,3.87-14.64v-.28c.12-2,.16-4.14.2-6.43.15-7.86.31-16.76,3.54-22.44a10.79,10.79,0,0,1,7.34-5.53c3.72-.77,6.74-1.48,9.52-2.13l.44-.11c7.25-1.69,11.62-2.71,20.27-2.88l0,1.67c-8.47.17-12.78,1.17-19.91,2.84l-.45.1c-2.79.67-5.82,1.38-9.56,2.15a9,9,0,0,0-6.22,4.72c-3,5.31-3.18,14-3.33,21.64,0,2.31-.08,4.49-.2,6.49v.28c-.3,5.33-.63,11.37-4.27,15.63-2.24,2.62-5.42,4.2-8.49,5.72-3.74,1.85-7.28,3.61-8.93,7s-.86,7.1-.07,11.08c.63,3.14,1.28,6.39.74,9.57a15.92,15.92,0,0,1-3.55,7.43,52.44,52.44,0,0,1-6.39,6.24,46.32,46.32,0,0,0-7,7c-3.54,4.77-4.86,10.84-6.13,16.71-.47,2.18-1,4.43-1.55,6.6a72.5,72.5,0,0,1-9.92,21.09c-6.19,9.27-14,17.45-22,25.7l-3.39,3.45c-3.33,3.38-6.77,6.88-10,10.36-1,1.07-2.29,2.49-3.57,3.94A231.32,231.32,0,0,0,25.81,856.84Z"/><path class="cls-9" d="M583.48,803.28l-1.68,0c.14-13.46-1.62-24.51-3.6-35.57q-.54-3.09-1.13-6.28c-.42-2.3-.85-4.65-1.28-7.08l-.54-3.05c-.18-1-.36-2-.55-3l-.2-1.16c-3.55-20-6.4-36.76-8.09-54.17-.67-6.8-1.09-13-1.27-19-.21-5.78-.22-11.5,0-17a276.86,276.86,0,0,1,4.4-38.74l.14-.69c2.91-16.18,6.85-32.24,10.66-47.78,5.82-23.71,11.84-48.22,22.81-70.55,4.61-9.4,11.94-20.12,20.64-30.2,8.3-9.62,25-26.8,43.8-33.9.5-.2,1-.39,1.54-.56l.52,1.59c-.48.16-1,.34-1.46.53-13.67,5.17-29,17-43.14,33.43-8.6,10-15.85,20.58-20.4,29.85-10.89,22.16-16.88,46.59-22.68,70.21-3.86,15.73-7.86,32-10.77,48.36l-.14.69A275.42,275.42,0,0,0,566.79,657c-.19,5.43-.19,11.11,0,16.86.19,5.93.6,12.1,1.27,18.86,1.68,17.35,4.52,34,8.07,54l.2,1.16c.19,1,.37,2,.55,3l.54,3c.43,2.42.86,4.77,1.28,7.07.39,2.14.77,4.22,1.13,6.29C581.84,778.54,583.62,789.67,583.48,803.28Z"/><path class="cls-9" d="M320.71,811.54c-16.25-5.89-27.2-13.49-39.81-22.81-3.21-2.36-6.85-5-9.17-8.76l-.16-.27c-.58-.93-1.18-1.9-2-2.11L270,776c1.5.37,2.32,1.69,3,2.85l.16.26c2.15,3.46,5.65,6,8.74,8.31,12.51,9.23,23.35,16.76,39.39,22.58Z"/><path class="cls-9" d="M296.91,902.61c-14.27-8.19-25.3-9.08-41.88-7.87-.89.06-1.79.14-2.69.22a49.18,49.18,0,0,1-9.64.24c-5.65-.58-15.86-3.12-21.07-5.65l.73-1.5c5.06,2.45,15,4.92,20.51,5.49a49.21,49.21,0,0,0,9.32-.24l2.72-.23c16.91-1.23,28.18-.31,42.84,8.09Z"/><path class="cls-9" d="M364,968.41C334,852.76,391,801.63,393.49,799.51l.23-.2H394v.84l.54.63c-.62.54-15.33,13.49-26.14,40.64-9.86,24.74-18.34,66.78-2.78,126.57Z"/><path class="cls-9" d="M176.6,580.71c-.94-6.41-1.94-12.53-3-18.19-7.38-40.48-18.78-74.37-33.9-100.74-18.78-32.82-36.84-42.08-37-42.17l.75-1.49c.75.37,18.65,9.51,37.72,42.82,15.21,26.54,26.68,60.61,34.09,101.28,1,5.67,2,11.82,3,18.25Z"/><path class="cls-9" d="M114.09,576.28c-7.79-8.79-20.89-10.5-32.67-11a331.48,331.48,0,0,0-42,.83c-10.3.85-21.13,2.29-30.51,7.08l-.31.15-.75-1.5.3-.14c9.64-4.92,20.66-6.39,31.14-7.26a334.73,334.73,0,0,1,42.18-.83c12.13.52,25.64,2.3,33.84,11.56Z"/><path class="cls-9" d="M17.65,609.12l-.78-1.49A157.16,157.16,0,0,1,99,589.78l-.1,1.67A155.3,155.3,0,0,0,17.65,609.12Z"/><path class="cls-9" d="M88.8,754,75.36,743.65c-3.53-2.71-7.54-5.79-9.88-10.12-2.15-4-2.78-10.06.91-13.95,4.54-4.77,12.11-3.27,18.19-1.43,4,1.22,8.89,2.94,13.62,4.6s9.67,3.4,13.66,4.61l-.48,1.6c-4-1.22-9-3-13.74-4.63S88.06,721,84.1,719.75c-5.63-1.7-12.58-3.13-16.49,1-3,3.13-2.59,8.4-.66,12,2.17,4,6,7,9.43,9.58L89.82,752.7Z"/><path class="cls-9" d="M71.63,771.57C70,767.08,68.22,762,68.51,756.7c.24-4.9,2.88-10.69,8.2-12.61l.57,1.58c-4.6,1.65-6.88,6.77-7.1,11.12-.27,5,1.49,9.87,3,14.22Z"/><path class="cls-9" d="M197.8,610.38l-1.47-.8a88.8,88.8,0,0,0,10.34-34.18c1.14-10.8.71-21.71.08-31.9,0-.35,0-.7-.05-1s0-.49,0-.73l0,0v-.4c-.15-2.35-.32-4.77-.49-7.19-.34-4.89-.69-10-.93-15A266.83,266.83,0,0,1,206.47,478c.81-7.51,2-15.5,4.93-23.08,2.38-6.14,5.95-11.89,9.1-17,2.61-4.23,4.74-7.64,6.7-10.74,1.71-2.72,3.28-5.14,4.78-7.41,2.32-3.52,4.47-6.61,6.55-9.45a156.36,156.36,0,0,1,17.09-20.17,120.55,120.55,0,0,1,23.16-17.75,3.71,3.71,0,0,1,.53-.31A124.65,124.65,0,0,1,334,355.17a5.36,5.36,0,0,1,5.69,5.9,82.69,82.69,0,0,1-1.5,8.51c-.15.73-.31,1.45-.45,2.17-1.25,6-4.45,10.81-8.78,13.28a29.12,29.12,0,0,1-8.26,2.71l-1.26.28c-29,6.61-47.14,31-59.72,51.53l-.3.48-1.43-.86.3-.48c24.27-39.61,45.23-48.76,60.78-52.31l1.27-.28a27.46,27.46,0,0,0,7.79-2.52c3.92-2.24,6.82-6.67,8-12.17.14-.72.3-1.45.46-2.18a81.1,81.1,0,0,0,1.47-8.33,3.68,3.68,0,0,0-3.92-4.06,122.93,122.93,0,0,0-54,16.74,3.92,3.92,0,0,0-.42.24,119.69,119.69,0,0,0-22.9,17.54,156.06,156.06,0,0,0-16.91,20c-2.07,2.83-4.2,5.9-6.51,9.4-1.49,2.25-3.05,4.66-4.75,7.38-2,3.09-4.09,6.49-6.7,10.72-3.11,5-6.63,10.7-9,16.7-2.88,7.39-4,15.26-4.81,22.65A266,266,0,0,0,206.87,519c.24,5,.59,10.09.93,15q.24,3.5.47,7l0,0,0,.32c0,.35,0,.69.06,1s0,.7,0,1c.64,10.25,1.06,21.25-.08,32.16A90.47,90.47,0,0,1,197.8,610.38Z"/><path class="cls-9" d="M339.74,445.54h-1.67v-.2c.27-7.35.14-17.81-4.08-24.12-2.91-4.33-7.47-7.15-12.29-9.88-5.12-2.89-10.62-5.81-16.64-7-6.43-1.32-12.62-.32-17,2.75a32.38,32.38,0,0,0-5.47,5.26c-7.55,8.48-15,17.45-22.16,26.67a3.32,3.32,0,0,1-1,.89,1.47,1.47,0,0,1-1.28.05,1.1,1.1,0,0,1-.68-1.22,1.37,1.37,0,0,1,1.07-1.18,1,1,0,0,1,.74.22c7.13-9.17,14.55-18.1,22.07-26.54a33.85,33.85,0,0,1,5.76-5.52c4.76-3.33,11.44-4.43,18.31-3,6.25,1.28,11.89,4.27,17.13,7.23,4.8,2.72,9.74,5.76,12.85,10.4,4.49,6.71,4.64,17.53,4.36,25.08Zm-80.84-7.08-.87.35a.67.67,0,0,0,.69.38c.09,0,.36-.09.39-.27A.55.55,0,0,0,258.9,438.46Zm-.26-.08h0Z"/><path class="cls-9" d="M343.26,454.65h-1.68a10.64,10.64,0,0,0-.47-3,15.84,15.84,0,0,0-1.05-2.64,23.75,23.75,0,0,0-1.85-3.15c-1.29-1.92-2.76-3.74-4.19-5.5-.83-1-1.61-2-2.31-2.92-3.94-5.21-8.77-10.44-14.63-9.78-3.43.39-6.26,2.74-9.35,5.53Q299,441,290.28,448.92l-2,1.85-1.13-1.24,2-1.85,17.46-15.78c2.69-2.43,6-5.47,10.27-5.95,6.73-.78,11.94,4.84,16.16,10.44.69.91,1.47,1.86,2.28,2.86,1.45,1.79,2.95,3.64,4.28,5.63a28.11,28.11,0,0,1,2,3.34,18.24,18.24,0,0,1,1.15,2.92A12.34,12.34,0,0,1,343.26,454.65Z"/><path class="cls-9" d="M330.37,515.4l-1.37-1c2.49-3.54,6.2-4.94,9.8-6.3s6.82-2.57,9-5.69a21.1,21.1,0,0,0,2.74-7l1.92-7.44,1.83-7a14.57,14.57,0,0,0,.69-6,14,14,0,0,0-2.33-4.93c-2.92-4.5-6.07-8.87-9.36-13-.47-.6-1-1.21-1.51-1.81a25.55,25.55,0,0,0-4.39-4.07,10,10,0,0,0-7.2-2.11c-4.26.59-6.95,4.28-9.8,8.19-2.7,3.71-5.5,7.55-9.88,8.85l-.47-1.6c3.83-1.14,6.46-4.75,9-8.24,2.93-4,5.95-8.17,10.92-8.86a11.62,11.62,0,0,1,8.4,2.4,27.73,27.73,0,0,1,4.68,4.33c.55.63,1.08,1.26,1.57,1.88,3.31,4.16,6.49,8.57,9.45,13.12a15.06,15.06,0,0,1,2.56,5.55,15.8,15.8,0,0,1-.71,6.73l-1.83,7-1.92,7.44a22.48,22.48,0,0,1-3,7.59c-2.48,3.54-6.2,4.94-9.79,6.29S332.56,512.28,330.37,515.4Z"/><path class="cls-9" d="M289.68,650.84H288v-.14c.71-15.63,1.81-32,6.6-46.24,2.61-7.82,6.19-14.29,10.65-19.22a93.21,93.21,0,0,1,6.72-6.49,74.18,74.18,0,0,0,8.06-8.09C332.4,555.34,330.43,533,328.85,515c-.07-.61-.12-1.22-.17-1.83-2-22.67,3.59-30.35,8.69-34.51l1.06,1.3c-9.06,7.38-9.17,20.86-8.08,33.07,0,.6.1,1.2.16,1.81,1.62,18.29,3.62,41-9.16,56.88A75,75,0,0,1,313.1,580c-2.24,2-4.56,4.12-6.6,6.37-4.3,4.76-7.76,11-10.3,18.63-4.73,14-5.81,30.28-6.52,45.75Z"/><path class="cls-9" d="M238.73,472.34a13.55,13.55,0,0,1,3.81-20.21l.76,1.49A11.88,11.88,0,0,0,240,471.23Z"/><path class="cls-9" d="M266.85,488a13.62,13.62,0,0,1,.78-20.15l1,1.33a11.95,11.95,0,0,0-.69,17.57Z"/><path class="cls-9" d="M291.77,502.07a16.88,16.88,0,0,1-.11-19.3l1.36,1a15.17,15.17,0,0,0,.1,17.34Z"/><path class="cls-9" d="M327,655.1a261,261,0,0,1-38.34-3.57,214.32,214.32,0,0,1-39-10.47,187.84,187.84,0,0,1-53.17-30.43A223.51,223.51,0,0,1,177,592.35c-2.87-3-5.59-5.75-6.35-5.8l.1-1.67c1.36.08,3.16,1.88,7.45,6.31a220.13,220.13,0,0,0,19.42,18.14,186.15,186.15,0,0,0,52.7,30.16A212.65,212.65,0,0,0,289,649.88a258.65,258.65,0,0,0,38.08,3.55Z"/><path class="cls-9" d="M8.91,690.65,8,689.25c.37-.24,37.83-23.6,134.65-19.6l-.07,1.67c-50.27-2.08-83.94,3.29-103.33,8.16C18.24,684.76,9,690.6,8.91,690.65Z"/><path class="cls-9" d="M2.59,745.67,2,744.09c.36-.13,36.12-12.4,64.19-11.8l0,1.68C38.46,733.35,2.94,745.55,2.59,745.67Z"/><path class="cls-9" d="M272.49,715.72a177.5,177.5,0,0,1-33.8-3.11c-37.13-7.16-60.72-25.72-74-40-14.38-15.52-20.05-29.56-20.1-29.7l1.55-.62c.06.14,5.64,13.94,19.83,29.24,13.08,14.11,36.36,32.4,73,39.47,17.23,3.35,36.16,4,56.28,1.85l.17,1.66A218.33,218.33,0,0,1,272.49,715.72Z"/><path class="cls-9" d="M348.75,154.15a20.31,20.31,0,0,1,3.5,6,34.06,34.06,0,0,1,1.85,6.71,37.52,37.52,0,0,1,.48,6.93c0,1.16-.14,2.31-.23,3.46s-.35,2.28-.6,3.4c-.13-1.15-.15-2.29-.22-3.43s-.14-2.26-.25-3.39-.18-2.25-.36-3.36-.29-2.22-.47-3.33a64.65,64.65,0,0,0-1.43-6.57A45.2,45.2,0,0,0,348.75,154.15Z"/><path class="cls-9" d="M377.77,180.63c-.26,2.72-.42,5.4-.53,8.09s-.17,5.37-.13,8.06c0,1.34,0,2.69.08,4l.05,2c.05.67.08,1.35.1,2,.11,2.69.33,5.38.43,8.11a51.69,51.69,0,0,1-1.73-8,63.75,63.75,0,0,1-.6-8.17,58.91,58.91,0,0,1,.5-8.18A37.56,37.56,0,0,1,377.77,180.63Z"/><circle class="cls-10" cx="310.73" cy="168.09" r="8.49"/><path class="cls-9" d="M310.74,177h-.39a8.93,8.93,0,0,1-8.53-9.29,8.92,8.92,0,1,1,8.92,9.29Zm0-17a8.06,8.06,0,1,0,8,8.4h0a8,8,0,0,0-7.7-8.39Z"/><path class="cls-9" d="M327.27,185.23a15.54,15.54,0,0,1-3.38,2.88,20.33,20.33,0,0,1-8.3,3,14.62,14.62,0,0,1-4.43,0l4.16-1.25c1.35-.43,2.7-.86,4-1.36s2.63-1,3.94-1.55Z"/><path class="cls-9" d="M327.4,174.74a34.63,34.63,0,0,0-2.81-5.69,16.75,16.75,0,0,0-3.79-4.34,11.86,11.86,0,0,0-2.27-1.32,11.07,11.07,0,0,0-2.46-.67,15.44,15.44,0,0,0-5.37.36,22.78,22.78,0,0,0-2.78.79c-.91.27-1.95.72-2.93,1l-5.93,2.15c-2,.73-3.95,1.46-5.86,2.29-1,.4-1.91.84-2.83,1.32a12.67,12.67,0,0,0-1.32.82,2.62,2.62,0,0,0-1,1.15,2.63,2.63,0,0,1,.44-1.64,10,10,0,0,1,1-1.39,18.59,18.59,0,0,1,2.42-2.36,39.27,39.27,0,0,1,5.47-3.75,65.29,65.29,0,0,1,5.82-3l1.49-.66c.48-.22,1-.43,1.55-.64a24.84,24.84,0,0,1,3.37-1,17.07,17.07,0,0,1,7.37-.13,13.32,13.32,0,0,1,3.58,1.42,13,13,0,0,1,2.95,2.38,15.41,15.41,0,0,1,3.34,6.23A17.55,17.55,0,0,1,327.4,174.74Z"/><path class="cls-9" d="M334,133.72,329.13,123s-20.13-1.08-32.62,5.2-18.66,19.5-18.66,19.5S292.44,135.06,334,133.72Z"/><circle class="cls-10" cx="412.63" cy="168.09" r="8.49"/><path class="cls-9" d="M412.63,177a8.93,8.93,0,0,1-8.91-8.53h0a8.92,8.92,0,0,1,8.53-9.29,8.92,8.92,0,0,1,6.95,14.94A8.92,8.92,0,0,1,413,177Zm-8-8.57a8.09,8.09,0,0,0,8.39,7.7,8.05,8.05,0,1,0-8.39-7.7Z"/><path class="cls-9" d="M396.1,185.23l4,1.73c1.31.54,2.61,1.09,3.94,1.55s2.67.93,4,1.36l4.16,1.25a14.62,14.62,0,0,1-4.43,0,20.33,20.33,0,0,1-8.3-3A15.26,15.26,0,0,1,396.1,185.23Z"/><path class="cls-9" d="M396,174.74a17.75,17.75,0,0,1,.56-6.66,15.53,15.53,0,0,1,3.34-6.23,13.17,13.17,0,0,1,2.95-2.38,13.32,13.32,0,0,1,3.58-1.42,17.07,17.07,0,0,1,7.37.13,24.84,24.84,0,0,1,3.37,1c.56.21,1.07.42,1.55.64l1.49.66c2,.91,3.93,1.89,5.83,3a39.78,39.78,0,0,1,5.46,3.75,18.59,18.59,0,0,1,2.42,2.36,9.26,9.26,0,0,1,1,1.39,2.57,2.57,0,0,1,.44,1.64,2.62,2.62,0,0,0-1-1.15,12.67,12.67,0,0,0-1.32-.82c-.92-.48-1.86-.92-2.83-1.32-1.91-.83-3.89-1.56-5.86-2.29l-5.93-2.15c-1-.33-2-.78-2.93-1a22.29,22.29,0,0,0-2.78-.79,15.44,15.44,0,0,0-5.37-.36,11.07,11.07,0,0,0-2.46.67,11.86,11.86,0,0,0-2.27,1.32,16.75,16.75,0,0,0-3.79,4.34A35.45,35.45,0,0,0,396,174.74Z"/><path class="cls-9" d="M386.34,153l2.47-11.49s19.45-5.29,33-1.76,22.34,15.15,22.34,15.15S427.21,145.62,386.34,153Z"/><path class="cls-9" d="M394.38,242a4.1,4.1,0,0,1,1.9.77,16.19,16.19,0,0,1,1.53,1.28c1,.86,1.88,1.8,2.77,2.75s1.71,1.95,2.49,3a22.75,22.75,0,0,1,2.15,3.32,22.77,22.77,0,0,1-3.11-2.44c-1-.87-1.88-1.81-2.77-2.75s-1.71-2-2.49-3A13.33,13.33,0,0,0,394.38,242Z"/><path class="cls-9" d="M330.76,241.5c-.91,1-1.85,1.85-2.77,2.73l-2.77,2.6-2.77,2.61a8.11,8.11,0,0,1-3.39,2.09,24.85,24.85,0,0,0,2.42-3,21.07,21.07,0,0,1,5.71-5.37A14.46,14.46,0,0,1,330.76,241.5Z"/><path class="cls-9" d="M336.31,230a9.9,9.9,0,0,0,1.69,3.39,7.19,7.19,0,0,0,2.91,2.23,8.21,8.21,0,0,0,3.57.61,14.26,14.26,0,0,0,3.64-.63l.39-.11.31.36a14.32,14.32,0,0,0,5.36,3.73,17.83,17.83,0,0,0,6.5,1.32,14.75,14.75,0,0,0,11.71-5l.3-.35.4.08a20.48,20.48,0,0,0,4.09.35,15.41,15.41,0,0,0,4.07-.53,8.91,8.91,0,0,0,3.6-1.89,8.27,8.27,0,0,0,2.2-3.52,7.69,7.69,0,0,1-1.85,3.86,9.13,9.13,0,0,1-3.67,2.4,15.58,15.58,0,0,1-4.3.87,21.79,21.79,0,0,1-4.41-.16l.7-.27a14.25,14.25,0,0,1-2.63,2.58,15.49,15.49,0,0,1-3.12,1.9,16,16,0,0,1-7.14,1.39,18.58,18.58,0,0,1-7.07-1.55,16.22,16.22,0,0,1-3.15-1.82,13.13,13.13,0,0,1-2.65-2.57l.7.25a15.16,15.16,0,0,1-4,.46,9.27,9.27,0,0,1-3.93-1,7.77,7.77,0,0,1-2.91-2.72A8.72,8.72,0,0,1,336.31,230Z"/><path class="cls-3" d="M363.63,247v16.86s30.75-.7,51.13,12.33c0,0,2.78-14.61-9.56-21.14C390.73,247.4,363.63,247,363.63,247Z"/><path d="M415.36,277.57l-1.05-.67c-19.94-12.75-50.37-12.21-50.66-12.2l-.86,0V246.15h.85c1.11,0,27.47.49,41.95,8.15,12.74,6.74,10,21.89,10,22ZM364.46,263c5,0,31.22.64,49.65,11.78.35-3.57.42-13.87-9.3-19-12.7-6.72-35.65-7.78-40.35-7.93Z"/><path class="cls-3" d="M359.74,247v16.86s-30.76-.7-51.14,12.33c0,0-2.77-14.61,9.56-21.14C332.63,247.4,359.74,247,359.74,247Z"/><path d="M308,277.57l-.23-1.22c0-.15-2.73-15.3,10-22,14.48-7.66,40.84-8.13,42-8.15h.85v18.57l-.85,0c-.3,0-30.74-.55-50.67,12.2Zm50.9-29.71c-4.69.15-27.65,1.21-40.35,7.93-9.72,5.14-9.65,15.44-9.3,19C327.68,263.66,353.85,263,358.9,263Z"/><path class="cls-11" d="M407.33,286.15s-33.56-14-37.79-10-7.86,3.89-7.86,3.89h.92s-3.63.16-7.86-3.89-38.71,10-38.71,10S353.61,282.65,407.33,286.15Z"/><path class="cls-9" d="M407.33,286.15c-3.79-1.46-7.59-2.84-11.42-4.18s-7.68-2.56-11.57-3.66c-1.94-.56-3.89-1.07-5.86-1.49a30.75,30.75,0,0,0-5.9-.8,4.5,4.5,0,0,0-2.55.53l-.25.22-.29.27-.58.52c-.4.34-.82.65-1.25,1a11.59,11.59,0,0,1-6,2.23l0-1.34h.92l0,1.36a11.56,11.56,0,0,1-6.16-2.23c-.45-.3-.87-.63-1.29-1-.21-.17-.4-.36-.6-.53l-.3-.27-.2-.16a5.36,5.36,0,0,0-2.59-.4,34.34,34.34,0,0,0-6,.9c-2,.45-4,1-5.94,1.57-7.87,2.33-15.6,5.23-23.24,8.24l-.39-1.59c7.63-.61,15.24-.93,22.86-1.15s15.24-.31,22.87-.2,15.24.28,22.85.66c3.8.16,7.6.43,11.4.66,1.93.1,3.74.26,5.64.42S405.39,286,407.33,286.15Zm0,0c-1.86-.11-3.73-.18-5.64-.23l-5.78-.21c-3.8-.1-7.6-.24-11.41-.29-7.61-.19-15.22-.23-22.83-.2s-15.21.19-22.81.45-15.21.64-22.76,1.3l-5.44.47,5.06-2.06c3.84-1.57,7.71-3,11.61-4.37s7.84-2.68,11.82-3.83c2-.57,4-1.1,6-1.55a34.85,34.85,0,0,1,6.26-.9,11.75,11.75,0,0,1,1.66.08,4.37,4.37,0,0,1,1.76.57,3.68,3.68,0,0,1,.41.33l.28.25c.18.16.36.34.55.49q.57.48,1.17.9a13.69,13.69,0,0,0,2.57,1.41,8.45,8.45,0,0,0,2.72.64l0,1.36h-.92l0-1.34a8.19,8.19,0,0,0,2.69-.58A13.24,13.24,0,0,0,367,277.5c.41-.28.8-.56,1.18-.87.2-.15.38-.32.56-.48l.28-.24a3.7,3.7,0,0,1,.32-.28A3.54,3.54,0,0,1,371,275a9.76,9.76,0,0,1,1.61-.08,32.42,32.42,0,0,1,6.11.94c2,.47,3.95,1,5.89,1.63,3.88,1.2,7.7,2.6,11.48,4S403.62,284.51,407.33,286.15Z"/><path class="cls-9" d="M348.75,296.41a7.76,7.76,0,0,1,1.77.9c.56.33,1.13.65,1.7.95a26.64,26.64,0,0,0,3.52,1.54,20.68,20.68,0,0,0,7.43,1.12,25.58,25.58,0,0,0,7.44-1.42,53.89,53.89,0,0,0,7.16-3.09,25.63,25.63,0,0,1-6.69,4.31,20.86,20.86,0,0,1-7.86,1.88,18,18,0,0,1-8-1.6,18.53,18.53,0,0,1-3.47-2.05c-.53-.41-1.05-.83-1.54-1.27l-.73-.67A3.4,3.4,0,0,0,348.75,296.41Z"/></g></svg>