<svg xmlns="http://www.w3.org/2000/svg" viewBox="0 0 809.34 1296.61"><defs><style>.cls-1{fill:#adadad;}.cls-2{fill:#e56590;}.cls-3{fill:#fff;}.cls-4{fill:#f094b0;}.cls-5{fill:#f39200;}.cls-6{fill:#d5ad95;}.cls-7{fill:#828282;}.cls-8{fill:#432918;}.cls-9{fill:#f3d1bb;}.cls-10{fill:#ec7b23;}.cls-11{fill:#26170e;}.cls-12{fill:#1d1d1b;}.cls-13{fill:none;}.cls-14{fill:#392f25;}.cls-15{fill:#551a1a;}.cls-16{fill:#cf9188;}</style></defs><g id="PERSONAJES"><path class="cls-1" d="M807.54,904.36a206,206,0,0,1,.49,33.48c-.22,3-7.72,9.5-9.28,11.94s-4.4,4-7.11,5.36q-6.45,3.33-12.95,6.61c.69-3.27,1.25-6.57,1.67-9.86,3.25-25.06-.12-50.42-5.31-75.25C786.61,885.11,797.82,894.07,807.54,904.36Z"/><path class="cls-2" d="M799.62,852.53c3.21,18.17,6.4,35,7.92,51.83-9.72-10.29-20.93-19.25-32.49-27.72-.8-3.86-1.66-7.72-2.54-11.54-10.76-46.93-25.49-93-40.44-138.92,11.45.74,21.78,3.16,29.72,7.55h0a43.3,43.3,0,0,1,7.91,6.35c-.18,1.37,1.1,1.95,2.29,2.56.64.74,1.25,1.52,1.83,2.32-.9,5.87.79,12.19,2.47,18.32q7.32,26.64,14.63,53.3C794.21,828.54,797.5,840.51,799.62,852.53Z"/><path class="cls-3" d="M633.35,882.67a28.23,28.23,0,0,0-6.59-4.74c-3.82-2-8-.44-9,3.05-.48.19-1,.35-1.44.51-.17-1-.32-2-.44-3-.78-6,4.37-10.4,10.68-9.23,7.4,1.35,14.82,3.2,21.84,2.3,6.15-.78,11.43-3.62,17.06-5.69,2.26-.85,4.65-1.67,7.12-2.47,27-8.84,64.4-14.55,86.57,3.89l1.05-1.25c4.94,3.49,9.93,7,14.85,10.58,5.19,24.83,8.56,50.19,5.31,75.25-.42,3.29-1,6.59-1.67,9.86-19.68,9.85-40,18.88-62.44,22.93-16.37,2.93-34.22,3.35-47.76,11.51a35.71,35.71,0,0,1-7.79,3.83c-14.07,4.28-19.31-10.91-25.62-17.82h.07c4.36,2.81,11.83,10.66,15.91,8.46s6.51-6.57,7.89-11c5.27-16.73,3.54-29.41-3.15-50.54C650.93,913.69,644.87,893.41,633.35,882.67Zm137,78c2.06-2.65,1.17-6.79-2-9.22s-7.37-2.27-9.43.4-1.17,6.79,2,9.23S768.32,963.32,770.39,960.66Zm-56.2,9.64c2-2.66,1.17-6.79-2-9.23s-7.39-2.27-9.43.41-1.17,6.79,2,9.23S712.12,973,714.19,970.3Z"/><path class="cls-1" d="M771.69,721.54c2,4.88,4.15,9.94,3.86,14.82,0,.35-5.79,3.38-5.84,3.72a43.3,43.3,0,0,0-7.91-6.35h0c-9.13-5.71-19.92-8-30-8.33-15.55-47.65-31.3-95.2-43.12-143.51a226.59,226.59,0,0,1,32-9.58c6.5,11.06,11.92,22.4,14.55,34.34A673.08,673.08,0,0,0,771.69,721.54Z"/><path class="cls-4" d="M718,726.09a129.77,129.77,0,0,1,14.11.09c14.95,46,29.68,92,40.44,138.92.88,3.82,1.74,7.68,2.54,11.54-4.92-3.59-9.91-7.09-14.85-10.58l-1.05,1.25c-22.17-18.44-59.56-12.73-86.57-3.89a73,73,0,0,1-6.79-20.24c-1-5.21-1.32-10.44-2.23-15.68-3.52-19.86-15.46-39.09-18-58.94-.7-5.48-.66-11-2.17-16.46a32,32,0,0,0-1-3.18C662.81,735.71,691.94,727.28,718,726.09Z"/><path class="cls-4" d="M769.71,740.08a31,31,0,0,1,2.29,2.56C770.81,742,769.53,741.45,769.71,740.08Z"/><path class="cls-5" d="M768.41,951.44c3.15,2.43,4,6.57,2,9.22s-6.28,2.85-9.43.41-4.05-6.57-2-9.23S765.26,949,768.41,951.44Z"/><path class="cls-3" d="M731.82,725.4a83.49,83.49,0,0,0-13.86.69c-26,1.19-55.15,9.62-75.6,22.83-3.13-8.42-9.14-16.14-12.77-24.5-1.86-4.32-4-10.52-6.48-14.55,1.17-11.55.67-25.3-3-43.48-3.07-15-8-26.5-10.11-40.18a7.46,7.46,0,0,0,2,.44c4.07.34,7.56-2.61,10.62-5.27a221,221,0,0,1,66.12-39.49C700.52,630.2,716.27,677.75,731.82,725.4Z"/><path class="cls-5" d="M712.21,961.07c3.15,2.44,4,6.57,2,9.23s-6.28,2.84-9.43.41-4-6.57-2-9.23S709.06,958.63,712.21,961.07Z"/><path class="cls-2" d="M702.93,544.44c6,9.23,12.26,18.45,17.76,27.87a226.59,226.59,0,0,0-32,9.58,703.19,703.19,0,0,1-16.06-87,3.16,3.16,0,0,0,.11.6c1,3.82,3.26,7.41,5.52,10.9Q690.6,525.41,702.93,544.44Z"/><path class="cls-1" d="M702.89,1295.77H537.56c28.33-30.86,50.58-66.63,61.25-106.56,23.7-4.35,47.55-9.45,72.15-16.14A729.3,729.3,0,0,0,702.89,1295.77Z"/><path class="cls-4" d="M137.2,491.1a37,37,0,0,1,.9-6.74c2-7.09,8.48-12.36,14.8-17.39a16.35,16.35,0,0,1,7.35-3.32c9-1.66,17.59-5.32,26.18-9.28,11.29-5.2,22.52-10.9,34.37-13.19,3.61-.69,7.33-1.08,10.65-2.64,2.27-1.07.1.19,2.27-1.07,6.72-3.86,9.68-1.83,17.32-3.15,8.45-1.45,15.63-.23,23.33-2.71a1.08,1.08,0,0,0-.22.21,4.85,4.85,0,0,0-.86,3.08,32.3,32.3,0,0,0,.07,3.81c.81,12.46,7.72,24.23,17.08,32.65,10,9,22.63,14.63,35.44,18.86l.58.19c4.54,1.49,9.13,2.82,13.73,4a219.93,219.93,0,0,0,99.45,2.29c2.56-.53,5.1-1.1,7.64-1.73,1.52-.37,3-.76,4.57-1.19,13.7-3.69,27.16-9,38.32-17.72a84.27,84.27,0,0,0,14.07-14.18c7.14-9.07,12.78-19.47,17.66-30.15.41-.88.81-1.77,1.2-2.65a6.59,6.59,0,0,0-3-8.53c8.77,3.86,19.59,6.64,29,8.28,7.63,1.32,15.64,2,22.36,5.83,2.17,1.25,4.17,2.82,6.44,3.89,3.33,1.56,7.06,1.95,10.67,2.64,7.94,1.54,15.59,4.61,23.18,8,12.33,5.57,24.48,12.07,37.35,14.44a16.53,16.53,0,0,1,7.37,3.32c6.31,5,12.83,10.3,14.8,17.39a20.09,20.09,0,0,1,.54,2.76.36.36,0,0,0,0,.14,76,76,0,0,0,.83,7.63,703.19,703.19,0,0,0,16.06,87,221,221,0,0,0-66.12,39.49C619.52,624,616,627,612,626.65a7.46,7.46,0,0,1-2-.44,22.49,22.49,0,0,1-5.79-3.44c-17.16-12.36-38.12-16.36-59.27-15.9q-141.09,3-282.22,6.06c-21.35.46-45.48,9-62.06,22.44a20.32,20.32,0,0,1-4.82,3.2,153.63,153.63,0,0,0,2.37-22.93l-.83-.37q-4.71,10.59-9.42,21.18c-.18-.19-.35-.35-.54-.52a245.61,245.61,0,0,0-101.83-58.2c6.18-11.31,13.73-22.3,20.86-33.29q12.31-19,24.65-38.05c2.25-3.49,4.56-7.08,5.5-10.9A27.48,27.48,0,0,0,137.2,491.1Z"/><path class="cls-2" d="M606.17,1123.81c-.55-29.09-5.36-58.28-10.88-87.57,12.24-2.56,24.33-5.42,36.2-8.69.27.71.54,1.39.81,2l1.47,3.73,1,2.55c.22.55.44,1.09.64,1.63s.43,1,.63,1.57l.61,1.54c.41,1,.83,2.07,1.24,3.1,1.52,3.85,3,7.67,4.57,11.52,2.5,6.28,5,12.63,5.94,19.34,1.54,11.19,1.29,25,4.2,31.63a12.28,12.28,0,0,0,1.56,4.8c.74,1.36,1.66,2.68,2.59,4.49.22.41.42.83.61,1.26,5.5,12,10.75,39.74,13.14,53.72.15.87.29,1.75.44,2.61-24.6,6.69-48.45,11.79-72.15,16.14,1.13-4.17,2.11-8.38,3-12.65A240.56,240.56,0,0,0,606.17,1123.81Z"/><path class="cls-6" d="M655.8,929.07c6.69,21.13,8.42,33.81,3.15,50.54-8.11,1.21-15.78,1.85-23.8,2.58a1,1,0,0,0-.19-.12,1.42,1.42,0,0,0,.12.13c-6.52.58-13.28,1.24-20.68,2.31-.5-1.31-1-2.59-1.54-3.9l.7,1.17c-12.23-28.4-17.39-58.64-18.7-89.52v0c6.74-1.1,14.95-3,22.66-5.06,5.86-1.56,11.43-3.17,15.83-4.51C644.87,893.41,650.93,913.69,655.8,929.07Z"/><path class="cls-7" d="M659,979.61c-1.38,4.47-3.74,8.81-7.89,11s-11.55-5.65-15.91-8.46C643.17,981.46,650.84,980.82,659,979.61Z"/><path class="cls-1" d="M594.86,892.26c1.31,30.88,6.47,61.12,18.7,89.52l-.7-1.17c.51,1.31,1,2.59,1.54,3.9q7.35,18.48,14.7,37l2.39,6c-11.87,3.27-24,6.13-36.2,8.69-8-42.06-17.41-84.31-18-126.73,5.81-1.62,11.56-3.35,17.24-5.15-.17-4.84-.24-10-.22-15.47l.45-.14c0,1.17.07,2.32.12,3.49Z"/><path class="cls-7" d="M626.76,877.93a28.23,28.23,0,0,1,6.59,4.74c-4.4,1.34-10,3-15.83,4.51l-.09-.36a12.85,12.85,0,0,1,.17-5.25,4,4,0,0,1,.16-.59C618.79,877.49,622.94,876,626.76,877.93Z"/><path class="cls-3" d="M620.08,666.39c3.7,18.18,4.2,31.93,3,43.48a133.47,133.47,0,0,1-5.71,26.4c-4.22,13.82-9.28,22.42-12.9,32.93-13.87,2.93-32.46,7.32-54,11.72-99.6,20.37-239,11.13-340.76,6.89-2.3-21.7-10.63-30.64-17-51.54A134,134,0,0,1,187,709.79c-1.15-11.53-.66-25.27,3.05-43.4,2.1-10.3,4.2-19,5.76-27.82a20.32,20.32,0,0,0,4.82-3.2c16.58-13.48,40.71-22,62.06-22.44q141.12-3,282.22-6.06c21.15-.46,42.11,3.54,59.27,15.9a22.49,22.49,0,0,0,5.79,3.44C612.07,639.89,617,651.4,620.08,666.39Z"/><path class="cls-4" d="M617.76,881a4,4,0,0,0-.16.59,12.85,12.85,0,0,0-.17,5.25c-.44-1.78-.83-3.56-1.11-5.33C616.81,881.33,617.28,881.17,617.76,881Z"/><path class="cls-8" d="M371.5,63c-11.14,3.19-21.59,9.2-31.68,15.17-.37.07-.73.16-1.08.24l-1.19-.42a99,99,0,0,1-2.84-33,.2.2,0,0,1,0-.07c.92-4.79,2-9.79,3.32-14.83,9.7-18.73,31.65-28.79,52.73-29.16s41.47,7.45,60.32,16.93c18.59,9.35,36.49,20.59,51,35.51,17.78,18.24,29.81,41.28,39.8,64.72,4.82,11.29,9.28,23,9.9,35.3.39,7.84-.79,15.73-.07,23.56,2.34,25.63,23.91,45,33.4,69,9.8,24.74,6.06,52.66.3,78.65-4.79,21.66-10.68,45.16-1.22,65.23,3.83,8.11,9.91,14.91,14.72,22.47,7.58,11.9,12,23.3,12.8,37-7.59-3.42-15.24-6.49-23.18-8-3.61-.69-7.34-1.08-10.67-2.64-2.27-1.07-4.27-2.64-6.44-3.89-6.72-3.87-14.73-4.51-22.36-5.83-9.42-1.64-20.24-4.42-29-8.28l-.34-.15a7,7,0,0,0-1.34-.41,32.2,32.2,0,0,0-13.91.41l-.12.13a94.65,94.65,0,0,1-7.59-7.11,43.65,43.65,0,0,0-.86-6.91h0c-.48-2.1-2.15-3.75-3.74-5.24a4.8,4.8,0,0,0-2.34-1.45,5.15,5.15,0,0,0-2.85.54,9.29,9.29,0,0,1,2.85,5.6c-10.41-11.78-16.66-23.7-18.66-36.38-1.47-9.47-2.83-19.46-1.88-29a114.29,114.29,0,0,1,3.22-17.06h0c1.06-1.26,2.11-2.54,3.11-3.86A79.74,79.74,0,0,0,488,297.1a72.91,72.91,0,0,1-6-13.36c-10.24-31.26,3.93-66.34-5.16-98-1.92-6.62-4.91-13.08-9.79-17.94-5.61-5.58-13.19-8.6-19.79-13a57,57,0,0,1-25.1-45.6c-.17-8.82,1.71-17.86-.78-26.33a26.29,26.29,0,0,0-3.62-7.52C410.51,65,396.16,59.77,383.1,60.82A59.59,59.59,0,0,0,371.5,63Z"/><path class="cls-4" d="M592.59,1190.36c-29.12,5.23-58.09,9.48-88.1,14.39a410.58,410.58,0,0,0,101.68-80.94,240.56,240.56,0,0,1-4.38,52.75c-.87,4.27-1.85,8.48-3,12.65C596.74,1189.61,594.66,1190,592.59,1190.36Z"/><path class="cls-4" d="M604.5,769.2a82.32,82.32,0,0,0-4.1,18.61c-.1.92-.19,1.83-.29,2.75-.12,1.15-.24,2.28-.37,3.43a288.52,288.52,0,0,0-22.27,100c-121.8,35-250.08,34.4-363,11.44.29-3.52.52-7,.68-10.58.06-.85.1-1.68.13-2.52,1.49-34.61-1.88-70-5.54-104.5,101.75,4.24,241.16,13.48,340.76-6.89C572,776.52,590.63,772.13,604.5,769.2Z"/><path class="cls-4" d="M599.74,794c.13-1.15.25-2.28.37-3.43-.12,1.11-.24,2.23-.34,3.37C599.76,794,599.76,794,599.74,794Z"/><path class="cls-4" d="M599.74,794s0,0,0-.06c-2.35,23.47-4.55,53.39-5.26,80C594.56,847.33,597,820.43,599.74,794Z"/><path class="cls-3" d="M504.48,1204.75h0c30-4.91,59-9.16,88.1-14.39,2.07-.37,4.15-.75,6.22-1.15-10.67,39.93-32.92,75.7-61.25,106.56H111.31c8-30.94,16.95-67.33,25.35-100.48,45.21,15.86,93.59,23.14,141.63,24.06C345,1220.6,439.33,1218.94,504.48,1204.75Z"/><path class="cls-4" d="M595.29,1036.24c5.52,29.29,10.33,58.48,10.88,87.57a410.58,410.58,0,0,1-101.68,80.94h0c-65.15,14.19-159.53,15.85-226.19,14.6-48-.92-96.42-8.2-141.63-24.06,2.15-8.49,4.27-16.77,6.32-24.67,3-11.76,6.09-23.59,11.24-34.58,4.28-9.13,10.11-18.25,9.45-28.31-.27-4.12-1.63-8.1-1.8-12.21-.35-8.47,4.27-16.22,8.35-23.66,3.15-4,3-10.6,3.13-15.66.07-3.44-.61-6.89-.17-10.28,54.31,17.26,113.64,20.27,171.09,18.41,22.24-.71,44.88-2.08,67.72-4.13A315.06,315.06,0,0,1,327.14,1122a335.86,335.86,0,0,0,137.58-67.62C508.25,1050,552.7,1045.09,595.29,1036.24Z"/><path class="cls-2" d="M599.74,794c-2.74,26.44-5.18,53.34-5.23,80-.12,5.11-.21,10.11-.22,14.92q-8.38,2.65-16.82,5.08A288.52,288.52,0,0,1,599.74,794Z"/><path class="cls-2" d="M594.29,888.89c0,5.43.05,10.63.22,15.47-5.68,1.8-11.43,3.53-17.24,5.15,0-2.18,0-4.38,0-6.57,0-3,.1-6,.22-9Q585.9,891.56,594.29,888.89Z"/><path class="cls-4" d="M577.47,894c-.12,3-.2,6-.22,9,0,2.19,0,4.39,0,6.57C453.34,944.43,302.36,942,213.79,912.58a3.11,3.11,0,0,0,0-.43c.24-2.23.44-4.48.63-6.74C327.39,928.37,455.67,929,577.47,894Z"/><path class="cls-3" d="M412,1060.2c-22.84,2-45.48,3.42-67.72,4.13-57.45,1.86-116.78-1.15-171.09-18.41,0-.17,0-.32.07-.49,1-6.37,5.93-11.24,9.55-16.56,7.57-11.16,11.5-24.62,13.07-38.17.22-2,.53-3.92.93-5.87a74.82,74.82,0,0,1,3.43-12.14c7.24-19.37,11.44-39.54,13.56-60.11,88.57,29.42,239.55,31.85,363.48-3.07.61,42.42,10.06,84.67,18,126.73-42.59,8.85-87,13.8-130.57,18.18C447.09,1056.73,429.48,1058.66,412,1060.2Z"/><path class="cls-2" d="M520.07,420.54a6.59,6.59,0,0,1,3,8.53c-.39.88-.79,1.77-1.2,2.65a80,80,0,0,1-17.54-11.2l.12-.13a32.2,32.2,0,0,1,13.91-.41,7,7,0,0,1,1.34.41Z"/><path class="cls-6" d="M487,448.45c1-1.77,2-3.56,2.88-5.39,4.5-9.19,7.35-19.49,6.89-29.65a94.65,94.65,0,0,0,7.59,7.11,80,80,0,0,0,17.54,11.2c-4.88,10.68-10.52,21.08-17.66,30.15-4.51-2.88-9.54-5.31-13.95-8.24a48.26,48.26,0,0,1-4.42-3.29C486.26,449.72,486.63,449.09,487,448.45Z"/><path class="cls-9" d="M490.29,453.63c4.41,2.93,9.44,5.36,13.95,8.24a84.27,84.27,0,0,1-14.07,14.18c-11.16,8.73-24.62,14-38.32,17.72,5.57-6.92,11.12-12.78,16.68-19.7,6.14-7.64,12.29-15.35,17.34-23.73A48.26,48.26,0,0,0,490.29,453.63Z"/><path class="cls-10" d="M496.77,413.41c.46,10.16-2.39,20.46-6.89,29.65-.9,1.83-1.86,3.62-2.88,5.39-.37.64-.74,1.27-1.13,1.89a57.87,57.87,0,0,1-5.12-4.65,87.53,87.53,0,0,0,4.84-9.69c3.78-9,5.81-18.88,4.54-28.55-.06-.51-.15-1-.25-1.51a9.29,9.29,0,0,0-2.85-5.6,5.15,5.15,0,0,1,2.85-.54,4.8,4.8,0,0,1,2.34,1.45c1.59,1.49,3.26,3.14,3.74,5.24h0A43.65,43.65,0,0,1,496.77,413.41Z"/><path class="cls-6" d="M490.13,407.45c1.27,9.67-.76,19.56-4.54,28.55a87.53,87.53,0,0,1-4.84,9.69c-11.28-11.43-18.61-26.88-26.92-40.93-10-16.8-24.3-33.7-43.3-36.51a4.72,4.72,0,0,0,.54-.13c10-2.65,18.71-8.81,27.11-14.9,12.67-9.2,24.79-18.46,34.38-29.71a114.29,114.29,0,0,0-3.22,17.06c-.95,9.53.41,19.52,1.88,29,2,12.68,8.25,24.6,18.66,36.38C490,406.45,490.07,406.94,490.13,407.45Z"/><path class="cls-6" d="M482,283.74a72.91,72.91,0,0,0,6,13.36,79.74,79.74,0,0,1-12.28,22.54,112,112,0,0,1-12-27.32c-5.58-20.31-4-41.82-5.11-62.87s-5.88-43.4-21.05-58c-8.55-8.23-20.18-13.82-25.58-24.39-4.54-8.87-3.69-19.38-4.8-29.29-1.93-17.61-10.83-34.2-23.94-46.09a112.58,112.58,0,0,1,34.53,3.77,26.29,26.29,0,0,1,3.62,7.52c2.49,8.47.61,17.51.78,26.33a57,57,0,0,0,25.1,45.6c6.6,4.37,14.18,7.39,19.79,13,4.88,4.86,7.87,11.32,9.79,17.94C485.9,217.4,471.73,252.48,482,283.74Z"/><path class="cls-5" d="M480.75,445.69a57.87,57.87,0,0,0,5.12,4.65c-5.05,8.38-11.2,16.09-17.34,23.73-5.56,6.92-11.11,12.78-16.68,19.7-1.53.43-3.05.82-4.57,1.19-2.54.63-5.08,1.2-7.64,1.73A317.21,317.21,0,0,0,470.51,461c3.05-4.1,6-8.28,8.65-12.62C479.7,447.46,480.23,446.58,480.75,445.69Z"/><path class="cls-9" d="M318.26,453.1c-3.38-9.63-6.28-19.64-9.21-29.65a24.43,24.43,0,0,1-1.23-6.58c3-4.29,3.1-5.74,5.33-10.45,11.35-24,16.9-51.55,10.62-77.3l.34-.34a145.19,145.19,0,0,0,18.76,15.88c10.11,7.25,20.32,14.57,31.78,19.43,11.28,4.8,24,7.11,35.88,4.16,19,2.81,33.34,19.71,43.3,36.51,8.31,14.05,15.64,29.5,26.92,40.93-.52.89-1.05,1.77-1.59,2.65-2.66,4.34-5.6,8.52-8.65,12.62a317.21,317.21,0,0,1-30.87,35.73,219.93,219.93,0,0,1-99.45-2.29C330.25,482.77,323.65,468.44,318.26,453.1Z"/><path class="cls-9" d="M338.74,78.36l.4.15.68-.39a294.69,294.69,0,0,1,32.54-5.63c3.65-.43,7.25-.73,10.84-.85,13.11,11.89,22,28.48,23.94,46.09,1.11,9.91.26,20.42,4.8,29.29,5.4,10.57,17,16.16,25.58,24.39,15.17,14.64,19.9,37,21.05,58s-.47,42.56,5.11,62.87a112,112,0,0,0,12,27.32c-1,1.32-2.05,2.6-3.11,3.86h0C463,334.76,450.85,344,438.18,353.22c-8.4,6.09-17.07,12.25-27.11,14.9a4.72,4.72,0,0,1-.54.13c-11.89,2.95-24.6.64-35.88-4.16-11.46-4.86-21.67-12.18-31.78-19.43a145.19,145.19,0,0,1-18.76-15.88c-9.1-9.16-16.8-19.71-21.14-31.26-5.35-14.19-9.56-35.08-10.7-50.22-1.4-18.74-2.13-28.53-2.62-47.34-.43-15.67,2.3-31.23,5.35-46.59,5.26-26.55,13.09-55.32,35.24-70.86a268.15,268.15,0,0,1,4.47-37.59,99,99,0,0,0,2.84,33Z"/><path class="cls-4" d="M412,1060.2c17.49-1.54,35.1-3.47,52.73-5.78A335.86,335.86,0,0,1,327.14,1122,315.06,315.06,0,0,0,412,1060.2Z"/><path class="cls-11" d="M417.73,75.41a112.58,112.58,0,0,0-34.53-3.77A71.84,71.84,0,0,0,371.5,63a59.59,59.59,0,0,1,11.6-2.13C396.16,59.77,410.51,65,417.73,75.41Z"/><path class="cls-11" d="M383.2,71.64c-3.59.12-7.19.42-10.84.85a294.69,294.69,0,0,0-32.54,5.63c10.09-6,20.54-12,31.68-15.17A71.84,71.84,0,0,1,383.2,71.64Z"/><path class="cls-8" d="M301.33,424.42c.07.32.14.66.2,1a31.64,31.64,0,0,1-2.92,2.83,35,35,0,0,1-5.59,4.33l-.09-.15a31.2,31.2,0,0,0-15.63-1.91,5.29,5.29,0,0,0-2.93,1.11c-7.7,2.48-14.88,1.26-23.33,2.71-7.64,1.32-10.6-.71-17.32,3.15-2.17,1.26,0,0-2.27,1.07-3.32,1.56-7,1.95-10.65,2.64-11.85,2.29-23.08,8-34.37,13.19-2-20.39,7.58-39.55,17.67-58.13,12.16-22.38,26-46.29,22.64-71.52-1.35-10.2-5.45-19.78-7.87-29.77a91.24,91.24,0,0,1,2.1-49.87c5.81-17.51,16.91-33.15,20.72-51.2,5-23.57-3.08-48.23.53-72,4.23-28,23.72-50.89,42.4-72.14,6.55-7.45,13.29-15,22-19.74s20-6,28.33-.64L338,30a58.81,58.81,0,0,0-3.32,14.83.2.2,0,0,0,0,.07,268.15,268.15,0,0,0-4.47,37.59c-22.15,15.54-30,44.31-35.24,70.86-3.05,15.36-5.78,30.92-5.35,46.59.49,18.81,1.22,28.6,2.62,47.34,1.14,15.14,5.35,36,10.7,50.22,4.34,11.55,12,22.1,21.14,31.26l-.34.34c6.28,25.75.73,53.32-10.62,77.3-2.23,4.71-2.37,6.16-5.33,10.45a8.33,8.33,0,0,1,1-4.19,9.34,9.34,0,0,0-7.23,6.9,17.65,17.65,0,0,0-.24,4.82Z"/><path class="cls-5" d="M301.53,425.4c-.06-.32-.13-.66-.2-1v0a17.65,17.65,0,0,1,.24-4.82,9.34,9.34,0,0,1,7.23-6.9,8.33,8.33,0,0,0-1,4.19,24.43,24.43,0,0,0,1.23,6.58c2.93,10,5.83,20,9.21,29.65,5.39,15.34,12,29.67,21.93,41.3-4.6-1.17-9.19-2.5-13.73-4a222.64,222.64,0,0,1-16.81-36.09A206.67,206.67,0,0,1,301.53,425.4Z"/><path class="cls-9" d="M309.65,454.32a222.64,222.64,0,0,0,16.81,36.09l-.58-.19c-12.81-4.23-25.41-9.86-35.44-18.86-9.36-8.42-16.27-20.19-17.08-32.65A38.86,38.86,0,0,0,293,432.56a35,35,0,0,0,5.59-4.33,31.64,31.64,0,0,0,2.92-2.83A206.67,206.67,0,0,0,309.65,454.32Z"/><path class="cls-2" d="M292.93,432.41l.09.15a38.86,38.86,0,0,1-19.66,6.15,32.3,32.3,0,0,1-.07-3.81,4.85,4.85,0,0,1,.86-3.08,1.08,1.08,0,0,1,.22-.21,25.71,25.71,0,0,0,2.93-1.11A31.2,31.2,0,0,1,292.93,432.41Z"/><path class="cls-9" d="M215.26,892.31c0,.84-.07,1.67-.13,2.52-.33,5.1-1,13.43-1.31,17.32a3.11,3.11,0,0,1,0,.43c-2.12,20.57-6.32,40.74-13.56,60.11a74.82,74.82,0,0,0-3.43,12.14l-1.45-.27c-7.55-1.09-14.43-1.76-21.08-2.36a1.42,1.42,0,0,1,.12-.13,1,1,0,0,0-.19.12c-8-.73-15.71-1.37-23.83-2.58-5.26-16.73-3.53-29.41,3.17-50.54,4.88-15.38,10.92-35.65,22.42-46.41h0c4.4,1.35,10,3,15.85,4.52,7.8,2.05,16.12,4,22.91,5.11Z"/><path class="cls-9" d="M215.13,894.83c-.16,3.54-.39,7.06-.68,10.58-.19,2.26-.39,4.51-.63,6.74C214.14,908.26,214.8,899.93,215.13,894.83Z"/><path class="cls-4" d="M197.35,615.27l.83.37a153.63,153.63,0,0,1-2.37,22.93A6.25,6.25,0,0,1,192,639a9.25,9.25,0,0,1-4.07-2.56Q192.66,625.86,197.35,615.27Z"/><path class="cls-1" d="M195.81,638.57c-1.56,8.85-3.66,17.52-5.76,27.82-3.71,18.13-4.2,31.87-3.05,43.4l-.76.08c-2.51,4-4.62,10.23-6.49,14.55-4.08,9.41-11.19,18-13.83,27.68-1.49,5.47-1.46,11-2.17,16.46a75,75,0,0,1-1.83,9.38c-6.21-4.76-16.93-6.45-23.82-9.51q-2.9-1.3-5.84-2.49,6.86-18.13,14.39-36c4.81-11.38,9.84-22.68,14.85-34q13.23-29.78,26.43-59.52A9.25,9.25,0,0,0,192,639,6.25,6.25,0,0,0,195.81,638.57Z"/><path class="cls-3" d="M49.05,868.28c13.82-12.31,34-14.63,53.93-12.41a170.63,170.63,0,0,1,33.78,7.55c2.47.8,4.86,1.62,7.13,2.47,5.6,2.07,10.9,4.91,17.05,5.69,7,.9,14.44-1,21.83-2.3,6.33-1.17,11.46,3.18,10.7,9.23a75.39,75.39,0,0,1-1.56,8.31,12.85,12.85,0,0,0-.17-5.25c-.73-3.89-5.15-5.7-9.16-3.64a28.54,28.54,0,0,0-6.6,4.73h0c-11.5,10.76-17.54,31-22.42,46.41-6.7,21.13-8.43,33.81-3.17,50.54,1.41,4.47,3.75,8.81,7.9,11s11.56-5.65,15.93-8.46h.07c-6.34,6.91-11.57,22.1-25.62,17.82a35.06,35.06,0,0,1-7.79-3.83c-13.56-8.16-31.39-8.58-47.77-11.51-27.45-4.95-51.61-17.31-75.38-29.54-2.71-1.38-5.52-2.86-7.13-5.36s-9.06-8.93-9.27-11.94a197.39,197.39,0,0,1-.11-25.26c10.48-18.92,25.72-35.14,44.5-45.88Zm55.54,102.43c3.15-2.44,4-6.57,2-9.23s-6.28-2.85-9.43-.41-4,6.57-2,9.23S101.44,973.14,104.59,970.71Zm-56.2-9.64c3.15-2.44,4-6.57,2-9.23s-6.3-2.84-9.45-.4-4,6.57-2,9.22S45.24,963.51,48.39,961.07Z"/><path class="cls-7" d="M191.74,881.57a12.85,12.85,0,0,1,.17,5.25l-.08.36C186,885.62,180.38,884,176,882.66a28.54,28.54,0,0,1,6.6-4.73C186.59,875.87,191,877.68,191.74,881.57Z"/><path class="cls-3" d="M187.93,636.45Q174.73,666.2,161.5,696c-5,11.29-10,22.59-14.85,34q-7.54,17.85-14.39,36a209.64,209.64,0,0,0-96.69-14.31A25.2,25.2,0,0,0,35.5,745c-.44-2.92-1.52-5.62-1.71-8.6-.3-4.88,1.83-9.94,3.86-14.82A673,673,0,0,0,74.09,606.65c2.19-10,6.37-19.57,11.47-28.92a245.61,245.61,0,0,1,101.83,58.2C187.58,636.1,187.75,636.26,187.93,636.45Z"/><path class="cls-7" d="M174.2,982.19c-4.37,2.81-11.84,10.66-15.93,8.46s-6.49-6.57-7.9-11C158.49,980.82,166.17,981.46,174.2,982.19Z"/><path class="cls-2" d="M161.92,777.94c-4.26,16.56-13.19,32.85-16.13,49.56-.94,5.24-1.26,10.47-2.24,15.68a73,73,0,0,1-6.79,20.24A170.63,170.63,0,0,0,103,855.87q12.54-45.61,29.28-89.93,2.94,1.18,5.84,2.49C145,771.49,155.71,773.18,161.92,777.94Z"/><path class="cls-4" d="M132.26,765.94Q115.54,810.18,103,855.87c-19.91-2.22-40.11.1-53.93,12.41L45.7,866.7c-18.78,10.74-34,27-44.5,45.88C2.31,892.87,6,873.65,9.71,852.53c2.14-12,5.42-24,8.71-35.95q7.3-26.67,14.63-53.3a74.66,74.66,0,0,0,2.52-11.65A209.64,209.64,0,0,1,132.26,765.94Z"/><path class="cls-5" d="M106.57,961.48c2.05,2.66,1.17,6.79-2,9.23s-7.38,2.25-9.43-.41-1.19-6.79,2-9.23S104.5,958.8,106.57,961.48Z"/><path class="cls-5" d="M50.37,951.84c2.05,2.66,1.17,6.79-2,9.23S41,963.32,39,960.66s-1.19-6.79,2-9.22S48.3,949.17,50.37,951.84Z"/><path class="cls-12" d="M335.56,45l-1.67-.32c1-5.36,2.11-10.23,3.33-14.89l1.64.43C337.65,34.85,336.57,39.69,335.56,45Z"/><path class="cls-12" d="M399.48,370.42a65.25,65.25,0,0,1-25.16-5.56c-11.57-4.9-21.93-12.33-31.95-19.51a146.69,146.69,0,0,1-18.87-16c-10.11-10.19-17.28-20.81-21.32-31.56-5.12-13.58-9.54-34.33-10.75-50.46C290.05,229,289.3,218.92,288.8,200c-.43-16,2.42-31.89,5.37-46.77,5.52-27.86,13.62-55.75,35.24-71.15a274.54,274.54,0,0,1,4.46-37.3l1.67.32a271.38,271.38,0,0,0-4.46,37.46V83l-.35.24c-21.38,15-29.4,42.68-34.89,70.34-2.93,14.78-5.76,30.55-5.34,46.39.5,18.9,1.25,29,2.63,47.31,1.19,16,5.57,36.53,10.65,50,4,10.53,11,20.95,20.94,31A144.16,144.16,0,0,0,343.36,344c9.94,7.12,20.22,14.49,31.62,19.33,8.72,3.71,21.93,7.45,35.35,4.12.18,0,.3-.07.42-.1l.11,0c10.16-2.68,19-9.1,26.83-14.77,12-8.7,24.49-18.14,34.22-29.56l1.29,1.09c-9.86,11.57-22.46,21.08-34.52,29.84-7.93,5.76-16.92,12.28-27.39,15a4.42,4.42,0,0,1-.61.15A46.37,46.37,0,0,1,399.48,370.42Z"/><path class="cls-12" d="M473.2,324.05l-1.29-1.1c1.17-1.37,2.18-2.62,3.09-3.82a78.8,78.8,0,0,0,12.15-22.31l1.6.56a80.28,80.28,0,0,1-12.41,22.77C475.42,321.38,474.39,322.65,473.2,324.05Z"/><path class="cls-12" d="M186.42,454.39l-.84,0c-2-20.18,7.28-39.2,17.78-58.53l1.6-2.94c11.84-21.74,24.08-44.22,20.94-68.07-.83-6.24-2.74-12.39-4.59-18.34C220.16,302.8,219,299,218,295.15a92.93,92.93,0,0,1,2.12-50.34,187,187,0,0,1,9.3-21.63c4.54-9.42,9.23-19.16,11.41-29.48,2.6-12.31,1.58-25.21.6-37.68-.89-11.29-1.81-23-.09-34.32C245.78,92.6,267,68.5,284,49.13c6.22-7.06,13.27-15.08,22.23-19.92,12-6.47,22.84-4.62,29.06-.7l2.33.54c9.26-17.26,30-28.63,53.16-29s44.53,8.89,60.71,17c22.06,11.09,38.34,22.42,51.24,35.67,19.32,19.82,31.51,45.13,40,65,4.48,10.48,9.31,22.75,10,35.59.18,3.58,0,7.21-.12,10.72a95.94,95.94,0,0,0,.05,12.8c1.4,15.37,9.66,28.22,18.4,41.84,5.5,8.55,11.18,17.4,14.93,26.88,10.11,25.49,5.85,54.31.35,79.14l-.66,2.95c-4.69,21.06-9.54,42.84-.62,61.73,2.41,5.11,5.8,9.8,9.09,14.34,1.88,2.6,3.82,5.29,5.57,8,8.17,12.82,12.16,24.37,12.93,37.44l-1.69.1c-.75-12.77-4.66-24.07-12.67-36.63-1.72-2.71-3.65-5.38-5.52-7.95-3.33-4.61-6.77-9.36-9.24-14.61-9.17-19.43-4.25-41.49.5-62.83l.66-2.94c5.44-24.58,9.67-53.09-.27-78.16-3.69-9.32-9.33-18.1-14.78-26.59-8.47-13.18-17.23-26.82-18.67-42.6a99.29,99.29,0,0,1,0-13c.14-3.47.29-7.06.12-10.57-.64-12.56-5.42-24.66-9.84-35-8.4-19.71-20.5-44.84-39.62-64.46-12.77-13.11-28.91-24.34-50.79-35.34-16-8-37.28-17.26-59.92-16.84s-43.17,11.66-52,28.7l-.3.58-4-1c-7.28-4.67-18.07-4.4-27.47.68-8.7,4.7-15.64,12.59-21.77,19.55-16.87,19.2-37.87,43.09-42.19,71.7-1.69,11.16-.78,22.74.1,33.94,1,12.59,2,25.61-.64,38.16-2.22,10.52-7,20.35-11.53,29.86a184.79,184.79,0,0,0-9.22,21.44,91.06,91.06,0,0,0-2.08,49.4c.92,3.78,2.1,7.57,3.24,11.24,1.87,6,3.8,12.23,4.65,18.62,3.21,24.4-9.17,47.12-21.13,69.1l-1.6,2.94c-10.37,19.08-19.52,37.85-17.58,57.64Z"/><path class="cls-12" d="M519.71,335.27c-10.73-10.23-24.09-23-32.5-37.75a74.58,74.58,0,0,1-6-13.52c-5.3-16.16-4.12-33.54-3-50.35,1.08-15.91,2.2-32.35-2.2-47.65-2.16-7.48-5.38-13.39-9.57-17.57-3.61-3.6-8.2-6.18-12.63-8.68-2.34-1.31-4.76-2.67-7-4.18a57.63,57.63,0,0,1-25.48-46.29c0-2.85.11-5.76.26-8.56.32-5.87.65-11.93-1-17.55A25.17,25.17,0,0,0,417,75.9c-6.67-9.61-20.27-15.32-33.86-14.24a58.08,58.08,0,0,0-11.44,2.11c-10.74,3.07-20.61,8.64-31.48,15.08l-.66.38-.36.22-2.37-.86-.12-.42c-.05-.16-4.58-16.19-2.88-33.34l0-.19a59.55,59.55,0,0,1,3.36-14.92l1.58.59a57.61,57.61,0,0,0-3.26,14.62l0,.2a99.71,99.71,0,0,0,2.72,32.16l.81.29.36-.2c10.94-6.48,20.91-12.12,31.85-15.24A60,60,0,0,1,383,60c14.16-1.14,28.37,4.88,35.38,15a27.12,27.12,0,0,1,3.74,7.76c1.74,5.9,1.4,12.11,1.07,18.12-.15,2.78-.31,5.65-.25,8.44a55.89,55.89,0,0,0,24.71,44.91c2.23,1.47,4.62,2.81,6.93,4.12,4.53,2.55,9.22,5.19,13,8.95,4.39,4.38,7.76,10.54,10,18.3,4.48,15.58,3.35,32.18,2.26,48.23-1.13,16.65-2.3,33.87,2.9,49.72a72.44,72.44,0,0,0,5.91,13.2c8.28,14.57,21.53,27.21,32.18,37.36Z"/><path class="cls-12" d="M338,79.41l-.35-1.66.46-.1.49-.12c.35-.08.72-.17,1.11-.24a297.58,297.58,0,0,1,32.6-5.65c4-.46,7.54-.74,10.9-.85A114.17,114.17,0,0,1,418,74.6c.27.06.59.15.9.24l-.45,1.63c-.3-.08-.59-.17-.87-.23a112.63,112.63,0,0,0-34.29-3.76c-3.33.11-6.85.39-10.78.85A292.18,292.18,0,0,0,340,79c-.4.07-.74.15-1.08.23l-.46.11Z"/><path class="cls-12" d="M273.26,439.56v-1.7h.1a38.21,38.21,0,0,0,19.21-6,33.89,33.89,0,0,0,5.45-4.23c.48-.47.86-.8,1.21-1.1a14.4,14.4,0,0,0,1.66-1.66l.2-.24,1.33,1.05-.28.33a15.85,15.85,0,0,1-1.8,1.79c-.32.29-.69.61-1.15,1a35.79,35.79,0,0,1-5.72,4.44,40,40,0,0,1-20.11,6.28Z"/><path class="cls-12" d="M308.51,417.35l-1.39-1a31.49,31.49,0,0,0,3.66-6.74c.43-1,.92-2.14,1.61-3.59,12.45-26.32,16.2-53.57,10.56-76.73l1.64-.4c5.74,23.53,2,51.18-10.67,77.86-.68,1.42-1.16,2.54-1.58,3.53A33.93,33.93,0,0,1,308.51,417.35Z"/><path class="cls-12" d="M521.54,432.48a80.94,80.94,0,0,1-17.73-11.31,99.62,99.62,0,0,1-7.65-7.17l1.19-1.2h0a96.32,96.32,0,0,0,7.53,7.06A78.81,78.81,0,0,0,522.26,431Z"/><path class="cls-12" d="M489.24,406.5c-10.69-12.1-16.86-24.14-18.86-36.81-1.48-9.51-2.84-19.59-1.88-29.21a113.6,113.6,0,0,1,3.25-17.22l.78.25h.87l0,.27a112.24,112.24,0,0,0-3.19,16.88c-.94,9.42.41,19.38,1.88,28.78,1.94,12.33,8,24.1,18.45,35.95Z"/><path class="cls-12" d="M504.66,421.21l-.37-1.65a33.16,33.16,0,0,1,14.26-.41,7.72,7.72,0,0,1,1.5.45l-.63,1.57a6.64,6.64,0,0,0-1.18-.36A31.61,31.61,0,0,0,504.66,421.21Z"/><path class="cls-12" d="M394.87,502.12a221.08,221.08,0,0,1-54.89-6.9c-4.57-1.16-9.21-2.51-13.78-4l-.27-.09-.34-.11c-15.67-5.17-27-11.22-35.71-19-10.26-9.23-16.59-21.33-17.37-33.23a31.22,31.22,0,0,1-.06-3.89,5.5,5.5,0,0,1,1.06-3.6,1.47,1.47,0,0,1,.34-.32,6,6,0,0,1,3.33-1.29,31.9,31.9,0,0,1,16.07,2l-.63,1.58a30.08,30.08,0,0,0-15.2-1.86,4.44,4.44,0,0,0-2.46.89l-.15.11a4.25,4.25,0,0,0-.67,2.59,32.42,32.42,0,0,0,.06,3.71c.75,11.47,6.88,23.16,16.81,32.09,8.5,7.64,19.67,13.58,35.14,18.69l.27.08.33.11c4.51,1.48,9.11,2.82,13.65,4a220.1,220.1,0,0,0,99.07,2.28c2.5-.52,5.06-1.09,7.6-1.72,1.71-.42,3.19-.8,4.55-1.18,16-4.31,28.41-10.06,38-17.58a82.22,82.22,0,0,0,13.92-14c6.29-8,11.86-17.51,17.56-30,.42-.9.81-1.76,1.2-2.63a5.76,5.76,0,0,0-2.64-7.43l.76-1.52a7.47,7.47,0,0,1,3.42,9.64c-.38.87-.78,1.74-1.19,2.62-5.76,12.63-11.41,22.27-17.78,30.36a83.73,83.73,0,0,1-14.21,14.31c-9.79,7.67-22.43,13.52-38.62,17.88-1.37.38-2.87.77-4.59,1.19-2.57.64-5.15,1.22-7.67,1.74A220.89,220.89,0,0,1,394.87,502.12Z"/><path class="cls-12" d="M603.11,591.54c-.59-39.34,22.39-90.51,60.55-104.6l.58,1.58c-29.17,10.77-60.19,53.21-59.44,103Z"/><path class="cls-12" d="M199,602.57h-1.69c0-15.1-11.19-38.38-17.8-49.75a167.92,167.92,0,0,1-7.88-16.5C164,518.85,155.36,499,136.9,491.89l.61-1.58c19.12,7.4,27.92,27.55,35.69,45.33A168.18,168.18,0,0,0,181,552C187.69,563.49,199,587.11,199,602.57Z"/><path class="cls-12" d="M396.05,535.18c-28,0-51.93-3.63-72.68-11C293.05,513.34,269,494,255.67,469.8l1.48-.82c13.15,23.88,36.86,42.9,66.78,53.58,24.05,8.57,52.38,12,86.62,10.62l.07,1.69Q403.15,535.19,396.05,535.18Z"/><path class="cls-12" d="M438.34,552.62l-.45-1.63c9.65-2.67,19.73-5,29.46-7.18,31.06-7.07,63.17-14.39,87.27-35,14.08-12,24.57-28.11,33.31-42.24l1.44.89c-8.8,14.24-19.39,30.45-33.65,42.63-24.42,20.87-56.74,28.23-88,35.35C458,547.67,448,550,438.34,552.62Z"/><path class="cls-12" d="M484,601.51A399.39,399.39,0,0,1,303.11,558.2c-14.17-7.24-28.24-15.9-35.19-30.05l1.52-.75c6.74,13.71,20.53,22.18,34.44,29.29a397.17,397.17,0,0,0,229.7,40l.21,1.68A388.44,388.44,0,0,1,484,601.51Z"/><path class="cls-12" d="M402.4,469.63a24.54,24.54,0,0,1-20.21-11l1.42-.92a22.3,22.3,0,0,0,37.81-.5l1.45.88a24.48,24.48,0,0,1-20.18,11.53Z"/><path class="cls-12" d="M318.39,453.94l-.26-1.67c3.53-.55,6.88-1.15,10.12-1.73,5.42-1,10.53-1.88,16.31-2.56,6.38-.73,13.06-1,18.8,2l-.79,1.49c-5.33-2.81-11.71-2.55-17.81-1.85-5.73.68-10.82,1.58-16.21,2.55C325.3,452.79,321.94,453.39,318.39,453.94Z"/><path class="cls-12" d="M297.94,456c-2.17,0-4.45-.09-6.94-.3l.14-1.69a81.23,81.23,0,0,0,18.4-.52l.15,0,.38,1.66-.21,0-.21-.83.1.84A91.32,91.32,0,0,1,297.94,456Z"/><rect class="cls-12" x="493.24" y="441.44" width="1.69" height="14.17" transform="translate(39.68 937.22) rotate(-89.32)"/><path class="cls-12" d="M437.53,451l-.8-1.49c4.73-2.55,10.46-2.47,15.06-2.41l13.64.18,13.74.18,0,1.69L465.41,449l-13.64-.17C447.37,448.78,441.87,448.7,437.53,451Z"/><path class="cls-12" d="M440.23,497.29,439,496.1l0,0a314.27,314.27,0,0,0,30.78-35.63c3.55-4.77,6.28-8.76,8.61-12.55.54-.87,1.06-1.75,1.58-2.64a85.59,85.59,0,0,0,4.79-9.59c4.08-9.69,5.63-19.42,4.48-28.11-.06-.49-.14-1-.24-1.45-.48-2.45-1.29-4.08-2.56-5.12l-1-.84,1.2-.57A5.93,5.93,0,0,1,490,399a5.47,5.47,0,0,1,2.8,1.68c1.43,1.34,3.39,3.17,4,5.58a1.84,1.84,0,0,1,.12.42l-1.67.3-.08-.27c-.4-1.79-1.82-3.23-3.49-4.8a4.16,4.16,0,0,0-1.9-1.24,3.35,3.35,0,0,0-1.16.07,11.29,11.29,0,0,1,2.13,5.08c.1.52.19,1,.26,1.56,1.18,9-.41,19-4.6,29a89.84,89.84,0,0,1-4.88,9.78c-.54.91-1.06,1.79-1.61,2.68-2.35,3.83-5.11,7.86-8.69,12.67A315,315,0,0,1,440.23,497.29Z"/><path class="cls-12" d="M452.51,494.31l-1.32-1.07c2.77-3.44,5.57-6.66,8.28-9.78s5.6-6.44,8.4-9.92c5.67-7.05,12.09-15,17.27-23.63.39-.63.76-1.25,1.13-1.89,1-1.8,2-3.59,2.85-5.33,4.86-9.94,7.22-20.05,6.8-29.24a41.88,41.88,0,0,0-.84-6.78l1.66-.34a45.31,45.31,0,0,1,.88,7c.42,9.48-2,19.87-7,30.06-.87,1.78-1.85,3.61-2.91,5.44-.37.65-.75,1.29-1.15,1.92-5.23,8.69-11.69,16.72-17.39,23.81-2.82,3.5-5.67,6.79-8.44,10S455.26,490.89,452.51,494.31Z"/><path class="cls-12" d="M339.62,495l-.07-.08c-8.8-10.29-15.61-23.11-22.08-41.57-3.22-9.13-6-18.76-8.76-28.07l-.47-1.62a25.35,25.35,0,0,1-1.27-6.82,9.16,9.16,0,0,1,1.09-4.6,1.41,1.41,0,0,1,.14-.26l1.52.75-.06.12a.64.64,0,0,0-.08.14,7.57,7.57,0,0,0-.92,3.85,24.27,24.27,0,0,0,1.2,6.34l.48,1.62c2.72,9.29,5.53,18.9,8.72,28,6.41,18.25,13.12,30.91,21.78,41Z"/><path class="cls-12" d="M326.12,491.52l-.11-.18c-.11-.18-.21-.37-.31-.56a224.06,224.06,0,0,1-16.85-36.17,209.78,209.78,0,0,1-8.15-29l-.2-1,1.66-.35.2,1A206.67,206.67,0,0,0,310.44,454a223.34,223.34,0,0,0,16.75,36,5.45,5.45,0,0,0,.29.51l.1.19Z"/><path class="cls-12" d="M302.2,424.71h-1.7v-.07a1.62,1.62,0,0,1,0-.22,18.26,18.26,0,0,1,.25-5,10.23,10.23,0,0,1,7.91-7.53l.3,1.67a8.48,8.48,0,0,0-6.56,6.25,17,17,0,0,0-.21,4.6v.12A1.5,1.5,0,0,1,302.2,424.71Z"/><path class="cls-12" d="M320.42,1124.43l6.34-3.15a312.59,312.59,0,0,0,84.62-61.68,310,310,0,0,0,37.56-46.49l1.41.94a312,312,0,0,1-37.76,46.74,314.17,314.17,0,0,1-78.76,58.78,335.83,335.83,0,0,0,130.35-65.8,330,330,0,0,0,55.92-58.49l1.36,1a331.32,331.32,0,0,1-56.21,58.79,337,337,0,0,1-137.92,67.78Z"/><path class="cls-12" d="M306.52,1259.5v-1.7c68.08-.58,136.39-19.18,197.55-53.78l.83,1.47C443.49,1240.24,374.89,1258.91,306.52,1259.5Z"/><path class="cls-12" d="M504.91,1205.49l-.83-1.47a408.75,408.75,0,0,0,101.47-80.78c7-7.64,13.64-15.59,19.83-23.62l1.34,1c-6.22,8.06-12.92,16-19.92,23.72A410.22,410.22,0,0,1,504.91,1205.49Z"/><path class="cls-12" d="M455.78,1251.8l-.62-1.58c14.3-5.56,29.41-9.37,44-13.06,11.75-3,23.9-6,35.54-10,25.9-8.83,45.14-21.39,57.19-37.33a71.84,71.84,0,0,0,6.83-10.88l1.51.77a74.38,74.38,0,0,1-7,11.13c-12.26,16.22-31.77,29-58,37.92-11.71,4-23.89,7-35.68,10C485,1242.48,470,1246.27,455.78,1251.8Z"/><path class="cls-12" d="M277.72,1174.49a281.06,281.06,0,0,1-92-108.39l1.52-.73a279.56,279.56,0,0,0,91.47,107.74Z"/><path class="cls-12" d="M247.68,1163.57a103.25,103.25,0,0,1-69.48-49.82l1.48-.84a101.5,101.5,0,0,0,68.32,49Z"/><path class="cls-12" d="M153.85,667.4l-2-3.16a95.29,95.29,0,0,0-42.51-36l.66-1.55A97.06,97.06,0,0,1,151.1,660.1c-3.87-20-17.74-36.38-34.06-54.1-4.14-4.47-8.29-8.54-13.55-9.14l.2-1.69c5.84.68,10.23,5,14.59,9.69,17.54,19,32.29,36.61,35.1,58.81Z"/><path class="cls-12" d="M702.89,1296.61H111.31a.84.84,0,0,1-.67-.33.82.82,0,0,1-.15-.73c4.92-19,10.29-40.48,15.49-61.23,3.31-13.23,6.62-26.47,9.86-39.24,2.3-9.09,4.37-17.16,6.32-24.68,3-11.6,6.09-23.61,11.29-34.72.78-1.67,1.63-3.36,2.45-5,3.66-7.33,7.45-14.9,6.92-22.91a44.54,44.54,0,0,0-.87-5.73,43.48,43.48,0,0,1-.92-6.5c-.35-8.16,3.73-15.54,7.67-22.68l.78-1.41a.36.36,0,0,1,.08-.12c2.72-3.43,2.83-9.26,2.92-13.94l0-1.22c0-1.34-.07-2.72-.16-4.06a32.44,32.44,0,0,1,0-6.31c0-.17,0-.34.08-.54.78-5,3.89-9.09,6.89-13.06.94-1.25,1.92-2.53,2.79-3.82,6.84-10.08,11.19-22.79,12.93-37.78.23-2.06.54-4,.95-6a75,75,0,0,1,3.45-12.27c6.82-18.23,11.25-37.83,13.52-59.9,0-.12,0-.24,0-.34.21-2.09.41-4.22.63-6.81.31-3.83.53-7.28.67-10.55.07-.86.1-1.67.13-2.5,1.48-34.32-1.77-69-5.53-104.39-1.41-13.28-5-21.58-9.22-31.19a176.93,176.93,0,0,1-7.75-20.19c-2.76-9.12-4.8-17.14-5.75-26.65-1.3-13-.29-27.25,3.06-43.65.79-3.89,1.58-7.53,2.35-11.06,1.25-5.78,2.43-11.24,3.4-16.74a150.26,150.26,0,0,0,2.36-22.8.85.85,0,1,1,1.69,0,153.41,153.41,0,0,1-2.38,23.05c-1,5.54-2.16,11-3.42,16.81-.76,3.52-1.55,7.16-2.34,11-3.32,16.23-4.31,30.35-3,43.14.94,9.38,3,17.31,5.7,26.32a172.07,172.07,0,0,0,7.68,20c4.07,9.33,7.91,18.15,9.35,31.68,3.76,35.5,7,70.21,5.54,104.62,0,.87-.07,1.71-.14,2.56-.14,3.26-.36,6.73-.68,10.58-.21,2.6-.41,4.75-.63,6.76a2.66,2.66,0,0,1,0,.44c-2.29,22.2-6.74,41.93-13.61,60.3a72.51,72.51,0,0,0-3.38,12c-.4,1.91-.7,3.8-.92,5.81-1.78,15.27-6.23,28.24-13.22,38.55-.9,1.31-1.88,2.62-2.84,3.88-2.88,3.8-5.85,7.73-6.57,12.33a2.69,2.69,0,0,0-.06.44,30.18,30.18,0,0,0,0,6c.09,1.37.19,2.79.16,4.21l0,1.21c-.09,4.92-.2,11-3.24,14.9l-.75,1.36c-3.83,6.93-7.79,14.1-7.46,21.79a42.24,42.24,0,0,0,.89,6.24,46.36,46.36,0,0,1,.9,6c.56,8.46-3.33,16.25-7.1,23.77-.81,1.63-1.65,3.31-2.42,5-5.14,11-8.22,22.89-11.2,34.43-1.94,7.51-4,15.58-6.31,24.66-3.23,12.77-6.55,26-9.86,39.24-5.1,20.37-10.38,41.43-15.22,60.19H701.7a732.58,732.58,0,0,1-31.58-121.71l-.21-1.27c-.07-.45-.15-.89-.23-1.33l-1.18-7.43c-.48-3.07-1-6.15-1.47-9.22-2-12.25-4.69-25.19-10.41-36.85-.19-.44-.39-.84-.6-1.22-.55-1.08-1.08-2-1.59-2.8-.35-.58-.69-1.13-1-1.69a13.06,13.06,0,0,1-1.65-5c-1.91-4.46-2.46-11.78-3-19.52-.31-4.09-.63-8.33-1.17-12.22-.93-6.71-3.45-13-5.89-19.14L637.12,1044l-.62-1.56c-.21-.51-.42-1-.62-1.54l-.61-1.54c-.1-.27-.2-.53-.31-.79s-.21-.53-.32-.79c-.2-.55-.42-1.08-.63-1.62l-5.7-14.36-11.55-29.08-3.14-7.92-.78-2c-.26-.64-.51-1.29-.77-1.94a.81.81,0,0,1,0-.53c-10.71-25.52-16.61-54.36-18-88.1a.85.85,0,1,1,1.69-.07c1.45,34.29,7.54,63.48,18.62,89.23a.83.83,0,0,1,0,.62,1.22,1.22,0,0,0,.07.17c.26.65.52,1.3.77,2l3.14,7.92q5.77,14.53,11.56,29.07l5.69,14.36c.22.54.44,1.09.65,1.64.09.25.2.51.3.77s.22.53.32.8l.61,1.53c.2.52.4,1,.61,1.54s.42,1,.62,1.56l4.58,11.52c2.35,5.91,5,12.62,6,19.53.54,3.94.86,8.2,1.18,12.33.57,7.66,1.12,14.89,3,19.08a.84.84,0,0,1,.06.24,11.57,11.57,0,0,0,1.46,4.5c.3.53.62,1.06,1,1.62.5.83,1.07,1.78,1.64,2.88.22.42.44.86.63,1.3,5.8,11.83,8.5,24.92,10.55,37.29q.75,4.62,1.47,9.24l1.18,7.41c.08.43.16.88.23,1.33l.21,1.26a730.83,730.83,0,0,0,31.9,122.56.87.87,0,0,1-.1.77A.84.84,0,0,1,702.89,1296.61Z"/><path class="cls-12" d="M594.86,893.09a.85.85,0,0,1-.84-.81c0-1.18-.09-2.33-.12-3.5-.16-4.63-.24-9.48-.24-14.81.05-27.83,2.73-55.92,5.24-80.06.13-1.16.25-2.29.37-3.44.05-.46.1-.92.14-1.37l.15-1.38a82.86,82.86,0,0,1,4.14-18.79c1.54-4.47,3.32-8.55,5.2-12.88a174,174,0,0,0,7.69-20,130.63,130.63,0,0,0,5.67-26.23c1.3-12.79.31-26.93-3-43.23-1.39-6.77-3.17-12.85-4.88-18.73a162.71,162.71,0,0,1-5.24-21.49,80.89,80.89,0,0,1-1-10.68.85.85,0,1,1,1.69,0,83,83,0,0,0,.95,10.46A163.44,163.44,0,0,0,616,647.36c1.73,5.91,3.52,12,4.92,18.86,3.35,16.47,4.35,30.78,3,43.74a133.32,133.32,0,0,1-5.74,26.56,176.12,176.12,0,0,1-7.76,20.21c-1.87,4.29-3.63,8.35-5.15,12.75a81.34,81.34,0,0,0-4.06,18.42c0,.46-.1.92-.14,1.37l-.15,1.38c-.12,1.15-.23,2.29-.37,3.44-2.5,24.09-5.17,52.13-5.23,79.88,0,5.31.08,10.14.24,14.75,0,1.17.07,2.32.12,3.48a.84.84,0,0,1-.81.88Z"/><path class="cls-12" d="M709.58,973.26a8.78,8.78,0,0,1-5.34-1.88h0a8.7,8.7,0,0,1-3.37-5.67,6.25,6.25,0,0,1,5.52-7.14,8.65,8.65,0,0,1,6.34,1.83c3.51,2.72,4.46,7.39,2.13,10.42A6.6,6.6,0,0,1,709.58,973.26Zm-4.3-3.22c2.77,2.14,6.46,2,8.24-.26s.94-5.89-1.83-8a6.93,6.93,0,0,0-5.08-1.49,4.55,4.55,0,0,0-4.06,5.25,7,7,0,0,0,2.73,4.54Z"/><path class="cls-12" d="M765.78,963.62a8.78,8.78,0,0,1-5.34-1.88,8.68,8.68,0,0,1-3.37-5.66,6.38,6.38,0,0,1,1.24-4.76,6.45,6.45,0,0,1,4.31-2.39,9,9,0,0,1,9.67,7.5,6.34,6.34,0,0,1-1.23,4.75A6.57,6.57,0,0,1,765.78,963.62Zm-2.2-13.06a6.3,6.3,0,0,0-.75.05,4.66,4.66,0,0,0-3.18,1.75,4.73,4.73,0,0,0-.9,3.51,7,7,0,0,0,2.73,4.53c2.77,2.15,6.46,2,8.24-.25h0a4.69,4.69,0,0,0,.89-3.51,6.94,6.94,0,0,0-2.72-4.53A7.14,7.14,0,0,0,763.58,950.56Z"/><path class="cls-12" d="M656,1001.61c-8.27,0-13.18-7.16-17.25-13.09a53.07,53.07,0,0,0-4.3-5.75l-.08-.1a.6.6,0,0,1-.11-.13.84.84,0,0,1,.06-1,.86.86,0,0,1,1-.2,1.8,1.8,0,0,1,.31.2c1.12.72,2.49,1.8,3.93,3,3.81,3,8.55,6.8,11.08,5.44,3.36-1.81,5.87-5.36,7.49-10.55,5.38-17.09,3.27-29.75-3.15-50l-.62-1.94c-4.78-15.12-10.73-34-21.61-44.09a27.86,27.86,0,0,0-6.39-4.61,6.15,6.15,0,0,0-5.22-.34,4.47,4.47,0,0,0-2.59,2.88,2.24,2.24,0,0,0-.13.49,12,12,0,0,0-.18,4.93.84.84,0,0,1-.63,1,.85.85,0,0,1-1-.62c-.5-2-.87-3.78-1.13-5.4-.2-1.19-.34-2.12-.44-3a9,9,0,0,1,2.64-7.77,10.24,10.24,0,0,1,9-2.39l3.43.65c6.07,1.17,12.34,2.38,18.15,1.64,4.34-.55,8.36-2.21,12.24-3.81,1.51-.62,3.06-1.26,4.62-1.83,2.32-.87,4.73-1.7,7.17-2.49,17.79-5.82,61.94-17.09,87.36,4a43.84,43.84,0,0,1,5.64,5.6.84.84,0,1,1-1.29,1.09,41.15,41.15,0,0,0-5.43-5.38c-24.77-20.61-68.23-9.48-85.76-3.75-2.42.78-4.81,1.61-7.1,2.46-1.53.57-3.07,1.2-4.56,1.82-4,1.64-8.11,3.34-12.68,3.92-6.07.78-12.48-.46-18.68-1.66l-3.42-.65a8.54,8.54,0,0,0-7.56,2,7.18,7.18,0,0,0-2.13,6.33c.07.65.17,1.33.29,2.11a6.16,6.16,0,0,1,3.48-3.73,7.83,7.83,0,0,1,6.66.4,28.84,28.84,0,0,1,6.78,4.88c11.2,10.43,17.22,29.5,22.07,44.81l.61,1.94c8.15,25.74,7.45,37.39,3.15,51.06-1.75,5.62-4.54,9.5-8.3,11.53-3.28,1.77-7.86-1.59-12.05-4.91l.74,1.08c4.74,6.91,10.11,14.74,20.3,11.64a34.13,34.13,0,0,0,7.43-3.64l.17-.11c10.37-6.24,23.32-8,35.85-9.77,4-.56,8.2-1.13,12.21-1.85,22.74-4.09,43.33-13.4,62.2-22.85,4.35-2.19,8.7-4.41,12.94-6.6,2.47-1.26,5.26-2.7,6.79-5.07a34.82,34.82,0,0,1,3.31-3.81c2.28-2.42,5.71-6.06,5.84-7.73a204.77,204.77,0,0,0-.49-33.34c-1.35-14.93-4-29.84-6.83-45.63l-1.09-6.13c-2.12-12-5.45-24.15-8.67-35.87q-7.3-26.67-14.63-53.31c-1.61-5.88-3.43-12.54-2.49-18.67.08-.53-.22-.84-1.38-1.44l-.19-.09c-1.18-.61-2.8-1.44-2.55-3.33.08-.54.29-.7,3.23-2.41.87-.5,2.13-1.24,2.62-1.58.16-4.58-1.84-9.4-3.79-14.06a674.75,674.75,0,0,1-36.52-115.09c-2.28-10.37-6.87-21.21-14.45-34.09-4.1-7-8.72-14-13.17-20.85q-2.31-3.5-4.57-7l-12.09-18.66-12.57-19.39c-2.17-3.33-4.63-7.11-5.63-11.16a5.21,5.21,0,0,1-.13-.67,35.45,35.45,0,0,1-.6-4.93c-.06-.9-.13-1.83-.24-2.73a.85.85,0,0,1,1.69-.21c.11,1,.18,1.9.24,2.82a33.37,33.37,0,0,0,.57,4.74.52.52,0,0,1,0,.11,2.83,2.83,0,0,0,.08.4c1,3.83,3.33,7.48,5.42,10.71l12.57,19.39L703.64,544q2.26,3.48,4.56,7c4.47,6.82,9.1,13.86,13.22,20.92,7.67,13,12.32,24,14.64,34.59a674.59,674.59,0,0,0,36.41,114.74c2.09,5,4.23,10.14,3.93,15.2,0,.59-.25.76-3.45,2.62-.84.48-1.93,1.12-2.4,1.44.07.44.55.76,1.65,1.32l.19.09c1,.5,2.56,1.33,2.27,3.21-.88,5.77.89,12.25,2.46,18q7.3,26.66,14.62,53.31c3.24,11.76,6.58,23.92,8.71,36l1.09,6.13c2.82,15.83,5.49,30.77,6.84,45.78a207,207,0,0,1,.5,33.61c-.17,2.27-3.43,5.72-6.3,8.77a34.12,34.12,0,0,0-3.11,3.56c-1.78,2.76-4.79,4.31-7.44,5.67-4.24,2.18-8.6,4.41-13,6.6-19,9.51-39.71,18.88-62.66,23-4,.72-8.23,1.3-12.28,1.86-12.35,1.71-25.13,3.48-35.21,9.55l-.17.1a36,36,0,0,1-7.8,3.81A17,17,0,0,1,656,1001.61ZM774.71,736.3v0Z"/><path class="cls-12" d="M671.79,488a.85.85,0,0,1-.84-.74,17.63,17.63,0,0,0-.52-2.64c-1.92-6.93-8.61-12.26-14.51-17a15.87,15.87,0,0,0-7-3.15c-10.6-2-20.84-6.73-30.75-11.36q-3.39-1.59-6.8-3.14c-6.75-3-14.76-6.37-23-8l-2.26-.4a33.67,33.67,0,0,1-8.61-2.3,34.81,34.81,0,0,1-4.07-2.4c-.79-.52-1.61-1.06-2.43-1.53-5.39-3.1-11.8-4.1-18-5.06-1.37-.22-2.74-.43-4.1-.66-6.34-1.11-18.58-3.67-29.2-8.34l-.33-.15a.85.85,0,0,1,.66-1.56l.34.15c10.47,4.61,22.55,7.13,28.82,8.23,1.35.23,2.71.44,4.07.65,6.35,1,12.91,2,18.58,5.27.86.5,1.7,1,2.51,1.58a30.71,30.71,0,0,0,3.86,2.28,32.17,32.17,0,0,0,8.18,2.17c.77.13,1.53.26,2.29.41,8.41,1.63,16.53,5,23.37,8.09,2.28,1,4.55,2.09,6.82,3.15,9.81,4.58,20,9.32,30.34,11.23a17.4,17.4,0,0,1,7.74,3.49c6.1,4.86,13,10.37,15.08,17.82a19.84,19.84,0,0,1,.57,2.88.85.85,0,0,1-.73.95Z"/><path class="cls-12" d="M672.74,864.57a.85.85,0,0,1-.76-.47l-.15-.3A73.69,73.69,0,0,1,665,843.34c-.52-2.78-.87-5.61-1.2-8.34-.3-2.41-.61-4.91-1-7.35-1.66-9.31-5.25-18.67-8.72-27.73-3.9-10.17-7.93-20.69-9.27-31.25-.23-1.78-.38-3.58-.53-5.32a59.12,59.12,0,0,0-1.62-11,31.24,31.24,0,0,0-1-3.11A87.7,87.7,0,0,0,634.82,736a109,109,0,0,1-6-11.29c-.52-1.22-1.07-2.6-1.65-4a73.86,73.86,0,0,0-4.77-10.4.85.85,0,0,1,.27-1.17.86.86,0,0,1,1.17.28,74,74,0,0,1,4.9,10.66c.57,1.42,1.12,2.78,1.64,4a105.63,105.63,0,0,0,5.91,11.1,88.69,88.69,0,0,1,6.87,13.44c.43,1.11.79,2.21,1.08,3.26a61.65,61.65,0,0,1,1.67,11.33c.15,1.72.3,3.5.52,5.24,1.31,10.36,5.31,20.79,9.17,30.87,3.5,9.12,7.12,18.57,8.8,28,.44,2.49.75,5,1.05,7.44.33,2.7.67,5.5,1.19,8.23a72.25,72.25,0,0,0,6.71,20l.15.3a.85.85,0,0,1-.37,1.13A.88.88,0,0,1,672.74,864.57Z"/><path class="cls-12" d="M761.79,734.58a.81.81,0,0,1-.45-.13c-8-5-18.19-7.82-29.55-8.2a81.81,81.81,0,0,0-13.71.68,68.08,68.08,0,0,0-12.22,2.71.85.85,0,1,1-.54-1.61,69.84,69.84,0,0,1,12.53-2.77,83.22,83.22,0,0,1,14-.71c11.65.4,22.16,3.32,30.39,8.46a.85.85,0,0,1,.26,1.17A.83.83,0,0,1,761.79,734.58Z"/><path class="cls-12" d="M773.83,745.8a.84.84,0,0,1-.69-.35c-.58-.81-1.18-1.57-1.78-2.26s-1.35-1.59-2.25-2.52a42.53,42.53,0,0,0-7.76-6.22.85.85,0,0,1,.9-1.44,44.1,44.1,0,0,1,8.07,6.48c.94,1,1.69,1.8,2.34,2.62s1.24,1.5,1.85,2.35a.84.84,0,0,1-.19,1.18A.82.82,0,0,1,773.83,745.8Z"/><path class="cls-12" d="M594.69,893.12a.88.88,0,0,1-.87-.67.82.82,0,0,1,.63-1l.17,0,.11,0c5.91-1,13.72-2.71,22.57-5,5.19-1.38,10.78-3,15.75-4.48a.85.85,0,0,1,.7,1.54l-.15.06c-5,1.52-10.64,3.13-15.86,4.51-8.83,2.33-16.63,4.08-22.59,5.06a.88.88,0,0,1-.29.05Zm.17-.88h0Z"/><path class="cls-12" d="M614.17,985.39l-.17-.83-.11-.84.41-.05c7.49-1.08,14.35-1.75,20.64-2.3l.21,0,2.15-.2c7.3-.66,14.2-1.28,21.53-2.36a.84.84,0,1,1,.25,1.67c-7.38,1.09-14.3,1.72-21.63,2.38l-2.16.19-.14,0c-6.29.55-13.14,1.21-20.63,2.29Z"/><path class="cls-12" d="M99.76,973.27a7.77,7.77,0,0,1-1-.06,6.25,6.25,0,0,1-5.54-7.16,9,9,0,0,1,9.68-7.49,6.43,6.43,0,0,1,4.31,2.4c2.33,3,1.38,7.7-2.13,10.42h0A8.88,8.88,0,0,1,99.76,973.27ZM102,960.2a7.11,7.11,0,0,0-4.31,1.54,6.93,6.93,0,0,0-2.73,4.52A4.57,4.57,0,0,0,99,971.53a7,7,0,0,0,5.06-1.49h0c2.77-2.15,3.59-5.76,1.83-8a4.66,4.66,0,0,0-3.18-1.75A6.28,6.28,0,0,0,102,960.2Z"/><path class="cls-12" d="M43.56,963.63a7.77,7.77,0,0,1-1-.06,6.25,6.25,0,0,1-5.54-7.16,9,9,0,0,1,9.68-7.48,6.43,6.43,0,0,1,4.31,2.4h0c2.33,3,1.37,7.69-2.13,10.41A8.82,8.82,0,0,1,43.56,963.63Zm2.2-13.07a7.15,7.15,0,0,0-4.32,1.55,6.88,6.88,0,0,0-2.71,4.52,4.54,4.54,0,0,0,4.08,5.26,6.93,6.93,0,0,0,5.06-1.49c2.77-2.14,3.59-5.75,1.83-8h0a4.72,4.72,0,0,0-3.19-1.75A6.3,6.3,0,0,0,45.76,950.56Z"/><path class="cls-12" d="M191.91,887.67a.63.63,0,0,1-.19,0,.84.84,0,0,1-.64-1,12.11,12.11,0,0,0-.17-4.92,4.5,4.5,0,0,0-2.5-3.27,6.13,6.13,0,0,0-5.44.23,28.11,28.11,0,0,0-6.41,4.59A.85.85,0,1,1,175.4,882a29.5,29.5,0,0,1,6.8-4.86,7.72,7.72,0,0,1,7-.25,6.23,6.23,0,0,1,3.17,3.56c.11-.7.21-1.4.3-2.09a7.23,7.23,0,0,0-2.15-6.34,8.56,8.56,0,0,0-7.56-1.95l-3.38.64c-6.21,1.21-12.64,2.45-18.71,1.67-4.58-.58-8.72-2.29-12.72-3.94-1.48-.61-3-1.24-4.51-1.79-2.3-.86-4.68-1.69-7.1-2.46a170.28,170.28,0,0,0-33.61-7.52c-23.35-2.6-41.27,1.5-53.28,12.2a43.8,43.8,0,0,0-4.3,4.43.85.85,0,0,1-1.3-1.08,44.28,44.28,0,0,1,4.48-4.61c12.38-11,30.74-15.28,54.58-12.62a171.9,171.9,0,0,1,34,7.58c2.44.79,4.85,1.62,7.17,2.49,1.54.57,3.07,1.2,4.56,1.81,3.9,1.61,7.94,3.28,12.3,3.83,5.8.74,12.08-.47,18.16-1.65,1.14-.22,2.27-.44,3.4-.64a10.27,10.27,0,0,1,9,2.38,9,9,0,0,1,2.66,7.78,77.07,77.07,0,0,1-1.58,8.41A.84.84,0,0,1,191.91,887.67Z"/><path class="cls-12" d="M153.33,1001.61a16.85,16.85,0,0,1-4.93-.78,35,35,0,0,1-7.72-3.76l-.26-.15c-10.08-6.07-22.86-7.84-35.21-9.55-4-.56-8.23-1.14-12.27-1.86-27.77-5-52.09-17.51-75.62-29.61-2.67-1.37-5.69-2.92-7.46-5.67a35,35,0,0,0-3.1-3.55c-2.88-3-6.14-6.51-6.29-8.78a198.33,198.33,0,0,1-.12-25.37c1-17.84,4.14-35.42,7.44-54l1.09-6.12c2.15-12.11,5.49-24.27,8.72-36l14.63-53.31a71.63,71.63,0,0,0,2.5-11.51,24.66,24.66,0,0,0-.06-6.45c-.18-1.18-.48-2.37-.77-3.51a28.48,28.48,0,0,1-.95-5.17c-.32-5,1.81-10.12,3.86-15l.06-.15a672.94,672.94,0,0,0,36.4-114.74c2-9.07,5.64-18.33,11.54-29.15,4.89-9,10.71-17.8,16.34-26.37,1.52-2.33,3-4.65,4.56-7l.89-1.38q11.87-18.33,23.76-36.67c2.2-3.4,4.47-6.92,5.39-10.65a26.16,26.16,0,0,0,.61-4.25l.07-1a31.63,31.63,0,0,1,.85-5.93c2.07-7.46,9-13,15.09-17.83a17.38,17.38,0,0,1,7.72-3.49c9.25-1.71,18.26-5.65,26-9.22l4.29-2c9.75-4.54,19.83-9.24,30.28-11.26.75-.15,1.52-.28,2.28-.41a32,32,0,0,0,8.17-2.17,6.61,6.61,0,0,1,1.34-.53l.86-.5c4.5-2.58,7.48-2.64,10.92-2.71a42.09,42.09,0,0,0,6.69-.54,77.12,77.12,0,0,1,10.13-.9c4.48-.19,8.7-.37,13.09-1.78a26.7,26.7,0,0,0,2.84-1.09.85.85,0,0,1,1.12.43.85.85,0,0,1-.43,1.12,29.21,29.21,0,0,1-3,1.15c-4.6,1.48-8.93,1.66-13.52,1.86a76.61,76.61,0,0,0-9.93.88,42.24,42.24,0,0,1-6.93.56c-3.35.07-6,.12-10.11,2.49-1.06.61-1.3.75-1.52.73s-.38.16-.81.37a33.49,33.49,0,0,1-8.6,2.3L221,442c-10.25,2-20.23,6.63-29.88,11.13l-4.3,2c-7.81,3.61-16.94,7.6-26.38,9.34a15.62,15.62,0,0,0-7,3.15c-5.91,4.7-12.6,10-14.52,17a29.63,29.63,0,0,0-.79,5.61l-.08,1a28,28,0,0,1-.64,4.52c-1,4-3.34,7.64-5.62,11.16q-11.9,18.33-23.76,36.67l-.89,1.38c-1.51,2.32-3,4.65-4.57,7-5.61,8.54-11.4,17.37-16.26,26.25-5.82,10.67-9.44,19.79-11.38,28.7a674.27,674.27,0,0,1-36.49,115l-.06.15c-2,4.75-4,9.66-3.73,14.29a25.92,25.92,0,0,0,.91,4.87c.29,1.18.6,2.4.79,3.66a25.84,25.84,0,0,1,.07,6.89,72.46,72.46,0,0,1-2.55,11.78L19.23,816.81c-3.22,11.71-6.55,23.83-8.68,35.87L9.46,858.8C6.16,877.36,3.05,894.88,2,912.62a195.06,195.06,0,0,0,.12,25.16c.11,1.67,3.55,5.32,5.83,7.74a33.68,33.68,0,0,1,3.3,3.8c1.52,2.36,4.32,3.8,6.8,5.07,23.42,12,47.63,24.5,75.15,29.45,4,.72,8.17,1.29,12.2,1.85,12.52,1.73,25.47,3.53,35.85,9.77l.25.15a33.19,33.19,0,0,0,7.35,3.6c10.18,3.1,15.55-4.72,20.28-11.63l.75-1.07c-4.19,3.31-8.76,6.66-12,4.89-3.74-2-6.53-5.89-8.3-11.53-4.31-13.68-5-25.33,3.17-51.06l.63-2c4.83-15.28,10.84-34.31,22-44.77a.85.85,0,1,1,1.16,1.23c-10.84,10.16-16.79,29-21.56,44.05l-.63,2c-6.44,20.28-8.55,32.94-3.17,50,1.66,5.28,4.11,8.73,7.49,10.55,2.54,1.36,7.28-2.41,11.1-5.45,1.44-1.15,2.8-2.23,4-3a1.92,1.92,0,0,1,.27-.16.85.85,0,0,1,1.08,1.23,1.6,1.6,0,0,1-.16.19,55.24,55.24,0,0,0-4.36,5.81C166.5,994.46,161.6,1001.61,153.33,1001.61Zm78.56-563.12a.67.67,0,0,0,.09.14A.67.67,0,0,1,231.89,438.49Zm0,0h0Zm0,0h0Z"/><path class="cls-12" d="M136.61,864.57a.85.85,0,0,1-.76-1.22L136,863a72.65,72.65,0,0,0,6.72-20c.51-2.69.84-5.44,1.17-8.11.3-2.47.61-5,1.06-7.56,1.68-9.5,5.3-19,8.81-28.12a202,202,0,0,0,7.34-21.51,74.85,74.85,0,0,0,1.81-9.27c.23-1.79.39-3.61.54-5.38a62.1,62.1,0,0,1,1.65-11.2c1.6-5.84,4.82-11.34,7.93-16.65A107.72,107.72,0,0,0,179,724.08c.52-1.21,1.07-2.58,1.63-4a71.74,71.74,0,0,1,4.91-10.65.85.85,0,1,1,1.44.89,70.35,70.35,0,0,0-4.77,10.38c-.58,1.44-1.13,2.82-1.66,4a107,107,0,0,1-6,11.33c-3.06,5.22-6.22,10.63-7.75,16.25a61.31,61.31,0,0,0-1.61,10.9c-.15,1.78-.3,3.62-.54,5.44a74.59,74.59,0,0,1-1.85,9.48,202.53,202.53,0,0,1-7.4,21.7c-3.48,9.08-7.07,18.47-8.72,27.8-.44,2.49-.75,5-1.05,7.48-.33,2.69-.67,5.47-1.19,8.21a74,74,0,0,1-6.86,20.45l-.15.31A.85.85,0,0,1,136.61,864.57Z"/><path class="cls-12" d="M214.74,893.14h-.14c-7.63-1.26-16.71-3.49-23-5.14-5.49-1.46-11.12-3.06-15.86-4.52a.84.84,0,0,1,.21-1.66h0a.73.73,0,0,1,.25,0c4.72,1.45,10.33,3,15.81,4.51,6.24,1.64,15.27,3.85,22.83,5.09a.85.85,0,0,1-.13,1.69Z"/><path class="cls-12" d="M195.35,985.4h-.12c-7.66-1.1-14.64-1.78-21-2.35l-.15,0-2.21-.2c-7.31-.66-14.22-1.28-21.58-2.37a.84.84,0,0,1,.25-1.67c7.31,1.08,14.2,1.7,21.49,2.36l2.29.2.13,0c6.4.57,13.38,1.25,21.06,2.35a.84.84,0,0,1-.12,1.68Z"/><path class="cls-12" d="M386.09,265a21.54,21.54,0,0,1-5,1.63,22.64,22.64,0,0,1-5.28.18,5.32,5.32,0,0,1,4.55-4.38A5.39,5.39,0,0,1,386.09,265Z"/><path class="cls-12" d="M404.8,263.81a5.38,5.38,0,0,1,6-2,5.31,5.31,0,0,1,4.12,4.79,22.24,22.24,0,0,1-5.24-.68A21.26,21.26,0,0,1,404.8,263.81Z"/><path class="cls-13" d="M360.67,273.23,348.25,284"/><path class="cls-12" d="M425.13,277.19a4,4,0,0,1,1.92.78,16.82,16.82,0,0,1,1.55,1.29c1,.88,1.9,1.83,2.8,2.79s1.74,2,2.52,3a22.45,22.45,0,0,1,2.17,3.36A24.58,24.58,0,0,1,433,286c-1-.88-1.9-1.82-2.8-2.78s-1.73-2-2.52-3A13.45,13.45,0,0,0,425.13,277.19Z"/><path class="cls-12" d="M366.59,277.74c-.92,1-1.87,1.88-2.81,2.76L361,283.14l-2.81,2.64a8.29,8.29,0,0,1-3.43,2.11,23.8,23.8,0,0,0,2.45-3,21.83,21.83,0,0,1,2.63-3,21.28,21.28,0,0,1,3.15-2.45A15.17,15.17,0,0,1,366.59,277.74Z"/><path class="cls-12" d="M384.86,190.16a88.62,88.62,0,0,1,2.66,10.28A80.88,80.88,0,0,1,388.93,211a60.38,60.38,0,0,1-.24,10.67A41.94,41.94,0,0,1,386.22,232a84.11,84.11,0,0,0,1.15-10.45,95.89,95.89,0,0,0-.13-10.45c-.2-3.48-.6-7-1-10.44S385.27,193.68,384.86,190.16Z"/><circle class="cls-14" cx="341.73" cy="197.9" r="10.22"/><path class="cls-12" d="M341.74,208.55h-.47a10.66,10.66,0,1,1,11.1-10.19h0a10.66,10.66,0,0,1-10.63,10.2Zm0-20.43a9.78,9.78,0,0,0-.41,19.55,9.79,9.79,0,0,0,10.19-9.36h0a9.77,9.77,0,0,0-9.35-10.18Z"/><path class="cls-12" d="M303.68,193.5a13.41,13.41,0,0,0,3.68,2.86,5.65,5.65,0,0,0,4,.64,5.37,5.37,0,0,0,1.75-.74c.27-.17.53-.38.8-.59l1-.76a45.66,45.66,0,0,1,4.06-2.8,41.74,41.74,0,0,1,18.93-6.37,37,37,0,0,1,19.64,4.08,38.2,38.2,0,0,1,14.57,13,62,62,0,0,0-7.84-5.38,53,53,0,0,0-8.35-4,41.24,41.24,0,0,0-17.65-2.65,49.22,49.22,0,0,0-17.38,4.82c-1.39.66-2.78,1.36-4.14,2.11l-1,.56a12.41,12.41,0,0,1-1.27.61,8.09,8.09,0,0,1-2.81.62,7.48,7.48,0,0,1-5-2A11.28,11.28,0,0,1,303.68,193.5Z"/><path class="cls-12" d="M314.18,196.81a9.84,9.84,0,0,0,.85,1.74,15.59,15.59,0,0,0,1.22,1.74,20.32,20.32,0,0,0,3.08,3.07,22.91,22.91,0,0,0,3.77,2.39c.66.38,1.37.63,2.06.95s1.44.51,2.16.77c-.75-.12-1.52-.22-2.28-.37s-1.52-.31-2.25-.56a24.6,24.6,0,0,1-4.38-1.76,22.14,22.14,0,0,1-4-2.73,17,17,0,0,1-1.77-1.73,12.38,12.38,0,0,1-1.57-2.13Z"/><path class="cls-12" d="M368.75,132.3s-48.77,1.25-63.29,26.49c0,0,14.77-12.18,62.86-20.34Z"/><path class="cls-12" d="M416.71,153.59a488.93,488.93,0,0,0,68.35,5.92s-14,11.38-68.35.5Z"/><path class="cls-12" d="M364.51,212.51a15.07,15.07,0,0,1-3.41,2.91,20.73,20.73,0,0,1-4,2,20.45,20.45,0,0,1-4.36,1.08,15.36,15.36,0,0,1-4.49,0l4.21-1.27c1.37-.43,2.73-.86,4.06-1.37s2.66-1,4-1.57Z"/><circle class="cls-14" cx="448.94" cy="196.37" r="10.22"/><path class="cls-12" d="M448.93,207a10.67,10.67,0,1,1,.46,0Zm0-20.43h-.43a10,10,0,1,0,.43,0Z"/><path class="cls-12" d="M487,192a11.37,11.37,0,0,1-2.86,4,7.5,7.5,0,0,1-5,2,8.09,8.09,0,0,1-2.81-.62,12.45,12.45,0,0,1-1.27-.62l-1-.55c-1.36-.75-2.75-1.45-4.14-2.11a49.45,49.45,0,0,0-17.38-4.83,41.4,41.4,0,0,0-17.65,2.66,53,53,0,0,0-8.35,4,61.91,61.91,0,0,0-7.84,5.37,38.26,38.26,0,0,1,14.57-13,36.93,36.93,0,0,1,19.64-4.08,41.85,41.85,0,0,1,18.93,6.36,48,48,0,0,1,4.06,2.81l1,.76c.27.21.53.42.8.59a5.28,5.28,0,0,0,1.75.74,5.7,5.7,0,0,0,4-.64A13.76,13.76,0,0,0,487,192Z"/><path class="cls-12" d="M479.58,196.67A12.93,12.93,0,0,1,478,198.8a17,17,0,0,1-1.77,1.73,22.5,22.5,0,0,1-4,2.73,24.9,24.9,0,0,1-4.38,1.76c-.73.25-1.51.37-2.25.56s-1.53.25-2.28.37c.72-.26,1.45-.49,2.15-.77s1.41-.57,2.07-1a23.59,23.59,0,0,0,3.77-2.39,20.38,20.38,0,0,0,3.08-3.08,16.91,16.91,0,0,0,1.22-1.73,9.9,9.9,0,0,0,.85-1.75Z"/><path class="cls-12" d="M426.15,211l4,1.75c1.32.55,2.64,1.1,4,1.57s2.69.94,4.06,1.37l4.21,1.27a15,15,0,0,1-4.49,0,20.67,20.67,0,0,1-4.37-1.07,20.93,20.93,0,0,1-4-2A15.34,15.34,0,0,1,426.15,211Z"/><path class="cls-15" d="M439.76,305.48c-14.83.44-30.39-.35-45-.49s-28.33,0-42.78-.83c14.55-4.44,27.83-10.68,43.38-10.43S425.15,300.82,439.76,305.48Z"/><path class="cls-16" d="M352,304A109.74,109.74,0,0,0,361.9,298c3.28-2.16,6.63-4.15,10-6.73s7-5.25,11.19-6.53a20.45,20.45,0,0,1,3.19-.82,9.91,9.91,0,0,1,3.33.22c2.26.51,4.46,1.57,6.6,1.84,4.2.87,8.85-1.53,13-.13,4.11,1.19,7.51,4.24,10.7,7.06s6.57,4.66,9.8,6.9a74.89,74.89,0,0,0,10.09,5.58c-7.43-1.65-14.66-4.13-22.08-5.59l-11-2c-3.58-.66-7.1-2-10.78-2s-7.21,1.14-10.85,1.32c-3.61.45-7.33.83-11,1.55C366.63,300,359.39,302.46,352,304Z"/><path class="cls-16" d="M352,304.29A105.44,105.44,0,0,1,374,299.56a170.46,170.46,0,0,1,21.86-1,166.11,166.11,0,0,1,21.87,1.67,104.57,104.57,0,0,1,22,5.41,100.52,100.52,0,0,1-21.92,4.82,169.31,169.31,0,0,1-22,1.09,171.68,171.68,0,0,1-22-1.76A102.24,102.24,0,0,1,352,304.29Z"/></g></svg>