<svg xmlns="http://www.w3.org/2000/svg" viewBox="0 0 910.95 1296.61"><defs><style>.cls-1{fill:#e56590;}.cls-2{fill:#adadad;}.cls-3{fill:#f39200;}.cls-4{fill:#fff;}.cls-5{fill:#f094b0;}.cls-6{fill:#d5ad95;}.cls-7{fill:#828282;}.cls-8{fill:#f3d1bb;}.cls-9{fill:#f2e6b5;}.cls-10{fill:#432918;}.cls-11{fill:#b14191;}.cls-12{fill:#ec7b23;}.cls-13{fill:#26170e;}.cls-14{fill:#1d1d1b;}.cls-15{fill:none;}.cls-16{fill:#392f25;}.cls-17{fill:#551a1a;}.cls-18{fill:#ce9087;}</style></defs><g id="PERSONAJES"><path class="cls-1" d="M909.42,768.92c.86,1.52.76,5.31.49,9.09a280.93,280.93,0,0,0-35.12-9.84,283.16,283.16,0,0,0-23.64-31.66c-31.88-37-72.12-65.26-111.1-94.91a130,130,0,0,1,44.59-6.93Q803,651,821.38,667.37c9.94,8.86,19.92,17.73,29,27.48C873,719.17,893.14,740,909.42,768.92Z"/><path class="cls-2" d="M909.38,786.87c.27,3.52-1,7-2.35,10.22-2.46,6.22-4.91,12.45-7.45,18.65a298,298,0,0,0-24.79-47.57A280.93,280.93,0,0,1,909.91,778C909.65,781.62,909.26,785.21,909.38,786.87Z"/><path class="cls-3" d="M886.32,810.5a7.24,7.24,0,1,1-7.23,7.23A7.24,7.24,0,0,1,886.32,810.5Z"/><path class="cls-4" d="M735.33,844a23.84,23.84,0,0,0-6.54.49,7.35,7.35,0,0,0-5,10.1,15.58,15.58,0,0,0,3.09,5,79.85,79.85,0,0,1-6.34-6.67,11,11,0,0,1,2.81-16.46c6.69-4.11,13.74-7.77,18.75-13.71,4.4-5.22,6.86-11.72,10-17.75a72.25,72.25,0,0,1,4.46-7.35,80.5,80.5,0,0,1,26-23.79c18.12-7.13,38.2-10.26,57.89-9.82,3.71.08,7.39.29,11.06.63a202.69,202.69,0,0,1,23.32,3.5,298,298,0,0,1,24.79,47.57c-9.23,22.52-19.53,44.65-34.24,63.93-11.18,14.69-25.08,28.05-30.82,45.57-1,3.2-1.84,6.57-3.82,9.28-5.58,7.64-12.77,8.45-22,6.62,5.11-.61,6.72-3.32,8.63-8.43a17.22,17.22,0,0,0,1.07-5.22,30.49,30.49,0,0,0-1.58-10.89c-5.36-17.16-13.07-27.48-27.24-39.87q-3-2.6-6.32-5.34C769.47,860.13,751.48,844.83,735.33,844Zm158.24-26.23a7.24,7.24,0,1,0-7.25,7.25A7.24,7.24,0,0,0,893.57,817.73Zm-38.68,49.94a7.24,7.24,0,1,0-7.24,7.25A7.24,7.24,0,0,0,854.89,867.67Z"/><path class="cls-5" d="M874.79,768.17a202.69,202.69,0,0,0-23.32-3.5c-3.67-.34-7.35-.55-11.06-.63-19.6-4.27-40.55-.25-57.89,9.82a112.46,112.46,0,0,0-32.76,19.49,74.3,74.3,0,0,1-11.33-9.94c-4-4.2-7.45-8.87-11.4-13.11-15-16.12-36.27-25.51-50.46-42.33-3.79-4.48-7-9.5-11.36-13.44,5.11-10.42,10.31-20.8,16.76-30.18,14-20.32,34.83-34.84,58.08-42.75,39,29.65,79.22,57.94,111.1,94.91A283.16,283.16,0,0,1,874.79,768.17Z"/><path class="cls-3" d="M847.65,860.44a7.24,7.24,0,1,1-7.24,7.23A7.24,7.24,0,0,1,847.65,860.44Z"/><path class="cls-5" d="M840.41,764c-19.69-.44-39.77,2.69-57.89,9.82C799.86,763.79,820.81,759.77,840.41,764Z"/><path class="cls-6" d="M816.79,916.6a30.49,30.49,0,0,1,1.58,10.89c-3.1,4.59-6.35,9.15-9.74,13.63-34,45.33-81.28,86.09-124.61,126,21.69-29.6,47-57.88,66.23-88.82a295.39,295.39,0,0,0,39.3-101.54C803.72,889.12,811.43,899.44,816.79,916.6Z"/><path class="cls-7" d="M818.37,927.49a17.22,17.22,0,0,1-1.07,5.22c-1.91,5.11-3.52,7.82-8.63,8.43l0,0C812,936.64,815.27,932.08,818.37,927.49Z"/><path class="cls-8" d="M783.23,871.39q3.36,2.75,6.32,5.34a295.39,295.39,0,0,1-39.3,101.54c-19.2,30.94-44.54,59.22-66.23,88.82-13.44,12.38-26.51,24.65-38.69,37h0c1-7.38-.24-14.92-1.63-22.26-1-5.37-3.93-11-2.17-16.19v0l1.53-.86c3.42-2,1.54-11.69-4.2-21.73s-13.16-16.59-16.58-14.63l-1.74,1h0a19.06,19.06,0,0,1-7.3.05c-4.3-1-6.31-2.89-10.34-6.64,20.11-3.26,62.28-66.08,87.64-103.39,6.6-9.72,13.75-19.08,20.1-29a309.78,309.78,0,0,0,17-30.46c2.59-5.2,5.13-10.5,7.76-16C751.48,844.83,769.47,860.13,783.23,871.39Z"/><path class="cls-2" d="M784.64,634.67a130,130,0,0,0-44.59,6.93c-7.28-5.54-14.52-11.13-21.65-16.85,12.27-10.53,28.49-18.15,45.43-12.26,2.89,6.18,8.13,10.91,13.22,15.43Z"/><path class="cls-5" d="M782.52,773.86a80.5,80.5,0,0,0-26,23.79c-2.49-1.42-4.71-2.83-6.79-4.3A112.46,112.46,0,0,1,782.52,773.86Z"/><path class="cls-2" d="M759.92,603.16c1.67,2.93,2.49,6.28,3.91,9.33-16.94-5.89-33.16,1.73-45.43,12.26-1.36-1.07-2.71-2.15-4.07-3.25-17.56-14.24-34.69-29.75-49.92-46.72a195.79,195.79,0,0,1,37-16.86q22.46,18,46.38,34.13C752.36,595.15,757.16,598.35,759.92,603.16Z"/><path class="cls-7" d="M728.79,844.45a23.84,23.84,0,0,1,6.54-.49c-2.63,5.49-5.17,10.79-7.76,16l-.72-.36a15.58,15.58,0,0,1-3.09-5A7.35,7.35,0,0,1,728.79,844.45Z"/><path class="cls-4" d="M582.65,654.74c-6.2,2.57-10.49,10.16-12.4,14.8l-.27.05c-.2-1.05-.41-2.12-.63-3.2-1.23-6-2.79-11.55-4.33-16.83a37.66,37.66,0,0,0,7.13-1.54c11.51-3.73,20.08-13.14,28.43-21.92,18.49-19.4,40.25-37.64,63.83-51.32,15.23,17,32.36,32.48,49.92,46.72,1.36,1.1,2.71,2.18,4.07,3.25,7.13,5.72,14.37,11.31,21.65,16.85C716.8,649.51,696,664,682,684.35c-6.45,9.38-11.65,19.76-16.76,30.18-.15-.17-.32-.32-.47-.46-8-7.16-19-10.07-28-16a95.85,95.85,0,0,1-11.53-9.29l-26.81-24a55.47,55.47,0,0,0-7.63-6.06C587.44,656.69,585,655.31,582.65,654.74Z"/><path class="cls-1" d="M701.38,557.92a195.79,195.79,0,0,0-37,16.86c-22.87-25.5-41.4-54.23-50.46-86.71,12.59,5.86,24.47,12.75,34.33,22.5A685.21,685.21,0,0,0,701.38,557.92Z"/><path class="cls-5" d="M28.16,601.65c.59-21.72,11.08-44.77,18.22-65.26,7.27-20.77,17.32-33.78,38.51-39.69,9.75-2.72,15.39-7.77,24.58-12,10.23-4.65,18-14.31,28.62-17.51.51-.15,1-.3,1.56-.42,3.08-.71,6.31-.83,9.36-1.71a41.91,41.91,0,0,0,9.26-4.55c20.49-12,42.86-20.38,65.11-28.66a5,5,0,0,0-.81,3,30.29,30.29,0,0,0,.07,3.81c.81,12.46,7.72,24.23,17.08,32.65,10,9,22.62,14.63,35.44,18.86.19.07.39.12.58.18q6.81,2.24,13.73,4a219.93,219.93,0,0,0,99.45,2.29c2.55-.53,5.09-1.1,7.63-1.73,1.53-.37,3.07-.78,4.59-1.19,13.72-3.69,27.15-9,38.3-17.72a83.25,83.25,0,0,0,13.74-13.77c7.31-9.16,13.05-19.73,18-30.56.4-.89.81-1.77,1.2-2.65a6.77,6.77,0,0,0,.56-3.25c3.32,7.32,14.29,10.37,22.69,10.67,9.33.36,19.79-.49,26.79,5.71,3.06,2.72,5,6.52,8,9.33s7.13,4.62,11.08,6.25q9.5,3.93,19,7.89l23.93,9.94c9.58,4,19.37,7.77,28.79,12.12.23.12.49.22.72.34,9.06,32.48,27.59,61.21,50.46,86.71-23.58,13.68-45.34,31.92-63.83,51.32-8.35,8.78-16.92,18.19-28.43,21.92a37.66,37.66,0,0,1-7.13,1.54c-7.6,1-15.53,0-23.22-1a1384.41,1384.41,0,0,0-350.74,1.34c-16.16,2.14-32.6,4.54-48.62,1.88l-1.93-.35-1.64-.34c-13.39-2.86-25.81-9.15-38.68-13.9q-5-1.86-10.1-3.37A173.18,173.18,0,0,0,59,627.43a178.21,178.21,0,0,0-34.33-.56l3-25.23Z"/><path class="cls-2" d="M652.17,1295.77H485.84a303.93,303.93,0,0,0,29.87-38,1137.49,1137.49,0,0,0,116.09-29.5C637.49,1251.06,644.3,1273.62,652.17,1295.77Z"/><path class="cls-3" d="M645.3,1104.05h0c-.24,4.49-3.15,7.84-7,10.14-4.81,2.88-10.41,4.81-14.8,3.88a14.26,14.26,0,0,0,1.58-.32,15.37,15.37,0,0,0,4.92-2.18,16.33,16.33,0,0,0,7.22-13.25c0-3-.24-6-.44-8.78-.9-11.65-4-19.81-8.71-30.52,3.78,4,7.39,6,9.49,4.81l3.92-2.23c-1.76,5.18,1.14,10.82,2.17,16.19C645.06,1089.13,646.26,1096.67,645.3,1104.05Z"/><path class="cls-3" d="M638.83,1043c5.74,10,7.62,19.76,4.2,21.73s-10.86-4.59-16.6-14.63-7.6-19.76-4.18-21.73S633.11,1033,638.83,1043Zm.15,14.67c2.1-1.21,1-7.15-2.56-13.28s-8-10.16-10.14-9-.95,7.15,2.56,13.3S636.9,1058.86,639,1057.66Z"/><path class="cls-3" d="M643,1064.72l-1.53.86v0l-3.92,2.23c-2.1,1.2-5.71-.78-9.49-4.81a52.24,52.24,0,0,1-7.11-9.82c-4.6-8.06-6.72-15.91-5.59-19.71a3.17,3.17,0,0,1,1.41-2l3.69-2.12h0l1.74-1c-3.42,2-1.56,11.69,4.18,21.73S639.59,1066.68,643,1064.72Z"/><path class="cls-9" d="M636.42,1044.38c3.53,6.13,4.66,12.07,2.56,13.28s-6.64-2.82-10.14-8.94-4.66-12.09-2.56-13.3S632.92,1038.23,636.42,1044.38Z"/><path class="cls-6" d="M538.65,1010.87c-1.6-8.4-3.21-16.81-4.7-25.23l4.26-1.57c6.84-2.53,14-5.07,21.27-4.25a25.11,25.11,0,0,1,2.73.47c6.52,1.52,12.32,5.64,16.91,10.6a93,93,0,0,1,9.86,13.48,1.09,1.09,0,0,0,.08.15c1.1,1.73,2.17,3.47,3.27,5.18a110.67,110.67,0,0,0,9.42,13.18,39.94,39.94,0,0,0,13.63,10.61h0c-1.13,3.8,1,11.65,5.59,19.71a52.24,52.24,0,0,0,7.11,9.82c4.73,10.71,7.81,18.87,8.71,30.52.2,2.77.49,5.8.44,8.78a16.33,16.33,0,0,1-7.22,13.25,15.37,15.37,0,0,1-4.92,2.18,14.26,14.26,0,0,1-1.58.32c-9.24,1.49-20.18-3.77-21-13l-.57.07c-.46-4.62-3.46-8.84-7.27-11.58-4.33-3.12-9.6-4.62-14.78-5.83a64.35,64.35,0,0,0-16.93-2.11,57.69,57.69,0,0,0-11.16,1.71c-1.12-9.4-2.54-18.8-4.12-28.19,6.28-1.92,12.53-3.8,18.63-5.68-3.2.51-10,2.29-18.78,4.71-1.57-9.3-3.32-18.59-5.1-27.91C541.18,1023.79,539.91,1017.34,538.65,1010.87Z"/><path class="cls-3" d="M620.49,1029.36l-3.69,2.12a3.17,3.17,0,0,0-1.41,2h0a39.94,39.94,0,0,1-13.63-10.61,6.12,6.12,0,0,0,1.1-.11c4,3.75,6,5.63,10.34,6.64A19.06,19.06,0,0,0,620.49,1029.36Z"/><path class="cls-1" d="M554.49,1124.9a369.21,369.21,0,0,0-2.71-37.61,57.69,57.69,0,0,1,11.16-1.71,64.35,64.35,0,0,1,16.93,2.11c5.18,1.21,10.45,2.71,14.78,5.83,3.81,2.74,6.81,7,7.27,11.58a12.67,12.67,0,0,1,.06,1.37c.85,3.15,2.56,6.07,4.07,9,8.07,15.77,10.34,33.75,13.14,51.24q5,31,12.61,61.53a1137.49,1137.49,0,0,1-116.09,29.5c16.34-24.77,28.48-51.93,34.37-81.19A241.47,241.47,0,0,0,554.49,1124.9Z"/><path class="cls-6" d="M589,1004.37a93,93,0,0,0-9.86-13.48c-4.59-5-10.39-9.08-16.91-10.6A210.15,210.15,0,0,1,552.12,950l0,0a27.1,27.1,0,0,1,9.9-9.65,5.69,5.69,0,0,1,8.5,4.55A135.5,135.5,0,0,0,589,1004.37Z"/><path class="cls-4" d="M228,801.12a393.63,393.63,0,0,1-69.57-22.89l-1-.46a91.1,91.1,0,0,0-4.52-14.07c-3.34-8.26-7.38-16.09-10.84-27.43-5.33-17.56-9.58-36-2.67-69.88,1.06-5.2,2.13-10,3.11-14.6,16,2.66,32.46.26,48.62-1.88a1384.41,1384.41,0,0,1,350.74-1.34c7.69,1,15.62,2,23.22,1,1.54,5.28,3.1,10.78,4.33,16.83.22,1.08.43,2.15.63,3.2,6,31.82,1.86,49.68-3.3,66.68-6.37,20.9-14.7,29.84-17,51.54-.12,1-.22,2.07-.32,3.1,0,0,0,.07-.06.1-35.69,6.59-72,12.59-108.25,16.75C368.92,816,296.6,817.06,228,801.12Z"/><path class="cls-2" d="M562.21,980.29a25.11,25.11,0,0,0-2.73-.47c-7.25-.82-14.43,1.72-21.27,4.25L534,985.64c-3.07-17.24-5.68-34.49-7.15-51.78q10.26-4.29,20.35-9a248.2,248.2,0,0,0,5,25.11A210.15,210.15,0,0,0,562.21,980.29Z"/><path class="cls-10" d="M320.1,63.15c-10.89,3.24-21.1,9.13-31,15-.38.07-.73.16-1.09.24l-1.18-.42a98.93,98.93,0,0,1-2.85-33,.11.11,0,0,1,0-.07c.92-4.79,2-9.79,3.32-14.83C297,11.29,319,1.23,340.05.86s41.47,7.45,60.31,16.93c18.6,9.35,36.51,20.59,51,35.51,17.78,18.24,29.8,41.28,39.79,64.72,4.83,11.29,9.28,23,9.91,35.3.41,7.84-.78,15.73-.07,23.56,2.34,25.63,23.91,45,33.39,69,9.81,24.74,6.07,52.66.31,78.65-4.79,21.66-10.69,45.16-1.22,65.22,3.83,8.12,9.91,14.92,14.71,22.47a80.1,80.1,0,0,1,12.31,53.5q-9.5-3.94-19-7.89c-3.95-1.63-8-3.32-11.08-6.25s-5-6.61-8-9.33c-7-6.2-17.46-5.35-26.79-5.71-8.4-.3-19.37-3.35-22.69-10.67a6.31,6.31,0,0,0-.82-2.57,6.42,6.42,0,0,0-4.45-3.27,32.25,32.25,0,0,0-13.92.41l-.12.13a96.71,96.71,0,0,1-7.58-7.13,42.57,42.57,0,0,0-.87-6.89h.07c-.49-2.1-2.17-3.75-3.76-5.24a4.64,4.64,0,0,0-2.33-1.45,5.15,5.15,0,0,0-2.85.54c1.8,1.47,2.54,3.81,2.95,6.13-10.42-11.77-16.77-24.27-18.75-36.92-1.49-9.46-2.84-19.45-1.89-29a113,113,0,0,1,3.21-17.06h0c.88-1,1.73-2.07,2.54-3.14a79.38,79.38,0,0,0,12.86-23.26,72.91,72.91,0,0,1-6-13.36c-10.25-31.26,3.93-66.34-5.17-98-1.89-6.63-4.91-13.08-9.78-17.94-5.61-5.58-13.19-8.6-19.8-13a57,57,0,0,1-25.09-45.6c-.17-8.82,1.71-17.86-.78-26.33A25.83,25.83,0,0,0,367,75.41c-7.2-10.38-21.56-15.64-34.61-14.59A59.19,59.19,0,0,0,320.1,63.15Z"/><path class="cls-5" d="M151.33,1093.88c42.84,14,87.73,21.62,133,24.07-2.61,1.41-5.25,2.76-7.91,4.08q7.5-1.69,14.91-3.75a640.23,640.23,0,0,0,71.32-1,831,831,0,0,0,117.44-17.1c8.06,4.1,17.95,1.81,26.77-.61L545.34,1089c2.14-.57,4.27-1.17,6.44-1.69a369.21,369.21,0,0,1,2.71,37.61,241.47,241.47,0,0,1-4.41,51.66c-5.89,29.26-18,56.42-34.37,81.19-101,20.07-206,26.26-301.78,11.09-46.11-7.3-91-21-134.44-38.11q1.92-12.17,3.67-24.39c3.1-12.36,6.16-24.4,9.09-35.73,3-11.75,6.12-23.58,11.25-34.57,4.28-9.13,10.11-18.26,9.44-28.31a64.13,64.13,0,0,0-1.25-7.81,32.83,32.83,0,0,1-.54-4.4c-.22-5.35,1.54-10.42,3.89-15.29Q132.91,1087.86,151.33,1093.88Z"/><path class="cls-4" d="M566.29,1053.42c-6.1,1.88-12.35,3.76-18.63,5.68l-.15-1C556.26,1055.71,563.09,1053.93,566.29,1053.42Z"/><path class="cls-4" d="M549.3,791s0-.06.06-.1a.2.2,0,0,0,0,.1Z"/><path class="cls-1" d="M549.3,791h0c-4.69,44.4-8.62,90.24-2.19,133.88q-10.08,4.67-20.35,9c-.88-10.3-1.35-20.61-1.27-30.92A288.23,288.23,0,0,1,549.3,791Z"/><path class="cls-8" d="M547.66,1059.1c1.58,9.39,3,18.79,4.12,28.19-2.17.52-4.3,1.12-6.44,1.69l-38.49,10.57c-8.82,2.42-18.71,4.71-26.77.61l-.84-.44c-2.83-1.63-5.24-4-7.74-6.13s-1.78-6.15,1.3-7.69C492.53,1076.06,520.43,1067.36,547.66,1059.1Z"/><path class="cls-4" d="M547.51,1058.13l.15,1c-27.23,8.26-55.13,17-74.86,26.8-3.08,1.54-3.94,5.45-1.3,7.69s4.91,4.5,7.74,6.13l.84.44a831,831,0,0,1-117.44,17.1,640.23,640.23,0,0,1-71.32,1,337.55,337.55,0,0,0,153.48-92.47l.91.88c-4.15,4.25-6.5,10.53-4,15.78l.31.81-9.35,3.52c-.47,3.64-.88,7.69.73,11,1.51,3.07,4.66,5.52,8,5.52l1.23.42a5.88,5.88,0,0,0-.15.92c-.73,8.48,7.92,15.12,16.32,16.49C465.33,1082.19,517.62,1066.38,547.51,1058.13Z"/><path class="cls-8" d="M542.41,1030.22c1.78,9.32,3.53,18.61,5.1,27.91-29.89,8.25-82.18,24.06-88.68,23-8.4-1.37-17.05-8-16.32-16.49a5.88,5.88,0,0,1,.15-.92,3,3,0,0,1,.37-.81,3.93,3.93,0,0,1,1.92-1.18Q492.92,1043.78,542.41,1030.22Z"/><path class="cls-8" d="M441.43,1063.31c-3.37,0-6.52-2.45-8-5.52-1.61-3.3-1.2-7.35-.73-11l9.35-3.52q47.75-17.85,96.63-32.41c1.26,6.47,2.53,12.92,3.76,19.35Q493,1043.76,445,1061.74a3.93,3.93,0,0,0-1.92,1.18,3,3,0,0,0-.37.81Z"/><path class="cls-5" d="M549.3,791a288.23,288.23,0,0,0-23.77,111.93c-.08,10.31.39,20.62,1.27,30.92-1,.41-1.91.81-2.88,1.2-114.77,47.06-248,43.25-363.8-1.52,8.55-47.24,4-97.4-1.12-145.73a87.76,87.76,0,0,0-1.64-10l1,.46A393.63,393.63,0,0,0,228,801.12c16.7,8.55,43,11.94,58.62,13.43,55.58,5.3,104,4.62,154.48-6.79C477.34,803.6,513.61,797.6,549.3,791Z"/><path class="cls-8" d="M534,985.64c1.49,8.42,3.1,16.83,4.7,25.23q-48.84,14.55-96.63,32.41l-.31-.81c-2.5-5.25-.15-11.53,4-15.78a19,19,0,0,1,2.2-1.92c5.44-4,12.24-5.67,18.56-8.13,9-3.47,17.14-8.7,25.62-13.22C505.47,996.27,519.69,990.87,534,985.64Z"/><path class="cls-4" d="M151.33,1093.88q-18.4-6-36.29-13.65c1.38-2.85,2.95-5.62,4.46-8.37,3.15-4,3-10.6,3.13-15.66.09-3.61-.68-7.23-.1-10.77.78-5,3.94-9,7-13.09.86-1.15,1.72-2.3,2.52-3.47,7.57-11.16,11.5-24.62,13.07-38.17a76.13,76.13,0,0,1,4.35-18,224.68,224.68,0,0,0,10.62-39.15c115.82,44.77,249,48.58,363.8,1.52,1-.39,1.92-.79,2.88-1.2,1.47,17.29,4.08,34.54,7.15,51.78-14.26,5.23-28.48,10.63-41.86,17.78-8.48,4.52-16.65,9.75-25.62,13.22-6.32,2.46-13.12,4.09-18.56,8.13a19,19,0,0,0-2.2,1.92l-.91-.88a337.55,337.55,0,0,1-153.48,92.47c-2.34-.09-4.68-.21-7-.33C239.06,1115.5,194.17,1107.88,151.33,1093.88Z"/><path class="cls-4" d="M515.71,1257.75a303.93,303.93,0,0,1-29.87,38H67.77q6.63-32.38,11.72-65c43.48,17.15,88.33,30.81,134.44,38.11C309.74,1284,414.72,1277.82,515.71,1257.75Z"/><path class="cls-1" d="M472.94,425.82a6.77,6.77,0,0,1-.56,3.25c-.39.88-.8,1.76-1.2,2.65a80.47,80.47,0,0,1-17.55-11.2l.12-.13a32.25,32.25,0,0,1,13.92-.41,6.42,6.42,0,0,1,4.45,3.27A10.73,10.73,0,0,0,472.94,425.82Z"/><path class="cls-11" d="M472.12,423.25a6.31,6.31,0,0,1,.82,2.57A10.73,10.73,0,0,1,472.12,423.25Z"/><path class="cls-6" d="M436.29,448.41c1-1.74,2-3.52,2.87-5.35,4.5-9.21,7.36-19.49,6.89-29.67a96.71,96.71,0,0,0,7.58,7.13,80.47,80.47,0,0,0,17.55,11.2c-4.95,10.83-10.69,21.4-18,30.56-4.66-3.07-10-5.57-14.6-8.65-1.3-.87-2.56-1.78-3.76-2.75C435.33,450.07,435.82,449.24,436.29,448.41Z"/><path class="cls-8" d="M438.58,453.63c4.64,3.08,9.94,5.58,14.6,8.65a83.25,83.25,0,0,1-13.74,13.77c-11.15,8.73-24.58,14-38.3,17.72,5.56-6.92,11.11-12.78,16.66-19.71,6-7.48,12-15,17-23.18C436,451.85,437.28,452.76,438.58,453.63Z"/><path class="cls-12" d="M439.26,406.5h0v0c-.41-2.32-1.15-4.66-2.95-6.13a5.15,5.15,0,0,1,2.85-.54,4.64,4.64,0,0,1,2.33,1.45c1.59,1.49,3.27,3.14,3.76,5.24h-.07a42.57,42.57,0,0,1,.87,6.89c.47,10.18-2.39,20.46-6.89,29.67-.9,1.83-1.85,3.61-2.87,5.35-.47.83-1,1.66-1.47,2.47a62.17,62.17,0,0,1-5.16-4.57A89.69,89.69,0,0,0,434.87,436c3.78-9,5.81-18.88,4.54-28.55C439.36,407.13,439.33,406.82,439.26,406.5Z"/><path class="cls-6" d="M439.41,407.45c1.27,9.67-.76,19.56-4.54,28.55a89.69,89.69,0,0,1-5.21,10.31c-11.62-11.5-19.07-27.24-27.55-41.55-9.82-16.61-24-33.31-42.66-36.42l.9-.22c10-2.65,18.71-8.81,27.11-14.91,12.67-9.19,24.79-18.45,34.37-29.7a113,113,0,0,0-3.21,17.06c-.95,9.53.4,19.52,1.89,29,2,12.65,8.33,25.15,18.75,36.92v0h0C439.33,406.82,439.36,407.13,439.41,407.45Z"/><path class="cls-6" d="M431.25,283.74a72.91,72.91,0,0,0,6,13.36,79.38,79.38,0,0,1-12.86,23.26,112.75,112.75,0,0,1-12.39-28c-5.61-20.32-4-41.82-5.13-62.87s-5.88-43.4-21.05-58c-8.53-8.23-20.17-13.82-25.57-24.39-4.54-8.87-3.71-19.39-4.79-29.29a74.09,74.09,0,0,0-23.91-46A112.9,112.9,0,0,1,367,75.41a25.83,25.83,0,0,1,3.64,7.52c2.49,8.47.61,17.51.78,26.33a57,57,0,0,0,25.09,45.6c6.61,4.37,14.19,7.39,19.8,13,4.87,4.86,7.89,11.31,9.78,17.94C435.18,217.4,421,252.48,431.25,283.74Z"/><path class="cls-3" d="M429.66,446.31a62.17,62.17,0,0,0,5.16,4.57c-5,8.16-11,15.7-17,23.18-5.55,6.93-11.1,12.79-16.66,19.71-1.52.41-3.06.82-4.59,1.19-2.54.63-5.08,1.2-7.63,1.73A317.21,317.21,0,0,0,419.79,461c3-4.1,6-8.28,8.65-12.62C428.84,447.67,429.27,447,429.66,446.31Z"/><path class="cls-8" d="M267.54,453.1c-3.38-9.63-6.28-19.64-9.21-29.65a23,23,0,0,1-1.22-7,80.69,80.69,0,0,0,5.32-10c11.34-24,16.9-51.55,10.62-77.3l.33-.34a146,146,0,0,0,18.77,15.88c10.1,7.25,20.31,14.57,31.78,19.43,11.16,4.75,23.74,7.06,35.52,4.25,18.7,3.11,32.84,19.81,42.66,36.42,8.48,14.31,15.93,30.05,27.55,41.55-.39.68-.82,1.36-1.22,2-2.66,4.34-5.61,8.52-8.65,12.62a317.21,317.21,0,0,1-30.87,35.73,219.93,219.93,0,0,1-99.45-2.29C279.53,482.77,272.93,468.44,267.54,453.1Z"/><path class="cls-8" d="M288,78.36l.41.15.68-.39a293.91,293.91,0,0,1,32.54-5.64c3.32-.38,6.62-.67,9.89-.79a74.09,74.09,0,0,1,23.91,46c1.08,9.9.25,20.42,4.79,29.29,5.4,10.57,17,16.16,25.57,24.39,15.17,14.64,19.9,37,21.05,58S406.37,272,412,292.32a112.75,112.75,0,0,0,12.39,28c-.81,1.07-1.66,2.1-2.54,3.14h0c-9.58,11.25-21.7,20.51-34.37,29.7-8.4,6.1-17.07,12.26-27.11,14.91l-.9.22c-11.78,2.81-24.36.5-35.52-4.25-11.47-4.86-21.68-12.18-31.78-19.43a146,146,0,0,1-18.77-15.88c-9.09-9.16-16.79-19.71-21.13-31.26-5.35-14.19-9.57-35.08-10.7-50.22-1.41-18.75-2.13-28.53-2.62-47.34-.43-15.67,2.3-31.23,5.35-46.59,5.26-26.55,13.09-55.32,35.23-70.86A270,270,0,0,1,284,44.92a98.93,98.93,0,0,0,2.85,33Z"/><path class="cls-5" d="M441.05,807.76c-50.52,11.41-98.9,12.09-154.48,6.79-15.64-1.49-41.92-4.88-58.62-13.43C296.6,817.06,368.92,816,441.05,807.76Z"/><path class="cls-13" d="M367,75.41a112.9,112.9,0,0,0-35.46-3.72,69.71,69.71,0,0,0-11.43-8.54,59.19,59.19,0,0,1,12.28-2.33C345.43,59.77,359.79,65,367,75.41Z"/><path class="cls-13" d="M331.53,71.69c-3.27.12-6.57.41-9.89.79a293.91,293.91,0,0,0-32.54,5.64c9.9-5.84,20.11-11.73,31-15A69.71,69.71,0,0,1,331.53,71.69Z"/><path class="cls-5" d="M284.32,1118c2.32.12,4.66.24,7,.33q-7.4,2.06-14.91,3.75C279.07,1120.71,281.71,1119.36,284.32,1118Z"/><path class="cls-10" d="M250.61,424.25c.07.3.12.62.19.93a24.27,24.27,0,0,1-2.92,3.05,34.16,34.16,0,0,1-5.59,4.33l-.08-.15a31.1,31.1,0,0,0-15.63-1.91,5,5,0,0,0-3.15,1.32s0,.05-.05.06c-22.25,8.28-44.62,16.68-65.11,28.66a41.91,41.91,0,0,1-9.26,4.55c-3,.88-6.28,1-9.36,1.71-.53.12-1.05.27-1.56.42-7.57-23.53,3.4-49.08,15.29-71,12.16-22.38,26-46.29,22.64-71.52-1.35-10.2-5.45-19.78-7.87-29.77a91.24,91.24,0,0,1,2.1-49.87c5.8-17.51,16.91-33.15,20.72-51.2,5-23.57-3.06-48.23.53-72,4.23-28,23.72-50.89,42.4-72.14,6.55-7.45,13.29-15,22-19.74s20-6,28.31-.64l3.1.71A58.81,58.81,0,0,0,284,44.85a.11.11,0,0,0,0,.07,270,270,0,0,0-4.47,37.59c-22.14,15.54-30,44.31-35.23,70.86-3.05,15.36-5.78,30.92-5.35,46.59.49,18.81,1.21,28.59,2.62,47.34,1.13,15.14,5.35,36,10.7,50.22,4.34,11.55,12,22.1,21.13,31.26l-.33.34c6.28,25.75.72,53.32-10.62,77.3a80.69,80.69,0,0,1-5.32,10,8,8,0,0,1,1-3.76,9.35,9.35,0,0,0-7.23,6.89A16.28,16.28,0,0,0,250.61,424.25Z"/><path class="cls-3" d="M250.8,425.18c-.07-.31-.12-.63-.19-.93a16.28,16.28,0,0,1,.24-4.68,9.35,9.35,0,0,1,7.23-6.89,8,8,0,0,0-1,3.76,23,23,0,0,0,1.22,7c2.93,10,5.83,20,9.21,29.65,5.39,15.34,12,29.67,21.93,41.3q-6.92-1.75-13.73-4A220.89,220.89,0,0,1,259,454.32,205.84,205.84,0,0,1,250.8,425.18Z"/><path class="cls-8" d="M259,454.32a220.89,220.89,0,0,0,16.78,36.08c-.19-.06-.39-.11-.58-.18-12.82-4.23-25.41-9.86-35.44-18.86-9.36-8.42-16.27-20.19-17.08-32.65a38.84,38.84,0,0,0,19.65-6.15,34.16,34.16,0,0,0,5.59-4.33,24.27,24.27,0,0,0,2.92-3.05A205.84,205.84,0,0,0,259,454.32Z"/><path class="cls-1" d="M223.38,431.88s0-.05.05-.06a5,5,0,0,1,3.15-1.32,31.1,31.1,0,0,1,15.63,1.91l.08.15a38.84,38.84,0,0,1-19.65,6.15,30.29,30.29,0,0,1-.07-3.81A5,5,0,0,1,223.38,431.88Z"/><path class="cls-2" d="M152.84,763.7a63.81,63.81,0,0,0-4.23,10.16c-8.34-3.71-16.75-7.26-25.54-9.36,4.18-38,9.26-75.81,15.8-113.4l1.64.34,1.93.35c-1,4.61-2.05,9.4-3.11,14.6-6.91,33.83-2.66,52.32,2.67,69.88C145.46,747.61,149.5,755.44,152.84,763.7Z"/><path class="cls-1" d="M148.61,773.86c-3.54,10.84-5,23.06-5.61,33.93-2.32,39-4.64,77.57-7,116.13a191.19,191.19,0,0,0-26.21-7.42c3.69-50.76,7.67-101.51,13.26-152C131.86,766.6,140.27,770.15,148.61,773.86Z"/><path class="cls-2" d="M107,955.42q1.4-19.47,2.79-38.92A191.19,191.19,0,0,1,136,923.92c-2.15,36-4.31,72-6.48,108.42h0c-3.09,4.07-6.25,8.13-7,13.09-.58,3.54.19,7.16.1,10.77-.12,5.06,0,11.7-3.13,15.66-1.51,2.75-3.08,5.52-4.46,8.37-2.35,4.87-4.11,9.94-3.89,15.29a32.83,32.83,0,0,0,.54,4.4c-5.69,1.8-11.17,3.35-16.56,4.61C99.92,1055,103.48,1005.2,107,955.42Z"/><path class="cls-4" d="M138.87,651.1c-6.54,37.59-11.62,75.43-15.8,113.4-1.12-.27-2.22-.51-3.34-.73-10.49-2-21.31-1.81-32-1a284.43,284.43,0,0,0-79.6,18c.89-21.25,3.38-42.47,5.87-63.6q5.31-45.19,10.6-90.37a178.21,178.21,0,0,1,34.33.56l0,.06a95.84,95.84,0,0,1,42.89,36.29C100.43,652.93,96,643,90.09,633.83q5.1,1.5,10.1,3.37C113.06,642,125.48,648.24,138.87,651.1Z"/><path class="cls-5" d="M119.73,763.77c1.12.22,2.22.46,3.34.73-5.59,50.49-9.57,101.24-13.26,152a203.24,203.24,0,0,0-94.57,3c1.86-37-6.14-74.62-7.31-112-.27-8.87-.17-17.75.22-26.6a284.43,284.43,0,0,1,79.6-18C98.42,762,109.24,761.72,119.73,763.77Z"/><path class="cls-6" d="M112.94,1107.73c.67,10-5.16,19.18-9.44,28.31-5.13,11-8.22,22.82-11.25,34.57-2.93,11.33-6,23.37-9.09,35.73,4.83-33.79,8.69-67.76,12-101.81,5.39-1.26,10.87-2.81,16.56-4.61A64.13,64.13,0,0,1,112.94,1107.73Z"/><path class="cls-4" d="M107,955.42c-3.54,49.78-7.1,99.54-11.89,149.11-27.13,6.26-52,4.64-89.27-15.16a7.45,7.45,0,0,1-2-1.57,7.62,7.62,0,0,1-1.14-8.37c11.45-23.94-11.65-59.3,3.42-83.26,3.37-5.35,8.71-10.33,8.28-16.63-.2-3.18-1.89-6-2.94-9-3.07-8.79-.58-18.39,1.11-27.51a178.72,178.72,0,0,0,2.66-23.54,203.24,203.24,0,0,1,94.57-3Q108.39,936,107,955.42Z"/><path class="cls-4" d="M90.09,633.83c5.94,9.19,10.34,19.1,11.73,29.95a95.84,95.84,0,0,0-42.89-36.29l0-.06A173.18,173.18,0,0,1,90.09,633.83Z"/><path class="cls-8" d="M95.13,1104.53c-3.28,34-7.14,68-12,101.81-2,7.76-3.93,15.63-5.89,23.52-5.68,22.61-11.36,45.33-16.63,65.72l0,0-40.93-.07c3-14.57,2.52-29.61,2-44.48C20,1197.67,5.57,1141.15,3.85,1087.8a7.45,7.45,0,0,0,2,1.57C43.15,1109.17,68,1110.79,95.13,1104.53Z"/><path class="cls-5" d="M83.16,1206.34q-1.75,12.23-3.67,24.39c-.75-.27-1.48-.58-2.22-.87C79.23,1222,81.21,1214.1,83.16,1206.34Z"/><path class="cls-4" d="M77.27,1229.86c.74.29,1.47.6,2.22.87q-5.13,32.64-11.72,65H60.59l0-.19C65.91,1275.19,71.59,1252.47,77.27,1229.86Z"/><path class="cls-14" d="M847.64,875.76a8.09,8.09,0,1,1,8.1-8.09A8.09,8.09,0,0,1,847.64,875.76Zm0-14.47a6.39,6.39,0,1,0,6.41,6.38A6.38,6.38,0,0,0,847.64,861.29Z"/><path class="cls-14" d="M886.32,825.83a8.09,8.09,0,1,1,8.09-8.1A8.1,8.1,0,0,1,886.32,825.83Zm0-14.48a6.39,6.39,0,1,0,6.4,6.38A6.38,6.38,0,0,0,886.32,811.35Z"/><path class="cls-14" d="M284.83,45l-1.66-.32c1-5.38,2.12-10.25,3.33-14.89l1.64.43C286.93,34.83,285.85,39.67,284.83,45Z"/><path class="cls-14" d="M348.75,370.41a65.21,65.21,0,0,1-25.15-5.55c-11.57-4.9-21.93-12.33-32-19.51a146.69,146.69,0,0,1-18.87-16c-10.11-10.19-17.29-20.81-21.32-31.56-5.12-13.58-9.55-34.33-10.75-50.46-1.38-18.34-2.14-28.44-2.63-47.38-.43-16,2.41-31.89,5.37-46.77,5.52-27.86,13.62-55.75,35.23-71.15a277.13,277.13,0,0,1,4.47-37.3l1.67.32a269.55,269.55,0,0,0-4.46,37.46V83l-.35.24c-21.38,15-29.41,42.68-34.89,70.34-2.94,14.78-5.77,30.54-5.34,46.39.49,18.9,1.25,29,2.62,47.31,1.2,16,5.58,36.53,10.65,50,4,10.53,11,20.95,20.94,31A144.1,144.1,0,0,0,292.64,344c9.94,7.13,20.22,14.5,31.62,19.34,8.61,3.67,21.68,7.38,35,4.2l.86-.21c10.18-2.68,19-9.1,26.84-14.77,12-8.7,24.49-18.14,34.23-29.57l1.29,1.1C412.62,335.63,400,345.14,388,353.9c-7.93,5.76-16.92,12.28-27.39,15-.31.09-.61.16-.93.23A46.75,46.75,0,0,1,348.75,370.41Z"/><path class="cls-14" d="M422.48,324.05l-1.29-1.1c1-1.13,1.78-2.14,2.51-3.1a78.55,78.55,0,0,0,12.73-23l1.6.56a80.38,80.38,0,0,1-13,23.51C424.3,321.86,423.46,322.9,422.48,324.05Z"/><path class="cls-14" d="M137.82,469.06c-.19-.53-.36-1-.54-1.58-7.71-24,3.43-49.68,15.36-71.64l1.62-3c11.84-21.72,24.07-44.18,20.92-68-.83-6.24-2.74-12.39-4.59-18.34-1.15-3.69-2.34-7.51-3.27-11.34a92.83,92.83,0,0,1,2.12-50.34,187,187,0,0,1,9.3-21.63c4.54-9.42,9.23-19.16,11.4-29.48,2.62-12.33,1.6-25.24.62-37.73-.89-11.28-1.81-22.93-.1-34.27,4.4-29.1,25.58-53.2,42.6-72.57,6.22-7.07,13.27-15.08,22.25-19.93,9.87-5.33,21.25-5.6,29-.69l2.32.54C296.14,11.79,316.92.42,340,0s44.54,8.89,60.71,17C422.83,28.14,439.12,39.48,452,52.71c19.32,19.81,31.5,45.13,40,65,4.48,10.49,9.32,22.76,10,35.6.18,3.62,0,7.28-.11,10.83a97.71,97.71,0,0,0,0,12.69c1.41,15.37,9.66,28.22,18.41,41.83,5.5,8.56,11.18,17.41,14.93,26.88,10.11,25.5,5.85,54.32.34,79.15l-.65,2.95c-4.69,21.06-9.54,42.84-.62,61.73,2.41,5.11,5.8,9.81,9.09,14.35,1.87,2.59,3.82,5.28,5.57,8a80.87,80.87,0,0,1,12.43,54l-1.68-.21a79.18,79.18,0,0,0-12.18-52.93c-1.72-2.71-3.65-5.37-5.52-7.95-3.33-4.6-6.77-9.36-9.25-14.61-9.16-19.43-4.24-41.49.51-62.83l.65-2.94c5.45-24.58,9.67-53.09-.26-78.16-3.69-9.32-9.33-18.1-14.79-26.59-8.47-13.18-17.22-26.82-18.66-42.6a99.36,99.36,0,0,1,0-12.91c.14-3.51.29-7.14.1-10.67-.64-12.57-5.41-24.67-9.83-35C482,98.64,469.9,73.51,450.78,53.89,438,40.8,421.9,29.57,400,18.55c-16-8-37.29-17.26-59.92-16.84s-43.16,11.66-52,28.7l-.3.58-4-1c-7.28-4.67-18.05-4.41-27.45.67-8.71,4.71-15.65,12.6-21.78,19.56-16.87,19.2-37.87,43.09-42.2,71.7-1.68,11.15-.77,22.71.11,33.88,1,12.61,2,25.65-.64,38.22-2.22,10.52-7,20.35-11.53,29.86a183.08,183.08,0,0,0-9.22,21.44,91,91,0,0,0-2.08,49.4c.91,3.78,2.09,7.57,3.23,11.23,1.88,6,3.81,12.24,4.66,18.63,3.22,24.38-9.15,47.09-21.11,69.05l-1.63,3c-11.75,21.64-22.75,46.92-15.22,70.31.16.52.33,1,.51,1.54Z"/><path class="cls-14" d="M469,335.27c-11.3-10.8-24.12-23-32.49-37.75A74.94,74.94,0,0,1,430.44,284c-5.29-16.16-4.11-33.54-3-50.36,1.08-15.9,2.2-32.35-2.2-47.64-2.13-7.46-5.36-13.37-9.57-17.57-3.61-3.6-8.2-6.18-12.64-8.68-2.33-1.32-4.75-2.68-7-4.18a57.63,57.63,0,0,1-25.48-46.29c-.05-2.85.11-5.76.26-8.56.32-5.87.65-11.93-1-17.55a25.21,25.21,0,0,0-3.52-7.27c-6.67-9.61-20.24-15.33-33.85-14.24A57.65,57.65,0,0,0,320.34,64c-10.38,3.08-20.1,8.56-30.81,14.88l-.66.38-.36.22-2.37-.86-.13-.42c0-.16-4.58-16.19-2.87-33.34l0-.18a59.63,59.63,0,0,1,3.36-14.93l1.58.59a58,58,0,0,0-3.27,14.62l0,.19a99.75,99.75,0,0,0,2.72,32.17l.81.29.35-.2c10.79-6.36,20.6-11.9,31.17-15A59.58,59.58,0,0,1,332.31,60c14.15-1.13,28.38,4.88,35.37,15a26.68,26.68,0,0,1,3.76,7.76c1.74,5.9,1.4,12.11,1.07,18.12-.15,2.78-.31,5.65-.25,8.44A55.89,55.89,0,0,0,397,154.16c2.22,1.47,4.61,2.81,6.92,4.12,4.54,2.55,9.23,5.19,13,8.95,4.43,4.41,7.79,10.57,10,18.3,4.48,15.58,3.35,32.18,2.26,48.23-1.13,16.65-2.3,33.87,2.89,49.72a73.44,73.44,0,0,0,5.91,13.2c8.25,14.5,21,26.65,32.19,37.36Z"/><path class="cls-14" d="M287.24,79.41l-.35-1.66.45-.1.5-.12c.35-.08.72-.17,1.1-.24a298.17,298.17,0,0,1,32.61-5.65c3.64-.42,6.9-.69,9.95-.8a114.43,114.43,0,0,1,35.71,3.76c.28.06.62.15.94.24l-.46,1.63c-.29-.08-.59-.17-.88-.23a111.49,111.49,0,0,0-35.24-3.71c-3,.11-6.23.37-9.83.8A292.18,292.18,0,0,0,289.29,79c-.4.07-.74.15-1.08.23l-.47.11Z"/><path class="cls-14" d="M222.53,439.56v-1.7h.11a38.2,38.2,0,0,0,19.2-6,33.45,33.45,0,0,0,5.45-4.23l1-.92a14.61,14.61,0,0,0,1.88-2.05,3,3,0,0,0,.21-.23l1.32,1.05-.26.31a16.77,16.77,0,0,1-2,2.15c-.26.24-.56.52-.95.9a35.26,35.26,0,0,1-5.72,4.45,40,40,0,0,1-20.11,6.28Z"/><path class="cls-14" d="M257.83,416.9,256.4,416a78.22,78.22,0,0,0,5.2-9.8l.06-.13c12.46-26.33,16.21-53.59,10.56-76.74l1.65-.4c5.74,23.53,1.95,51.18-10.68,77.86l-.06.14A81.18,81.18,0,0,1,257.83,416.9Z"/><path class="cls-14" d="M471.19,432.56H471l-.19-.08a81.53,81.53,0,0,1-17.72-11.31,95,95,0,0,1-7.65-7.19l1.22-1.17a95.15,95.15,0,0,0,7.52,7.06A79.22,79.22,0,0,0,471.54,431l-.36.75Z"/><polygon class="cls-14" points="439.27 407.35 439.26 405.65 439.27 405.65 439.27 407.35"/><path class="cls-14" d="M438.62,407c-10.56-11.93-16.93-24.5-18.94-37.34-1.49-9.48-2.87-19.53-1.91-29.21A113.13,113.13,0,0,1,421,323.26l.78.25h.87l0,.26a113.41,113.41,0,0,0-3.18,16.89c-.94,9.47.42,19.41,1.89,28.77,2,12.52,8.2,24.8,18.54,36.49Z"/><path class="cls-14" d="M344.15,502.12a221.08,221.08,0,0,1-54.89-6.9c-4.58-1.16-9.21-2.51-13.79-4l-.26-.09-.34-.11c-15.68-5.17-27-11.22-35.71-19-10.26-9.22-16.59-21.33-17.37-33.22a33.43,33.43,0,0,1-.07-3.9,5.83,5.83,0,0,1,1-3.5l.13-.16a5.65,5.65,0,0,1,3.61-1.54,31.84,31.84,0,0,1,16.06,2l-.62,1.58a30.11,30.11,0,0,0-15.21-1.86,4.3,4.3,0,0,0-2.62,1l-.09.11a4.33,4.33,0,0,0-.56,2.45,30.36,30.36,0,0,0,.06,3.71c.75,11.47,6.87,23.16,16.81,32.09,8.5,7.64,19.67,13.57,35.14,18.68l.27.09.33.11c4.51,1.48,9.11,2.82,13.65,4a220.2,220.2,0,0,0,99.06,2.28c2.5-.52,5.06-1.09,7.61-1.72,1.52-.37,3.06-.78,4.57-1.18,15.95-4.29,28.38-10,38-17.58a82.28,82.28,0,0,0,13.59-13.63c6.41-8,12.1-17.68,17.9-30.39.41-.9.81-1.76,1.19-2.63a5.78,5.78,0,0,0,.49-2.84,5.4,5.4,0,0,0-.7-2.22,5.6,5.6,0,0,0-3.88-2.86,31.57,31.57,0,0,0-13.57.4l-.38-1.65a33.05,33.05,0,0,1,14.27-.41,7.28,7.28,0,0,1,5,3.7,7.15,7.15,0,0,1,.91,2.89,7.61,7.61,0,0,1-.63,3.68c-.38.87-.79,1.74-1.19,2.61-5.87,12.87-11.62,22.64-18.12,30.78A84.82,84.82,0,0,1,440,476.71c-9.81,7.68-22.44,13.53-38.61,17.88-1.53.41-3.08.82-4.61,1.19-2.57.64-5.15,1.22-7.66,1.74A220.89,220.89,0,0,1,344.15,502.12Z"/><path class="cls-14" d="M29,602.57H27.28c0-.32,0-.64,0-1,.47-17.45,7.16-35.42,13.63-52.8,1.64-4.4,3.19-8.56,4.63-12.69C53.65,513,65,501.38,84.66,495.89c5.93-1.66,10.33-4.2,15-6.89,2.91-1.68,5.92-3.42,9.47-5,4.45-2,8.51-5.08,12.44-8,5-3.78,10.21-7.69,16.29-9.52.52-.16,1.07-.31,1.61-.44,1.38-.31,2.8-.52,4.18-.71a38.83,38.83,0,0,0,5.14-1,38,38,0,0,0,8.37-4.06l.69-.41c20.91-12.22,44.47-21,65.25-28.72l1.07-.4.61,1.58-1.09.41c-20.72,7.71-44.2,16.45-65,28.59l-.69.4a38.73,38.73,0,0,1-8.76,4.23,39.08,39.08,0,0,1-5.37,1c-1.34.19-2.73.39-4,.7-.51.11-1,.26-1.51.4-5.79,1.74-10.63,5.39-15.76,9.25-4,3-8.13,6.12-12.75,8.22-3.47,1.59-6.45,3.31-9.33,5-4.75,2.74-9.24,5.34-15.38,7C66,502.84,55,514.19,47.18,536.67c-1.45,4.16-3,8.32-4.64,12.74C36.12,566.65,29.48,584.49,29,601.68,29,602,29,602.28,29,602.57Z"/><path class="cls-14" d="M816.12,942.84a39.74,39.74,0,0,1-7.62-.87.85.85,0,0,1,.06-1.67c4.71-.56,6.1-2.95,8-7.89a16.08,16.08,0,0,0,1-5A29.21,29.21,0,0,0,816,916.86c-5-16.14-12.1-26.48-27-39.49-1.82-1.6-3.88-3.34-6.29-5.32l-1.83-1.5c-13.55-11.11-30.41-24.93-45.59-25.74a22.27,22.27,0,0,0-6.3.47,6.29,6.29,0,0,0-4.25,3.31,6.59,6.59,0,0,0-.19,5.62,14.66,14.66,0,0,0,2.9,4.78.85.85,0,0,1-1.17,1.22,81.88,81.88,0,0,1-6.4-6.74,11.61,11.61,0,0,1-2.58-9.38,12,12,0,0,1,5.59-8.35l3.25-2c5.5-3.3,11.18-6.7,15.29-11.58,3.15-3.74,5.35-8.27,7.47-12.65.78-1.63,1.6-3.31,2.45-4.94a72.19,72.19,0,0,1,4.51-7.44,81.6,81.6,0,0,1,26.25-24c18-10.47,39.34-14.09,58.49-9.92.86.19,1.7.38,2.56.6a.85.85,0,1,1-.43,1.64c-.83-.22-1.65-.4-2.49-.58-18.74-4.08-39.62-.54-57.28,9.72a80.2,80.2,0,0,0-25.71,23.54,73.55,73.55,0,0,0-4.4,7.27c-.84,1.6-1.65,3.27-2.43,4.89-2.16,4.47-4.4,9.1-7.69,13-4.3,5.1-10.11,8.58-15.72,11.94-1.08.65-2.16,1.29-3.23,1.95a10.32,10.32,0,0,0-4.81,7.18,9.92,9.92,0,0,0,2.2,8c.51.6,1,1.2,1.55,1.78a8.28,8.28,0,0,1,.51-6.34,8,8,0,0,1,5.39-4.18,24.46,24.46,0,0,1,6.77-.51c15.72.84,32.82,14.86,46.56,26.12l1.83,1.5c2.43,2,4.5,3.74,6.34,5.35,15.15,13.25,22.34,23.79,27.49,40.26a31,31,0,0,1,1.61,11.2,17.78,17.78,0,0,1-1.12,5.46c-1.33,3.56-2.62,6.38-5.54,7.89,8.11.9,13.32-1.2,17.46-6.88a24.26,24.26,0,0,0,3.15-7.28c.18-.59.37-1.18.56-1.76,4.37-13.34,13.5-24.4,22.33-35.1,2.88-3.49,5.86-7.1,8.62-10.72,15.24-20,25.8-43.43,34.13-63.74,2.37-5.81,4.71-11.74,7-17.47l.46-1.17c1.2-3,2.56-6.42,2.3-9.85a51.46,51.46,0,0,1,.29-6c.08-1,.16-2,.23-3,.14-1.93.51-7.05-.38-8.62-15.09-26.85-33.24-46.32-54.25-68.86l-4.7-5c-9-9.65-19-18.59-28.69-27.23l-.22-.2q-18.39-16.34-36.75-32.7l-7.58-6.75c-4.87-4.32-10.39-9.22-13.43-15.7-.6-1.3-1.1-2.65-1.59-4a34.29,34.29,0,0,0-2.29-5.31c-2.64-4.6-7.29-7.73-11.78-10.75l-.11-.07c-15.94-10.74-31.57-22.24-46.44-34.18a690.76,690.76,0,0,1-53.17-47.41c-8.53-8.44-19-15.33-34.08-22.33l-.35-.17-.4-.18c-6.79-3.14-13.91-6-20.79-8.85q-4-1.62-7.94-3.25l-12-5-12-5-9.39-3.9c-3.2-1.33-6.4-2.67-9.61-4-3.77-1.56-8.06-3.32-11.33-6.42a36.48,36.48,0,0,1-3.94-4.62,32.56,32.56,0,0,0-4.07-4.69c-5.73-5.08-14-5.24-22.07-5.39-1.41,0-2.81-.05-4.18-.1-8.62-.32-19.92-3.43-23.43-11.17a11.37,11.37,0,0,1-.88-2.77.85.85,0,0,1,1.67-.31,9.66,9.66,0,0,0,.74,2.37c3,6.6,13.19,9.87,22,10.18,1.36.06,2.75.08,4.15.11,8.34.16,17,.32,23.17,5.81a33.7,33.7,0,0,1,4.28,4.93,36.25,36.25,0,0,0,3.76,4.42c3.05,2.88,7.18,4.58,10.82,6.08l9.61,4,9.39,3.89,12,5,12,5c2.63,1.1,5.28,2.18,7.93,3.26,6.9,2.81,14,5.72,20.88,8.88l.36.17.39.18c15.21,7.08,25.86,14.07,34.54,22.66a689.44,689.44,0,0,0,53,47.29c14.84,11.91,30.42,23.38,46.32,34.09l.11.07c4.66,3.14,9.47,6.38,12.31,11.32a35.67,35.67,0,0,1,2.41,5.56c.47,1.28,1,2.6,1.54,3.83,2.88,6.17,8.26,10.94,13,15.15,2.53,2.26,5,4.51,7.59,6.76q18.36,16.35,36.74,32.7l.23.2c9.73,8.67,19.79,17.63,28.8,27.34l4.69,5c21.09,22.63,39.31,42.17,54.49,69.19.81,1.43,1,4.2.6,9.57-.07,1-.15,2-.23,3a51.79,51.79,0,0,0-.29,5.74c.29,3.81-1.21,7.57-2.42,10.6l-.46,1.16c-2.26,5.74-4.61,11.67-7,17.49-8.36,20.41-19,44-34.35,64.13-2.77,3.64-5.76,7.27-8.65,10.77-8.73,10.57-17.76,21.51-22,34.54-.19.58-.37,1.16-.55,1.74a25.56,25.56,0,0,1-3.4,7.78A17.66,17.66,0,0,1,816.12,942.84Z"/><path class="cls-14" d="M552.39,591.54c-.6-39.34,22.38-90.51,60.54-104.61l.59,1.59c-29.17,10.77-60.19,53.21-59.44,103Z"/><path class="cls-14" d="M148.3,602.57h-1.69c0-15.1-11.19-38.38-17.8-49.75-16.17-27.87-33.33-45-52.46-52.43l.61-1.58c19.51,7.56,37,24.95,53.31,53.16C137,563.49,148.3,587.11,148.3,602.57Z"/><path class="cls-14" d="M345.32,535.18c-28,0-51.92-3.63-72.68-11-30.31-10.81-54.35-30.11-67.7-54.35l1.49-.82c13.14,23.88,36.86,42.9,66.78,53.58,24.05,8.57,52.39,12,86.61,10.62l.07,1.69Q352.44,535.19,345.32,535.18Z"/><path class="cls-14" d="M387.62,552.62l-.45-1.63c9.65-2.67,19.72-5,29.46-7.18,31.05-7.07,63.16-14.39,87.27-35,14.07-12,24.57-28.11,33.31-42.24l1.44.89c-8.81,14.24-19.39,30.45-33.65,42.63-24.42,20.87-56.74,28.23-88,35.35C407.29,547.67,397.24,550,387.62,552.62Z"/><path class="cls-14" d="M433.3,601.51A399.36,399.36,0,0,1,252.39,558.2c-14.16-7.24-28.22-15.89-35.19-30.05l1.52-.75c6.75,13.72,20.55,22.19,34.44,29.29a397.22,397.22,0,0,0,229.69,40l.22,1.68A388.44,388.44,0,0,1,433.3,601.51Z"/><path class="cls-14" d="M351.67,469.63a24.49,24.49,0,0,1-20.19-11l1.42-.92a22.31,22.31,0,0,0,37.8-.5l1.45.88A24.49,24.49,0,0,1,352,469.63Z"/><path class="cls-14" d="M267.26,454l-.21-1.68.26,0,.1,0c3.52-.54,6.89-1.14,10.15-1.73,5.42-1,10.54-1.88,16.28-2.55,6.37-.73,13.06-1,18.8,2l-.79,1.49c-5.33-2.81-11.71-2.55-17.81-1.85-5.69.66-10.79,1.57-16.18,2.54-3.26.58-6.62,1.19-10.14,1.73A3.69,3.69,0,0,1,267.26,454Z"/><path class="cls-14" d="M247.26,456c-2.27,0-4.53-.11-7-.31l.14-1.69a81.36,81.36,0,0,0,18.43-.52l.21,1.68A93.3,93.3,0,0,1,247.26,456Z"/><path class="cls-14" d="M450.44,449.46l-7-.1-7.13-.1,0-1.7,7.13.11,7,.1Z"/><path class="cls-14" d="M386.81,451l-.8-1.49c4.72-2.55,10.45-2.47,15.06-2.41,9.63.12,17.74.22,27.38.36l0,1.69c-9.64-.14-17.75-.24-27.38-.36C396.65,448.78,391.15,448.7,386.81,451Z"/><path class="cls-14" d="M389.51,497.29l-1.22-1.18h0a314.37,314.37,0,0,0,30.8-35.65c3.54-4.77,6.28-8.76,8.61-12.55l.41-.69c.27-.44.54-.88.79-1.32a89.28,89.28,0,0,0,5.17-10.22c4.07-9.69,5.62-19.41,4.48-28.11l0-.29c0-.2-.06-.39-.1-.59l0-.14c-.31-1.72-.92-4.14-2.64-5.55l-1-.84,1.2-.57a5.92,5.92,0,0,1,3.33-.62,5.5,5.5,0,0,1,2.8,1.68c1.78,1.67,3.43,3.36,4,5.57a1.93,1.93,0,0,1,.11.43l-1.67.29-.07-.25c-.42-1.8-1.84-3.24-3.52-4.81a4,4,0,0,0-1.89-1.24,3.42,3.42,0,0,0-1.17.07,12.22,12.22,0,0,1,2.24,5.62v.1c0,.2.07.41.1.61l.05.29c1.18,9-.41,19-4.6,29a91.71,91.71,0,0,1-5.26,10.41c-.26.45-.54.9-.81,1.35l-.42.69c-2.35,3.84-5.12,7.87-8.69,12.68A316,316,0,0,1,389.51,497.29Z"/><path class="cls-14" d="M401.8,494.3l-1.32-1.06c2.79-3.47,5.62-6.72,8.35-9.87s5.55-6.38,8.31-9.84c5.89-7.34,12-14.94,17-23.09.51-.81,1-1.63,1.46-2.45,1-1.69,1.94-3.48,2.84-5.3,4.88-10,7.23-20.1,6.8-29.26a43.21,43.21,0,0,0-.84-6.76l1.65-.34a44,44,0,0,1,.88,7c.44,9.44-2,19.84-7,30.07-.92,1.86-1.89,3.68-2.89,5.41-.48.83-1,1.67-1.49,2.49-5,8.24-11.16,15.88-17.07,23.26-2.79,3.48-5.62,6.74-8.36,9.89S404.57,490.86,401.8,494.3Z"/><path class="cls-14" d="M288.91,495l-.08-.09c-8.8-10.29-15.61-23.11-22.09-41.57-3.21-9.13-6-18.76-8.75-28.07l-.47-1.62a23.52,23.52,0,0,1-1.25-7.28,8.65,8.65,0,0,1,1.07-4.14,1.77,1.77,0,0,1,.14-.27l1.52.77-.06.1c0,.05-.06.09-.09.15a7.15,7.15,0,0,0-.89,3.44,22.48,22.48,0,0,0,1.18,6.75l.48,1.62c2.71,9.29,5.52,18.9,8.72,28,6.4,18.25,13.12,30.9,21.77,41Z"/><path class="cls-14" d="M275.39,491.52l-.1-.18c-.11-.18-.21-.37-.31-.56a223.13,223.13,0,0,1-16.82-36.17A207,207,0,0,1,250,425.35c0-.15-.07-.31-.1-.47s-.05-.3-.09-.45l1.65-.37c0,.17.07.34.11.51s.05.29.08.43a207,207,0,0,0,8.13,29,222.41,222.41,0,0,0,16.72,36,5.58,5.58,0,0,0,.28.51l.11.19Z"/><path class="cls-14" d="M251.47,424.71h-1.69a1.09,1.09,0,0,0,0-.18c0-.1,0-.19,0-.28a17.4,17.4,0,0,1,.26-4.87,10.23,10.23,0,0,1,7.91-7.53l.3,1.67a8.47,8.47,0,0,0-6.56,6.25,16.13,16.13,0,0,0-.22,4.43,2.2,2.2,0,0,1,0,.23A2.53,2.53,0,0,1,251.47,424.71Z"/><path class="cls-14" d="M269.69,1124.43l6.35-3.15c2.87-1.43,5.45-2.76,7.88-4.07a314.62,314.62,0,0,0,114.3-104.1l1.41.94A316.23,316.23,0,0,1,284.72,1118.7l-1.63.87c2.7-.67,5.37-1.38,8-2.11a334.56,334.56,0,0,0,153.09-92.24,322,322,0,0,0,25.2-29.94l1.36,1a325.45,325.45,0,0,1-25.33,30.1,336.24,336.24,0,0,1-153.87,92.7c-4.86,1.35-9.89,2.62-14.94,3.77Z"/><path class="cls-14" d="M255.8,1259.5l0-1.7c54.82-.47,111.08-13,162.71-36.16,51.39-23.07,98.2-56.73,135.37-97.32,7.33-8,14.33-16.32,20.8-24.7l1.34,1c-6.5,8.41-13.53,16.76-20.89,24.81-37.33,40.76-84.33,74.55-135.93,97.72C367.34,1246.47,310.85,1259,255.8,1259.5Z"/><path class="cls-14" d="M405.06,1251.8l-.62-1.58c14.3-5.57,29.41-9.37,44-13.06,11.75-3,23.9-6,35.54-10,21.81-7.43,50.62-21.82,64-48.21l1.51.77c-10.8,21.28-33.27,38.24-65,49-11.71,4-23.9,7.06-35.68,10C434.31,1242.48,419.26,1246.27,405.06,1251.8Z"/><path class="cls-14" d="M227,1174.49a281.84,281.84,0,0,1-92-108.39l1.53-.73a277.56,277.56,0,0,0,15.55,28.05A282.38,282.38,0,0,0,228,1173.11Z"/><path class="cls-14" d="M197,1163.57a103.34,103.34,0,0,1-69.48-49.82l1.47-.84a101.63,101.63,0,0,0,68.33,49Z"/><path class="cls-14" d="M562.06,982.13c-.22-.5-.43-1-.64-1.53a211.62,211.62,0,0,1-10.12-30.4,245.68,245.68,0,0,1-5-25.19c-6.45-43.7-2.46-90.2,2.18-134.09h0a.35.35,0,0,1,0-.19c.1-1,.2-2,.32-3,1.43-13.53,5.28-22.35,9.34-31.68a174.51,174.51,0,0,0,7.69-20c5.13-16.9,9.25-34.69,3.28-66.27l-.12-.6c-.16-.86-.33-1.72-.51-2.59-1.23-6-2.81-11.6-4.31-16.77l-.58-2c-3-10.33-5.86-20.08-6.2-32.14l1.7,0c.33,11.83,3.14,21.49,6.12,31.7l.58,2c1.52,5.2,3.1,10.79,4.35,16.9q.27,1.32.51,2.61l.12.6c6,32,1.88,50-3.32,67.09a177.66,177.66,0,0,1-7.75,20.19c-4.19,9.61-7.81,17.91-9.22,31.19-.12,1-.22,2.06-.32,3.09l0,.18c-4.62,43.83-8.58,90.15-2.18,133.59a245.25,245.25,0,0,0,5,25A209.67,209.67,0,0,0,563,980c.2.51.4,1,.62,1.47Z"/><path class="cls-14" d="M570.25,670.38a.87.87,0,0,1-.32-.06.85.85,0,0,1-.46-1.11c1.16-2.8,5.51-12.2,12.85-15.25a.85.85,0,1,1,.65,1.56c-6.74,2.8-10.84,11.68-11.94,14.34A.83.83,0,0,1,570.25,670.38Z"/><path class="cls-14" d="M756.55,798.5a.88.88,0,0,1-.42-.11c-2.51-1.44-4.75-2.86-6.86-4.35a75.5,75.5,0,0,1-11.45-10c-2.11-2.22-4.09-4.59-6-6.88-1.74-2.08-3.54-4.23-5.41-6.24-7-7.57-15.64-13.77-24-19.76-9.33-6.72-19-13.67-26.51-22.6-1.28-1.51-2.51-3.1-3.7-4.64a68.65,68.65,0,0,0-7.59-8.73,6,6,0,0,0-.47-.45c-4.65-4.15-10.46-6.93-16.08-9.61a100.86,100.86,0,0,1-11.77-6.28,97.18,97.18,0,0,1-11.64-9.37l-26.8-24a55.75,55.75,0,0,0-7.52-6c-3.53-2.21-5.72-3.42-7.91-4-2.53-.61-5.11-.25-9.21,1.29a.85.85,0,0,1-.6-1.58c4.45-1.68,7.31-2.06,10.21-1.35,2.41.58,4.72,1.85,8.41,4.15a56.35,56.35,0,0,1,7.75,6.15l26.8,24a96.55,96.55,0,0,0,11.43,9.21,98.85,98.85,0,0,0,11.58,6.17c5.73,2.74,11.64,5.56,16.48,9.88a6.5,6.5,0,0,1,.54.52,69.79,69.79,0,0,1,7.73,8.89c1.18,1.52,2.4,3.09,3.65,4.58,7.41,8.77,17,15.66,26.21,22.32,8.39,6,17.07,12.29,24.22,20,1.9,2,3.71,4.21,5.47,6.31,1.89,2.27,3.85,4.62,5.92,6.79a74.85,74.85,0,0,0,11.2,9.83c2.07,1.46,4.27,2.85,6.73,4.26a.85.85,0,0,1-.42,1.58Z"/><path class="cls-14" d="M645.93,1104.65l-1.2-1.19c13.09-13.24,26.92-26.13,38.72-37q9.13-8.4,18.46-16.87c37.8-34.46,76.89-70.08,106-109,3.36-4.45,6.63-9,9.72-13.6l1.4,1c-3.11,4.6-6.39,9.2-9.76,13.66-29.26,39-68.4,74.7-106.26,109.21-6.2,5.65-12.37,11.27-18.45,16.87C672.81,1078.56,659,1091.44,645.93,1104.65Z"/><path class="cls-14" d="M602.81,1107.06l-1.69-.16a3.1,3.1,0,0,0,0-.43,9.87,9.87,0,0,0-.07-1.28c-.4-4-3-8.15-6.91-11-4.2-3-9.45-4.52-14.48-5.69a63.85,63.85,0,0,0-16.71-2.1,56.76,56.76,0,0,0-11,1.69c-1.76.43-3.53.91-5.24,1.37l-1.17.32-38.48,10.56c-9.35,2.57-19.17,4.73-27.38.55-.28-.13-.59-.29-.88-.46a38.89,38.89,0,0,1-6.08-4.66c-.59-.53-1.19-1-1.79-1.56a5.1,5.1,0,0,1-1.83-4.56,5.91,5.91,0,0,1,3.3-4.53c19.39-9.67,46.54-18.22,75-26.86l6.26-1.9c4.16-1.26,8.29-2.51,12.36-3.77l.5,1.62q-6.1,1.89-12.37,3.77l-6.26,1.9c-28.39,8.62-55.46,17.15-74.73,26.76a4.19,4.19,0,0,0-2.38,3.21,3.39,3.39,0,0,0,1.25,3.07c.6.51,1.21,1,1.81,1.58a37.32,37.32,0,0,0,5.8,4.46l.78.41c7.7,3.91,17.16,1.82,26.19-.66l38.49-10.56,1.16-.32c1.73-.47,3.51-.95,5.3-1.38a58.54,58.54,0,0,1,11.32-1.74,65.85,65.85,0,0,1,17.16,2.14c5.21,1.21,10.64,2.77,15.08,6s7.17,7.67,7.62,12.19a12.69,12.69,0,0,1,.07,1.45A5.72,5.72,0,0,1,602.81,1107.06Z"/><path class="cls-14" d="M459.54,1082a6.53,6.53,0,0,1-.84,0c-8.79-1.44-17.8-8.5-17-17.4a5.09,5.09,0,0,1,.18-1.07,3.19,3.19,0,0,1,.5-1.09,4.61,4.61,0,0,1,2.28-1.47c31.84-11.92,64.66-22.53,97.56-31.54,6.21-1.69,11.34-3.05,16.15-4.29l.42,1.64c-4.8,1.24-9.92,2.6-16.12,4.28-32.85,9-65.62,19.6-97.4,31.49a3.31,3.31,0,0,0-1.51.88,1.7,1.7,0,0,0-.26.56,5.27,5.27,0,0,0-.12.76c-.68,7.93,7.58,14.26,15.62,15.58,4.78.77,37.74-8.64,64.24-16.19,8.74-2.5,17-4.85,24.07-6.81,10.16-2.81,16-4.26,18.88-4.72l.26,1.67c-2.82.45-8.59,1.89-18.68,4.69-7.07,2-15.33,4.3-24.07,6.79C495.58,1073.76,466.57,1082,459.54,1082Z"/><path class="cls-14" d="M441.43,1064.16c-3.5,0-7-2.41-8.79-6-1.68-3.43-1.32-7.55-.81-11.47l.07-.5.47-.18q4.47-1.69,8.93-3.36l.42-.16c31.59-11.82,64.13-22.73,96.69-32.43q2.85-.87,5.73-1.71l.47,1.62c-1.91.56-3.82,1.14-5.71,1.71-32.53,9.69-65,20.59-96.59,32.39l-.42.16c-2.81,1.06-5.63,2.11-8.44,3.18-.46,3.64-.69,7.13.71,10s4.45,5,7.27,5l.65,0,.12,1.69C441.94,1064.14,441.68,1064.16,441.43,1064.16Z"/><path class="cls-14" d="M441,1042.83c-2.43-5.09-.8-11.66,4.15-16.74a21.67,21.67,0,0,1,2.31-2c4.14-3.08,9.08-4.8,13.85-6.46,1.62-.57,3.3-1.15,4.9-1.77a143.7,143.7,0,0,0,18.27-9.17c2.37-1.34,4.82-2.72,7.26-4,13.41-7.16,27.5-12.52,42-17.82l4.27-1.58c6.23-2.3,14-5.16,21.66-4.3a26.48,26.48,0,0,1,2.81.49c7.72,1.81,13.7,6.9,17.35,10.85a93.28,93.28,0,0,1,10,13.6l-1.43.91a91.62,91.62,0,0,0-9.76-13.36c-3.5-3.78-9.19-8.64-16.49-10.35a25.32,25.32,0,0,0-2.62-.45c-7.28-.82-14.82,2-20.88,4.2l-4.27,1.57c-14.41,5.29-28.44,10.63-41.75,17.74-2.43,1.29-4.87,2.66-7.23,4a143.16,143.16,0,0,1-18.49,9.27c-1.63.64-3.32,1.23-4.95,1.8-4.66,1.62-9.47,3.29-13.4,6.22a19.28,19.28,0,0,0-2.11,1.83c-3.38,3.46-6.41,9.42-3.83,14.82Z"/><path class="cls-14" d="M615,1034.26a40.61,40.61,0,0,1-13.91-10.83,108.33,108.33,0,0,1-9.49-13.28c-.61-.94-1.21-1.9-1.82-2.87-.48-.77-1-1.54-1.45-2.3l1.43-.91,1.46,2.32c.6,1,1.19,1.91,1.8,2.85a107.16,107.16,0,0,0,9.35,13.08,39,39,0,0,0,13.34,10.4Z"/><path class="cls-14" d="M588.35,1005a1.17,1.17,0,0,1-.13-.23,135.63,135.63,0,0,1-18.49-59.82,4.74,4.74,0,0,0-2.48-3.89,4.86,4.86,0,0,0-4.76,0,26.16,26.16,0,0,0-9.6,9.34l-1.45-.86a27.81,27.81,0,0,1,10.21-10,6.6,6.6,0,0,1,6.42,0,6.41,6.41,0,0,1,3.35,5.28,133.88,133.88,0,0,0,18.28,59.09l.08.18Z"/><path class="cls-14" d="M601.27,1023.76v-1.7a1.63,1.63,0,0,0,.31,0l.17,0a5.17,5.17,0,0,0,1-.09c19.19-3.12,60.3-63.61,84.86-99.76l2.23-3.27c2.68-3.94,5.49-7.89,8.21-11.7,4-5.6,8.11-11.39,11.88-17.26a307.38,307.38,0,0,0,16.94-30.38c2.49-5,4.88-10,7.75-16l.74.35h.87v.2l-.09.18c-2.86,6-5.26,11-7.76,16a306.8,306.8,0,0,1-17,30.55c-3.79,5.9-7.92,11.71-11.92,17.32-2.72,3.81-5.52,7.74-8.19,11.67L689,923.14c-26.31,38.72-66.08,97.24-86,100.47a6.42,6.42,0,0,1-1.16.11A3.48,3.48,0,0,1,601.27,1023.76Z"/><path class="cls-14" d="M699.79,647.83a.88.88,0,0,1-.42-.11.84.84,0,0,1-.32-1.15,88.93,88.93,0,0,1,18.8-22.46c19.54-16.77,35.94-16,46.26-12.42a.85.85,0,0,1-.56,1.6c-9.9-3.44-25.67-4.14-44.6,12.1a87.54,87.54,0,0,0-18.43,22A.82.82,0,0,1,699.79,647.83Z"/><path class="cls-14" d="M653.37,1296.61H59.51l.29-1.17c4.92-19,10.28-40.41,15.46-61.08l1.19-4.7c1.66-6.71,3.35-13.4,5-20l.88-3.5c3.07-12.24,6.13-24.26,9.09-35.74s6.07-23.52,11.3-34.72c.78-1.67,1.63-3.36,2.45-5,3.66-7.33,7.45-14.9,6.92-22.91a48.66,48.66,0,0,0-.89-5.89c-.12-.6-.24-1.21-.35-1.82a34,34,0,0,1-.56-4.51c-.19-4.76,1-9.6,4-15.7,1.15-2.39,2.45-4.74,3.71-7l.84-1.51c2.73-3.43,2.84-9.26,2.93-13.94l0-1.22c0-1.36-.06-2.77-.15-4.13a30,30,0,0,1,.06-6.76c.79-5,3.92-9.15,6.95-13.14l.24-.32c.86-1.15,1.72-2.3,2.5-3.44,6.84-10.08,11.19-22.79,12.93-37.78a77.29,77.29,0,0,1,4.4-18.22,222.31,222.31,0,0,0,10.58-39c8.33-46,4.22-95.1-1.13-145.49a83.47,83.47,0,0,0-1.63-9.94A88.47,88.47,0,0,0,152.05,764c-1-2.45-2-4.84-3.13-7.36a174.93,174.93,0,0,1-7.73-20.14c-5.37-17.69-9.62-36.38-2.69-70.3.71-3.48,1.42-6.77,2.11-10,.34-1.58.68-3.13,1-4.66,2.52-11.69,4.63-22.48,5-36l1.69,0c-.37,13.66-2.5,24.53-5,36.31l-1,4.66c-.69,3.17-1.4,6.46-2.11,9.93-6.85,33.53-2.66,52,2.65,69.46a171.61,171.61,0,0,0,7.67,20c1.1,2.54,2.14,4.93,3.14,7.4a90.08,90.08,0,0,1,4.56,14.21,84.63,84.63,0,0,1,1.66,10.13c5.37,50.52,9.49,99.7,1.11,146A227.89,227.89,0,0,1,150.3,973,75.14,75.14,0,0,0,146,990.8c-1.77,15.27-6.22,28.24-13.21,38.54-.8,1.18-1.67,2.34-2.52,3.47l-.28.37c-2.89,3.82-5.89,7.76-6.62,12.38a28.3,28.3,0,0,0,0,6.38c.09,1.4.19,2.84.16,4.28l0,1.21c-.09,4.92-.21,11-3.24,14.9l-.74,1.34c-1.25,2.25-2.53,4.58-3.66,6.92-2.82,5.85-4,10.44-3.81,14.89a32.51,32.51,0,0,0,.52,4.29c.12.6.23,1.2.35,1.8a46.69,46.69,0,0,1,.92,6.1c.56,8.46-3.34,16.25-7.1,23.77-.81,1.63-1.65,3.31-2.43,5-5.16,11.06-8.22,22.94-11.19,34.43s-6,23.49-9.09,35.72l-.88,3.51c-1.66,6.61-3.34,13.3-5,20l-1.18,4.71c-5.11,20.35-10.39,41.38-15.23,60.14H651c-7.69-21.75-14.41-44.1-20-66.46-5-20-9.27-40.68-12.63-61.61-.25-1.56-.49-3.12-.74-4.68-2.47-15.77-5-32.06-12.32-46.3-.27-.54-.55-1.08-.83-1.61a36.91,36.91,0,0,1-3.29-7.57,13.73,13.73,0,0,1-.49-2.41l1.69-.18a11.83,11.83,0,0,0,.43,2.13,36.42,36.42,0,0,0,3.15,7.24c.29.54.57,1.08.85,1.63,7.42,14.48,10,30.91,12.48,46.8.25,1.57.49,3.13.74,4.69,3.35,20.87,7.59,41.55,12.6,61.46,5.66,22.69,12.51,45.38,20.35,67.43Z"/><path class="cls-14" d="M347.87,818.55c-19.14,0-39.41-1.06-61.38-3.16-26.52-2.52-46.34-7.07-58.92-13.51a39,39,0,0,1-10.21-7.16l1.21-1.18a37.49,37.49,0,0,0,9.77,6.83c12.39,6.35,32,10.83,58.31,13.34,60.41,5.76,108,3.67,154.22-6.78A422.91,422.91,0,0,0,488,793.33l.56,1.6a428.53,428.53,0,0,1-47.35,13.66C411.64,815.27,381.52,818.55,347.87,818.55Z"/><path class="cls-14" d="M68.75,1108.65c-17.75,0-37.45-4.81-63.29-18.53a8.31,8.31,0,0,1-3.51-11c5.31-11.1,3.05-24.55.67-38.78-2.61-15.58-5.31-31.68,2.8-44.57.85-1.36,1.84-2.71,2.8-4,2.9-4,5.64-7.69,5.35-12.11a19.22,19.22,0,0,0-1.82-6.09c-.37-.88-.76-1.8-1.08-2.73-2.79-8-1.13-16.53.47-24.78.21-1.06.42-2.12.61-3.17a177.64,177.64,0,0,0,2.65-23.42c1.09-21.78-1.28-44.18-3.58-65.84-1.6-15.11-3.26-30.74-3.74-46.11C6.82,799,6.9,790,7.3,780.8c.91-21.41,3.44-42.89,5.88-63.66q2.65-22.59,5.3-45.19t5.3-45.18q.76-6.48,1.52-13,.73-6.13,1.45-12.27a.82.82,0,0,1,.93-.74.84.84,0,0,1,.75.93L27,614l-1.53,13q-2.66,22.6-5.3,45.19t-5.3,45.19c-2.44,20.74-5,42.18-5.87,63.53-.4,9.18-.47,18.11-.22,26.54.48,15.3,2.13,30.9,3.73,46,2.31,21.72,4.69,44.19,3.59,66.1a179.27,179.27,0,0,1-2.67,23.65c-.2,1.06-.41,2.12-.61,3.18-1.57,8-3.18,16.34-.54,23.9.3.88.68,1.77,1,2.64a20.65,20.65,0,0,1,1.95,6.63c.34,5-2.72,9.2-5.68,13.22-.94,1.28-1.91,2.6-2.73,3.91C-.91,1009,1.73,1024.75,4.29,1040c2.32,13.87,4.72,28.2-.81,39.79a6.75,6.75,0,0,0,1,7.43,6.48,6.48,0,0,0,1.8,1.4c38.73,20.56,63.46,20.89,88.67,15.07,5-1.16,10.4-2.66,16.5-4.59a.85.85,0,0,1,.51,1.62c-6.14,1.93-11.58,3.45-16.63,4.62A116.79,116.79,0,0,1,68.75,1108.65Z"/><path class="cls-14" d="M129.54,1033.19h0a.86.86,0,0,1-.8-.9q2.1-35.16,4.18-69.9l2.31-38.52c2.67-44,4.88-80.93,7-116.13.81-13.85,2.66-25,5.64-34.14a65.93,65.93,0,0,1,4.29-10.29.85.85,0,1,1,1.5.79,63.84,63.84,0,0,0-4.18,10c-2.93,9-4.75,20-5.56,33.72-2.1,35.2-4.31,72.1-7,116.13l-2.31,38.52q-2.09,34.78-4.18,69.9A.84.84,0,0,1,129.54,1033.19Z"/><path class="cls-14" d="M126.08,971.55a54.41,54.41,0,0,0-19.43-15.37,66.48,66.48,0,0,0-15.1-5.2c-12.11-2.64-25.51-2.48-41,.46-.87.16-1.73.34-2.6.51-5.12,1-10.41,2.08-15.71,1.75l.1-1.69c5.09.31,10.27-.72,15.27-1.72l2.62-.52c15.7-3,29.32-3.13,41.66-.45a69.17,69.17,0,0,1,15.48,5.33,55.48,55.48,0,0,1,20,15.86Z"/><path class="cls-14" d="M60.59,1296.41l-42-.07.21-1c3-14.57,2.5-29.68,2-44.28-.86-26.62-5-54.52-8.92-81.5s-8.06-55-8.93-81.72l1.69,0c.87,26.63,5,54.54,8.92,81.53s8.07,55,8.93,81.68c.47,14.37,1,29.21-1.85,43.67l39.9.07Z"/><path class="cls-14" d="M641.61,1065.92c-4.63,0-11.33-7.39-15.91-15.41-7-12.28-7.23-21-3.87-22.88h0a4.08,4.08,0,0,1,3.2-.26c4.15,1.13,10,7.24,14.53,15.2,5.24,9.17,8.39,20.3,3.89,22.88A3.65,3.65,0,0,1,641.61,1065.92Zm-18.94-36.82c-2.58,1.48-1.37,10.3,4.5,20.57s12.85,15.8,15.44,14.31,1.36-10.29-4.52-20.57c-4.26-7.48-9.82-13.41-13.5-14.41a2.5,2.5,0,0,0-1.92.1Z"/><rect class="cls-14" x="620.37" y="1028.01" width="2.01" height="1.69" transform="translate(-429.17 444.9) rotate(-29.8)"/><path class="cls-14" d="M636.19,1069c-2.33,0-5.39-1.89-8.72-5.43a52.94,52.94,0,0,1-7.22-10c-4.62-8.08-6.9-16.26-5.67-20.37a4.05,4.05,0,0,1,1.8-2.51l3.69-2.11.84,1.47-3.69,2.11a2.37,2.37,0,0,0-1,1.52c-1.09,3.64,1.18,11.47,5.51,19a51.54,51.54,0,0,0,7,9.66c3.51,3.76,6.83,5.58,8.44,4.66l3.94-2.24.83,1.47-3.93,2.24A3.6,3.6,0,0,1,636.19,1069Z"/><rect class="cls-14" x="641.39" y="1064.3" width="1.75" height="1.69" transform="translate(-441.31 454.49) rotate(-29.51)"/><path class="cls-14" d="M638.14,1058.72a3.5,3.5,0,0,1-.93-.14c-2.66-.71-6.24-4.42-9.11-9.44-3.36-5.9-5.21-12.75-2.24-14.45a2.81,2.81,0,0,1,2.21-.19c2.66.72,6.22,4.44,9.09,9.46s4.26,9.94,3.53,12.61a2.83,2.83,0,0,1-1.29,1.82A2.44,2.44,0,0,1,638.14,1058.72Zm-11-22.66a.83.83,0,0,0-.43.1c-1.27.73-.8,5.7,2.87,12.14,3,5.25,6.3,8.17,8.08,8.65a1.19,1.19,0,0,0,.91,0,1.25,1.25,0,0,0,.5-.79c.48-1.79-.36-6.1-3.37-11.33h0c-3-5.26-6.28-8.18-8.06-8.67A1.93,1.93,0,0,0,627.13,1036.06Z"/><path class="cls-14" d="M620.34,1119.17a21.66,21.66,0,0,1-13.07-4.3,13.84,13.84,0,0,1-5.62-9.76l1.68-.15a12.19,12.19,0,0,0,5,8.57,20.05,20.05,0,0,0,15.08,3.71c.54-.09,1-.19,1.49-.31a14.63,14.63,0,0,0,4.68-2.07,15.5,15.5,0,0,0,6.83-12.55c0-2.45-.15-4.93-.33-7.33l-.11-1.38c-.92-12-4.3-20.43-8.63-30.23l1.55-.69c4.39,10,7.83,18.54,8.77,30.79l.11,1.38c.18,2.44.38,5,.33,7.49a17.18,17.18,0,0,1-7.59,13.93,16,16,0,0,1-5.19,2.3,15,15,0,0,1-1.65.34A21.52,21.52,0,0,1,620.34,1119.17Z"/><path class="cls-14" d="M645.89,1105.73l-1.67-.28c.09-.5.17-1,.24-1.51,1-7.32-.28-14.88-1.62-22-.28-1.48-.73-3-1.16-4.52-1.14-4-2.33-8.13-1-12.1l.78.27h.87l0,.29c-1.18,3.47-.12,7.16,1,11.08.44,1.53.89,3.12,1.19,4.68,1.37,7.25,2.63,15,1.64,22.53C646.07,1104.68,646,1105.21,645.89,1105.73Z"/><path class="cls-14" d="M616.76,1030.58a17.92,17.92,0,0,1-3.76-.34c-4.51-1.07-6.71-3.11-10.7-6.82l-.46-.44,1.13-1.26.48.46c4,3.74,5.86,5.45,9.94,6.41a19.88,19.88,0,0,0,6.72,0l.2-.11.18,0v.87l.42.71A12.28,12.28,0,0,1,616.76,1030.58Z"/><path class="cls-14" d="M103.14,667.41l-2-3.17a95.34,95.34,0,0,0-42.51-36l.66-1.56a97.06,97.06,0,0,1,41.1,33.37c-1.66-8.49-5.28-17-11-25.79-6.45-10-14.58-19.1-23.05-28.29-4.14-4.47-8.29-8.54-13.55-9.14l.19-1.69c5.84.68,10.24,5,14.6,9.69,8.52,9.24,16.71,18.38,23.24,28.51,6.7,10.36,10.58,20.27,11.86,30.3Z"/><path class="cls-14" d="M335.37,265a22.08,22.08,0,0,1-5,1.63,22.54,22.54,0,0,1-5.27.18,5.32,5.32,0,0,1,4.55-4.38A5.38,5.38,0,0,1,335.37,265Z"/><path class="cls-14" d="M354.07,263.81a5.4,5.4,0,0,1,6-2,5.31,5.31,0,0,1,4.12,4.79,22.24,22.24,0,0,1-5.24-.68A21.3,21.3,0,0,1,354.07,263.81Z"/><path class="cls-15" d="M310,273.23,297.53,284"/><path class="cls-14" d="M374.41,277.19a4.08,4.08,0,0,1,1.92.78,20,20,0,0,1,1.55,1.29c1,.88,1.9,1.83,2.8,2.78s1.73,2,2.52,3a22.45,22.45,0,0,1,2.17,3.36,23.9,23.9,0,0,1-3.14-2.47c-1-.88-1.9-1.82-2.8-2.78s-1.73-2-2.52-3A13.45,13.45,0,0,0,374.41,277.19Z"/><path class="cls-14" d="M315.86,277.74c-.91,1-1.86,1.88-2.8,2.76l-2.79,2.64-2.81,2.64a8.29,8.29,0,0,1-3.43,2.11,23.8,23.8,0,0,0,2.45-3,21.37,21.37,0,0,1,5.78-5.43A15.1,15.1,0,0,1,315.86,277.74Z"/><path class="cls-14" d="M334.14,190.16a88.62,88.62,0,0,1,2.66,10.28A82.63,82.63,0,0,1,338.21,211a60.38,60.38,0,0,1-.24,10.67A41.51,41.51,0,0,1,335.49,232a82.27,82.27,0,0,0,1.16-10.45,95.89,95.89,0,0,0-.13-10.45c-.2-3.49-.6-7-1-10.45S334.55,193.68,334.14,190.16Z"/><circle class="cls-16" cx="291.01" cy="197.9" r="10.22"/><path class="cls-14" d="M291,208.55h-.47a10.66,10.66,0,1,1,11.1-10.19h0A10.66,10.66,0,0,1,291,208.55Zm0-20.43a9.78,9.78,0,0,0-.41,19.55,9.64,9.64,0,0,0,7-2.57,9.74,9.74,0,0,0,3.16-6.79h0a9.77,9.77,0,0,0-9.36-10.18Z"/><path class="cls-14" d="M253,193.5a13.41,13.41,0,0,0,3.68,2.86,5.64,5.64,0,0,0,4,.64,5.23,5.23,0,0,0,1.74-.74,8.76,8.76,0,0,0,.81-.59l1-.76c1.31-1,2.66-1.94,4.07-2.81a41.81,41.81,0,0,1,18.93-6.36,36.93,36.93,0,0,1,19.64,4.08,38.18,38.18,0,0,1,14.56,13,61.19,61.19,0,0,0-7.83-5.38,53,53,0,0,0-8.35-4,41.26,41.26,0,0,0-17.66-2.65,49.23,49.23,0,0,0-17.37,4.82c-1.39.66-2.78,1.36-4.14,2.11l-1,.55a11.47,11.47,0,0,1-1.27.62,8.14,8.14,0,0,1-2.81.62,7.46,7.46,0,0,1-5-2A11.28,11.28,0,0,1,253,193.5Z"/><path class="cls-14" d="M263.45,196.81a11.12,11.12,0,0,0,.86,1.74,16.57,16.57,0,0,0,1.22,1.74,20.32,20.32,0,0,0,3.08,3.07,22.91,22.91,0,0,0,3.77,2.39c.66.38,1.37.63,2.06.95s1.44.51,2.16.77c-.75-.12-1.52-.22-2.28-.37s-1.52-.31-2.25-.56a24.6,24.6,0,0,1-4.38-1.76,22.14,22.14,0,0,1-4-2.73,17,17,0,0,1-1.77-1.73,12.38,12.38,0,0,1-1.57-2.13Z"/><path class="cls-14" d="M324.71,173.85S281.7,150,257.31,161c0,0,20.93-1.22,65.53,18.51Z"/><path class="cls-14" d="M364.52,173.85s43-23.83,67.4-12.83c0,0-21.16-1.22-65.77,18.51Z"/><path class="cls-14" d="M313.79,212.51a15.29,15.29,0,0,1-3.41,2.91,20.73,20.73,0,0,1-4,2A20.39,20.39,0,0,1,302,218.5a15.29,15.29,0,0,1-4.48,0l4.21-1.27c1.37-.43,2.73-.86,4.06-1.37s2.66-1,4-1.57Z"/><circle class="cls-16" cx="398.22" cy="196.37" r="10.22"/><path class="cls-14" d="M398.21,207a10.66,10.66,0,1,1,.46,0Zm0-20.44h-.42a9.79,9.79,0,0,0-9.35,10.19h0a9.78,9.78,0,1,0,9.77-10.2Z"/><path class="cls-14" d="M436.27,192a11.37,11.37,0,0,1-2.86,4,7.5,7.5,0,0,1-5,2,8.15,8.15,0,0,1-2.82-.62,12.28,12.28,0,0,1-1.26-.62l-1-.55q-2.06-1.12-4.14-2.11a49.51,49.51,0,0,0-17.38-4.83,41.4,41.4,0,0,0-17.65,2.66,53,53,0,0,0-8.35,4,61.2,61.2,0,0,0-7.84,5.37,38.19,38.19,0,0,1,14.57-13,36.93,36.93,0,0,1,19.64-4.08,41.85,41.85,0,0,1,18.93,6.36,48,48,0,0,1,4.06,2.81l1,.76a8.64,8.64,0,0,0,.8.59,5.28,5.28,0,0,0,1.75.74,5.7,5.7,0,0,0,4-.64A13.76,13.76,0,0,0,436.27,192Z"/><path class="cls-14" d="M428.86,196.67a12.93,12.93,0,0,1-1.57,2.13,17,17,0,0,1-1.77,1.73,22.5,22.5,0,0,1-4,2.73,25.22,25.22,0,0,1-4.38,1.76c-.73.25-1.51.37-2.26.56s-1.52.25-2.27.37c.72-.26,1.45-.49,2.15-.77s1.41-.58,2.07-1a23.39,23.39,0,0,0,3.77-2.4,19.87,19.87,0,0,0,3.08-3.07,15.38,15.38,0,0,0,1.21-1.73,9.34,9.34,0,0,0,.86-1.75Z"/><path class="cls-14" d="M375.43,211l4,1.75c1.33.55,2.65,1.1,4,1.57s2.7.94,4.07,1.37l4.21,1.27a15,15,0,0,1-4.49,0,20.33,20.33,0,0,1-8.39-3.07A15.34,15.34,0,0,1,375.43,211Z"/><path class="cls-17" d="M380,311.53c-11.87-3.34-23.34-7.17-35.66-8.08S321,305.31,309,307.62c11.72-7.36,22.16-15.56,36.41-14.26S368.8,303.48,380,311.53Z"/><path class="cls-18" d="M309,307.47c2.5-2.32,4.8-4.91,7.2-7.48l7.64-7.82c2.66-2.83,5.8-5.79,9.73-7.23a22.89,22.89,0,0,1,3-.89,10.45,10.45,0,0,1,3.15.15c1,.28,2.09.66,3.09,1a12.39,12.39,0,0,0,3,.91c3.68,1,8.12-.85,11.83,1,3.68,1.66,6.35,5.14,8.57,8.36,4.73,6,8.84,11.29,13.83,15.92-5.76-3.33-11.16-7.4-17.09-10.12a90.51,90.51,0,0,0-8.88-3.44c-2.91-1-5.8-2.48-9-2.59s-6.12.85-9.16,1.15a53.65,53.65,0,0,0-9.17,2.33C320.58,300.83,314.91,304.48,309,307.47Z"/><path class="cls-18" d="M309,307.76a62.62,62.62,0,0,1,17.09-8.14,52.31,52.31,0,0,1,19.07-2.15A60.71,60.71,0,0,1,363.59,302a66.13,66.13,0,0,1,16.3,9.65c-6.45.69-12.58.13-18.47-.41s-11.55-1.29-17.13-1.73-11.05-.52-16.91-.53S315.38,309,309,307.76Z"/></g></svg>