<svg xmlns="http://www.w3.org/2000/svg" viewBox="0 0 116.37 67.18"><defs><style>.cls-1{fill:#1f3a67;}</style></defs><g id="INTERFACE"><path class="cls-1" d="M61.35,0C69.61.11,80,3.6,89.86,9.1a103,103,0,0,1,23.56,18.68c1.28,1.33,2.54,2.7,2.85,4.62a6.69,6.69,0,0,1-1.81,5.88C103.52,49.93,91,59.3,75.67,64.35,61.58,69,47.83,67.75,34.32,61.92,22,56.61,11.77,48.47,2.56,38.92q-5.13-5.33,0-10.65c9.18-9.51,19.37-17.59,31.6-22.94A68.89,68.89,0,0,1,61.35,0ZM37.53,15.6a2.51,2.51,0,0,0-.48.05,84.92,84.92,0,0,0-23.9,17c-.81.81-.55,1.3.13,2A83.87,83.87,0,0,0,37.66,51.85c9.41,4.26,19.17,6,29.4,3.83,14.33-3.06,25.85-11,36.17-21,1-.92.6-1.49-.16-2.25A87.34,87.34,0,0,0,82.19,17c-1-.54-2.07-1-3.35-1.59,5.28,13.12,3.26,24-5.49,30.77-9.37,7.22-20.81,7.25-30.11.1C34.36,39.47,32.31,28.64,37.53,15.6Z"/></g></svg>