<svg xmlns="http://www.w3.org/2000/svg" viewBox="0 0 1020.62 1298.09"><defs><style>.cls-1{fill:#003d1d;}.cls-2{fill:#063;}.cls-3{fill:#d4a87f;}.cls-4{fill:#e3bb94;}.cls-5{fill:#634e42;}.cls-6{fill:#7b6a58;}.cls-7{fill:#f4ad33;}.cls-8{fill:#ee8d00;}.cls-9{fill:#1d1d1b;}.cls-10{fill:#fff;}.cls-11{fill:#392f25;}.cls-12{fill:#7ff4c7;opacity:0.3;}</style></defs><g id="PERSONAJES"><path class="cls-1" d="M884.63,683a22.09,22.09,0,0,1-3.06-3.13c-4.77-6-5.54-14.1-6.68-21.68-10.68-70.61-68.72-125.94-87.63-194.36,7.87,3.76,15.55,7.95,22,13.78,10.22,9.26,16.59,21.95,22.32,34.49l.1.37q20.08,39.63,40.18,79.29c4.44,8.74,8.92,17.59,15.38,25,5.32,6,11.91,11.08,16.1,18,5.44,8.87,6.22,19.69,8.31,29.88,8.19,40,37.24,72.6,50.31,111.3,5.55,16.43,19.72,30.79,25.18,47.23,6.15,18.54,17.7,37.21,29,54.88,4.65,7.3.12,11.72,2.57,20,3.31,11.36-1.55,23.37-6.85,33.94q-3.54,7-7.41,13.92-1-18.2-3.75-36.26c-.53-3.47-1.16-7.08-3.3-9.87-2.62-3.45-7-5-10.53-7.49-9.94-7.1-13.36-22.21-24.93-26.08-4.19-1.41-8.85-1-13-2.5-6.41-2.28-10.45-8.41-14.15-14.08-3.21-4.91-6.59-9.82-10.2-14.6-13.62-18-30.29-33.93-51.85-39.14-1.07-.27-2.19-.51-3.28-.87,7.66-20.47,8.9-41.71,8.9-41.71,1.89,2,5.22,1,8,1.16,8.19.56,10.24,11.67,16.11,17.4,2.36,2.31,5.42,3.73,8.37,5.16,5.49,2.67,10.89,5.5,16.18,8.55-17-24.71-5-69-26.81-91A37,37,0,0,0,897,691.7C893.09,688.54,888.42,686.23,884.63,683Z"/><path class="cls-2" d="M924.55,835c3.61,4.78,7,9.69,10.2,14.6,3.7,5.67,7.74,11.8,14.15,14.08,4.16,1.48,8.82,1.09,13,2.5,11.57,3.87,15,19,24.93,26.08,3.53,2.51,7.91,4,10.53,7.49,2.14,2.79,2.77,6.4,3.3,9.87q2.72,18,3.75,36.26a336.53,336.53,0,0,1-18.21,29c-2.7,3.86-5.68,7.82-9.94,9.81-5.76,2.66-12.49,1.15-18.64-.41q-35.49-9-70.86-18.42c-9.07-2.41-18.62-5.11-25.08-11.92-4.72-5-7.22-11.59-9.61-18q-10.3-27.67-20.58-55.34c-3-8.08-6-16.24-7.49-24.75-1.09-6.42-1.29-13.1-3.82-19.1a32.82,32.82,0,0,0-3-5.4C846,837.61,861.3,816.71,869.42,795c1.09.36,2.21.6,3.28.87C894.26,801.06,910.93,817,924.55,835Z"/><path class="cls-2" d="M756.05,1243.76c-.61,2.58-1.32,5.13-2.11,7.68a141.74,141.74,0,0,1-8.52,21A251.58,251.58,0,0,1,731.88,1296H607.12v-.59c-7-81.16,4.11-131.76-5.2-207.68-4.38-35.78-16.66-81-19.09-117-1.63-24.11,9.09-56.67,10.73-80.77,7.62-111.19-5-216.63-10.9-330.73-2-39.06-11.49-107,1.41-121.54a73.06,73.06,0,0,1,14.3,12.59c6,7.13,10.13,16.43,9.86,25.6a.86.86,0,0,0,1.66.39q13.86-32,27.74-64.07c1-2.24,2-4.64,1.84-7.05a1359,1359,0,0,1,142,55.93c1.93.89,3.87,1.79,5.79,2.7,18.91,68.42,77,123.75,87.63,194.36,1.14,7.58,1.91,15.7,6.68,21.68a22.09,22.09,0,0,0,3.06,3.13,57.56,57.56,0,0,0-26.27,32,100.34,100.34,0,0,1,41.8-20.49c21.83,22.06,9.78,66.31,26.81,91-5.29-3-10.69-5.88-16.18-8.55-2.95-1.43-6-2.85-8.37-5.16-5.87-5.73-7.92-16.84-16.11-17.4-2.77-.21-6.1.88-8-1.16-1.13-1.24-1.13-3.11-1.29-4.77-1.17-12.11-12.84-20.07-23.51-25.91-3.36-1.83-6.85-3.74-9.23-6.74s-3.46-6.8-5.92-9.67-7.46-4.3-9.89-1.4L828,705a94.77,94.77,0,0,1-5.59-27.66c-.53-9.95.22-20.15-2.67-29.68-2.82-9.26-8.94-17.41-10.63-26.94a38.5,38.5,0,0,1,1.61-18.49c2.19-7,5.76-13.76,9.26-20.2l-.15-.81c-10.64-7.05-26-1.58-33.61,8.64a38.39,38.39,0,0,0-4.28,7.28c-4.08,8.86-5.25,19.14-5.76,29-.65,12.74-.53,25.87-5.28,37.71a155.55,155.55,0,0,0-65,8c-2.75,1-5.52,2-7.66,4-4.37,4-4.91,10.21-4.34,16.35a7.34,7.34,0,0,0,6,6.57c-6.15,1.8-9.77,10-10.15,15.65S691.46,726,696,729.28a16.25,16.25,0,0,0,5.64,2.5l-.12.49a22.15,22.15,0,0,0-7.83,13.19,16,16,0,0,0,4.67,14.27,15.85,15.85,0,0,0,7.93,3.77c-4,2.8-5.48,10.84-3.17,15.17s6.69,7.17,11.11,9.31a68.56,68.56,0,0,0,32.6,6.8c6.83-.27,10.6-1.67,17.41-1.17,8.53.61,16.2,4.91,25.47,6.18l0,.36c-2.45,37.44-5.55,76.36-7.44,115.29-9,86.41-19.88,172.8-20.9,259.56C761.08,1198,761.45,1221.47,756.05,1243.76Z"/><path class="cls-2" d="M897,691.7a37,37,0,0,1,3.13,2.82A100.34,100.34,0,0,0,858.36,715a57.56,57.56,0,0,1,26.27-32C888.42,686.23,893.09,688.54,897,691.7Z"/><path class="cls-1" d="M877,748.5c.16,1.66.16,3.53,1.29,4.77,0,0-1.24,21.24-8.9,41.71a8.66,8.66,0,0,1-4.31-2.58c-1.62-1.95-1.84-4.64-2.21-7.14-1.77-11.6-9-22.08-18.74-28.5a49.26,49.26,0,0,0,2.38-10.55,54.53,54.53,0,0,0-1.23-16c-.57-2.86-1.27-5.68-2-8.5-.83-3.33-1.75-6.83-4.11-9.31s-6.22-3.34-8.78-1.48Q829.1,708,828,705l.51-.19c2.43-2.9,7.41-1.46,9.89,1.4s3.56,6.71,5.92,9.67,5.87,4.91,9.23,6.74C864.19,728.43,875.86,736.39,877,748.5Z"/><path class="cls-2" d="M865.11,792.4a8.66,8.66,0,0,0,4.31,2.58c-8.12,21.73-23.46,42.63-52.21,36.36-6.81-10.25-19.16-20-20.45-31.24a36.49,36.49,0,0,0,7.64-1.3c8.48,1.74,17.52-2.58,23.45-9,6.32-6.88,9.84-15.8,13.2-24.5,1.1-2.82,2.19-5.64,3.11-8.52,9.77,6.42,17,16.9,18.74,28.5C863.27,787.76,863.49,790.45,865.11,792.4Z"/><path class="cls-3" d="M804.4,798.8a36.49,36.49,0,0,1-7.64,1.3,34.27,34.27,0,0,1-4.66-.07C813.37,737.15,791,664.43,810,602l.7.2a38.5,38.5,0,0,0-1.61,18.49c1.69,9.53,7.81,17.68,10.63,26.94,2.89,9.53,2.14,19.73,2.67,29.68A94.77,94.77,0,0,0,828,705q1.13,3,2.48,5.91a52.3,52.3,0,0,0,14.85,19.29h0a54.53,54.53,0,0,1,1.23,16,49.26,49.26,0,0,1-2.38,10.55c-.92,2.88-2,5.7-3.11,8.52-3.36,8.7-6.88,17.62-13.2,24.5C821.92,796.22,812.88,800.54,804.4,798.8Z"/><path class="cls-1" d="M845.31,730.17h0a52.3,52.3,0,0,1-14.85-19.29c2.56-1.86,6.54-.86,8.78,1.48s3.28,6,4.11,9.31C844,724.49,844.74,727.31,845.31,730.17Z"/><path class="cls-4" d="M701.67,731.78a16.25,16.25,0,0,1-5.64-2.5c-4.57-3.26-6.71-9.22-6.36-14.81s4-13.85,10.15-15.65a7.34,7.34,0,0,1-6-6.57c-.57-6.14,0-12.37,4.34-16.35,2.14-1.95,4.91-3,7.66-4a155.55,155.55,0,0,1,65-8c4.75-11.84,4.63-25,5.28-37.71.51-9.91,1.68-20.19,5.76-29a38.39,38.39,0,0,1,4.28-7.28c7.63-10.22,23-15.69,33.61-8.64l.15.81c-3.5,6.44-7.07,13.22-9.26,20.2l-.7-.2c-19,62.43,3.38,135.15-17.89,198H792c-.76,0-1.51-.14-2.26-.24-9.27-1.27-16.94-5.57-25.47-6.18-6.81-.5-10.58.9-17.41,1.17a68.56,68.56,0,0,1-32.6-6.8c-4.42-2.14-8.8-5-11.11-9.31s-.87-12.37,3.17-15.17a15.85,15.85,0,0,1-7.93-3.77,16,16,0,0,1-4.67-14.27,22.15,22.15,0,0,1,7.83-13.19Z"/><path class="cls-1" d="M745.42,1272.47a141.74,141.74,0,0,0,8.52-21c.79-2.55,1.5-5.1,2.11-7.68,5.4-22.29,5-45.74,5.3-68.76,1-86.76,11.95-173.15,20.9-259.56-1.85,38-2.52,76.06-.26,112.64,5.59,89.7,34.24,178.76,22.84,267.92h-73A251.58,251.58,0,0,0,745.42,1272.47Z"/><path class="cls-3" d="M648.05,190.51c1.38,8.79-1.51,17.6-4.35,26l-7.29,21.53c-1.77,5.21-3.6,10.53-7,14.9s-8.62,7.64-14.11,7.2l-.81-.17a424.26,424.26,0,0,0,6.59-43.27c1.21-11.08,2.5-14.51,2.91-24.13a18.36,18.36,0,0,1,1.76-2.27,23.24,23.24,0,0,1,9.48-6.44c3.66-1.29,8.28-1.4,10.79,1.54A10,10,0,0,1,648.05,190.51Z"/><path class="cls-2" d="M639.47,405.19c.14,2.41-.87,4.81-1.84,7.05q-13.86,32-27.74,64.07a.86.86,0,0,1-1.66-.39c.27-9.17-3.83-18.47-9.86-25.6a73.06,73.06,0,0,0-14.3-12.59c-4.25-3-8.72-5.69-13.15-8.36-1.36-.82-2.86-1.68-4.44-1.53a3.54,3.54,0,0,0-1,.22c0-1.75-.07-3.5-.22-5.23,8.92-8.65,18.89-16.35,26.37-26.29a34.87,34.87,0,0,0,3.23-5.23v0a40.52,40.52,0,0,0,2.36-5.77c11-.15,20.39,7.8,29.78,13.74a44.74,44.74,0,0,0,12.39,5.51A2.08,2.08,0,0,1,639.47,405.19Z"/><path class="cls-1" d="M639.35,404.12a5.07,5.07,0,0,1,.09.65,44.74,44.74,0,0,1-12.39-5.51c-9.39-5.94-18.74-13.89-29.78-13.74,4.13-12.52,3.21-28-4.42-37.33,0-2.72,0-5.45,0-8.15h.24q21.66,29.35,43.34,58.68A14,14,0,0,1,639.35,404.12Z"/><path class="cls-5" d="M635.27,107c1.43,12.3,1.16,32.23-.25,44.53-1.8,15.62-2.36,24.69-9.23,38.81A18.36,18.36,0,0,0,624,192.6c.05-1.08.1-2.24.12-3.51-8.38-22.09-8.3-47.76-22.3-66.79-4.51-6.12-10.39-11.37-13.54-18.3-4.36-9.63-2.17-20.57-.95-32l0-.41c1.35-9.27,1.35-19,1.92-28.1V41.4c1.21,3.61,6,3.89,9.69,5,6.74,2.13,10.8,8.8,14.1,15C621.1,76.63,633.29,90,635.27,107Z"/><path class="cls-3" d="M624,192.6c-.41,9.62-1.7,13.05-2.91,24.13A424.26,424.26,0,0,1,614.53,260c-3.69,17-9,33.42-17.33,48.61-1.21,2.19-2.41,4.36-3.67,6.52-14.83,25.88-32.25,48.56-57.07,57l-.29-.21c49.41-81,64.41-182.19,40.59-274l-1.39-.07a17.74,17.74,0,0,0,2.34-1.8c3.42-3.13,5.24-7.58,6.76-11.93A67.75,67.75,0,0,0,587.36,72c-1.22,11.47-3.41,22.41.95,32,3.15,6.93,9,12.18,13.54,18.3,14,19,13.92,44.7,22.3,66.79C624.13,190.36,624.08,191.52,624,192.6Z"/><path class="cls-2" d="M565.53,428.06a3.54,3.54,0,0,1,1-.22c1.58-.15,3.08.71,4.44,1.53,4.43,2.67,8.9,5.37,13.15,8.36-12.9,14.51-3.42,82.48-1.41,121.54,5.88,114.1,18.52,219.54,10.9,330.73-1.64,24.1-12.36,56.66-10.73,80.77,2.43,36,14.71,81.18,19.09,117,9.31,75.92-1.85,126.52,5.2,207.68v.59H570.39a1089.32,1089.32,0,0,0-9.84-239.63c-5.79-38-13.62-76.17-11-114.51,1.73-25.62,8.07-50.67,11.67-76.08,6.78-47.74,3.82-96.27.87-144.4q-6.57-107.16-13.17-214.28l-2-33.3c-.59-9.79-1.15-19.93,2.33-29.11a39.25,39.25,0,0,1,2.51-5.28l.29.17c3.49-3.14,6.95-6.27,10.44-9.4A9.5,9.5,0,0,1,565.53,428.06Z"/><path class="cls-1" d="M597.27,385.52a40.52,40.52,0,0,1-2.36,5.77c-2-13-2-29-2.06-43.1C600.48,357.52,601.4,373,597.27,385.52Z"/><path class="cls-3" d="M592.85,348.19c0,14.1.09,30.11,2.06,43.1v0a34.87,34.87,0,0,1-3.23,5.23c-7.48,9.94-17.45,17.64-26.37,26.29-1.58-20-12.32-39.25-28.85-50.68,24.82-8.46,42.24-31.14,57.07-57l.07,0c-.31,8-.6,16.37-.7,24.88C592.85,342.74,592.83,345.47,592.85,348.19Z"/><path class="cls-6" d="M417.09,114.86c-11.24,23.6-12.67,50.24-11.24,75.47h-.09c-4.18-4.71-6.42-10.78-8.42-16.74-7.09-21.15-12.32-43.34-11-65.59s9.82-44.81,26.56-59.57c-2.38-.09-4.78-.17-7.15-.27l31.88-25.54C444,17.51,450.48,12.34,458,9.05,467.18,5,477.42,4,487.46,3c9.57-.9,19.15-1.8,28.75-2.09,8.43-.27,17,0,25.09,2.26,20.46,5.8,34.93,23.5,48,40.25-.57,9.14-.57,18.83-1.92,28.1l0,.41a67.75,67.75,0,0,1-2.89,12.18c-1.52,4.35-3.34,8.8-6.76,11.93a17.74,17.74,0,0,1-2.34,1.8,39,39,0,0,1-8.17,3.67,373.83,373.83,0,0,1-120.73,21.35c-5,.06-10.18,0-14.71-2.14a11.9,11.9,0,0,0,5.69-4.84A33.89,33.89,0,0,1,417.09,114.86Z"/><path class="cls-4" d="M414.8,260.19a415.28,415.28,0,0,1-6.64-43.46c-.87-8-1.7-16.3-2.21-24.79-.05-.54-.07-1.07-.1-1.61-1.43-25.23,0-51.87,11.24-75.47a33.89,33.89,0,0,0,20.36,1,11.9,11.9,0,0,1-5.69,4.84c4.53,2.11,9.71,2.2,14.71,2.14A373.83,373.83,0,0,0,567.2,101.54a39,39,0,0,0,8.17-3.67l1.39.07c23.82,91.81,8.82,193-40.59,274l.29.21a66.93,66.93,0,0,1-21.83,3.55c-35.24,0-57.76-25.06-76.1-55.78-2.2-3.7-4.34-7.47-6.45-11.31C423.77,293.49,418.47,277.07,414.8,260.19Z"/><path class="cls-7" d="M560.55,1056.37A1089.32,1089.32,0,0,1,570.39,1296H492.1c-5.31-56.2-8.48-112.79,1-168.28,6.19-36.15,17.69-71.41,21-107.93,4.74-52.6-7.74-105-12.64-157.61-10.8-115.86,14.9-235.87-3.55-349.09,12.07,3.79,30.55,5.69,51-6q6.57,107.16,13.17,214.28c3,48.13,5.91,96.66-.87,144.4-3.6,25.41-9.94,50.46-11.67,76.08C546.93,980.2,554.76,1018.38,560.55,1056.37Z"/><path class="cls-2" d="M565.31,422.83c.15,1.73.22,3.48.22,5.23a9.5,9.5,0,0,0-3.12,2.12c-3.49,3.13-6.95,6.26-10.44,9.4l-.29-.17a58,58,0,0,1,6.27-8.82C560.26,427.87,562.75,425.31,565.31,422.83Z"/><path class="cls-4" d="M438.89,348.86c.07-2.86.09-5.71.09-8.62,0-6.59-.17-13.32-.45-20.32,18.34,30.72,40.86,55.78,76.1,55.78a66.93,66.93,0,0,0,21.83-3.55c16.53,11.43,27.27,30.68,28.85,50.68-2.56,2.48-5,5-7.36,7.76a58,58,0,0,0-6.27,8.82,39.25,39.25,0,0,0-2.51,5.28c-3.48,9.18-2.92,19.32-2.33,29.11-26.47,15.15-47.45,7.83-56.52,3q-2-7.95-4.47-15.82a47.84,47.84,0,0,0-2.75-16.33,38.13,38.13,0,0,0-2.52-5.28,56.66,56.66,0,0,0-6.27-8.82c-10.34-12.18-24.1-21.25-33.72-34a37.13,37.13,0,0,1-5-9.24h0A292.82,292.82,0,0,0,438.89,348.86Z"/><path class="cls-7" d="M546.84,473.8l2,33.3c-20.42,11.68-38.9,9.78-51,6-2-12.16-4.48-24.26-7.59-36.25C499.39,481.63,520.37,489,546.84,473.8Z"/><path class="cls-8" d="M501.46,862.18c4.9,52.58,17.38,105,12.64,157.61-3.29,36.52-14.79,71.78-21,107.93-9.5,55.49-6.33,112.08-1,168.28H461.88a1089.32,1089.32,0,0,1,9.84-239.63c5.79-38,13.62-76.17,11-114.51-1.73-25.62-8.07-50.67-11.67-76.08-6.78-47.74-3.84-96.27-.89-144.4q6.63-107.49,13.22-215a56.38,56.38,0,0,0,14.49,6.67C516.36,626.31,490.66,746.32,501.46,862.18Z"/><path class="cls-8" d="M490.32,476.84c3.11,12,5.61,24.09,7.59,36.25a56.38,56.38,0,0,1-14.49-6.67q1-16.32,2-32.62A33.24,33.24,0,0,0,490.32,476.84Z"/><path class="cls-3" d="M485.85,461q2.41,7.88,4.47,15.82a33.24,33.24,0,0,1-4.89-3C485.68,469.57,485.94,465.28,485.85,461Z"/><path class="cls-2" d="M485.85,461c.09,4.26-.17,8.55-.42,12.78q-1,16.31-2,32.62-6.63,107.49-13.22,215c-2.95,48.13-5.89,96.66.89,144.4,3.6,25.41,9.94,50.46,11.67,76.08,2.58,38.34-5.25,76.52-11,114.51A1089.32,1089.32,0,0,0,461.88,1296H425.15v-.59c7.05-81.16-4.11-131.76,5.2-207.68,4.38-35.78,16.66-81,19.09-117,1.62-24.11-9.1-56.67-10.75-80.77-7.61-111.19,5-216.63,10.91-330.73,2-39.06,9.61-110.79-1.4-121.54,4.25-3,8.73-5.69,13.15-8.36,1.36-.82,2.86-1.68,4.44-1.53s2.88,1.27,4.07,2.34c3.49,3.13,6.95,6.26,10.44,9.4l.28-.17a38.13,38.13,0,0,1,2.52,5.28A47.84,47.84,0,0,1,485.85,461Z"/><path class="cls-2" d="M480.58,439.41l-.28.17c-3.49-3.14-6.95-6.27-10.44-9.4-1.19-1.07-2.49-2.19-4.07-2.34s-3.08.71-4.44,1.53c-4.42,2.67-8.9,5.37-13.15,8.36a73.06,73.06,0,0,0-14.3,12.59c-6,7.13-10.15,16.43-9.86,25.6a.86.86,0,0,1-1.66.39q-13.86-32-27.75-64.07a20.9,20.9,0,0,1-1.76-5.43,8.38,8.38,0,0,1,.05-2.69,14,14,0,0,1,2.87-5.4q21.58-29.24,43.19-58.48c0,2.91,0,5.76-.09,8.62-7.49,9.83-8,25.9-3.28,38.43h0a37.13,37.13,0,0,0,5,9.24c9.62,12.8,23.38,21.87,33.72,34A56.66,56.66,0,0,1,480.58,439.41Z"/><path class="cls-2" d="M144,858.05c-.92,1.05-1.82,2.1-2.73,3.16,13.76,11.58,11.43,32.77,13.79,50.59,3.28,24.72,17.5,46.38,27.47,69.23,15.41,35.36,22.55,76.93,41,109.55-58.58,5.29-86.15,82.37-86.65,83.73-20.49-22.89-41.31-46.32-46.6-74.52a121.27,121.27,0,0,0-9.92-30.87L69,1045.54a104.56,104.56,0,0,0-14.79-23c-5.22-6-8.07-14.31-10.54-22.1l-35-110.81C4,874.8-.75,859.41,1.36,844.05c1.94-14.14,9.46-26.81,16.85-39C77,708,153.52,615.34,200.68,512.09c5.74-12.54,12.1-25.23,22.33-34.49,8-7.25,18-12,27.79-16.48,47.13-21.59,92.85-38.07,142.07-54.31a20.9,20.9,0,0,0,1.76,5.43q13.88,32,27.75,64.07a.86.86,0,0,0,1.66-.39c-.29-9.17,3.83-18.47,9.86-25.6a73.06,73.06,0,0,1,14.3-12.59c11,10.75,3.42,82.48,1.4,121.54-5.87,114.1-18.52,219.54-10.91,330.73,1.65,24.1,12.37,56.66,10.75,80.77-2.43,36-14.71,81.18-19.09,117-9.31,75.92,1.85,126.52-5.2,207.68v.59H227.44c-3.4-26.62-3.62-47.91-1.56-74.53a29.85,29.85,0,0,0,9.22-6.42c5-5,9.38-11,15.82-13.83,9.45-4.2,20.3-.46,29.92,3.46.24.11.47.19.71.29,7.55,3.11,15.19,6.27,21.77,11.11,2.27,1.69,4.46,3.59,7.15,4.49,4.81,1.6,9.73-.36,14.2-3.16a5.05,5.05,0,0,0,1.14-7.51A170.36,170.36,0,0,0,314,1197.11a75.54,75.54,0,0,0,18.15,10.33c5.87,2.09,12.82,2.15,18-1.36,3.68-2.53,6.18-7.5,4.36-11.59-1-2.24-3-3.79-5-5.27L338,1180.64c-9.26-6.93-18.57-13.88-28.61-19.6a115.2,115.2,0,0,0,3.83-11.57c4,2.21,7.74,5,12.25,7.78,7.79,4.86,14.3,11.59,22.2,16.27,4.47,2.64,9.65,4.66,14.76,3.74s9.77-5.71,9-10.84c-.6-3.87-3.89-6.67-7-9.12-14.61-11.6-29.24-23.24-44.85-33.45-.7-.46-1.41-.92-2.12-1.36a115.25,115.25,0,0,0-.07-12.47c5.52,1.53,13.1,9,18.23,11.5s11.08,4.28,16.53,2.6c2.45-.77,4.82-2.4,5.54-4.86,1.24-4.31-3-8.1-6.73-10.6q-15-10.1-30-20.15c-2.36-1.56-4.81-3.19-7.54-3.76a7.5,7.5,0,0,0-1.23-.2c-4.13-.36-8,1.92-11.43,4.25-8,5.44-13.85,12.86-20.69,19.67-7.31,7.31-16.16,14.49-26.17,17.06l-.71-.53q-6.4-9.2-12-18.89h0c4.24-27.57,7.42-50.34,9.14-78,5-81-8.77-162.12-12.56-243a679,679,0,0,1,.14-73.31A626.33,626.33,0,0,1,144,858.05Z"/><path class="cls-1" d="M438.89,348.86a292.82,292.82,0,0,1-3.28,38.43C430.91,374.76,431.4,358.69,438.89,348.86Z"/><path class="cls-4" d="M414.8,260.19c-5.39.3-10.52-3-13.81-7.22s-5.18-9.69-6.95-14.9l-7.29-21.53c-2.85-8.43-5.74-17.24-4.37-26a10.23,10.23,0,0,1,2-5.08c2.52-2.94,7.15-2.83,10.79-1.54A23.06,23.06,0,0,1,406,191.94c.51,8.49,1.34,16.8,2.21,24.79A415.28,415.28,0,0,0,414.8,260.19Z"/><path class="cls-3" d="M371.36,1166.42c.81,5.13-3.84,9.93-9,10.84s-10.29-1.1-14.76-3.74c-7.9-4.68-14.41-11.41-22.2-16.27-4.51-2.8-8.28-5.57-12.25-7.78.39-1.33.73-2.69,1.05-4a120.89,120.89,0,0,0,3.18-23c.71.44,1.42.9,2.12,1.36,15.61,10.21,30.24,21.85,44.85,33.45C367.47,1159.75,370.76,1162.55,371.36,1166.42Z"/><path class="cls-3" d="M350.92,1108.66c3.72,2.5,8,6.29,6.73,10.6-.72,2.46-3.09,4.09-5.54,4.86-5.45,1.68-11.4-.09-16.53-2.6s-12.71-10-18.23-11.5a124.93,124.93,0,0,0-4-25.27c2.73.57,5.18,2.2,7.54,3.76Q335.92,1098.58,350.92,1108.66Z"/><path class="cls-3" d="M354.45,1194.49c1.82,4.09-.68,9.06-4.36,11.59-5.17,3.51-12.12,3.45-18,1.36A75.54,75.54,0,0,1,314,1197.11s0,0,0,0c-2.79-2.74-5.66-5.37-8.57-7.92a43.63,43.63,0,0,0-7.51-5.55A123.78,123.78,0,0,0,309.36,1161c10,5.72,19.35,12.67,28.61,19.6l11.49,8.58C351.43,1190.7,353.47,1192.25,354.45,1194.49Z"/><path class="cls-3" d="M325.81,1209.9a5.05,5.05,0,0,1-1.14,7.51c-4.47,2.8-9.39,4.76-14.2,3.16-2.69-.9-4.88-2.8-7.15-4.49-6.58-4.84-14.22-8-21.77-11.11-.24-.1-.47-.18-.71-.29a125.34,125.34,0,0,0,17-21.06,43.63,43.63,0,0,1,7.51,5.55c2.91,2.55,5.78,5.18,8.57,7.92,0,0,0,0,0,0A170.36,170.36,0,0,1,325.81,1209.9Z"/><path class="cls-2" d="M317.35,1110a115.25,115.25,0,0,1,.07,12.47c-3.71-2.3-7.65-4.3-12-4.61-.43,0-.85,0-1.28,0v-.1c3.76-4.33,7.61-9.26,13.12-7.75Z"/><path class="cls-4" d="M253.84,1125.53c10-2.57,18.86-9.75,26.17-17.06,6.84-6.81,12.69-14.23,20.69-19.67,3.43-2.33,7.3-4.61,11.43-4.25a7.5,7.5,0,0,1,1.23.2,124.93,124.93,0,0,1,4,25.27l-.05,0c-5.51-1.51-9.36,3.42-13.12,7.75v.1c.43,0,.85,0,1.28,0,4.31.31,8.25,2.31,12,4.61a120.89,120.89,0,0,1-3.18,23c-.32,1.34-.66,2.7-1.05,4-8.77-4.9-18.49-7-38.94-.8a87.22,87.22,0,0,1,28.64,8.88c2.19,1.09,4.35,2.26,6.47,3.49a123.78,123.78,0,0,1-11.52,22.58,125.34,125.34,0,0,1-17,21.06c-9.62-3.92-20.47-7.66-29.92-3.46-6.44,2.87-10.79,8.87-15.82,13.83a29.85,29.85,0,0,1-9.22,6.42,14.06,14.06,0,0,1-9.55.78c-4.15-1.22-7.26-4.57-10.16-7.78l-5.91-6.56c-4.17-4.64-8.45-9.41-12.41-13.79a154.48,154.48,0,0,1,52.57-60.62c6.69-3.93,6.69-3.93,13.08-8l.16,0Z"/><path class="cls-2" d="M313.19,1149.47a115.2,115.2,0,0,1-3.83,11.57c-2.12-1.23-4.28-2.4-6.47-3.49a87.22,87.22,0,0,0-28.64-8.88C294.7,1142.43,304.42,1144.57,313.19,1149.47Z"/><path class="cls-2" d="M253.13,1125l.71.53-.18,0-.16,0C253.38,1125.36,253.25,1125.19,253.13,1125Z"/><path class="cls-2" d="M187.85,1194.12a147.4,147.4,0,0,0-8.2,20.55c-10.4-2.63-17.92-11.38-24.72-19.67-5.69-6.92-11.84-13.78-18-20.68h0c.5-1.36,28.07-78.44,86.65-83.73,7.53,13.31,16.94,25.13,29.58,34.42.12.19.25.36.37.55-6.39,4-6.39,4-13.08,8A154.48,154.48,0,0,0,187.85,1194.12Z"/><path class="cls-2" d="M241.1,1106.11q5.63,9.69,12,18.89c-12.64-9.29-22-21.11-29.58-34.42a70.86,70.86,0,0,1,9-.24Q236.58,1098.38,241.1,1106.11Z"/><path class="cls-1" d="M144,858.05a626.33,626.33,0,0,0,93.82-146.33A679,679,0,0,0,237.7,785l-.69,0q-31.17,48.86-62.32,97.71l10.43,9.77c-7.46,6.3-8.77,17.58-6.39,27s7.77,17.88,11.84,26.74C201,969,202.89,994.56,207.87,1019a286.75,286.75,0,0,0,24.7,71.3,70.86,70.86,0,0,0-9,.24C205.1,1058,198,1016.39,182.55,981c-10-22.85-24.19-44.51-27.47-69.23-2.36-17.82,0-39-13.79-50.59C142.2,860.15,143.1,859.1,144,858.05Z"/><path class="cls-1" d="M187.85,1194.12c4,4.38,8.24,9.15,12.41,13.79-8.77,6.44-20.61,6.76-20.61,6.76A147.4,147.4,0,0,1,187.85,1194.12Z"/><path class="cls-9" d="M414.06,261.06c-4.94,0-10.05-2.79-13.74-7.57-3.48-4.52-5.31-9.92-7.09-15.15L386,216.81c-2.74-8.08-5.84-17.24-4.4-26.43a11.11,11.11,0,0,1,2.18-5.5c2.88-3.37,7.94-3.13,11.72-1.79a23.9,23.9,0,0,1,11.18,8.35,10.28,10.28,0,0,1,.63.87l-1.43.92c-.17-.26-.34-.51-.54-.76a22.29,22.29,0,0,0-10.41-7.78c-3.1-1.1-7.54-1.42-9.86,1.3a9.63,9.63,0,0,0-1.8,4.66c-1.37,8.77,1.66,17.72,4.34,25.62l7.28,21.52c1.73,5.1,3.52,10.37,6.82,14.66,3.49,4.51,8.5,7.15,13.09,6.89H415l.27,1.68a3.15,3.15,0,0,1-.44,0Z"/><path class="cls-9" d="M616.29,261.06c-.34,0-.68,0-1,0l.13-1.7c5.59.45,10.57-3.25,13.36-6.87,3.34-4.34,5.2-9.82,6.84-14.66l7.29-21.52c2.66-7.91,5.68-16.89,4.31-25.63a9.33,9.33,0,0,0-1.79-4.65c-2.32-2.72-6.77-2.4-9.86-1.3a22.2,22.2,0,0,0-9.13,6.2,16.55,16.55,0,0,0-1.69,2.18l-.08.11-1.46-.88.08-.11a19.86,19.86,0,0,1,1.88-2.43,24,24,0,0,1,9.83-6.67c3.78-1.34,8.84-1.57,11.72,1.79a10.87,10.87,0,0,1,2.18,5.5c1.43,9.15-1.66,18.33-4.39,26.43l-7.28,21.53c-1.68,5-3.59,10.59-7.1,15.14C626.45,258.23,621.24,261.06,616.29,261.06Z"/><path class="cls-9" d="M625.79,191.18A.85.85,0,0,1,625,190c6.25-12.85,7.23-21.62,8.73-34.88l.41-3.66c1.48-12.9,1.6-32.79.26-44.33-1.37-11.73-7.57-21.53-14.12-31.9-2.73-4.3-5.54-8.76-7.94-13.32-3.17-6-7.1-12.57-13.61-14.62-.76-.24-1.58-.44-2.44-.66-2.24-.55-4.68-1.15-6.3-2.63a.9.9,0,0,1-.41.3.88.88,0,0,1-1-.28C574.12,25.37,560.49,9.52,541.07,4c-8.48-2.39-17.31-2.47-24.83-2.23-9.62.29-19.32,1.21-28.7,2.09-9.86.93-20.05,1.9-29.24,6-7.46,3.28-13.9,8.45-20.13,13.46L408.05,47.4l4.63.17h.25a.86.86,0,0,1,.77.56.87.87,0,0,1-.24.93c-15.29,13.48-24.86,35-26.27,59-1.12,18.87,2.36,39.61,10.95,65.27,2,6.06,4.2,11.87,8.26,16.44a.85.85,0,1,1-1.27,1.13c-4.27-4.8-6.59-11-8.6-17-8.67-25.87-12.17-46.82-11-65.92,1.38-23.62,10.57-44.89,25.29-58.74L405.71,49a.86.86,0,0,1-.77-.59.85.85,0,0,1,.27-.92L437.1,22c6.32-5.07,12.85-10.31,20.51-13.69,9.44-4.16,19.78-5.13,29.77-6.08C496.79,1.3,506.52.39,516.19.1c7.64-.26,16.64-.17,25.35,2.29,19.25,5.45,32.81,20.65,47,38.68a.86.86,0,0,1,.65-.51.84.84,0,0,1,.94.57c.8,2.38,3.61,3.08,6.58,3.81.86.21,1.74.43,2.55.69,7.12,2.24,11.27,9.15,14.6,15.45,2.37,4.5,5.17,8.93,7.87,13.2,6.37,10.08,13,20.5,14.38,32.61,1.35,11.65,1.23,31.72-.26,44.73l-.41,3.65c-1.52,13.44-2.52,22.32-8.89,35.43A.86.86,0,0,1,625.79,191.18Z"/><path class="cls-9" d="M587.41,72.4h-.12a.85.85,0,0,1-.72-1A195.28,195.28,0,0,0,588.06,52c.12-2.82.25-5.74.43-8.55a.85.85,0,1,1,1.69.11c-.18,2.79-.3,5.7-.42,8.52-.28,6.47-.57,13.17-1.51,19.65A.84.84,0,0,1,587.41,72.4Z"/><path class="cls-9" d="M444.91,123.75c-4.76,0-9.35-.29-13.51-2.23a.83.83,0,0,1-.49-.79.81.81,0,0,1,.53-.76,11.12,11.12,0,0,0,3.93-2.71,35,35,0,0,1-18.57-1.6,33.93,33.93,0,0,1-10-5.77.84.84,0,0,1-.16-1.13,85.5,85.5,0,0,1,11.2-13.47A.85.85,0,0,1,419,96.51a82.78,82.78,0,0,0-10.55,12.56,32.15,32.15,0,0,0,8.91,5,33.05,33.05,0,0,0,19.84,1,.85.85,0,0,1,.9.31.86.86,0,0,1,0,.95,12.67,12.67,0,0,1-4.35,4.32c3.88,1.34,8.19,1.43,12.64,1.38a371.42,371.42,0,0,0,120.45-21.31,38.13,38.13,0,0,0,8-3.58,16.27,16.27,0,0,0,2.23-1.72c3.35-3.06,5.13-7.58,6.53-11.58a65.68,65.68,0,0,0,2.85-12,.85.85,0,0,1,1.68.26,68.15,68.15,0,0,1-2.92,12.33c-1.48,4.19-3.35,8.94-7,12.28a18,18,0,0,1-2.47,1.89,39.52,39.52,0,0,1-8.34,3.75,373.13,373.13,0,0,1-121,21.4Z"/><path class="cls-9" d="M514.63,376.55c-38.37,0-61.21-30-76.82-56.19-2.1-3.51-4.22-7.22-6.48-11.35-7.56-13.75-13.24-29.67-17.36-48.64a423,423,0,0,1-6.66-43.55c-.79-7.35-1.68-16-2.21-24.83,0-.35-.05-.72-.07-1.09l0-.52c-1.13-20-1.19-49.63,11.33-75.89l.26-.54,1.52.76-.26.53c-12.34,25.89-12.28,55.23-11.16,75l0,.53c0,.35,0,.7.07,1.05.53,8.77,1.42,17.44,2.21,24.78A421,421,0,0,0,415.63,260c4.09,18.81,9.71,34.57,17.19,48.19,2.26,4.1,4.36,7.79,6.44,11.29,29.29,49.07,55.66,55.36,75.37,55.36a66.25,66.25,0,0,0,21.56-3.51c26.59-9.06,44.22-35,56.6-56.63,1.32-2.26,2.58-4.55,3.67-6.51,7.5-13.69,13.14-29.51,17.24-48.38a431,431,0,0,0,6.58-43.18c.49-4.55,1-7.84,1.46-10.74a106.64,106.64,0,0,0,1.44-13.33c.05-1,.09-2.13.11-3.33-3.11-8.26-5.08-17.1-7-25.65-3.17-14.26-6.46-29-15.13-40.79-1.49-2-3.18-4-4.8-5.9-3.29-3.85-6.69-7.83-8.83-12.55-3.86-8.51-2.74-17.86-1.57-27.75.19-1.57.38-3.14.55-4.73l.05-.43,1.69.22,0,.4c-.17,1.58-.36,3.17-.55,4.74-1.15,9.65-2.24,18.77,1.43,26.85,2,4.5,5.36,8.39,8.57,12.15,1.64,1.93,3.35,3.92,4.88,6,8.88,12.07,12.21,27,15.42,41.42,1.91,8.55,3.88,17.38,7,25.57l.06.15v.16c0,1.28-.07,2.45-.13,3.54a106.94,106.94,0,0,1-1.45,13.52c-.45,2.88-1,6.15-1.45,10.66a430.67,430.67,0,0,1-6.61,43.36c-4.14,19-9.83,35-17.41,48.83-1.09,2-2.37,4.28-3.69,6.55-12.53,21.86-30.39,48.14-57.52,57.39A68,68,0,0,1,514.63,376.55Z"/><path class="cls-9" d="M594.91,392.14a.84.84,0,0,1-.84-.72c-2-13.14-2-29.12-2.07-43.23,0-2.73,0-5.48,0-8.17.1-8.58.4-17,.7-24.89a.85.85,0,0,1,.85-.81h0a.85.85,0,0,1,.82.88c-.3,7.84-.6,16.28-.7,24.85,0,2.68-.07,5.41,0,8.14,0,14,.07,30,2,43a.86.86,0,0,1-.72,1Z"/><path class="cls-9" d="M571.1,1298.09l-1.69-.13v-.14c0-.62.09-1.23.12-1.86a1089.27,1089.27,0,0,0-9.83-239.47c-.93-6.12-1.93-12.35-2.91-18.38-5.07-31.49-10.31-64-8.14-96.31,1.09-16.11,4-32.24,6.89-47.83,1.7-9.27,3.45-18.84,4.79-28.31,6.78-47.78,3.77-96.81.86-144.22L554.78,617,548,507.15l-2-33.3c-.57-9.37-1.22-20,2.38-29.46A37.66,37.66,0,0,1,551,439a57.47,57.47,0,0,1,6.36-8.95c2.11-2.48,4.53-5,7.41-7.82,2.66-2.58,5.45-5.11,8.16-7.56C579.23,408.9,585.79,403,591,396a33.5,33.5,0,0,0,3.06-4.93l.09-.19a39.16,39.16,0,0,0,2.31-5.65c4.4-13.35,2.69-28-4.27-36.53l-.19-.23v-.31h.8l.63-.63.05.12,0,0c7.3,8.94,9.14,24.26,4.56,38.13a41,41,0,0,1-2.31,5.72h0l-.1.19a35.59,35.59,0,0,1-3.3,5.37c-5.31,7.05-11.93,13.05-18.34,18.86-2.69,2.44-5.48,5-8.12,7.52-2.84,2.74-5.23,5.26-7.3,7.7a56.67,56.67,0,0,0-6.18,8.69A38.2,38.2,0,0,0,550,445c-3.46,9.14-2.83,19.56-2.27,28.75l2,33.3,6.75,109.86,6.42,104.43c2.91,47.5,5.93,96.62-.88,144.57-1.34,9.5-3.1,19.09-4.8,28.37-2.84,15.55-5.78,31.63-6.86,47.64-2.16,32.07,3.07,64.53,8.12,95.93,1,6,2,12.27,2.91,18.4a1091.27,1091.27,0,0,1,9.85,239.82c0,.62-.08,1.25-.13,1.89Z"/><path class="cls-9" d="M609.11,477.69a1.71,1.71,0,0,1-1.73-1.8c.24-8.35-3.27-17.47-9.66-25a71.32,71.32,0,0,0-14.14-12.45c-4.36-3.07-9-5.86-13.1-8.32-1.15-.69-2.56-1.53-3.92-1.42a3,3,0,0,0-.72.17,9,9,0,0,0-2.87,2c-3.48,3.12-6.94,6.25-10.43,9.39L551.4,439c3.49-3.15,7-6.27,10.44-9.4a10.4,10.4,0,0,1,3.42-2.3,4.83,4.83,0,0,1,1.13-.26c1.92-.17,3.61.84,5,1.65,4.12,2.48,8.79,5.29,13.21,8.39A73,73,0,0,1,599,449.77c6.65,7.87,10.31,17.41,10.05,26.17q6.91-15.78,13.75-31.62l14-32.41c.84-2,1.89-4.39,1.76-6.67a2,2,0,0,0,0-.29l0-.18a1.88,1.88,0,0,0-.05-.33l0-.19a13.27,13.27,0,0,0-2.72-5q-21.67-29.33-43.33-58.68l1.36-1q21.66,29.36,43.34,58.68a14.47,14.47,0,0,1,3,5.75l0,.19a4.88,4.88,0,0,1,.06.52,2.6,2.6,0,0,1,0,.52c.15,2.64-1,5.27-1.91,7.39q-7,16.21-14,32.42l-13.71,31.65A1.69,1.69,0,0,1,609.11,477.69Z"/><path class="cls-9" d="M606.28,1295.48c-3.35-38.46-2.6-70.11-1.88-100.71.81-34.46,1.58-67-3.32-106.94-1.88-15.33-5.15-32.06-8.6-49.78-4.48-22.93-9.11-46.65-10.5-67.22-1-14.35,2.39-31.61,5.63-48.3,2.28-11.71,4.44-22.77,5.11-32.58,5.61-81.93.28-159.8-5.37-242.23-2-28.73-4-58.43-5.54-88.41-.44-8.64-1.25-18.68-2.11-29.31-3.07-38.1-6.55-81.27,3.73-92.84l1.27,1.13c-9.79,11-6.2,55.68-3.31,91.57.86,10.64,1.67,20.69,2.12,29.37,1.54,30,3.57,59.65,5.54,88.37,5.64,82.5,11,160.42,5.36,242.46-.68,9.92-2.84,21-5.13,32.8-3.23,16.58-6.56,33.73-5.61,47.86,1.39,20.46,6,44.12,10.47,67,3.47,17.74,6.74,34.5,8.63,49.89,4.91,40.06,4.14,72.66,3.33,107.19-.72,30.56-1.46,62.16,1.87,100.52Z"/><path class="cls-9" d="M781.15,597.91c0-.24-.07-.5-.09-.74-6-44.24-5.31-80.11,2.15-112.86l1.65.38c-7.41,32.54-8.08,68.22-2.11,112.3,0,.25,0,.47.08.67Z"/><path class="cls-9" d="M657.79,1016.43l.1-1.45c1.16-18.29,11.28-36.7,30.93-56.31,4.26-4.26,8.76-8.44,13.12-12.49,11.31-10.52,23-21.39,31.54-34.44l.84-1.29c3.53-5.45,7.54-11.63,14.1-13.12l.38,1.66c-5.89,1.34-9.53,7-13.06,12.38l-.84,1.31c-8.65,13.21-20.42,24.16-31.81,34.75-4.34,4-8.83,8.21-13.07,12.44-18.81,18.77-28.75,36.37-30.32,53.74a408.38,408.38,0,0,0,87.71-58.33l1.11,1.28a410.25,410.25,0,0,1-89.41,59.23Z"/><path class="cls-9" d="M712.48,1264.67l-.35-1.66A113.27,113.27,0,0,0,788,1205l1.51.78a115,115,0,0,1-77,58.92Z"/><path class="cls-9" d="M744.38,1273.33c-1.42,0-2.86,0-4.28-.16l.13-1.7c1.72.13,3.46.19,5.17.15a52.46,52.46,0,0,0,40.88-21.57l1.39,1a54.22,54.22,0,0,1-42.23,22.29Z"/><path class="cls-9" d="M435.61,388.14h-.13a.86.86,0,0,1-.71-1A289.47,289.47,0,0,0,438,348.84c.08-3.14.09-6.24.09-8.6,0-6.09-.14-12.53-.44-20.28a.85.85,0,1,1,1.69-.07c.31,7.77.45,14.24.45,20.35,0,2.36,0,5.48-.09,8.64a291,291,0,0,1-3.29,38.53A.85.85,0,0,1,435.61,388.14Z"/><path class="cls-9" d="M461.17,1298.09l0-.21c0-.62-.09-1.22-.12-1.84a1091.09,1091.09,0,0,1,9.85-239.8c.93-6.14,1.94-12.38,2.91-18.41,5-31.39,10.28-63.86,8.12-95.92-1.08-16-4-32.08-6.87-47.63-1.69-9.28-3.45-18.88-4.79-28.38-6.82-48-3.81-97.11-.89-144.57q3.36-54.52,6.7-109l6.51-105.93q.49-7.92,1-15.84.51-8.38,1-16.78c.25-4.14.51-8.44.42-12.7a46.41,46.41,0,0,0-2.7-16,35.5,35.5,0,0,0-2.45-5.17,55.72,55.72,0,0,0-6.18-8.69,168.71,168.71,0,0,0-15.4-15.21c-6.42-5.81-13-11.82-18.36-18.88a37.75,37.75,0,0,1-5.09-9.45l-.06-.16c-5.09-13.68-3.67-29.74,3.46-39.1a7,7,0,0,1,.55-.73l1.3,1.1a4.43,4.43,0,0,0-.46.61c-6.86,9-8.16,24.47-3.2,37.67l0,.16a36.26,36.26,0,0,0,4.81,8.88c5.21,6.93,11.78,12.89,18.14,18.64A169.5,169.5,0,0,1,475,430a58.14,58.14,0,0,1,6.36,8.95,37.16,37.16,0,0,1,2.57,5.4A48,48,0,0,1,486.7,461c.09,4.34-.17,8.66-.43,12.85q-.51,8.38-1,16.77-.48,7.94-1,15.85-3.27,53-6.51,105.92-3.36,54.52-6.71,109.05c-2.91,47.37-5.92,96.36.88,144.22,1.34,9.47,3.09,19.05,4.79,28.31,2.85,15.6,5.8,31.72,6.89,47.83,2.17,32.25-3.07,64.81-8.14,96.3-1,6-2,12.27-2.91,18.39a1089.11,1089.11,0,0,0-9.83,239.45c0,.62.07,1.21.12,1.81v.21Z"/><path class="cls-9" d="M423.16,477.69a1.69,1.69,0,0,1-1.56-1L407.89,445l-14-32.42a22.1,22.1,0,0,1-1.83-5.67,9.6,9.6,0,0,1,.06-2.94,14.66,14.66,0,0,1,3-5.75l15-20.31q14.1-19.08,28.19-38.17l.16-.22,1.36,1-.15.2q-14.09,19.1-28.19,38.17l-15,20.3a13.52,13.52,0,0,0-2.72,5.06,7.44,7.44,0,0,0,0,2.41,20.25,20.25,0,0,0,1.69,5.18l14.05,32.45L423.16,476c-.24-8.78,3.42-18.32,10.09-26.2A72.85,72.85,0,0,1,447.72,437c4.2-3,8.66-5.65,13-8.26l.21-.13c1.36-.82,3.06-1.83,5-1.65s3.45,1.56,4.56,2.56c3.48,3.13,6.95,6.25,10.43,9.4l-1.13,1.26c-3.49-3.14-7-6.27-10.43-9.39-1.22-1.1-2.33-2-3.6-2.14s-2.77.73-3.91,1.42l-.21.12c-4.3,2.6-8.73,5.28-12.89,8.2a71.69,71.69,0,0,0-14.15,12.45c-6.39,7.56-9.91,16.68-9.65,25a1.71,1.71,0,0,1-1.73,1.8Z"/><path class="cls-9" d="M426,1295.48l-1.69-.15c3.33-38.36,2.59-70,1.87-100.53-.81-34.52-1.58-67.12,3.33-107.18,1.89-15.39,5.16-32.15,8.62-49.89,4.47-22.88,9.09-46.55,10.47-67,1-14.12-2.39-31.26-5.61-47.83-2.3-11.78-4.46-22.9-5.14-32.83-5.61-82-.28-159.81,5.36-242.22,2-28.8,4-58.57,5.55-88.61.38-7.36,1-15.89,1.57-24.91,2.51-36.94,5.95-87.53-2.71-96l1.19-1.21c9.21,9,5.89,58,3.21,97.31-.61,9-1.19,17.54-1.57,24.88-1.54,30.07-3.58,59.84-5.55,88.64-5.64,82.36-11,160.15-5.35,242,.67,9.82,2.82,20.89,5.11,32.62,3.24,16.67,6.6,33.92,5.64,48.26-1.39,20.57-6,44.29-10.5,67.23-3.46,17.71-6.72,34.44-8.6,49.77-4.9,39.93-4.13,72.48-3.32,106.93C428.59,1225.37,429.33,1257,426,1295.48Z"/><path class="cls-9" d="M239.72,660.94l-1.66-.35c12-57.1,22.57-117.72,9.35-175.9l1.65-.38C262.37,542.83,251.74,603.65,239.72,660.94Z"/><path class="cls-9" d="M416.11,935.43A426,426,0,0,0,354,888.36c-1.88-1.17-3.79-2.33-5.69-3.5-12.67-7.74-25.76-15.74-35.39-27.27-9.41-11.31-14.85-25.29-20.1-38.8-4.32-11.11-8.79-22.6-15.44-32.54l1.41-1c6.76,10.1,11.26,21.67,15.61,32.87,5.21,13.39,10.59,27.23,19.83,38.33,9.44,11.32,22.41,19.25,35,26.91l5.71,3.51a426.79,426.79,0,0,1,62.36,47.26Z"/><path class="cls-9" d="M396.14,991.73a263.52,263.52,0,0,0-74.33-60.87l.82-1.49a265.48,265.48,0,0,1,74.81,61.26Z"/><path class="cls-9" d="M830.8,512.44c-5.59-12.23-11.9-25-22.12-34.21-6.69-6.05-14.77-10.29-21.78-13.64-1.92-.92-3.85-1.81-5.78-2.7A1366.57,1366.57,0,0,0,639.2,406h0l-.28-.1.62-1.58.25.08a1368.77,1368.77,0,0,1,142,56c1.94.88,3.88,1.79,5.81,2.71,7.13,3.4,15.34,7.71,22.19,13.91,10.46,9.47,16.86,22.37,22.52,34.77Z"/><path class="cls-9" d="M805.67,1296.11,804,1296v-.59h.07c7.09-56.23-1.89-113.48-10.57-168.85-5.06-32.22-10.28-65.53-12.33-98.43-2-32.33-1.92-68.15.25-112.73,1.3-26.72,3.18-53.64,5-79.67.82-11.74,1.68-23.89,2.44-35.64l1.7.11c-.77,11.76-1.62,23.9-2.44,35.65-1.82,26-3.71,52.93-5,79.63-2.17,44.52-2.25,80.28-.26,112.55,2,32.81,7.27,66.09,12.31,98.27C803.88,1182,812.91,1239.49,805.67,1296.11Z"/><path class="cls-9" d="M180.22,1215.69l-.78-.19c-11.11-2.82-19.24-12.73-25.17-20-5.73-7-12-13.92-18-20.65l1.27-1.13c6,6.74,12.29,13.71,18.05,20.7s13.31,16.24,23.49,19.18a150.42,150.42,0,0,1,8-19.9,154.63,154.63,0,0,1,52.86-61c6.45-3.78,6.71-3.94,12.35-7.49-4.18-6-8.2-12.34-11.93-18.76-3.11-5.34-6-10.66-8.56-15.82A286.64,286.64,0,0,1,207,1019.21c-1.33-6.52-2.45-13.21-3.54-19.69-3-17.83-6.1-36.26-13.7-52.84-1.23-2.67-2.6-5.35-3.93-7.94-3.08-6-6.27-12.25-8-19-2.07-8.23-1.69-20.14,6-27.27l-10.27-9.62L204.15,835q16.07-25.2,32.14-50.4l1.43.92q-16.08,25.18-32.14,50.39l-29.8,46.72,10.62,9.94-.73.61c-7.73,6.54-8.13,18.2-6.11,26.2,1.64,6.51,4.78,12.65,7.82,18.58,1.34,2.61,2.72,5.31,4,8,7.7,16.78,10.82,35.33,13.83,53.27,1.09,6.46,2.21,13.14,3.53,19.63A285.59,285.59,0,0,0,233.33,1090c2.56,5.13,5.42,10.42,8.5,15.72,3.75,6.44,7.78,12.78,12,18.84l.17.26c.08.1.15.21.22.31l.45.72-.71.46c-6.4,4-6.4,4-13.11,8a152.78,152.78,0,0,0-52.23,60.26,145.83,145.83,0,0,0-8.16,20.44Z"/><path class="cls-9" d="M136.27,1174.87c-20.37-22.75-41.44-46.28-46.8-74.92a121.3,121.3,0,0,0-9.85-30.66l-11.37-23.38a103.63,103.63,0,0,0-14.67-22.86c-5.27-6.07-8.18-14.4-10.71-22.41l-35-110.8C3.4,875.74-1.65,859.76.52,843.93c2-14.63,10-27.75,17-39.33C38.76,769.49,62.78,734.32,86,700.31c41.21-60.33,83.82-122.72,113.9-188.57C205.6,499.31,212,486.39,222.44,477c7.86-7.11,17.33-11.74,28-16.62C301.59,436.92,351,419.73,392.6,406l.53,1.61c-41.55,13.72-90.91,30.89-142,54.28-10.54,4.83-19.89,9.39-27.57,16.34-10.17,9.21-16.51,21.95-22.13,34.21-30.14,66-72.79,128.44-114,188.83-23.21,34-47.22,69.14-68.47,104.21C12,816.92,4.16,829.88,2.2,844.16.08,859.61,5.07,875.4,9.48,889.32l35,110.81c2.48,7.84,5.32,16,10.37,21.8a105.52,105.52,0,0,1,14.92,23.24l11.36,23.38a122.89,122.89,0,0,1,10,31.08c5.27,28.18,26.18,51.53,46.4,74.11Z"/><path class="cls-9" d="M515,483.78a53.94,53.94,0,0,1-25.12-6.19,33.81,33.81,0,0,1-5-3.13l1.07-1.33a32,32,0,0,0,4.75,3c9.8,5.17,30.06,11.65,55.71-3l.84,1.47C535.21,481.44,524.3,483.78,515,483.78Z"/><path class="cls-9" d="M516.69,516.85a63.58,63.58,0,0,1-19-3,56.6,56.6,0,0,1-14.73-6.79l1-1.39a55.93,55.93,0,0,0,14.26,6.56c11.77,3.7,30,5.67,50.29-5.92l.84,1.47A64.87,64.87,0,0,1,516.69,516.85Z"/><path class="cls-9" d="M522.92,431.08a35.86,35.86,0,0,1-11.83-22.51l1.68-.2A34.16,34.16,0,0,0,524,429.8Z"/><path class="cls-9" d="M969.09,987a48.44,48.44,0,0,1-11.67-1.9c-23.84-6.06-47.68-12.25-70.87-18.42-8.31-2.21-18.65-5-25.47-12.16-4.9-5.16-7.5-12.14-9.8-18.3Q841,908.55,830.71,880.89c-3-8-6.06-16.19-7.54-24.91-.3-1.78-.54-3.61-.77-5.37-.59-4.57-1.21-9.3-3-13.54a31.83,31.83,0,0,0-2.89-5.26,108.87,108.87,0,0,0-7.79-9.84c-5.85-6.84-11.91-13.92-12.81-21.78,0-.37-.07-.65-.08-1l1.69-.09c0,.26,0,.51.07.77.85,7.42,6.74,14.3,12.42,21a107.56,107.56,0,0,1,7.91,10,33.4,33.4,0,0,1,3.05,5.54c1.88,4.46,2.51,9.3,3.12,14,.23,1.75.46,3.56.76,5.31,1.45,8.56,4.5,16.71,7.45,24.59q10.26,27.66,20.57,55.34c2.35,6.3,4.78,12.81,9.44,17.72,6.49,6.86,16.58,9.54,24.68,11.69,23.18,6.16,47,12.36,70.85,18.42,6.49,1.64,12.75,2.92,18.07.46,4-1.88,6.84-5.58,9.6-9.52a337,337,0,0,0,18.17-28.95c2.52-4.47,5-9.14,7.39-13.88,5.42-10.81,10-22.33,6.79-33.33a23.88,23.88,0,0,1-.59-9.55c.32-3.44.59-6.41-1.88-10.27-11.85-18.57-23-36.76-29.07-55.07-2.71-8.17-7.71-16-12.54-23.56s-9.84-15.4-12.64-23.67c-5.68-16.83-14.56-32.78-23.14-48.2-11.09-19.93-22.55-40.54-27.19-63.2-.47-2.26-.87-4.59-1.26-6.84-1.37-7.87-2.79-16-6.94-22.77-2.67-4.38-6.43-8.09-10.07-11.68-2-2-4.07-4-5.95-6.16-6.51-7.43-11.05-16.38-15.45-25l0-.09L845.16,541l-14.25-28.12,1.52-.77,14.25,28.12,25.93,51.17,0,.09c4.35,8.57,8.84,17.43,15.21,24.69,1.84,2.1,3.88,4.12,5.86,6.07,3.71,3.66,7.55,7.45,10.33,12,4.32,7,5.76,15.33,7.16,23.35.39,2.24.79,4.56,1.25,6.8,4.59,22.41,16,42.89,27,62.71,8.62,15.49,17.53,31.51,23.26,48.49,2.73,8.07,7.68,15.81,12.46,23.29,4.89,7.66,9.95,15.58,12.72,23.94,6,18.13,17.1,36.22,28.9,54.69,2.77,4.36,2.46,7.75,2.13,11.34a22.16,22.16,0,0,0,.53,8.93c3.37,11.56-1.33,23.44-6.9,34.56-2.4,4.77-4.9,9.46-7.43,13.95a338.72,338.72,0,0,1-18.26,29.09c-2.78,4-5.87,8-10.27,10.09A17.69,17.69,0,0,1,969.09,987Z"/><path class="cls-9" d="M742.47,735.06l-14.92-.64-16.56-.7a45.36,45.36,0,0,1-9.54-1.12,17.11,17.11,0,0,1-5.92-2.63c-4.54-3.24-7.11-9.2-6.7-15.56.37-5.61,3.95-14.41,10.75-16.4l.47,1.63c-5.94,1.74-9.2,9.91-9.53,14.89-.36,5.68,2,11.2,6,14.06a15.45,15.45,0,0,0,5.36,2.37,44.76,44.76,0,0,0,9.19,1.06l16.56.71,14.92.63Z"/><path class="cls-9" d="M738.81,766.58c-5.51-3.11-12.44-2.6-19.15-2.11-4.56.33-9.28.67-13.5-.14a16.55,16.55,0,0,1-8.34-4,16.77,16.77,0,0,1-4.94-15,22.88,22.88,0,0,1,8.12-13.7l1.1,1.3a21.17,21.17,0,0,0-7.54,12.67A15.24,15.24,0,0,0,699,759.1a15,15,0,0,0,7.52,3.57c4,.76,8.4.44,13.06.1,7-.51,14.15-1,20.11,2.34Z"/><path class="cls-9" d="M794.85,801c-.89,0-1.75,0-2.58-.11l0,0-.3,0h0c-.72,0-1.43-.12-2.27-.24a73.61,73.61,0,0,1-12.45-3.15c-4.4-1.39-8.56-2.71-13-3a46.87,46.87,0,0,0-10.13.5c-2.17.28-4.42.57-7.19.68a69.41,69.41,0,0,1-33-6.88C710.22,787,705,784,702.4,779.07s-.78-13.34,3.44-16.27l1,1.4c-3.56,2.46-5.11,10-2.91,14.07,2.4,4.52,7.27,7.27,10.73,9a67.69,67.69,0,0,0,32.2,6.71c2.69-.11,4.89-.39,7-.67a48.6,48.6,0,0,1,10.48-.5c4.6.33,8.85,1.68,13.35,3.1A72.25,72.25,0,0,0,789.86,799c.77.1,1.43.18,2,.22h0l.25,0a32.14,32.14,0,0,0,4.53.07,35.92,35.92,0,0,0,7.47-1.26l.73-.21a24.13,24.13,0,0,0,15.86-14.12l1.59.6c-2.7,7.13-9.05,12.79-17,15.16l-.74.2a36.85,36.85,0,0,1-7.83,1.32C796.14,801,795.49,801,794.85,801Zm-2.69-1.81h0Z"/><path class="cls-9" d="M844.78,730.84c-6.13-4.75-11.21-11.34-15.1-19.59-.93-2-1.78-4-2.51-6a95.36,95.36,0,0,1-5.64-27.91c-.14-2.6-.19-5.25-.24-7.82-.14-7.24-.29-14.72-2.39-21.66a81.37,81.37,0,0,0-4.8-11.4c-2.4-5-4.87-10.09-5.86-15.64-1-5.83-.51-12,1.64-18.89s5.57-13.45,9.18-20.09l0-.16c-8.51-5.36-23.32-3.21-32.16,8.64a37.93,37.93,0,0,0-4.19,7.11c-4.17,9.08-5.21,19.63-5.68,28.75-.09,1.74-.16,3.48-.24,5.23-.46,11-.94,22.4-5.11,32.76l-.23.59-.63-.06a154.93,154.93,0,0,0-64.66,8,20.93,20.93,0,0,0-7.37,3.82c-3.48,3.17-4.77,8.13-4.06,15.64A6.53,6.53,0,0,0,700,698c8,1.46,16.3,1.32,24.36,1.19a150.65,150.65,0,0,1,20.58.6l-.21,1.69a148.46,148.46,0,0,0-20.34-.59c-8.15.13-16.56.26-24.7-1.22a8.23,8.23,0,0,1-6.65-7.33c-.76-8.08.7-13.5,4.6-17.06,2.25-2,5.17-3.18,8-4.16A156.65,156.65,0,0,1,770.31,663c3.84-9.93,4.3-21,4.76-31.61.07-1.75.14-3.5.23-5.25.48-9.28,1.55-20,5.84-29.36a40.14,40.14,0,0,1,4.37-7.42C793.2,579,809,573,820.27,580.48l.29.2.28,1.46-.14.27c-3.62,6.65-7.05,13.2-9.2,20.05-2.06,6.62-2.58,12.53-1.59,18.08,1,5.32,3.37,10.34,5.72,15.2a82.55,82.55,0,0,1,4.89,11.65c2.18,7.16,2.33,14.77,2.47,22.12,0,2.55.1,5.19.24,7.76a94.59,94.59,0,0,0,5.53,27.41c.72,1.91,1.55,3.88,2.46,5.85,3.78,8,8.69,14.39,14.6,19Z"/><path class="cls-9" d="M782.8,693.88l-1-1.4c1.48-1,1.72-3.14,1.31-4.67a14.57,14.57,0,0,0-2.95-5l1.34-1a16.21,16.21,0,0,1,3.26,5.63C785.34,689.47,785,692.4,782.8,693.88Z"/><path class="cls-9" d="M782.37,731.32,781.31,730a6.68,6.68,0,0,0,.28-9.67l1.14-1.26a8.36,8.36,0,0,1-.36,12.25Z"/><path class="cls-9" d="M778.78,756.51l-.63-1.58a3.66,3.66,0,0,0,2.21-3.29,3.6,3.6,0,0,0-2.23-3.23l.6-1.59a5.3,5.3,0,0,1,3.33,4.81A5.37,5.37,0,0,1,778.78,756.51Z"/><path class="cls-9" d="M777.2,783.94l-1.15-1.25a4.84,4.84,0,0,0,.6-6.15l1.38-1A6.51,6.51,0,0,1,777.2,783.94Z"/><path class="cls-9" d="M808.16,800a19.77,19.77,0,0,1-3.93-.39,16.37,16.37,0,0,1-1.74-.43l.5-1.62a15,15,0,0,0,1.57.38c7.47,1.53,16.36-1.91,22.66-8.76s9.9-16.1,13-24.23c1.11-2.84,2.18-5.62,3.09-8.48a47.59,47.59,0,0,0,2.34-10.38,52.14,52.14,0,0,0-1.21-15.78c-.57-2.84-1.28-5.7-2-8.46-.77-3.07-1.64-6.55-3.9-8.93-1.9-2-5.43-3-7.67-1.38a2,2,0,0,0-.34.27l-1.2-1.2a3.36,3.36,0,0,1,.57-.46c3-2.21,7.48-.9,9.87,1.6,2.57,2.7,3.54,6.57,4.32,9.69.69,2.78,1.4,5.66,2,8.53a53.83,53.83,0,0,1,1.23,16.29A49.32,49.32,0,0,1,845,757c-.93,2.91-2,5.71-3.13,8.57-3.19,8.27-6.82,17.64-13.36,24.77C822.84,796.48,815.22,800,808.16,800Z"/><path class="cls-9" d="M1010.1,904l-1.64-.42c2.51-10-2.63-20.35-7.37-27.22-2-2.93-4.26-5.8-6.44-8.57-3.9-5-7.92-10.09-10.8-15.85a94.51,94.51,0,0,1-4.79-12.28,95.49,95.49,0,0,0-4.56-11.8c-6.32-12.9-18.06-22.14-28.72-29.47-6.23-4.3-12.7-8.36-19.23-12.08-5.06-2.91-10.48-5.77-16.13-8.52l-.35-.16c-2.89-1.4-5.88-2.84-8.25-5.16a36.06,36.06,0,0,1-5.47-7.74c-2.73-4.67-5.31-9.09-10.1-9.41a18,18,0,0,0-2.42,0c-2.12.13-4.52.27-6.13-1.47-1.2-1.3-1.34-3.09-1.46-4.66l0-.61c-1.14-11.8-12.93-19.69-23.08-25.24-3.43-1.88-7-3.82-9.48-7a29.16,29.16,0,0,1-2.91-4.79,24.58,24.58,0,0,0-3-4.85,8.08,8.08,0,0,0-5.65-2.68,3.72,3.72,0,0,0-2.94,1.28l-1.3-1.09a5.35,5.35,0,0,1,4.22-1.89h.07a9.6,9.6,0,0,1,6.89,3.27,26.14,26.14,0,0,1,3.22,5.18,27.58,27.58,0,0,0,2.73,4.51c2.28,2.89,5.68,4.74,9,6.53,10.51,5.76,22.73,14,24,26.58l0,.64c.11,1.36.22,2.77,1,3.64,1.06,1.14,2.87,1,4.78.92a21.15,21.15,0,0,1,2.64,0c5.68.39,8.61,5.41,11.45,10.26a34.9,34.9,0,0,0,5.19,7.38c2.17,2.12,5,3.5,7.8,4.83l.35.18c5.68,2.76,11.14,5.64,16.23,8.57,6.57,3.73,13.09,7.82,19.36,12.15,10.83,7.46,22.79,16.87,29.28,30.13a96.91,96.91,0,0,1,4.64,12,95.11,95.11,0,0,0,4.7,12.07c2.8,5.61,6.77,10.67,10.62,15.56,2.19,2.79,4.45,5.68,6.5,8.65C1007.43,882.52,1012.77,893.3,1010.1,904Z"/><path class="cls-9" d="M893.68,908.13l-1.14-1.26A96.7,96.7,0,0,0,923.7,835c0-1.29,0-2.59-.13-4.1A191.88,191.88,0,0,0,920.36,808c-1.05-5.79-2.14-11.78-2.78-17.74l1.68-.19C919.9,796,921,802,922,807.71a191.48,191.48,0,0,1,3.23,23.09c.1,1.54.14,2.88.14,4.19A98.4,98.4,0,0,1,893.68,908.13Z"/><path class="cls-9" d="M872.67,890.23l-.79-1.5a72.52,72.52,0,0,0,35.86-45.91l1.65.41A74.23,74.23,0,0,1,872.67,890.23Z"/><path class="cls-9" d="M827.09,833.3A46.93,46.93,0,0,1,817,832.17l.36-1.66c23.23,5.07,40.46-7,51.24-35.83,7.52-20.1,8.83-41.25,8.85-41.46l1.69.1c0,.22-1.33,21.6-8.95,42C860.85,820.34,846.06,833.3,827.09,833.3Z"/><path class="cls-9" d="M856.67,717.52l.88-2.76a58.47,58.47,0,0,1,26.66-32.51,54.76,54.76,0,0,1,14.33-5.74l.41,1.65a53.34,53.34,0,0,0-13.9,5.56,57,57,0,0,0-24.9,28.77A101.3,101.3,0,0,1,900,693.69l3.19-.65.32,1.67c-1.05.2-2.1.42-3.15.64a99.45,99.45,0,0,0-41.43,20.32Z"/><path class="cls-9" d="M242,1106.24l-1.68-.26c3.93-25.56,7.34-49.07,9.13-78,3.28-52.82-1.54-106.62-6.2-158.65-2.48-27.64-5-56.22-6.36-84.31a681.61,681.61,0,0,1,.14-73.4c.38-6.39.88-12.72,1.5-18.81l1.69.17c-.61,6.07-1.11,12.37-1.49,18.74a678.29,678.29,0,0,0-.14,73.22c1.31,28,3.87,56.62,6.35,84.24,4.67,52.09,9.49,106,6.21,158.9C249.31,1057.09,245.9,1080.64,242,1106.24Z"/><path class="cls-9" d="M804.83,1296.85H226.69l-.09-.74c-3.29-25.78-3.73-46.72-1.57-74.71l1.69.13c-2.13,27.6-1.72,48.31,1.47,73.62H804.83Z"/><path class="cls-9" d="M167.49,876.38a139.56,139.56,0,0,0-23.9-17.6C113.32,841,73.6,832,25.55,832H24.6v-1.7h.95c48.36,0,88.36,9.1,118.9,27a142,142,0,0,1,24.19,17.81Z"/><path class="cls-9" d="M83.47,1068.11a2.4,2.4,0,0,1-2.11-1.17c-1-1.56-.58-4.22.34-5.8,4.4-7.55,11.78-12.8,17.71-16.54a141.43,141.43,0,0,1,74.51-21.44h.18c-3.59-5.26-10.14-7.92-16.76-10-14.78-4.58-27.68-6.68-39.43-6.4-14.44.35-27.43,4.34-37.57,11.53l-1-1.38c10.41-7.4,23.73-11.49,38.51-11.85,11.95-.28,25,1.84,40,6.48,7.11,2.23,14.86,5.4,18.52,12.06l.7,1.28-1.46,0A139.48,139.48,0,0,0,100.32,1046c-5.77,3.63-12.94,8.72-17.15,16-.73,1.26-.91,3.19-.37,4a.74.74,0,0,0,.76.37l.12,1.69Z"/><path class="cls-9" d="M137.71,1174.57l-.78-.26h-.88v-.16l0-.14c1.18-3.25,29.23-79,87.37-84.28a69.43,69.43,0,0,1,9.13-.24v1.69a70,70,0,0,0-9,.24C166.55,1096.58,138.86,1171.39,137.71,1174.57Z"/><path class="cls-9" d="M179.67,1215.52l0-1.7c.11,0,11.68-.39,20.12-6.59l1,1.37C191.88,1215.12,180.17,1215.51,179.67,1215.52Z"/><path class="cls-9" d="M219.85,1223.62a12.94,12.94,0,0,1-3.77-.56c-4.48-1.32-7.84-5-10.54-8l-7.65-8.5c-3.61-4-7.26-8.08-10.67-11.85l1.22-1.19c3.46,3.82,7.1,7.89,10.71,11.91l7.65,8.49c2.69,3,5.74,6.35,9.77,7.54a13.16,13.16,0,0,0,9-.76,29,29,0,0,0,9-6.24c1.23-1.21,2.45-2.52,3.62-3.78,3.66-3.93,7.44-8,12.44-10.22,9.77-4.34,20.91-.49,30.59,3.46l.34.13.39.16c7.48,3.09,15.24,6.28,21.93,11.21l1.17.88a20.66,20.66,0,0,0,5.75,3.48c3.82,1.27,8.11.3,13.48-3.07a4,4,0,0,0,1.87-2.84,4.25,4.25,0,0,0-.93-3.41c-3.5-4.19-7.47-8.48-11.8-12.73l1.19-1.21a173.83,173.83,0,0,1,11.91,12.86,5.94,5.94,0,0,1,1.31,4.76,5.79,5.79,0,0,1-2.65,4c-5.83,3.66-10.57,4.69-14.92,3.24a22.48,22.48,0,0,1-6.24-3.73c-.38-.3-.76-.59-1.15-.87-6.52-4.81-14.18-8-21.58-11l-.36-.15-.37-.14c-9.33-3.81-20.07-7.54-29.24-3.48-4.68,2.09-8.34,6-11.88,9.83-1.19,1.27-2.42,2.59-3.68,3.83a30.41,30.41,0,0,1-9.5,6.6A16.53,16.53,0,0,1,219.85,1223.62Z"/><path class="cls-9" d="M313.32,1197.7c-2.6-2.56-5.39-5.13-8.53-7.89a43.39,43.39,0,0,0-7.35-5.45,6.47,6.47,0,0,0-.69-.36c-6.64-3.41-10.8-5.13-18-6.38l-2.52-.44a100.31,100.31,0,0,0-18.5-2v-1.7a101.82,101.82,0,0,1,18.79,2l2.52.44c7.38,1.28,11.65,3,18.42,6.52.25.12.51.26.77.41a44.73,44.73,0,0,1,7.64,5.65c3.17,2.78,6,5.38,8.6,8Z"/><path class="cls-9" d="M340.22,1209.74a25.33,25.33,0,0,1-8.41-1.5c-6.15-2.21-13.49-6.72-18.15-10.28h-.08l-.28-.29.62-.58,0-.83h.29l.23.17a74.51,74.51,0,0,0,17.91,10.21c6.33,2.25,12.77,1.77,17.23-1.27,3.29-2.26,5.72-6.82,4.07-10.53-.91-2.07-2.85-3.53-4.73-4.94l-4.25-3.18-7.23-5.39c-9.06-6.78-18.42-13.79-28.53-19.55-2.28-1.32-4.38-2.45-6.43-3.46a86.05,86.05,0,0,0-28.36-8.81,60.87,60.87,0,0,0-11.73-.21l-.13-1.7a62.62,62.62,0,0,1,12,.23,87.62,87.62,0,0,1,28.93,9c2.08,1,4.21,2.18,6.52,3.51,10.2,5.82,19.6,12.86,28.69,19.66l7.23,5.4,4.26,3.18c2,1.47,4.18,3.14,5.26,5.61,2.08,4.69-.85,10-4.66,12.63A18.32,18.32,0,0,1,340.22,1209.74Z"/><path class="cls-9" d="M253.86,1126.41l-.4-1.65.17,0c8.2-2.11,16.39-7.46,25.78-16.84,1.91-1.91,3.78-3.9,5.59-5.82,4.62-4.91,9.4-10,15.22-14,3.69-2.5,7.69-4.75,12-4.39a8.86,8.86,0,0,1,1.35.23c2.84.58,5.33,2.23,7.75,3.83L351.39,1108c5.78,3.88,8.16,7.77,7.07,11.55-.71,2.46-2.93,4.44-6.1,5.43-4.79,1.48-10.56.59-17.15-2.65a53,53,0,0,1-7.51-5c-3.65-2.71-7.42-5.52-10.47-6.4h-.08l-.13-.06c-4.66-1.25-8.18,2.83-11.59,6.79l-.61.7-1.28-1.11.61-.7c3.56-4.14,7.61-8.82,13.26-7.34h.08l.13.06c3.37,1,7.3,3.87,11.1,6.7a53,53,0,0,0,7.23,4.85c6.2,3,11.55,3.89,15.91,2.55,2.57-.8,4.43-2.41,5-4.29.86-3-1.29-6.23-6.38-9.66l-30-20.14c-2.34-1.55-4.69-3.11-7.24-3.63a6.84,6.84,0,0,0-1.13-.19c-4-.35-7.69,1.94-10.88,4.1-5.68,3.85-10.18,8.64-14.94,13.71-1.82,1.94-3.7,3.94-5.63,5.86-9.61,9.61-18.05,15.1-26.56,17.28Z"/><path class="cls-9" d="M359.82,1178.34c-3.82,0-8-1.35-12.61-4.08a104.9,104.9,0,0,1-11.69-8.5A110.53,110.53,0,0,0,325,1158c-1.78-1.11-3.44-2.2-5-3.26-2.46-1.63-4.79-3.17-7.18-4.5-8.87-5-18.36-6.8-38.28-.73l-.49-1.62c20.49-6.25,30.34-4.3,39.6.87,2.44,1.35,4.8,2.91,7.29,4.56,1.59,1,3.24,2.14,5,3.24a112.46,112.46,0,0,1,10.71,7.9,100.94,100.94,0,0,0,11.49,8.36c5.4,3.19,10,4.38,14.17,3.64,4.53-.81,9-5.07,8.27-9.87-.53-3.47-3.45-6-6.66-8.59l-.39-.32c-14.24-11.31-29-23-44.39-33.09-.7-.46-1.4-.91-2.11-1.35-3.3-2-7.25-4.17-11.57-4.48-.41,0-.82,0-1.22,0-3.41,0-6.83,1.11-10.14,2.15l-.79.25q-9.36,3-18.75,6l-.51-1.62q9.39-3,18.75-6l.79-.25c3.43-1.08,7-2.19,10.64-2.23.46,0,.91,0,1.35,0,4.69.33,8.87,2.57,12.34,4.73.72.44,1.44.91,2.15,1.37,15.5,10.14,30.25,21.85,44.51,33.18l.4.32c3.34,2.65,6.65,5.59,7.28,9.65.92,5.77-4.35,10.86-9.64,11.81A15.6,15.6,0,0,1,359.82,1178.34Z"/><path class="cls-10" d="M551.48,301.46s-20.11-4.67-27-.59c-5.4,3.19-15.38.59-15.38.59-3.44-2-13.67-1.38-20.35-.72a41.15,41.15,0,0,0-7.88,1.46,10.4,10.4,0,0,1-8.28-.9c-4.27-2.41,7.06,23,42.17,23s45-24.64,45-24.64A15.62,15.62,0,0,1,551.48,301.46Z"/><path class="cls-9" d="M514.76,325.13c-29.45,0-41.85-17.32-43.55-22-.18-.47-.71-1.9.12-2.61a1.36,1.36,0,0,1,1.67,0,9.56,9.56,0,0,0,7.62.83,40.59,40.59,0,0,1,8-1.49c7.49-.75,17.14-1.22,20.76.77,1.05.25,9.88,2.27,14.62-.53,7-4.14,26.17.16,27.57.48a15,15,0,0,0,7.68-1.72A.85.85,0,0,1,560.5,300C560.4,300.2,550,325.13,514.76,325.13Zm-42.05-22.81a18.18,18.18,0,0,0,3.48,5.56c4,4.68,15.64,15.55,38.57,15.55,17.82,0,28.88-6.55,35-12a39.59,39.59,0,0,0,8.12-10,14.87,14.87,0,0,1-6.5.94l-.11,0c-.19-.05-19.85-4.55-26.37-.69-5.64,3.33-15.6.79-16,.69a.67.67,0,0,1-.21-.09c-2.46-1.43-9.5-1.65-19.85-.61a39.48,39.48,0,0,0-7.71,1.42A11.14,11.14,0,0,1,472.71,302.32Z"/><path class="cls-9" d="M495.51,338.23c3.41.6,6.73,1.37,10.11,1.85a80.07,80.07,0,0,0,10.12.89,56.58,56.58,0,0,0,10.07-.76,48.38,48.38,0,0,0,9.76-2.93,30.56,30.56,0,0,1-9.48,4.23,42.16,42.16,0,0,1-10.38,1.16,53.47,53.47,0,0,1-10.34-1.29A63.24,63.24,0,0,1,495.51,338.23Z"/><path class="cls-9" d="M540.17,269.16a12.19,12.19,0,0,1-3.38,1.75,5.45,5.45,0,0,1-3.91-.11,10.29,10.29,0,0,1-3-2.54,1.53,1.53,0,0,0-.53-.39c-.08,0-.1,0-.29.14a5.6,5.6,0,0,0-.91,1.38,11.12,11.12,0,0,1-2.44,3.15,14,14,0,0,1-3.34,2.17,17.66,17.66,0,0,1-15.29,0,14.25,14.25,0,0,1-3.34-2.16,11.16,11.16,0,0,1-2.45-3.16,5.34,5.34,0,0,0-.91-1.37c-.18-.15-.21-.16-.29-.15a1.66,1.66,0,0,0-.52.39,10.14,10.14,0,0,1-3,2.54,5.47,5.47,0,0,1-3.92.11,12.33,12.33,0,0,1-3.38-1.75,14.77,14.77,0,0,0,3.49,1.31,4.78,4.78,0,0,0,3.43-.41,9.63,9.63,0,0,0,2.53-2.56,2.32,2.32,0,0,1,1-.74,1.35,1.35,0,0,1,.82,0,1.72,1.72,0,0,1,.63.34,6.22,6.22,0,0,1,1.28,1.67,11,11,0,0,0,2.26,2.67,12.39,12.39,0,0,0,3,1.82,17,17,0,0,0,14,0,12.68,12.68,0,0,0,3-1.83,10.62,10.62,0,0,0,2.27-2.67,6.22,6.22,0,0,1,1.28-1.67,1.92,1.92,0,0,1,.62-.34,1.38,1.38,0,0,1,.83,0,2.48,2.48,0,0,1,1,.74,9.61,9.61,0,0,0,2.52,2.56,4.74,4.74,0,0,0,3.43.41A14.61,14.61,0,0,0,540.17,269.16Z"/><path class="cls-9" d="M486.83,278.56c-2.4,2.58-4.69,5.07-6.78,7.75-1.07,1.32-2.07,2.69-3,4.09s-1.87,2.86-2.88,4.32a18.84,18.84,0,0,1,1.74-5,25,25,0,0,1,1.29-2.32c.51-.73,1-1.47,1.56-2.16a26.45,26.45,0,0,1,3.68-3.8A19.09,19.09,0,0,1,486.83,278.56Z"/><path class="cls-9" d="M541.73,279.56a19.21,19.21,0,0,1,4.8,2.22,27.2,27.2,0,0,1,4.19,3.23c.65.61,1.25,1.26,1.85,1.91a25.64,25.64,0,0,1,1.62,2.11,18.83,18.83,0,0,1,2.43,4.69c-1.2-1.3-2.28-2.63-3.46-3.86s-2.35-2.46-3.6-3.61C547.1,283.9,544.47,281.76,541.73,279.56Z"/><path class="cls-9" d="M502.32,213.22a30.38,30.38,0,0,1,1.89,7.46,41.41,41.41,0,0,1,.33,7.71c-.05,1.29-.22,2.57-.36,3.85a38.08,38.08,0,0,1-.75,3.8,33.1,33.1,0,0,1-2.63,7.23c.46-2.53,1-5,1.33-7.48s.6-5,.71-7.48.13-5,.05-7.52S502.61,215.77,502.32,213.22Z"/><circle class="cls-11" cx="568.32" cy="204.48" r="8.61"/><path class="cls-9" d="M568.33,213.53h-.39a9,9,0,1,1,.39,0Zm0-17.23a8.3,8.3,0,1,0,.36,0Z"/><path class="cls-9" d="M564.89,225.29a15.7,15.7,0,0,1-4.48-.36,20.52,20.52,0,0,1-8.14-3.78,15.17,15.17,0,0,1-3.16-3.19L553,220c1.28.66,2.55,1.32,3.86,1.91s2.61,1.16,3.95,1.71Z"/><path class="cls-9" d="M549.11,207.5a23.14,23.14,0,0,1,8.38-9.23A22.45,22.45,0,0,1,570,194.64a23,23,0,0,1,12.36,3.9,27.27,27.27,0,0,1,8.61,9,87.43,87.43,0,0,0-10.49-5.42,28.48,28.48,0,0,0-10.56-2.35,26.79,26.79,0,0,0-10.56,2.08A52.11,52.11,0,0,0,549.11,207.5Z"/><circle class="cls-11" cx="461.27" cy="204.48" r="8.61"/><path class="cls-9" d="M461.26,213.53a9.05,9.05,0,1,1,6.13-15.72,9.05,9.05,0,0,1-5.74,15.71Zm0-17.23h-.35a8.17,8.17,0,0,0-5.18,14.19,8.05,8.05,0,0,0,5.88,2.14,8.18,8.18,0,0,0,7.81-8.51,8.19,8.19,0,0,0-8.16-7.83Z"/><path class="cls-9" d="M464.69,225.29l4.1-1.63c1.34-.55,2.66-1.09,3.95-1.71s2.58-1.25,3.86-1.91l3.88-2.08a15.17,15.17,0,0,1-3.16,3.19,20.8,20.8,0,0,1-3.86,2.34,21.14,21.14,0,0,1-4.28,1.44A15.74,15.74,0,0,1,464.69,225.29Z"/><path class="cls-9" d="M480.48,207.5a52.11,52.11,0,0,0-10.23-5.69,26.79,26.79,0,0,0-10.56-2.08,28.48,28.48,0,0,0-10.56,2.35,88.29,88.29,0,0,0-10.5,5.42,27.21,27.21,0,0,1,8.62-9,23,23,0,0,1,12.36-3.9,22.45,22.45,0,0,1,12.49,3.63A23.14,23.14,0,0,1,480.48,207.5Z"/><path class="cls-9" d="M488.35,161.43l1.3,10.66s-45.27-7.79-61.77,7.56C427.88,179.65,427.13,158.84,488.35,161.43Z"/><path class="cls-9" d="M538.74,161.43l-1.31,10.66s45.28-7.79,61.78,7.56C599.21,179.65,600,158.84,538.74,161.43Z"/><path class="cls-9" d="M527.59,211.78c-12.79-7.94-25.38-.33-25.91,0l-1.79-2.89c.6-.37,14.87-9.06,29.49,0Z"/><path class="cls-9" d="M607.81,206.18a1.7,1.7,0,0,1-1.1-3l18.78-15.86a1.7,1.7,0,1,1,2.2,2.59l-18.78,15.87A1.7,1.7,0,0,1,607.81,206.18Z"/><path class="cls-9" d="M421.13,205.5a1.72,1.72,0,0,1-1.14-.44l-17.53-15.87a1.7,1.7,0,0,1,2.28-2.52l17.53,15.87a1.7,1.7,0,0,1-1.14,3Z"/><path class="cls-12" d="M428.41,192.77c5.11-3.55,11.58-4.32,17.77-4.87,11.54-1,23.26-1.69,34.63.55,6,1.19,12.28,3.45,16,8.37a21.76,21.76,0,0,1,3.82,10.85c1.57,14.73-7,30-20.34,36.39A49.85,49.85,0,0,1,466,248.11c-9.11,1.33-14.43,1.27-22.76-1.3-8.8-2.72-15.4-10.77-19.49-23.11C420.62,214.19,418.46,199.68,428.41,192.77Z"/><path class="cls-12" d="M600.87,192.77c-5.1-3.55-11.58-4.32-17.77-4.87-11.53-1-23.26-1.69-34.62.55-6,1.19-12.28,3.45-16,8.37a21.77,21.77,0,0,0-3.83,10.85c-1.56,14.73,7,30,20.34,36.39a49.91,49.91,0,0,0,14.25,4.05c9.11,1.33,14.43,1.27,22.76-1.3,8.79-2.72,15.39-10.77,19.49-23.11C608.67,214.19,610.83,199.68,600.87,192.77Z"/><path class="cls-9" d="M456.32,250.67a44.2,44.2,0,0,1-13.55-2.24c-9.17-2.83-16.29-11.2-20.61-24.19-2.36-7.13-6.59-24.62,5.28-32.87h0c5.35-3.71,11.84-4.56,18.59-5.17,10.69-1,23.1-1.78,35.11.58,8.08,1.6,13.64,4.55,17,9a23.16,23.16,0,0,1,4.16,11.69c1.64,15.4-7.32,31.42-21.29,38.1a51.38,51.38,0,0,1-14.74,4.2A68.62,68.62,0,0,1,456.32,250.67Zm-27.91-57.9,1,1.39c-10,6.94-6.12,22.6-4,29,3.95,11.91,10.31,19.52,18.38,22,8.4,2.6,13.58,2.48,22,1.25a47.73,47.73,0,0,0,13.76-3.91c12.72-6.07,20.87-20.66,19.38-34.67a20,20,0,0,0-3.49-10c-2.84-3.77-7.72-6.3-14.95-7.72-11.57-2.28-23.69-1.47-34.15-.53-6.27.56-12.29,1.34-16.95,4.57Z"/><path class="cls-9" d="M573,250.67a68.75,68.75,0,0,1-10-.88,51.41,51.41,0,0,1-14.73-4.2c-14-6.68-22.93-22.7-21.3-38.1a23.34,23.34,0,0,1,4.16-11.69c3.36-4.47,8.92-7.42,17-9,12-2.36,24.42-1.54,35.11-.58,6.74.61,13.24,1.46,18.58,5.17h0c11.88,8.25,7.65,25.74,5.28,32.87-4.31,13-11.44,21.36-20.6,24.19A44.2,44.2,0,0,1,573,250.67Zm-7.42-62a86.77,86.77,0,0,0-16.74,1.48c-7.23,1.42-12.12,3.95-14.95,7.72a20,20,0,0,0-3.5,10c-1.49,14,6.66,28.6,19.38,34.67a47.8,47.8,0,0,0,13.77,3.91c8.43,1.23,13.61,1.35,22-1.25,8.07-2.49,14.42-10.1,18.38-22,2.12-6.41,6-22.07-4-29-4.67-3.23-10.68-4-17-4.57C577.5,189.1,571.59,188.64,565.55,188.64Z"/></g></svg>