<svg xmlns="http://www.w3.org/2000/svg" xmlns:xlink="http://www.w3.org/1999/xlink" viewBox="0 0 133.29 126.31"><defs><style>.cls-1{fill:none;}.cls-2{isolation:isolate;}.cls-3,.cls-9{fill:#fff;}.cls-4{fill:url(#Degradado_sin_nombre_32);}.cls-5{clip-path:url(#clip-path);}.cls-6{opacity:0.25;mix-blend-mode:multiply;}.cls-7{fill:#53cffc;}.cls-8,.cls-9{font-size:85.45px;font-family:AvenirNext-Heavy, Avenir Next;font-weight:800;}.cls-8{fill:#017bd2;}</style><linearGradient id="Degradado_sin_nombre_32" x1="1523.01" y1="4403.5" x2="1639.86" y2="4403.5" gradientTransform="translate(-1514.79 -4344.6)" gradientUnits="userSpaceOnUse"><stop offset="0" stop-color="#60dfff"/><stop offset="1" stop-color="#0baaff"/></linearGradient><clipPath id="clip-path"><path class="cls-1" d="M8.22-.53H118.84a6.22,6.22,0,0,1,6.22,6.22V112.1a6.22,6.22,0,0,1-6.22,6.22H8.22a0,0,0,0,1,0,0V-.53A0,0,0,0,1,8.22-.53Z" transform="translate(125.54 -7.75) rotate(90)"/></clipPath></defs><g class="cls-2"><g id="INTERFACE"><rect class="cls-3" width="133.29" height="126.31" rx="5.82"/><path class="cls-4" d="M8.22-.53H118.84a6.22,6.22,0,0,1,6.22,6.22V112.1a6.22,6.22,0,0,1-6.22,6.22H8.22a0,0,0,0,1,0,0V-.53A0,0,0,0,1,8.22-.53Z" transform="translate(125.54 -7.75) rotate(90)"/><g class="cls-5"><g class="cls-6"><polygon class="cls-7" points="36.21 10.54 7.14 27.12 7.14 42.8 25.8 32.74 25.8 51.92 36.21 58.66 46.63 51.92 46.63 32.74 65.28 42.8 65.28 27.12 36.21 10.54"/><polygon class="cls-7" points="101.5 10.54 72.43 27.12 72.43 42.8 91.08 32.74 91.08 51.92 101.5 58.66 111.91 51.92 111.91 32.74 130.56 42.8 130.56 27.12 101.5 10.54"/></g><g class="cls-6"><polygon class="cls-7" points="3.57 49.33 -25.5 65.91 -25.5 81.6 -6.84 71.53 -6.84 90.71 3.57 97.45 13.98 90.71 13.98 71.53 32.64 81.6 32.64 65.91 3.57 49.33"/><polygon class="cls-7" points="68.85 49.33 39.78 65.91 39.78 81.6 58.44 71.53 58.44 90.71 68.85 97.45 79.27 90.71 79.27 71.53 97.92 81.6 97.92 65.91 68.85 49.33"/><polygon class="cls-7" points="134.14 49.33 105.07 65.91 105.07 81.6 123.72 71.53 123.72 90.71 134.14 97.45 144.55 90.71 144.55 71.53 163.21 81.6 163.21 65.91 134.14 49.33"/></g><g class="cls-6"><polygon class="cls-7" points="36.42 89.06 7.35 105.64 7.35 121.33 26 111.26 26 130.44 36.42 137.19 46.83 130.44 46.83 111.26 65.48 121.33 65.48 105.64 36.42 89.06"/><polygon class="cls-7" points="102.1 89.06 73.03 105.64 73.03 121.33 91.69 111.26 91.69 130.44 102.1 137.19 112.52 130.44 112.52 111.26 131.17 121.33 131.17 105.64 102.1 89.06"/></g></g><text class="cls-8" transform="translate(36.06 96.05)">C</text><text class="cls-9" transform="translate(36.06 87.88)">C</text></g></g></svg>