<?xml version="1.0" encoding="utf-8"?>
<!-- Generator: Adobe Illustrator 25.2.1, SVG Export Plug-In . SVG Version: 6.00 Build 0)  -->
<svg version="1.1" id="Capa_1" xmlns="http://www.w3.org/2000/svg" xmlns:xlink="http://www.w3.org/1999/xlink" x="0px" y="0px"
	 viewBox="0 0 133.29 126.31" style="enable-background:new 0 0 133.29 126.31;" xml:space="preserve">
<style type="text/css">
	.st0{fill:#FFFFFF;}
	.st1{fill:url(#SVGID_1_);}
	.st2{opacity:0.25;clip-path:url(#SVGID_3_);}
	.st3{fill:#53CFFC;}
	.st4{opacity:0.25;clip-path:url(#SVGID_5_);}
	.st5{opacity:0.25;clip-path:url(#SVGID_7_);}
	.st6{enable-background:new    ;}
	.st7{fill:#017BD2;}
</style>
<g id="FONDOS">
</g>
<g id="PERSONAJES">
</g>
<g id="INTERFACE">
	<g>
		<g>
			<g>
				<path class="st0" d="M127.46,126.31H5.82c-3.22,0-5.82-2.61-5.82-5.82V5.82C0,2.61,2.61,0,5.82,0h121.64
					c3.22,0,5.82,2.61,5.82,5.82v114.66C133.29,123.7,130.68,126.31,127.46,126.31z"/>
				
					<linearGradient id="SVGID_1_" gradientUnits="userSpaceOnUse" x1="827.1794" y1="-6189.874" x2="944.0295" y2="-6189.874" gradientTransform="matrix(0 1 1 0 6256.5239 -826.7095)">
					<stop  offset="0" style="stop-color:#60DFFF"/>
					<stop  offset="1" style="stop-color:#0BAAFF"/>
				</linearGradient>
				<path class="st1" d="M7.22,111.1V0.47h118.86V111.1c0,3.44-2.79,6.22-6.22,6.22H13.44C10,117.32,7.22,114.53,7.22,111.1z"/>
				<g>
					<g>
						<defs>
							<path id="SVGID_2_" d="M7.22,111.1V0.47h118.86V111.1c0,3.44-2.79,6.22-6.22,6.22H13.44C10,117.32,7.22,114.53,7.22,111.1z"
								/>
						</defs>
						<clipPath id="SVGID_3_">
							<use xlink:href="#SVGID_2_"  style="overflow:visible;"/>
						</clipPath>
						<g class="st2">
							<polygon class="st3" points="36.21,10.54 7.14,27.12 7.14,42.8 25.8,32.74 25.8,51.92 36.21,58.66 46.63,51.92 46.63,32.74 
								65.28,42.8 65.28,27.12 							"/>
							<polygon class="st3" points="101.49,10.54 72.43,27.12 72.43,42.8 91.08,32.74 91.08,51.92 101.49,58.66 111.91,51.92 
								111.91,32.74 130.56,42.8 130.56,27.12 							"/>
						</g>
					</g>
					<g>
						<defs>
							<path id="SVGID_4_" d="M7.22,111.1V0.47h118.86V111.1c0,3.44-2.79,6.22-6.22,6.22H13.44C10,117.32,7.22,114.53,7.22,111.1z"
								/>
						</defs>
						<clipPath id="SVGID_5_">
							<use xlink:href="#SVGID_4_"  style="overflow:visible;"/>
						</clipPath>
						<g class="st4">
							<polygon class="st3" points="3.57,49.33 -25.5,65.91 -25.5,81.6 -6.84,71.53 -6.84,90.71 3.57,97.45 13.98,90.71 
								13.98,71.53 32.64,81.6 32.64,65.91 							"/>
							<polygon class="st3" points="68.85,49.33 39.78,65.91 39.78,81.6 58.44,71.53 58.44,90.71 68.85,97.45 79.27,90.71 
								79.27,71.53 97.92,81.6 97.92,65.91 							"/>
							<polygon class="st3" points="134.14,49.33 105.07,65.91 105.07,81.6 123.72,71.53 123.72,90.71 134.14,97.45 144.55,90.71 
								144.55,71.53 163.2,81.6 163.2,65.91 							"/>
						</g>
					</g>
					<g>
						<defs>
							<path id="SVGID_6_" d="M7.22,111.1V0.47h118.86V111.1c0,3.44-2.79,6.22-6.22,6.22H13.44C10,117.32,7.22,114.53,7.22,111.1z"
								/>
						</defs>
						<clipPath id="SVGID_7_">
							<use xlink:href="#SVGID_6_"  style="overflow:visible;"/>
						</clipPath>
						<g class="st5">
							<polygon class="st3" points="36.42,89.07 7.35,105.65 7.35,121.33 26,111.26 26,130.44 36.42,137.19 46.83,130.44 
								46.83,111.26 65.48,121.33 65.48,105.65 							"/>
							<polygon class="st3" points="102.1,89.07 73.03,105.65 73.03,121.33 91.69,111.26 91.69,130.44 102.1,137.19 112.52,130.44 
								112.52,111.26 131.17,121.33 131.17,105.65 							"/>
						</g>
					</g>
				</g>
			</g>
		</g>
		<g>
			<g class="st6">
				<path class="st7" d="M41.7,96.05v-60.5h22.56c4.78,0,9.36,0.47,13.72,1.41c4.36,0.94,8.2,2.56,11.54,4.87
					c3.33,2.31,6,5.37,7.99,9.19c1.99,3.82,2.99,8.63,2.99,14.44c0,5.3-0.96,9.88-2.86,13.76s-4.46,7.05-7.65,9.53
					c-3.19,2.48-6.87,4.32-11.02,5.51c-4.16,1.2-8.49,1.79-12.99,1.79H41.7z M61.27,52.81v25.72h3.76c4.79,0,8.46-1.04,11.02-3.11
					s3.85-5.46,3.85-10.18c0-3.92-1.28-6.97-3.85-9.16c-2.56-2.19-5.98-3.28-10.25-3.28H61.27z"/>
			</g>
			<g>
				<g class="st6">
					<path class="st0" d="M41.7,87.88v-60.5h22.56c4.78,0,9.36,0.47,13.72,1.41c4.36,0.94,8.2,2.56,11.54,4.87
						c3.33,2.31,6,5.37,7.99,9.19c1.99,3.82,2.99,8.63,2.99,14.44c0,5.3-0.96,9.88-2.86,13.76s-4.46,7.05-7.65,9.53
						c-3.19,2.48-6.87,4.32-11.02,5.51c-4.16,1.2-8.49,1.79-12.99,1.79H41.7z M61.27,44.64v25.72h3.76c4.79,0,8.46-1.04,11.02-3.11
						s3.85-5.46,3.85-10.18c0-3.92-1.28-6.97-3.85-9.16c-2.56-2.19-5.98-3.28-10.25-3.28H61.27z"/>
				</g>
			</g>
		</g>
	</g>
</g>
<g id="_x5F_EJEMPLO">
</g>
</svg>
