<svg xmlns="http://www.w3.org/2000/svg" xmlns:xlink="http://www.w3.org/1999/xlink" viewBox="0 0 923.45 115.33"><defs><style>.cls-1{fill:url(#Degradado_sin_nombre_156);}.cls-2{font-size:71.81px;fill:#fff;font-family:AvenirNext-Heavy, Avenir Next;font-weight:800;}.cls-3{letter-spacing:-0.02em;}.cls-4{fill:none;stroke:#fff;stroke-linecap:round;stroke-linejoin:round;stroke-width:5.19px;}.cls-5{fill:#d7f7ff;}</style><linearGradient id="Degradado_sin_nombre_156" x1="462.13" y1="118.39" x2="462.13" y2="-0.99" gradientUnits="userSpaceOnUse"><stop offset="0" stop-color="#557bbd"/><stop offset="1" stop-color="#1d3763"/></linearGradient></defs><g id="INTERFACE"><path class="cls-1" d="M923.34,115.33V17.67a16.6,16.6,0,0,0-16.6-16.59H17.52A16.59,16.59,0,0,0,.93,17.67v97.66Z"/><text class="cls-2" transform="translate(73.8 82.3)">ELIGE UN<tspan class="cls-3" x="337.87" y="0">A</tspan><tspan x="392.3" y="0" xml:space="preserve"> OPCIÓN</tspan></text><path class="cls-4" d="M879.57,48h0L878,47.1,858.41,35.84h0l-10.58-6.08L816.05,48V65.93L837.3,53.76h0V64.48h0V76.32l10.49,6.46h0l10.59-6.47V64.54h0V53.76l21.16,12.17h0V48ZM858.41,64.54v0Z"/><path class="cls-5" d="M0,115.33,0,50.39V17.92A17.84,17.84,0,0,1,2,9.68,17.5,17.5,0,0,1,15.46.29C16.17.21,16.89.2,17.59.16h6.09l129.88,0L413.3.08,673.05,0,802.93.1l64.93.06,32.47,0h6.09c.68,0,1.41.06,2.12.09a18.12,18.12,0,0,1,8,2.89A16.48,16.48,0,0,1,922,9.55a14.81,14.81,0,0,1,1.33,8.12,20.73,20.73,0,0,0-2.57-7.46,18.3,18.3,0,0,0-5.26-5.57,16.17,16.17,0,0,0-7.15-2.58c-.65,0-1.27-.08-1.94-.08h-6.09L867.86,2l-64.93.05-129.88.1L413.3,2.08,153.56,2,23.68,2H17.59c-.64,0-1.28,0-1.91.12a15.67,15.67,0,0,0-12.1,8.4,15.9,15.9,0,0,0-1.74,7.4V50.39l0,64.94Z"/></g></svg>