<?xml version="1.0" encoding="utf-8"?>
<!-- Generator: Adobe Illustrator 25.2.1, SVG Export Plug-In . SVG Version: 6.00 Build 0)  -->
<svg version="1.1" id="Capa_1" xmlns="http://www.w3.org/2000/svg" xmlns:xlink="http://www.w3.org/1999/xlink" x="0px" y="0px"
	 viewBox="0 0 547.1 107.6" style="enable-background:new 0 0 547.1 107.6;" xml:space="preserve">
<style type="text/css">
	.st0{fill:#FFFFFF;}
	.st1{fill:#1E3865;}
	.st2{enable-background:new    ;}
</style>
<g id="FONDOS">
</g>
<g id="PERSONAJES">
</g>
<g id="INTERFACE">
</g>
<g id="_x5F_EJEMPLO">
	<g>
		<path class="st0" d="M385.35,0.39h-6.91H0l12.23,75.97c2.9,18.01,18.24,31.23,36.24,31.23h329.97h6.91h113.28
			c18,0,33.34-13.22,36.24-31.23L547.1,0.39H385.35z"/>
		<path class="st1" d="M358.39,0h-6.23H11.24l11.02,67.5c2.61,16,16.43,27.75,32.65,27.75h297.26h6.23h133.8
			c16.21,0,30.03-11.75,32.65-27.75L535.86,0H358.39z"/>
		<g class="st2">
			<path class="st0" d="M81.66,28.76h25.65v10.43H93.45v3.21h13.01v9.74H93.45v3.48h14.75v10.43H81.66V28.76z"/>
			<path class="st0" d="M125.63,67.1c-1.51,0-2.99-0.13-4.45-0.39c-1.46-0.26-2.86-0.65-4.21-1.15c-1.35-0.51-2.62-1.1-3.82-1.78
				c-1.19-0.68-2.26-1.44-3.21-2.28l7.64-8.3c0.88,0.95,2.04,1.79,3.5,2.53c1.46,0.74,2.96,1.11,4.5,1.11c0.7,0,1.34-0.12,1.92-0.37
				c0.58-0.25,0.87-0.7,0.87-1.37c0-0.35-0.1-0.65-0.29-0.9c-0.19-0.25-0.54-0.5-1.03-0.76c-0.49-0.26-1.17-0.55-2.03-0.87
				c-0.86-0.32-1.94-0.69-3.24-1.11c-1.26-0.42-2.48-0.92-3.63-1.5c-1.16-0.58-2.19-1.29-3.08-2.14c-0.9-0.84-1.61-1.85-2.13-3.03
				c-0.53-1.18-0.79-2.59-0.79-4.25c0-2.32,0.47-4.29,1.42-5.91c0.95-1.62,2.17-2.95,3.66-3.98c1.49-1.04,3.17-1.79,5.03-2.24
				c1.86-0.46,3.7-0.69,5.53-0.69c2.46,0,4.96,0.47,7.5,1.42c2.54,0.95,4.78,2.32,6.71,4.11l-7.79,7.95
				c-0.84-1.05-1.88-1.85-3.11-2.4c-1.23-0.54-2.33-0.82-3.32-0.82c-0.91,0-1.65,0.13-2.21,0.4c-0.56,0.26-0.84,0.69-0.84,1.29
				c0,0.56,0.29,0.98,0.87,1.26c0.58,0.28,1.52,0.63,2.82,1.05c1.33,0.42,2.74,0.91,4.21,1.47c1.47,0.56,2.83,1.29,4.08,2.18
				c1.25,0.9,2.27,1.99,3.08,3.29c0.81,1.3,1.21,2.91,1.21,4.84c0,2.25-0.45,4.2-1.34,5.87c-0.9,1.67-2.07,3.05-3.53,4.16
				c-1.46,1.11-3.1,1.93-4.92,2.48C129.39,66.83,127.52,67.1,125.63,67.1z"/>
			<path class="st0" d="M144.22,47.4c0-2.98,0.53-5.69,1.58-8.11c1.05-2.42,2.49-4.49,4.32-6.21c1.82-1.72,3.98-3.04,6.45-3.98
				c2.48-0.93,5.12-1.4,7.93-1.4c2.88,0,5.6,0.47,8.16,1.4c2.56,0.93,4.7,2.19,6.42,3.77l-7.69,9.27c-0.7-0.91-1.58-1.61-2.63-2.08
				c-1.05-0.47-2.23-0.71-3.53-0.71c-1.05,0-2.04,0.18-2.95,0.55c-0.91,0.37-1.71,0.9-2.4,1.61c-0.68,0.7-1.22,1.55-1.61,2.55
				c-0.39,1-0.58,2.12-0.58,3.34c0,1.23,0.2,2.33,0.61,3.29c0.4,0.97,0.95,1.8,1.63,2.5s1.48,1.24,2.4,1.61
				c0.91,0.37,1.88,0.55,2.9,0.55c1.44,0,2.68-0.3,3.71-0.89c1.04-0.6,1.85-1.3,2.45-2.11l7.69,9.21c-1.69,1.69-3.76,3.03-6.21,4.03
				c-2.46,1-5.25,1.5-8.37,1.5c-2.81,0-5.45-0.47-7.93-1.42c-2.48-0.95-4.63-2.29-6.45-4.03c-1.83-1.74-3.27-3.81-4.32-6.21
				C144.74,53.03,144.22,50.35,144.22,47.4z"/>
			<path class="st0" d="M180.24,47.19c0-2.98,0.53-5.68,1.58-8.08c1.05-2.4,2.5-4.45,4.34-6.13c1.84-1.69,4.03-2.98,6.56-3.9
				c2.53-0.91,5.27-1.37,8.21-1.37c2.95,0,5.69,0.46,8.22,1.37c2.53,0.91,4.72,2.21,6.58,3.9c1.86,1.68,3.32,3.73,4.37,6.13
				c1.05,2.41,1.58,5.1,1.58,8.08c0,2.98-0.53,5.71-1.58,8.16c-1.05,2.46-2.51,4.56-4.37,6.29c-1.86,1.74-4.06,3.08-6.58,4.03
				c-2.53,0.95-5.27,1.42-8.22,1.42c-2.95,0-5.69-0.47-8.21-1.42c-2.53-0.95-4.71-2.29-6.56-4.03c-1.84-1.74-3.29-3.83-4.34-6.29
				C180.76,52.9,180.24,50.18,180.24,47.19z M193.56,47.19c0,1.23,0.18,2.35,0.55,3.37c0.37,1.02,0.88,1.9,1.53,2.63
				c0.65,0.74,1.43,1.31,2.34,1.71c0.91,0.4,1.9,0.6,2.95,0.6s2.03-0.2,2.92-0.6c0.9-0.4,1.68-0.97,2.34-1.71
				c0.67-0.74,1.19-1.62,1.55-2.63c0.37-1.02,0.55-2.14,0.55-3.37c0-1.19-0.18-2.29-0.55-3.29c-0.37-1-0.89-1.84-1.55-2.53
				c-0.67-0.68-1.45-1.22-2.34-1.61c-0.9-0.39-1.87-0.58-2.92-0.58s-2.04,0.19-2.95,0.58c-0.91,0.39-1.69,0.92-2.34,1.61
				c-0.65,0.68-1.16,1.53-1.53,2.53C193.75,44.9,193.56,46,193.56,47.19z"/>
			<path class="st0" d="M245.9,66.99c-2.95,0-5.68-0.46-8.19-1.37c-2.51-0.91-4.69-2.22-6.53-3.92c-1.84-1.7-3.29-3.76-4.34-6.19
				c-1.05-2.42-1.58-5.12-1.58-8.11c0-2.98,0.53-5.69,1.58-8.11c1.05-2.42,2.49-4.49,4.32-6.21c1.82-1.72,3.97-3.04,6.42-3.98
				c2.46-0.93,5.09-1.4,7.9-1.4c2.91,0,5.68,0.47,8.29,1.42c2.61,0.95,4.75,2.25,6.4,3.9l-7.32,8.79c-0.77-0.91-1.69-1.64-2.74-2.19
				c-1.05-0.54-2.35-0.82-3.9-0.82c-1.02,0-2.01,0.2-2.98,0.61c-0.97,0.4-1.82,0.98-2.55,1.74c-0.74,0.75-1.33,1.66-1.79,2.71
				c-0.46,1.05-0.68,2.23-0.68,3.53c0,2.6,0.68,4.71,2.03,6.35c1.35,1.63,3.52,2.45,6.5,2.45c0.53,0,1.07-0.04,1.63-0.13
				c0.56-0.09,1-0.22,1.32-0.39v-2.84h-6v-9.85h17.11v20.38c-0.88,0.53-1.89,1.01-3.03,1.45c-1.14,0.44-2.35,0.82-3.63,1.13
				c-1.28,0.32-2.62,0.57-4.03,0.76C248.71,66.9,247.31,66.99,245.9,66.99z"/>
			<path class="st0" d="M267.07,28.76h25.65v10.43h-13.85v3.21h13.01v9.74h-13.01v3.48h14.75v10.43h-26.54V28.76z"/>
			<path class="st0" d="M311.99,28.76h12.48l10.64,18.9h0.21l-0.53-18.9h11.9v37.28h-12.8l-10.32-17.8h-0.21l0.53,17.8h-11.9V28.76z
				"/>
			<path class="st0" d="M353.65,28.76h12.64v37.28h-12.64V28.76z"/>
			<path class="st0" d="M368.92,28.76h14.17l6.16,23.06h0.21l5.9-23.06h14.17l-13.48,37.28h-13.9L368.92,28.76z"/>
			<path class="st0" d="M412.15,28.76h25.64v10.43h-13.85v3.21h13.01v9.74h-13.01v3.48h14.75v10.43h-26.54V28.76z"/>
			<path class="st0" d="M443.91,28.76h12.64v26.49h12.38v10.79h-25.01V28.76z"/>
		</g>
	</g>
</g>
</svg>
