<?xml version="1.0" encoding="utf-8"?>
<!-- Generator: Adobe Illustrator 25.2.3, SVG Export Plug-In . SVG Version: 6.00 Build 0)  -->
<svg version="1.1" xmlns="http://www.w3.org/2000/svg" xmlns:xlink="http://www.w3.org/1999/xlink" x="0px" y="0px"
	 viewBox="0 0 923.45 115.33" style="enable-background:new 0 0 923.45 115.33;" xml:space="preserve">
<style type="text/css">
	.st0{clip-path:url(#XMLID_3_);}
	.st1{opacity:0.25;clip-path:url(#SVGID_2_);}
	.st2{fill:#F6D968;}
	.st3{fill:#B98601;}
	.st4{fill:#FFFFFF;}
	.st5{clip-path:url(#XMLID_5_);}
	.st6{opacity:0.25;clip-path:url(#SVGID_4_);}
	.st7{clip-path:url(#XMLID_7_);}
	.st8{opacity:0.25;clip-path:url(#SVGID_6_);}
	.st9{opacity:0.25;clip-path:url(#XMLID_10_);}
	.st10{opacity:0.25;clip-path:url(#XMLID_12_);}
	.st11{opacity:0.25;clip-path:url(#XMLID_14_);}
	.st12{fill:url(#SVGID_7_);}
	.st13{fill:url(#SVGID_8_);}
	.st14{fill:url(#SVGID_9_);}
	.st15{fill:url(#SVGID_10_);}
	.st16{opacity:0.7;fill:#60DFFF;}
	.st17{fill:url(#SVGID_11_);}
	.st18{fill:#D7F7FF;}
	.st19{fill:url(#SVGID_12_);}
	.st20{fill:url(#SVGID_13_);}
	.st21{opacity:0.25;clip-path:url(#SVGID_15_);}
	.st22{fill:#53CFFC;}
	.st23{fill:#017BD2;}
	.st24{fill:url(#SVGID_16_);}
	.st25{opacity:0.25;}
	.st26{clip-path:url(#SVGID_18_);}
	.st27{fill:url(#SVGID_19_);}
	.st28{opacity:0.25;clip-path:url(#SVGID_21_);}
	.st29{fill:url(#SVGID_22_);}
	.st30{clip-path:url(#SVGID_24_);}
	.st31{fill:url(#SVGID_25_);}
	.st32{opacity:0.25;clip-path:url(#SVGID_27_);}
	.st33{fill:url(#SVGID_28_);}
	.st34{clip-path:url(#SVGID_30_);}
	.st35{fill:url(#SVGID_31_);}
	.st36{opacity:0.25;clip-path:url(#SVGID_33_);}
	.st37{fill:url(#SVGID_34_);}
	.st38{clip-path:url(#SVGID_36_);}
	.st39{fill:#60DFFF;}
	.st40{fill:url(#SVGID_37_);}
	.st41{opacity:0.25;clip-path:url(#SVGID_39_);}
	.st42{fill:url(#SVGID_40_);}
	.st43{opacity:0.25;clip-path:url(#SVGID_42_);}
	.st44{fill:url(#SVGID_43_);}
	.st45{fill:#1E3865;}
</style>
<g id="FONDOS">
</g>
<g id="PERSONAJES">
</g>
<g id="INTERFACE">
	<g>
		<g>
			<linearGradient id="SVGID_2_" gradientUnits="userSpaceOnUse" x1="462.1314" y1="118.3927" x2="462.1314" y2="-0.9885">
				<stop  offset="0" style="stop-color:#557BBD"/>
				<stop  offset="1" style="stop-color:#1D3763"/>
			</linearGradient>
			<path style="fill:url(#SVGID_2_);" d="M923.34,115.33V17.67c0-9.16-7.43-16.59-16.59-16.59H17.52c-9.16,0-16.59,7.43-16.59,16.59
				v97.65H923.34z"/>
		</g>
		<g>
			<g>
				<g>
					<path class="st4" d="M78.54,31.46h34.97v14.22H94.63v4.38h17.74v13.29H94.63v4.74h20.11V82.3H78.54V31.46z"/>
					<path class="st4" d="M121.84,31.46h17.23v36.12h16.88V82.3h-34.11V31.46z"/>
					<path class="st4" d="M161.27,31.46h17.23V82.3h-17.23V31.46z"/>
					<path class="st4" d="M213.83,83.59c-4.02,0-7.74-0.62-11.17-1.87c-3.42-1.24-6.39-3.03-8.9-5.35
						c-2.51-2.32-4.49-5.13-5.92-8.44c-1.44-3.3-2.15-6.99-2.15-11.06c0-4.07,0.72-7.76,2.15-11.06c1.44-3.3,3.4-6.13,5.89-8.47
						c2.49-2.35,5.41-4.15,8.76-5.42c3.35-1.27,6.94-1.9,10.77-1.9c3.97,0,7.74,0.65,11.31,1.94c3.57,1.29,6.47,3.06,8.73,5.31
						l-9.98,11.99c-1.05-1.24-2.3-2.24-3.73-2.98c-1.44-0.74-3.21-1.11-5.31-1.11c-1.39,0-2.74,0.28-4.06,0.83
						c-1.32,0.55-2.48,1.34-3.48,2.37c-1.01,1.03-1.82,2.26-2.44,3.7c-0.62,1.44-0.93,3.04-0.93,4.81c0,3.54,0.92,6.43,2.76,8.65
						c1.84,2.23,4.8,3.34,8.87,3.34c0.72,0,1.46-0.06,2.23-0.18c0.77-0.12,1.36-0.3,1.8-0.54v-3.88h-8.19V50.85h23.34v27.79
						c-1.2,0.72-2.57,1.38-4.13,1.98c-1.56,0.6-3.21,1.11-4.96,1.54c-1.75,0.43-3.58,0.78-5.49,1.04
						C217.66,83.46,215.75,83.59,213.83,83.59z"/>
					<path class="st4" d="M242.7,31.46h34.97v14.22h-18.89v4.38h17.74v13.29h-17.74v4.74h20.11V82.3H242.7V31.46z"/>
					<path class="st4" d="M326.79,83.74c-3.97,0-7.43-0.55-10.38-1.65s-5.4-2.61-7.36-4.52c-1.96-1.91-3.42-4.18-4.38-6.79
						c-0.96-2.61-1.44-5.42-1.44-8.44V31.46h17.09v29.01c0,2.44,0.59,4.34,1.76,5.71c1.17,1.36,2.84,2.05,4.99,2.05
						s3.82-0.68,4.99-2.05c1.17-1.36,1.76-3.27,1.76-5.71V31.46h17.02v30.88c0,3.02-0.52,5.83-1.54,8.44
						c-1.03,2.61-2.55,4.87-4.56,6.79c-2.01,1.92-4.51,3.42-7.5,4.52C334.25,83.18,330.77,83.74,326.79,83.74z"/>
					<path class="st4" d="M359.61,31.46h17.02l14.51,25.78h0.29l-0.72-25.78h16.23V82.3h-17.45l-14.08-24.27h-0.29l0.72,24.27
						h-16.23V31.46z"/>
					<path class="st4" d="M430.56,31.46h18.17l19.82,50.84h-18.6l-2.66-7.47h-16.16l-2.51,7.47h-18.1L430.56,31.46z M439.39,49.19
						l-4.17,12.57h8.26L439.39,49.19z"/>
					<path class="st4" d="M486.5,56.59c0-4.07,0.72-7.74,2.15-11.02c1.44-3.28,3.41-6.07,5.92-8.37c2.51-2.3,5.49-4.07,8.94-5.31
						c3.45-1.24,7.18-1.87,11.2-1.87c4.02,0,7.76,0.62,11.2,1.87c3.45,1.25,6.44,3.02,8.98,5.31c2.54,2.3,4.52,5.09,5.96,8.37
						c1.44,3.28,2.15,6.95,2.15,11.02c0,4.07-0.72,7.78-2.15,11.13c-1.44,3.35-3.42,6.21-5.96,8.58c-2.54,2.37-5.53,4.2-8.98,5.49
						s-7.18,1.94-11.2,1.94c-4.02,0-7.76-0.65-11.2-1.94s-6.43-3.12-8.94-5.49c-2.51-2.37-4.49-5.23-5.92-8.58
						C487.22,64.37,486.5,60.66,486.5,56.59z M504.67,56.59c0,1.68,0.25,3.21,0.75,4.6c0.5,1.39,1.2,2.59,2.08,3.59
						c0.89,1.01,1.95,1.78,3.2,2.33c1.24,0.55,2.59,0.83,4.02,0.83s2.76-0.28,3.99-0.83c1.22-0.55,2.29-1.33,3.2-2.33
						c0.91-1,1.62-2.2,2.12-3.59c0.5-1.39,0.75-2.92,0.75-4.6c0-1.63-0.25-3.12-0.75-4.49c-0.5-1.36-1.21-2.51-2.12-3.45
						c-0.91-0.93-1.97-1.66-3.2-2.19c-1.22-0.53-2.55-0.79-3.99-0.79s-2.78,0.26-4.02,0.79c-1.25,0.53-2.31,1.26-3.2,2.19
						c-0.89,0.93-1.58,2.08-2.08,3.45C504.92,53.47,504.67,54.96,504.67,56.59z"/>
					<path class="st4" d="M567.22,65.93V82.3H550.2V31.46h21.83c2.59,0,5.12,0.28,7.61,0.83c2.49,0.55,4.72,1.48,6.68,2.8
						c1.96,1.32,3.54,3.06,4.74,5.24c1.2,2.18,1.79,4.92,1.79,8.22c0,3.16-0.59,5.84-1.76,8.04c-1.17,2.2-2.73,4-4.67,5.39
						c-1.94,1.39-4.17,2.39-6.68,3.02c-2.51,0.62-5.09,0.93-7.72,0.93H567.22z M567.22,44.74v8.19h3.59c1.29,0,2.48-0.32,3.55-0.97
						s1.62-1.73,1.62-3.27c0-0.81-0.14-1.47-0.43-1.97c-0.29-0.5-0.68-0.9-1.18-1.18c-0.5-0.29-1.07-0.49-1.69-0.61
						c-0.62-0.12-1.25-0.18-1.87-0.18H567.22z"/>
					<path class="st4" d="M597.02,56.88c0-4.07,0.72-7.76,2.15-11.06c1.44-3.3,3.4-6.13,5.89-8.47c2.49-2.35,5.42-4.15,8.8-5.42
						c3.38-1.27,6.98-1.9,10.81-1.9c3.93,0,7.64,0.64,11.13,1.9c3.49,1.27,6.42,2.98,8.76,5.13L634.07,49.7
						c-0.96-1.24-2.15-2.19-3.59-2.84c-1.44-0.65-3.04-0.97-4.81-0.97c-1.44,0-2.78,0.25-4.02,0.75c-1.25,0.5-2.33,1.23-3.27,2.19
						c-0.93,0.96-1.66,2.12-2.19,3.48c-0.53,1.36-0.79,2.88-0.79,4.56c0,1.68,0.27,3.17,0.83,4.49c0.55,1.32,1.29,2.45,2.23,3.41
						c0.93,0.96,2.02,1.69,3.27,2.19c1.24,0.5,2.56,0.75,3.95,0.75c1.96,0,3.65-0.41,5.06-1.22c1.41-0.81,2.52-1.77,3.34-2.87
						l10.48,12.57c-2.3,2.3-5.12,4.13-8.47,5.49c-3.35,1.36-7.16,2.05-11.42,2.05c-3.83,0-7.43-0.65-10.81-1.94
						c-3.38-1.29-6.31-3.12-8.8-5.49c-2.49-2.37-4.45-5.19-5.89-8.47C597.74,64.55,597.02,60.9,597.02,56.88z"/>
					<path class="st4" d="M649.3,31.46h17.23V82.3H649.3V31.46z"/>
					<path class="st4" d="M673.71,56.59c0-4.07,0.72-7.74,2.15-11.02c1.44-3.28,3.41-6.07,5.92-8.37c2.51-2.3,5.49-4.07,8.94-5.31
						c3.45-1.24,7.18-1.87,11.2-1.87s7.76,0.62,11.2,1.87c3.45,1.25,6.44,3.02,8.98,5.31c2.54,2.3,4.52,5.09,5.96,8.37
						c1.44,3.28,2.15,6.95,2.15,11.02c0,4.07-0.72,7.78-2.15,11.13c-1.44,3.35-3.42,6.21-5.96,8.58c-2.54,2.37-5.53,4.2-8.98,5.49
						s-7.18,1.94-11.2,1.94s-7.76-0.65-11.2-1.94s-6.43-3.12-8.94-5.49c-2.51-2.37-4.49-5.23-5.92-8.58
						C674.43,64.37,673.71,60.66,673.71,56.59z M691.88,56.59c0,1.68,0.25,3.21,0.75,4.6c0.5,1.39,1.2,2.59,2.08,3.59
						c0.89,1.01,1.95,1.78,3.2,2.33c1.24,0.55,2.59,0.83,4.02,0.83s2.76-0.28,3.99-0.83c1.22-0.55,2.29-1.33,3.2-2.33
						c0.91-1,1.62-2.2,2.12-3.59c0.5-1.39,0.75-2.92,0.75-4.6c0-1.63-0.25-3.12-0.75-4.49c-0.5-1.36-1.21-2.51-2.12-3.45
						c-0.91-0.93-1.97-1.66-3.2-2.19c-1.22-0.53-2.55-0.79-3.99-0.79s-2.78,0.26-4.02,0.79c-1.25,0.53-2.31,1.26-3.2,2.19
						c-0.89,0.93-1.58,2.08-2.08,3.45C692.13,53.47,691.88,54.96,691.88,56.59z M694.18,27.43l7.97-10.34h15.22l-11.06,10.34H694.18
						z"/>
					<path class="st4" d="M737.41,31.46h17.02l14.51,25.78h0.29l-0.72-25.78h16.23V82.3h-17.45l-14.08-24.27h-0.29l0.72,24.27
						h-16.23V31.46z"/>
				</g>
			</g>
		</g>
	</g>
	<g>
		<path class="st18" d="M0,115.33l0.02-64.94L0.02,17.92c-0.04-2.83,0.65-5.7,1.94-8.24C3.23,7.12,5.22,4.96,7.54,3.3
			c2.34-1.64,5.1-2.65,7.93-3.01c0.71-0.09,1.43-0.09,2.13-0.13l2.03,0l4.06,0l129.87-0.03L413.3,0.08L673.05,0l129.87,0.1
			l64.94,0.05l32.47,0.03l4.06,0l2.03,0c0.68,0,1.41,0.06,2.12,0.09c2.84,0.31,5.59,1.32,7.96,2.89c2.34,1.62,4.29,3.82,5.51,6.37
			c1.2,2.55,1.69,5.42,1.33,8.13c-0.4-2.7-1.26-5.23-2.57-7.47c-1.34-2.22-3.15-4.12-5.26-5.57c-2.14-1.41-4.61-2.31-7.15-2.58
			c-0.65-0.02-1.26-0.08-1.94-0.08l-2.03,0l-4.06,0l-32.47,0.03l-64.94,0.05l-129.87,0.1L413.3,2.08L153.56,2.03L23.68,2l-4.06,0
			l-2.03,0c-0.65,0.04-1.28,0.04-1.92,0.12c-2.53,0.32-5,1.22-7.1,2.69c-2.07,1.48-3.86,3.42-5,5.71c-1.15,2.28-1.78,4.81-1.74,7.4
			L1.83,50.39l0.02,64.94H0z"/>
	</g>
	<g>
		<g>
			<g>
				<g>
					<path class="st4" d="M849.22,81.67c-0.33,0-0.66-0.09-0.96-0.26l-10.18-5.85c-0.6-0.34-0.97-0.98-0.97-1.67
						s0.37-1.33,0.97-1.67l10.15-5.84c0.51-0.29,1.11-0.33,1.64-0.13c0.1,0.04,0.2,0.08,0.3,0.14l10.16,5.84
						c0.6,0.34,0.97,0.98,0.97,1.67c0,0.69-0.37,1.33-0.97,1.67l-10.16,5.84C849.88,81.59,849.55,81.67,849.22,81.67z M842.9,73.9
						l6.32,3.63l6.29-3.62l-6.32-3.63L842.9,73.9z"/>
				</g>
			</g>
			<g>
				<g>
					<path class="st4" d="M849.19,101.19c-0.33,0-0.66-0.08-0.95-0.25l-28.49-16.38c-0.92-0.53-1.24-1.71-0.71-2.63
						c0.53-0.92,1.71-1.24,2.63-0.71l28.51,16.37c0.59,0.34,0.95,0.96,0.97,1.64c0.01,0.68-0.34,1.31-0.91,1.67
						C849.91,101.09,849.55,101.19,849.19,101.19z"/>
				</g>
			</g>
			<g>
				<g>
					<path class="st4" d="M861.28,53.56c-0.32,0-0.65-0.08-0.96-0.26l-1.89-1.09c-0.62-0.36-0.97-1-0.97-1.67
						c0-0.33,0.08-0.66,0.26-0.96c0.53-0.92,1.7-1.24,2.63-0.71l1.89,1.09c0.62,0.36,0.97,1,0.97,1.67c0,0.33-0.08,0.66-0.26,0.96
						C862.6,53.21,861.95,53.56,861.28,53.56z"/>
				</g>
			</g>
			<g>
				<g>
					<path class="st4" d="M818.71,83.67c-1.06,0-1.92-0.86-1.92-1.92V62.22c0-0.69,0.37-1.32,0.96-1.67c0,0,0,0,0,0l20.41-11.73
						c0.92-0.53,2.1-0.21,2.63,0.71c0.17,0.3,0.26,0.63,0.26,0.96c0,0.67-0.35,1.31-0.97,1.67l-19.44,11.18v18.41
						C820.63,82.8,819.77,83.67,818.71,83.67z"/>
				</g>
			</g>
			<g>
				<g>
					<path class="st4" d="M839.04,75.83c-0.33,0-0.66-0.09-0.96-0.26l-20.33-11.68c-0.6-0.34-0.97-0.98-0.97-1.67
						c0-0.69,0.37-1.33,0.97-1.67l20.41-11.73c0.6-0.34,1.33-0.34,1.92,0c0.59,0.34,0.96,0.98,0.96,1.67v10.3l9.16,5.64
						c0.58,0.36,0.93,0.99,0.92,1.67s-0.38,1.3-0.97,1.64L840,75.57C839.7,75.74,839.37,75.83,839.04,75.83z M822.57,62.22
						l16.47,9.46l6.39-3.67l-7.32-4.51c-0.57-0.35-0.92-0.97-0.92-1.64v-8.05L822.57,62.22z"/>
				</g>
			</g>
			<g>
				<g>
					<path class="st4" d="M859.38,75.84c-0.33,0-0.66-0.09-0.96-0.26l-10.16-5.84c-0.59-0.34-0.96-0.96-0.97-1.64
						c-0.01-0.68,0.34-1.31,0.92-1.67l9.25-5.65l0-10.23c0-0.69,0.37-1.32,0.96-1.67c0.59-0.34,1.33-0.34,1.92,0l20.32,11.67
						c0.6,0.34,0.97,0.98,0.97,1.67c0,0.69-0.37,1.33-0.97,1.67l-20.33,11.69C860.04,75.75,859.71,75.84,859.38,75.84z
						 M852.99,68.02l6.38,3.67l16.47-9.47l-14.53-8.35l0,7.99c0,0.67-0.35,1.29-0.92,1.64L852.99,68.02z M859.39,61.86L859.39,61.86
						L859.39,61.86z"/>
				</g>
			</g>
			<g>
				<g>
					<path class="st4" d="M849.22,101.2c-0.33,0-0.67-0.09-0.96-0.26c-0.59-0.34-0.96-0.98-0.96-1.67V79.75
						c0-0.69,0.37-1.33,0.97-1.67l30.49-17.53c0.6-0.34,1.33-0.34,1.92,0c0.59,0.34,0.96,0.98,0.96,1.67v19.52
						c0,0.69-0.37,1.33-0.97,1.67l-30.49,17.53C849.88,101.11,849.55,101.2,849.22,101.2z M851.15,80.86v15.08l26.64-15.32V65.55
						l-17.45,10.03l0,0L851.15,80.86z M859.38,73.91L859.38,73.91L859.38,73.91z"/>
				</g>
			</g>
			<g>
				<g>
					<path class="st4" d="M849.22,101.2c-0.32,0-0.65-0.08-0.94-0.24l-30.53-17.54c-0.6-0.34-0.97-0.98-0.97-1.67V62.22
						c0-0.69,0.37-1.32,0.96-1.67c0.6-0.34,1.33-0.35,1.92,0l30.52,17.53c0.6,0.34,0.97,0.98,0.97,1.67v19.52
						c0,0.68-0.36,1.31-0.95,1.66C849.9,101.11,849.56,101.2,849.22,101.2z M820.63,80.63l26.67,15.32V80.86l-26.67-15.32V80.63z"/>
				</g>
			</g>
			<g>
				<g>
					<path class="st4" d="M849.21,70c-0.35,0-0.69-0.09-1-0.28L838.1,63.5c-0.57-0.35-0.92-0.97-0.92-1.64V43.52l-17.52,10.04
						c-0.6,0.34-1.33,0.34-1.92,0c-0.59-0.34-0.96-0.98-0.96-1.67l0-17.21c0-0.69,0.37-1.33,0.97-1.67l30.52-17.53
						c0.59-0.34,1.32-0.34,1.92,0l10.08,5.79c0.03,0.02,0.06,0.03,0.09,0.05L880.68,33c0.6,0.34,0.97,0.98,0.97,1.67v17.21
						c0,0.69-0.37,1.32-0.96,1.67s-1.33,0.34-1.92,0l-17.44-10.03l0,18.34c0,0.67-0.35,1.29-0.92,1.64l-10.17,6.22
						C849.91,69.91,849.56,70,849.21,70z M841.04,60.78l8.18,5.04l8.25-5.04l0-10.23l0,0l0-10.35c0,0,0,0,0,0c0,0,0,0,0,0
						c0,0,0,0,0,0c0,0,0,0,0,0c0-0.46,0.17-0.88,0.44-1.21c0,0,0,0,0,0c0,0,0,0,0,0c0.08-0.1,0.18-0.19,0.28-0.28
						c0.33-0.26,0.75-0.42,1.2-0.42c0,0,0,0,0,0c0.36,0,0.7,0.1,0.99,0.27l17.41,10.01l0-12.77L858.52,24.7
						c-0.03-0.01-0.06-0.03-0.09-0.05l-9.21-5.29l-28.59,16.42l0,12.78l17.52-10.04c0.6-0.34,1.33-0.34,1.92,0.01
						c0.59,0.34,0.96,0.98,0.96,1.66V60.78z"/>
				</g>
			</g>
		</g>
	</g>
</g>
</svg>
