<?xml version="1.0" encoding="utf-8"?>
<!-- Generator: Adobe Illustrator 25.2.3, SVG Export Plug-In . SVG Version: 6.00 Build 0)  -->
<svg version="1.1" xmlns="http://www.w3.org/2000/svg" xmlns:xlink="http://www.w3.org/1999/xlink" x="0px" y="0px"
	 viewBox="0 0 518.81 138.23" style="enable-background:new 0 0 518.81 138.23;" xml:space="preserve">
<style type="text/css">
	.st0{clip-path:url(#XMLID_3_);}
	.st1{opacity:0.25;clip-path:url(#SVGID_2_);}
	.st2{fill:#F6D968;}
	.st3{fill:#B98601;}
	.st4{fill:#FFFFFF;}
	.st5{clip-path:url(#XMLID_5_);}
	.st6{opacity:0.25;clip-path:url(#SVGID_4_);}
	.st7{clip-path:url(#XMLID_7_);}
	.st8{opacity:0.25;clip-path:url(#SVGID_6_);}
	.st9{opacity:0.25;clip-path:url(#XMLID_10_);}
	.st10{opacity:0.25;clip-path:url(#XMLID_12_);}
	.st11{opacity:0.25;clip-path:url(#XMLID_14_);}
	.st12{fill:url(#SVGID_7_);}
	.st13{fill:url(#SVGID_8_);}
	.st14{fill:url(#SVGID_9_);}
	.st15{fill:url(#SVGID_10_);}
	.st16{opacity:0.7;fill:#60DFFF;}
	.st17{fill:url(#SVGID_11_);}
	.st18{fill:#D7F7FF;}
	.st19{fill:url(#SVGID_12_);}
	.st20{fill:url(#SVGID_13_);}
	.st21{opacity:0.25;clip-path:url(#SVGID_15_);}
	.st22{fill:#53CFFC;}
	.st23{fill:#017BD2;}
	.st24{fill:url(#SVGID_16_);}
	.st25{opacity:0.25;}
	.st26{clip-path:url(#SVGID_18_);}
	.st27{fill:url(#SVGID_19_);}
	.st28{opacity:0.25;clip-path:url(#SVGID_21_);}
	.st29{fill:url(#SVGID_22_);}
	.st30{clip-path:url(#SVGID_24_);}
	.st31{fill:url(#SVGID_25_);}
	.st32{opacity:0.25;clip-path:url(#SVGID_27_);}
	.st33{fill:url(#SVGID_28_);}
	.st34{clip-path:url(#SVGID_30_);}
	.st35{fill:url(#SVGID_31_);}
	.st36{opacity:0.25;clip-path:url(#SVGID_33_);}
	.st37{fill:url(#SVGID_34_);}
	.st38{clip-path:url(#SVGID_36_);}
	.st39{fill:#60DFFF;}
	.st40{fill:url(#SVGID_37_);}
	.st41{opacity:0.25;clip-path:url(#SVGID_39_);}
	.st42{fill:url(#SVGID_40_);}
	.st43{opacity:0.25;clip-path:url(#SVGID_42_);}
	.st44{fill:url(#SVGID_43_);}
	.st45{fill:#1E3865;}
</style>
<g id="FONDOS">
</g>
<g id="PERSONAJES">
</g>
<g id="INTERFACE">
	<g>
		<path class="st4" d="M365.42,0.5h-6.55H0l11.6,97.61c2.75,23.14,17.3,40.13,34.36,40.13h312.9h6.55h107.42
			c17.06,0,31.61-16.99,34.36-40.13l11.6-97.61H365.42z"/>
		<g>
			<linearGradient id="SVGID_2_" gradientUnits="userSpaceOnUse" x1="259.4043" y1="0" x2="259.4043" y2="122.3704">
				<stop  offset="0" style="stop-color:#557BBD"/>
				<stop  offset="1" style="stop-color:#1D3763"/>
			</linearGradient>
			<path style="fill:url(#SVGID_2_);" d="M337.32,0h-5.72H18.5l10.12,86.72c2.4,20.56,15.09,35.65,29.98,35.65h273h5.72h122.88
				c14.89,0,27.58-15.09,29.98-35.65L500.31,0H337.32z"/>
		</g>
		<g>
			<path class="st4" d="M82.49,57.79l0.74,27.06H68.21v-47.9h21.06l8.67,25.78h0.34l7.52-25.78h21.74v47.9h-15.7l0.47-26.93
				l-0.41-0.07l-8.93,26.99H91.62l-8.79-27.06H82.49z"/>
			<path class="st4" d="M134.24,60.63c0-3.83,0.68-7.29,2.03-10.39c1.35-3.09,3.21-5.72,5.58-7.88c2.37-2.17,5.18-3.83,8.42-5.01
				c3.25-1.17,6.77-1.76,10.55-1.76c3.79,0,7.31,0.59,10.55,1.76c3.25,1.17,6.07,2.84,8.46,5.01c2.39,2.17,4.26,4.79,5.62,7.88
				c1.35,3.09,2.03,6.55,2.03,10.39c0,3.83-0.68,7.33-2.03,10.49c-1.35,3.16-3.23,5.85-5.62,8.08c-2.39,2.23-5.21,3.96-8.46,5.18
				c-3.25,1.22-6.77,1.83-10.55,1.83c-3.79,0-7.31-0.61-10.55-1.83c-3.25-1.22-6.06-2.94-8.42-5.18c-2.37-2.23-4.23-4.93-5.58-8.08
				C134.92,67.96,134.24,64.47,134.24,60.63z M151.36,60.63c0,1.58,0.24,3.02,0.71,4.33c0.47,1.31,1.13,2.44,1.96,3.38
				c0.83,0.95,1.84,1.68,3.01,2.2c1.17,0.52,2.44,0.78,3.79,0.78c1.35,0,2.6-0.26,3.75-0.78c1.15-0.52,2.15-1.25,3.01-2.2
				c0.86-0.95,1.52-2.07,2-3.38c0.47-1.31,0.71-2.75,0.71-4.33c0-1.53-0.24-2.94-0.71-4.23c-0.47-1.29-1.14-2.37-2-3.25
				c-0.86-0.88-1.86-1.57-3.01-2.06c-1.15-0.5-2.4-0.74-3.75-0.74c-1.35,0-2.62,0.25-3.79,0.74c-1.17,0.5-2.18,1.18-3.01,2.06
				c-0.83,0.88-1.49,1.96-1.96,3.25C151.6,57.69,151.36,59.1,151.36,60.63z M153.52,33.17l7.51-9.74h14.34l-10.42,9.74H153.52z"/>
			<path class="st4" d="M194.25,84.85v-47.9h17.86c3.79,0,7.41,0.37,10.86,1.12c3.45,0.74,6.5,2.03,9.13,3.86s4.75,4.25,6.33,7.27
				c1.58,3.02,2.37,6.83,2.37,11.43c0,4.19-0.76,7.83-2.27,10.89c-1.51,3.07-3.53,5.58-6.06,7.54c-2.53,1.96-5.44,3.42-8.73,4.36
				c-3.29,0.95-6.72,1.42-10.28,1.42H194.25z M209.74,50.62v20.36h2.98c3.79,0,6.7-0.82,8.73-2.46c2.03-1.64,3.04-4.33,3.04-8.06
				c0-3.1-1.01-5.52-3.04-7.25c-2.03-1.73-4.74-2.6-8.12-2.6H209.74z"/>
			<path class="st4" d="M269.08,86.21c-3.74,0-7-0.52-9.78-1.56c-2.77-1.04-5.08-2.46-6.93-4.26c-1.85-1.8-3.22-3.93-4.13-6.39
				c-0.9-2.46-1.35-5.11-1.35-7.95V36.95h16.1v27.33c0,2.3,0.55,4.09,1.66,5.38c1.11,1.29,2.67,1.93,4.7,1.93
				c2.03,0,3.6-0.64,4.7-1.93c1.1-1.29,1.66-3.08,1.66-5.38V36.95h16.03v29.09c0,2.84-0.49,5.49-1.46,7.95
				c-0.97,2.46-2.4,4.59-4.3,6.39c-1.89,1.8-4.25,3.23-7.07,4.26C276.1,85.69,272.82,86.21,269.08,86.21z"/>
			<path class="st4" d="M300,36.95h16.24v34.03h15.9v13.87H300V36.95z"/>
			<path class="st4" d="M332.94,60.63c0-3.83,0.68-7.29,2.03-10.39c1.35-3.09,3.21-5.72,5.58-7.88c2.37-2.17,5.18-3.83,8.42-5.01
				c3.25-1.17,6.77-1.76,10.55-1.76c3.79,0,7.31,0.59,10.55,1.76c3.25,1.17,6.07,2.84,8.46,5.01c2.39,2.17,4.26,4.79,5.62,7.88
				c1.35,3.09,2.03,6.55,2.03,10.39c0,3.83-0.68,7.33-2.03,10.49c-1.35,3.16-3.23,5.85-5.62,8.08c-2.39,2.23-5.21,3.96-8.46,5.18
				c-3.25,1.22-6.77,1.83-10.55,1.83c-3.79,0-7.31-0.61-10.55-1.83c-3.25-1.22-6.06-2.94-8.42-5.18c-2.37-2.23-4.23-4.93-5.58-8.08
				C333.62,67.96,332.94,64.47,332.94,60.63z M350.06,60.63c0,1.58,0.24,3.02,0.71,4.33c0.47,1.31,1.13,2.44,1.96,3.38
				c0.83,0.95,1.84,1.68,3.01,2.2c1.17,0.52,2.44,0.78,3.79,0.78c1.35,0,2.6-0.26,3.75-0.78c1.15-0.52,2.15-1.25,3.01-2.2
				c0.86-0.95,1.52-2.07,2-3.38c0.47-1.31,0.71-2.75,0.71-4.33c0-1.53-0.24-2.94-0.71-4.23c-0.47-1.29-1.14-2.37-2-3.25
				c-0.86-0.88-1.86-1.57-3.01-2.06c-1.15-0.5-2.4-0.74-3.75-0.74c-1.35,0-2.62,0.25-3.79,0.74c-1.17,0.5-2.18,1.18-3.01,2.06
				c-0.83,0.88-1.49,1.96-1.96,3.25C350.3,57.69,350.06,59.1,350.06,60.63z"/>
			<path class="st4" d="M424.89,54l-8.05,5.55l-7.58-11.77l16.98-10.82h14.88v47.9h-16.24V54z"/>
		</g>
	</g>
</g>
</svg>
