<?xml version="1.0" encoding="utf-8"?>
<!-- Generator: Adobe Illustrator 25.2.3, SVG Export Plug-In . SVG Version: 6.00 Build 0)  -->
<svg version="1.1" xmlns="http://www.w3.org/2000/svg" xmlns:xlink="http://www.w3.org/1999/xlink" x="0px" y="0px"
	 viewBox="0 0 420.81 121" style="enable-background:new 0 0 420.81 121;" xml:space="preserve">
<style type="text/css">
	.st0{clip-path:url(#XMLID_3_);}
	.st1{opacity:0.25;clip-path:url(#SVGID_2_);}
	.st2{fill:#F6D968;}
	.st3{fill:#B98601;}
	.st4{fill:#FFFFFF;}
	.st5{clip-path:url(#XMLID_5_);}
	.st6{opacity:0.25;clip-path:url(#SVGID_4_);}
	.st7{clip-path:url(#XMLID_7_);}
	.st8{opacity:0.25;clip-path:url(#SVGID_6_);}
	.st9{opacity:0.25;clip-path:url(#XMLID_10_);}
	.st10{opacity:0.25;clip-path:url(#XMLID_12_);}
	.st11{opacity:0.25;clip-path:url(#XMLID_14_);}
	.st12{fill:url(#SVGID_7_);}
	.st13{fill:url(#SVGID_8_);}
	.st14{fill:url(#SVGID_9_);}
	.st15{fill:url(#SVGID_10_);}
	.st16{opacity:0.7;fill:#60DFFF;}
	.st17{fill:url(#SVGID_11_);}
	.st18{fill:#D7F7FF;}
	.st19{fill:url(#SVGID_12_);}
	.st20{fill:url(#SVGID_13_);}
	.st21{opacity:0.25;clip-path:url(#SVGID_15_);}
	.st22{fill:#53CFFC;}
	.st23{fill:#017BD2;}
	.st24{fill:url(#SVGID_16_);}
	.st25{opacity:0.25;}
	.st26{clip-path:url(#SVGID_18_);}
	.st27{fill:url(#SVGID_19_);}
	.st28{opacity:0.25;clip-path:url(#SVGID_21_);}
	.st29{fill:url(#SVGID_22_);}
	.st30{clip-path:url(#SVGID_24_);}
	.st31{fill:url(#SVGID_25_);}
	.st32{opacity:0.25;clip-path:url(#SVGID_27_);}
	.st33{fill:url(#SVGID_28_);}
	.st34{clip-path:url(#SVGID_30_);}
	.st35{fill:url(#SVGID_31_);}
	.st36{opacity:0.25;clip-path:url(#SVGID_33_);}
	.st37{fill:url(#SVGID_34_);}
	.st38{clip-path:url(#SVGID_36_);}
	.st39{fill:#60DFFF;}
	.st40{fill:url(#SVGID_37_);}
	.st41{opacity:0.25;clip-path:url(#SVGID_39_);}
	.st42{fill:url(#SVGID_40_);}
	.st43{opacity:0.25;clip-path:url(#SVGID_42_);}
	.st44{fill:url(#SVGID_43_);}
	.st45{fill:#1E3865;}
</style>
<g id="FONDOS">
</g>
<g id="PERSONAJES">
</g>
<g id="INTERFACE">
	<g>
		<path class="st23" d="M420.81,111.09h-54.62V87.22l9.4-7.52l-12.11-1.39l0.75-7.36c0.43-4.23,1.59-8,3.46-11.22
			c1.83-3.15,4.17-5.83,6.96-7.94c2.73-2.07,5.8-3.61,9.14-4.58c5.96-1.73,12.45-1.81,18.69-0.24c3.23,0.82,6.16,2.12,8.73,3.89
			c2.78,1.91,5.05,4.4,6.76,7.41c1.8,3.16,2.71,6.87,2.71,11.02c0,2.84-0.4,5.46-1.2,7.78c-0.66,1.92-1.53,3.69-2.6,5.29h3.94
			V111.09z M394.89,73.47L394.89,73.47L394.89,73.47z"/>
		<path class="st4" d="M310.89,73.17H106.87c-5.92,0-10.73-4.8-10.73-10.73V10.73C96.14,4.8,100.94,0,106.87,0h204.02
			c5.92,0,10.73,4.8,10.73,10.73v51.72C321.62,68.37,316.82,73.17,310.89,73.17z"/>
		<g>
			<path class="st39" d="M123.14,25.71l0.36,13.2h-7.33V15.55h10.28l4.23,12.57h0.17l3.67-12.57h10.61v23.37h-7.66l0.23-13.14
				l-0.2-0.03l-4.36,13.17h-5.54l-4.29-13.2H123.14z"/>
			<path class="st39" d="M148.39,27.1c0-1.87,0.33-3.56,0.99-5.07c0.66-1.51,1.57-2.79,2.72-3.84s2.52-1.87,4.11-2.44
				c1.58-0.57,3.3-0.86,5.15-0.86s3.56,0.29,5.15,0.86c1.58,0.57,2.96,1.39,4.13,2.44c1.17,1.06,2.08,2.34,2.74,3.84
				c0.66,1.51,0.99,3.2,0.99,5.07c0,1.87-0.33,3.58-0.99,5.12c-0.66,1.54-1.57,2.85-2.74,3.94c-1.17,1.09-2.54,1.93-4.13,2.52
				c-1.58,0.59-3.3,0.89-5.15,0.89s-3.56-0.3-5.15-0.89c-1.58-0.59-2.95-1.44-4.11-2.52c-1.16-1.09-2.06-2.4-2.72-3.94
				C148.72,30.68,148.39,28.97,148.39,27.1z M156.74,27.1c0,0.77,0.12,1.47,0.35,2.11c0.23,0.64,0.55,1.19,0.96,1.65
				s0.9,0.82,1.47,1.07c0.57,0.25,1.19,0.38,1.85,0.38s1.27-0.13,1.83-0.38c0.56-0.25,1.05-0.61,1.47-1.07s0.74-1.01,0.97-1.65
				c0.23-0.64,0.35-1.34,0.35-2.11c0-0.75-0.12-1.44-0.35-2.06s-0.56-1.16-0.97-1.58c-0.42-0.43-0.91-0.76-1.47-1.01
				c-0.56-0.24-1.17-0.36-1.83-0.36s-1.28,0.12-1.85,0.36c-0.57,0.24-1.06,0.58-1.47,1.01c-0.41,0.43-0.73,0.96-0.96,1.58
				S156.74,26.35,156.74,27.1z M157.79,13.7l3.66-4.75h7l-5.08,4.75H157.79z"/>
			<path class="st39" d="M177.66,38.92V15.55h8.71c1.85,0,3.61,0.18,5.3,0.54c1.68,0.36,3.17,0.99,4.46,1.88s2.32,2.07,3.09,3.55
				c0.77,1.47,1.16,3.33,1.16,5.58c0,2.05-0.37,3.82-1.11,5.31c-0.74,1.5-1.72,2.72-2.95,3.68c-1.23,0.96-2.65,1.67-4.26,2.13
				c-1.61,0.46-3.28,0.69-5.02,0.69H177.66z M185.22,22.22v9.93h1.45c1.85,0,3.27-0.4,4.26-1.2c0.99-0.8,1.48-2.11,1.48-3.93
				c0-1.51-0.5-2.69-1.48-3.54c-0.99-0.84-2.31-1.27-3.96-1.27H185.22z"/>
			<path class="st39" d="M214.16,39.58c-1.83,0-3.42-0.25-4.77-0.76s-2.48-1.2-3.38-2.08c-0.9-0.88-1.57-1.92-2.01-3.12
				c-0.44-1.2-0.66-2.49-0.66-3.88V15.55h7.85v13.33c0,1.12,0.27,2,0.81,2.62c0.54,0.63,1.3,0.94,2.29,0.94
				c0.99,0,1.75-0.31,2.29-0.94c0.54-0.63,0.81-1.5,0.81-2.62V15.55h7.82v14.19c0,1.39-0.24,2.68-0.71,3.88
				c-0.47,1.2-1.17,2.24-2.1,3.12c-0.92,0.88-2.07,1.57-3.45,2.08S215.99,39.58,214.16,39.58z"/>
			<path class="st39" d="M229.24,15.55h7.92v16.6h7.76v6.77h-15.68V15.55z"/>
			<path class="st39" d="M245.32,27.1c0-1.87,0.33-3.56,0.99-5.07c0.66-1.51,1.57-2.79,2.72-3.84s2.52-1.87,4.11-2.44
				c1.58-0.57,3.3-0.86,5.15-0.86s3.56,0.29,5.15,0.86c1.58,0.57,2.96,1.39,4.13,2.44c1.17,1.06,2.08,2.34,2.74,3.84
				c0.66,1.51,0.99,3.2,0.99,5.07c0,1.87-0.33,3.58-0.99,5.12c-0.66,1.54-1.57,2.85-2.74,3.94c-1.17,1.09-2.54,1.93-4.13,2.52
				c-1.58,0.59-3.3,0.89-5.15,0.89s-3.56-0.3-5.15-0.89c-1.58-0.59-2.95-1.44-4.11-2.52c-1.16-1.09-2.06-2.4-2.72-3.94
				C245.65,30.68,245.32,28.97,245.32,27.1z M253.67,27.1c0,0.77,0.12,1.47,0.35,2.11c0.23,0.64,0.55,1.19,0.96,1.65
				s0.9,0.82,1.47,1.07c0.57,0.25,1.19,0.38,1.85,0.38s1.27-0.13,1.83-0.38c0.56-0.25,1.05-0.61,1.47-1.07s0.74-1.01,0.97-1.65
				c0.23-0.64,0.35-1.34,0.35-2.11c0-0.75-0.12-1.44-0.35-2.06s-0.56-1.16-0.97-1.58c-0.42-0.43-0.91-0.76-1.47-1.01
				c-0.56-0.24-1.17-0.36-1.83-0.36s-1.28,0.12-1.85,0.36c-0.57,0.24-1.06,0.58-1.47,1.01c-0.41,0.43-0.73,0.96-0.96,1.58
				S253.67,26.35,253.67,27.1z"/>
			<path class="st39" d="M298.25,26.67c0.59,0.2,1.14,0.47,1.63,0.83s0.92,0.76,1.27,1.22c0.35,0.46,0.62,0.96,0.81,1.5
				c0.19,0.54,0.28,1.08,0.28,1.63c0,1.36-0.29,2.54-0.86,3.51c-0.57,0.98-1.32,1.78-2.24,2.41c-0.92,0.63-1.97,1.08-3.14,1.37
				c-1.17,0.29-2.34,0.43-3.53,0.43c-1.19,0-2.36-0.14-3.52-0.41s-2.21-0.71-3.17-1.3c-0.96-0.59-1.79-1.34-2.51-2.24
				c-0.71-0.9-1.23-1.98-1.53-3.23l7.33-1.72c0.13,0.57,0.46,1.1,0.97,1.58c0.52,0.48,1.18,0.73,2,0.73c0.22,0,0.45-0.03,0.69-0.08
				c0.24-0.05,0.46-0.14,0.66-0.26c0.2-0.12,0.36-0.28,0.5-0.48c0.13-0.2,0.2-0.45,0.2-0.76c0-0.7-0.31-1.17-0.92-1.39
				c-0.62-0.22-1.44-0.33-2.48-0.33h-2.24v-5.41h2.51c0.84,0,1.51-0.12,2.01-0.35c0.51-0.23,0.76-0.68,0.76-1.34
				c0-0.51-0.2-0.86-0.59-1.06c-0.4-0.2-0.81-0.3-1.25-0.3c-0.55,0-1.06,0.17-1.52,0.51c-0.46,0.34-0.75,0.84-0.86,1.5l-7.29-1.55
				c0.4-1.28,0.96-2.35,1.68-3.22c0.73-0.87,1.56-1.57,2.49-2.1c0.94-0.53,1.94-0.91,3-1.14c1.07-0.23,2.12-0.35,3.15-0.35
				c1.03,0,2.1,0.13,3.2,0.38c1.1,0.25,2.1,0.66,3,1.22c0.9,0.56,1.64,1.28,2.21,2.15c0.57,0.87,0.86,1.92,0.86,3.15
				c0,1.32-0.35,2.37-1.04,3.15c-0.69,0.78-1.53,1.31-2.52,1.6V26.67z"/>
		</g>
		<path class="st23" d="M342.63,51.97l-1.99-5.09h-5.47h-17.46h-5.45l-2,5.07l-7.27,18.44V54.87v-8h-8h-16.57h-8v6.38
			c-0.74-0.65-1.52-1.25-2.36-1.79c-2.71-1.77-5.78-3.02-9.14-3.7c-2.88-0.59-5.82-0.89-8.74-0.89h-21.05h-8v8v0.88
			c-0.43-0.44-0.87-0.87-1.33-1.29c-3.2-2.9-7-5.15-11.28-6.7c-4.17-1.51-8.71-2.27-13.49-2.27c-4.78,0-9.31,0.76-13.48,2.27
			c-2.28,0.83-4.42,1.86-6.4,3.07v-3.96h-8h-40.45h-8v0.37c-3.63-1.16-7.27-1.75-10.84-1.75c-3.03,0-6.11,0.38-9.16,1.13
			c-3.38,0.83-6.49,2.22-9.25,4.14c-0.54,0.38-1.04,0.79-1.55,1.21v-5.1h-8H63.36h-1.11h-6.89h-1.11h-16.5h-5.39h-8H8H0v8v48.87v8h8
			h16.43h8h5.39h16.43h1.11h6.89h1.11h16.57h8v-2.39c0.96,0.44,1.95,0.86,2.96,1.24c2.21,0.83,4.54,1.47,6.91,1.89
			c2.37,0.43,4.81,0.64,7.25,0.64c3.25,0,6.48-0.47,9.6-1.4c3.31-0.99,6.34-2.51,9.01-4.54c2.82-2.14,5.12-4.85,6.84-8.04
			c0.09-0.16,0.16-0.32,0.24-0.48v5.09v8h8h16.43h8v-8V94c1.77,3.75,4.13,7.04,7.05,9.8c3.18,3,6.97,5.34,11.27,6.95
			c4.2,1.57,8.77,2.37,13.58,2.37c4.81,0,9.38-0.8,13.58-2.37c4.29-1.61,8.08-3.94,11.28-6.92c0.43-0.4,0.84-0.81,1.24-1.23v1.15v8
			h8h15.95h8h1.84h15.5h3.38h4.62h8.27h1.56h6.74h3.45h4.55h12.85h5.75l1.83-5.45l0.58-1.73h4.14l0.66,1.86l1.89,5.32h5.64h17.88
			h11.71l-4.25-10.91L342.63,51.97z"/>
		<g>
			<g>
				<path class="st4" d="M37.82,85.18H24.43v18.57H8V54.87h16.36v16.57h13.39V54.87h16.5v48.87H37.82V85.18z"/>
				<path class="st4" d="M63.36,54.87h16.57v48.87H63.36V54.87z"/>
				<path class="st4" d="M105.05,105.12c-1.98,0-3.92-0.17-5.83-0.51c-1.91-0.34-3.75-0.85-5.52-1.51c-1.77-0.66-3.44-1.44-5-2.33
					c-1.56-0.89-2.97-1.89-4.21-2.99L94.49,86.9c1.15,1.24,2.68,2.35,4.59,3.31c1.91,0.97,3.88,1.45,5.9,1.45
					c0.92,0,1.76-0.16,2.52-0.48c0.76-0.32,1.14-0.92,1.14-1.8c0-0.46-0.13-0.85-0.38-1.18c-0.25-0.32-0.7-0.66-1.35-1
					c-0.65-0.34-1.53-0.73-2.66-1.14c-1.13-0.41-2.54-0.9-4.25-1.45c-1.66-0.55-3.24-1.21-4.76-1.97c-1.52-0.76-2.86-1.69-4.04-2.8
					c-1.17-1.11-2.1-2.43-2.8-3.98c-0.69-1.54-1.04-3.4-1.04-5.57c0-3.04,0.62-5.62,1.86-7.74c1.24-2.12,2.84-3.86,4.8-5.22
					c1.96-1.36,4.15-2.34,6.59-2.94c2.44-0.6,4.85-0.9,7.25-0.9c3.22,0,6.5,0.62,9.84,1.86c3.34,1.24,6.27,3.04,8.8,5.38
					L116.3,71.16c-1.1-1.38-2.46-2.43-4.07-3.14c-1.61-0.71-3.06-1.07-4.35-1.07c-1.2,0-2.16,0.17-2.9,0.52
					c-0.74,0.35-1.1,0.91-1.1,1.69c0,0.74,0.38,1.29,1.14,1.66c0.76,0.37,1.99,0.83,3.69,1.38c1.75,0.55,3.59,1.2,5.52,1.93
					c1.93,0.74,3.72,1.69,5.35,2.86c1.63,1.17,2.98,2.61,4.04,4.31c1.06,1.7,1.59,3.82,1.59,6.35c0,2.95-0.59,5.51-1.76,7.7
					c-1.17,2.19-2.72,4-4.62,5.45c-1.91,1.45-4.06,2.53-6.45,3.24C109.97,104.77,107.53,105.12,105.05,105.12z"/>
				<path class="st4" d="M155.16,103.74h-16.43v-35h-12.01V54.87h40.45v13.87h-12.01V103.74z"/>
				<path class="st4" d="M167.93,79.03c0-3.91,0.69-7.44,2.07-10.6c1.38-3.15,3.28-5.83,5.69-8.04c2.42-2.21,5.28-3.91,8.59-5.11
					c3.31-1.2,6.9-1.79,10.77-1.79c3.87,0,7.46,0.6,10.77,1.79c3.31,1.2,6.19,2.9,8.63,5.11c2.44,2.21,4.35,4.89,5.73,8.04
					c1.38,3.15,2.07,6.69,2.07,10.6c0,3.91-0.69,7.48-2.07,10.7c-1.38,3.22-3.29,5.97-5.73,8.25c-2.44,2.28-5.31,4.04-8.63,5.28
					c-3.31,1.24-6.9,1.86-10.77,1.86c-3.87,0-7.45-0.62-10.77-1.86c-3.31-1.24-6.18-3-8.59-5.28s-4.31-5.03-5.69-8.25
					C168.62,86.51,167.93,82.94,167.93,79.03z M185.4,79.03c0,1.61,0.24,3.08,0.72,4.42c0.48,1.34,1.15,2.49,2,3.45
					c0.85,0.97,1.87,1.71,3.07,2.24c1.2,0.53,2.48,0.79,3.87,0.79c1.38,0,2.66-0.26,3.83-0.79c1.17-0.53,2.2-1.28,3.07-2.24
					c0.87-0.97,1.55-2.12,2.04-3.45c0.48-1.33,0.72-2.81,0.72-4.42c0-1.56-0.24-3-0.72-4.31c-0.48-1.31-1.16-2.42-2.04-3.31
					c-0.88-0.9-1.9-1.6-3.07-2.11c-1.17-0.51-2.45-0.76-3.83-0.76c-1.38,0-2.67,0.25-3.87,0.76c-1.2,0.51-2.22,1.21-3.07,2.11
					c-0.85,0.9-1.52,2-2,3.31C185.64,76.03,185.4,77.47,185.4,79.03z"/>
				<path class="st4" d="M229.16,54.87h21.05c2.39,0,4.77,0.24,7.14,0.72c2.37,0.48,4.49,1.34,6.35,2.55
					c1.86,1.22,3.37,2.85,4.52,4.9c1.15,2.05,1.73,4.61,1.73,7.7c0,2.99-0.73,5.63-2.2,7.9c-1.47,2.28-3.58,4.04-6.33,5.28
					l12.4,19.81h-18.87l-9.36-17.46h-0.48v17.46h-15.95V54.87z M244.96,75.51h3.22c0.55,0,1.15-0.04,1.82-0.14
					c0.66-0.09,1.28-0.29,1.85-0.59c0.57-0.3,1.05-0.71,1.44-1.24c0.39-0.53,0.58-1.23,0.58-2.1c0-0.87-0.16-1.56-0.48-2.07
					c-0.32-0.51-0.73-0.89-1.23-1.14c-0.5-0.25-1.05-0.41-1.64-0.48c-0.59-0.07-1.14-0.1-1.64-0.1h-3.9V75.51z"/>
				<path class="st4" d="M278.44,54.87h16.57v48.87h-16.57V54.87z"/>
				<path class="st4" d="M317.72,54.87h17.46l19.05,48.87h-17.88l-2.55-7.18h-15.53l-2.42,7.18h-17.39L317.72,54.87z M326.21,71.92
					l-4,12.08h7.94L326.21,71.92z"/>
				<path class="st4" d="M393.02,75.51c0.78-0.6,1.43-1.27,1.93-2c0.51-0.74,0.76-1.5,0.76-2.28c0-0.92-0.29-1.73-0.86-2.42
					c-0.58-0.69-1.48-1.04-2.73-1.04c-1.34,0-2.44,0.53-3.31,1.59c-0.87,1.06-1.36,2.48-1.45,4.28l-15.67-1.79
					c0.32-3.18,1.15-5.91,2.48-8.21c1.33-2.3,3-4.21,5-5.73c2-1.52,4.23-2.63,6.7-3.35c2.46-0.71,5-1.07,7.63-1.07
					c2.39,0,4.77,0.3,7.14,0.9c2.37,0.6,4.48,1.53,6.32,2.8c1.84,1.27,3.34,2.91,4.49,4.94c1.15,2.03,1.73,4.46,1.73,7.32
					c0,2.03-0.27,3.81-0.79,5.35c-0.53,1.54-1.24,2.91-2.14,4.11c-0.9,1.2-1.91,2.28-3.04,3.24c-1.13,0.97-2.31,1.89-3.55,2.76
					l-7.18,5.11h16.84v13.74H373.7V90.97L393.02,75.51z"/>
			</g>
		</g>
	</g>
</g>
</svg>
