<?xml version="1.0" encoding="utf-8"?>
<!-- Generator: Adobe Illustrator 25.2.3, SVG Export Plug-In . SVG Version: 6.00 Build 0)  -->
<svg version="1.1" xmlns="http://www.w3.org/2000/svg" xmlns:xlink="http://www.w3.org/1999/xlink" x="0px" y="0px"
	 viewBox="0 0 422.28 121" style="enable-background:new 0 0 422.28 121;" xml:space="preserve">
<style type="text/css">
	.st0{clip-path:url(#XMLID_3_);}
	.st1{opacity:0.25;clip-path:url(#SVGID_2_);}
	.st2{fill:#F6D968;}
	.st3{fill:#B98601;}
	.st4{fill:#FFFFFF;}
	.st5{clip-path:url(#XMLID_5_);}
	.st6{opacity:0.25;clip-path:url(#SVGID_4_);}
	.st7{clip-path:url(#XMLID_7_);}
	.st8{opacity:0.25;clip-path:url(#SVGID_6_);}
	.st9{opacity:0.25;clip-path:url(#XMLID_10_);}
	.st10{opacity:0.25;clip-path:url(#XMLID_12_);}
	.st11{opacity:0.25;clip-path:url(#XMLID_14_);}
	.st12{fill:url(#SVGID_7_);}
	.st13{fill:url(#SVGID_8_);}
	.st14{fill:url(#SVGID_9_);}
	.st15{fill:url(#SVGID_10_);}
	.st16{opacity:0.7;fill:#60DFFF;}
	.st17{fill:url(#SVGID_11_);}
	.st18{fill:#D7F7FF;}
	.st19{fill:url(#SVGID_12_);}
	.st20{fill:url(#SVGID_13_);}
	.st21{opacity:0.25;clip-path:url(#SVGID_15_);}
	.st22{fill:#53CFFC;}
	.st23{fill:#017BD2;}
	.st24{fill:url(#SVGID_16_);}
	.st25{opacity:0.25;}
	.st26{clip-path:url(#SVGID_18_);}
	.st27{fill:url(#SVGID_19_);}
	.st28{opacity:0.25;clip-path:url(#SVGID_21_);}
	.st29{fill:url(#SVGID_22_);}
	.st30{clip-path:url(#SVGID_24_);}
	.st31{fill:url(#SVGID_25_);}
	.st32{opacity:0.25;clip-path:url(#SVGID_27_);}
	.st33{fill:url(#SVGID_28_);}
	.st34{clip-path:url(#SVGID_30_);}
	.st35{fill:url(#SVGID_31_);}
	.st36{opacity:0.25;clip-path:url(#SVGID_33_);}
	.st37{fill:url(#SVGID_34_);}
	.st38{clip-path:url(#SVGID_36_);}
	.st39{fill:#60DFFF;}
	.st40{fill:url(#SVGID_37_);}
	.st41{opacity:0.25;clip-path:url(#SVGID_39_);}
	.st42{fill:url(#SVGID_40_);}
	.st43{opacity:0.25;clip-path:url(#SVGID_42_);}
	.st44{fill:url(#SVGID_43_);}
	.st45{fill:#1E3865;}
</style>
<g id="FONDOS">
</g>
<g id="PERSONAJES">
</g>
<g id="INTERFACE">
	<g>
		<path class="st4" d="M310.89,74.45H106.87c-5.92,0-10.73-4.8-10.73-10.73V10.73C96.14,4.8,100.94,0,106.87,0h204.02
			c5.92,0,10.73,4.8,10.73,10.73v52.99C321.62,69.64,316.82,74.45,310.89,74.45z"/>
		<g>
			<path class="st39" d="M123.14,25.71l0.36,13.2h-7.33V15.55h10.28l4.23,12.57h0.17l3.67-12.57h10.61v23.37h-7.66l0.23-13.14
				l-0.2-0.03l-4.36,13.17h-5.54l-4.29-13.2H123.14z"/>
			<path class="st39" d="M148.39,27.1c0-1.87,0.33-3.56,0.99-5.07c0.66-1.51,1.57-2.79,2.72-3.84c1.16-1.06,2.52-1.87,4.11-2.44
				c1.58-0.57,3.3-0.86,5.15-0.86s3.56,0.29,5.15,0.86c1.58,0.57,2.96,1.39,4.13,2.44c1.17,1.06,2.08,2.34,2.74,3.84
				c0.66,1.51,0.99,3.2,0.99,5.07s-0.33,3.58-0.99,5.12c-0.66,1.54-1.57,2.86-2.74,3.94c-1.17,1.09-2.54,1.93-4.13,2.52
				c-1.58,0.59-3.3,0.89-5.15,0.89s-3.56-0.3-5.15-0.89s-2.95-1.44-4.11-2.52s-2.06-2.4-2.72-3.94
				C148.72,30.68,148.39,28.97,148.39,27.1z M156.74,27.1c0,0.77,0.12,1.47,0.35,2.11c0.23,0.64,0.55,1.19,0.96,1.65
				s0.9,0.82,1.47,1.07c0.57,0.25,1.19,0.38,1.85,0.38s1.27-0.13,1.83-0.38c0.56-0.25,1.05-0.61,1.47-1.07s0.74-1.01,0.97-1.65
				c0.23-0.64,0.35-1.34,0.35-2.11c0-0.75-0.12-1.44-0.35-2.06s-0.56-1.16-0.97-1.58c-0.42-0.43-0.91-0.76-1.47-1.01
				s-1.17-0.36-1.83-0.36s-1.28,0.12-1.85,0.36c-0.57,0.24-1.06,0.58-1.47,1.01c-0.41,0.43-0.73,0.96-0.96,1.58
				S156.74,26.35,156.74,27.1z M157.79,13.7l3.66-4.75h7l-5.08,4.75H157.79z"/>
			<path class="st39" d="M177.66,38.91V15.55h8.71c1.85,0,3.61,0.18,5.3,0.54c1.68,0.36,3.17,0.99,4.46,1.88
				c1.29,0.89,2.32,2.07,3.09,3.55c0.77,1.47,1.16,3.33,1.16,5.58c0,2.05-0.37,3.82-1.11,5.31c-0.74,1.5-1.72,2.72-2.95,3.68
				c-1.23,0.96-2.65,1.67-4.26,2.13c-1.61,0.46-3.28,0.69-5.02,0.69H177.66z M185.22,22.21v9.93h1.45c1.85,0,3.27-0.4,4.26-1.2
				c0.99-0.8,1.48-2.11,1.48-3.93c0-1.51-0.5-2.69-1.48-3.54c-0.99-0.84-2.31-1.27-3.96-1.27H185.22z"/>
			<path class="st39" d="M214.16,39.57c-1.83,0-3.42-0.25-4.77-0.76s-2.48-1.2-3.38-2.08c-0.9-0.88-1.57-1.92-2.01-3.12
				c-0.44-1.2-0.66-2.49-0.66-3.88V15.55h7.85v13.33c0,1.12,0.27,2,0.81,2.62c0.54,0.63,1.3,0.94,2.29,0.94
				c0.99,0,1.75-0.31,2.29-0.94c0.54-0.63,0.81-1.5,0.81-2.62V15.55h7.82v14.19c0,1.39-0.24,2.68-0.71,3.88
				c-0.47,1.2-1.17,2.24-2.1,3.12c-0.92,0.88-2.07,1.57-3.45,2.08S215.99,39.57,214.16,39.57z"/>
			<path class="st39" d="M229.24,15.55h7.92v16.6h7.76v6.77h-15.68V15.55z"/>
			<path class="st39" d="M245.32,27.1c0-1.87,0.33-3.56,0.99-5.07c0.66-1.51,1.57-2.79,2.72-3.84c1.16-1.06,2.52-1.87,4.11-2.44
				c1.58-0.57,3.3-0.86,5.15-0.86s3.56,0.29,5.15,0.86c1.58,0.57,2.96,1.39,4.13,2.44c1.17,1.06,2.08,2.34,2.74,3.84
				c0.66,1.51,0.99,3.2,0.99,5.07s-0.33,3.58-0.99,5.12c-0.66,1.54-1.57,2.86-2.74,3.94c-1.17,1.09-2.54,1.93-4.13,2.52
				c-1.58,0.59-3.3,0.89-5.15,0.89s-3.56-0.3-5.15-0.89s-2.95-1.44-4.11-2.52s-2.06-2.4-2.72-3.94
				C245.65,30.68,245.32,28.97,245.32,27.1z M253.67,27.1c0,0.77,0.12,1.47,0.35,2.11c0.23,0.64,0.55,1.19,0.96,1.65
				s0.9,0.82,1.47,1.07c0.57,0.25,1.19,0.38,1.85,0.38s1.27-0.13,1.83-0.38c0.56-0.25,1.05-0.61,1.47-1.07s0.74-1.01,0.97-1.65
				c0.23-0.64,0.35-1.34,0.35-2.11c0-0.75-0.12-1.44-0.35-2.06s-0.56-1.16-0.97-1.58c-0.42-0.43-0.91-0.76-1.47-1.01
				s-1.17-0.36-1.83-0.36s-1.28,0.12-1.85,0.36c-0.57,0.24-1.06,0.58-1.47,1.01c-0.41,0.43-0.73,0.96-0.96,1.58
				S253.67,26.35,253.67,27.1z"/>
			<path class="st39" d="M292.08,25.42c0.37-0.29,0.68-0.6,0.92-0.96c0.24-0.35,0.36-0.71,0.36-1.09c0-0.44-0.14-0.83-0.41-1.16
				c-0.28-0.33-0.71-0.5-1.3-0.5c-0.64,0-1.17,0.25-1.58,0.76s-0.65,1.19-0.69,2.05l-7.49-0.86c0.15-1.52,0.55-2.83,1.19-3.93
				c0.64-1.1,1.44-2.01,2.39-2.74c0.96-0.73,2.02-1.26,3.2-1.6c1.18-0.34,2.39-0.51,3.65-0.51c1.14,0,2.28,0.14,3.42,0.43
				s2.14,0.73,3.02,1.34c0.88,0.61,1.59,1.39,2.15,2.36c0.55,0.97,0.83,2.13,0.83,3.5c0,0.97-0.13,1.82-0.38,2.56
				c-0.25,0.74-0.59,1.39-1.02,1.96c-0.43,0.57-0.91,1.09-1.45,1.55s-1.11,0.9-1.7,1.32l-3.43,2.44h8.05v6.57h-18.94v-6.11
				L292.08,25.42z"/>
		</g>
		<path class="st23" d="M342.63,51.97l-1.99-5.09h-5.47h-17.46h-5.45l-2,5.07l-7.27,18.44V54.87v-8h-8h-16.57h-8v6.38
			c-0.74-0.65-1.52-1.25-2.36-1.79c-2.71-1.77-5.78-3.02-9.14-3.7c-2.88-0.59-5.82-0.89-8.74-0.89h-21.05h-8v8v0.88
			c-0.43-0.44-0.87-0.87-1.33-1.29c-3.2-2.9-7-5.15-11.28-6.7c-4.17-1.51-8.71-2.27-13.49-2.27c-4.78,0-9.31,0.76-13.48,2.27
			c-2.28,0.83-4.42,1.86-6.4,3.07v-3.96h-8h-40.45h-8v0.37c-3.63-1.16-7.27-1.75-10.84-1.75c-3.03,0-6.11,0.38-9.16,1.13
			c-3.38,0.83-6.49,2.22-9.25,4.14c-0.54,0.38-1.04,0.79-1.55,1.21v-5.1h-8H63.36h-1.11h-6.89h-1.11h-16.5h-5.39h-8H8H0v8v48.87v8h8
			h16.43h8h5.39h16.43h1.11h6.89h1.11h16.57h8v-2.39c0.96,0.44,1.95,0.86,2.96,1.24c2.21,0.83,4.54,1.47,6.91,1.89
			c2.37,0.43,4.81,0.64,7.25,0.64c3.25,0,6.48-0.47,9.6-1.4c3.31-0.99,6.34-2.51,9.01-4.54c2.82-2.14,5.12-4.85,6.84-8.04
			c0.09-0.16,0.16-0.32,0.24-0.48v5.09v8h8h16.43h8v-8V94c1.77,3.75,4.13,7.04,7.05,9.8c3.18,3,6.97,5.34,11.27,6.95
			c4.2,1.57,8.77,2.37,13.58,2.37c4.81,0,9.38-0.8,13.58-2.37c4.29-1.61,8.08-3.94,11.28-6.92c0.43-0.4,0.84-0.81,1.24-1.23v1.15v8
			h8h15.95h8h1.84h15.5h3.38h4.62h8.27h1.56h6.74h3.45h4.55h12.85h5.75l1.83-5.45l0.58-1.73h4.14l0.66,1.86l1.89,5.32h5.64h17.88
			h11.71l-4.25-10.91L342.63,51.97z"/>
		<path class="st23" d="M421.26,82.94c-0.62-1.79-1.5-3.47-2.62-5.01c1.82-2.8,2.75-6.16,2.75-10.01c0-4.15-1.05-7.85-3.11-10.99
			c-1.84-2.79-4.22-5.1-7.08-6.88c-2.63-1.63-5.56-2.83-8.71-3.56c-2.89-0.66-5.74-1-8.49-1c-2.72,0-5.51,0.3-8.29,0.91
			c-3.01,0.65-5.87,1.74-8.52,3.23c-2.79,1.58-5.29,3.67-7.42,6.22c-2.19,2.63-3.88,5.82-5.02,9.49l-2.6,8.37l8.58,1.82l6.71,1.43
			v3.49l-7.84,1.84l-7.87,1.84l1.93,7.85c0.92,3.74,2.5,7.04,4.71,9.83c2.05,2.6,4.51,4.79,7.29,6.52c2.72,1.69,5.75,2.94,8.99,3.71
			c3.01,0.72,6.11,1.08,9.2,1.08c3.11,0,6.24-0.38,9.29-1.13c3.36-0.82,6.43-2.17,9.15-4.02c2.91-1.98,5.31-4.54,7.11-7.62
			c1.92-3.28,2.89-7.11,2.89-11.39C422.28,86.94,421.94,84.91,421.26,82.94z"/>
		<g>
			<g>
				<path class="st4" d="M37.82,85.17H24.43v18.57H8V54.87h16.36v16.57h13.39V54.87h16.5v48.87H37.82V85.17z"/>
				<path class="st4" d="M63.36,54.87h16.57v48.87H63.36V54.87z"/>
				<path class="st4" d="M105.05,105.12c-1.98,0-3.92-0.17-5.83-0.51c-1.91-0.34-3.75-0.85-5.52-1.51c-1.77-0.66-3.44-1.44-5-2.33
					c-1.56-0.89-2.97-1.89-4.21-2.99L94.49,86.9c1.15,1.24,2.68,2.35,4.59,3.31c1.91,0.97,3.88,1.45,5.9,1.45
					c0.92,0,1.76-0.16,2.52-0.48c0.76-0.32,1.14-0.92,1.14-1.8c0-0.46-0.13-0.85-0.38-1.18c-0.25-0.32-0.7-0.66-1.35-1
					c-0.65-0.34-1.53-0.73-2.66-1.14c-1.13-0.41-2.54-0.9-4.25-1.45c-1.66-0.55-3.24-1.21-4.76-1.97s-2.86-1.69-4.04-2.8
					c-1.17-1.11-2.1-2.43-2.8-3.98c-0.69-1.54-1.04-3.4-1.04-5.57c0-3.04,0.62-5.62,1.86-7.74c1.24-2.12,2.84-3.86,4.8-5.22
					c1.96-1.36,4.15-2.34,6.59-2.94c2.44-0.6,4.85-0.9,7.25-0.9c3.22,0,6.5,0.62,9.84,1.86c3.34,1.24,6.27,3.04,8.8,5.38
					L116.3,71.16c-1.1-1.38-2.46-2.43-4.07-3.14c-1.61-0.71-3.06-1.07-4.35-1.07c-1.2,0-2.16,0.17-2.9,0.52
					c-0.74,0.34-1.1,0.91-1.1,1.69c0,0.74,0.38,1.29,1.14,1.66c0.76,0.37,1.99,0.83,3.69,1.38c1.75,0.55,3.59,1.2,5.52,1.93
					c1.93,0.74,3.72,1.69,5.35,2.86c1.63,1.17,2.98,2.61,4.04,4.31c1.06,1.7,1.59,3.82,1.59,6.35c0,2.95-0.59,5.51-1.76,7.7
					s-2.72,4-4.62,5.45c-1.91,1.45-4.06,2.53-6.45,3.24C109.97,104.77,107.53,105.12,105.05,105.12z"/>
				<path class="st4" d="M155.16,103.74h-16.43v-35h-12.01V54.87h40.45v13.88h-12.01V103.74z"/>
				<path class="st4" d="M167.93,79.03c0-3.91,0.69-7.44,2.07-10.6c1.38-3.15,3.28-5.83,5.69-8.04s5.28-3.91,8.59-5.11
					c3.31-1.2,6.9-1.79,10.77-1.79c3.87,0,7.46,0.6,10.77,1.79c3.31,1.2,6.19,2.9,8.63,5.11c2.44,2.21,4.35,4.89,5.73,8.04
					c1.38,3.15,2.07,6.69,2.07,10.6c0,3.91-0.69,7.48-2.07,10.7c-1.38,3.22-3.29,5.97-5.73,8.25c-2.44,2.28-5.31,4.04-8.63,5.28
					c-3.31,1.24-6.9,1.86-10.77,1.86c-3.87,0-7.45-0.62-10.77-1.86c-3.31-1.24-6.18-3-8.59-5.28c-2.42-2.28-4.31-5.03-5.69-8.25
					C168.62,86.51,167.93,82.94,167.93,79.03z M185.4,79.03c0,1.61,0.24,3.08,0.72,4.42c0.48,1.33,1.15,2.49,2,3.45
					c0.85,0.97,1.87,1.71,3.07,2.24c1.2,0.53,2.48,0.79,3.87,0.79c1.38,0,2.66-0.26,3.83-0.79c1.17-0.53,2.2-1.28,3.07-2.24
					c0.87-0.97,1.55-2.12,2.04-3.45c0.48-1.33,0.72-2.81,0.72-4.42c0-1.56-0.24-3-0.72-4.31c-0.48-1.31-1.16-2.42-2.04-3.31
					c-0.88-0.9-1.9-1.6-3.07-2.11c-1.17-0.51-2.45-0.76-3.83-0.76c-1.38,0-2.67,0.25-3.87,0.76c-1.2,0.51-2.22,1.21-3.07,2.11
					c-0.85,0.9-1.52,2-2,3.31C185.64,76.03,185.4,77.47,185.4,79.03z"/>
				<path class="st4" d="M229.16,54.87h21.05c2.39,0,4.77,0.24,7.14,0.72c2.37,0.48,4.49,1.34,6.35,2.55
					c1.86,1.22,3.37,2.85,4.52,4.9c1.15,2.05,1.73,4.61,1.73,7.7c0,2.99-0.73,5.63-2.2,7.9c-1.47,2.28-3.58,4.04-6.33,5.28
					l12.4,19.81h-18.87l-9.36-17.46h-0.48v17.46h-15.95V54.87z M244.96,75.51h3.22c0.55,0,1.15-0.04,1.82-0.14
					c0.66-0.09,1.28-0.29,1.85-0.59c0.57-0.3,1.05-0.71,1.44-1.24c0.39-0.53,0.58-1.23,0.58-2.11c0-0.87-0.16-1.56-0.48-2.07
					c-0.32-0.51-0.73-0.89-1.23-1.14c-0.5-0.25-1.05-0.41-1.64-0.48c-0.59-0.07-1.14-0.1-1.64-0.1h-3.9V75.51z"/>
				<path class="st4" d="M278.44,54.87h16.57v48.87h-16.57V54.87z"/>
				<path class="st4" d="M317.72,54.87h17.46l19.05,48.87h-17.88l-2.55-7.18h-15.53l-2.42,7.18h-17.39L317.72,54.87z M326.21,71.92
					l-4,12.08h7.94L326.21,71.92z"/>
				<path class="st4" d="M405.93,78.13c1.24,0.41,2.38,0.99,3.42,1.73c1.04,0.74,1.92,1.59,2.66,2.55c0.74,0.97,1.3,2.01,1.69,3.14
					c0.39,1.13,0.59,2.27,0.59,3.42c0,2.85-0.6,5.3-1.79,7.35c-1.2,2.05-2.76,3.73-4.69,5.04s-4.12,2.27-6.56,2.87
					c-2.44,0.6-4.9,0.9-7.39,0.9s-4.94-0.29-7.35-0.86c-2.42-0.58-4.62-1.48-6.63-2.73c-2-1.24-3.75-2.81-5.25-4.69
					c-1.5-1.89-2.57-4.14-3.21-6.76l15.32-3.59c0.28,1.2,0.95,2.3,2.04,3.31c1.08,1.01,2.47,1.52,4.18,1.52
					c0.46,0,0.94-0.06,1.45-0.17c0.51-0.11,0.97-0.3,1.38-0.55s0.76-0.59,1.04-1c0.28-0.41,0.41-0.94,0.41-1.59
					c0-1.47-0.65-2.44-1.93-2.9c-1.29-0.46-3.01-0.69-5.18-0.69h-4.69V73.1h5.25c1.75,0,3.15-0.24,4.21-0.73
					c1.06-0.48,1.59-1.42,1.59-2.79c0-1.06-0.41-1.79-1.24-2.21c-0.83-0.41-1.7-0.62-2.62-0.62c-1.15,0-2.21,0.36-3.17,1.07
					c-0.97,0.71-1.56,1.76-1.79,3.14l-15.25-3.24c0.83-2.67,2-4.91,3.52-6.73c1.52-1.82,3.25-3.28,5.21-4.38
					c1.96-1.1,4.05-1.9,6.28-2.38c2.23-0.48,4.43-0.72,6.59-0.72c2.16,0,4.39,0.26,6.7,0.79c2.3,0.53,4.39,1.38,6.28,2.55
					c1.89,1.17,3.43,2.67,4.62,4.49c1.2,1.82,1.79,4.02,1.79,6.59c0,2.76-0.72,4.96-2.17,6.59c-1.45,1.63-3.21,2.75-5.28,3.35V78.13
					z"/>
			</g>
		</g>
	</g>
</g>
</svg>
