<?xml version="1.0" encoding="utf-8"?>
<!-- Generator: Adobe Illustrator 25.2.3, SVG Export Plug-In . SVG Version: 6.00 Build 0)  -->
<svg version="1.1" xmlns="http://www.w3.org/2000/svg" xmlns:xlink="http://www.w3.org/1999/xlink" x="0px" y="0px"
	 viewBox="0 0 399.32 107.6" style="enable-background:new 0 0 399.32 107.6;" xml:space="preserve">
<style type="text/css">
	.st0{clip-path:url(#XMLID_3_);}
	.st1{opacity:0.25;clip-path:url(#SVGID_2_);}
	.st2{fill:#F6D968;}
	.st3{fill:#B98601;}
	.st4{fill:#FFFFFF;}
	.st5{clip-path:url(#XMLID_5_);}
	.st6{opacity:0.25;clip-path:url(#SVGID_4_);}
	.st7{clip-path:url(#XMLID_7_);}
	.st8{opacity:0.25;clip-path:url(#SVGID_6_);}
	.st9{opacity:0.25;clip-path:url(#XMLID_10_);}
	.st10{opacity:0.25;clip-path:url(#XMLID_12_);}
	.st11{opacity:0.25;clip-path:url(#XMLID_14_);}
	.st12{fill:url(#SVGID_7_);}
	.st13{fill:url(#SVGID_8_);}
	.st14{fill:url(#SVGID_9_);}
	.st15{fill:url(#SVGID_10_);}
	.st16{opacity:0.7;fill:#60DFFF;}
	.st17{fill:url(#SVGID_11_);}
	.st18{fill:#D7F7FF;}
	.st19{fill:url(#SVGID_12_);}
	.st20{fill:url(#SVGID_13_);}
	.st21{opacity:0.25;clip-path:url(#SVGID_15_);}
	.st22{fill:#53CFFC;}
	.st23{fill:#017BD2;}
	.st24{fill:url(#SVGID_16_);}
	.st25{opacity:0.25;}
	.st26{clip-path:url(#SVGID_18_);}
	.st27{fill:url(#SVGID_19_);}
	.st28{opacity:0.25;clip-path:url(#SVGID_21_);}
	.st29{fill:url(#SVGID_22_);}
	.st30{clip-path:url(#SVGID_24_);}
	.st31{fill:url(#SVGID_25_);}
	.st32{opacity:0.25;clip-path:url(#SVGID_27_);}
	.st33{fill:url(#SVGID_28_);}
	.st34{clip-path:url(#SVGID_30_);}
	.st35{fill:url(#SVGID_31_);}
	.st36{opacity:0.25;clip-path:url(#SVGID_33_);}
	.st37{fill:url(#SVGID_34_);}
	.st38{clip-path:url(#SVGID_36_);}
	.st39{fill:#60DFFF;}
	.st40{fill:url(#SVGID_37_);}
	.st41{opacity:0.25;clip-path:url(#SVGID_39_);}
	.st42{fill:url(#SVGID_40_);}
	.st43{opacity:0.25;clip-path:url(#SVGID_42_);}
	.st44{fill:url(#SVGID_43_);}
	.st45{fill:#1E3865;}
</style>
<g id="FONDOS">
</g>
<g id="PERSONAJES">
</g>
<g id="INTERFACE">
	<g>
		<path class="st4" d="M281.26,0.39h-5.05H0l8.93,75.97c2.12,18.01,13.32,31.23,26.45,31.23h240.84h5.05h82.68
			c13.13,0,24.33-13.22,26.45-31.23l8.93-75.97H281.26z"/>
		<path class="st45" d="M259.92,0h-4.42H13.35l7.83,67.5c1.86,16,11.67,27.75,23.19,27.75H255.5h4.42h95.03
			c11.51,0,21.33-11.75,23.19-27.75L385.97,0H259.92z"/>
		<g>
			<path class="st4" d="M61.95,44.97l0.58,21.06H50.84V28.76h16.4l6.75,20.06h0.26l5.85-20.06h16.92v37.28H84.81l0.37-20.96
				l-0.32-0.05l-6.95,21.01h-8.85l-6.85-21.06H61.95z"/>
			<path class="st4" d="M102.24,47.19c0-2.98,0.53-5.68,1.58-8.08c1.05-2.4,2.5-4.45,4.34-6.13c1.84-1.69,4.03-2.98,6.56-3.9
				c2.53-0.91,5.27-1.37,8.22-1.37c2.95,0,5.69,0.46,8.21,1.37c2.53,0.91,4.72,2.21,6.58,3.9c1.86,1.68,3.32,3.73,4.37,6.13
				c1.05,2.41,1.58,5.1,1.58,8.08c0,2.98-0.53,5.71-1.58,8.16c-1.05,2.46-2.51,4.56-4.37,6.29c-1.86,1.74-4.06,3.08-6.58,4.03
				c-2.53,0.95-5.27,1.42-8.21,1.42c-2.95,0-5.69-0.47-8.22-1.42c-2.53-0.95-4.71-2.29-6.56-4.03c-1.84-1.74-3.29-3.83-4.34-6.29
				C102.77,52.89,102.24,50.17,102.24,47.19z M115.56,47.19c0,1.23,0.18,2.35,0.55,3.37c0.37,1.02,0.88,1.9,1.53,2.63
				c0.65,0.74,1.43,1.31,2.34,1.71c0.91,0.4,1.9,0.61,2.95,0.61c1.05,0,2.03-0.2,2.92-0.61c0.9-0.4,1.68-0.97,2.34-1.71
				c0.67-0.74,1.19-1.62,1.55-2.63c0.37-1.02,0.55-2.14,0.55-3.37c0-1.19-0.18-2.29-0.55-3.29c-0.37-1-0.89-1.84-1.55-2.53
				c-0.67-0.68-1.45-1.22-2.34-1.61c-0.9-0.39-1.87-0.58-2.92-0.58c-1.05,0-2.04,0.19-2.95,0.58c-0.91,0.39-1.69,0.92-2.34,1.61
				c-0.65,0.68-1.16,1.53-1.53,2.53C115.75,44.9,115.56,45.99,115.56,47.19z M117.25,25.81l5.85-7.58h11.16l-8.11,7.58H117.25z"/>
			<path class="st4" d="M148.95,66.04V28.76h13.9c2.95,0,5.77,0.29,8.45,0.87c2.69,0.58,5.06,1.58,7.11,3s3.69,3.31,4.92,5.66
				c1.23,2.35,1.84,5.32,1.84,8.9c0,3.26-0.59,6.09-1.76,8.48c-1.18,2.39-2.75,4.34-4.71,5.87c-1.97,1.53-4.23,2.66-6.79,3.4
				c-2.56,0.74-5.23,1.11-8,1.11H148.95z M161.01,39.39v15.85h2.32c2.95,0,5.21-0.64,6.79-1.92c1.58-1.28,2.37-3.37,2.37-6.27
				c0-2.41-0.79-4.29-2.37-5.64c-1.58-1.35-3.69-2.02-6.32-2.02H161.01z"/>
			<path class="st4" d="M207.19,67.09c-2.91,0-5.45-0.4-7.61-1.21c-2.16-0.81-3.96-1.91-5.4-3.32c-1.44-1.4-2.51-3.06-3.21-4.98
				c-0.7-1.91-1.05-3.98-1.05-6.19V28.76h12.53v21.27c0,1.79,0.43,3.19,1.29,4.19c0.86,1,2.08,1.5,3.66,1.5c1.58,0,2.8-0.5,3.66-1.5
				c0.86-1,1.29-2.4,1.29-4.19V28.76h12.48V51.4c0,2.21-0.38,4.27-1.13,6.19c-0.76,1.91-1.87,3.57-3.34,4.98
				c-1.47,1.4-3.31,2.51-5.5,3.32C212.66,66.69,210.1,67.09,207.19,67.09z"/>
			<path class="st4" d="M231.26,28.76h12.64v26.49h12.38v10.79h-25.01V28.76z"/>
			<path class="st4" d="M256.9,47.19c0-2.98,0.53-5.68,1.58-8.08c1.05-2.4,2.5-4.45,4.34-6.13c1.84-1.69,4.03-2.98,6.56-3.9
				c2.53-0.91,5.27-1.37,8.21-1.37s5.69,0.46,8.21,1.37c2.53,0.91,4.72,2.21,6.58,3.9c1.86,1.68,3.32,3.73,4.37,6.13
				c1.05,2.41,1.58,5.1,1.58,8.08c0,2.98-0.53,5.71-1.58,8.16c-1.05,2.46-2.51,4.56-4.37,6.29c-1.86,1.74-4.05,3.08-6.58,4.03
				c-2.53,0.95-5.27,1.42-8.21,1.42s-5.69-0.47-8.21-1.42c-2.53-0.95-4.71-2.29-6.56-4.03c-1.84-1.74-3.29-3.83-4.34-6.29
				C257.43,52.89,256.9,50.17,256.9,47.19z M270.22,47.19c0,1.23,0.18,2.35,0.55,3.37c0.37,1.02,0.88,1.9,1.53,2.63
				c0.65,0.74,1.43,1.31,2.34,1.71c0.91,0.4,1.9,0.61,2.95,0.61s2.03-0.2,2.92-0.61c0.9-0.4,1.68-0.97,2.34-1.71
				c0.67-0.74,1.18-1.62,1.55-2.63c0.37-1.02,0.55-2.14,0.55-3.37c0-1.19-0.18-2.29-0.55-3.29c-0.37-1-0.89-1.84-1.55-2.53
				c-0.67-0.68-1.45-1.22-2.34-1.61c-0.9-0.39-1.87-0.58-2.92-0.58s-2.04,0.19-2.95,0.58c-0.91,0.39-1.69,0.92-2.34,1.61
				c-0.65,0.68-1.16,1.53-1.53,2.53C270.41,44.9,270.22,45.99,270.22,47.19z"/>
			<path class="st4" d="M331.52,44.5c0.6-0.46,1.09-0.96,1.47-1.53c0.39-0.56,0.58-1.14,0.58-1.74c0-0.7-0.22-1.32-0.66-1.84
				c-0.44-0.53-1.13-0.79-2.08-0.79c-1.02,0-1.86,0.4-2.53,1.21c-0.67,0.81-1.04,1.9-1.11,3.26l-11.95-1.37
				c0.25-2.42,0.88-4.51,1.9-6.27c1.02-1.75,2.29-3.21,3.82-4.37c1.53-1.16,3.23-2.01,5.11-2.55c1.88-0.54,3.82-0.82,5.82-0.82
				c1.83,0,3.64,0.23,5.45,0.68c1.81,0.46,3.41,1.17,4.82,2.13c1.4,0.97,2.54,2.22,3.42,3.77c0.88,1.54,1.32,3.41,1.32,5.58
				c0,1.54-0.2,2.91-0.61,4.08c-0.4,1.18-0.95,2.22-1.63,3.13c-0.68,0.91-1.46,1.74-2.32,2.48c-0.86,0.74-1.76,1.44-2.71,2.11
				l-5.48,3.9H347v10.48h-30.23V56.3L331.52,44.5z"/>
		</g>
	</g>
</g>
</svg>
