<svg xmlns="http://www.w3.org/2000/svg" viewBox="0 0 422.28 121"><defs><style>.cls-1,.cls-5{fill:#fff;}.cls-2{font-size:33px;fill:#60dfff;}.cls-2,.cls-5{font-family:AvenirNext-Heavy, Avenir Next;font-weight:800;}.cls-3{letter-spacing:-0.03em;}.cls-4{fill:#017bd2;}.cls-5{font-size:69.03px;}.cls-6{letter-spacing:-0.01em;}.cls-7{letter-spacing:-0.03em;}.cls-8{letter-spacing:-0.02em;}</style></defs><g id="INTERFACE"><rect class="cls-1" x="96.14" width="225.48" height="52.03"/><text class="cls-2" transform="translate(114 38.91)">MÓDU<tspan class="cls-3" x="113.07" y="0">L</tspan><tspan x="130.2" y="0">O 1</tspan></text><path class="cls-4" d="M342.63,52l-2-5.1H312.27l-2,5.07L303,70.38V46.87H270.44v6.38a20.51,20.51,0,0,0-2.35-1.79,26,26,0,0,0-9.14-3.7,43.64,43.64,0,0,0-8.74-.89H221.16v8.88c-.43-.44-.88-.87-1.33-1.28a34,34,0,0,0-11.28-6.71,41.22,41.22,0,0,0-27,0,35.33,35.33,0,0,0-6.4,3.08v-4H118.72v.37a35.59,35.59,0,0,0-10.84-1.75,38.41,38.41,0,0,0-9.16,1.13,27.86,27.86,0,0,0-9.25,4.14c-.54.38-1,.79-1.55,1.21v-5.1H0v64.87H87.92v-2.39c1,.44,2,.86,3,1.24a38.93,38.93,0,0,0,6.91,1.89,40.72,40.72,0,0,0,7.25.64,33.59,33.59,0,0,0,9.6-1.4,28.11,28.11,0,0,0,9-4.54,24.6,24.6,0,0,0,6.83-8c.09-.16.16-.32.24-.48v13.08h32.43V94a32.3,32.3,0,0,0,7.05,9.8,33.32,33.32,0,0,0,11.27,7,40.09,40.09,0,0,0,27.16,0,34,34,0,0,0,11.28-6.92c.42-.4.84-.81,1.24-1.23v9.14H321.6l1.84-5.45.58-1.73h4.14l.66,1.86,1.89,5.32h35.23l-4.25-10.9Z"/><path class="cls-4" d="M421.26,82.94a19.17,19.17,0,0,0-2.62-5,18,18,0,0,0,2.75-10,19.65,19.65,0,0,0-3.11-11,22.83,22.83,0,0,0-7.09-6.88,28.39,28.39,0,0,0-8.71-3.56,38.22,38.22,0,0,0-8.49-1,39.25,39.25,0,0,0-8.28.91,30.36,30.36,0,0,0-8.52,3.23,26.84,26.84,0,0,0-7.42,6.22,27.24,27.24,0,0,0-5,9.49l-2.61,8.37,8.58,1.83L377.43,77v3.49l-7.84,1.84-7.87,1.84L363.65,92a25.38,25.38,0,0,0,4.71,9.83,28.34,28.34,0,0,0,7.3,6.52,30.15,30.15,0,0,0,9,3.71,39.4,39.4,0,0,0,18.49,0,28.29,28.29,0,0,0,9.15-4,23.36,23.36,0,0,0,7.11-7.62A22.31,22.31,0,0,0,422.28,89,18.45,18.45,0,0,0,421.26,82.94Z"/><text class="cls-5" transform="translate(3.44 103.74)">HI<tspan class="cls-6" x="81.04" y="0">S</tspan><tspan class="cls-7" x="122.8" y="0">T</tspan><tspan x="162.14" y="0">ORI</tspan><tspan class="cls-8" x="296.12" y="0">A</tspan><tspan x="348.44" y="0" xml:space="preserve"> 3</tspan></text></g></svg>